<svg width="44" height="44" viewBox="0 0 44 44" fill="none" xmlns="http://www.w3.org/2000/svg">
<g filter="url(#filter0_d_1221_10788)">
<path d="M4 18C4 8.05888 12.0589 0 22 0C31.9411 0 40 8.05888 40 18C40 27.9411 31.9411 36 22 36C12.0589 36 4 27.9411 4 18Z" fill="#E11A7D"/>
</g>
<path d="M30.25 9.48389H13.75C13.1313 9.48389 12.625 9.99014 12.625 10.6089V21.9489C12.625 22.5673 13.1313 23.0739 13.75 23.0739H14.545C14.7513 23.0739 14.92 23.2426 14.92 23.4489V26.2014L19.6862 23.1414C19.7463 23.1001 19.8212 23.0739 19.9037 23.0739H30.25C30.8687 23.0739 31.375 22.5673 31.375 21.9489V10.6089C31.375 9.99014 30.8687 9.48389 30.25 9.48389ZM26.902 15.6121L24.3006 17.5003L25.2887 20.5468V20.5584L25.2996 20.6026C25.342 20.7744 25.2756 20.9446 25.1219 21.0586C25.0428 21.1138 24.9486 21.146 24.8575 21.146C24.7776 21.146 24.7056 21.1246 24.6441 21.083L24.6093 21.0594L24.5905 21.0523L22 19.172L19.4091 21.0526L19.3907 21.0598L19.3559 21.0834C19.2944 21.125 19.2227 21.1464 19.1425 21.1464C19.0506 21.1464 18.955 21.1141 18.874 21.0556C18.7214 20.9446 18.6554 20.7744 18.6996 20.6023L18.7112 20.5565V20.5471L19.6994 17.5006L17.0976 15.6121C16.9401 15.4955 16.8794 15.302 16.9416 15.1085C16.9983 14.9356 17.1434 14.8186 17.3196 14.8044L17.3665 14.8006L17.3744 14.7976H20.5772L21.5729 11.7414L21.5879 11.7061C21.6696 11.5355 21.8129 11.4361 22.0045 11.4339C22.1909 11.4339 22.348 11.5366 22.411 11.702L22.4361 11.765L23.4231 14.7976H26.6354L26.6807 14.8044C26.857 14.8183 27.0017 14.9356 27.0595 15.11C27.121 15.3031 27.0614 15.4959 26.902 15.6121Z" fill="white"/>
<defs>
<filter id="filter0_d_1221_10788" x="0" y="0" width="44" height="44" filterUnits="userSpaceOnUse" color-interpolation-filters="sRGB">
<feFlood flood-opacity="0" result="BackgroundImageFix"/>
<feColorMatrix in="SourceAlpha" type="matrix" values="0 0 0 0 0 0 0 0 0 0 0 0 0 0 0 0 0 0 127 0" result="hardAlpha"/>
<feOffset dy="4"/>
<feGaussianBlur stdDeviation="2"/>
<feComposite in2="hardAlpha" operator="out"/>
<feColorMatrix type="matrix" values="0 0 0 0 0.85098 0 0 0 0 0.027451 0 0 0 0 0.0352942 0 0 0 0.23 0"/>
<feBlend mode="normal" in2="BackgroundImageFix" result="effect1_dropShadow_1221_10788"/>
<feBlend mode="normal" in="SourceGraphic" in2="effect1_dropShadow_1221_10788" result="shape"/>
</filter>
</defs>
</svg>
