<svg width="21" height="25" viewBox="0 0 21 25" fill="none" xmlns="http://www.w3.org/2000/svg">
<path d="M13.6197 21.7429C13.6197 20.0883 12.1948 18.7471 10.4368 18.7471C8.67888 18.7471 7.25391 20.0883 7.25391 21.7429C7.25391 23.3975 8.67888 24.7388 10.4368 24.7388C12.1948 24.7388 13.6197 23.3975 13.6197 21.7429Z" fill="#FFCBE4"/>
<path d="M10.4388 18.7471C10.117 18.7471 9.80642 18.7924 9.51367 18.8761C10.8203 19.249 11.7715 20.3911 11.7715 21.7429C11.7715 23.0945 10.8203 24.2368 9.51367 24.6098C9.80642 24.6934 10.117 24.7388 10.4388 24.7388C12.1967 24.7388 13.6217 23.3975 13.6217 21.7429C13.6217 20.0883 12.1967 18.7471 10.4388 18.7471Z" fill="#E196BB"/>
<path d="M10.809 4.25854C9.78665 4.45185 8.79167 3.82871 8.58621 2.86645C8.38074 1.90439 9.04295 0.967734 10.0651 0.774422C11.0872 0.58111 12.0824 1.20424 12.2879 2.1665C12.4931 3.12857 11.8311 4.06522 10.809 4.25854Z" fill="#FFCBE4"/>
<path d="M12.2893 2.1665C12.0839 1.20424 11.0887 0.58111 10.0666 0.774422C9.97139 0.792405 9.87955 0.817033 9.79102 0.847134C10.3877 1.05276 10.8602 1.53712 10.9946 2.1665C11.181 3.03905 10.6535 3.89068 9.79122 4.18582C10.1068 4.2945 10.457 4.32538 10.8105 4.25854C11.8326 4.06522 12.4946 3.12857 12.2893 2.1665Z" fill="#E196BB"/>
<path d="M18.3215 21.2424H2.55451C1.14363 21.2424 0 20.166 0 18.8382C0 18.1031 0.353497 17.4074 0.961386 16.9459L1.46789 16.5613C2.63951 15.6719 3.32079 14.3312 3.32079 12.9145V10.3878C3.32079 6.65974 6.5315 3.6377 10.4923 3.6377C14.4529 3.6377 17.6638 6.65974 17.6638 10.3878V12.9612C17.6638 14.3512 18.3196 15.6696 19.4539 16.5597L19.9472 16.9467C20.5358 17.4086 20.876 18.0927 20.876 18.814V18.8382C20.876 20.166 19.7324 21.2424 18.3215 21.2424Z" fill="#F0B5D2"/>
<path d="M19.9462 16.9469L19.4529 16.5599C18.3186 15.6696 17.6629 14.3514 17.6629 12.9612V10.3878C17.6629 6.65993 14.4519 3.6377 10.4913 3.6377C9.78953 3.6377 9.11156 3.73308 8.4707 3.90997C11.4475 4.73111 13.6216 7.3204 13.6216 10.3878V12.9612C13.6216 14.3514 14.2774 15.6696 15.4117 16.5599L15.9051 16.9469C16.4935 17.4088 16.834 18.0929 16.834 18.8142V18.8384C16.834 20.1662 15.6903 21.2426 14.2795 21.2426H18.3207C19.7314 21.2426 20.875 20.1662 20.875 18.8384V18.8142C20.875 18.0929 20.5348 17.4088 19.9462 16.9469Z" fill="#E196BB"/>
</svg>
