<svg width="42" height="42" viewBox="0 0 42 42" fill="none" xmlns="http://www.w3.org/2000/svg">
<g clip-path="url(#clip0_1530_4427)">
<path d="M31.6641 18.8672C32.5702 18.8672 33.3047 18.1327 33.3047 17.2266C33.3047 16.3205 32.5702 15.5859 31.6641 15.5859C30.758 15.5859 30.0234 16.3205 30.0234 17.2266C30.0234 18.1327 30.758 18.8672 31.6641 18.8672Z" fill="#E11A7D"/>
<path d="M35.4375 3.28125H33.3047V1.64062C33.3047 0.734508 32.5702 0 31.6641 0C30.7579 0 30.0234 0.734508 30.0234 1.64062V3.28125H22.5586V1.64062C22.5586 0.734508 21.8241 0 20.918 0C20.0119 0 19.2773 0.734508 19.2773 1.64062V3.28125H11.8945V1.64062C11.8945 0.734508 11.16 0 10.2539 0C9.34779 0 8.61328 0.734508 8.61328 1.64062V3.28125H6.5625C2.94394 3.28125 0 6.22519 0 9.84375V35.4375C0 39.0561 2.94394 42 6.5625 42H19.1133C20.0194 42 20.7539 41.2655 20.7539 40.3594C20.7539 39.4533 20.0194 38.7188 19.1133 38.7188H6.5625C4.75322 38.7188 3.28125 37.2468 3.28125 35.4375V9.84375C3.28125 8.03447 4.75322 6.5625 6.5625 6.5625H8.61328V8.20312C8.61328 9.10924 9.34779 9.84375 10.2539 9.84375C11.16 9.84375 11.8945 9.10924 11.8945 8.20312V6.5625H19.2773V8.20312C19.2773 9.10924 20.0119 9.84375 20.918 9.84375C21.8241 9.84375 22.5586 9.10924 22.5586 8.20312V6.5625H30.0234V8.20312C30.0234 9.10924 30.7579 9.84375 31.6641 9.84375C32.5702 9.84375 33.3047 9.10924 33.3047 8.20312V6.5625H35.4375C37.2468 6.5625 38.7188 8.03447 38.7188 9.84375V19.1953C38.7188 20.1014 39.4533 20.8359 40.3594 20.8359C41.2655 20.8359 42 20.1014 42 19.1953V9.84375C42 6.22519 39.0561 3.28125 35.4375 3.28125Z" fill="#E11A7D"/>
<path d="M32.0742 22.1484C26.6011 22.1484 22.1484 26.6011 22.1484 32.0742C22.1484 37.5473 26.6011 42 32.0742 42C37.5473 42 42 37.5473 42 32.0742C42 26.6011 37.5473 22.1484 32.0742 22.1484ZM32.0742 38.7188C28.4105 38.7188 25.4297 35.7381 25.4297 32.0742C25.4297 28.4104 28.4105 25.4297 32.0742 25.4297C35.738 25.4297 38.7188 28.4104 38.7188 32.0742C38.7188 35.7381 35.738 38.7188 32.0742 38.7188Z" fill="#E11A7D"/>
<path d="M34.4531 30.4336H33.7148V28.7109C33.7148 27.8048 32.9803 27.0703 32.0742 27.0703C31.1681 27.0703 30.4336 27.8048 30.4336 28.7109V32.0742C30.4336 32.9803 31.1681 33.7148 32.0742 33.7148H34.4531C35.3592 33.7148 36.0938 32.9803 36.0938 32.0742C36.0938 31.1681 35.3592 30.4336 34.4531 30.4336Z" fill="#E11A7D"/>
<path d="M24.5273 18.8672C25.4334 18.8672 26.168 18.1327 26.168 17.2266C26.168 16.3205 25.4334 15.5859 24.5273 15.5859C23.6213 15.5859 22.8867 16.3205 22.8867 17.2266C22.8867 18.1327 23.6213 18.8672 24.5273 18.8672Z" fill="#E11A7D"/>
<path d="M17.3906 26.0039C18.2967 26.0039 19.0312 25.2694 19.0312 24.3633C19.0312 23.4572 18.2967 22.7227 17.3906 22.7227C16.4845 22.7227 15.75 23.4572 15.75 24.3633C15.75 25.2694 16.4845 26.0039 17.3906 26.0039Z" fill="#E11A7D"/>
<path d="M10.2539 18.8672C11.16 18.8672 11.8945 18.1327 11.8945 17.2266C11.8945 16.3205 11.16 15.5859 10.2539 15.5859C9.34781 15.5859 8.61328 16.3205 8.61328 17.2266C8.61328 18.1327 9.34781 18.8672 10.2539 18.8672Z" fill="#E11A7D"/>
<path d="M10.2539 26.0039C11.16 26.0039 11.8945 25.2694 11.8945 24.3633C11.8945 23.4572 11.16 22.7227 10.2539 22.7227C9.34781 22.7227 8.61328 23.4572 8.61328 24.3633C8.61328 25.2694 9.34781 26.0039 10.2539 26.0039Z" fill="#E11A7D"/>
<path d="M10.2539 33.1406C11.16 33.1406 11.8945 32.4061 11.8945 31.5C11.8945 30.5939 11.16 29.8594 10.2539 29.8594C9.34781 29.8594 8.61328 30.5939 8.61328 31.5C8.61328 32.4061 9.34781 33.1406 10.2539 33.1406Z" fill="#E11A7D"/>
<path d="M17.3906 33.1406C18.2967 33.1406 19.0312 32.4061 19.0312 31.5C19.0312 30.5939 18.2967 29.8594 17.3906 29.8594C16.4845 29.8594 15.75 30.5939 15.75 31.5C15.75 32.4061 16.4845 33.1406 17.3906 33.1406Z" fill="#E11A7D"/>
<path d="M17.3906 18.8672C18.2967 18.8672 19.0312 18.1327 19.0312 17.2266C19.0312 16.3205 18.2967 15.5859 17.3906 15.5859C16.4845 15.5859 15.75 16.3205 15.75 17.2266C15.75 18.1327 16.4845 18.8672 17.3906 18.8672Z" fill="#E11A7D"/>
</g>
<defs>
<clipPath id="clip0_1530_4427">
<rect width="42" height="42" fill="white"/>
</clipPath>
</defs>
</svg>
