<svg width="20" height="14" viewBox="0 0 20 14" fill="none" xmlns="http://www.w3.org/2000/svg">
<path d="M20 10.5692C20 9.85971 19.7815 9.20039 19.409 8.65421C19.3894 8.60567 19.3569 8.56561 19.3176 8.5322C18.6956 7.70214 17.7071 7.16168 16.5924 7.16168H16.162L13.2989 4.47288C12.7083 3.91858 11.9369 3.61328 11.127 3.61328H1.66068C0.744972 3.61328 0 4.35825 0 5.27415V10.2149C0 10.2615 0.00350706 10.3073 0.00701414 10.3529C0.00572205 10.3647 0 10.3753 0 10.3874C0 10.4334 0.010152 10.4766 0.0275027 10.5163C0.171292 11.3574 0.903897 12.0003 1.78546 12.0003H1.79487C2.03778 12.9269 2.87985 13.6132 3.88139 13.6132C4.88311 13.6132 5.72499 12.9269 5.96809 12.0003H14.6525C14.8956 12.9269 15.7376 13.6132 16.7392 13.6132C17.7505 13.6132 18.5994 12.9134 18.8327 11.9734C19.5105 11.8467 20 11.2633 20 10.5692ZM3.88139 12.9681C3.04634 12.9681 2.36726 12.289 2.36726 11.4538C2.36726 10.6187 3.04652 9.93964 3.88139 9.93964C4.71625 9.93964 5.3957 10.6187 5.3957 11.4538C5.3957 12.289 4.71625 12.9681 3.88139 12.9681ZM16.739 12.9681C15.9039 12.9681 15.2249 12.289 15.2249 11.4538C15.2249 10.6187 15.9041 9.93964 16.739 9.93964C17.5739 9.93964 18.2533 10.6187 18.2533 11.4538C18.2533 12.289 17.574 12.9681 16.739 12.9681ZM18.8899 11.2843C18.8028 10.1728 17.8725 9.29434 16.739 9.29434C15.5817 9.29434 14.6368 10.2102 14.5847 11.3552H6.03583C5.98378 10.2104 5.0389 9.29434 3.88139 9.29434C2.72609 9.29434 1.78251 10.2071 1.72732 11.3493C1.30204 11.3275 0.939891 11.0735 0.763061 10.7101H1.04621C1.22433 10.7101 1.36867 10.5657 1.36867 10.3874C1.36867 10.2091 1.22433 10.065 1.04621 10.065H0.645114V5.27415C0.645114 4.71394 1.10066 4.25839 1.66068 4.25839H11.127C11.7723 4.25839 12.3867 4.50167 12.8572 4.94338L15.8133 7.7193C15.8731 7.7756 15.9521 7.8068 16.0343 7.8068H16.5924C17.268 7.8068 17.8871 8.05155 18.3677 8.45579C18.199 8.46649 18.0645 8.60308 18.0645 8.77456C18.0645 8.95286 18.209 9.09721 18.3871 9.09721H18.9257C19.196 9.52396 19.3549 10.0279 19.3549 10.5692C19.3549 10.8871 19.1672 11.1608 18.8899 11.2843Z" fill="#ACACAC"/>
<path d="M13.8711 9.09668H6.4518C6.27349 9.09668 6.12915 9.24084 6.12915 9.41915C6.12915 9.59746 6.27349 9.7418 6.4518 9.7418H13.8711C14.0492 9.7418 14.1937 9.59746 14.1937 9.41915C14.1937 9.24084 14.0492 9.09668 13.8711 9.09668Z" fill="#ACACAC"/>
<path d="M9.03218 7.80701V4.91036C9.03218 4.73205 8.88766 4.58789 8.70954 4.58789H1.61275C1.43463 4.58789 1.29028 4.73205 1.29028 4.91036V7.80701C1.29028 7.98532 1.43463 8.12966 1.61275 8.12966H8.70954C8.88766 8.12966 9.03218 7.98532 9.03218 7.80701ZM8.38689 7.48454H1.9354V5.23301H8.38689V7.48454Z" fill="#ACACAC"/>
<path d="M12.5011 5.20587C12.0758 4.80736 11.5202 4.58789 10.9371 4.58789H10.0002C9.82208 4.58789 9.67773 4.73205 9.67773 4.91036V7.80701C9.67773 7.98532 9.82208 8.12966 10.0002 8.12966H14.8073C14.9398 8.12966 15.0587 8.04863 15.1074 7.92551C15.1561 7.8024 15.1244 7.66211 15.0278 7.57167L12.5011 5.20587ZM10.3228 7.48454V5.23301H10.9371C11.3558 5.23301 11.7546 5.39046 12.0599 5.67656L13.9907 7.48454H10.3228Z" fill="#ACACAC"/>
<path d="M3.88149 10.3516C3.27385 10.3516 2.77954 10.8457 2.77954 11.4533C2.77954 12.0612 3.27385 12.5553 3.88149 12.5553C4.48913 12.5553 4.98344 12.0612 4.98344 11.4533C4.98344 10.8457 4.48913 10.3516 3.88149 10.3516ZM3.88149 11.9102C3.62954 11.9102 3.42465 11.7055 3.42465 11.4533C3.42465 11.2014 3.62954 10.9967 3.88149 10.9967C4.13326 10.9967 4.33833 11.2014 4.33833 11.4533C4.33833 11.7055 4.13326 11.9102 3.88149 11.9102Z" fill="#ACACAC"/>
<path d="M16.7392 10.3516C16.1315 10.3516 15.6372 10.8457 15.6372 11.4533C15.6372 12.0612 16.1315 12.5553 16.7392 12.5553C17.3468 12.5553 17.8411 12.0612 17.8411 11.4533C17.8411 10.8457 17.347 10.3516 16.7392 10.3516ZM16.7392 11.9102C16.4874 11.9102 16.2823 11.7055 16.2823 11.4533C16.2823 11.2014 16.4874 10.9967 16.7392 10.9967C16.9911 10.9967 17.196 11.2014 17.196 11.4533C17.196 11.7055 16.9911 11.9102 16.7392 11.9102Z" fill="#ACACAC"/>
<path d="M6.12953 1.35525H9.03281C9.21093 1.35525 9.35527 1.21091 9.35527 1.03261C9.35527 0.854303 9.21093 0.709961 9.03281 0.709961H6.12953C5.95141 0.709961 5.80688 0.854303 5.80688 1.03261C5.80688 1.21091 5.95141 1.35525 6.12953 1.35525Z" fill="#ACACAC"/>
<path d="M3.54836 2.32304H8.06452C8.24264 2.32304 8.38699 2.17869 8.38699 2.00039C8.38699 1.82208 8.24264 1.67773 8.06452 1.67773H3.54836C3.37024 1.67773 3.22571 1.82208 3.22571 2.00039C3.22571 2.17869 3.37024 2.32304 3.54836 2.32304Z" fill="#ACACAC"/>
</svg>
