<svg width="480" height="225" viewBox="0 0 480 225" fill="none" xmlns="http://www.w3.org/2000/svg">
<g opacity="0.4">
<path opacity="0.8" d="M99.1962 128.727C131.132 117.027 166.097 117.824 199.674 122.345C233.251 126.866 266.323 135.242 300.152 138.167C333.855 141.092 369.073 138.167 399.116 121.547C429.158 104.927 452.763 72.7516 453.142 37.1188C463.871 48.0213 475.232 58.3921 486.34 68.7628C496.186 77.9369 493.535 86.3133 492.399 99.6091C489.243 133.646 486.214 167.817 483.058 201.854C481.543 219.138 479.397 237.753 468.415 250.517C456.55 264.344 437.742 267.934 420.322 270.46C281.471 290.404 140.094 289.606 1.49512 268.2C3.26232 268.466 12.0983 223.393 13.2344 219.005C16.7688 205.178 25.2261 191.35 33.3048 180.049C49.8407 156.648 72.9406 138.433 99.1962 128.727Z" fill="url(#paint0_linear_1245_25752)"/>
<path opacity="0.5" d="M51.7343 279.235C47.8212 246.794 52.6179 212.889 66.7555 183.771C80.8932 154.654 104.75 130.588 133.657 118.489C173.04 102.002 217.094 108.517 259.128 113.57C301.162 118.489 346.605 120.882 382.832 97.8805C405.554 83.3881 422.595 59.3227 429.411 32.3322C436.227 5.34166 432.44 -24.441 419.439 -48.9053C444.18 -61.1374 476.368 -43.1881 491.768 -19.5215C507.168 4.14504 510.576 34.3265 510.955 63.0455C511.46 100.806 507.799 138.566 500.099 175.395C495.933 195.472 490.127 215.814 477.378 231.238C456.424 256.367 422.09 262.616 390.532 266.471C278.189 280.299 164.583 284.155 51.7343 279.235Z" fill="url(#paint1_linear_1245_25752)"/>
<path d="M484.319 -38.2317L391.9 -38.0985C421.287 -17.8605 445.181 11.2982 454.382 45.1169C463.583 78.9357 456.991 117.548 433.234 143.91C407.28 172.67 364.984 183.454 325.709 180.658C286.435 177.729 249.22 162.95 213.103 147.638C176.987 132.327 140.733 116.083 101.733 110.092C62.8706 104.1 20.1628 109.559 -10.3232 133.791C-8.81267 170.406 -6.34084 205.956 -4.83027 242.571C162.019 243.636 329.005 245.234 495.854 246.299C491.185 152.032 488.988 55.9017 484.319 -38.2317Z" fill="url(#paint2_linear_1245_25752)" stroke="url(#paint3_linear_1245_25752)" stroke-width="0.5" stroke-miterlimit="10"/>
<path opacity="0.5" d="M-11.0019 187.627C5.53404 157.977 38.9847 142.022 71.5517 140.56C104.119 139.097 136.181 150.133 165.971 164.094C195.761 178.054 224.415 195.073 255.215 206.64C286.014 218.207 319.844 224.058 351.275 215.017C391.163 203.449 423.351 166.753 431.177 123.94C438.625 125.935 444.558 125.802 452.005 127.796C453.267 156.382 454.656 185.101 455.918 213.687C456.171 220.202 456.423 226.85 454.404 232.966C450.995 242.805 442.033 249.453 432.566 252.245C423.099 255.037 413.001 254.638 403.155 254.106C265.565 247.458 128.228 236.29 -8.60359 220.468C-7.71998 208.767 -16.556 197.466 -11.0019 187.627Z" fill="url(#paint4_linear_1245_25752)" stroke="url(#paint5_linear_1245_25752)" stroke-width="0.5" stroke-miterlimit="10"/>
</g>
<defs>
<linearGradient id="paint0_linear_1245_25752" x1="394.003" y1="355.423" x2="19.8963" y2="-64.6806" gradientUnits="userSpaceOnUse">
<stop stop-color="white" stop-opacity="0"/>
<stop offset="1" stop-color="#F7EBEB"/>
</linearGradient>
<linearGradient id="paint1_linear_1245_25752" x1="284.715" y1="214.211" x2="271.851" y2="59.0657" gradientUnits="userSpaceOnUse">
<stop stop-color="white" stop-opacity="0"/>
<stop offset="1" stop-color="#F7EBEB"/>
</linearGradient>
<linearGradient id="paint2_linear_1245_25752" x1="246.685" y1="146.717" x2="229.522" y2="30.0725" gradientUnits="userSpaceOnUse">
<stop stop-color="white" stop-opacity="0"/>
<stop offset="1" stop-color="#F7EBEB"/>
</linearGradient>
<linearGradient id="paint3_linear_1245_25752" x1="-10.8" y1="103.99" x2="496.117" y2="103.99" gradientUnits="userSpaceOnUse">
<stop stop-color="white" stop-opacity="0"/>
<stop offset="1" stop-color="#F7EBEB"/>
</linearGradient>
<linearGradient id="paint4_linear_1245_25752" x1="217.608" y1="235.23" x2="248.033" y2="59.2121" gradientUnits="userSpaceOnUse">
<stop stop-color="white" stop-opacity="0"/>
<stop offset="1" stop-color="#F7EBEB"/>
</linearGradient>
<linearGradient id="paint5_linear_1245_25752" x1="-13.1478" y1="188.981" x2="456.518" y2="188.981" gradientUnits="userSpaceOnUse">
<stop stop-color="white" stop-opacity="0"/>
<stop offset="1" stop-color="#F7EBEB"/>
</linearGradient>
</defs>
</svg>
