<svg width="518" height="342" viewBox="0 0 518 342" fill="none" xmlns="http://www.w3.org/2000/svg">
<g clip-path="url(#clip0_1187_342)">
<path d="M234.093 335.844H227.415L225.538 250.676H235.736L234.093 335.844Z" fill="#2B478B"/>
<path d="M263.128 335.844H198.167V329.966L231.277 326.973L263.128 329.966V335.844Z" fill="#2B478B"/>
<path d="M191.853 334.924C191.853 331.974 194.242 329.58 197.186 329.58C200.13 329.58 202.519 331.974 202.519 334.924C202.519 337.875 200.13 340.269 197.186 340.269C194.242 340.269 191.853 337.875 191.853 334.924Z" fill="#2B478B"/>
<path d="M256.813 334.924C256.813 331.974 259.203 329.58 262.147 329.58C265.091 329.58 267.48 331.974 267.48 334.924C267.48 337.875 265.091 340.269 262.147 340.269C259.203 340.269 256.813 337.875 256.813 334.924Z" fill="#2B478B"/>
<path d="M260.781 256.277H200.493C197.421 256.277 194.925 253.776 194.925 250.697H266.371C266.371 253.776 263.875 256.277 260.781 256.277Z" fill="#2B478B"/>
<path d="M185.516 250.675C180.396 250.675 176.236 246.506 176.236 241.376V167.174C176.236 152.487 185.815 140.559 197.655 140.559H246.082C257.901 140.559 267.501 152.466 267.501 167.174V250.675H185.516Z" fill="#F97146"/>
<path d="M186.476 250.675C183.66 250.675 181.398 248.388 181.398 245.587V167.174C181.398 152.487 190.977 140.559 202.817 140.559H251.244C263.063 140.559 272.663 152.466 272.663 167.174V250.675H186.476Z" fill="#E11A7D"/>
<path d="M298.691 250.676H181.911C178.668 250.676 176.044 248.046 176.044 244.797C176.044 241.547 178.668 238.918 181.911 238.918H298.691C301.933 238.918 304.557 241.547 304.557 244.797C304.557 248.046 301.933 250.676 298.691 250.676Z" fill="#F97146"/>
<path d="M299.117 14.4521C299.117 14.4521 304.173 5.94376 316.227 6.90576C316.227 6.90576 333.742 -7.26764 352.43 5.02452C352.43 5.02452 372.291 1.98889 386.99 7.65398C396.804 11.4378 400.025 15.4141 400.025 15.4141L299.117 14.4521Z" fill="#F8FCFF"/>
<path d="M374.169 37.7756C374.169 37.7756 377.092 32.6022 384.11 33.1794C384.11 33.1794 394.286 24.5429 405.124 32.025C405.124 32.025 416.665 30.1652 425.199 33.6284C430.895 35.9371 432.772 38.3528 432.772 38.3528L374.169 37.7756Z" fill="#F8FCFF"/>
<path d="M187.159 75.3354C187.159 75.3354 191.127 68.3449 200.578 69.1145C200.578 69.1145 214.317 57.4423 228.973 67.554C228.973 67.554 244.546 65.0528 256.088 69.7131C263.789 72.8343 266.328 76.105 266.328 76.105L187.159 75.3354Z" fill="#F8FCFF"/>
<path d="M424.73 340.333C424.73 340.333 424.73 335.737 425.392 334.219C426.053 332.701 428.443 326.48 428.443 326.48H437.787C437.787 326.48 439.536 332.146 439.643 334.005C439.749 335.865 439.643 340.333 439.643 340.333H424.73Z" fill="#233862"/>
<path d="M484.123 340.333C484.123 340.333 484.123 335.737 483.461 334.219C482.8 332.701 480.411 326.48 480.411 326.48H471.067C471.067 326.48 469.317 332.146 469.21 334.005C469.104 335.865 469.21 340.333 469.21 340.333H484.123Z" fill="#233862"/>
<path d="M446.64 82.8173C446.64 82.8173 446.32 93.0358 444.997 97.6106L434.672 104.836L473.542 110.672L464.262 97.8244C464.262 97.8244 461.467 84.1213 462.939 79.0548C464.432 73.9883 446.64 82.8173 446.64 82.8173Z" fill="#FFB27D"/>
<path d="M446.597 84.2285C446.597 84.2285 449.669 91.6466 455.471 91.4755C461.253 91.3045 462.576 84.7416 462.576 84.7416L446.597 84.2285Z" fill="#ED985F"/>
<path d="M443.141 78.2219C443.141 78.2219 441.264 68.8585 439.962 66.0366C438.661 63.1934 437.573 50.5592 452.037 49.9179C452.037 49.9179 457.584 50.5806 460.634 48.7207C460.634 48.7207 460.634 50.5806 459.866 51.2219C459.866 51.2219 464.88 50.0247 468.784 54.3858C472.709 58.7468 466.181 74.0105 466.501 77.6019L443.141 78.2219Z" fill="#2C3A64"/>
<path d="M454.789 88.6121C450.586 88.5479 442.863 82.947 442.863 75.9992V65.1821C442.863 62.6596 444.634 60.5859 446.789 60.5859H462.789C464.944 60.5859 466.714 62.6596 466.714 65.1821V75.3793C466.714 82.6691 459.61 88.6976 454.789 88.6121Z" fill="#FFB27D"/>
<path d="M442.864 70.9541C442.864 70.9541 442.885 64.4553 448.027 63.4505C453.168 62.4457 464.667 66.6144 466.288 61.8686C467.91 57.1227 444.059 57.2082 442.864 60.2438C441.669 63.2795 442.864 70.9541 442.864 70.9541Z" fill="#2C3A64"/>
<path d="M425.903 181.434C425.903 181.434 427.546 231.5 425.093 260.082C422.639 288.664 425.114 328.405 425.114 328.405C425.114 328.405 432.943 332.723 441.413 328.405C441.413 328.405 450.714 273.208 450.65 260.082C450.586 246.101 460.784 183.614 460.784 183.614L425.903 181.434Z" fill="#2B478B"/>
<path d="M483.781 328.426C483.781 328.426 475.952 332.744 467.482 328.426C467.482 328.426 458.181 273.229 458.245 260.103C458.266 254.203 456.474 239.645 454.384 224.787C451.525 204.478 448.133 183.635 448.133 183.635L484.378 181.369C484.378 181.369 481.392 231.521 483.845 260.103C486.235 288.664 483.781 328.426 483.781 328.426Z" fill="#2B478B"/>
<path d="M483.909 189.77C483.909 189.77 468.464 192.763 454.362 192.763C448.218 192.763 441.541 192.079 436.229 191.374C430.341 190.583 426.138 189.77 426.138 189.77C426.138 189.77 423.002 190.048 424.858 174.571C426.266 162.792 425.818 152.167 425.519 141.222C425.477 140.003 425.519 138.571 425.583 136.968C426.181 124.205 430.042 101.246 432.965 100.027C432.965 100.027 437.317 98.4023 445.039 97.6113C445.039 97.761 449.519 104.324 454.81 105.051C458.117 103.747 460.698 102.635 464.304 97.8251C468.869 98.3595 473.861 99.2574 479.194 100.711C479.194 100.711 479.749 103.148 481.84 145.348C482.65 162.044 488.347 189.835 483.909 189.77Z" fill="#9FC1F4"/>
<path d="M458.224 260.083C458.245 254.182 456.453 239.624 454.362 224.767C456.538 215.895 461.808 207.365 461.808 207.365C468.506 226.178 458.224 260.083 458.224 260.083Z" fill="#233862"/>
<path d="M411.226 150.265C410.863 150.565 412.143 153.771 414.042 157.919C417.946 166.47 424.41 179.083 424.41 179.083C423.471 182.653 422.447 184.833 422.447 184.833C411.567 176.261 404.548 168.971 400.068 163.391C393.775 155.524 392.474 151.014 392.474 151.014C416.709 101.588 433.754 99.75 433.754 99.75L431.749 132.415C431.727 132.436 412.335 149.325 411.226 150.265Z" fill="#9FC1F4"/>
<path d="M423.109 179.702C423.109 179.702 428.975 174.251 431.365 177.308C433.754 180.365 434.202 185.153 432.346 184.833C430.49 184.512 426.693 182.759 426.138 183.636C425.605 184.512 423.151 186.18 422.426 184.854C421.679 183.507 423.109 179.702 423.109 179.702Z" fill="#FFB27D"/>
<path d="M424.388 179.082C423.45 182.652 422.426 184.832 422.426 184.832C411.546 176.26 404.527 168.97 400.047 163.391C403.418 163.134 408.346 161.937 414.02 157.918C417.924 166.448 424.388 179.082 424.388 179.082Z" fill="#FFB27D"/>
<path d="M518 151.013C518 151.013 516.699 155.523 510.405 163.39C505.925 168.991 498.906 176.281 488.026 184.832C488.026 184.832 487.002 182.63 486.064 179.081C486.064 179.081 492.528 166.469 496.432 157.918C498.33 153.749 499.61 150.564 499.248 150.264C498.373 149.537 486.533 139.233 481.242 134.616C479.706 133.269 478.725 132.435 478.725 132.435L477.509 100.262C477.509 100.241 493.765 101.587 518 151.013Z" fill="#9FC1F4"/>
<path d="M487.344 179.702C487.344 179.702 481.477 174.251 479.088 177.308C476.698 180.365 476.25 185.153 478.106 184.833C479.962 184.512 483.76 182.759 484.314 183.636C484.848 184.512 487.301 186.18 488.026 184.854C488.752 183.507 487.344 179.702 487.344 179.702Z" fill="#FFB27D"/>
<path d="M486.063 179.082C487.002 182.652 488.026 184.832 488.026 184.832C498.906 176.26 505.925 168.97 510.405 163.391C507.034 163.134 502.106 161.937 496.432 157.918C492.528 166.448 486.063 179.082 486.063 179.082Z" fill="#FFB27D"/>
<path d="M445.552 95.1094C445.552 95.1094 443.824 95.8362 443.333 97.7816C443.333 97.7816 450.266 104.922 454.789 105.029L445.552 95.1094Z" fill="#E11A7D"/>
<path d="M454.789 105.05L463.728 94.7676C463.728 94.7676 465.562 95.9861 465.541 97.9956C465.541 97.9742 458.629 105.307 454.789 105.05Z" fill="#E11A7D"/>
<path d="M453.189 104.281C453.189 104.281 446.362 163.305 448.751 170.488C449.967 174.186 451.61 177.393 452.911 179.637C453.85 181.241 456.176 181.241 457.093 179.637C458.906 176.495 461.274 171.92 461.274 169.611C461.274 165.87 456.09 104.238 456.09 104.238L453.189 104.281Z" fill="#F97146"/>
<path d="M451.397 101.395C451.397 101.395 455.515 100.989 458.032 101.245C458.523 101.288 458.8 101.844 458.565 102.271C457.861 103.533 456.432 105.734 454.917 105.734C452.805 105.734 449.52 101.544 451.397 101.395Z" fill="#E11A7D"/>
<path d="M451.439 81.6425C451.439 81.6425 452.741 83.4168 455.023 83.3527C457.306 83.2885 458.373 81.6425 458.373 81.6425C458.373 81.6425 454.533 81.0011 451.439 81.6425Z" fill="white"/>
<path d="M368.345 199.07L290.712 199.198L302.147 147.87L379.779 147.742L368.345 199.07Z" fill="#416299"/>
<path d="M370.798 199.134L293.165 199.262L304.6 147.87L382.233 147.742L370.798 199.134Z" fill="#233862"/>
<path d="M336.408 211.918L320.28 212.067L331.438 177.97L347.566 177.82L336.408 211.918Z" fill="#112544"/>
<path d="M345.539 210.443H310.317V212.068H345.539V210.443Z" fill="#112544"/>
<path d="M286.894 211.896H220.014L217.923 196.525H284.804L286.894 211.896Z" fill="white"/>
<path d="M231.085 206.787L232.28 200.48H233.816L232.024 208.54H230.68L226.712 200.48H228.248L231.085 206.787Z" fill="#9FC1F4"/>
<path d="M240.771 206.68H237.656L237.25 208.561H235.8L237.741 200.502H239L243.139 208.561H241.688L240.771 206.68ZM237.912 205.547H240.237L238.616 202.212L237.912 205.547Z" fill="#9FC1F4"/>
<path d="M250.861 205.931C250.882 206.316 250.84 206.701 250.733 207.022C250.626 207.364 250.456 207.641 250.242 207.898C250.008 208.133 249.73 208.326 249.368 208.475C249.005 208.603 248.578 208.689 248.088 208.689C247.597 208.689 247.128 208.603 246.722 208.411C246.296 208.24 245.933 207.983 245.592 207.641C245.272 207.321 244.994 206.915 244.781 206.444C244.568 205.974 244.418 205.44 244.333 204.862L244.248 204.2C244.162 203.622 244.184 203.088 244.269 202.618C244.354 202.147 244.525 201.741 244.76 201.421C244.994 201.079 245.314 200.822 245.698 200.651C246.082 200.48 246.53 200.373 247.021 200.373C247.49 200.373 247.938 200.437 248.322 200.587C248.706 200.715 249.048 200.907 249.346 201.164C249.645 201.399 249.88 201.698 250.072 202.041C250.264 202.383 250.413 202.746 250.498 203.152H249.112C249.048 202.896 248.962 202.66 248.877 202.468C248.77 202.276 248.642 202.083 248.493 201.955C248.344 201.805 248.152 201.698 247.938 201.634C247.725 201.57 247.469 201.527 247.192 201.527C246.872 201.527 246.616 201.592 246.381 201.698C246.168 201.827 245.976 201.998 245.848 202.212C245.72 202.447 245.634 202.725 245.613 203.045C245.57 203.387 245.592 203.751 245.656 204.178L245.741 204.841C245.805 205.247 245.89 205.611 245.997 205.931C246.104 206.252 246.253 206.551 246.445 206.765C246.616 207 246.829 207.171 247.085 207.321C247.341 207.449 247.618 207.513 247.938 207.513C248.237 207.513 248.493 207.47 248.685 207.406C248.877 207.342 249.048 207.235 249.154 207.086C249.282 206.957 249.346 206.786 249.41 206.573C249.453 206.38 249.474 206.145 249.474 205.888H250.861V205.931Z" fill="#9FC1F4"/>
<path d="M257.838 206.68H254.723L254.318 208.561H252.867L254.809 200.502H256.067L260.206 208.561H258.755L257.838 206.68ZM254.958 205.547H257.283L255.662 202.212L254.958 205.547Z" fill="#9FC1F4"/>
<path d="M268.632 208.54H267.245L262.893 202.832L263.661 208.54H262.275L261.187 200.48H262.573L266.947 206.21L266.179 200.48H267.565L268.632 208.54Z" fill="#9FC1F4"/>
<path d="M276.121 201.613H273.603L274.542 208.54H273.155L272.217 201.613H269.721L269.571 200.48H275.95L276.121 201.613Z" fill="#9FC1F4"/>
<path d="M211.778 211.853L217.922 196.525L220.013 211.896L211.778 211.853Z" fill="#9FC1F4"/>
<path d="M144.406 208.625H145.857V183.549L130.988 145.54L157.548 124.932L156.652 123.777L129.238 145.048L144.406 183.827V208.625Z" fill="#233862"/>
<path d="M160.556 127.541C161.217 127.07 161.388 126.13 160.897 125.467L158.678 122.346C158.209 121.683 157.27 121.512 156.609 122.004C155.948 122.474 155.777 123.415 156.268 124.077L158.486 127.199C158.956 127.861 159.873 128.032 160.556 127.541Z" fill="#233862"/>
<path d="M132.374 145.092C132.374 144.023 131.521 143.168 130.454 143.168C129.388 143.168 128.534 144.023 128.534 145.092C128.534 146.161 129.388 147.016 130.454 147.016C131.521 147.037 132.374 146.161 132.374 145.092Z" fill="#233862"/>
<path d="M138.092 212.089H152.727V210.614C152.727 209.117 151.532 207.92 150.039 207.92H140.887C139.35 207.92 138.092 209.181 138.092 210.72V212.089Z" fill="#233862"/>
<path d="M143.607 208.643H146.679V185.341H143.607V208.643Z" fill="#233862"/>
<path d="M157.249 149.174C157.313 149.259 157.377 149.324 157.463 149.409L157.484 149.43C157.548 149.516 157.612 149.58 157.697 149.644C159.681 151.376 166.273 148.276 172.631 142.568C178.988 136.86 182.807 130.661 181.314 128.48C181.25 128.395 181.186 128.331 181.122 128.245L181.1 128.224C181.036 128.138 180.972 128.074 180.887 127.989C175.042 121.447 165.036 120.891 158.508 126.727C151.98 132.606 151.425 142.632 157.249 149.174Z" fill="#F97146"/>
<path d="M157.463 149.409C157.506 149.451 157.527 149.473 157.548 149.494C157.591 149.537 157.634 149.58 157.698 149.622C159.682 151.354 166.274 148.254 172.631 142.546C178.989 136.839 182.807 130.639 181.314 128.459C181.271 128.394 181.229 128.352 181.186 128.309C181.165 128.287 181.143 128.266 181.122 128.245L181.101 128.223C179.757 126.941 176.087 128.095 171.799 130.874C169.964 132.05 168.044 133.546 166.124 135.257C164.61 136.603 163.266 137.993 162.071 139.318C158.188 143.722 156.247 147.784 157.463 149.409Z" fill="#F9DDBF"/>
<path d="M162.05 139.341C163.18 140.26 164.61 140.816 166.189 140.816C169.794 140.816 172.717 137.887 172.717 134.274C172.717 133.034 172.375 131.88 171.778 130.875C169.943 132.051 168.023 133.547 166.103 135.257C164.588 136.604 163.244 137.994 162.05 139.341Z" fill="#FFEFE1"/>
<g opacity="0.7">
<path d="M350.851 295.076C350.851 295.076 342.809 285.692 350.361 279.706C350.361 279.706 355.865 276.371 360.366 276.627C360.366 276.627 354.009 287.316 356.057 288.385C358.105 289.454 362.286 275.965 362.286 275.965C362.286 275.965 374.809 274.746 378.841 276.692C378.841 276.692 368.132 285.478 370.393 285.991C372.654 286.504 384.217 277.889 384.217 277.889C384.217 277.889 395.887 279.877 395.268 287.017C394.649 294.157 390.617 296.359 388.868 296.167C387.097 295.974 376.772 292.019 376.537 293.473C376.302 294.927 382.532 299.673 386.884 299.886C386.884 299.886 378.67 308.972 373.188 306.342C367.726 303.713 367.257 299.566 363.844 298.005C360.43 296.445 357.529 296.445 358.937 298.048C360.345 299.63 366.51 301.19 368.452 304.632C370.393 308.095 372.142 310.404 366.489 309.57C360.836 308.715 351.641 304.568 351.235 299.822C350.851 295.076 350.851 295.076 350.851 295.076Z" fill="#77A4E5"/>
<path d="M389.529 287.23C389.529 287.23 357.849 286.012 350.851 295.076C350.851 295.076 349.294 299.715 344.537 303.948L343.79 305.979C343.79 305.979 349.273 300.185 351.235 299.822C351.257 299.822 348.185 288.577 389.529 287.23Z" fill="#77A4E5"/>
<path d="M344.558 303.948C344.558 303.948 337.753 308.993 337.283 317.993L338.521 318.1C338.521 318.1 340.697 308.78 344.622 305.145C348.547 301.511 344.558 303.948 344.558 303.948Z" fill="#77A4E5"/>
<path d="M326.083 287.401C326.083 287.401 337.347 281.074 332.099 272.501C332.099 272.501 327.896 267.242 323.395 265.874C323.395 265.874 325.806 278.679 323.395 278.979C320.984 279.278 321.752 264.527 321.752 264.527C321.752 264.527 309.891 258.798 305.219 259.268C305.219 259.268 312.579 271.753 310.168 271.454C307.758 271.154 299.502 258.499 299.502 258.499C299.502 258.499 287.341 256.233 285.379 263.458C283.416 270.684 286.573 274.297 288.387 274.746C290.2 275.195 301.763 275.045 301.464 276.563C301.166 278.059 293.357 280.475 289.005 279.128C289.005 279.128 293.805 291.014 300.12 290.416C306.435 289.817 308.376 285.905 312.28 285.606C316.184 285.306 319.043 286.354 317.08 287.423C315.118 288.47 308.526 287.765 305.368 290.458C302.211 293.152 299.651 294.798 305.518 296.017C311.384 297.214 321.902 296.466 323.992 291.955C326.083 287.401 326.083 287.401 326.083 287.401Z" fill="#77A4E5"/>
<path d="M290.926 265.725C290.926 265.725 322.478 275.965 326.083 287.402C326.083 287.402 325.934 292.511 329.092 298.39V300.656C329.092 300.656 325.785 292.981 323.993 291.934C323.971 291.912 331.033 281.972 290.926 265.725Z" fill="#77A4E5"/>
<path d="M329.092 298.39C329.092 298.39 333.956 305.787 331.183 314.808L329.924 314.466C329.924 314.466 331.14 304.547 328.601 299.544C326.041 294.542 329.092 298.39 329.092 298.39Z" fill="#77A4E5"/>
<path d="M343.107 273.378C343.107 273.378 326.254 263.929 334.126 251.103C334.126 251.103 340.419 243.214 347.161 241.205C347.161 241.205 343.577 260.338 347.161 260.787C350.745 261.236 349.635 239.174 349.635 239.174C349.635 239.174 367.385 230.623 374.34 231.286C374.34 231.286 363.331 249.97 366.915 249.521C370.499 249.072 382.873 230.153 382.873 230.153C382.873 230.153 401.07 226.775 403.993 237.571C406.916 248.367 402.201 253.775 399.492 254.459C396.804 255.143 379.502 254.908 379.95 257.153C380.398 259.397 392.089 263.01 398.596 260.979C398.596 260.979 391.406 278.766 381.977 277.868C372.548 276.97 369.625 271.112 363.779 270.663C357.934 270.214 353.667 271.796 356.59 273.357C359.513 274.939 369.39 273.87 374.105 277.889C378.82 281.908 382.638 284.388 373.87 286.184C365.102 287.979 349.379 286.868 346.243 280.112C343.107 273.378 343.107 273.378 343.107 273.378Z" fill="#9FC1F4"/>
<path d="M395.673 240.949C395.673 240.949 348.504 256.256 343.107 273.358C343.107 273.358 343.342 281.011 338.605 289.797V293.175C338.605 293.175 343.555 281.695 346.243 280.113C346.243 280.135 335.683 265.277 395.673 240.949Z" fill="#9FC1F4"/>
<path d="M338.606 289.819C338.606 289.819 331.331 300.892 335.47 314.36L337.347 313.847C337.347 313.847 335.534 299.011 339.331 291.529C343.15 284.068 338.606 289.819 338.606 289.819Z" fill="#9FC1F4"/>
<path d="M343.513 340.569C359.577 340.569 372.612 327.508 372.612 311.41H314.414C314.414 327.508 327.428 340.569 343.513 340.569Z" fill="#9FC1F4"/>
<path d="M350.659 340.334C349.486 340.484 348.27 340.548 347.054 340.548C330.99 340.548 317.955 327.486 317.955 311.389H325.187C325.187 326.289 336.302 338.56 350.659 340.334Z" fill="#AFCDFB"/>
<path d="M373.252 311.41H313.454V312.308H373.252V311.41Z" fill="#77A4E5"/>
<path d="M331.075 340.569H358.318C358.318 339.286 357.273 338.239 355.993 338.239H333.422C332.121 338.217 331.075 339.265 331.075 340.569Z" fill="#77A4E5"/>
</g>
<path d="M123.35 342.001H123.243C122.582 342.001 122.049 341.146 122.07 340.077L123.841 217.177L129.067 216.193L124.609 340.077C124.566 341.167 124.011 342.001 123.35 342.001Z" fill="#2B478B"/>
<path d="M386.5 342.001H386.606C387.268 342.001 387.801 341.146 387.78 340.077L386.009 217.177L380.782 216.193L385.241 340.077C385.284 341.167 385.817 342.001 386.5 342.001Z" fill="#2B478B"/>
<path d="M397.785 219.443H113.58C111.788 219.443 110.337 217.99 110.337 216.194V215.253C110.337 213.458 111.788 212.004 113.58 212.004H397.785C399.577 212.004 401.028 213.458 401.028 215.253V216.194C401.007 217.99 399.556 219.443 397.785 219.443Z" fill="#2B478B"/>
<path d="M32.7897 127.476C31.787 125.552 54.5286 118.605 54.8913 137.631C54.8913 137.631 97.4944 136.583 77.1635 112.79C70.1234 104.559 70.8488 97.7399 71.0621 91.3908C71.2754 85.0416 66.6674 66.614 50.9019 68.4739C50.9019 68.4739 46.7632 66.7851 41.6218 69.4786C29.8883 75.5499 3.62673 134.488 32.7897 127.476Z" fill="#163560"/>
<path d="M102.443 148.727C102.443 148.727 105.217 144.494 107.457 144.408C109.697 144.323 113.835 143.168 113.494 144.002C113.153 144.836 110.593 144.921 110.358 145.413C110.102 145.905 114.177 146.653 115.329 146.738C116.481 146.824 119.212 146.738 119.148 147.316C119.062 147.893 114.219 150.308 110.806 149.966C107.393 149.624 103.169 150.971 103.169 150.971L102.443 148.727Z" fill="#FFB27D"/>
<path d="M103.702 153.578C103.702 153.578 97.8779 161.509 90.1339 164.951C90.1339 164.951 90.1339 164.951 90.1125 164.951C87.3818 166.169 84.3951 166.832 81.3444 166.383C79.1257 166.062 77.0777 165.271 75.2004 164.202C71.659 162.193 68.7576 159.221 66.603 156.528C65.9629 155.715 65.3656 154.924 64.8749 154.198C63.2536 151.846 62.3789 150.093 62.3789 150.093L64.3416 116.316C64.3416 116.316 71.403 117.962 73.4724 121.105C75.5417 124.269 84.2245 149.345 85.7178 150.093C87.2112 150.841 102.849 147.314 102.849 147.314C102.849 147.314 105.067 149.837 103.702 153.578Z" fill="#9FC1F4"/>
<path d="M3.96807 319.341C3.96807 319.341 -0.810651 323.702 0.128026 326.802C1.0667 329.902 5.37608 331.975 5.95209 335.759C6.52809 339.543 8.85345 341.617 10.9655 341.617C13.0562 341.617 20.9496 341.617 20.9496 341.617C20.9496 341.617 22.4856 338.945 18.7736 338.154C15.0402 337.341 13.6322 332.895 13.8668 328.747C14.1015 324.622 13.5255 319.106 13.5255 319.106L5.61075 317.268L3.96807 319.341Z" fill="#233862"/>
<path d="M44.3737 321.201C44.3737 321.201 42.6457 339.693 44.7577 340.74L71.574 340.676C71.574 340.676 71.574 337.576 67.2646 336.892C62.9553 336.208 55.3819 333.686 54.1018 328.042C52.8218 322.42 44.3737 321.201 44.3737 321.201Z" fill="#233862"/>
<path d="M75.1799 164.204C71.6386 162.194 68.7372 159.223 66.5825 156.529C65.9425 155.717 65.3452 154.926 64.8545 154.199C66.3265 147.187 68.5025 137.567 68.0332 143.66C67.4145 151.569 73.5799 161.702 75.1799 164.204Z" fill="#80A3D8"/>
<path d="M25.2591 188.51C30.7845 176.111 34.1552 172.541 33.5152 168.693C33.0458 165.829 34.9872 115.27 34.9872 115.27C35.6485 115.057 36.9499 114.886 37.6752 114.715C39.9366 114.201 41.8139 112.62 42.6033 110.418C43.542 107.788 44.2886 103.897 44.2673 99.002L44.9713 99.1516L56.8541 101.503C56.8541 101.503 56.5768 105.244 56.5768 108.793C56.5768 108.814 56.5768 108.857 56.5768 108.878C56.5554 111.957 58.5608 114.65 61.5048 115.506C62.9981 115.933 64.3208 116.318 64.3208 116.318C64.3208 116.318 68.6942 128.802 69.5262 141.65C70.3582 154.477 61.5901 160.057 69.5902 185.71C77.7396 211.876 22.2084 195.351 25.2591 188.51Z" fill="#FFB27D"/>
<path d="M56.8535 101.502C56.8535 101.502 56.5762 105.243 56.5762 108.792C49.9201 108.599 46.4001 102.528 44.9707 99.1504L56.8535 101.502Z" fill="#E8945B"/>
<path d="M59.0727 104.858C59.0727 104.858 43.3286 105.115 43.3286 95.3027C43.3072 85.4689 41.2806 78.8846 51.3287 78.3074C61.3768 77.7302 63.3394 81.4713 64.1288 84.7421C64.9181 88.0129 63.1688 104.538 59.0727 104.858Z" fill="#FFB27D"/>
<path d="M58.4748 78.0507C58.4748 78.0507 54.1654 89.5733 47.552 91.2835C40.9386 92.9937 38.0586 91.2194 38.0586 91.2194C38.0586 91.2194 43.136 87.179 44.1813 80.1244C44.2027 80.1244 55.2321 72.5567 58.4748 78.0507Z" fill="#163560"/>
<path d="M57.4082 78.9924C57.4082 78.9924 60.6082 80.1895 61.9096 82.5197C63.1896 84.8071 64.2989 87.8214 64.0429 91.5411C64.0429 91.5411 67.2856 83.6955 63.6376 79.2703C59.7762 74.5672 57.4082 78.9924 57.4082 78.9924Z" fill="#163560"/>
<path d="M55.6377 98.7666C55.6377 98.7666 56.7257 100.199 58.9017 100.092C60.6511 100.007 61.3338 98.4887 61.3338 98.4887C61.3338 98.4887 58.1124 97.6978 55.6377 98.7666Z" fill="#EBF3FA"/>
<path d="M23.7446 137.609C23.7446 137.609 23.3393 143.253 23.7446 150.029C24.0006 154.519 28.5447 160.547 29.1847 162.022C30.806 165.763 32.6194 166.362 32.6194 166.362L46.6995 169.825L51.6489 171.044L67.265 166.362C67.265 166.362 74.3691 146.459 71.5318 135.257C68.6731 124.055 64.321 116.274 64.321 116.274C64.321 116.274 51.5849 128.78 34.9874 115.205L23.7446 137.609Z" fill="#9FC1F4"/>
<path d="M27.8613 151.868C28.1173 156.357 28.544 160.547 29.184 162.022C30.8054 165.763 32.6187 166.362 32.6187 166.362L46.6989 169.825L52.8216 168.029C52.8216 168.029 32.4054 164.93 34.6667 147.314L27.8613 151.868Z" fill="#F2CCAA"/>
<path d="M66.2832 169.398C66.2832 169.398 74.0272 193.512 74.5179 201.743C75.0086 209.952 59.7338 318.422 59.1151 322.206C58.5391 325.776 54.123 328.042 54.123 328.042C54.123 328.042 52.0964 329.239 49.195 328.427C45.1629 327.294 43.9043 325.926 43.9043 325.926C43.9043 325.926 37.8882 248.56 41.6002 220.94C45.3336 193.299 45.3763 169.42 45.3763 169.42H66.2832V169.398Z" fill="#233862"/>
<path d="M33.5155 168.693C33.5155 168.693 21.718 184.556 20.6087 195.287C19.4993 206.019 18.8806 243.665 16.534 254.119C14.1873 264.572 5.58984 284.689 5.58984 317.29C5.58984 317.29 6.48585 319.149 9.23788 320.154C10.1126 320.475 11.3072 320.774 12.4592 321.052C14.7419 321.565 17.0673 320.453 18.1126 318.358C23.9367 306.622 42.4756 268.741 43.4142 260.874C44.0969 255.316 49.9423 218.482 62.6998 196.869C65.7718 191.674 60.8224 171.045 60.8224 171.045L33.5155 168.693Z" fill="#2B478B"/>
<path d="M56.001 99.0234C56.001 99.0234 56.2783 100.178 59.1583 100.007C59.1583 100.007 61.569 99.8571 61.505 98.5744C61.4837 98.5744 59.137 97.6766 56.001 99.0234Z" fill="white"/>
<path d="M67.5209 165.678C67.5209 165.678 64.4062 168.136 58.2408 168.264C50.8808 168.414 32.6192 166.383 32.6192 166.383C32.6192 166.383 31.8086 168.649 31.8512 171.044C31.8512 171.044 54.1448 176.687 67.0729 171.856C67.0516 171.877 68.7156 168.735 67.5209 165.678Z" fill="#233862"/>
<path d="M56.6406 170.809C56.6406 168.714 58.1553 167.004 60.0113 167.004C61.8673 167.004 63.382 168.714 63.382 170.809C63.382 172.904 61.8673 174.614 60.0113 174.614C58.1553 174.636 56.6406 172.926 56.6406 170.809ZM57.7713 170.809C57.7713 172.306 58.774 173.503 60.0113 173.503C61.2487 173.503 62.2513 172.284 62.2513 170.809C62.2513 169.313 61.2487 168.116 60.0113 168.116C58.774 168.116 57.7713 169.334 57.7713 170.809Z" fill="white"/>
<path d="M8.60956 170.022L31.457 189.957L58.692 158.614L35.8445 138.679L8.60956 170.022Z" fill="#E11A7D"/>
<path d="M37.7818 170.125C37.7818 170.125 46.1446 171.108 46.1232 173.097C46.1019 175.085 44.0325 179.168 43.0085 179.36C41.9845 179.531 36.2031 173.823 36.2031 173.823L37.7818 170.125Z" fill="#FFB27D"/>
<path d="M34.966 115.248C34.966 115.248 23.7872 116.039 19.4991 126.471C15.2111 136.904 7.08301 154.433 7.08301 157.383C7.08301 160.334 11.6271 169.419 36.0113 174.635C36.0113 174.635 38.5287 171.984 38.3793 169.868C38.3793 169.868 23.1685 156.763 23.1898 155.246C23.2752 152.36 25.6859 148.533 39.0407 135.129C42.71 131.474 34.966 115.248 34.966 115.248Z" fill="#9FC1F4"/>
</g>
<defs>
<clipPath id="clip0_1187_342">
<rect width="518" height="342" fill="white"/>
</clipPath>
</defs>
</svg>
