<svg width="10" height="9" viewBox="0 0 10 9" fill="none" xmlns="http://www.w3.org/2000/svg">
<path d="M0.345973 4.78909C0.237223 4.91576 0.184306 5.077 0.197223 5.24367C0.210139 5.41034 0.286806 5.56201 0.413889 5.67034L3.49847 8.31451C3.61306 8.41242 3.75514 8.46492 3.90431 8.46492C3.92264 8.46492 3.94139 8.46409 3.96014 8.46242C4.12889 8.44742 4.28097 8.36701 4.38847 8.23659L9.66431 1.81534C9.77014 1.68617 9.81972 1.52367 9.80347 1.35742C9.78681 1.19117 9.70722 1.04117 9.57806 0.934922L8.61222 0.141589C8.34597 -0.0767444 7.95181 -0.0384111 7.73264 0.227839L3.67222 5.16992L2.04056 3.77201C1.77889 3.54867 1.38389 3.57825 1.15931 3.83992L0.345973 4.78909Z" fill="#E11A7D"/>
</svg>
