<svg width="24" height="25" viewBox="0 0 24 25" fill="none" xmlns="http://www.w3.org/2000/svg">
<path d="M22.5725 7.49082L19.7131 18.7408C19.632 19.0586 19.3461 19.2705 19.032 19.2705C18.9748 19.2705 18.9162 19.2635 18.8586 19.2489H5.14199C4.76605 19.3446 4.38308 19.1168 4.28746 18.7408L1.42808 7.49082C1.33855 7.13879 1.53168 6.77691 1.87386 6.65504C2.21558 6.53316 2.59433 6.69207 2.74714 7.02113C2.76683 7.06285 4.76511 11.2572 7.68215 10.84C10.6071 10.4224 11.2976 5.85676 11.3042 5.81082C11.3543 5.46488 11.6506 5.20801 12.0003 5.20801C12.35 5.20801 12.6462 5.46488 12.6964 5.81082C12.7029 5.85629 13.4051 10.4238 16.3184 10.84C19.2354 11.2568 21.2337 7.06285 21.2534 7.0202C21.4071 6.6916 21.7859 6.53363 22.1271 6.65551C22.4689 6.77785 22.6615 7.13926 22.5725 7.49082Z" fill="#F0B5D2"/>
<path d="M22.5722 7.49082L19.7128 18.7408C19.6317 19.0586 19.3458 19.2705 19.0317 19.2705C18.9745 19.2705 18.9159 19.2635 18.8583 19.2489H12V5.20801C12.3497 5.20801 12.6459 5.46488 12.6961 5.81082C12.7027 5.85629 13.4048 10.4238 16.3181 10.84C19.2352 11.2568 21.2334 7.06285 21.2531 7.0202C21.4069 6.6916 21.7856 6.53363 22.1269 6.65551C22.4686 6.77785 22.6612 7.13926 22.5722 7.49082Z" fill="#E196BB"/>
<path d="M16.2188 16.458C16.6071 16.458 16.9219 16.1432 16.9219 15.7549C16.9219 15.3666 16.6071 15.0518 16.2188 15.0518C15.8304 15.0518 15.5156 15.3666 15.5156 15.7549C15.5156 16.1432 15.8304 16.458 16.2188 16.458Z" fill="white"/>
<path d="M7.78125 16.458C8.16958 16.458 8.48438 16.1432 8.48438 15.7549C8.48438 15.3666 8.16958 15.0518 7.78125 15.0518C7.39292 15.0518 7.07812 15.3666 7.07812 15.7549C7.07812 16.1432 7.39292 16.458 7.78125 16.458Z" fill="white"/>
<path d="M12 2.39551C10.837 2.39551 9.89062 3.34191 9.89062 4.50488C9.89062 5.66785 10.837 6.61426 12 6.61426C13.163 6.61426 14.1094 5.66785 14.1094 4.50488C14.1094 3.34191 13.163 2.39551 12 2.39551Z" fill="#E196BB"/>
<path d="M12.5784 12.5425C12.4387 12.3405 12.2194 12.2393 12 12.2393C11.7806 12.2393 11.5613 12.3405 11.4216 12.5425C10.9289 13.256 9.89062 14.8914 9.89062 15.7549C9.89062 16.9179 10.837 17.8643 12 17.8643C13.163 17.8643 14.1094 16.9179 14.1094 15.7549C14.1094 14.8914 13.0716 13.2564 12.5784 12.5425Z" fill="white"/>
<path d="M2.10938 8.02051C0.946266 8.02051 0 7.07424 0 5.91113C0 4.74802 0.946266 3.80176 2.10938 3.80176C3.27248 3.80176 4.21875 4.74802 4.21875 5.91113C4.21875 7.07424 3.27248 8.02051 2.10938 8.02051Z" fill="#E196BB"/>
<path d="M21.8906 8.02051C20.7275 8.02051 19.7812 7.07424 19.7812 5.91113C19.7812 4.74802 20.7275 3.80176 21.8906 3.80176C23.0537 3.80176 24 4.74802 24 5.91113C24 7.07424 23.0537 8.02051 21.8906 8.02051Z" fill="#E196BB"/>
<path d="M19.0312 17.8643H4.96875C3.80578 17.8643 2.85938 18.8107 2.85938 19.9736C2.85938 21.1366 3.80578 22.083 4.96875 22.083H19.0312C20.1942 22.083 21.1406 21.1366 21.1406 19.9736C21.1406 18.8107 20.1942 17.8643 19.0312 17.8643Z" fill="#FFCBE4"/>
</svg>
