<svg width="14" height="14" viewBox="0 0 14 14" fill="none" xmlns="http://www.w3.org/2000/svg">
<path d="M8.54183 7L13.7762 1.76503C13.9202 1.62092 13.9997 1.42866 13.9999 1.22366C13.9999 1.01854 13.9204 0.826054 13.7762 0.682174L13.3175 0.223559C13.1733 0.0791108 12.9811 0 12.7759 0C12.571 0 12.3787 0.0791108 12.2345 0.223559L7.00012 5.45819L1.76549 0.223559C1.6215 0.0791108 1.42915 0 1.22404 0C1.01916 0 0.826804 0.0791108 0.68282 0.223559L0.223893 0.682174C-0.0747735 0.980861 -0.0747735 1.46668 0.223893 1.76503L5.45841 7L0.223893 12.2347C0.0797956 12.3791 0.000462294 12.5713 0.000462294 12.7763C0.000462294 12.9813 0.0797956 13.1736 0.223893 13.3178L0.682706 13.7764C0.82669 13.9208 1.01916 14 1.22393 14C1.42903 14 1.62139 13.9208 1.76537 13.7764L7.00001 8.54169L12.2344 13.7764C12.3786 13.9208 12.5709 14 12.7757 14H12.776C12.981 14 13.1732 13.9208 13.3174 13.7764L13.7761 13.3178C13.9201 13.1737 13.9996 12.9813 13.9996 12.7763C13.9996 12.5713 13.9201 12.3791 13.7761 12.2349L8.54183 7Z" fill="black" fill-opacity="0.2"/>
</svg>
