<svg width="64" height="64" viewBox="0 0 64 64" fill="none" xmlns="http://www.w3.org/2000/svg">
<g clip-path="url(#clip0_1221_17187)">
<path d="M32 0C14.3271 0 0 14.3271 0 32C0 49.6729 14.3271 64 32 64C49.6729 64 64 49.6729 64 32C63.9802 14.3354 49.6646 0.0197917 32 0ZM32 61.8667C15.5052 61.8667 2.13333 48.4948 2.13333 32C2.13333 15.5052 15.5052 2.13333 32 2.13333C48.4948 2.13333 61.8667 15.5052 61.8667 32C61.8479 48.487 48.487 61.8479 32 61.8667ZM46.9333 19.2H17.0667C16.4776 19.2 16 19.6776 16 20.2667V43.7333C16 44.3224 16.4776 44.8 17.0667 44.8H46.9333C47.5224 44.8 48 44.3224 48 43.7333V20.2667C48 19.6776 47.5224 19.2 46.9333 19.2ZM44.0531 21.3333L32 31.662L19.9469 21.3333H44.0531ZM45.8667 42.6667H18.1333V22.5854L31.3057 33.876C31.7047 34.2177 32.2932 34.2177 32.6922 33.876L45.8667 22.5854V42.6667Z" fill="url(#paint0_linear_1221_17187)"/>
</g>
<defs>
<linearGradient id="paint0_linear_1221_17187" x1="28.4445" y1="-1.08" x2="28.4445" y2="61.8231" gradientUnits="userSpaceOnUse">
<stop stop-color="#FFA6D2"/>
<stop offset="1" stop-color="#E11A7D"/>
</linearGradient>
<clipPath id="clip0_1221_17187">
<rect width="64" height="64" fill="white"/>
</clipPath>
</defs>
</svg>
