<svg width="17" height="18" viewBox="0 0 17 18" fill="none" xmlns="http://www.w3.org/2000/svg">
<path d="M16.9995 9.13806C16.9995 8.81184 16.9844 8.48436 16.9539 8.15898C16.9339 7.95209 16.8375 7.76007 16.6836 7.62039C16.5297 7.4807 16.3292 7.40339 16.1214 7.40353C14.6243 7.40186 11.2143 7.40186 9.6305 7.40186C9.40837 7.40186 9.19534 7.4901 9.03827 7.64716C8.88121 7.80423 8.79297 8.01726 8.79297 8.23939V9.85456C8.79305 10.0767 8.88131 10.2897 9.03836 10.4467C9.19541 10.6038 9.4084 10.692 9.6305 10.6921H13.4078C13.3133 11.2178 13.1132 11.7189 12.8197 12.1651C12.5262 12.6114 12.1453 12.9935 11.7 13.2884V13.2893C11.7 13.5695 11.7552 13.847 11.8624 14.106C11.9697 14.3649 12.1269 14.6001 12.325 14.7983C12.5232 14.9965 12.7585 15.1537 13.0174 15.2609C13.2763 15.3681 13.5538 15.4233 13.8341 15.4233H14.4534C16.0703 13.9354 16.9995 11.7378 16.9995 9.13806Z" fill="#1E78FF"/>
<path d="M8.79355 17.4862C10.8751 17.5447 12.9006 16.807 14.4569 15.4234L11.704 13.2885C11.0409 13.7129 10.2899 13.9806 9.508 14.0714C8.72606 14.1621 7.9337 14.0736 7.19109 13.8124C6.44847 13.5513 5.77511 13.1244 5.22211 12.5641C4.66911 12.0039 4.251 11.325 3.99952 10.5791H3.3584C2.77489 10.5792 2.21529 10.811 1.80269 11.2236C1.39008 11.6362 1.15826 12.1958 1.1582 12.7793V12.7801C1.86986 14.195 2.96067 15.3843 4.30891 16.2153C5.65716 17.0463 7.20979 17.4863 8.79355 17.4862Z" fill="#00B450"/>
<path d="M3.997 10.5789C3.63896 9.51801 3.63896 8.3689 3.997 7.30797V7.30713C3.99695 6.72362 3.76512 6.16402 3.35252 5.75142C2.93992 5.33881 2.38032 5.10699 1.79681 5.10693H1.15862C0.561136 6.29757 0.25 7.61131 0.25 8.94345C0.25 10.2756 0.561136 11.5893 1.15862 12.78L3.997 10.5789Z" fill="#FFB400"/>
<path d="M8.79354 3.77906C9.76658 3.76373 10.7199 4.05402 11.5193 4.60905C11.6779 4.72457 11.8726 4.77961 12.0683 4.76426C12.2639 4.7489 12.4476 4.66415 12.5863 4.5253C12.9695 4.16181 13.4732 3.65803 13.8702 3.26104C13.9544 3.17689 14.0197 3.07575 14.0618 2.96437C14.1038 2.85299 14.1216 2.73393 14.114 2.61513C14.1064 2.49633 14.0735 2.38051 14.0176 2.2754C13.9617 2.1703 13.8841 2.07831 13.7898 2.00559C12.3425 0.942668 10.5891 0.378496 8.79354 0.397948C7.20939 0.397742 5.65638 0.838025 4.30803 1.6696C2.95969 2.50118 1.86913 3.69129 1.1582 5.10696L3.99659 7.30799C4.32699 6.29219 4.96742 5.40548 5.82785 4.77249C6.68828 4.13951 7.72544 3.79208 8.79354 3.77906Z" fill="#E60014"/>
</svg>
