<svg width="24" height="25" viewBox="0 0 24 25" fill="none" xmlns="http://www.w3.org/2000/svg">
<g filter="url(#filter0_b_1426_2690)">
<path d="M18.1064 6.95313C18.0426 6.95313 17.978 6.93874 17.9176 6.90813C17.7099 6.80368 17.626 6.55053 17.7305 6.34267C18.9453 3.92927 20.6565 1.59998 21.1196 1.13709C21.4391 0.81761 21.8631 0.6405 22.3142 0.638672C22.3163 0.638672 22.3188 0.638672 22.3212 0.638672C22.7707 0.638672 23.1922 0.813063 23.5089 1.12992C23.6734 1.29442 23.6734 1.56107 23.5089 1.72543C23.3444 1.88993 23.0779 1.88993 22.9134 1.72543C22.7546 1.56665 22.5338 1.47969 22.3175 1.48091C22.0905 1.48194 21.8767 1.57138 21.7151 1.73279C21.3766 2.07107 19.7082 4.28687 18.4831 6.72141C18.4091 6.86842 18.2606 6.95313 18.1064 6.95313Z" fill="#F0B5D2"/>
<path d="M19.37 3.16406H13.589C12.9189 3.16406 12.2762 3.43024 11.8024 3.9041L0.246714 15.4597C-0.0822381 15.7886 -0.0822381 16.3219 0.246714 16.6508L7.98879 24.3929C8.31774 24.7218 8.85095 24.7218 9.17985 24.3929L20.7355 12.8372C21.2093 12.3634 21.4755 11.7207 21.4755 11.0506V5.2696C21.4756 4.10676 20.5329 3.16406 19.37 3.16406ZM19 7.42624C18.5066 7.91964 17.7067 7.91964 17.2134 7.42624C16.72 6.93283 16.72 6.13298 17.2134 5.63962C17.7068 5.14626 18.5067 5.14622 19 5.63962C19.4933 6.13303 19.4934 6.93293 19 7.42624Z" fill="#F0B5D2"/>
<path d="M1.51072 16.7237L13.0663 5.16806C13.5401 4.69425 14.1828 4.42802 14.8529 4.42802H20.6339C20.8844 4.42802 21.1212 4.47931 21.344 4.55952C21.0518 3.7478 20.2824 3.16406 19.37 3.16406H13.589C12.9189 3.16406 12.2762 3.43024 11.8024 3.9041L0.246714 15.4597C-0.0822381 15.7886 -0.0822381 16.3219 0.246714 16.6508L1.51068 17.9147C1.18177 17.5859 1.18177 17.0526 1.51072 16.7237Z" fill="#E196BB"/>
<path d="M18.1072 6.95313C17.9529 6.95313 17.8045 6.86842 17.7305 6.72122C17.626 6.51354 17.7099 6.2604 17.9176 6.15576C20.3518 4.93127 22.5676 3.26246 22.906 2.92395C23.0676 2.76235 23.1569 2.54849 23.1581 2.3215C23.159 2.09573 23.0721 1.88412 22.9135 1.72543C22.7548 1.56674 22.5339 1.47969 22.3176 1.48091C22.0905 1.48194 21.8767 1.57138 21.7151 1.73279C21.5506 1.89729 21.2841 1.89729 21.1196 1.73279C20.9551 1.56852 20.9551 1.30178 21.1196 1.13728C21.4391 0.817563 21.863 0.6405 22.3142 0.638672C22.3163 0.638672 22.3187 0.638672 22.3212 0.638672C22.7707 0.638672 23.1922 0.813063 23.5089 1.12992C23.8276 1.44842 24.0019 1.87282 24.0003 2.32478C23.9982 2.77567 23.8214 3.19992 23.5015 3.51945C23.0388 3.98253 20.7091 5.69414 18.2959 6.90832C18.2355 6.93874 18.1705 6.95313 18.1072 6.95313Z" fill="#E196BB"/>
<path d="M11.3682 17.9685C11.0775 17.9685 10.8418 17.7328 10.8418 17.4421V9.10453C10.8418 8.81379 11.0775 8.57812 11.3682 8.57812C11.659 8.57812 11.8946 8.81379 11.8946 9.10453V17.4421C11.8946 17.7329 11.659 17.9685 11.3682 17.9685Z" fill="white"/>
<path d="M8.39132 15.0638C7.91348 15.0638 7.46395 14.8775 7.12591 14.5395C6.78786 14.2016 6.60156 13.7522 6.60156 13.2741C6.60156 12.796 6.78786 12.3465 7.12591 12.0085C7.46395 11.6706 7.91343 11.4844 8.39132 11.4844C8.86959 11.4844 9.31911 11.6707 9.65674 12.0089C9.99478 12.3468 10.1811 12.7962 10.1811 13.2741C10.1811 13.7522 9.99478 14.2016 9.65674 14.5397C9.31911 14.8775 8.86963 15.0638 8.39132 15.0638ZM8.39132 12.5371C8.19476 12.5371 8.00968 12.6138 7.87031 12.7531C7.73093 12.8923 7.65438 13.0773 7.65438 13.2741C7.65438 13.4708 7.73089 13.6559 7.87031 13.795C8.14914 14.074 8.63359 14.0727 8.91239 13.7954C9.05176 13.656 9.12831 13.4709 9.12831 13.2741C9.12831 13.0774 9.05181 12.8923 8.91239 12.7533C8.91239 12.7531 8.91239 12.7531 8.91239 12.7528C8.77297 12.6138 8.58831 12.5371 8.39132 12.5371Z" fill="white"/>
<path d="M14.3464 15.0638C13.8681 15.0638 13.4186 14.8775 13.081 14.5393C12.7429 14.2016 12.5566 13.7522 12.5566 13.2741C12.5566 12.796 12.7429 12.3465 13.081 12.0085C13.4186 11.6706 13.8681 11.4844 14.3464 11.4844C14.8242 11.4844 15.2738 11.6707 15.6118 12.0087C15.9499 12.3468 16.1362 12.7961 16.1362 13.2741C16.1362 13.7522 15.9499 14.2017 15.6118 14.5397C15.2737 14.8775 14.8242 15.0638 14.3464 15.0638ZM14.3464 12.5371C14.1494 12.5371 13.9648 12.6138 13.8254 12.7528C13.686 12.8922 13.6095 13.0773 13.6095 13.2741C13.6095 13.4708 13.686 13.6559 13.8254 13.795C14.1042 14.0736 14.5887 14.0742 14.8675 13.7951C15.0068 13.6559 15.0834 13.4709 15.0834 13.2741C15.0834 13.0774 15.0069 12.8923 14.8675 12.7533C14.8675 12.7531 14.8675 12.7531 14.8675 12.7531C14.728 12.6138 14.543 12.5371 14.3464 12.5371Z" fill="white"/>
</g>
<defs>
<filter id="filter0_b_1426_2690" x="-4" y="-3.36133" width="32" height="32.001" filterUnits="userSpaceOnUse" color-interpolation-filters="sRGB">
<feFlood flood-opacity="0" result="BackgroundImageFix"/>
<feGaussianBlur in="BackgroundImageFix" stdDeviation="2"/>
<feComposite in2="SourceAlpha" operator="in" result="effect1_backgroundBlur_1426_2690"/>
<feBlend mode="normal" in="SourceGraphic" in2="effect1_backgroundBlur_1426_2690" result="shape"/>
</filter>
</defs>
</svg>
