<svg width="7" height="14" viewBox="0 0 7 14" fill="none" xmlns="http://www.w3.org/2000/svg">
<path d="M6.99455 13.0331C7.00002 12.8745 6.89081 12.6721 6.73792 12.4916C5.72232 11.3104 4.71218 10.1291 3.70204 8.94789C3.18878 8.34633 2.67552 7.74477 2.1568 7.14321C2.05852 7.03383 2.06398 6.96274 2.1568 6.85336C3.66382 5.09242 5.17084 3.32602 6.68332 1.56508C7.00548 1.18774 7.07646 0.815862 6.88535 0.460393C6.5905 -0.0810134 5.86975 -0.163045 5.44931 0.312737C4.99612 0.82133 4.5593 1.34633 4.11702 1.86586C2.84479 3.35336 1.57256 4.84633 0.294868 6.33383C-0.098268 6.79321 -0.098268 7.20336 0.294868 7.66821C1.98207 9.63696 3.66928 11.6112 5.35649 13.5799C5.61312 13.8807 5.90251 14.0721 6.31749 13.9737C6.72154 13.8807 6.99455 13.5362 6.99455 13.0331Z" fill="black"/>
</svg>
