<svg width="34" height="64" viewBox="0 0 34 64" fill="none" xmlns="http://www.w3.org/2000/svg">
<path d="M31.307 0.408043C31.8595 -0.125682 32.7401 -0.110295 33.2739 0.442207C33.7944 0.981278 33.7944 1.83579 33.2739 2.37473L3.65821 31.9931L33.2766 61.6088C33.8291 62.1425 33.8444 63.0229 33.3108 63.5756C32.777 64.1281 31.8966 64.1433 31.3439 63.6097C31.3323 63.5985 31.321 63.5872 31.3098 63.5756L0.709362 32.9752C0.166378 32.432 0.166378 31.5516 0.709362 31.0083L31.307 0.408043Z" fill="#F44336"/>
<path d="M32.2921 63.9844C33.0603 63.9858 33.6841 63.3641 33.6855 62.5959C33.6862 62.2256 33.5391 61.8702 33.2769 61.6086L3.65849 31.993L33.2769 2.37747C33.8208 1.83358 33.8208 0.951817 33.2769 0.407922C32.733 -0.135974 31.8512 -0.135974 31.3073 0.407922L0.706898 31.0083C0.163914 31.5515 0.163914 32.4319 0.706898 32.9752L31.3073 63.5755C31.5681 63.8372 31.9225 63.9844 32.2921 63.9844Z" fill="#77797D"/>
</svg>
