<svg width="354" height="368" viewBox="0 0 354 368" fill="none" xmlns="http://www.w3.org/2000/svg">
<g filter="url(#filter0_d_1_10943)">
<path d="M311.781 175.013C337.834 190.049 337.834 214.449 311.781 229.485C285.728 244.521 243.486 244.521 217.433 229.485C191.38 214.449 191.38 190.049 217.433 175.013C243.486 159.951 285.728 159.951 311.781 175.013Z" fill="url(#paint0_linear_1_10943)"/>
</g>
<mask id="mask0_1_10943" style="mask-type:alpha" maskUnits="userSpaceOnUse" x="213" y="169" width="103" height="60">
<path d="M300.687 177.825C320.616 189.322 320.616 207.973 300.687 219.495C280.758 230.992 248.456 230.992 228.527 219.495C208.598 207.998 208.598 189.347 228.527 177.825C248.456 166.303 280.758 166.303 300.687 177.825Z" fill="url(#paint1_linear_1_10943)"/>
</mask>
<g mask="url(#mask0_1_10943)">
<path d="M300.687 177.823C320.616 189.32 320.616 207.971 300.687 219.493C280.758 230.99 248.456 230.99 228.527 219.493C208.598 207.996 208.598 189.345 228.527 177.823C248.456 166.301 280.758 166.301 300.687 177.823Z" fill="url(#paint2_linear_1_10943)"/>
</g>
<path d="M190.652 295.73C190.652 295.73 192.836 302.683 199.588 301.001C206.314 299.294 204.482 292.943 204.482 292.943L190.652 295.73Z" fill="#FFA9A9"/>
<path d="M198.383 307.201C198.383 307.201 182.445 321.635 177.35 321.635C172.255 321.635 170.749 314.556 180.412 307.201C190.075 299.846 190.678 297.085 190.678 297.085C190.678 297.085 196.3 301.553 201.119 299.419C205.938 297.285 207.193 295.779 207.193 295.779L206.616 304.791L198.383 307.201Z" fill="#161E3A"/>
<path d="M249.309 177.674C249.309 177.674 226.845 204.91 217.182 213.093C207.519 221.251 200.642 294.45 200.642 294.45L194.543 295.253H194.518L190.075 295.83C190.075 295.83 190.05 295.78 190 295.629C189.071 293.019 178.68 263.8 168.289 242.036C157.396 219.218 153.305 203.228 159.78 194.718C161.612 192.283 167.059 188.794 173.911 184.978C191.104 175.465 217.157 164.219 217.157 164.219L249.309 177.674Z" fill="#121B35"/>
<path d="M281.386 205.89C270.292 215.403 222.377 231.946 220.269 236.891C218.161 241.836 219.566 268.269 217.458 286.242C215.35 304.215 212.539 314.783 212.539 314.783C212.539 314.783 211.133 317.971 206.188 317.971C205.712 317.971 205.26 317.921 204.808 317.871C203.377 317.645 202.122 317.118 201.068 316.49C198.985 315.285 197.705 313.754 197.705 313.754C197.705 313.754 196.651 276.402 191.003 258.78C185.381 241.158 177.625 222.834 191.003 211.211C194.216 208.425 198.433 205.212 202.976 201.923C217.333 191.581 234.952 180.662 234.952 180.662L281.386 172.805C281.386 172.78 292.505 196.376 281.386 205.89Z" fill="#161E3A"/>
<path d="M207.945 70.6881C207.945 70.6881 209 60.1451 213.793 53.9699C218.587 47.7696 223.783 47.368 226.569 43.5776C229.355 39.7871 238.265 19.404 235.504 17.3205C232.743 15.237 228.853 17.3205 228.853 17.3205C228.853 17.3205 221.976 18.8518 218.788 27.2359C215.601 35.595 215.601 37.5279 213.191 40.264C210.807 43.0002 188.042 69.7593 181.867 85.9252C175.693 102.091 180.562 109.22 184.703 109.672C188.845 110.099 207.494 85.4231 207.945 70.6881Z" fill="#FFA9A9"/>
<path d="M240.374 32.4576C240.374 39.5615 236.257 45.3351 231.187 45.3351C226.117 45.3351 222.001 39.5615 222.001 32.4576C222.001 25.3536 226.117 19.5801 231.187 19.5801C236.257 19.5801 240.374 25.3536 240.374 32.4576Z" fill="url(#paint3_linear_1_10943)"/>
<path d="M240.349 32.7342C240.349 39.6875 236.885 45.3355 232.618 45.3355C228.351 45.3355 224.888 39.6875 224.888 32.7342C224.888 25.7808 228.351 20.1328 232.618 20.1328C236.885 20.1328 240.349 25.7808 240.349 32.7342Z" fill="url(#paint4_linear_1_10943)"/>
<path opacity="0.4" d="M239.922 32.7341C239.922 37.7295 237.437 41.796 234.375 41.796C231.313 41.796 228.828 37.7546 228.828 32.7341C228.828 27.7387 231.313 23.6973 234.375 23.6973C237.437 23.6973 239.922 27.7387 239.922 32.7341Z" fill="#161E3A"/>
<path d="M230.108 6.19922C230.108 6.19922 207.694 11.6715 216.529 37.4767C218.889 44.3296 210.756 48.346 214.396 55.4249C218.035 62.5037 241.704 64.1856 241.754 63.9597C241.804 63.7588 246.548 17.9722 246.548 17.9722L230.108 6.19922Z" fill="#2D2F4F"/>
<path d="M229.129 13.6809C229.129 13.6809 221.75 16.3166 222.277 35.8211C222.628 48.5731 227.247 53.3676 229.706 55.3256C232.166 57.2836 235.956 57.0075 235.956 57.0075L234.576 64.9649C234.576 64.9649 233.521 70.5376 243.335 72.7717C253.124 75.0058 260.102 64.5131 260.102 64.5131C260.102 64.5131 258.37 56.405 260.051 48.6484C261.733 40.8918 263.515 21.2618 255.609 16.8438C247.753 12.4007 229.129 13.6809 229.129 13.6809Z" fill="#FFBDBD"/>
<path d="M235.705 56.8056C235.705 56.8056 241.929 57.5838 245.142 54.7222C248.355 51.8605 249.334 51.1074 249.334 51.1074C249.334 51.1074 247.627 54.8979 244.038 58.7385C240.448 62.5541 241.377 72.2436 241.377 72.2436C241.377 72.2436 233.998 70.7876 234.575 66.1688C235.152 61.55 235.705 56.8056 235.705 56.8056Z" fill="#EAA2A2"/>
<path d="M224.712 18.8262C224.712 18.8262 224.963 25.6791 235.856 29.7206C246.548 33.6868 250.916 35.1427 250.916 35.1427C250.916 35.1427 252.321 29.9465 255.057 32.3563C259.098 35.9209 249.661 46.9157 252.271 53.618C254.881 60.3203 255.71 65.2153 270.192 71.5662C284.674 77.892 287.184 95.4385 287.184 95.4385C287.184 95.4385 308.443 98.4257 310.075 86.6276C311.706 74.8546 309.773 64.2112 293.358 59.8685C276.944 55.5258 272.275 49.1498 274.409 38.3558C277.019 25.0767 274.057 8.10751 254.906 1.68132C235.731 -4.74488 224.436 8.58446 224.712 18.8262Z" fill="#2D2F4F"/>
<path d="M235.253 60.5957C235.253 60.5957 211.835 65.9927 209.426 68.6284C207.016 71.2642 184.703 109.671 184.703 109.671C184.703 109.671 189.497 111.353 200.29 108.24C211.082 105.127 212.538 102.491 212.538 102.491C212.538 102.491 213.492 117.377 213.969 131.535C214.446 145.693 218.06 170.644 218.06 170.644C218.06 170.644 230.057 185.053 253.325 181.689C276.592 178.326 281.385 172.803 281.385 172.803L282.339 156.612C282.339 156.612 295.065 152.872 296.018 141.35C296.972 129.828 296.746 91.9234 293.132 87.6058C289.543 83.2882 259.348 63.0557 259.348 63.0557C259.348 63.0557 257.616 73.7493 245.619 72.2432C233.647 70.7119 235.253 60.5957 235.253 60.5957Z" fill="url(#paint5_linear_1_10943)"/>
<path opacity="0.2" d="M278.8 99.1797C278.8 99.1797 275.537 103.723 275.888 117.73C276.265 131.737 276.792 137.159 273.353 138.716C269.89 140.272 246.422 155.76 246.422 155.76C246.422 155.76 269.89 139.017 271.898 134.298C273.88 129.553 271.521 101.188 278.8 99.1797Z" fill="#161E3A"/>
<path opacity="0.2" d="M282.366 156.588C282.366 156.588 258.371 167.708 255.058 170.018C255.058 170.018 269.59 165.951 274.158 165.951C278.751 165.951 282.341 171.825 282.341 171.825V156.588H282.366Z" fill="#161E3A"/>
<path d="M199.788 53.7939C199.788 53.7939 206.038 53.2919 209.602 55.4758C213.166 57.6848 213.166 57.6848 213.166 57.6848C213.166 57.6848 212.313 74.1017 203.703 90.3429C195.069 106.584 183.85 109.471 183.85 109.471C183.85 109.471 170.723 103.873 182.57 80.2016C194.392 56.505 199.788 53.7939 199.788 53.7939Z" fill="url(#paint6_linear_1_10943)"/>
<path d="M218.862 39.0082L214.922 48.3211C214.922 48.3211 213.591 51.7602 216.904 52.9902C220.218 54.2453 224.359 55.2494 224.359 55.2494C224.359 55.2494 224.911 52.1869 227.296 52.6639C229.68 53.1408 232.842 55.2494 232.842 55.2494C232.842 55.2494 232.14 58.9143 228.952 58.8139C225.764 58.6884 214.671 54.6218 214.671 54.6218C214.671 54.6218 209.776 54.1951 211.634 49.7771C213.466 45.3591 216.553 37 216.553 37L218.862 39.0082Z" fill="url(#paint7_linear_1_10943)"/>
<path d="M198.483 314.508C198.483 314.508 197.027 322.741 204.808 322.34C212.589 321.938 212.513 314.759 212.513 314.759C212.513 314.759 203.829 318.775 198.483 314.508Z" fill="#FFA9A9"/>
<path d="M198.558 317.946C198.558 317.946 179.783 328.489 180.411 331.576C181.038 334.664 183.272 341.818 194.14 338.128C205.008 334.438 219.365 329.317 218.737 323.97C218.135 318.649 212.488 314.758 212.488 314.758C212.488 314.758 205.862 324.824 198.558 317.946Z" fill="#121B35"/>
<path d="M231.563 3.26415C231.563 3.26415 232.04 4.01722 233.12 4.04232C234.199 4.06742 241.478 1.88352 246.397 7.48134C251.317 13.1043 252.898 24.7266 252.898 24.7266L254.931 23.4464C254.931 23.4464 253.074 7.98339 247.677 5.04642C242.231 2.13455 234.626 2.03414 231.563 3.26415Z" fill="url(#paint8_linear_1_10943)"/>
<path d="M231.563 3.26336C231.563 3.26336 239.696 1.12966 245.519 4.86991C252.295 9.21261 254.002 23.9226 254.002 23.9226L262.661 24.4246C262.661 24.4246 262.335 10.6936 255.583 6.07482C248.832 1.4811 234.977 1.12966 231.563 3.26336Z" fill="url(#paint9_linear_1_10943)"/>
<path d="M267.13 34.5643C267.13 41.0658 263.013 46.3122 257.943 46.3122C252.873 46.3122 248.757 41.0407 248.757 34.5643C248.757 28.0628 252.873 22.8164 257.943 22.8164C263.013 22.8164 267.13 28.0879 267.13 34.5643Z" fill="url(#paint10_linear_1_10943)"/>
<path d="M267.08 34.8152C267.08 41.1661 263.616 46.3121 259.374 46.3121C255.107 46.3121 251.644 41.1661 251.644 34.8152C251.644 28.4643 255.107 23.3184 259.374 23.3184C263.616 23.3184 267.08 28.4643 267.08 34.8152Z" fill="url(#paint11_linear_1_10943)"/>
<path opacity="0.4" d="M266.678 34.8153C266.678 39.3839 264.193 43.074 261.131 43.074C258.069 43.074 255.584 39.3839 255.584 34.8153C255.584 30.2467 258.069 26.5566 261.131 26.5566C264.193 26.5566 266.678 30.2718 266.678 34.8153Z" fill="#161E3A"/>
<path d="M131.217 100.91L208.472 146.471L225.766 216.506L151.974 171.598L131.217 100.91Z" fill="url(#paint12_linear_1_10943)"/>
<path d="M131.217 100.91L134.957 99.1777L212.639 144.437L227.974 209.302L278.198 181.087V185.68L225.766 216.506L208.472 146.47L131.217 100.91Z" fill="#444547"/>
<path d="M212.64 144.438L278.199 181.087L227.975 209.302L212.64 144.438Z" fill="url(#paint13_linear_1_10943)"/>
<path d="M217.156 163.564L247.878 181.186L224.159 193.16L217.156 163.564Z" fill="#666668"/>
<path d="M248.456 157.241C248.456 157.241 251.217 159.726 252.447 162.613C253.676 165.5 254.505 167.433 254.505 167.433C254.505 167.433 253.676 171.022 248.456 172.378C243.235 173.758 240.625 174.311 236.91 179.532C233.195 184.753 224.11 178.151 229.907 169.767C235.68 161.383 237.061 162.337 237.061 162.337C237.061 162.337 233.07 165.123 231.012 164.219C228.954 163.316 228.954 163.316 228.954 163.316C228.954 163.316 236.107 157.341 239.546 156.613C242.934 155.86 248.456 157.241 248.456 157.241Z" fill="#FFA9A9"/>
<path d="M281.386 205.888C270.292 215.402 222.378 231.944 220.27 236.889C218.161 241.834 219.567 268.267 217.458 286.241C215.35 304.214 212.539 314.782 212.539 314.782C212.539 314.782 211.133 317.97 206.189 317.97C205.712 317.97 205.26 317.92 204.808 317.869C205.411 315.56 208.724 310.339 210.707 303.862C212.89 296.758 211.535 257.599 212.639 249.666C213.769 241.734 204.708 234.354 204.708 234.354C204.708 234.354 211.234 234.354 225.766 228.606C240.299 222.857 268.435 206.164 276.642 199.311C284.85 192.458 278.199 174.987 278.199 174.987L281.386 172.828C281.386 172.778 292.505 196.374 281.386 205.888Z" fill="#101830"/>
<path opacity="0.5" d="M203.001 283.128C204.306 298.44 203.001 316.363 203.001 316.363C203.001 316.363 202.298 316.589 201.068 316.463C198.985 315.259 197.705 313.727 197.705 313.727C197.705 313.727 196.651 276.375 191.003 258.753C185.381 241.131 177.625 222.807 191.003 211.184C194.216 208.398 198.433 205.185 202.976 201.896C204.331 202.524 205.21 203.277 205.435 204.156C205.435 204.156 188.92 215.402 190.652 231.191C192.409 246.955 201.721 267.84 203.001 283.128Z" fill="#2C3A60"/>
<path d="M194.543 295.228L190 295.604C189.071 292.994 178.68 263.774 168.289 242.011C157.396 219.193 153.305 203.203 159.78 194.693C161.612 192.258 167.059 188.769 173.911 184.953L178.479 187.739C178.479 187.739 161.261 196.375 166.306 215.101C171.376 233.852 194.543 295.228 194.543 295.228Z" fill="#2C3A60"/>
<path d="M307.439 249.014L331.359 261.992L353.999 249.014L330.706 235.232L307.439 249.014Z" fill="url(#paint14_linear_1_10943)"/>
<g opacity="0.4" filter="url(#filter1_f_1_10943)">
<path d="M307.439 279.113L331.359 292.091L353.999 279.113L330.706 265.332L307.439 279.113Z" fill="#000102" fill-opacity="0.2"/>
</g>
<path d="M353.998 249.016V265.182L331.358 278.235V261.994L353.998 249.016Z" fill="#666668"/>
<path d="M307.439 249.016V263.625L331.359 278.235V261.994L307.439 249.016Z" fill="#3F3F3F"/>
<g opacity="0.4" filter="url(#filter2_f_1_10943)">
<path d="M53.1071 217.787L-0.00292969 249.14L63.197 286.241L116.658 254.863L53.1071 217.787Z" fill="#000102" fill-opacity="0.2"/>
</g>
<path d="M53.1071 189.396L-0.00292969 216.683V220.749L63.197 257.85L116.658 226.473V222.406L53.1071 189.396Z" fill="#F4821C"/>
<path d="M53.1071 185.33L-0.00292969 216.683L63.197 253.784L116.658 222.406L53.1071 185.33Z" fill="url(#paint15_linear_1_10943)"/>
<path d="M53.1064 185.33L59.6323 219.946L116.658 222.406L53.1064 185.33Z" fill="url(#paint16_linear_1_10943)"/>
<g opacity="0.4" filter="url(#filter3_f_1_10943)">
<path d="M134.003 342.746C134.003 350.704 123.16 357.18 109.807 357.18C96.4542 357.18 85.6113 350.729 85.6113 342.746C85.6113 334.789 96.4542 328.312 109.807 328.312C123.16 328.338 134.003 334.789 134.003 342.746Z" fill="#000102" fill-opacity="0.2"/>
</g>
<path d="M126.248 312.424C121.931 310.015 116.158 308.559 109.783 308.559C103.407 308.559 97.6346 310.04 93.3175 312.424H85.5869V322.967C85.5869 330.925 96.4298 337.401 109.783 337.401C123.135 337.401 133.978 330.95 133.978 322.967V312.424H126.248Z" fill="url(#paint17_linear_1_10943)"/>
<path d="M134.003 313.93C134.003 321.887 123.16 328.364 109.807 328.364C96.4542 328.364 85.6113 321.912 85.6113 313.93C85.6113 305.972 96.4542 299.496 109.807 299.496C123.16 299.521 134.003 305.972 134.003 313.93Z" fill="url(#paint18_linear_1_10943)"/>
<path d="M93.091 312.5C93.091 312.5 91.4093 314.91 92.3631 317.069C93.2918 319.252 95.1742 321.386 95.1742 321.386L103.03 318.374C103.03 318.374 98.9391 314.634 101.725 312.676C104.511 310.743 112.116 308.81 114.225 308.785C116.358 308.76 116.81 309.839 117.111 310.818C117.412 311.797 118.115 314.383 118.115 314.383L127.075 312.5C127.075 312.5 125.444 306.074 119.069 304.944C112.719 303.84 97.7594 306.526 93.091 312.5Z" fill="white"/>
<g opacity="0.4" filter="url(#filter4_f_1_10943)">
<path d="M288.815 353.565C288.815 361.522 277.972 367.999 264.62 367.999C251.267 367.999 240.424 361.547 240.424 353.565C240.424 345.607 251.267 339.131 264.62 339.131C277.972 339.156 288.815 345.607 288.815 353.565Z" fill="#000102" fill-opacity="0.2"/>
</g>
<path d="M281.085 323.243C276.768 320.833 270.995 319.377 264.62 319.377C258.244 319.377 252.471 320.858 248.154 323.243H240.424V333.786C240.424 341.743 251.267 348.219 264.62 348.219C277.972 348.219 288.815 341.768 288.815 333.786V323.243H281.085Z" fill="url(#paint19_linear_1_10943)"/>
<path d="M288.815 324.748C288.815 332.706 277.972 339.182 264.62 339.182C251.267 339.182 240.424 332.731 240.424 324.748C240.424 316.791 251.267 310.314 264.62 310.314C277.972 310.314 288.815 316.791 288.815 324.748Z" fill="url(#paint20_linear_1_10943)"/>
<path d="M250.087 315.36L253.024 314.607L257.717 328.062L280.758 319.804L281.586 322.364L255.709 331.828L250.087 315.36Z" fill="white"/>
<path opacity="0.2" d="M218.286 82.9883C218.286 82.9883 214.496 100.811 212.539 102.468C210.581 104.124 204.783 108.116 196.827 109.12C188.87 110.124 183.825 109.471 183.825 109.471C183.825 109.471 204.557 104.35 209.075 99.1793C213.618 94.0082 218.286 82.9883 218.286 82.9883Z" fill="#161E3A"/>
<path d="M185.856 60.32L134.378 29.9713C131.893 28.5405 128.806 30.3227 128.806 33.1844V76.2851C128.806 78.5443 130.01 80.6027 131.943 81.7323L185.48 113.261C187.864 114.641 190.851 112.934 190.851 110.173V68.9301C190.826 65.3907 188.943 62.1023 185.856 60.32Z" fill="#2D2F4F"/>
<path d="M131.718 31.0012L183.221 61.3248C186.283 63.107 188.166 66.3954 188.166 69.9349V111.203C188.166 113.964 185.179 115.671 182.795 114.291L176.846 110.776V130.808L159.402 100.509L129.283 82.7622C127.35 81.6325 126.146 79.5491 126.146 77.3149V34.1892C126.146 31.3275 129.258 29.5452 131.718 31.0012Z" fill="url(#paint21_linear_1_10943)"/>
<path d="M135.057 48.3962L165.653 66.1436C166.406 66.5703 167.034 66.3193 167.034 65.5662V65.1897C167.034 64.4366 166.406 63.4576 165.653 63.0309L135.057 45.2835C134.304 44.8568 133.677 45.1078 133.677 45.8609V46.2374C133.677 46.9654 134.304 47.9444 135.057 48.3962Z" fill="#FEFFFF"/>
<path d="M135.057 55.5505L174.513 78.5191C175.266 78.9459 175.894 78.6949 175.894 77.9418V77.5653C175.894 76.8122 175.266 75.8332 174.513 75.4065L135.057 52.4378C134.304 52.0111 133.677 52.2621 133.677 53.0152V53.3917C133.677 54.1197 134.304 55.0987 135.057 55.5505Z" fill="#FEFFFF"/>
<path d="M135.057 62.7048L174.513 85.6734C175.266 86.1002 175.894 85.8492 175.894 85.0961V84.7196C175.894 83.9665 175.266 82.9875 174.513 82.5608L135.057 59.5921C134.304 59.1654 133.677 59.4164 133.677 60.1695V60.546C133.677 61.274 134.304 62.253 135.057 62.7048Z" fill="#FEFFFF"/>
<path d="M146.677 77.9158L174.487 94.2072C175.24 94.6339 175.868 94.3829 175.868 93.6298V93.2533C175.868 92.5002 175.24 91.5212 174.487 91.0945L146.677 74.8031C145.924 74.3763 145.297 74.6273 145.297 75.3804V75.757C145.297 76.51 145.924 77.489 146.677 77.9158Z" fill="#FEFFFF"/>
<path d="M178.929 112.005V129.552L176.846 130.807V110.775L178.929 112.005Z" fill="#2D2F4F"/>
<defs>
<filter id="filter0_d_1_10943" x="180.856" y="163.717" width="167.502" height="123.288" filterUnits="userSpaceOnUse" color-interpolation-filters="sRGB">
<feFlood flood-opacity="0" result="BackgroundImageFix"/>
<feColorMatrix in="SourceAlpha" type="matrix" values="0 0 0 0 0 0 0 0 0 0 0 0 0 0 0 0 0 0 127 0" result="hardAlpha"/>
<feOffset dy="29.2064"/>
<feGaussianBlur stdDeviation="8.51855"/>
<feComposite in2="hardAlpha" operator="out"/>
<feColorMatrix type="matrix" values="0 0 0 0 0.432083 0 0 0 0 0.435133 0 0 0 0 0.508333 0 0 0 0.29 0"/>
<feBlend mode="normal" in2="BackgroundImageFix" result="effect1_dropShadow_1_10943"/>
<feBlend mode="normal" in="SourceGraphic" in2="effect1_dropShadow_1_10943" result="shape"/>
</filter>
<filter id="filter1_f_1_10943" x="301.355" y="259.247" width="58.7289" height="38.9291" filterUnits="userSpaceOnUse" color-interpolation-filters="sRGB">
<feFlood flood-opacity="0" result="BackgroundImageFix"/>
<feBlend mode="normal" in="SourceGraphic" in2="BackgroundImageFix" result="shape"/>
<feGaussianBlur stdDeviation="3.04234" result="effect1_foregroundBlur_1_10943"/>
</filter>
<filter id="filter2_f_1_10943" x="-6.08761" y="211.702" width="128.83" height="80.6225" filterUnits="userSpaceOnUse" color-interpolation-filters="sRGB">
<feFlood flood-opacity="0" result="BackgroundImageFix"/>
<feBlend mode="normal" in="SourceGraphic" in2="BackgroundImageFix" result="shape"/>
<feGaussianBlur stdDeviation="3.04234" result="effect1_foregroundBlur_1_10943"/>
</filter>
<filter id="filter3_f_1_10943" x="79.5267" y="322.228" width="60.561" height="41.0365" filterUnits="userSpaceOnUse" color-interpolation-filters="sRGB">
<feFlood flood-opacity="0" result="BackgroundImageFix"/>
<feBlend mode="normal" in="SourceGraphic" in2="BackgroundImageFix" result="shape"/>
<feGaussianBlur stdDeviation="3.04234" result="effect1_foregroundBlur_1_10943"/>
</filter>
<filter id="filter4_f_1_10943" x="234.339" y="333.046" width="60.561" height="41.0365" filterUnits="userSpaceOnUse" color-interpolation-filters="sRGB">
<feFlood flood-opacity="0" result="BackgroundImageFix"/>
<feBlend mode="normal" in="SourceGraphic" in2="BackgroundImageFix" result="shape"/>
<feGaussianBlur stdDeviation="3.04234" result="effect1_foregroundBlur_1_10943"/>
</filter>
<linearGradient id="paint0_linear_1_10943" x1="197.899" y1="202.243" x2="331.328" y2="202.243" gradientUnits="userSpaceOnUse">
<stop stop-color="#FFD3AA"/>
<stop offset="1" stop-color="#FFF4D9"/>
</linearGradient>
<linearGradient id="paint1_linear_1_10943" x1="314.205" y1="189.394" x2="215.017" y2="207.894" gradientUnits="userSpaceOnUse">
<stop/>
<stop offset="1" stop-color="white"/>
</linearGradient>
<linearGradient id="paint2_linear_1_10943" x1="213.559" y1="198.615" x2="315.622" y2="198.615" gradientUnits="userSpaceOnUse">
<stop stop-color="#FF8EC6"/>
<stop offset="1" stop-color="#EB328E"/>
</linearGradient>
<linearGradient id="paint3_linear_1_10943" x1="222.012" y1="32.4607" x2="240.381" y2="32.4607" gradientUnits="userSpaceOnUse">
<stop stop-color="#3E6F7E"/>
<stop offset="1" stop-color="#98DBF8"/>
</linearGradient>
<linearGradient id="paint4_linear_1_10943" x1="224.902" y1="32.7364" x2="240.339" y2="32.7364" gradientUnits="userSpaceOnUse">
<stop stop-color="#95A7D8"/>
<stop offset="1" stop-color="#DEE4F3"/>
</linearGradient>
<linearGradient id="paint5_linear_1_10943" x1="184.703" y1="121.373" x2="296.517" y2="121.373" gradientUnits="userSpaceOnUse">
<stop stop-color="#FFF5F2"/>
<stop offset="1" stop-color="#FFD3C9"/>
</linearGradient>
<linearGradient id="paint6_linear_1_10943" x1="200.413" y1="93.9344" x2="208.353" y2="50.9363" gradientUnits="userSpaceOnUse">
<stop stop-color="#FFF5F2"/>
<stop offset="1" stop-color="#FFD3C9"/>
</linearGradient>
<linearGradient id="paint7_linear_1_10943" x1="211.19" y1="47.8836" x2="232.832" y2="47.8836" gradientUnits="userSpaceOnUse">
<stop stop-color="#95A7D8"/>
<stop offset="1" stop-color="#DEE4F3"/>
</linearGradient>
<linearGradient id="paint8_linear_1_10943" x1="251.428" y1="23.7185" x2="237.32" y2="-0.715801" gradientUnits="userSpaceOnUse">
<stop stop-color="#95A7D8"/>
<stop offset="1" stop-color="#DEE4F3"/>
</linearGradient>
<linearGradient id="paint9_linear_1_10943" x1="231.562" y1="13.2245" x2="262.673" y2="13.2245" gradientUnits="userSpaceOnUse">
<stop stop-color="#95A7D8"/>
<stop offset="1" stop-color="#DEE4F3"/>
</linearGradient>
<linearGradient id="paint10_linear_1_10943" x1="248.754" y1="34.5693" x2="267.123" y2="34.5693" gradientUnits="userSpaceOnUse">
<stop stop-color="#3E6F7E"/>
<stop offset="1" stop-color="#98DBF8"/>
</linearGradient>
<linearGradient id="paint11_linear_1_10943" x1="251.644" y1="34.8202" x2="267.081" y2="34.8202" gradientUnits="userSpaceOnUse">
<stop stop-color="#95A7D8"/>
<stop offset="1" stop-color="#DEE4F3"/>
</linearGradient>
<linearGradient id="paint12_linear_1_10943" x1="131.228" y1="158.715" x2="225.776" y2="158.715" gradientUnits="userSpaceOnUse">
<stop stop-color="#EEEFEF"/>
<stop offset="0.9946" stop-color="#B4B5B5"/>
</linearGradient>
<linearGradient id="paint13_linear_1_10943" x1="280.6" y1="180.638" x2="218.814" y2="176.777" gradientUnits="userSpaceOnUse">
<stop stop-color="#EEEFEF"/>
<stop offset="0.9946" stop-color="#B4B5B5"/>
</linearGradient>
<linearGradient id="paint14_linear_1_10943" x1="307.43" y1="248.597" x2="353.993" y2="248.597" gradientUnits="userSpaceOnUse">
<stop stop-color="#FF8EC6"/>
<stop offset="1" stop-color="#EB328E"/>
</linearGradient>
<linearGradient id="paint15_linear_1_10943" x1="59.8973" y1="218.459" x2="85.5381" y2="200.731" gradientUnits="userSpaceOnUse">
<stop stop-color="#FFA943"/>
<stop offset="1" stop-color="#FFB985"/>
</linearGradient>
<linearGradient id="paint16_linear_1_10943" x1="53.0956" y1="203.873" x2="116.649" y2="203.873" gradientUnits="userSpaceOnUse">
<stop stop-color="#F4821C"/>
<stop offset="1" stop-color="#FFB985"/>
</linearGradient>
<linearGradient id="paint17_linear_1_10943" x1="85.5771" y1="322.963" x2="110" y2="365.5" gradientUnits="userSpaceOnUse">
<stop stop-color="#FF8EC6"/>
<stop offset="1" stop-color="#EB328E"/>
</linearGradient>
<linearGradient id="paint18_linear_1_10943" x1="85.6015" y1="313.913" x2="133.997" y2="313.913" gradientUnits="userSpaceOnUse">
<stop stop-color="#FF8EC6"/>
<stop offset="1" stop-color="#EB328E"/>
</linearGradient>
<linearGradient id="paint19_linear_1_10943" x1="240.414" y1="333.782" x2="264.837" y2="376.318" gradientUnits="userSpaceOnUse">
<stop stop-color="#FF8EC6"/>
<stop offset="1" stop-color="#EB328E"/>
</linearGradient>
<linearGradient id="paint20_linear_1_10943" x1="240.414" y1="324.732" x2="288.81" y2="324.732" gradientUnits="userSpaceOnUse">
<stop stop-color="#FF8EC6"/>
<stop offset="1" stop-color="#EB328E"/>
</linearGradient>
<linearGradient id="paint21_linear_1_10943" x1="126.133" y1="80.5873" x2="188.159" y2="80.5873" gradientUnits="userSpaceOnUse">
<stop stop-color="#FF8EC6"/>
<stop offset="1" stop-color="#EB328E"/>
</linearGradient>
</defs>
</svg>
