<svg width="29" height="29" viewBox="0 0 29 29" fill="none" xmlns="http://www.w3.org/2000/svg">
<g clip-path="url(#clip0_1_25242)">
<path d="M28.444 14.4135V12.1272C28.444 11.8252 28.1991 11.5803 27.8971 11.5803H27.7806V4.23928C27.7806 4.06324 27.6959 3.89798 27.553 3.79522C27.4101 3.69251 27.2264 3.66473 27.0595 3.72095L24.1837 4.68755C23.1329 5.04073 22.4268 6.02291 22.4268 7.13154V11.5803H22.3103C22.0083 11.5803 21.7634 11.8252 21.7634 12.1272V14.4135C21.4853 14.4392 21.2676 14.6732 21.2676 14.958V23.4533C21.2676 24.5145 22.1309 25.3777 23.192 25.3777H27.0155C28.0766 25.3777 28.9399 24.5145 28.9399 23.4533V14.958C28.9399 14.6732 28.7221 14.4392 28.444 14.4135ZM22.8572 12.6741H27.3502V14.4112H22.8572V12.6741ZM23.5205 7.13154C23.5205 6.49317 23.9271 5.92759 24.5322 5.72426L26.6868 5.00004V11.5803H23.5205V7.13154ZM27.8462 23.4533C27.8462 23.9114 27.4735 24.284 27.0155 24.284H23.192C22.7339 24.284 22.3613 23.9114 22.3613 23.4533V15.5049H27.8462V23.4533Z" fill="#E11A7D"/>
<path d="M10.4524 7.32373C6.8827 7.32373 3.97852 10.2279 3.97852 13.7976C3.97852 17.3673 6.8827 20.2715 10.4524 20.2715C14.0221 20.2715 16.9263 17.3674 16.9263 13.7976C16.9263 10.2279 14.0221 7.32373 10.4524 7.32373ZM10.4524 19.1778C7.48579 19.1778 5.07227 16.7643 5.07227 13.7976C5.07227 10.831 7.48579 8.41748 10.4524 8.41748C13.4191 8.41748 15.8326 10.831 15.8326 13.7976C15.8326 16.7643 13.4191 19.1778 10.4524 19.1778Z" fill="#E11A7D"/>
<path d="M9.3967 10.3838C9.18315 10.1703 8.83687 10.1703 8.62331 10.3838L6.98438 12.0227C6.77083 12.2363 6.77083 12.5826 6.98438 12.7961C7.09119 12.9029 7.23113 12.9563 7.37108 12.9563C7.51103 12.9563 7.65103 12.9029 7.75778 12.7961L9.3967 11.1571C9.61031 10.9436 9.61031 10.5973 9.3967 10.3838Z" fill="#E11A7D"/>
<path d="M10.9737 10.9565L8.01176 13.9184C7.7982 14.132 7.79815 14.4783 8.0117 14.6919C8.11851 14.7986 8.25845 14.8521 8.3984 14.8521C8.53834 14.8521 8.67834 14.7986 8.78509 14.6919L11.7471 11.73C11.9606 11.5164 11.9607 11.1701 11.7471 10.9565C11.5335 10.743 11.1873 10.743 10.9737 10.9565Z" fill="#E11A7D"/>
<path d="M19.4183 20.8848H16.0068C16.7961 20.2656 17.4806 19.5159 18.0296 18.6625C18.9625 17.212 19.4557 15.5299 19.4557 13.7978C19.4557 8.83332 15.4168 4.79443 10.4523 4.79443C5.48781 4.79443 1.44892 8.83332 1.44892 13.7978C1.44892 15.5299 1.94209 17.2121 2.87506 18.6625C3.42402 19.5158 4.10843 20.2656 4.89773 20.8848H1.48633C1.18429 20.8848 0.939453 21.1296 0.939453 21.4316V22.1351C0.939453 23.9231 2.39414 25.3778 4.18215 25.3778H7.98009C8.28212 25.3778 8.52696 25.1329 8.52696 24.8309C8.52696 24.5289 8.28212 24.284 7.98009 24.284H4.18215C2.99718 24.284 2.0332 23.32 2.0332 22.1351V21.9785H18.8714V22.1351C18.8714 23.32 17.9073 24.284 16.7224 24.284H12.9245C12.6225 24.284 12.3776 24.5289 12.3776 24.8309C12.3776 25.1329 12.6225 25.3778 12.9245 25.3778H16.7224C18.5104 25.3778 19.9651 23.9231 19.9651 22.1351V21.4316C19.9651 21.1296 19.7203 20.8848 19.4183 20.8848ZM6.93566 20.8848C4.26292 19.5553 2.54267 16.7872 2.54267 13.7978C2.54267 9.43642 6.09091 5.88818 10.4523 5.88818C14.8137 5.88818 18.362 9.43642 18.362 13.7978C18.362 16.7871 16.6417 19.5553 13.9689 20.8848H6.93566Z" fill="#E11A7D"/>
<path d="M10.9672 24.6218C10.8791 24.4104 10.6623 24.2725 10.4329 24.285C10.2049 24.2973 10.0056 24.4544 9.93911 24.6724C9.87278 24.8899 9.95262 25.1354 10.1363 25.2703C10.3157 25.4021 10.561 25.4125 10.7505 25.2954C10.9759 25.156 11.0674 24.8663 10.9672 24.6218Z" fill="#E11A7D"/>
</g>
<defs>
<clipPath id="clip0_1_25242">
<rect width="28" height="28" fill="white" transform="translate(0.939453 0.535156)"/>
</clipPath>
</defs>
</svg>
