<svg width="24" height="25" viewBox="0 0 24 25" fill="none" xmlns="http://www.w3.org/2000/svg">
<g clip-path="url(#clip0_1426_2739)">
<path d="M1.91667 4.13867C1.41041 4.13867 1 4.55514 1 5.0689V15.7666C1 20.3903 4.69366 24.1387 9.25 24.1387H14.75C19.3063 24.1387 23 20.3903 23 15.7666V5.0689C23 4.55514 22.5896 4.13867 22.0833 4.13867H1.91667Z" fill="#F0B5D2"/>
<path fill-rule="evenodd" clip-rule="evenodd" d="M12.0007 2.0555C9.46937 2.0555 7.41732 4.10755 7.41732 6.63883C7.41732 7.14511 7.00693 7.5555 6.50065 7.5555C5.99438 7.5555 5.58398 7.14511 5.58398 6.63883C5.58398 3.095 8.45682 0.222168 12.0007 0.222168C15.5445 0.222168 18.4173 3.095 18.4173 6.63883C18.4173 7.14511 18.0069 7.5555 17.5007 7.5555C16.9944 7.5555 16.584 7.14511 16.584 6.63883C16.584 4.10755 14.5319 2.0555 12.0007 2.0555Z" fill="#D3689D"/>
<path fill-rule="evenodd" clip-rule="evenodd" d="M13.8331 13.6666C13.8331 12.1478 12.6019 10.9166 11.0831 10.9166C9.56432 10.9166 8.33311 12.1478 8.33311 13.6666C8.33311 15.1854 9.56432 16.4166 11.0831 16.4166C12.6019 16.4166 13.8331 15.1854 13.8331 13.6666ZM11.0831 8.47217C13.9519 8.47217 16.2775 10.7978 16.2775 13.6666C16.2775 14.6581 15.9998 15.5847 15.5178 16.3728L17.7529 18.6079C18.2302 19.0852 18.2302 19.8591 17.7529 20.3364C17.2756 20.8137 16.5017 20.8137 16.0244 20.3364L13.7893 18.1013C13.0012 18.5833 12.0746 18.861 11.0831 18.861C8.21431 18.861 5.88867 16.5354 5.88867 13.6666C5.88867 10.7978 8.21431 8.47217 11.0831 8.47217Z" fill="white"/>
</g>
<defs>
<clipPath id="clip0_1426_2739">
<rect width="24" height="24" fill="white" transform="translate(0 0.138672)"/>
</clipPath>
</defs>
</svg>
