<svg width="244" height="141" viewBox="0 0 244 141" fill="none" xmlns="http://www.w3.org/2000/svg">
<rect width="243.595" height="140.252" rx="13.287" fill="#F8F8F8"/>
<mask id="mask0_1297_34933" style="mask-type:alpha" maskUnits="userSpaceOnUse" x="0" y="0" width="244" height="141">
<rect width="243.595" height="140.252" rx="13.287" fill="url(#paint0_linear_1297_34933)"/>
</mask>
<g mask="url(#mask0_1297_34933)">
<g opacity="0.3">
<path opacity="0.5" d="M45.8463 1.36451C56.9537 22.1394 57.845 48.0566 48.246 69.5172C43.9265 79.1847 37.6872 87.8238 32.9563 97.2856C28.2253 106.747 25.0028 117.512 27.2654 127.865C28.9795 135.407 33.6419 142.264 40.1555 146.515C46.6005 150.766 54.7596 152.411 62.3702 150.971C58.8049 160.296 50.5772 167.495 40.7726 169.621C30.9679 171.746 20.8204 170.581 10.9472 169.415C4.70788 168.661 -1.66858 167.907 -7.01657 164.684C-11.7475 161.873 -15.1757 157.348 -17.9183 152.617C-27.7915 135.476 -28.8885 114.701 -27.9972 94.9544C-27.3115 79.9389 -25.5974 64.8548 -20.8665 50.5935C-16.2042 36.2636 -8.25072 22.7565 3.40516 13.2261C14.9925 3.69569 31.0365 -0.966665 45.8463 1.36451Z" fill="url(#paint1_linear_1297_34933)"/>
<path d="M12.5932 54.8438C7.79372 74.0417 10.0563 96.1193 23.2892 110.861C34.6708 123.545 52.566 128.961 69.6385 128.482C86.7109 128.002 103.166 122.311 119.005 115.866C134.843 109.421 150.407 102.084 166.999 98.0391C194.699 91.2513 224.73 94.1995 250.648 106.198C251.265 114.769 251.676 123.545 249.962 131.978C248.248 140.412 244.408 148.708 237.758 154.193C228.913 161.461 216.708 162.832 205.258 163.792C143.825 168.866 82.2543 170.648 20.6152 172.363C8.61649 172.705 -4.82207 172.5 -13.2554 163.998C-21.2089 155.976 -21.8259 143.497 -21.9631 132.253C-22.1688 117.443 -22.3059 102.222 -17.7121 88.0973C-13.1183 73.9046 -1.73668 58.9576 12.5932 54.8438Z" fill="url(#paint2_linear_1297_34933)" stroke="url(#paint3_linear_1297_34933)" stroke-width="0.369083" stroke-miterlimit="10"/>
<path opacity="0.5" d="M245.435 120.735L248.589 117.444C214.719 95.8464 169.329 93.858 133.676 112.37C119.826 119.57 107.622 129.443 94.4573 137.739C81.293 146.035 66.4146 152.823 50.8505 152.755C35.2865 152.686 18.9683 144.184 13.6203 129.511C9.57499 118.404 12.3176 105.788 17.6655 95.2979C23.0135 84.739 30.7613 75.62 37.3434 65.8153C43.9256 56.0107 49.5478 44.9033 49.7535 33.1103C49.9592 21.3173 43.3771 8.70148 32.1326 4.99902C9.1636 15.2836 -9.07443 37.1556 -17.4392 60.8787C-25.8041 84.6019 -25.7355 110.862 -19.9761 135.339C-17.9878 143.636 -15.1766 152.206 -9.00587 158.103C0.524536 167.222 15.1972 167.633 28.4301 167.496C82.7328 166.879 137.036 166.33 191.338 165.713C201.006 165.576 210.742 165.507 220.067 163.108C229.391 160.708 238.442 155.84 243.927 147.955C249.481 140.07 250.715 128.826 245.435 120.735Z" fill="url(#paint4_linear_1297_34933)" stroke="url(#paint5_linear_1297_34933)" stroke-width="0.369083" stroke-miterlimit="10"/>
<path opacity="0.5" d="M248.727 79.7332C225.621 74.8651 200.389 81.1045 182.22 96.1886C164.05 111.273 153.217 134.859 153.697 158.513C177.557 165.575 202.583 169.346 227.472 168.249C233.094 167.975 238.991 167.427 243.653 164.273C249.138 160.502 251.812 153.851 253.526 147.474C259.354 126.151 256.406 100.371 248.727 79.7332Z" fill="url(#paint6_linear_1297_34933)" stroke="url(#paint7_linear_1297_34933)" stroke-width="0.369083" stroke-miterlimit="10"/>
<path d="M107.828 -16.1875C114.479 -2.54326 111.531 14.3921 103.509 27.2821C95.4866 40.1721 83.0765 49.7711 70.2551 57.9302C57.4336 66.0894 43.9265 73.2886 32.1334 82.819C24.4543 89.1269 16.9808 97.8345 18.2835 107.708C19.5177 117.444 29.1166 124.232 38.7156 126.426C57.7078 130.745 77.0429 122.175 94.6638 113.81C112.285 105.445 131.688 97.0117 150.681 101.537C163.502 104.622 174.13 113.33 183.66 122.449C193.19 131.568 202.172 141.51 213.554 148.161C224.936 154.811 239.608 157.554 251.264 151.52" stroke="url(#paint8_linear_1297_34933)" stroke-width="0.184541" stroke-miterlimit="10"/>
<path d="M105.702 -16.5996C112.627 -2.95536 110.09 14.0485 102.342 27.2128C94.5943 40.3771 82.4585 50.3189 69.5684 58.7523C56.9527 67.0485 43.4455 74.1792 31.8582 83.7781C24.179 90.1546 17.0484 99.1365 18.5568 108.873C20.0652 118.472 29.6642 124.985 39.1946 126.973C58.2554 130.882 77.5219 122.037 95.1428 113.604C112.832 105.102 132.373 96.5996 151.365 101.193C164.118 104.279 174.746 112.918 184.276 122.037C193.738 131.087 202.788 140.961 214.17 147.474C225.552 153.988 240.156 156.73 251.743 150.628" stroke="url(#paint9_linear_1297_34933)" stroke-width="0.184541" stroke-miterlimit="10"/>
<path d="M103.645 -17.0791C110.844 -3.36629 108.719 13.7062 101.314 27.0761C93.9091 40.5147 81.9104 50.8679 69.0204 59.5069C56.5417 67.8717 43.1032 74.9338 31.7215 84.7385C24.1109 91.2521 17.2545 100.44 19.0372 110.039C20.7513 119.5 30.3502 125.808 39.8806 127.591C59.01 131.225 78.1394 122.037 95.8289 113.398C113.518 104.759 133.196 96.1887 152.326 100.851C165.01 103.936 175.637 112.576 185.099 121.557C194.561 130.539 203.612 140.344 214.993 146.789C226.375 153.234 240.91 155.839 252.429 149.737" stroke="url(#paint10_linear_1297_34933)" stroke-width="0.184541" stroke-miterlimit="10"/>
<path d="M101.52 -17.4902C109.062 -3.77743 107.279 13.3636 100.149 27.0764C93.0181 40.7206 81.2251 51.4852 68.3351 60.33C56.0621 68.7633 42.6921 75.8254 31.5162 85.6986C23.9742 92.3494 17.392 101.743 19.3804 111.273C21.3002 120.598 30.8991 126.631 40.4295 128.208C59.5589 131.431 78.6883 122.038 96.3778 113.261C114.136 104.485 133.882 95.8461 153.08 100.577C165.765 103.662 176.323 112.233 185.785 121.215C195.247 130.197 204.298 139.864 215.679 146.241C227.061 152.617 241.528 155.154 252.978 148.915" stroke="url(#paint11_linear_1297_34933)" stroke-width="0.184541" stroke-miterlimit="10"/>
<path d="M99.3946 -17.9023C107.211 -4.18954 105.84 13.0886 99.0517 27.0071C92.2639 40.9256 80.608 52.1015 67.718 61.152C55.5821 69.6539 42.2807 76.716 31.3105 86.5892C23.837 93.3771 17.5291 102.907 19.7232 112.369C21.8486 121.557 31.4476 127.316 40.978 128.756C60.1759 131.636 79.1682 121.9 96.9263 112.986C114.684 104.073 134.568 95.3654 153.903 100.096C166.519 103.182 177.078 111.684 186.539 120.597C196.001 129.51 205.052 139.109 216.433 145.417C227.815 151.725 242.282 154.125 253.595 147.885" stroke="url(#paint12_linear_1297_34933)" stroke-width="0.184541" stroke-miterlimit="10"/>
<path d="M97.3372 -18.3818C105.428 -4.66903 104.468 12.7462 97.9543 26.8704C91.4407 40.9946 80.0591 52.5819 67.1005 61.9067C55.1703 70.4772 41.8689 77.6078 31.1044 87.5496C23.6309 94.406 17.6658 104.211 20.1341 113.604C22.5339 122.654 32.0643 128.14 41.5947 129.374C60.8612 131.842 79.7848 121.9 97.5429 112.85C115.301 103.799 135.322 95.0231 154.725 99.8226C167.273 102.908 177.831 111.41 187.293 120.255C196.755 129.099 205.806 138.63 217.187 144.869C228.5 151.108 242.967 153.44 254.28 147.132" stroke="url(#paint13_linear_1297_34933)" stroke-width="0.184541" stroke-miterlimit="10"/>
<path d="M95.2127 -18.7939C103.577 -5.08114 103.029 12.4027 96.8582 26.8011C90.6875 41.1996 79.4429 53.1297 66.4158 62.7287C54.6228 71.4363 41.4585 78.4984 30.8996 88.5088C23.4947 95.5023 17.8039 105.513 20.4779 114.769C23.0833 123.614 32.6823 128.962 42.0755 129.99C61.342 132.116 80.1972 121.899 98.0238 112.643C115.85 103.456 135.94 94.611 155.48 99.479C168.028 102.564 178.518 110.998 187.98 119.774C197.442 128.55 206.492 138.081 217.805 144.183C229.118 150.285 243.517 152.548 254.761 146.24" stroke="url(#paint14_linear_1297_34933)" stroke-width="0.184541" stroke-miterlimit="10"/>
<path d="M93.0873 -19.2734C101.726 -5.56063 101.589 12.0603 95.6927 26.6645C89.7962 41.3372 78.7574 53.6787 65.7302 63.4834C54.0743 72.2596 40.9786 79.3217 30.6254 89.4006C23.2891 96.5312 17.8725 106.747 20.8208 115.935C23.6319 124.642 33.2308 129.716 42.6241 130.539C61.9592 132.253 80.7457 121.763 98.5724 112.438C116.399 103.045 136.625 94.2 156.235 99.1367C168.713 102.222 179.204 110.655 188.666 119.363C198.127 128.071 207.178 137.533 218.491 143.566C229.804 149.6 244.134 151.794 255.31 145.417" stroke="url(#paint15_linear_1297_34933)" stroke-width="0.184541" stroke-miterlimit="10"/>
<path d="M91.0299 -19.6855C100.012 -5.97274 100.217 11.7168 94.5952 26.5952C88.973 41.4736 78.2084 54.2265 65.1127 64.2368C53.6625 73.0816 40.6353 80.1437 30.4193 90.2912C23.1515 97.559 17.9406 107.981 21.1631 117.031C24.2485 125.67 33.8475 130.47 43.2407 131.155C62.6444 132.527 81.2938 121.762 99.189 112.232C117.084 102.701 137.448 93.7879 157.126 98.7931C169.604 101.878 180.026 110.243 189.419 118.882C198.881 127.521 207.932 136.915 219.245 142.88C230.558 148.845 244.888 150.902 255.926 144.525" stroke="url(#paint16_linear_1297_34933)" stroke-width="0.184541" stroke-miterlimit="10"/>
<path d="M88.9053 -20.0967C98.1614 -6.38387 98.7785 11.4428 93.4991 26.5954C88.1511 41.7481 77.5922 54.8438 64.4965 65.1284C53.1834 74.0417 40.2248 81.1038 30.283 91.3199C23.0838 98.7248 18.1472 109.352 21.6439 118.334C24.8665 126.767 34.4654 131.293 43.8587 131.773C63.3309 132.733 81.9117 121.694 99.807 112.095C117.702 102.427 138.203 93.4454 157.949 98.4506C170.359 101.536 180.781 109.832 190.174 118.471C199.636 127.11 208.687 136.366 220 142.263C231.313 148.159 245.574 150.148 256.544 143.703" stroke="url(#paint17_linear_1297_34933)" stroke-width="0.184541" stroke-miterlimit="10"/>
<path d="M86.7781 -20.5762C96.3085 -6.86336 97.337 11.0319 92.3318 26.4588C87.3267 41.8171 76.9049 55.3242 63.8092 65.8831C52.6333 74.865 39.7432 81.9271 30.0071 92.2117C22.8079 99.7537 18.2141 110.587 21.9166 119.432C25.3448 127.659 35.0123 131.979 44.337 132.253C63.8092 132.802 82.3215 121.557 100.285 111.752C118.249 101.948 138.818 92.8973 158.702 97.9711C171.043 101.056 181.465 109.353 190.858 117.855C200.252 126.357 209.371 135.613 220.684 141.441C231.997 147.269 246.19 149.12 257.091 142.675" stroke="url(#paint18_linear_1297_34933)" stroke-width="0.184541" stroke-miterlimit="10"/>
<path d="M84.7215 -20.9883C94.5261 -7.27547 96.0345 10.7569 91.3036 26.3895C86.5727 42.0221 76.3567 55.9406 63.2609 66.7051C52.2907 75.687 39.4692 82.8862 29.8702 93.2394C22.7396 100.919 18.42 111.957 22.3967 120.734C26.0306 128.824 35.6982 132.869 45.0229 133.007C64.5636 133.212 83.0074 121.693 100.971 111.752C118.935 101.81 139.641 92.6909 159.593 97.8332C171.935 100.919 182.288 109.146 191.681 117.648C201.075 126.15 210.262 135.269 221.507 141.029C232.82 146.788 247.013 148.571 257.777 142.057" stroke="url(#paint19_linear_1297_34933)" stroke-width="0.184541" stroke-miterlimit="10"/>
<path d="M82.5965 -21.4688C92.744 -7.75594 94.5952 10.4135 90.1386 26.2518C85.6819 42.1587 75.7401 56.42 62.5073 67.4588C51.6741 76.5093 38.9212 83.7085 29.5965 94.1302C22.5344 101.947 18.4206 113.122 22.6715 121.83C26.5111 129.784 36.1787 133.555 45.4348 133.486C65.0441 133.28 83.3507 121.487 101.383 111.408C119.347 101.329 140.19 92.1419 160.28 97.3527C172.553 100.438 182.837 108.597 192.299 117.099C201.692 125.533 210.88 134.583 222.124 140.274C233.369 145.896 247.562 147.61 258.326 141.028" stroke="url(#paint20_linear_1297_34933)" stroke-width="0.184541" stroke-miterlimit="10"/>
<path d="M80.4718 -21.8789C90.8936 -8.1661 93.1562 10.0719 88.9738 26.1845C84.86 42.297 75.0553 56.9697 61.8224 68.2828C51.1264 77.4018 38.5106 84.601 29.3231 95.0913C22.3981 103.045 18.5585 114.426 23.0837 123.065C27.129 130.882 36.8651 134.379 46.0527 134.104C65.7306 133.487 83.9686 121.488 102.001 111.272C120.033 101.056 140.945 91.8688 161.103 97.0111C173.308 100.097 183.592 108.256 193.054 116.62C202.447 124.985 211.635 133.967 222.879 139.521C234.124 145.075 248.248 146.72 258.944 140.069" stroke="url(#paint21_linear_1297_34933)" stroke-width="0.184541" stroke-miterlimit="10"/>
<path d="M78.4144 -22.291C89.1104 -8.57821 91.7844 9.79696 87.9448 26.1838C84.1053 42.5706 74.5063 57.5861 61.2734 69.1049C50.7831 78.2924 38.2359 85.5602 29.1854 96.0505C22.2605 104.141 18.6266 115.728 23.4261 124.299C27.677 131.91 37.4131 135.269 46.6007 134.789C66.3472 133.829 84.4481 121.556 102.549 111.135C120.581 100.713 141.699 91.5253 161.925 96.7362C174.13 99.8901 184.346 107.912 193.739 116.277C203.132 124.573 212.32 133.486 223.565 138.972C234.809 144.457 248.865 145.965 259.492 139.314" stroke="url(#paint22_linear_1297_34933)" stroke-width="0.184541" stroke-miterlimit="10"/>
<path d="M76.2876 -22.7705C87.2578 -8.98914 90.3432 9.38603 86.7779 26.0471C83.2811 42.6396 73.8193 58.0665 60.5864 69.8595C50.2332 79.1157 37.7546 86.3834 28.9784 96.9423C22.122 105.17 18.7623 116.963 23.8361 125.396C28.2927 132.87 38.0288 135.955 47.2164 135.27C66.9629 133.898 85.0638 121.351 103.165 110.792C121.266 100.233 142.452 90.9772 162.747 96.2567C174.883 99.4106 185.099 107.433 194.492 115.66C203.885 123.957 213.073 132.733 224.317 138.149C235.562 143.566 249.617 145.006 260.108 138.286" stroke="url(#paint23_linear_1297_34933)" stroke-width="0.184541" stroke-miterlimit="10"/>
<path d="M74.1641 -23.1816C85.4772 -9.46883 88.9054 9.11202 85.6829 25.9788C82.4604 42.8455 73.2042 58.6153 59.9714 70.6825C49.7553 80.0073 37.4138 87.275 28.7747 97.9025C21.9869 106.267 18.9015 118.266 24.181 126.631C28.8433 133.967 38.648 136.778 47.767 135.956C67.582 134.173 85.5458 121.42 103.715 110.724C121.816 100.028 143.14 90.7032 163.572 96.0512C175.639 99.2052 185.855 107.159 195.248 115.386C204.642 123.614 213.829 132.322 225.074 137.67C236.318 143.018 250.305 144.32 260.727 137.601" stroke="url(#paint24_linear_1297_34933)" stroke-width="0.184541" stroke-miterlimit="10"/>
<path d="M72.1056 -23.6621C83.693 -9.88074 87.5325 8.70012 84.5843 25.8411C81.636 42.9821 72.5856 59.0947 59.3527 71.4362C49.2738 80.7609 37.0008 88.1658 28.5675 98.7933C21.7796 107.295 18.9685 119.5 24.5908 127.727C29.4588 134.927 39.2635 137.463 48.3825 136.435C68.266 134.241 86.1613 121.282 104.331 110.381C122.5 99.5475 143.892 90.1542 164.393 95.5022C176.46 98.6561 186.608 106.541 196.001 114.7C205.394 122.859 214.582 131.567 225.826 136.778C237.071 141.989 250.989 143.291 261.342 136.503" stroke="url(#paint25_linear_1297_34933)" stroke-width="0.184541" stroke-miterlimit="10"/>
<path d="M69.9814 -24.0732C81.8429 -10.2919 86.0939 8.42612 83.4199 25.7728C80.8145 43.1195 71.9012 59.6435 58.5997 72.2592C48.6579 81.6525 36.5221 89.0574 28.2944 99.7534C21.5751 108.461 18.9697 120.803 24.8662 128.962C29.94 136.024 39.7446 138.286 48.7951 137.052C68.7472 134.447 86.5053 121.214 104.675 110.244C122.844 99.2735 144.373 89.8116 165.011 95.2282C177.01 98.3821 187.157 106.267 196.551 114.358C205.944 122.448 215.131 131.087 226.376 136.229C237.62 141.372 251.539 142.537 261.755 135.75" stroke="url(#paint26_linear_1297_34933)" stroke-width="0.184541" stroke-miterlimit="10"/>
<path d="M67.8547 -24.4854C79.9905 -10.7725 84.6529 8.08256 82.3217 25.7035C79.9905 43.3245 71.2829 60.1912 57.9815 73.0127C48.2454 82.4745 36.1781 89.948 28.0875 100.644C21.4368 109.489 19.1056 122.036 25.2078 130.058C30.4187 136.914 40.2919 138.971 49.3424 137.6C69.3631 134.583 87.0526 121.145 105.222 109.969C123.392 98.7928 145.058 89.331 165.764 94.8161C177.694 97.97 187.842 105.786 197.235 113.808C206.628 121.83 215.816 130.401 226.992 135.475C238.168 140.548 252.086 141.577 262.302 134.789" stroke="url(#paint27_linear_1297_34933)" stroke-width="0.184541" stroke-miterlimit="10"/>
<path d="M65.7991 -24.9648C78.2092 -11.1835 83.2829 7.7402 81.226 25.6354C79.1691 43.4621 70.6671 60.7402 57.3657 73.8359C47.7667 83.2978 35.768 90.8398 27.8832 101.673C21.301 110.655 19.1755 123.408 25.6206 131.361C31.0371 138.08 40.9789 139.863 49.9608 138.286C69.9815 134.858 87.6025 121.145 105.84 109.901C124.079 98.5876 145.882 89.0571 166.657 94.6108C178.587 97.7648 188.666 105.581 197.991 113.535C207.384 121.488 216.571 129.99 227.747 134.995C238.923 140 252.773 140.96 262.921 134.035" stroke="url(#paint28_linear_1297_34933)" stroke-width="0.184541" stroke-miterlimit="10"/>
<path d="M63.6741 -25.376C76.427 -11.5946 81.8435 7.46621 80.1294 25.5671C78.4153 43.668 70.0505 61.289 56.7491 74.659C47.2873 84.1894 35.4257 91.7314 27.678 102.633C21.1644 111.752 19.3131 124.711 25.9639 132.527C31.5861 139.109 41.5279 140.618 50.5098 138.903C70.599 135.064 88.1514 121.145 106.389 109.695C124.628 98.245 146.568 88.646 167.411 94.1997C179.273 97.3537 189.352 105.101 198.677 112.986C208.001 120.871 217.258 129.305 228.433 134.241C239.609 139.178 253.391 140.001 263.47 133.076" stroke="url(#paint29_linear_1297_34933)" stroke-width="0.184541" stroke-miterlimit="10"/>
<path d="M61.5483 -25.8564C74.5755 -12.0751 80.4034 7.0543 78.9636 25.4295C77.5237 43.8046 69.3646 61.7684 56.0632 75.4126C46.7385 85.0116 35.014 92.6222 27.472 103.524C21.027 112.78 19.3814 125.944 26.3749 133.692C32.2029 140.137 42.1447 141.371 51.1266 139.451C71.2844 135.201 88.7682 121.076 107.006 109.489C125.313 97.9017 147.322 88.2341 168.303 93.8564C180.096 97.0103 190.174 104.689 199.499 112.574C208.824 120.459 218.08 128.755 229.256 133.624C240.432 138.492 254.213 139.246 264.155 132.252" stroke="url(#paint30_linear_1297_34933)" stroke-width="0.184541" stroke-miterlimit="10"/>
<path d="M59.4904 -26.2676C72.7918 -12.4862 79.0311 6.78029 77.9341 25.3611C76.7685 43.942 68.8151 62.2486 55.5137 76.2357C46.3261 85.8346 34.7388 93.5138 27.3338 104.484C20.9574 113.877 19.5175 127.247 26.7853 134.858C32.7504 141.166 42.8293 142.057 51.7427 140.069C71.969 135.406 89.3157 121.008 107.622 109.284C125.929 97.5591 148.075 87.823 169.124 93.5138C180.917 96.6678 190.928 104.347 200.252 112.095C209.577 119.911 218.833 128.139 230.009 132.938C241.185 137.669 254.898 138.355 264.771 131.361" stroke="url(#paint31_linear_1297_34933)" stroke-width="0.184541" stroke-miterlimit="10"/>
<path d="M57.3654 -26.6777C70.9411 -12.8964 77.5918 6.50726 76.7691 25.2938C75.9463 44.1489 68.13 62.7983 54.8286 76.9911C45.7781 86.6586 34.2594 94.4064 27.0601 105.377C20.7522 114.976 19.5867 128.483 27.1287 136.025C33.2995 142.195 43.3784 142.813 52.2231 140.619C72.5181 135.545 89.7962 120.941 108.103 109.079C126.478 97.2175 148.693 87.4128 169.879 93.1722C181.603 96.3262 191.614 103.937 200.939 111.684C210.263 119.432 219.519 127.591 230.695 132.254C241.871 136.916 255.516 137.533 265.32 130.471" stroke="url(#paint32_linear_1297_34933)" stroke-width="0.184541" stroke-miterlimit="10"/>
<path d="M55.2395 -27.1582C69.158 -13.3768 76.1515 6.09536 75.603 25.2247C75.0545 44.3541 67.4439 63.3463 54.0739 77.8133C45.1606 87.4809 33.7789 95.3657 26.7854 106.336C20.6146 116.072 19.5862 129.785 27.4025 137.19C33.7789 143.223 43.8578 143.566 52.7026 141.167C72.9976 135.681 90.2071 120.872 108.582 108.804C126.957 96.8056 149.309 86.9324 170.564 92.7603C182.289 95.9142 192.23 103.456 201.555 111.204C210.88 118.883 220.136 126.974 231.312 131.568C242.488 136.161 256.064 136.641 265.8 129.579" stroke="url(#paint33_linear_1297_34933)" stroke-width="0.184541" stroke-miterlimit="10"/>
<path d="M53.1823 -27.5703C67.3751 -13.7889 74.78 5.82038 74.5743 25.1554C74.3001 44.4905 66.8266 63.8941 53.5252 78.6354C44.749 88.3715 33.5045 96.2564 26.648 107.295C20.5458 117.168 19.7231 131.087 27.8822 138.423C34.3958 144.32 44.5433 144.388 53.388 141.851C73.7515 135.955 90.8926 120.871 109.268 108.735C127.711 96.5992 150.132 86.6574 171.524 92.4853C183.18 95.6393 193.053 103.181 202.378 110.792C211.702 118.403 221.027 126.425 232.134 130.95C243.242 135.475 256.886 135.886 266.554 128.756" stroke="url(#paint34_linear_1297_34933)" stroke-width="0.184541" stroke-miterlimit="10"/>
<path d="M51.0577 -27.9805C65.5247 -14.1991 73.341 5.47879 73.4096 25.0881C73.4781 44.6974 66.1418 64.3753 52.8404 79.4594C44.2013 89.2641 33.0939 97.2175 26.3747 108.256C20.341 118.267 19.724 132.391 28.1573 139.59C34.8766 145.349 45.0926 145.144 53.8688 142.401C74.3009 136.093 91.3048 120.804 109.749 108.462C128.192 96.1205 150.818 86.1787 172.21 92.0752C183.798 95.2291 193.671 102.703 202.996 110.313C212.32 117.855 221.645 125.809 232.752 130.265C243.86 134.722 257.435 134.996 267.034 127.866" stroke="url(#paint35_linear_1297_34933)" stroke-width="0.184541" stroke-miterlimit="10"/>
<path d="M48.9325 -28.4609C63.6737 -14.6796 71.9014 5.13545 72.3128 24.9505C72.6556 44.7655 65.525 64.8547 52.2236 80.2131C43.7216 90.0177 32.7514 98.0397 26.2378 109.147C20.2727 119.295 19.9299 133.693 28.6375 140.755C35.5625 146.377 45.7785 145.897 54.5547 143.018C74.9868 136.23 91.9907 120.734 110.434 108.324C128.878 95.9142 151.641 85.8353 173.171 91.8004C184.758 94.9544 194.563 102.428 203.887 109.901C213.212 117.443 222.537 125.328 233.644 129.648C244.751 134.036 258.259 134.242 267.789 127.042" stroke="url(#paint36_linear_1297_34933)" stroke-width="0.184541" stroke-miterlimit="10"/>
<path d="M46.8739 -28.873C61.8894 -15.0231 70.5285 4.7919 71.2141 24.8812C71.8998 44.9704 64.8377 65.4025 51.6048 80.9666C43.24 90.8398 32.4069 98.9303 26.0304 110.106C20.1339 120.459 19.9968 134.995 28.9787 141.92C36.0408 147.405 46.3254 146.651 55.1016 143.566C75.6022 136.366 92.469 120.665 110.981 108.049C129.494 95.4336 152.325 85.4232 173.923 91.3883C185.442 94.5422 195.246 101.947 204.571 109.421C213.896 116.894 223.221 124.71 234.328 128.961C245.435 133.212 258.942 133.349 268.336 126.082" stroke="url(#paint37_linear_1297_34933)" stroke-width="0.184541" stroke-miterlimit="10"/>
<path d="M44.7497 -29.3525C60.108 -15.5026 69.1585 4.44953 70.0498 24.8131C71.0097 45.1766 64.1533 65.8829 50.9204 81.7898C42.6927 91.663 31.9967 99.8221 25.7574 111.067C19.9295 121.557 19.998 136.298 29.3227 143.155C36.5905 148.503 46.8751 147.474 55.5828 144.183C76.152 136.572 92.9502 120.666 111.462 107.913C129.975 95.1598 152.944 85.0809 174.679 91.0459C186.129 94.1999 195.933 101.536 205.258 108.941C214.583 116.346 223.908 124.094 235.015 128.276C246.122 132.459 259.561 132.527 268.886 125.191" stroke="url(#paint38_linear_1297_34933)" stroke-width="0.184541" stroke-miterlimit="10"/>
<path d="M42.6227 -29.7637C58.2553 -15.9137 67.7171 4.17553 68.9513 24.7447C70.1854 45.314 63.5347 66.4317 50.2333 82.6128C42.1427 92.5546 31.5839 100.782 25.5502 112.027C19.8594 122.654 20.0651 137.601 29.6641 144.32C37.1375 149.531 47.4222 148.16 56.1298 144.8C76.699 136.778 93.4286 120.597 112.009 107.707C130.59 94.8172 153.628 84.6697 175.431 90.7034C186.881 93.8573 196.618 101.194 205.942 108.53C215.267 115.866 224.592 123.546 235.699 127.659C246.806 131.773 260.176 131.705 269.433 124.368" stroke="url(#paint39_linear_1297_34933)" stroke-width="0.184541" stroke-miterlimit="10"/>
<path d="M40.5672 -30.1748C56.4741 -16.3249 66.3473 3.83296 67.8557 24.6764C69.4327 45.5199 62.8505 66.9119 49.6177 83.4358C41.5957 93.3776 31.2425 101.674 25.346 112.918C19.7238 123.751 20.2037 138.904 30.0769 145.486C37.6875 150.629 48.1093 148.914 56.7483 145.349C77.3861 136.847 94.0472 120.529 112.628 107.502C131.209 94.4746 154.384 84.2586 176.324 90.3608C187.706 93.5147 197.442 100.783 206.698 108.05C215.954 115.318 225.347 122.929 236.386 126.974C247.425 131.019 260.795 130.882 269.983 123.477" stroke="url(#paint40_linear_1297_34933)" stroke-width="0.184541" stroke-miterlimit="10"/>
<path d="M38.4407 -30.6553C54.6218 -16.8053 64.9064 3.48962 66.7577 24.5388C68.6089 45.5879 62.2325 67.3913 48.9996 84.1895C41.1147 94.1999 30.8987 102.565 25.1393 113.878C19.5856 124.848 20.2713 140.206 30.4187 146.72C38.235 151.725 48.6568 149.737 57.2958 146.034C77.9336 137.121 94.5261 120.597 113.176 107.364C131.825 94.1999 155.137 83.9153 177.077 90.086C188.39 93.24 198.126 100.439 207.383 107.707C216.639 114.906 226.032 122.448 237.071 126.425C248.11 130.402 261.48 130.127 270.599 122.722" stroke="url(#paint41_linear_1297_34933)" stroke-width="0.184541" stroke-miterlimit="10"/>
<path d="M36.3154 -31.0664C52.8394 -17.2165 63.4668 3.14705 65.5923 24.4705C67.7178 45.7939 61.4784 67.9401 48.3141 84.944C40.5664 94.9543 30.4875 103.456 24.9338 114.769C19.5172 125.877 20.34 141.509 30.7618 147.817C38.7837 152.685 49.2055 150.423 57.8445 146.514C78.5509 137.19 95.0748 120.392 113.724 107.09C132.374 93.7201 155.823 83.4355 177.9 89.6063C189.213 92.7602 198.881 99.9595 208.137 107.09C217.393 114.289 226.786 121.694 237.825 125.602C248.864 129.442 262.165 129.168 271.216 121.694" stroke="url(#paint42_linear_1297_34933)" stroke-width="0.184541" stroke-miterlimit="10"/>
<path d="M34.2586 -31.5459C51.0568 -17.696 62.0956 2.80469 64.4954 24.4024C66.9637 46 60.7929 68.4205 47.6972 85.7672C40.0866 95.8461 30.1448 104.348 24.7282 115.73C19.3802 126.974 20.4087 142.812 31.1733 149.052C39.3324 153.783 49.8227 151.246 58.4617 147.201C79.1681 137.396 95.6235 120.461 114.341 106.953C132.991 93.4464 156.577 83.0932 178.723 89.3325C189.968 92.4865 199.635 99.6171 208.891 106.748C218.147 113.878 227.541 121.215 238.579 125.054C249.618 128.825 262.851 128.414 271.833 120.941" stroke="url(#paint43_linear_1297_34933)" stroke-width="0.184541" stroke-miterlimit="10"/>
<path d="M32.1327 -31.958C49.2052 -18.1081 60.6554 2.52971 63.3979 24.3331C66.1405 46.1364 60.1754 68.9683 47.0797 86.5892C39.6062 96.6681 29.8015 105.307 24.5221 116.689C19.2427 128.139 20.5454 144.183 31.5156 150.217C39.8804 154.81 50.3707 151.999 58.9413 147.748C79.7162 137.532 96.103 120.323 114.821 106.747C133.539 93.1028 157.194 82.6811 179.477 88.989C190.653 92.1429 200.32 99.2736 209.576 106.267C218.833 113.329 228.226 120.597 239.265 124.299C250.303 128.002 263.536 127.522 272.381 119.98" stroke="url(#paint44_linear_1297_34933)" stroke-width="0.184541" stroke-miterlimit="10"/>
</g>
</g>
<path d="M155.109 35.8672V26.8941H157.936C158.604 26.8941 159.198 26.981 159.719 27.1548C160.241 27.3286 160.652 27.6167 160.954 28.0192C161.256 28.4217 161.407 28.9705 161.407 29.6656C161.407 30.3242 161.256 30.8684 160.954 31.2983C160.652 31.7282 160.245 32.0484 159.733 32.2588C159.221 32.4691 158.64 32.5743 157.991 32.5743H156.701V35.8672H155.109ZM156.701 31.2983H157.867C159.184 31.2983 159.843 30.7541 159.843 29.6656C159.843 29.0985 159.669 28.7098 159.322 28.4994C158.983 28.2799 158.48 28.1701 157.812 28.1701H156.701V31.2983ZM164.068 36.0318C163.483 36.0318 163.002 35.8489 162.627 35.483C162.262 35.1171 162.079 34.6415 162.079 34.0561C162.079 33.3335 162.394 32.7756 163.025 32.3822C163.656 31.9798 164.663 31.7054 166.044 31.559C166.035 31.2023 165.939 30.8959 165.756 30.6398C165.582 30.3745 165.266 30.2419 164.809 30.2419C164.48 30.2419 164.155 30.3059 163.835 30.434C163.524 30.562 163.217 30.7175 162.916 30.9005L162.339 29.844C162.714 29.6062 163.135 29.4004 163.602 29.2266C164.077 29.0528 164.58 28.9659 165.111 28.9659C165.952 28.9659 166.579 29.2174 166.99 29.7205C167.411 30.2144 167.622 30.9325 167.622 31.8746V35.8672H166.318L166.208 35.1263H166.154C165.852 35.3824 165.527 35.5974 165.179 35.7711C164.841 35.9449 164.471 36.0318 164.068 36.0318ZM164.576 34.797C164.85 34.797 165.097 34.733 165.317 34.6049C165.545 34.4677 165.788 34.2848 166.044 34.0561V32.5469C165.129 32.6658 164.493 32.8442 164.137 33.082C163.78 33.3106 163.602 33.5942 163.602 33.9326C163.602 34.2345 163.693 34.454 163.876 34.5912C164.059 34.7284 164.292 34.797 164.576 34.797ZM171.39 36.0318C170.932 36.0318 170.475 35.9449 170.018 35.7711C169.56 35.5882 169.167 35.3641 168.838 35.0989L169.578 34.0836C169.88 34.3122 170.182 34.4952 170.484 34.6324C170.786 34.7696 171.106 34.8382 171.444 34.8382C171.81 34.8382 172.08 34.7604 172.254 34.6049C172.428 34.4494 172.515 34.2573 172.515 34.0287C172.515 33.8366 172.441 33.6811 172.295 33.5622C172.158 33.4341 171.98 33.3244 171.76 33.2329C171.54 33.1323 171.312 33.0362 171.074 32.9448C170.781 32.835 170.489 32.7024 170.196 32.5469C169.912 32.3822 169.679 32.1764 169.496 31.9295C169.313 31.6734 169.222 31.3578 169.222 30.9828C169.222 30.3882 169.441 29.9034 169.88 29.5284C170.319 29.1534 170.914 28.9659 171.664 28.9659C172.14 28.9659 172.565 29.0482 172.94 29.2129C173.315 29.3775 173.64 29.565 173.914 29.7754L173.187 30.7358C172.949 30.562 172.707 30.4248 172.46 30.3242C172.222 30.2144 171.97 30.1596 171.705 30.1596C171.367 30.1596 171.115 30.2327 170.95 30.3791C170.786 30.5163 170.704 30.6901 170.704 30.9005C170.704 31.1657 170.841 31.3669 171.115 31.5041C171.39 31.6413 171.71 31.774 172.076 31.902C172.387 32.0118 172.688 32.149 172.981 32.3136C173.274 32.4691 173.516 32.6749 173.708 32.9311C173.909 33.1872 174.01 33.5256 174.01 33.9464C174.01 34.5226 173.786 35.0165 173.338 35.4281C172.89 35.8306 172.24 36.0318 171.39 36.0318ZM175.419 35.8672V26.1807H176.997V28.6778L176.942 29.9812C177.225 29.7159 177.541 29.4827 177.888 29.2815C178.236 29.0711 178.638 28.9659 179.096 28.9659C179.818 28.9659 180.344 29.1991 180.674 29.6656C181.003 30.1321 181.167 30.7907 181.167 31.6413V35.8672H179.59V31.8472C179.59 31.2892 179.507 30.8959 179.343 30.6672C179.178 30.4385 178.908 30.3242 178.533 30.3242C178.24 30.3242 177.98 30.3974 177.751 30.5437C177.532 30.6809 177.28 30.8867 176.997 31.1611V35.8672H175.419ZM184.702 36.0318C184.117 36.0318 183.636 35.8489 183.261 35.483C182.896 35.1171 182.713 34.6415 182.713 34.0561C182.713 33.3335 183.028 32.7756 183.659 32.3822C184.29 31.9798 185.297 31.7054 186.678 31.559C186.669 31.2023 186.573 30.8959 186.39 30.6398C186.216 30.3745 185.9 30.2419 185.443 30.2419C185.114 30.2419 184.789 30.3059 184.469 30.434C184.158 30.562 183.851 30.7175 183.55 30.9005L182.973 29.844C183.348 29.6062 183.769 29.4004 184.236 29.2266C184.711 29.0528 185.214 28.9659 185.745 28.9659C186.586 28.9659 187.213 29.2174 187.624 29.7205C188.045 30.2144 188.256 30.9325 188.256 31.8746V35.8672H186.952L186.842 35.1263H186.788C186.486 35.3824 186.161 35.5974 185.813 35.7711C185.475 35.9449 185.105 36.0318 184.702 36.0318ZM185.21 34.797C185.484 34.797 185.731 34.733 185.951 34.6049C186.179 34.4677 186.422 34.2848 186.678 34.0561V32.5469C185.763 32.6658 185.127 32.8442 184.771 33.082C184.414 33.3106 184.236 33.5942 184.236 33.9326C184.236 34.2345 184.327 34.454 184.51 34.5912C184.693 34.7284 184.926 34.797 185.21 34.797ZM193.028 35.8672V26.8941H195.895C196.517 26.8941 197.066 26.9627 197.542 27.0999C198.027 27.2371 198.406 27.4704 198.681 27.7997C198.964 28.1198 199.106 28.5543 199.106 29.1031C199.106 29.5239 198.996 29.9217 198.777 30.2968C198.557 30.6626 198.251 30.9142 197.857 31.0514V31.1063C198.351 31.216 198.758 31.4493 199.078 31.806C199.408 32.1536 199.572 32.6292 199.572 33.2329C199.572 33.8274 199.421 34.3214 199.12 34.7147C198.827 35.108 198.42 35.4007 197.898 35.5928C197.377 35.7757 196.787 35.8672 196.129 35.8672H193.028ZM194.619 30.5986H195.758C196.38 30.5986 196.833 30.4843 197.116 30.2556C197.4 30.0269 197.542 29.7205 197.542 29.3363C197.542 28.8973 197.395 28.5863 197.103 28.4034C196.81 28.2204 196.371 28.129 195.786 28.129H194.619V30.5986ZM194.619 34.6324H195.964C196.622 34.6324 197.13 34.5135 197.487 34.2756C197.844 34.0287 198.022 33.6537 198.022 33.1506C198.022 32.6749 197.848 32.3319 197.501 32.1216C197.153 31.902 196.641 31.7923 195.964 31.7923H194.619V34.6324ZM202.71 36.0318C202.124 36.0318 201.644 35.8489 201.269 35.483C200.903 35.1171 200.72 34.6415 200.72 34.0561C200.72 33.3335 201.036 32.7756 201.667 32.3822C202.298 31.9798 203.304 31.7054 204.686 31.559C204.676 31.2023 204.58 30.8959 204.397 30.6398C204.224 30.3745 203.908 30.2419 203.451 30.2419C203.121 30.2419 202.797 30.3059 202.477 30.434C202.166 30.562 201.859 30.7175 201.557 30.9005L200.981 29.844C201.356 29.6062 201.777 29.4004 202.243 29.2266C202.719 29.0528 203.222 28.9659 203.753 28.9659C204.594 28.9659 205.221 29.2174 205.632 29.7205C206.053 30.2144 206.263 30.9325 206.263 31.8746V35.8672H204.96L204.85 35.1263H204.795C204.494 35.3824 204.169 35.5974 203.821 35.7711C203.483 35.9449 203.112 36.0318 202.71 36.0318ZM203.218 34.797C203.492 34.797 203.739 34.733 203.958 34.6049C204.187 34.4677 204.429 34.2848 204.686 34.0561V32.5469C203.771 32.6658 203.135 32.8442 202.778 33.082C202.422 33.3106 202.243 33.5942 202.243 33.9326C202.243 34.2345 202.335 34.454 202.518 34.5912C202.701 34.7284 202.934 34.797 203.218 34.797ZM208.152 35.8672V29.1305H209.455L209.565 30.0361H209.62C209.922 29.7434 210.251 29.4918 210.608 29.2815C210.964 29.0711 211.371 28.9659 211.829 28.9659C212.551 28.9659 213.077 29.1991 213.407 29.6656C213.736 30.1321 213.9 30.7907 213.9 31.6413V35.8672H212.323V31.8472C212.323 31.2892 212.24 30.8959 212.076 30.6672C211.911 30.4385 211.641 30.3242 211.266 30.3242C210.973 30.3242 210.713 30.3974 210.484 30.5437C210.265 30.6809 210.013 30.8867 209.73 31.1611V35.8672H208.152ZM215.829 35.8672V26.1807H217.38V32.2313H217.421L219.918 29.1305H221.647L219.342 31.8746L221.88 35.8672H220.165L218.436 32.9448L217.38 34.1522V35.8672H215.829Z" fill="#BABABA"/>
<path d="M37.7317 22.6387C35.1401 22.6387 33.082 24.7729 33.082 27.2883V36.74C33.082 39.3317 35.2163 41.3897 37.7317 41.3897C40.3233 41.3897 42.3813 39.2554 42.3813 36.74V27.2883C42.4575 24.6967 40.3233 22.6387 37.7317 22.6387Z" fill="#BABABA" fill-opacity="0.36"/>
<path d="M37.7316 21.9526C40.4756 21.9526 42.6861 24.0107 42.991 26.6023H48.0218V19.8184H27.4414V26.6023H32.4722C32.7771 24.0107 35.0638 21.9526 37.7316 21.9526Z" fill="#BABABA" fill-opacity="0.36"/>
<path d="M48.707 26.6023H55.6434V23.2484C55.6434 21.3428 54.1189 19.8184 52.2133 19.8184H48.707V26.6023Z" fill="#BABABA" fill-opacity="0.36"/>
<path d="M37.7316 42.0754C34.9875 42.0754 32.7771 40.0174 32.4722 37.4258H27.4414V44.2097H48.098V37.4258H43.0673C42.6861 40.0174 40.4757 42.0754 37.7316 42.0754Z" fill="#BABABA" fill-opacity="0.36"/>
<path d="M55.7195 27.2881H43.0664V36.7398H55.7195V27.2881Z" fill="#BABABA" fill-opacity="0.36"/>
<path d="M26.7547 37.4258H19.8184V40.7796C19.8184 42.6852 21.3428 44.2097 23.2484 44.2097H26.7547V37.4258Z" fill="#BABABA" fill-opacity="0.36"/>
<path d="M48.707 37.4258V44.2097H52.2133C54.1189 44.2097 55.6434 42.6852 55.6434 40.7796V37.4258H48.707Z" fill="#BABABA" fill-opacity="0.36"/>
<path d="M19.8184 36.7398H32.3953V27.2881H19.8184V36.7398Z" fill="#BABABA" fill-opacity="0.36"/>
<path d="M26.7547 26.6023V19.8184H23.2484C21.3428 19.8184 19.8184 21.3428 19.8184 23.2484V26.6023H26.7547Z" fill="#BABABA" fill-opacity="0.36"/>
<path d="M22.3901 104.646C21.8424 104.646 21.3799 104.553 21.0029 104.368C20.6329 104.176 20.3235 103.956 20.0745 103.707L20.6401 102.917C20.8464 103.109 21.0776 103.28 21.3337 103.429C21.5898 103.571 21.8886 103.643 22.2301 103.643C22.6071 103.643 22.9202 103.529 23.1692 103.301C23.4181 103.073 23.5426 102.753 23.5426 102.341C23.5426 101.935 23.4288 101.622 23.2012 101.402C22.9735 101.181 22.6712 101.071 22.2941 101.071C22.0736 101.071 21.8886 101.103 21.7392 101.167C21.5898 101.224 21.4119 101.32 21.2056 101.455L20.6187 101.081L20.8215 97.7306H24.4497V98.7657H21.8886L21.7499 100.409C21.8922 100.338 22.0309 100.285 22.166 100.249C22.3083 100.206 22.4684 100.185 22.6463 100.185C23.0375 100.185 23.3932 100.26 23.7134 100.409C24.0335 100.559 24.2896 100.79 24.4817 101.103C24.6809 101.416 24.7805 101.818 24.7805 102.309C24.7805 102.799 24.6667 103.219 24.439 103.568C24.2185 103.916 23.9268 104.183 23.564 104.368C23.2012 104.553 22.8099 104.646 22.3901 104.646ZM26.0792 104.518V103.514H27.5945V99.0539H26.346V98.2855C26.6803 98.2215 26.972 98.1468 27.221 98.0614C27.47 97.9689 27.7012 97.8587 27.9146 97.7306H28.8324V103.514H30.1663V104.518H26.0792ZM31.5503 104.518V103.514H33.0656V99.0539H31.8171V98.2855C32.1514 98.2215 32.4431 98.1468 32.6921 98.0614C32.9411 97.9689 33.1723 97.8587 33.3858 97.7306H34.3035V103.514H35.6374V104.518H31.5503ZM46.5699 104.518C46.6126 103.714 46.698 102.995 46.826 102.362C46.9541 101.722 47.1497 101.113 47.413 100.537C47.6762 99.9609 48.0248 99.3704 48.4587 98.7657H45.2467V97.7306H49.8033V98.4776C49.4049 98.9685 49.0812 99.438 48.8322 99.8862C48.5904 100.334 48.3983 100.79 48.256 101.252C48.1208 101.707 48.0212 102.202 47.9572 102.735C47.8932 103.262 47.8469 103.856 47.8185 104.518H46.5699ZM53.1082 101.209C52.9161 101.209 52.7133 101.27 52.4999 101.391C52.2865 101.505 52.0837 101.704 51.8917 101.988C51.9557 102.593 52.1015 103.031 52.3292 103.301C52.5568 103.571 52.8343 103.707 53.1615 103.707C53.4461 103.707 53.6844 103.596 53.8765 103.376C54.0757 103.148 54.1753 102.828 54.1753 102.415C54.1753 102.017 54.0793 101.718 53.8872 101.519C53.7022 101.313 53.4426 101.209 53.1082 101.209ZM53.1829 104.646C52.7418 104.646 52.3327 104.528 51.9557 104.293C51.5786 104.059 51.2763 103.696 51.0486 103.205C50.8281 102.714 50.7178 102.088 50.7178 101.327C50.7178 100.445 50.8423 99.7333 51.0913 99.1926C51.3474 98.6448 51.6782 98.2428 52.0837 97.9867C52.4892 97.7306 52.9232 97.6026 53.3856 97.6026C53.7983 97.6026 54.154 97.6773 54.4528 97.8267C54.7516 97.9761 55.0006 98.1575 55.1998 98.3709L54.5381 99.1179C54.4172 98.9685 54.2571 98.8476 54.0579 98.7551C53.8658 98.6555 53.6666 98.6057 53.4603 98.6057C53.1758 98.6057 52.9161 98.6839 52.6813 98.8404C52.4466 98.997 52.2545 99.2602 52.1051 99.6301C51.9628 99.9929 51.881 100.487 51.8596 101.113C52.0588 100.864 52.2936 100.669 52.5639 100.527C52.8343 100.384 53.0904 100.313 53.3323 100.313C53.9228 100.313 54.3994 100.487 54.7622 100.836C55.1322 101.177 55.3171 101.704 55.3171 102.415C55.3171 102.864 55.2175 103.255 55.0183 103.589C54.8263 103.924 54.5702 104.183 54.25 104.368C53.9299 104.553 53.5742 104.646 53.1829 104.646ZM57.2454 100.42L56.7012 100.025L57.3201 98.9792L56.2316 98.499L56.4344 97.8587L57.5976 98.1255L57.7149 96.9196H58.3872L58.5046 98.1255L59.6785 97.8587L59.8812 98.499L58.7821 98.9792L59.401 100.025L58.8568 100.42L58.0564 99.4914L57.2454 100.42ZM61.9245 100.42L61.3803 100.025L61.9992 98.9792L60.9107 98.499L61.1135 97.8587L62.2767 98.1255L62.3941 96.9196H63.0663L63.1837 98.1255L64.3576 97.8587L64.5603 98.499L63.4612 98.9792L64.0801 100.025L63.5359 100.42L62.7355 99.4914L61.9245 100.42ZM75.149 100.42L74.6048 100.025L75.2237 98.9792L74.1353 98.499L74.338 97.8587L75.5012 98.1255L75.6186 96.9196H76.2909L76.4082 98.1255L77.5821 97.8587L77.7848 98.499L76.6857 98.9792L77.3046 100.025L76.7604 100.42L75.96 99.4914L75.149 100.42ZM79.8281 100.42L79.2839 100.025L79.9028 98.9792L78.8144 98.499L79.0171 97.8587L80.1803 98.1255L80.2977 96.9196H80.97L81.0874 98.1255L82.2612 97.8587L82.464 98.499L81.3648 98.9792L81.9837 100.025L81.4395 100.42L80.6392 99.4914L79.8281 100.42ZM84.5073 100.42L83.963 100.025L84.582 98.9792L83.4935 98.499L83.6962 97.8587L84.8594 98.1255L84.9768 96.9196H85.6491L85.7665 98.1255L86.9403 97.8587L87.1431 98.499L86.0439 98.9792L86.6629 100.025L86.1186 100.42L85.3183 99.4914L84.5073 100.42ZM89.1864 100.42L88.6421 100.025L89.2611 98.9792L88.1726 98.499L88.3754 97.8587L89.5385 98.1255L89.6559 96.9196H90.3282L90.4456 98.1255L91.6194 97.8587L91.8222 98.499L90.7231 98.9792L91.342 100.025L90.7978 100.42L89.9974 99.4914L89.1864 100.42ZM101.29 104.518V103.803C101.924 103.191 102.468 102.647 102.923 102.17C103.386 101.686 103.741 101.249 103.99 100.857C104.239 100.459 104.364 100.089 104.364 99.7475C104.364 99.3918 104.268 99.1072 104.076 98.8938C103.884 98.6804 103.606 98.5737 103.243 98.5737C102.98 98.5737 102.738 98.6484 102.518 98.7978C102.304 98.9472 102.105 99.125 101.92 99.3313L101.237 98.6484C101.55 98.314 101.874 98.0579 102.208 97.88C102.543 97.6951 102.941 97.6026 103.403 97.6026C104.058 97.6026 104.577 97.7911 104.961 98.1681C105.353 98.5452 105.548 99.0503 105.548 99.6835C105.548 100.082 105.434 100.491 105.207 100.911C104.986 101.323 104.687 101.747 104.31 102.181C103.94 102.615 103.531 103.07 103.083 103.546C103.261 103.532 103.453 103.518 103.659 103.504C103.866 103.482 104.051 103.472 104.214 103.472H105.879V104.518H101.29ZM109.088 104.646C108.384 104.646 107.822 104.34 107.402 103.728C106.989 103.116 106.783 102.237 106.783 101.092C106.783 99.9467 106.989 99.0788 107.402 98.4883C107.822 97.8978 108.384 97.6026 109.088 97.6026C109.792 97.6026 110.351 97.8978 110.763 98.4883C111.183 99.0788 111.393 99.9467 111.393 101.092C111.393 102.237 111.183 103.116 110.763 103.728C110.351 104.34 109.792 104.646 109.088 104.646ZM109.088 103.685C109.308 103.685 109.504 103.603 109.675 103.44C109.846 103.269 109.977 102.995 110.07 102.618C110.169 102.241 110.219 101.732 110.219 101.092C110.219 100.452 110.169 99.9467 110.07 99.5768C109.977 99.2068 109.846 98.9472 109.675 98.7978C109.504 98.6412 109.308 98.563 109.088 98.563C108.874 98.563 108.682 98.6412 108.512 98.7978C108.341 98.9472 108.206 99.2068 108.106 99.5768C108.007 99.9467 107.957 100.452 107.957 101.092C107.957 101.732 108.007 102.241 108.106 102.618C108.206 102.995 108.341 103.269 108.512 103.44C108.682 103.603 108.874 103.685 109.088 103.685ZM112.233 104.518V103.803C112.866 103.191 113.41 102.647 113.865 102.17C114.328 101.686 114.684 101.249 114.933 100.857C115.182 100.459 115.306 100.089 115.306 99.7475C115.306 99.3918 115.21 99.1072 115.018 98.8938C114.826 98.6804 114.548 98.5737 114.186 98.5737C113.922 98.5737 113.68 98.6484 113.46 98.7978C113.246 98.9472 113.047 99.125 112.862 99.3313L112.179 98.6484C112.492 98.314 112.816 98.0579 113.15 97.88C113.485 97.6951 113.883 97.6026 114.346 97.6026C115 97.6026 115.519 97.7911 115.904 98.1681C116.295 98.5452 116.491 99.0503 116.491 99.6835C116.491 100.082 116.377 100.491 116.149 100.911C115.928 101.323 115.63 101.747 115.253 102.181C114.883 102.615 114.474 103.07 114.025 103.546C114.203 103.532 114.395 103.518 114.602 103.504C114.808 103.482 114.993 103.472 115.157 103.472H116.821V104.518H112.233ZM119.87 104.646C119.322 104.646 118.86 104.553 118.483 104.368C118.113 104.176 117.803 103.956 117.554 103.707L118.12 102.917C118.326 103.109 118.558 103.28 118.814 103.429C119.07 103.571 119.369 103.643 119.71 103.643C120.087 103.643 120.4 103.529 120.649 103.301C120.898 103.073 121.023 102.753 121.023 102.341C121.023 101.935 120.909 101.622 120.681 101.402C120.453 101.181 120.151 101.071 119.774 101.071C119.553 101.071 119.369 101.103 119.219 101.167C119.07 101.224 118.892 101.32 118.686 101.455L118.099 101.081L118.301 97.7306H121.93V98.7657H119.369L119.23 100.409C119.372 100.338 119.511 100.285 119.646 100.249C119.788 100.206 119.948 100.185 120.126 100.185C120.517 100.185 120.873 100.26 121.193 100.409C121.513 100.559 121.77 100.79 121.962 101.103C122.161 101.416 122.26 101.818 122.26 102.309C122.26 102.799 122.147 103.219 121.919 103.568C121.698 103.916 121.407 104.183 121.044 104.368C120.681 104.553 120.29 104.646 119.87 104.646ZM20.608 117.518V116.514H22.1234V112.054H20.8748V111.286C21.2092 111.222 21.5009 111.147 21.7499 111.061C21.9989 110.969 22.2301 110.859 22.4435 110.731H23.3612V116.514H24.6951V117.518H20.608ZM25.4175 119.225L27.904 109.941H28.7363L26.2499 119.225H25.4175ZM29.3633 117.518V116.803C29.9964 116.191 30.5407 115.647 30.996 115.17C31.4584 114.686 31.8141 114.249 32.0631 113.857C32.3121 113.459 32.4366 113.089 32.4366 112.748C32.4366 112.392 32.3406 112.107 32.1485 111.894C31.9564 111.68 31.6789 111.574 31.3161 111.574C31.0529 111.574 30.811 111.648 30.5905 111.798C30.377 111.947 30.1778 112.125 29.9929 112.331L29.3099 111.648C29.6229 111.314 29.9466 111.058 30.281 110.88C30.6154 110.695 31.0138 110.603 31.4762 110.603C32.1307 110.603 32.65 110.791 33.0342 111.168C33.4255 111.545 33.6211 112.05 33.6211 112.683C33.6211 113.082 33.5073 113.491 33.2796 113.911C33.0591 114.323 32.7603 114.747 32.3832 115.181C32.0133 115.615 31.6042 116.07 31.156 116.546C31.3339 116.532 31.526 116.518 31.7323 116.504C31.9386 116.482 32.1236 116.472 32.2872 116.472H33.9519V117.518H29.3633ZM37.1607 117.646C36.4564 117.646 35.8944 117.34 35.4747 116.728C35.062 116.116 34.8557 115.237 34.8557 114.092C34.8557 112.947 35.062 112.079 35.4747 111.488C35.8944 110.898 36.4564 110.603 37.1607 110.603C37.865 110.603 38.4235 110.898 38.8361 111.488C39.2559 112.079 39.4657 112.947 39.4657 114.092C39.4657 115.237 39.2559 116.116 38.8361 116.728C38.4235 117.34 37.865 117.646 37.1607 117.646ZM37.1607 116.685C37.3813 116.685 37.5769 116.603 37.7477 116.44C37.9184 116.269 38.05 115.995 38.1425 115.618C38.2421 115.241 38.2919 114.732 38.2919 114.092C38.2919 113.452 38.2421 112.947 38.1425 112.577C38.05 112.207 37.9184 111.947 37.7477 111.798C37.5769 111.641 37.3813 111.563 37.1607 111.563C36.9473 111.563 36.7552 111.641 36.5845 111.798C36.4137 111.947 36.2786 112.207 36.179 112.577C36.0794 112.947 36.0296 113.452 36.0296 114.092C36.0296 114.732 36.0794 115.241 36.179 115.618C36.2786 115.995 36.4137 116.269 36.5845 116.44C36.7552 116.603 36.9473 116.685 37.1607 116.685ZM40.3055 117.518V116.803C40.9387 116.191 41.4829 115.647 41.9382 115.17C42.4007 114.686 42.7564 114.249 43.0054 113.857C43.2544 113.459 43.3789 113.089 43.3789 112.748C43.3789 112.392 43.2828 112.107 43.0907 111.894C42.8987 111.68 42.6212 111.574 42.2584 111.574C41.9952 111.574 41.7533 111.648 41.5327 111.798C41.3193 111.947 41.1201 112.125 40.9351 112.331L40.2522 111.648C40.5652 111.314 40.8889 111.058 41.2233 110.88C41.5576 110.695 41.956 110.603 42.4184 110.603C43.073 110.603 43.5923 110.791 43.9765 111.168C44.3677 111.545 44.5634 112.05 44.5634 112.683C44.5634 113.082 44.4496 113.491 44.2219 113.911C44.0014 114.323 43.7026 114.747 43.3255 115.181C42.9556 115.615 42.5465 116.07 42.0983 116.546C42.2762 116.532 42.4682 116.518 42.6746 116.504C42.8809 116.482 43.0658 116.472 43.2295 116.472H44.8942V117.518H40.3055ZM46.7798 114.818H48.5619V113.281C48.5619 113.082 48.569 112.847 48.5832 112.577C48.5974 112.306 48.6081 112.072 48.6152 111.872H48.5725C48.4872 112.05 48.3982 112.225 48.3058 112.395C48.2133 112.566 48.1172 112.744 48.0176 112.929L46.7798 114.818ZM48.5619 117.518V115.767H45.5632V114.935L48.2524 110.731H49.7144V114.818H50.5681V115.767H49.7144V117.518H48.5619Z" fill="#BABABA"/>
<g clip-path="url(#clip0_1297_34933)">
<path d="M223.339 121.549V121.624H223.409C223.424 121.624 223.438 121.62 223.447 121.614C223.456 121.609 223.461 121.598 223.461 121.586C223.461 121.573 223.456 121.564 223.447 121.558C223.438 121.551 223.424 121.549 223.409 121.549H223.339ZM223.41 121.496C223.446 121.496 223.473 121.504 223.493 121.52C223.513 121.536 223.523 121.558 223.523 121.586C223.523 121.609 223.515 121.628 223.499 121.644C223.484 121.658 223.462 121.668 223.432 121.671L223.525 121.778H223.453L223.367 121.672H223.339V121.778H223.279V121.496H223.41ZM223.391 121.875C223.424 121.875 223.455 121.868 223.483 121.856C223.512 121.843 223.537 121.827 223.558 121.805C223.579 121.784 223.596 121.759 223.609 121.73C223.62 121.701 223.627 121.671 223.627 121.638C223.627 121.605 223.62 121.574 223.609 121.546C223.596 121.517 223.579 121.491 223.558 121.47C223.537 121.449 223.512 121.432 223.483 121.42C223.455 121.408 223.424 121.402 223.391 121.402C223.358 121.402 223.327 121.408 223.298 121.42C223.269 121.432 223.243 121.449 223.222 121.47C223.2 121.491 223.184 121.517 223.172 121.546C223.159 121.574 223.154 121.605 223.154 121.638C223.154 121.671 223.159 121.701 223.172 121.73C223.184 121.759 223.2 121.784 223.222 121.805C223.243 121.827 223.269 121.843 223.298 121.856C223.327 121.868 223.358 121.875 223.391 121.875ZM223.391 121.334C223.435 121.334 223.474 121.342 223.512 121.358C223.55 121.374 223.582 121.396 223.611 121.423C223.639 121.451 223.661 121.483 223.677 121.52C223.693 121.557 223.701 121.596 223.701 121.638C223.701 121.679 223.693 121.719 223.677 121.756C223.661 121.792 223.639 121.824 223.611 121.852C223.582 121.879 223.55 121.901 223.512 121.917C223.474 121.933 223.435 121.941 223.391 121.941C223.347 121.941 223.307 121.933 223.269 121.917C223.231 121.901 223.198 121.879 223.17 121.852C223.142 121.824 223.12 121.792 223.104 121.756C223.087 121.719 223.079 121.679 223.079 121.638C223.079 121.596 223.087 121.557 223.104 121.52C223.12 121.483 223.142 121.451 223.17 121.423C223.198 121.396 223.231 121.374 223.269 121.358C223.307 121.342 223.347 121.334 223.391 121.334ZM194.8 120.249C194.8 119.712 195.153 119.271 195.73 119.271C196.281 119.271 196.653 119.693 196.653 120.249C196.653 120.805 196.281 121.227 195.73 121.227C195.153 121.227 194.8 120.786 194.8 120.249ZM197.281 120.249V118.722H196.615V119.093C196.403 118.817 196.083 118.645 195.647 118.645C194.787 118.645 194.114 119.316 194.114 120.249C194.114 121.183 194.787 121.854 195.647 121.854C196.083 121.854 196.403 121.681 196.615 121.406V121.777H197.281V120.249ZM219.798 120.249C219.798 119.712 220.151 119.271 220.728 119.271C221.28 119.271 221.651 119.693 221.651 120.249C221.651 120.805 221.28 121.227 220.728 121.227C220.151 121.227 219.798 120.786 219.798 120.249ZM222.28 120.249V117.495H221.613V119.093C221.402 118.817 221.081 118.645 220.645 118.645C219.786 118.645 219.112 119.316 219.112 120.249C219.112 121.183 219.786 121.854 220.645 121.854C221.081 121.854 221.402 121.681 221.613 121.406V121.777H222.28V120.249ZM205.552 119.24C205.981 119.24 206.257 119.508 206.328 119.981H204.738C204.809 119.54 205.077 119.24 205.552 119.24ZM205.565 118.645C204.667 118.645 204.039 119.297 204.039 120.249C204.039 121.221 204.693 121.854 205.61 121.854C206.072 121.854 206.494 121.739 206.866 121.426L206.54 120.933C206.283 121.137 205.956 121.253 205.648 121.253C205.219 121.253 204.828 121.055 204.732 120.505H207.007C207.014 120.422 207.021 120.338 207.021 120.249C207.014 119.297 206.424 118.645 205.565 118.645ZM213.611 120.249C213.611 119.712 213.964 119.271 214.541 119.271C215.092 119.271 215.464 119.693 215.464 120.249C215.464 120.805 215.092 121.227 214.541 121.227C213.964 121.227 213.611 120.786 213.611 120.249ZM216.092 120.249V118.722H215.426V119.093C215.214 118.817 214.894 118.645 214.458 118.645C213.599 118.645 212.925 119.316 212.925 120.249C212.925 121.183 213.599 121.854 214.458 121.854C214.894 121.854 215.214 121.681 215.426 121.406V121.777H216.092V120.249ZM209.848 120.249C209.848 121.176 210.495 121.854 211.483 121.854C211.945 121.854 212.252 121.751 212.585 121.489L212.265 120.952C212.015 121.132 211.752 121.227 211.463 121.227C210.931 121.221 210.54 120.837 210.54 120.249C210.54 119.661 210.931 119.278 211.463 119.271C211.752 119.271 212.015 119.367 212.265 119.546L212.585 119.009C212.252 118.747 211.945 118.645 211.483 118.645C210.495 118.645 209.848 119.322 209.848 120.249ZM218.439 118.645C218.055 118.645 217.804 118.824 217.631 119.093V118.722H216.971V121.777H217.638V120.064C217.638 119.559 217.856 119.278 218.292 119.278C218.427 119.278 218.568 119.297 218.709 119.354L218.914 118.728C218.767 118.67 218.574 118.645 218.439 118.645ZM200.577 118.965C200.256 118.754 199.814 118.645 199.327 118.645C198.55 118.645 198.051 119.016 198.051 119.623C198.051 120.121 198.423 120.428 199.108 120.524L199.423 120.569C199.788 120.62 199.961 120.716 199.961 120.889C199.961 121.125 199.717 121.26 199.262 121.26C198.801 121.26 198.468 121.113 198.243 120.94L197.929 121.457C198.294 121.726 198.756 121.854 199.256 121.854C200.141 121.854 200.654 121.438 200.654 120.856C200.654 120.319 200.25 120.039 199.583 119.943L199.269 119.897C198.981 119.859 198.749 119.802 198.749 119.597C198.749 119.374 198.967 119.24 199.333 119.24C199.724 119.24 200.103 119.387 200.288 119.502L200.577 118.965ZM209.174 118.645C208.79 118.645 208.54 118.824 208.367 119.093V118.722H207.707V121.777H208.373V120.064C208.373 119.559 208.591 119.278 209.027 119.278C209.162 119.278 209.303 119.297 209.444 119.354L209.649 118.728C209.502 118.67 209.309 118.645 209.174 118.645ZM203.488 118.722H202.398V117.795H201.724V118.722H201.103V119.329H201.724V120.723C201.724 121.431 202 121.854 202.788 121.854C203.078 121.854 203.411 121.764 203.622 121.617L203.43 121.048C203.231 121.163 203.013 121.221 202.84 121.221C202.507 121.221 202.398 121.016 202.398 120.709V119.329H203.488V118.722ZM193.524 121.777V119.859C193.524 119.137 193.063 118.651 192.319 118.645C191.927 118.638 191.524 118.76 191.241 119.188C191.03 118.85 190.697 118.645 190.229 118.645C189.901 118.645 189.581 118.741 189.331 119.098V118.722H188.664V121.777H189.337V120.083C189.337 119.553 189.632 119.271 190.088 119.271C190.53 119.271 190.754 119.559 190.754 120.077V121.777H191.428V120.083C191.428 119.553 191.735 119.271 192.178 119.271C192.633 119.271 192.851 119.559 192.851 120.077V121.777H193.524Z" fill="black"/>
<path d="M223.549 117.066V116.62H223.432L223.297 116.927L223.163 116.62H223.045V117.066H223.128V116.73L223.254 117.02H223.34L223.466 116.729V117.066H223.549ZM222.808 117.066V116.696H222.958V116.621H222.576V116.696H222.726V117.066H222.808Z" fill="black"/>
<path d="M210.482 113.536H200.383V95.4424H210.482V113.536Z" fill="#FF5A00"/>
<path d="M201.03 104.489C201.03 100.818 202.754 97.5489 205.438 95.4419C203.475 93.9012 200.997 92.9816 198.305 92.9816C191.931 92.9816 186.764 98.1335 186.764 104.489C186.764 110.844 191.931 115.996 198.305 115.996C200.997 115.996 203.475 115.076 205.438 113.536C202.754 111.429 201.03 108.159 201.03 104.489Z" fill="#EB001B"/>
<path d="M224.103 104.489C224.103 110.844 218.936 115.996 212.561 115.996C209.869 115.996 207.392 115.076 205.428 113.536C208.113 111.429 209.837 108.159 209.837 104.489C209.837 100.818 208.113 97.5489 205.428 95.4419C207.392 93.9012 209.869 92.9816 212.561 92.9816C218.936 92.9816 224.103 98.1335 224.103 104.489Z" fill="#F79E1B"/>
</g>
<defs>
<linearGradient id="paint0_linear_1297_34933" x1="-44.2588" y1="239.012" x2="310.504" y2="111.838" gradientUnits="userSpaceOnUse">
<stop stop-color="#F05835"/>
<stop offset="1" stop-color="#FF9E80"/>
</linearGradient>
<linearGradient id="paint1_linear_1297_34933" x1="-10.9879" y1="86.2534" x2="67.0876" y2="85.3782" gradientUnits="userSpaceOnUse">
<stop stop-color="white" stop-opacity="0"/>
<stop offset="1" stop-color="#F7EBEB"/>
</linearGradient>
<linearGradient id="paint2_linear_1297_34933" x1="105.575" y1="161.834" x2="148.99" y2="-57.3368" gradientUnits="userSpaceOnUse">
<stop stop-color="white" stop-opacity="0"/>
<stop offset="1" stop-color="#F7EBEB"/>
</linearGradient>
<linearGradient id="paint3_linear_1297_34933" x1="-22.2412" y1="113.674" x2="251.256" y2="113.674" gradientUnits="userSpaceOnUse">
<stop stop-color="white" stop-opacity="0"/>
<stop offset="1" stop-color="#F7EBEB"/>
</linearGradient>
<linearGradient id="paint4_linear_1297_34933" x1="79.3389" y1="159.801" x2="201.879" y2="-46.766" gradientUnits="userSpaceOnUse">
<stop stop-color="white" stop-opacity="0"/>
<stop offset="1" stop-color="#F7EBEB"/>
</linearGradient>
<linearGradient id="paint5_linear_1297_34933" x1="-24.2351" y1="86.2564" x2="248.976" y2="86.2564" gradientUnits="userSpaceOnUse">
<stop stop-color="white" stop-opacity="0"/>
<stop offset="1" stop-color="#F7EBEB"/>
</linearGradient>
<linearGradient id="paint6_linear_1297_34933" x1="203.243" y1="125.637" x2="180.135" y2="31.8063" gradientUnits="userSpaceOnUse">
<stop stop-color="white" stop-opacity="0"/>
<stop offset="1" stop-color="#F7EBEB"/>
</linearGradient>
<linearGradient id="paint7_linear_1297_34933" x1="153.509" y1="123.25" x2="256.785" y2="123.25" gradientUnits="userSpaceOnUse">
<stop stop-color="white" stop-opacity="0"/>
<stop offset="1" stop-color="#F7EBEB"/>
</linearGradient>
<linearGradient id="paint8_linear_1297_34933" x1="68.6294" y1="168.123" x2="181.933" y2="65.5451" gradientUnits="userSpaceOnUse">
<stop stop-color="white" stop-opacity="0"/>
<stop offset="1" stop-color="#F7EBEB"/>
</linearGradient>
<linearGradient id="paint9_linear_1297_34933" x1="67.7732" y1="167.554" x2="180.326" y2="65.6552" gradientUnits="userSpaceOnUse">
<stop stop-color="white" stop-opacity="0"/>
<stop offset="1" stop-color="#F7EBEB"/>
</linearGradient>
<linearGradient id="paint10_linear_1297_34933" x1="66.906" y1="166.998" x2="178.721" y2="65.7666" gradientUnits="userSpaceOnUse">
<stop stop-color="white" stop-opacity="0"/>
<stop offset="1" stop-color="#F7EBEB"/>
</linearGradient>
<linearGradient id="paint11_linear_1297_34933" x1="66.0346" y1="166.445" x2="177.553" y2="65.4826" gradientUnits="userSpaceOnUse">
<stop stop-color="white" stop-opacity="0"/>
<stop offset="1" stop-color="#F7EBEB"/>
</linearGradient>
<linearGradient id="paint12_linear_1297_34933" x1="65.1554" y1="165.898" x2="177.643" y2="64.0582" gradientUnits="userSpaceOnUse">
<stop stop-color="white" stop-opacity="0"/>
<stop offset="1" stop-color="#F7EBEB"/>
</linearGradient>
<linearGradient id="paint13_linear_1297_34933" x1="64.2681" y1="165.358" x2="177.732" y2="62.6349" gradientUnits="userSpaceOnUse">
<stop stop-color="white" stop-opacity="0"/>
<stop offset="1" stop-color="#F7EBEB"/>
</linearGradient>
<linearGradient id="paint14_linear_1297_34933" x1="63.3743" y1="164.825" x2="177.823" y2="61.2105" gradientUnits="userSpaceOnUse">
<stop stop-color="white" stop-opacity="0"/>
<stop offset="1" stop-color="#F7EBEB"/>
</linearGradient>
<linearGradient id="paint15_linear_1297_34933" x1="62.4712" y1="164.301" x2="177.912" y2="59.7872" gradientUnits="userSpaceOnUse">
<stop stop-color="white" stop-opacity="0"/>
<stop offset="1" stop-color="#F7EBEB"/>
</linearGradient>
<linearGradient id="paint16_linear_1297_34933" x1="61.5589" y1="163.783" x2="178.002" y2="58.3627" gradientUnits="userSpaceOnUse">
<stop stop-color="white" stop-opacity="0"/>
<stop offset="1" stop-color="#F7EBEB"/>
</linearGradient>
<linearGradient id="paint17_linear_1297_34933" x1="60.6393" y1="163.274" x2="178.092" y2="56.9393" gradientUnits="userSpaceOnUse">
<stop stop-color="white" stop-opacity="0"/>
<stop offset="1" stop-color="#F7EBEB"/>
</linearGradient>
<linearGradient id="paint18_linear_1297_34933" x1="59.7077" y1="162.774" x2="178.18" y2="55.516" gradientUnits="userSpaceOnUse">
<stop stop-color="white" stop-opacity="0"/>
<stop offset="1" stop-color="#F7EBEB"/>
</linearGradient>
<linearGradient id="paint19_linear_1297_34933" x1="58.7686" y1="162.281" x2="178.27" y2="54.0915" gradientUnits="userSpaceOnUse">
<stop stop-color="white" stop-opacity="0"/>
<stop offset="1" stop-color="#F7EBEB"/>
</linearGradient>
<linearGradient id="paint20_linear_1297_34933" x1="57.8202" y1="161.797" x2="178.36" y2="52.6672" gradientUnits="userSpaceOnUse">
<stop stop-color="white" stop-opacity="0"/>
<stop offset="1" stop-color="#F7EBEB"/>
</linearGradient>
<linearGradient id="paint21_linear_1297_34933" x1="56.862" y1="161.324" x2="178.451" y2="51.2447" gradientUnits="userSpaceOnUse">
<stop stop-color="white" stop-opacity="0"/>
<stop offset="1" stop-color="#F7EBEB"/>
</linearGradient>
<linearGradient id="paint22_linear_1297_34933" x1="55.8927" y1="160.858" x2="178.54" y2="49.8202" gradientUnits="userSpaceOnUse">
<stop stop-color="white" stop-opacity="0"/>
<stop offset="1" stop-color="#F7EBEB"/>
</linearGradient>
<linearGradient id="paint23_linear_1297_34933" x1="54.9123" y1="160.402" x2="178.628" y2="48.3969" gradientUnits="userSpaceOnUse">
<stop stop-color="white" stop-opacity="0"/>
<stop offset="1" stop-color="#F7EBEB"/>
</linearGradient>
<linearGradient id="paint24_linear_1297_34933" x1="53.9251" y1="159.955" x2="178.72" y2="46.9733" gradientUnits="userSpaceOnUse">
<stop stop-color="white" stop-opacity="0"/>
<stop offset="1" stop-color="#F7EBEB"/>
</linearGradient>
<linearGradient id="paint25_linear_1297_34933" x1="52.9242" y1="159.517" x2="178.808" y2="45.5491" gradientUnits="userSpaceOnUse">
<stop stop-color="white" stop-opacity="0"/>
<stop offset="1" stop-color="#F7EBEB"/>
</linearGradient>
<linearGradient id="paint26_linear_1297_34933" x1="51.916" y1="159.088" x2="178.899" y2="44.1255" gradientUnits="userSpaceOnUse">
<stop stop-color="white" stop-opacity="0"/>
<stop offset="1" stop-color="#F7EBEB"/>
</linearGradient>
<linearGradient id="paint27_linear_1297_34933" x1="50.8954" y1="158.668" x2="178.987" y2="42.701" gradientUnits="userSpaceOnUse">
<stop stop-color="white" stop-opacity="0"/>
<stop offset="1" stop-color="#F7EBEB"/>
</linearGradient>
<linearGradient id="paint28_linear_1297_34933" x1="49.8676" y1="158.257" x2="179.078" y2="41.2777" gradientUnits="userSpaceOnUse">
<stop stop-color="white" stop-opacity="0"/>
<stop offset="1" stop-color="#F7EBEB"/>
</linearGradient>
<linearGradient id="paint29_linear_1297_34933" x1="48.8286" y1="157.855" x2="179.168" y2="39.8534" gradientUnits="userSpaceOnUse">
<stop stop-color="white" stop-opacity="0"/>
<stop offset="1" stop-color="#F7EBEB"/>
</linearGradient>
<linearGradient id="paint30_linear_1297_34933" x1="47.7794" y1="157.46" x2="179.256" y2="38.4284" gradientUnits="userSpaceOnUse">
<stop stop-color="white" stop-opacity="0"/>
<stop offset="1" stop-color="#F7EBEB"/>
</linearGradient>
<linearGradient id="paint31_linear_1297_34933" x1="46.7206" y1="157.074" x2="179.344" y2="37.0042" gradientUnits="userSpaceOnUse">
<stop stop-color="white" stop-opacity="0"/>
<stop offset="1" stop-color="#F7EBEB"/>
</linearGradient>
<linearGradient id="paint32_linear_1297_34933" x1="45.6548" y1="156.696" x2="179.434" y2="35.5809" gradientUnits="userSpaceOnUse">
<stop stop-color="white" stop-opacity="0"/>
<stop offset="1" stop-color="#F7EBEB"/>
</linearGradient>
<linearGradient id="paint33_linear_1297_34933" x1="44.5799" y1="156.324" x2="179.522" y2="34.1559" gradientUnits="userSpaceOnUse">
<stop stop-color="white" stop-opacity="0"/>
<stop offset="1" stop-color="#F7EBEB"/>
</linearGradient>
<linearGradient id="paint34_linear_1297_34933" x1="43.4975" y1="155.96" x2="179.611" y2="32.7307" gradientUnits="userSpaceOnUse">
<stop stop-color="white" stop-opacity="0"/>
<stop offset="1" stop-color="#F7EBEB"/>
</linearGradient>
<linearGradient id="paint35_linear_1297_34933" x1="42.4086" y1="155.603" x2="179.7" y2="31.3075" gradientUnits="userSpaceOnUse">
<stop stop-color="white" stop-opacity="0"/>
<stop offset="1" stop-color="#F7EBEB"/>
</linearGradient>
<linearGradient id="paint36_linear_1297_34933" x1="41.312" y1="155.252" x2="179.79" y2="29.8824" gradientUnits="userSpaceOnUse">
<stop stop-color="white" stop-opacity="0"/>
<stop offset="1" stop-color="#F7EBEB"/>
</linearGradient>
<linearGradient id="paint37_linear_1297_34933" x1="40.2067" y1="154.906" x2="179.877" y2="28.4573" gradientUnits="userSpaceOnUse">
<stop stop-color="white" stop-opacity="0"/>
<stop offset="1" stop-color="#F7EBEB"/>
</linearGradient>
<linearGradient id="paint38_linear_1297_34933" x1="39.0977" y1="154.568" x2="179.967" y2="27.0333" gradientUnits="userSpaceOnUse">
<stop stop-color="white" stop-opacity="0"/>
<stop offset="1" stop-color="#F7EBEB"/>
</linearGradient>
<linearGradient id="paint39_linear_1297_34933" x1="37.9799" y1="154.235" x2="180.055" y2="25.6091" gradientUnits="userSpaceOnUse">
<stop stop-color="white" stop-opacity="0"/>
<stop offset="1" stop-color="#F7EBEB"/>
</linearGradient>
<linearGradient id="paint40_linear_1297_34933" x1="36.8592" y1="153.907" x2="180.145" y2="24.1849" gradientUnits="userSpaceOnUse">
<stop stop-color="white" stop-opacity="0"/>
<stop offset="1" stop-color="#F7EBEB"/>
</linearGradient>
<linearGradient id="paint41_linear_1297_34933" x1="35.7305" y1="153.584" x2="180.233" y2="22.76" gradientUnits="userSpaceOnUse">
<stop stop-color="white" stop-opacity="0"/>
<stop offset="1" stop-color="#F7EBEB"/>
</linearGradient>
<linearGradient id="paint42_linear_1297_34933" x1="34.5978" y1="153.266" x2="180.322" y2="21.3358" gradientUnits="userSpaceOnUse">
<stop stop-color="white" stop-opacity="0"/>
<stop offset="1" stop-color="#F7EBEB"/>
</linearGradient>
<linearGradient id="paint43_linear_1297_34933" x1="33.4602" y1="152.953" x2="180.411" y2="19.9118" gradientUnits="userSpaceOnUse">
<stop stop-color="white" stop-opacity="0"/>
<stop offset="1" stop-color="#F7EBEB"/>
</linearGradient>
<linearGradient id="paint44_linear_1297_34933" x1="32.3173" y1="152.642" x2="180.5" y2="18.4867" gradientUnits="userSpaceOnUse">
<stop stop-color="white" stop-opacity="0"/>
<stop offset="1" stop-color="#F7EBEB"/>
</linearGradient>
<clipPath id="clip0_1297_34933">
<rect width="37.3496" height="28.965" fill="white" transform="translate(186.748 92.9932)"/>
</clipPath>
</defs>
</svg>
