<svg width="64" height="64" viewBox="0 0 64 64" fill="none" xmlns="http://www.w3.org/2000/svg">
<g clip-path="url(#clip0_1221_17103)">
<path d="M32 0C14.3271 0 0 14.3271 0 32C0 49.6729 14.3271 64 32 64C49.6729 64 64 49.6729 64 32C63.9802 14.3354 49.6646 0.0197917 32 0ZM32 61.8667C15.5052 61.8667 2.13333 48.4948 2.13333 32C2.13333 15.5052 15.5052 2.13333 32 2.13333C48.4948 2.13333 61.8667 15.5052 61.8667 32C61.8479 48.487 48.487 61.8479 32 61.8667ZM46.0234 35.9021L36.9698 34.3021C36.5115 34.2214 36.0542 34.4464 35.8391 34.8589L33.6438 39.0656C29.7594 37.3453 26.6552 34.2396 24.9365 30.3542L29.1391 28.1589C29.5516 27.9438 29.7766 27.4865 29.6958 27.0281L28.0958 17.9755C28.0458 17.6906 27.8823 17.4385 27.6427 17.2766C25.3536 15.7328 22.3995 15.5776 19.9615 16.8734C17.5234 18.1698 16 20.7057 16 23.4667C16.0151 37.0099 26.9901 47.9849 40.5333 48C43.2948 47.9995 45.8307 46.475 47.1266 44.0365C48.4219 41.5974 48.2656 38.6427 46.7198 36.3542C46.5583 36.1156 46.3073 35.9521 46.0234 35.9021ZM40.5333 45.8667C28.1682 45.8526 18.1474 35.8318 18.1333 23.4667C18.1328 21.5719 19.138 19.8193 20.7734 18.862C22.4089 17.9052 24.4297 17.888 26.0813 18.8172L27.4604 26.6313L23.087 28.9141C22.6078 29.1641 22.3911 29.7323 22.5823 30.238C24.5323 35.3964 28.6031 39.4698 33.7609 41.4219C34.2667 41.613 34.8349 41.3964 35.0849 40.9172L37.3688 36.5438L45.1828 37.9234C46.1099 39.5745 46.0911 41.5932 45.1349 43.2276C44.1781 44.8615 42.4271 45.8661 40.5333 45.8667Z" fill="url(#paint0_linear_1221_17103)"/>
</g>
<defs>
<linearGradient id="paint0_linear_1221_17103" x1="28.4445" y1="-1.08" x2="28.4445" y2="61.8231" gradientUnits="userSpaceOnUse">
<stop stop-color="#FFA6D2"/>
<stop offset="1" stop-color="#E11A7D"/>
</linearGradient>
<clipPath id="clip0_1221_17103">
<rect width="64" height="64" fill="white"/>
</clipPath>
</defs>
</svg>
