<svg width="9" height="15" viewBox="0 0 9 15" fill="none" xmlns="http://www.w3.org/2000/svg">
<path d="M8.72224 6.98888L2.66241 0.758813C2.52225 0.614603 2.33515 0.535156 2.13566 0.535156C1.93616 0.535156 1.74906 0.614603 1.60891 0.758813L1.16264 1.21751C0.872253 1.5164 0.872253 2.00219 1.16264 2.30062L6.25123 7.53225L1.15699 12.7697C1.01684 12.9139 0.939453 13.1061 0.939453 13.3111C0.939453 13.5164 1.01684 13.7086 1.15699 13.8529L1.60326 14.3115C1.74353 14.4557 1.93051 14.5352 2.13001 14.5352C2.32951 14.5352 2.5166 14.4557 2.65676 14.3115L8.72224 8.07575C8.86273 7.93108 8.93989 7.73793 8.93945 7.5326C8.93989 7.32647 8.86273 7.13343 8.72224 6.98888Z" fill="#686777"/>
</svg>
