<svg width="74" height="70" viewBox="0 0 74 70" fill="none" xmlns="http://www.w3.org/2000/svg">
<g clip-path="url(#clip0_1428_3429)">
<path d="M1 34.8594C1 31.1538 5.42072 28.1633 6.46089 24.7827C7.56607 21.3372 5.81078 16.3314 7.95613 13.4059C10.1015 10.4804 15.3673 10.6104 18.2928 8.5301C21.2183 6.44976 22.6485 1.31392 26.1591 0.208738C29.4746 -0.831432 33.7003 2.35409 37.4059 2.35409C41.1115 2.35409 45.3372 -0.831432 48.6528 0.208738C52.0983 1.31392 53.5936 6.44976 56.5191 8.5301C59.4445 10.6754 64.7104 10.4804 66.8557 13.4059C68.9361 16.3314 67.1808 21.2722 68.351 24.7827C69.4562 28.1633 73.8119 31.0888 73.8119 34.8594C73.8119 38.565 69.3912 41.5555 68.351 44.936C67.2458 48.3816 69.0011 53.3874 66.8557 56.3129C64.7104 59.1734 59.4445 59.0433 56.5191 61.1887C53.5936 63.269 52.1633 68.4049 48.6528 69.51C45.2722 70.6152 41.1115 67.3647 37.4059 67.3647C33.7003 67.3647 29.4746 70.5502 26.1591 69.51C22.7135 68.4049 21.2183 63.269 18.2928 61.1887C15.3673 59.0433 10.1015 59.2384 7.95613 56.3129C5.8758 53.3874 7.63108 48.4466 6.46089 44.936C5.42072 41.5555 1 38.565 1 34.8594Z" fill="url(#paint0_linear_1428_3429)"/>
<g filter="url(#filter0_d_1428_3429)">
<path d="M18.5871 31V28.825L22.3821 25.315C22.6221 25.085 22.7971 24.885 22.9071 24.715C23.0271 24.545 23.1071 24.395 23.1471 24.265C23.1871 24.125 23.2071 23.995 23.2071 23.875C23.2071 23.615 23.1221 23.415 22.9521 23.275C22.7821 23.125 22.5271 23.05 22.1871 23.05C21.8771 23.05 21.5821 23.135 21.3021 23.305C21.0221 23.465 20.8021 23.705 20.6421 24.025L17.9721 22.69C18.3521 21.97 18.9221 21.385 19.6821 20.935C20.4421 20.485 21.3871 20.26 22.5171 20.26C23.3471 20.26 24.0821 20.395 24.7221 20.665C25.3621 20.935 25.8621 21.315 26.2221 21.805C26.5821 22.295 26.7621 22.875 26.7621 23.545C26.7621 23.885 26.7171 24.225 26.6271 24.565C26.5471 24.905 26.3771 25.265 26.1171 25.645C25.8571 26.015 25.4721 26.43 24.9621 26.89L22.1121 29.485L21.5571 28.255H27.0021V31H18.5871ZM33.3051 31L37.8951 20.5H41.3751L45.9651 31H42.3051L38.9151 22.18H40.2951L36.9051 31H33.3051ZM36.0351 29.17L36.9351 26.62H41.7651L42.6651 29.17H36.0351ZM47.4301 31V20.5H50.9701V28.255H55.7101V31H47.4301ZM14.0916 49V39.73L15.6066 41.17H12.2916V38.5H17.6316V49H14.0916ZM31.1432 49.24C30.2932 49.24 29.5032 49.105 28.7732 48.835C28.0532 48.565 27.4282 48.185 26.8982 47.695C26.3682 47.195 25.9532 46.61 25.6532 45.94C25.3632 45.27 25.2182 44.54 25.2182 43.75C25.2182 42.95 25.3632 42.22 25.6532 41.56C25.9532 40.89 26.3682 40.31 26.8982 39.82C27.4282 39.32 28.0532 38.935 28.7732 38.665C29.5032 38.395 30.2932 38.26 31.1432 38.26C32.0032 38.26 32.7932 38.395 33.5132 38.665C34.2332 38.935 34.8582 39.32 35.3882 39.82C35.9182 40.31 36.3282 40.89 36.6182 41.56C36.9182 42.22 37.0682 42.95 37.0682 43.75C37.0682 44.54 36.9182 45.27 36.6182 45.94C36.3282 46.61 35.9182 47.195 35.3882 47.695C34.8582 48.185 34.2332 48.565 33.5132 48.835C32.7932 49.105 32.0032 49.24 31.1432 49.24ZM31.1432 46.375C31.4732 46.375 31.7782 46.315 32.0582 46.195C32.3482 46.075 32.5982 45.905 32.8082 45.685C33.0282 45.455 33.1982 45.18 33.3182 44.86C33.4382 44.53 33.4982 44.16 33.4982 43.75C33.4982 43.34 33.4382 42.975 33.3182 42.655C33.1982 42.325 33.0282 42.05 32.8082 41.83C32.5982 41.6 32.3482 41.425 32.0582 41.305C31.7782 41.185 31.4732 41.125 31.1432 41.125C30.8132 41.125 30.5032 41.185 30.2132 41.305C29.9332 41.425 29.6832 41.6 29.4632 41.83C29.2532 42.05 29.0882 42.325 28.9682 42.655C28.8482 42.975 28.7882 43.34 28.7882 43.75C28.7882 44.16 28.8482 44.53 28.9682 44.86C29.0882 45.18 29.2532 45.455 29.4632 45.685C29.6832 45.905 29.9332 46.075 30.2132 46.195C30.5032 46.315 30.8132 46.375 31.1432 46.375ZM32.8082 37.765C32.4282 37.765 32.1082 37.645 31.8482 37.405C31.5882 37.165 31.4582 36.845 31.4582 36.445C31.4582 36.045 31.5882 35.725 31.8482 35.485C32.1082 35.235 32.4282 35.11 32.8082 35.11C33.1882 35.11 33.5082 35.235 33.7682 35.485C34.0282 35.725 34.1582 36.045 34.1582 36.445C34.1582 36.845 34.0282 37.165 33.7682 37.405C33.5082 37.645 33.1882 37.765 32.8082 37.765ZM29.4782 37.765C29.0982 37.765 28.7782 37.645 28.5182 37.405C28.2582 37.165 28.1282 36.845 28.1282 36.445C28.1282 36.045 28.2582 35.725 28.5182 35.485C28.7782 35.235 29.0982 35.11 29.4782 35.11C29.8582 35.11 30.1782 35.235 30.4382 35.485C30.6982 35.725 30.8282 36.045 30.8282 36.445C30.8282 36.845 30.6982 37.165 30.4382 37.405C30.1782 37.645 29.8582 37.765 29.4782 37.765ZM39.253 49V38.5H44.428C45.598 38.5 46.628 38.715 47.518 39.145C48.408 39.565 49.103 40.165 49.603 40.945C50.103 41.725 50.353 42.655 50.353 43.735C50.353 44.825 50.103 45.765 49.603 46.555C49.103 47.335 48.408 47.94 47.518 48.37C46.628 48.79 45.598 49 44.428 49H39.253ZM42.793 46.24H44.278C44.778 46.24 45.213 46.145 45.583 45.955C45.963 45.765 46.258 45.485 46.468 45.115C46.678 44.735 46.783 44.275 46.783 43.735C46.783 43.205 46.678 42.755 46.468 42.385C46.258 42.015 45.963 41.735 45.583 41.545C45.213 41.355 44.778 41.26 44.278 41.26H42.793V46.24ZM55.7856 42.4H60.4656V44.95H55.7856V42.4ZM56.0256 46.33H61.2756V49H52.5456V38.5H61.0806V41.17H56.0256V46.33Z" fill="white"/>
</g>
</g>
<defs>
<filter id="filter0_d_1428_3429" x="8.58314" y="20.2598" width="56.4011" height="36.3982" filterUnits="userSpaceOnUse" color-interpolation-filters="sRGB">
<feFlood flood-opacity="0" result="BackgroundImageFix"/>
<feColorMatrix in="SourceAlpha" type="matrix" values="0 0 0 0 0 0 0 0 0 0 0 0 0 0 0 0 0 0 127 0" result="hardAlpha"/>
<feOffset dy="3.70886"/>
<feGaussianBlur stdDeviation="1.85443"/>
<feComposite in2="hardAlpha" operator="out"/>
<feColorMatrix type="matrix" values="0 0 0 0 0 0 0 0 0 0 0 0 0 0 0 0 0 0 0.25 0"/>
<feBlend mode="normal" in2="BackgroundImageFix" result="effect1_dropShadow_1428_3429"/>
<feBlend mode="normal" in="SourceGraphic" in2="effect1_dropShadow_1428_3429" result="shape"/>
</filter>
<linearGradient id="paint0_linear_1428_3429" x1="37.4059" y1="3.66672" x2="37.4059" y2="71.2791" gradientUnits="userSpaceOnUse">
<stop stop-color="#FF223E"/>
<stop offset="1" stop-color="#E11A7D"/>
</linearGradient>
<clipPath id="clip0_1428_3429">
<rect width="72.8119" height="69.6914" fill="white" transform="translate(0.612305 0.202148)"/>
</clipPath>
</defs>
</svg>
