<svg width="106" height="106" viewBox="0 0 106 106" fill="none" xmlns="http://www.w3.org/2000/svg">
<g clip-path="url(#clip0_1_24657)">
<path d="M102 96H4V15.7084C4 14.765 4.81267 14 5.8149 14H100.185C101.187 14 102 14.765 102 15.7084V96Z" fill="#FDDDF4"/>
<path d="M102.344 37.3079C101.97 37.401 101.584 37.4652 101.181 37.4652C98.5202 37.4652 96.363 35.3079 96.363 32.647C96.363 35.3077 94.2057 37.4652 91.5447 37.4652C88.8838 37.4652 86.7265 35.3079 86.7265 32.647C86.7265 35.3077 84.5694 37.4652 81.9082 37.4652C79.2473 37.4652 77.09 35.3079 77.09 32.647C77.09 35.3077 74.9327 37.4652 72.2718 37.4652C69.6108 37.4652 67.4535 35.3079 67.4535 32.647C67.4535 35.3077 65.2963 37.4652 62.6353 37.4652C59.9743 37.4652 57.817 35.3079 57.817 32.647C57.817 35.3077 55.66 37.4652 52.9988 37.4652C50.3376 37.4652 48.1806 35.3079 48.1806 32.647C48.1806 35.3077 46.0233 37.4652 43.3623 37.4652C40.7014 37.4652 38.5441 35.3079 38.5441 32.647C38.5441 35.3077 36.387 37.4652 33.7259 37.4652C31.0649 37.4652 28.9076 35.3079 28.9076 32.647C28.9076 35.3077 26.7503 37.4652 24.0894 37.4652C21.4284 37.4652 19.2711 35.3079 19.2711 32.647C19.2711 35.3077 17.1139 37.4652 14.4529 37.4652C11.7919 37.4652 9.63466 35.3079 9.63466 32.647C9.63466 35.3077 7.4776 37.4652 4.81642 37.4652C4.41313 37.4652 4.02784 37.401 3.65332 37.3079V41.003C4.03716 41.0562 4.41809 41.1206 4.81642 41.1206C6.60496 41.1206 8.26577 40.5636 9.63466 39.614C11.004 40.5634 12.6646 41.1203 14.4533 41.1203C16.2419 41.1203 17.9027 40.5634 19.2716 39.6138C20.6404 40.5634 22.3012 41.1203 24.0898 41.1203C25.8783 41.1203 27.5391 40.5634 28.908 39.6138C30.2769 40.5634 31.9377 41.1203 33.7263 41.1203C35.5148 41.1203 37.1756 40.5634 38.5445 39.6138C39.9134 40.5634 41.5742 41.1203 43.3627 41.1203C45.1513 41.1203 46.8121 40.5634 48.181 39.6138C49.5497 40.5634 51.2105 41.1203 52.999 41.1203C54.7876 41.1203 56.4484 40.5634 57.8173 39.6138C59.1861 40.5634 60.847 41.1203 62.6355 41.1203C64.424 41.1203 66.0848 40.5634 67.4537 39.6138C68.8226 40.5634 70.4834 41.1203 72.272 41.1203C74.0605 41.1203 75.7213 40.5634 77.0902 39.6138C78.4591 40.5634 80.1199 41.1203 81.9084 41.1203C83.697 41.1203 85.3578 40.5634 86.7267 39.6138C88.0956 40.5634 89.7564 41.1203 91.5449 41.1203C93.3337 41.1203 94.9943 40.5634 96.3632 39.6138C97.7321 40.5634 99.3929 41.1203 101.181 41.1203C101.58 41.1203 101.961 41.0562 102.345 41.0028V37.3079H102.344Z" fill="#F4AFE1"/>
<path d="M63.9653 44.7754H12.793V77.672H63.9653V44.7754Z" fill="white"/>
<path d="M54.8276 75.845H51.1722L29.2412 46.6035H32.8966L54.8276 75.845Z" fill="#EDF2FC"/>
<path d="M43.3641 37.4656C40.7032 37.4656 38.5459 35.3083 38.5459 32.6473V28.3276H48.1824V32.6473C48.1824 35.3083 46.0251 37.4656 43.3641 37.4656Z" fill="#F04A90"/>
<path d="M62.6366 37.4656C59.9756 37.4656 57.8184 35.3083 57.8184 32.6473V28.3276H67.4548V32.6473C67.4546 35.3083 65.2976 37.4656 62.6366 37.4656Z" fill="#F04A90"/>
<path d="M24.0907 37.4656C21.4297 37.4656 19.2725 35.3083 19.2725 32.6473V28.3276H28.9089V32.6473C28.9087 35.3083 26.7517 37.4656 24.0907 37.4656Z" fill="#F04A90"/>
<path d="M4.81824 37.4656C2.15727 37.4656 0 35.3083 0 32.6473V28.3276H9.63648V32.6473C9.63648 35.3083 7.47921 37.4656 4.81824 37.4656Z" fill="#F04A90"/>
<path d="M81.9091 37.4656C79.2481 37.4656 77.0908 35.3083 77.0908 32.6473V28.3276H86.7273V32.6473C86.7273 35.3083 84.5702 37.4656 81.9091 37.4656Z" fill="#F04A90"/>
<path d="M33.7274 37.4656C31.0664 37.4656 28.9092 35.3083 28.9092 32.6473V28.3276H38.5457V32.6473C38.5457 35.3083 36.3886 37.4656 33.7274 37.4656Z" fill="#C7CFE2"/>
<path d="M72.2733 37.4656C69.6123 37.4656 67.4551 35.3083 67.4551 32.6473V28.3276H77.0916V32.6473C77.0914 35.3083 74.9343 37.4656 72.2733 37.4656Z" fill="#C7CFE2"/>
<path d="M101.182 37.4656C98.5205 37.4656 96.3633 35.3083 96.3633 32.6473V28.3276H106V32.6473C106 35.3083 103.842 37.4656 101.182 37.4656Z" fill="#F04A90"/>
<path d="M91.5458 37.4656C88.8848 37.4656 86.7275 35.3083 86.7275 32.6473V28.3276H96.364V32.6473C96.3638 35.3083 94.2065 37.4656 91.5458 37.4656Z" fill="#C7CFE2"/>
<path d="M14.455 37.4656C11.794 37.4656 9.63672 35.3083 9.63672 32.6473V28.3276H19.2732V32.6473C19.2732 35.3083 17.1159 37.4656 14.455 37.4656Z" fill="#C7CFE2"/>
<path d="M53.0008 37.4656C50.3399 37.4656 48.1826 35.3083 48.1826 32.6473V28.3276H57.8191V32.6473C57.8191 35.3083 55.6618 37.4656 53.0008 37.4656Z" fill="#C7CFE2"/>
<path d="M48.1822 28.3278H38.5459L39.5428 13.707H48.5147L48.1822 28.3278Z" fill="#EF3D7D"/>
<path d="M67.4541 28.3278H57.8178L57.4854 13.707H66.4573L67.4541 28.3278Z" fill="#EF3D7D"/>
<path d="M28.9087 28.3278H19.2725L21.5985 13.707H30.5702L28.9087 28.3278Z" fill="#EF3D7D"/>
<path d="M9.63648 28.3278H0L3.65514 13.707H12.627L9.63648 28.3278Z" fill="#EF3D7D"/>
<path d="M86.7274 28.3278H77.0909L75.4297 13.707H84.4012L86.7274 28.3278Z" fill="#EF3D7D"/>
<path d="M38.5457 28.3278H28.9092L30.5706 13.707H39.5425L38.5457 28.3278Z" fill="#EFF2FA"/>
<path d="M77.0911 28.3278H67.4549L66.458 13.707H75.4299L77.0911 28.3278Z" fill="#EFF2FA"/>
<path d="M106 28.3278H96.3636L93.373 13.707H102.345L106 28.3278Z" fill="#EF3D7D"/>
<path d="M96.3638 28.3278H86.7276L84.4014 13.707H93.3733L96.3638 28.3278Z" fill="#EFF2FA"/>
<path d="M19.273 28.3278H9.63672L12.6273 13.707H21.599L19.273 28.3278Z" fill="#EFF2FA"/>
<path d="M57.8191 28.3278H48.1826L48.5151 13.707H57.4866L57.8191 28.3278Z" fill="#EFF2FA"/>
<path d="M104.172 97.7759H1.82767C0.818395 97.7759 0 96.9576 0 95.9483C0 94.939 0.818395 94.1206 1.82767 94.1206H104.173C105.182 94.1206 106 94.939 106 95.9483C106 96.9576 105.182 97.7759 104.172 97.7759Z" fill="#F04A90"/>
<path d="M62.1384 46.6034V75.8447H14.6212V46.6034H62.1384ZM63.966 42.9482H12.7935C11.7842 42.9482 10.9658 43.7666 10.9658 44.7759V77.6726C10.9658 78.6818 11.7842 79.5002 12.7935 79.5002H63.9658C64.9751 79.5002 65.7935 78.6818 65.7935 77.6726V44.7759C65.7935 43.7666 64.9753 42.9482 63.966 42.9482Z" fill="#E99DCA"/>
<path d="M93.2071 42.9482H74.9312C73.9219 42.9482 73.1035 43.7666 73.1035 44.7759V90.4656H95.0345V44.7759C95.0345 43.7666 94.2164 42.9482 93.2071 42.9482Z" fill="#E99DCA"/>
<path d="M91.3795 46.6035H76.7588V75.8448H91.3795V46.6035Z" fill="white"/>
<path d="M47.5167 75.845H40.2064L18.2754 46.6035H25.5857L47.5167 75.845Z" fill="#EDF2FC"/>
<path d="M91.3793 61.2243L80.4139 46.6035H76.7588L91.3793 66.098V61.2243Z" fill="#DAF0FD"/>
<path d="M83.1552 50.2589L80.4139 46.6035H76.7588L79.5001 50.2589H83.1552Z" fill="#B4E1FA"/>
<path d="M91.3793 61.2243L80.4139 46.6035H76.7588L91.3793 66.098V61.2243Z" fill="#EDF2FC"/>
<path d="M76.7588 51.4775V61.2246L87.7242 75.8453H91.3793V70.9716L76.7588 51.4775Z" fill="#EDF2FC"/>
</g>
<defs>
<clipPath id="clip0_1_24657">
<rect width="106" height="106" fill="white"/>
</clipPath>
</defs>
</svg>
