<svg width="42" height="42" viewBox="0 0 42 42" fill="none" xmlns="http://www.w3.org/2000/svg">
<path d="M13.7507 12.353C6.1685 12.353 0 18.5215 0 26.1037C0 29.6012 1.34712 32.9776 3.72602 35.5151L3.11145 37.8556C2.96797 38.4017 3.11555 38.9832 3.502 39.395C3.81519 39.7288 4.24971 39.913 4.69818 39.9129C4.80301 39.9129 4.90867 39.9029 5.01367 39.8823L9.16199 39.0697C10.6327 39.5906 12.1739 39.8543 13.7507 39.8543C21.3329 39.8543 27.5014 33.6858 27.5014 26.1036C27.5014 18.5215 21.3329 12.353 13.7507 12.353ZM13.7507 36.5732C12.4222 36.5732 11.1282 36.3281 9.90478 35.8446C9.71193 35.7684 9.50734 35.7299 9.30185 35.7299C9.19644 35.7299 9.09087 35.7401 8.98644 35.7605L6.94928 36.1596L7.13975 35.4341C7.29414 34.8464 7.11096 34.2215 6.66381 33.81C4.51418 31.832 3.28125 29.0232 3.28125 26.1037C3.28125 20.3308 7.97779 15.6343 13.7507 15.6343C19.5235 15.6343 24.2201 20.3308 24.2201 26.1037C24.2201 31.8765 19.5235 36.5732 13.7507 36.5732Z" fill="#E11A7D"/>
<path d="M16.8503 21.6069H10.6509C9.74476 21.6069 9.01025 22.3414 9.01025 23.2476C9.01025 24.1537 9.74476 24.8882 10.6509 24.8882H16.8503C17.7564 24.8882 18.4909 24.1537 18.4909 23.2476C18.4909 22.3414 17.7564 21.6069 16.8503 21.6069Z" fill="#E11A7D"/>
<path d="M16.8503 27.3774H10.6509C9.74476 27.3774 9.01025 28.1119 9.01025 29.0181C9.01025 29.9242 9.74476 30.6587 10.6509 30.6587H16.8503C17.7564 30.6587 18.4909 29.9242 18.4909 29.0181C18.4909 28.1119 17.7564 27.3774 16.8503 27.3774Z" fill="#E11A7D"/>
<path d="M40.3593 22.2515C39.4531 22.2515 38.7186 22.986 38.7186 23.8921V23.9204C38.7186 25.6992 37.2725 27.1709 35.495 27.2011C35.0532 27.2087 34.6332 27.3941 34.33 27.7152C34.0844 27.9754 33.9321 28.3068 33.8927 28.6579L32.9922 28.0928C32.2247 27.6114 31.2121 27.8429 30.7304 28.6104C30.2488 29.3778 30.4805 30.3904 31.248 30.8721L34.766 33.08C35.0324 33.2471 35.3352 33.331 35.6383 33.331C35.9221 33.331 36.2064 33.2574 36.4611 33.1098C36.9878 32.8044 37.302 32.2325 37.2774 31.6242L37.2214 30.2384C38.3086 29.9331 39.3028 29.3486 40.115 28.5232C41.3305 27.288 41.9999 25.6535 41.9999 23.9204V23.8921C41.9999 22.986 41.2654 22.2515 40.3593 22.2515Z" fill="#E11A7D"/>
<path d="M35.4376 2.0874H15.5615C12.449 2.0874 9.74348 4.29937 9.12866 7.347C8.9495 8.23523 9.52429 9.1005 10.4124 9.27974C11.3004 9.45816 12.1659 8.8841 12.3452 7.99595C12.6522 6.47361 14.0049 5.36873 15.5615 5.36873H35.4376C37.2468 5.36873 38.7188 6.8407 38.7188 8.64998V15.6892C38.7188 16.5953 39.4533 17.3298 40.3594 17.3298C41.2655 17.3298 42.0001 16.5953 42.0001 15.6892V8.64998C42.0001 5.03134 39.0561 2.0874 35.4376 2.0874Z" fill="#E11A7D"/>
</svg>
