<svg width="20" height="19" viewBox="0 0 20 19" fill="none" xmlns="http://www.w3.org/2000/svg">
<path d="M8.28912 18.5025C8.41617 18.5025 8.54215 18.4947 8.66707 18.4793C8.94831 18.4819 9.21926 18.4177 9.45632 18.2887L10.2906 17.8348C10.489 17.7269 10.6336 17.5481 10.6977 17.3312C10.7618 17.1144 10.7376 16.8855 10.6294 16.6868L9.20755 14.0743C8.98416 13.665 8.46958 13.5132 8.05952 13.7354L6.55962 14.5518C6.03404 13.998 5.49568 13.2258 4.993 12.3019C4.49031 11.3779 4.13383 10.5064 3.95409 9.76465L5.45381 8.94825C5.65236 8.84054 5.79698 8.66151 5.86103 8.44467C5.92509 8.22784 5.90096 7.99894 5.79272 7.80057L4.37071 5.18776C4.1475 4.77841 3.63292 4.62563 3.22268 4.84885L2.38853 5.3031C2.14846 5.43369 1.95061 5.62196 1.80014 5.8631C0.479632 7.43628 0.751116 10.4173 2.51203 13.6525C4.16488 16.6892 6.34225 18.5025 8.28912 18.5025ZM8.65075 17.8584C8.63691 17.8584 8.62324 17.8593 8.60976 17.8611C6.85328 18.0937 4.67414 16.3269 3.05677 13.3557C1.43958 10.3846 1.13776 7.59403 2.2881 6.24672C2.29892 6.23395 2.30886 6.21993 2.31756 6.20574C2.41195 6.04959 2.53563 5.92911 2.68503 5.84748L3.51918 5.39359C3.62866 5.33486 3.76635 5.37496 3.82615 5.48444L5.24798 8.09707C5.2769 8.15012 5.28347 8.21116 5.26625 8.26901C5.24922 8.32685 5.21054 8.37476 5.15766 8.40351L3.45264 9.3317C3.33322 9.39646 3.27005 9.53185 3.29685 9.66511C3.46701 10.5124 3.86519 11.5266 4.44843 12.5984C5.0315 13.6698 5.66709 14.555 6.28653 15.1583C6.38395 15.253 6.53176 15.2736 6.65117 15.2082L8.35602 14.2803C8.4655 14.2212 8.60319 14.2612 8.66263 14.3712L10.0846 16.9836C10.1136 17.0367 10.1201 17.0979 10.1029 17.1557C10.0859 17.2136 10.0472 17.2613 9.99432 17.2901L9.16 17.7443C9.01006 17.8258 8.84291 17.8621 8.66051 17.8589C8.65713 17.8584 8.65394 17.8584 8.65075 17.8584Z" fill="#ACACAC"/>
<path d="M10.3863 13.6443C10.4646 13.6443 10.5416 13.6146 10.6005 13.5587L12.7848 11.4736H18.7063C19.4195 11.4736 19.9995 10.8934 19.9995 10.1804V1.29301C19.9995 0.580229 19.4195 0 18.7063 0H7.64826C6.93513 0 6.35508 0.580229 6.35508 1.29301V10.1806C6.35508 10.8934 6.93513 11.4736 7.64826 11.4736H10.0764V13.3343C10.0764 13.4585 10.1503 13.5704 10.2643 13.6192C10.3037 13.6363 10.3452 13.6443 10.3863 13.6443ZM18.7063 0.620153C19.0774 0.620153 19.3794 0.922156 19.3794 1.29301V10.1806C19.3794 10.5515 19.0774 10.8535 18.7063 10.8535H12.6606C12.5807 10.8535 12.5041 10.8842 12.4464 10.9392L10.6965 12.6096V11.1636C10.6965 10.9922 10.5577 10.8535 10.3865 10.8535H7.64826C7.27724 10.8535 6.97541 10.5515 6.97541 10.1806V1.29301C6.97541 0.922156 7.27724 0.620153 7.64826 0.620153H18.7063Z" fill="#ACACAC"/>
<path d="M9.14623 10.5437H17.2088C17.38 10.5437 17.5189 10.4051 17.5189 10.2337V9.22409C17.5189 8.35694 16.5599 7.75293 15.6993 7.75293H14.6958C14.5246 7.75293 14.3857 7.89151 14.3857 8.06292C14.3857 8.23432 14.5246 8.37308 14.6958 8.37308H15.6993C16.3047 8.37308 16.8988 8.79468 16.8988 9.22409V9.92355H9.4564V9.09101C9.4564 8.7285 9.97364 8.37308 10.5006 8.37308H11.7342C11.9054 8.37308 12.0444 8.23432 12.0444 8.06292C12.0444 7.89151 11.9054 7.75293 11.7342 7.75293H10.5006C9.71333 7.75293 8.83607 8.30246 8.83607 9.09101V10.2337C8.83607 10.4051 8.975 10.5437 9.14623 10.5437Z" fill="#ACACAC"/>
<path d="M10.3864 5.73716C10.3949 5.73716 10.4034 5.73681 10.4121 5.73627C10.5828 5.7219 10.7099 5.5725 10.6959 5.40162L10.5408 3.50887C10.5418 2.4405 11.3682 1.55082 12.3837 1.55082H13.9716C14.9872 1.55082 15.8134 2.4405 15.8134 3.53442L15.6594 5.40162C15.6454 5.5725 15.7724 5.72208 15.9433 5.73627C16.1142 5.74692 16.2634 5.62324 16.2774 5.45255L16.4325 3.55979C16.4336 2.09857 15.3292 0.930664 13.9716 0.930664H12.3837C11.0259 0.930664 9.92151 2.09857 9.92151 3.53442L10.0777 5.45255C10.0911 5.61455 10.2265 5.73716 10.3864 5.73716Z" fill="#ACACAC"/>
<path d="M13.1774 8.68256C14.0719 8.68256 14.884 8.35164 15.3494 7.79678C15.9137 7.12393 16.2783 6.18846 16.2783 5.41358V4.16387C16.2783 3.63652 16.2664 3.33168 16.021 3.19629C15.8021 3.07457 15.5952 3.20499 15.4128 3.31979C15.1704 3.47274 14.804 3.70359 14.2056 3.70359C13.7225 3.70359 13.1414 3.55579 12.5798 3.41312C11.6722 3.18227 10.888 2.98336 10.4148 3.35155C10.1902 3.52633 10.0764 3.79959 10.0764 4.16387V5.41358C10.0764 6.18864 10.4409 7.12393 11.0053 7.79696C11.4708 8.35164 12.2827 8.68256 13.1774 8.68256ZM15.6546 3.90002C15.6567 3.9694 15.6582 4.05563 15.6582 4.16387V5.41358C15.6582 6.04172 15.343 6.83931 14.8742 7.39843C14.5304 7.80814 13.8802 8.06241 13.1774 8.06241C12.4744 8.06241 11.8242 7.80814 11.4803 7.39843C11.0115 6.83931 10.6966 6.04172 10.6966 5.41358V4.16387C10.6966 4.00081 10.7299 3.89221 10.7956 3.84129C11.0293 3.65888 11.7719 3.84821 12.427 4.01411C13.0258 4.16618 13.6448 4.32357 14.2055 4.32357C14.9035 4.32375 15.3734 4.07267 15.6546 3.90002Z" fill="#ACACAC"/>
</svg>
