<svg width="24" height="25" viewBox="0 0 24 25" fill="none" xmlns="http://www.w3.org/2000/svg">
<path d="M22.5584 10.0819V21.7265C22.5584 22.502 21.9306 23.1303 21.1545 23.1303H2.84522C2.06972 23.1303 1.44141 22.502 1.44141 21.7265V10.0819C1.87861 10.3406 2.38875 10.4889 2.93325 10.4889C3.67495 10.4889 4.35759 10.2121 4.87795 9.75142C5.39836 9.29134 5.75536 8.64611 5.84517 7.91041L5.94525 7.08789C5.93077 7.2115 5.92294 7.33511 5.92294 7.45633C5.92294 9.1068 7.26464 10.4889 8.96152 10.4889C10.6397 10.4889 12.0001 9.1285 12.0001 7.45094C12.0001 9.12855 13.3599 10.4889 15.0381 10.4889C16.7362 10.4889 18.0773 9.1068 18.0773 7.45516C18.0773 7.33516 18.07 7.21394 18.0549 7.09094L18.155 7.91045C18.2449 8.64611 18.6018 9.29134 19.1217 9.75147C19.6421 10.2122 20.3253 10.489 21.0664 10.489C21.6111 10.489 22.1212 10.3406 22.5584 10.0819Z" fill="#F0B5D2"/>
<path d="M22.5582 12.3754V13.7822C22.121 14.0409 21.6109 14.1892 21.0664 14.1892C20.3253 14.1892 19.6421 13.9124 19.1217 13.4517C18.6019 12.9917 18.2449 12.3464 18.155 11.6107L18.0549 10.7912C18.07 10.9142 18.0773 11.0354 18.0773 11.1554C18.0773 12.8071 16.7362 14.1892 15.0381 14.1892C13.3599 14.1892 12.0001 12.8288 12.0001 11.1512C12.0001 12.8288 10.6397 14.1892 8.96152 14.1892C7.26464 14.1892 5.92294 12.8071 5.92294 11.1566C5.92294 11.0354 5.93077 10.9118 5.94525 10.7882L5.84517 11.6107C5.75531 12.3463 5.39836 12.9916 4.87795 13.4517C4.35755 13.9124 3.67495 14.1892 2.93325 14.1892C2.38875 14.1892 1.87856 14.0408 1.44141 13.7822V12.3753C1.87861 12.6341 2.38875 12.7824 2.93325 12.7824C3.67495 12.7824 4.35759 12.5056 4.87795 12.0449C5.39836 11.5848 5.75536 10.9396 5.84517 10.2039L5.94525 9.38135C5.93077 9.50496 5.92294 9.62857 5.92294 9.74979C5.92294 11.4003 7.26464 12.7824 8.96152 12.7824C10.6397 12.7824 12.0001 11.422 12.0001 9.7444C12.0001 11.422 13.3599 12.7824 15.0381 12.7824C16.7362 12.7824 18.0773 11.4003 18.0773 9.74861C18.0773 9.62861 18.07 9.50739 18.0549 9.38439L18.155 10.2039C18.2449 10.9396 18.6018 11.5848 19.1217 12.0449C19.6421 12.5056 20.3253 12.7824 21.0664 12.7824C21.6109 12.7825 22.1211 12.6341 22.5582 12.3754Z" fill="#E199BC"/>
<path d="M18.0548 9.47489C18.0699 9.59789 18.0771 9.71911 18.0771 9.83911C18.0771 11.4908 16.736 12.8729 15.0379 12.8729C13.3598 12.8729 12 11.5125 12 9.83489L10.5527 6.30282L11.9999 2.14697H17.1617L18.7135 6.3076L18.0542 9.46702C18.0548 9.46946 18.0548 9.4725 18.0548 9.47489Z" fill="#F0B5D2"/>
<path d="M6.83761 2.14746L8.18095 6.71384L5.94577 9.46746V9.46751L5.84508 10.2948C5.75522 11.0305 5.39827 11.6757 4.87786 12.1358C4.35745 12.5965 3.67486 12.8733 2.93316 12.8733C2.38866 12.8733 1.87847 12.7249 1.44131 12.4663V12.4657C0.578297 11.9555 0 11.0154 0 9.9402V9.72251L1.99786 2.88035C2.12466 2.44601 2.52291 2.14746 2.97539 2.14746H6.83761Z" fill="#F0B5D2"/>
<path d="M22.5565 12.4658C22.1193 12.7245 21.6092 12.8728 21.0647 12.8728C20.3236 12.8728 19.6404 12.596 19.12 12.1353C18.6002 11.6753 18.2432 11.03 18.1533 10.2943L18.0532 9.4748C18.0532 9.47241 18.0532 9.46936 18.0526 9.46697L17.1602 2.14697H21.0224C21.4749 2.14697 21.8731 2.44552 22 2.87982L23.9983 9.72207V9.93975C23.9983 11.0149 23.4194 11.9551 22.5565 12.4658Z" fill="#D3689D"/>
<path d="M11.999 2.14702V9.83485C11.999 11.5125 10.6386 12.8728 8.96045 12.8728C7.26358 12.8728 5.92188 11.4907 5.92188 9.84024C5.92188 9.71902 5.9297 9.59541 5.94419 9.4718C5.94419 9.46997 5.9448 9.4688 5.9448 9.46697L6.83664 2.14697H11.999V2.14702Z" fill="#D3689D"/>
</svg>
