<svg width="56" height="26" viewBox="0 0 56 26" fill="none" xmlns="http://www.w3.org/2000/svg">
<g clip-path="url(#clip0_1428_4955)">
<path fill-rule="evenodd" clip-rule="evenodd" d="M51.3265 4.18122C50.5457 4.18122 49.6844 4.62022 49.3406 5.40899L45.6906 13.8448L44.3764 5.40819C44.2216 4.61942 43.6905 4.18042 42.8489 4.18042H38.2253L42.1804 18.1903C42.2531 18.4588 42.2673 18.7567 42.2136 19.0699C42.0066 20.2387 40.8987 21.1876 39.7386 21.1876H37.1491C36.4916 21.1876 36.0585 21.5979 35.8468 22.5277L35.2715 25.9999H39.8319C42.2112 25.9999 45.0047 24.7944 46.8688 21.4625L55.9998 4.18122H51.3265Z" fill="#323E48"/>
<path fill-rule="evenodd" clip-rule="evenodd" d="M6.43953 0C7.80504 0 8.46488 0.548954 8.22465 1.9297L7.83112 4.1781H10.9683L10.2769 8.12834H7.13809L6.28307 13.0187C5.98753 14.723 7.66043 14.95 8.62055 14.95C8.81179 14.95 8.97062 14.946 9.08441 14.9389L8.31711 19.344C8.08004 19.3695 7.83586 19.4022 7.31905 19.4022C4.93732 19.4022 0.431462 18.7592 1.3173 13.6912L2.2877 8.12834H0L0.688285 4.1781H2.95307L3.68244 0H6.43953Z" fill="#323E48"/>
<path fill-rule="evenodd" clip-rule="evenodd" d="M32.8044 4.35913L31.9983 8.96429C32.9924 9.4758 33.6728 10.5155 33.6728 11.7162C33.6728 13.2994 32.4954 14.5965 30.9805 14.7829L30.1753 19.3873C30.3175 19.396 30.4621 19.4008 30.606 19.4008C34.8186 19.4008 38.23 15.9589 38.23 11.7154C38.23 8.24723 35.9447 5.31203 32.8044 4.35913Z" fill="#00ADBB"/>
<path fill-rule="evenodd" clip-rule="evenodd" d="M29.2163 14.4698C28.223 13.9607 27.541 12.9161 27.541 11.717C27.541 10.1443 28.7208 8.83682 30.2357 8.65357L31.0401 4.04841C30.8971 4.03964 30.7517 4.03247 30.6079 4.03247C26.3991 4.03247 22.9854 7.47678 22.9854 11.717C22.9854 15.1876 25.2715 18.1252 28.4118 19.0781L29.2163 14.4698Z" fill="#00ADBB"/>
<path fill-rule="evenodd" clip-rule="evenodd" d="M12.785 4.18128H15.4805C16.8467 4.18128 17.5034 4.73183 17.2632 6.11258L16.9684 7.78334C17.9728 5.72775 20.1515 4.03149 22.3862 4.03149C22.6794 4.03149 22.9615 4.08966 22.9615 4.08966L22.0899 9.07007C22.0899 9.07007 21.6987 8.97845 21.0887 8.97845C19.8978 8.97845 17.8835 9.35929 16.763 11.6157C16.4959 12.1718 16.2896 12.8482 16.1474 13.6633L15.1723 19.2588H10.1504L12.785 4.18128Z" fill="#323E48"/>
<path fill-rule="evenodd" clip-rule="evenodd" d="M54.7694 19.6022C54.7694 19.513 54.7402 19.4381 54.6762 19.3775C54.6138 19.317 54.5347 19.2883 54.4367 19.2883H54.108V19.9137H54.4367C54.5347 19.9137 54.6145 19.8827 54.6762 19.8261C54.7402 19.7663 54.7694 19.6938 54.7694 19.6022ZM55.0658 20.8507H54.7797L54.3751 20.1233H54.1088V20.8507H53.8646V19.0684H54.4644C54.6193 19.0684 54.7505 19.1218 54.8587 19.2222C54.9654 19.3241 55.0231 19.4516 55.0231 19.6014C55.0231 19.8492 54.8943 20.0133 54.6422 20.0906L55.0658 20.8507ZM55.7469 19.9607C55.7469 20.3448 55.6134 20.6714 55.3471 20.9407C55.0831 21.2116 54.7607 21.3463 54.387 21.3463C54.0148 21.3463 53.6955 21.2116 53.43 20.9407C53.1676 20.6714 53.0365 20.3448 53.0365 19.9607C53.0365 19.5783 53.1676 19.2524 53.43 18.9815C53.6963 18.7099 54.0156 18.5744 54.387 18.5744C54.7599 18.5744 55.0831 18.7091 55.3471 18.9815C55.6134 19.2524 55.7469 19.5783 55.7469 19.9607ZM55.9998 19.9607C55.9998 20.4101 55.8418 20.7941 55.5265 21.1096C55.2151 21.4259 54.835 21.5877 54.387 21.5877C53.9436 21.5877 53.5635 21.4251 53.2475 21.1096C52.9337 20.7941 52.7749 20.4101 52.7749 19.9607C52.7749 19.513 52.9337 19.1297 53.2475 18.811C53.5635 18.4955 53.9436 18.3362 54.387 18.3362C54.835 18.3362 55.2151 18.4955 55.5265 18.811C55.8418 19.1297 55.9998 19.513 55.9998 19.9607Z" fill="#323E48"/>
</g>
<defs>
<clipPath id="clip0_1428_4955">
<rect width="56" height="26" fill="white"/>
</clipPath>
</defs>
</svg>
