<svg width="16" height="16" viewBox="0 0 16 16" fill="none" xmlns="http://www.w3.org/2000/svg">
<path d="M9.70117 11.6592L10.3052 5.66309L13.1543 5.66016L14.4072 7.5386L15.6665 8.79741L15.6606 11.6592H9.70117Z" fill="#96D0A3"/>
<path d="M14.2657 7.32619L13.1543 5.66016L10.3052 5.66309L10.1377 7.32619H14.2657Z" fill="white"/>
<path d="M14.666 7.32617L13.3325 5.32666L10.0039 5.33007L9.33301 11.9927H15.9931L16 8.65969L14.666 7.32617ZM15.3276 11.3262H10.0698L10.6069 5.99611L12.9761 5.99367L14.1118 7.6963L14.1485 7.75099L14.1948 7.79786L15.333 8.93507L15.3276 11.3262Z" fill="#96D0A3"/>
<path d="M9.99948 2.66016H0.666982C0.298818 2.66016 0 2.95851 0 3.32667V11.3262C0 11.6943 0.29835 11.9927 0.666513 11.9927H9.99951C10.3677 11.9927 10.666 11.6943 10.666 11.3262V3.32667C10.666 2.95851 10.3677 2.66016 9.99948 2.66016Z" fill="#96D0A3"/>
<path d="M12.9996 13.34C13.92 13.34 14.6662 12.5939 14.6662 11.6734C14.6662 10.753 13.92 10.0068 12.9996 10.0068C12.0792 10.0068 11.333 10.753 11.333 11.6734C11.333 12.5939 12.0792 13.34 12.9996 13.34Z" fill="#96D0A3"/>
<path d="M3.00058 13.34C3.92101 13.34 4.66717 12.5939 4.66717 11.6734C4.66717 10.753 3.92101 10.0068 3.00058 10.0068C2.08014 10.0068 1.33398 10.753 1.33398 11.6734C1.33398 12.5939 2.08014 13.34 3.00058 13.34Z" fill="#96D0A3"/>
<path d="M12.667 11.6734C12.667 11.8574 12.8159 12.0064 13 12.0064C13.1841 12.0064 13.3335 11.8574 13.3335 11.6734C13.3335 11.4893 13.1841 11.3398 13 11.3398C12.8159 11.3398 12.667 11.4893 12.667 11.6734Z" fill="#F5F7FA"/>
<path d="M2.66699 11.6734C2.66699 11.8574 2.8164 12.0064 3.00047 12.0064C3.18453 12.0064 3.33347 11.8574 3.33347 11.6734C3.33347 11.4893 3.18453 11.3398 3.00047 11.3398C2.8164 11.3398 2.66699 11.4893 2.66699 11.6734Z" fill="#F5F7FA"/>
<path d="M1.33445 8.65967C1.14989 8.65967 1.00098 8.80861 1.00098 8.99267V9.65962C1.00098 9.84372 1.14992 9.99263 1.33445 9.99263C1.51855 9.99263 1.66746 9.84369 1.66746 9.65962V8.99267C1.66749 8.80861 1.51855 8.65967 1.33445 8.65967Z" fill="white"/>
<path d="M2.66749 8.65967C2.48339 8.65967 2.33398 8.80861 2.33398 8.99267V9.65962C2.33398 9.84372 2.48339 9.99263 2.66749 9.99263C2.85156 9.99263 3.00097 9.84369 3.00097 9.65962V8.99267C3.001 8.80861 2.85156 8.65967 2.66749 8.65967Z" fill="white"/>
<path d="M4 8.65967C3.8164 8.65967 3.66699 8.80861 3.66699 8.99267V9.65962C3.66699 9.84372 3.8164 9.99263 4 9.99263C4.18457 9.99263 4.33351 9.84369 4.33351 9.65962V8.99267C4.33351 8.80861 4.1846 8.65967 4 8.65967Z" fill="white"/>
<path d="M5.33348 8.65967C5.14938 8.65967 5 8.80861 5 8.99267V9.65962C5 9.84372 5.14941 9.99263 5.33348 9.99263C5.51754 9.99263 5.66698 9.84369 5.66698 9.65962V8.99267C5.66698 8.80861 5.51757 8.65967 5.33348 8.65967Z" fill="white"/>
<path d="M6.66749 8.65967C6.48292 8.65967 6.33398 8.80861 6.33398 8.99267V9.65962C6.33398 9.84372 6.48292 9.99263 6.66749 9.99263C6.85156 9.99263 7.0005 9.84369 7.0005 9.65962V8.99267C7.00047 8.80861 6.85156 8.65967 6.66749 8.65967Z" fill="white"/>
<path d="M8.0005 8.65967C7.8164 8.65967 7.66699 8.80861 7.66699 8.99267V9.65962C7.66699 9.84372 7.8164 9.99263 8.0005 9.99263C8.1846 9.99263 8.33401 9.84369 8.33401 9.65962V8.99267C8.33401 8.80861 8.1846 8.65967 8.0005 8.65967Z" fill="white"/>
<path d="M9.33297 8.65967C9.14938 8.65967 9 8.80861 9 8.99267V9.65962C9 9.84372 9.14938 9.99263 9.33297 9.99263C9.51754 9.99263 9.66648 9.84369 9.66648 9.65962V8.99267C9.66648 8.80861 9.51757 8.65967 9.33297 8.65967Z" fill="white"/>
<path d="M11.9946 5.99316H11.3281V7.32616H11.9946V5.99316Z" fill="#96D0A3"/>
<path d="M9.99948 2.66016H0.666982C0.298818 2.66016 0 2.95851 0 3.32667V9.3262H10.666V3.32667C10.666 2.95851 10.3677 2.66016 9.99948 2.66016Z" fill="#A6E6B4"/>
</svg>
