<svg width="17" height="20" viewBox="0 0 17 20" fill="none" xmlns="http://www.w3.org/2000/svg">
<g clip-path="url(#clip0_1428_4449)">
<path d="M15.9141 19.9997H0.0859291L0.0343716 19.4866C0.0114572 19.2385 0 18.9848 0 18.7423C0 14.4006 3.58611 10.8652 8.00286 10.8652C12.4196 10.8652 16.0057 14.395 16.0057 18.7423C16.0057 18.9848 15.9943 19.2385 15.9714 19.4866L15.9141 19.9997Z" fill="#BDBDBD"/>
<path d="M8.00255 10.3073C5.11533 10.3073 2.7666 7.99549 2.7666 5.15365C2.7666 2.31181 5.11533 0 8.00255 0C10.8898 0 13.2385 2.31181 13.2385 5.15365C13.2385 7.99549 10.8898 10.3073 8.00255 10.3073Z" fill="#BDBDBD"/>
</g>
<defs>
<clipPath id="clip0_1428_4449">
<rect width="16.0057" height="19.9997" fill="white"/>
</clipPath>
</defs>
</svg>
