<svg width="52" height="16" viewBox="0 0 52 16" fill="none" xmlns="http://www.w3.org/2000/svg">
<g clip-path="url(#clip0_1428_4963)">
<path d="M22.5332 15.7692H18.3208L20.9555 0.280762H25.1677L22.5332 15.7692Z" fill="#00579F"/>
<path d="M37.8034 0.659404C36.9726 0.346017 35.6548 0 34.0253 0C29.8654 0 26.9361 2.10895 26.9181 5.12412C26.8836 7.3487 29.0154 8.58429 30.6099 9.32603C32.2396 10.084 32.7936 10.5787 32.7936 11.2543C32.777 12.2919 31.4767 12.7702 30.2639 12.7702C28.5822 12.7702 27.681 12.5236 26.3116 11.9463L25.7569 11.6989L25.1675 15.1757C26.1554 15.6036 27.9756 15.9834 29.8654 16C34.2853 16 37.1628 13.9237 37.1969 10.7105C37.2137 8.94739 36.088 7.59639 33.6611 6.49242C32.1878 5.78374 31.2855 5.30589 31.2855 4.58078C31.3028 3.9216 32.0487 3.24643 33.7118 3.24643C35.0812 3.21336 36.0873 3.52631 36.8496 3.83947L37.2306 4.00394L37.8034 0.659404Z" fill="#00579F"/>
<path d="M43.402 10.2822C43.7489 9.39239 45.0838 5.94865 45.0838 5.94865C45.0662 5.98172 45.43 5.04244 45.638 4.46581L45.9324 5.80039C45.9324 5.80039 46.73 9.50781 46.9033 10.2822C46.2449 10.2822 44.234 10.2822 43.402 10.2822ZM48.6016 0.280762H45.3434C44.3386 0.280762 43.5752 0.560641 43.1417 1.56584L36.8848 15.769H41.3047C41.3047 15.769 42.0323 13.8573 42.1887 13.4456C42.6736 13.4456 46.9733 13.4456 47.5971 13.4456C47.718 13.9894 48.0997 15.769 48.0997 15.769H51.9999L48.6016 0.280762Z" fill="#00579F"/>
<path d="M14.8028 0.280762L10.6775 10.8424L10.2267 8.70036C9.46403 6.22875 7.0721 3.5434 4.40283 2.20816L8.18145 15.7528H12.6359L19.257 0.280762H14.8028Z" fill="#00579F"/>
<path d="M6.84662 0.280762H0.0693343L0 0.59371C5.2867 1.87901 8.78799 4.97717 10.2265 8.70101L8.7532 1.5827C8.51065 0.593491 7.76524 0.313392 6.84662 0.280762Z" fill="#FAA61A"/>
</g>
<defs>
<clipPath id="clip0_1428_4963">
<rect width="52" height="16" fill="white"/>
</clipPath>
</defs>
</svg>
