<svg width="98" height="160" viewBox="0 0 98 160" fill="none" xmlns="http://www.w3.org/2000/svg">
<path d="M19.0426 5.11914C19.0426 1.45199 14.2345 -0.46131 11.1894 1.61143C5.25946 5.59746 9.2662 15.0045 10.2278 18.3528C11.51 23.136 11.9908 28.0787 12.151 32.8619L18.5618 31.2675L19.2029 5.27858C19.0426 5.27858 19.0426 5.27858 19.0426 5.11914Z" fill="#281E28"/>
<path d="M14.874 5.27929C12.7905 7.19259 14.3931 9.10588 16.3164 8.787C17.5985 8.62756 19.2012 7.51147 19.2012 6.0765C19.2012 4.48208 16.7972 3.52543 14.874 5.27929Z" fill="#E11A7D"/>
<path d="M32.0253 38.4416C32.0253 38.4416 31.865 34.2961 31.7048 29.6723C31.5445 22.9758 29.9418 17.7142 23.8516 17.8736C23.8516 17.8736 25.294 25.3674 26.2556 29.194L25.294 40.8332C26.4159 44.022 31.0637 50.7186 35.0704 56.1396C35.5512 56.7774 39.7182 54.5452 39.3977 53.748C39.2374 52.1536 32.0253 38.4416 32.0253 38.4416Z" fill="#E11A7D"/>
<path d="M2.21597 104.93C1.73517 105.408 1.25436 106.046 1.25436 107.003C1.25436 107.64 1.25436 108.278 1.09409 109.075C1.09409 109.713 0.93382 110.351 0.613281 110.829L0.93382 112.424H1.5749C1.73517 113.54 1.73517 118.642 4.13921 121.671C5.58163 123.584 6.54325 123.903 8.62675 123.584C11.5116 123.106 10.2294 120.236 9.58836 117.207C9.42809 116.41 9.10756 115.453 8.94729 114.656C8.62675 114.018 8.46648 113.38 8.30621 112.742C7.98567 111.307 8.14594 109.872 8.14594 108.437C7.98567 103.016 3.6584 103.814 2.21597 104.93Z" fill="#281E28"/>
<path d="M5.58073 87.8687C5.09992 89.1442 4.13831 90.2603 3.97804 91.5359C3.33696 95.203 3.49723 96.1597 4.77939 104.61C3.97804 104.77 2.53561 105.088 2.21508 106.045C1.89454 107.639 3.17669 115.93 3.49723 116.568C4.13831 118.163 7.02316 117.844 8.46558 117.206C8.94639 117.047 9.10666 116.409 9.10666 115.93C8.94639 115.133 8.62585 113.858 8.62585 113.539C8.46558 112.582 8.62585 111.466 8.78612 110.509C9.10666 107.161 9.58747 103.813 10.2285 100.465C10.8696 97.2758 12.312 93.2897 12.6326 92.652C12.7929 92.0142 13.2737 91.5359 13.7545 91.0575C16.9599 86.7526 17.7612 80.8533 15.6777 75.9106C14.8764 73.8379 13.2737 71.9246 11.0299 71.7651C9.908 71.7651 8.78612 72.084 7.98477 72.8812C6.06154 74.6351 7.02316 77.1861 7.02316 79.4183C6.86289 82.4477 6.70262 85.3177 5.58073 87.8687Z" fill="#FBBD9E"/>
<path d="M38.5992 132.512C37.1568 130.12 35.8746 129.004 33.9514 126.294C33.6309 125.815 33.4706 125.178 33.1501 124.699C32.3487 123.583 32.0282 122.308 31.5474 121.192C31.3871 120.713 31.0666 120.235 30.5857 119.916C30.1049 119.597 28.1817 119.597 28.1817 119.597C27.3804 119.916 25.2969 120.713 26.0982 123.424C26.4187 124.859 26.8996 125.815 27.0598 128.048C27.0598 128.366 26.8996 129.323 26.8996 129.323L28.0214 130.28L29.1433 129.642C30.5857 132.034 31.8679 133.947 33.3103 134.904C36.3554 137.136 40.6827 135.701 38.5992 132.512Z" fill="#281E28"/>
<path d="M35.712 128.527C34.7504 127.092 32.5066 125.178 32.5066 118.641C32.5066 115.931 33.949 94.7252 34.1093 94.4063C34.2696 93.928 34.4298 93.4496 34.4298 92.8119C34.5901 92.1741 34.5901 91.3769 34.5901 90.7391C34.5901 88.8258 34.5901 86.9125 34.5901 85.1587L25.2945 87.072C25.9355 88.3475 26.4164 89.7825 26.5766 91.3769C26.7369 92.493 26.5766 92.6524 25.9355 93.4496C24.9739 94.8846 24.0123 99.5084 25.615 105.089C26.7369 109.234 28.4999 118.801 27.8588 119.917C27.6985 120.236 27.5382 120.395 27.2177 120.714C26.5766 121.192 26.5766 122.149 26.8972 122.787C27.5382 124.222 28.9807 126.135 29.782 127.57C30.9039 129.643 31.3847 130.281 32.6669 130.44C33.4682 130.599 34.4298 130.44 35.3914 129.643C35.712 129.483 35.8722 128.846 35.712 128.527Z" fill="#FBBD9E"/>
<path d="M15.1965 93.7688C18.4019 93.4499 18.0813 92.9716 24.8126 92.6527C28.1783 92.4933 34.9096 92.4933 35.5507 89.9422C35.5507 79.5785 31.7042 61.0833 30.9029 55.5029C30.7426 54.8651 30.2618 54.5462 29.781 54.7057C25.1332 55.9812 9.2665 56.9379 8.30489 56.1406C7.02273 57.7351 5.58031 61.2428 4.93923 63.9533C3.49681 70.3309 5.74058 73.5198 4.13788 86.9128C3.97761 87.8695 4.13788 88.9856 4.77896 89.9422C6.70219 92.6527 10.3884 94.2471 15.1965 93.7688Z" fill="#281E28"/>
<path d="M26.5762 18.3533C25.1338 17.7156 23.3708 17.7156 21.7681 18.3533C17.6011 20.2666 8.14523 24.731 5.74119 28.0793C5.10011 29.0359 5.26038 30.9492 5.74119 31.7464C10.389 39.2401 15.6779 40.3562 11.3506 48.9661C9.74792 52.1549 8.62604 54.0682 7.66442 56.1409C7.66442 60.127 15.5176 62.3591 23.0503 60.7647C28.82 59.4892 30.5829 58.5326 31.0637 56.4598C31.0637 56.3004 31.0637 55.9815 31.0637 55.8221C29.4611 45.6178 30.7432 42.7479 30.9035 41.9507C31.3843 39.8779 32.987 38.4429 33.1472 36.2108C33.3075 33.3408 31.3843 32.0653 31.0637 28.3981C30.9035 26.9632 31.224 25.5282 31.0637 24.0932C30.9035 21.3827 28.9802 19.31 26.5762 18.3533Z" fill="#E11A7D"/>
<path opacity="0.4" d="M17.761 58.0535C15.1967 55.5024 13.9146 51.6758 11.3503 48.9653C9.74756 52.1542 8.62568 54.0675 7.66406 56.1402C7.66406 59.8073 14.2351 61.8801 21.1267 61.0829C20.0048 59.9668 18.8829 59.0101 17.761 58.0535Z" fill="#D35229"/>
<path d="M4.77939 29.9928C4.45885 35.4138 6.54235 48.1691 7.18343 52.1551C7.3437 52.9523 7.66424 53.5901 8.14505 54.0684C10.5491 56.7789 18.242 65.3888 18.4023 65.7077C19.5242 66.9832 24.0117 63.4755 23.0501 61.8811C21.2871 59.4894 13.9147 49.7635 13.9147 49.7635C13.9147 44.8208 13.4339 35.5732 13.4339 33.0222C13.2737 28.2389 10.3888 26.4851 7.82451 26.8039C6.22181 26.9634 4.93966 28.3984 4.77939 29.9928Z" fill="#E11A7D"/>
<path opacity="0.6" d="M13.9165 49.6032L13.4357 32.8618L13.2754 37.0073V41.1528L13.4357 45.4577C13.4357 46.8927 13.4357 48.1682 13.4357 49.6032C13.4357 49.7626 13.4357 49.7626 13.4357 49.7626L18.0835 55.8214C18.8848 56.778 19.6862 57.8941 20.4875 58.8508L22.8916 61.7207C23.0518 61.7207 13.9165 49.6032 13.9165 49.6032Z" fill="url(#paint0_radial_1_20978)"/>
<path d="M20.9651 19.4674C20.3241 19.1486 17.5995 20.1052 15.6763 21.2213C13.4325 22.4968 13.2722 25.3668 14.8749 27.599C17.4392 31.2661 20.3241 31.9039 22.2473 31.7444C24.1705 31.585 25.4527 30.15 25.613 28.2367C25.7732 23.9318 20.9651 19.4674 20.9651 19.4674Z" fill="#FBBD9E"/>
<path d="M16.6393 17.7148C18.0817 19.1498 22.5693 23.4547 22.5693 23.4547C23.5309 25.5275 24.4925 27.2813 23.5309 29.0352C23.2103 29.6729 22.409 29.9918 21.7679 29.8324C20.4858 29.5135 18.4023 28.7163 16.1585 25.8464C15.3571 24.8897 14.7161 23.2953 15.1969 22.0198C15.3571 21.5414 15.9982 19.947 16.3188 19.1498C16.479 18.5121 16.479 18.5121 16.6393 17.7148Z" fill="#F2A883"/>
<path d="M14.0762 11.4956C14.0762 12.2928 14.0762 17.076 16.1597 20.7432C19.0445 25.6859 24.1731 26.6425 24.9745 26.802C26.0964 26.9614 27.058 26.0047 27.3785 25.0481C28.9812 20.5837 30.5839 13.2494 28.3401 10.22C26.2566 7.66899 24.4937 6.23401 22.0896 5.75569C19.8459 5.27737 14.3967 6.87178 14.0762 11.4956Z" fill="#FBBD9E"/>
<path d="M28.4995 8.46691C28.0187 7.82914 24.9736 4.64031 21.1271 4.32143C19.2039 4.16199 17.7615 4.64031 16.6396 5.27808C15.0369 6.07528 13.5945 8.14802 13.1137 9.74244C12.9534 11.4963 13.1137 13.4096 13.4342 15.3229C13.5945 16.1201 13.7547 17.0767 14.2355 17.8739C14.8766 18.99 15.5177 20.2656 16.4793 21.3817C15.5177 18.0334 15.3574 15.6418 17.2807 16.439C18.4025 16.7579 18.082 18.5117 19.0436 18.8306C19.845 18.99 20.486 18.1928 20.9669 17.2362C21.6079 16.1201 22.5695 15.004 23.6914 14.3662C25.9352 13.0907 28.6598 11.9746 29.1406 13.7285C29.9419 11.1774 29.3009 9.583 28.4995 8.46691Z" fill="#281E28"/>
<path d="M70.1995 156.908L69.7915 155.014L69.5195 155.149L69.7915 157.45L70.0635 157.314C70.1995 157.314 70.3355 157.179 70.1995 156.908Z" fill="#C1C1C1"/>
<path d="M69.6554 155.15L69.1114 154.88C68.7034 155.015 68.4314 155.15 68.0234 155.286C68.1594 155.421 68.1594 155.692 68.2954 155.827L69.1114 157.045C69.2474 157.18 69.3834 157.451 69.5194 157.451C69.7914 157.586 70.0634 157.451 69.9274 157.045L69.6554 155.15Z" fill="#C1C1C1"/>
<path d="M66.9366 155.015C67.7526 154.474 68.4326 154.879 68.7046 155.015C70.2006 155.962 71.2886 158.532 69.6566 159.48H69.5206C69.3846 159.615 68.9766 159.75 68.4326 159.615C67.6166 159.48 66.6646 158.668 66.2566 157.315C66.2566 157.044 65.8486 155.691 66.9366 155.015Z" fill="#281E28"/>
<path d="M68.8386 158.398C68.8386 159.209 68.2946 159.48 67.6146 159.074C66.9346 158.668 66.3906 157.721 66.3906 157.045C66.3906 156.233 66.9346 155.962 67.6146 156.368C68.2946 156.639 68.8386 157.586 68.8386 158.398Z" fill="#ADADAD"/>
<path d="M68.2933 157.991L67.8853 156.097L67.6133 156.232L67.8853 158.533L68.1573 158.397C68.2933 158.397 68.4293 158.262 68.2933 157.991Z" fill="#C1C1C1"/>
<path d="M68.1584 158.126L67.7504 156.232L65.9824 155.285V155.691C65.9824 156.096 66.1184 156.502 66.3904 157.044L67.2064 158.261C67.3424 158.397 67.4784 158.667 67.6144 158.667C68.0224 158.667 68.1584 158.532 68.1584 158.126Z" fill="#C1C1C1"/>
<path d="M65.7109 154.473V155.014C65.7109 155.15 65.8469 155.42 66.1189 155.556L67.2069 156.232C67.6149 156.503 68.4309 156.503 68.8389 156.232L69.7909 155.691C70.0629 155.556 70.1989 155.42 70.1989 155.15V154.879L65.7109 154.473Z" fill="#C1C1C1"/>
<path d="M69.9227 155.014L68.5627 155.826C68.2907 155.961 67.8827 155.961 67.6107 155.826L65.8427 154.744C65.5707 154.608 65.5707 154.338 65.8427 154.202L67.2027 153.391C67.4747 153.255 67.8827 153.255 68.1547 153.391L69.9227 154.473C70.1947 154.608 70.1947 154.879 69.9227 155.014Z" fill="#D6D6D6"/>
<path d="M97.2601 141.484L96.8521 139.589L96.5801 139.725L96.8521 142.025L97.1241 141.889C97.2601 141.754 97.2601 141.619 97.2601 141.484Z" fill="#C1C1C1"/>
<path d="M96.58 139.589L96.172 139.318C95.764 139.454 95.492 139.589 95.084 139.724C95.22 139.86 95.22 140.13 95.356 140.265L96.172 141.483C96.308 141.618 96.444 141.889 96.58 141.889C96.852 142.024 97.124 141.889 96.988 141.483L96.58 139.589Z" fill="#C1C1C1"/>
<path d="M93.9983 139.589C94.8143 139.048 95.4943 139.454 95.7663 139.589C97.2623 140.537 98.3503 143.107 96.7183 144.054H96.5823C96.4463 144.19 96.0383 144.325 95.4943 144.19C94.6783 144.054 93.7263 143.242 93.3183 141.889C93.1823 141.484 92.9103 140.266 93.9983 139.589Z" fill="#281E28"/>
<path d="M95.9031 142.835C95.9031 143.647 95.3591 143.917 94.6791 143.512C93.9991 143.106 93.4551 142.159 93.4551 141.482C93.4551 140.67 93.9991 140.4 94.6791 140.806C95.3591 141.212 95.9031 142.023 95.9031 142.835Z" fill="#ADADAD"/>
<path d="M95.3577 142.567L94.9497 140.672H94.6777L94.9497 142.972L95.2217 142.837C95.3577 142.837 95.3577 142.702 95.3577 142.567Z" fill="#C1C1C1"/>
<path d="M95.0862 142.702L94.6782 140.673L92.9102 139.726V140.131C92.9102 140.537 93.0462 140.943 93.3182 141.484L94.1342 142.702C94.2702 142.837 94.4062 143.108 94.5422 143.108C94.9502 143.243 95.2222 142.973 95.0862 142.702Z" fill="#C1C1C1"/>
<path d="M92.7734 139.048V139.589C92.7734 139.724 92.9094 139.995 93.1814 140.13L94.2694 140.807C94.6774 141.077 95.4935 141.077 95.9015 140.807L96.8535 140.266C97.1255 140.13 97.2615 139.995 97.2615 139.724V139.454L92.7734 139.048Z" fill="#C1C1C1"/>
<path d="M96.9852 139.589L95.6252 140.401C95.3532 140.536 94.9452 140.536 94.6732 140.401L92.9052 139.318C92.6332 139.183 92.6332 138.912 92.9052 138.777L94.2652 137.965C94.5372 137.83 94.9452 137.83 95.2172 137.965L96.9852 139.048C97.2572 139.183 97.2572 139.454 96.9852 139.589Z" fill="#D6D6D6"/>
<path d="M20.2738 128.227L19.8658 126.333L19.5938 126.468L19.8658 128.768L20.1378 128.633C20.2738 128.633 20.2738 128.497 20.2738 128.227Z" fill="#C1C1C1"/>
<path d="M19.5949 126.469L19.0509 126.198C18.6429 126.334 18.3709 126.469 17.9629 126.604C18.0989 126.739 18.0989 127.01 18.2349 127.145L19.0509 128.363C19.1869 128.498 19.3229 128.769 19.4589 128.769C19.7309 128.904 20.0029 128.769 19.8669 128.363L19.5949 126.469Z" fill="#C1C1C1"/>
<path d="M17.014 126.334C17.83 125.792 18.51 126.198 18.782 126.334C20.278 127.281 21.366 129.851 19.734 130.798H19.598C19.462 130.934 19.054 131.069 18.51 130.934C17.694 130.798 16.742 129.987 16.334 128.634C16.198 128.363 15.926 127.01 17.014 126.334Z" fill="#281E28"/>
<path d="M18.9168 129.581C18.9168 130.393 18.3728 130.664 17.6928 130.258C17.0128 129.852 16.4688 128.905 16.4688 128.228C16.4688 127.416 17.0128 127.146 17.6928 127.552C18.3728 127.958 18.9168 128.905 18.9168 129.581Z" fill="#ADADAD"/>
<path d="M18.3714 129.311L17.9634 127.417L17.6914 127.552L17.9634 129.852L18.2354 129.717C18.3714 129.717 18.3714 129.582 18.3714 129.311Z" fill="#C1C1C1"/>
<path d="M18.0998 129.446L17.6918 127.552L15.9238 126.604V127.01C15.9238 127.416 16.0598 127.822 16.3318 128.363L17.1478 129.581C17.2838 129.716 17.4198 129.987 17.5558 129.987C17.9638 129.987 18.2358 129.852 18.0998 129.446Z" fill="#C1C1C1"/>
<path d="M15.7891 125.792V126.333C15.7891 126.468 15.9251 126.739 16.1971 126.874L17.2851 127.551C17.6931 127.821 18.5091 127.821 18.9171 127.551L19.8691 127.01C20.1411 126.874 20.2771 126.739 20.2771 126.468V126.198L15.7891 125.792Z" fill="#C1C1C1"/>
<path d="M20.0106 126.332L18.6506 127.144C18.3786 127.279 17.9706 127.279 17.6986 127.144L15.9306 126.061C15.6586 125.926 15.6586 125.655 15.9306 125.52L17.2906 124.708C17.5626 124.573 17.9706 124.573 18.2426 124.708L20.0106 125.791C20.2826 125.926 20.2826 126.197 20.0106 126.332Z" fill="#D6D6D6"/>
<path d="M47.2061 112.669L46.7981 110.775L46.6621 110.91L46.9341 113.21L47.2061 113.075C47.2061 113.075 47.3421 112.94 47.2061 112.669Z" fill="#C1C1C1"/>
<path d="M46.6633 110.911L46.1193 110.641C45.7113 110.776 45.4393 110.911 45.0312 111.047C45.1673 111.182 45.1673 111.452 45.3033 111.588L46.1193 112.805C46.2553 112.941 46.3913 113.211 46.5273 113.211C46.7993 113.347 47.0713 113.211 46.9353 112.805L46.6633 110.911Z" fill="#C1C1C1"/>
<path d="M43.9444 110.774C44.7604 110.233 45.4404 110.639 45.7124 110.774C47.2084 111.721 48.2964 114.292 46.6644 115.239H46.5284C46.3924 115.374 45.9844 115.509 45.4404 115.374C44.6244 115.239 43.6724 114.427 43.2644 113.074C43.2644 112.803 42.8564 111.45 43.9444 110.774Z" fill="#281E28"/>
<path d="M45.8504 114.155C45.8504 114.967 45.3064 115.238 44.6264 114.832C43.9463 114.426 43.4023 113.479 43.4023 112.802C43.4023 111.991 43.9463 111.72 44.6264 112.126C45.3064 112.397 45.8504 113.344 45.8504 114.155Z" fill="#ADADAD"/>
<path d="M45.3011 113.75L44.8931 111.856L44.6211 111.991L44.8931 114.291L45.1651 114.156C45.3011 114.156 45.4371 114.021 45.3011 113.75Z" fill="#C1C1C1"/>
<path d="M45.1662 113.885L44.7582 111.991L42.9902 111.043V111.449C42.9902 111.855 43.1262 112.261 43.3982 112.802L44.2142 114.02C44.3502 114.155 44.4862 114.426 44.6222 114.426C45.0302 114.426 45.1662 114.291 45.1662 113.885Z" fill="#C1C1C1"/>
<path d="M42.7188 110.232V110.774C42.7188 110.909 42.8548 111.18 43.1268 111.315L44.2148 111.991C44.6228 112.262 45.4388 112.262 45.8468 111.991L46.7988 111.45C47.0708 111.315 47.2068 111.18 47.2068 110.909V110.638L42.7188 110.232Z" fill="#C1C1C1"/>
<path d="M46.9371 110.773L45.5771 111.585C45.3051 111.72 44.8971 111.72 44.6251 111.585L42.9931 110.502C42.7211 110.367 42.7211 110.096 42.9931 109.961L44.3531 109.149C44.6251 109.014 45.0331 109.014 45.3051 109.149L47.0731 110.232C47.2091 110.502 47.2091 110.638 46.9371 110.773Z" fill="#D6D6D6"/>
<path d="M53.1916 115.373C53.0556 115.373 52.9196 115.373 52.7836 115.238L43.9436 110.096C42.0395 109.014 41.2235 106.578 42.3115 104.549L47.4796 94.6722V67.4774L41.2235 57.7359C40.9515 57.33 41.0875 56.7888 41.4955 56.5182C41.9035 56.2476 42.4475 56.3829 42.7195 56.7888L49.1116 66.6656C49.2476 66.8009 49.2476 66.9362 49.2476 67.2068V94.9428C49.2476 95.0781 49.2476 95.2134 49.1116 95.3487L43.9436 105.496C43.3996 106.578 43.8076 108.067 44.8956 108.743L53.7356 113.885C54.1436 114.155 54.2796 114.696 54.0076 115.102C53.7356 115.238 53.4636 115.373 53.1916 115.373Z" fill="#C1C1C1"/>
<path d="M40.9525 56.788C40.6805 56.6527 40.5445 56.6527 40.4085 56.788L14.5684 71.5355L15.7924 73.5649L41.4965 58.8175C41.6325 58.6822 41.7685 58.5469 41.7685 58.2763C41.7685 57.7351 41.3605 57.0586 40.9525 56.788Z" fill="#D35229"/>
<path d="M15.9269 73.1589C15.9269 73.7001 15.5189 73.9707 15.1109 73.7001C14.7029 73.4295 14.2949 72.753 14.2949 72.2118C14.2949 71.6706 14.7029 71.4 15.1109 71.6706C15.6549 71.9412 15.9269 72.6177 15.9269 73.1589Z" fill="#B7541C"/>
<path d="M68.4258 155.015C67.7458 155.015 67.2018 154.88 66.6578 154.609L16.6096 125.791C14.7056 124.709 13.8896 122.273 14.9776 120.244L20.1456 110.367V83.1722L13.8896 73.4307C13.6176 73.0248 13.7536 72.4836 14.1616 72.213C14.5696 71.9425 15.1136 72.0777 15.3856 72.4836L21.7776 82.3604C21.9136 82.4957 21.9136 82.631 21.9136 82.9016V110.638C21.9136 110.773 21.9136 110.908 21.7776 111.044L16.6096 121.191C16.0656 122.273 16.4736 123.762 17.5616 124.438L67.4738 152.986C67.8818 153.257 68.8338 153.257 69.2418 152.986L93.8579 138.915L46.9377 111.991C46.5297 111.72 46.3937 111.179 46.6657 110.773C46.9377 110.367 47.4817 110.232 47.8897 110.502L95.0819 137.562C95.6259 137.833 95.8979 138.374 95.8979 138.915C95.8979 139.456 95.6259 139.997 95.0819 140.268L70.1938 154.474C69.6498 154.88 68.9698 155.015 68.4258 155.015Z" fill="#C1C1C1"/>
<path d="M63.5334 135.261C63.3974 135.261 63.3974 135.261 63.2614 135.126C63.1254 134.991 63.2614 134.855 63.3974 134.72L89.9175 119.567C90.0535 119.431 90.1895 119.567 90.3255 119.702C90.4615 119.837 90.3255 119.973 90.1895 120.108L63.6694 135.126C63.6694 135.261 63.5334 135.261 63.5334 135.261Z" fill="#C1C1C1"/>
<path d="M58.2307 132.149C58.0947 132.149 58.0947 132.149 57.9587 132.014C57.8227 131.878 57.9587 131.743 58.0947 131.608L84.6148 116.454C84.7508 116.319 84.8868 116.454 85.0228 116.59C85.1588 116.725 85.0228 116.86 84.8868 116.996L58.3667 132.149H58.2307Z" fill="#C1C1C1"/>
<path d="M52.924 129.173C52.788 129.173 52.788 129.173 52.652 129.038C52.516 128.902 52.652 128.767 52.788 128.632L79.3081 113.478C79.4441 113.343 79.5801 113.478 79.7161 113.614C79.8521 113.749 79.7161 113.884 79.5801 114.02L53.06 129.038L52.924 129.173Z" fill="#C1C1C1"/>
<path d="M47.6194 126.062C47.4834 126.062 47.4833 126.062 47.3473 125.926C47.2113 125.791 47.3473 125.656 47.4833 125.52L74.0034 110.367C74.1394 110.232 74.2754 110.367 74.4114 110.502C74.5474 110.638 74.4114 110.773 74.2754 110.908L47.7553 126.062C47.6193 126.062 47.6194 126.062 47.6194 126.062Z" fill="#C1C1C1"/>
<path d="M42.3186 122.949C42.1826 122.949 42.1826 122.949 42.0466 122.814C41.9106 122.679 42.0466 122.543 42.1826 122.408L68.7027 107.255C68.8387 107.119 68.9747 107.255 69.1107 107.39C69.2467 107.525 69.1107 107.661 68.9747 107.796L42.4546 122.949C42.3186 122.949 42.3186 122.949 42.3186 122.949Z" fill="#C1C1C1"/>
<path d="M37.0139 119.972C36.8779 119.972 36.8779 119.972 36.7419 119.837C36.6059 119.702 36.7419 119.566 36.8779 119.431L63.262 104.142C63.398 104.007 63.534 104.142 63.67 104.278C63.806 104.413 63.67 104.548 63.534 104.684L37.1499 119.972C37.0139 119.972 37.0139 119.972 37.0139 119.972Z" fill="#C1C1C1"/>
<path d="M31.7131 116.86C31.5771 116.86 31.5771 116.86 31.4411 116.725C31.3051 116.589 31.4411 116.454 31.5771 116.319L57.9612 101.165C58.0972 101.03 58.2332 101.165 58.3692 101.301C58.5052 101.436 58.3692 101.571 58.2332 101.707L31.8491 116.86C31.7131 116.86 31.7131 116.86 31.7131 116.86Z" fill="#C1C1C1"/>
<path d="M26.4065 113.884C26.2705 113.884 26.2705 113.884 26.1345 113.749C25.9985 113.614 26.1345 113.478 26.2705 113.343L52.7906 98.1898C52.9266 98.0545 53.0626 98.1898 53.1986 98.3251C53.3346 98.4604 53.1986 98.5957 53.0626 98.731L26.5425 113.884C26.4065 113.884 26.4065 113.884 26.4065 113.884Z" fill="#C1C1C1"/>
<path d="M20.967 110.772C20.831 110.772 20.831 110.772 20.695 110.637C20.559 110.501 20.695 110.366 20.831 110.231L47.3511 95.0775C47.4871 94.9422 47.6231 95.0775 47.7591 95.2128C47.8951 95.3481 47.7591 95.4834 47.6231 95.6187L21.239 110.772C21.103 110.772 21.103 110.772 20.967 110.772Z" fill="#C1C1C1"/>
<path d="M42.1802 98.596C42.0442 98.596 41.9082 98.4607 41.9082 98.3254V70.86C41.9082 70.7247 42.0442 70.5894 42.1802 70.5894C42.3162 70.5894 42.4522 70.7247 42.4522 70.86V98.3254C42.4522 98.4607 42.3162 98.596 42.1802 98.596Z" fill="#C1C1C1"/>
<path d="M37.0122 101.573C36.8762 101.573 36.7402 101.438 36.7402 101.302V73.837C36.7402 73.7017 36.8762 73.5664 37.0122 73.5664C37.1482 73.5664 37.2842 73.7017 37.2842 73.837V101.302C37.2842 101.438 37.2842 101.573 37.0122 101.573Z" fill="#C1C1C1"/>
<path d="M31.8462 104.549C31.7102 104.549 31.5742 104.413 31.5742 104.278V76.8126C31.5742 76.6773 31.7102 76.542 31.8462 76.542C31.9822 76.542 32.1182 76.6773 32.1182 76.8126V104.278C32.1182 104.549 31.9822 104.549 31.8462 104.549Z" fill="#C1C1C1"/>
<path d="M26.5435 107.661C26.4075 107.661 26.2715 107.526 26.2715 107.39V79.7896C26.2715 79.6543 26.4075 79.519 26.5435 79.519C26.6795 79.519 26.8155 79.6543 26.8155 79.7896V107.255C26.8155 107.526 26.6795 107.661 26.5435 107.661Z" fill="#C1C1C1"/>
<path d="M20.967 101.027C20.831 101.027 20.831 101.028 20.695 100.892C20.559 100.757 20.695 100.622 20.831 100.486L47.3511 85.1976C47.4871 85.0623 47.6231 85.1976 47.7591 85.3329C47.8951 85.4682 47.7591 85.6035 47.6231 85.7388L21.103 100.892C21.103 101.028 21.103 101.027 20.967 101.027Z" fill="#C1C1C1"/>
<path d="M94.8111 122.813H94.6751L47.3469 95.4833C47.2109 95.4833 47.2109 95.348 47.2109 95.2127V67.6119C47.2109 67.4766 47.2109 67.3413 47.3469 67.3413C47.4829 67.3413 47.6189 67.3413 47.6189 67.3413L94.9471 101.436C95.0831 101.436 95.0831 101.572 95.0831 101.707V122.543C95.0831 122.678 95.0831 122.813 94.9471 122.813H94.8111ZM47.7549 95.0774L94.5391 121.866V101.842L47.7549 68.1531V95.0774Z" fill="#C1C1C1"/>
<path d="M89.9146 119.973C89.7786 119.973 89.6426 119.838 89.6426 119.703V98.3258C89.6426 98.1905 89.7786 98.0552 89.9146 98.0552C90.0506 98.0552 90.1866 98.1905 90.1866 98.3258V119.703C90.3226 119.838 90.1866 119.973 89.9146 119.973Z" fill="#C1C1C1"/>
<path d="M84.7486 116.995C84.6126 116.995 84.4766 116.859 84.4766 116.724V94.5352C84.4766 94.3999 84.6126 94.2646 84.7486 94.2646C84.8846 94.2646 85.0206 94.3999 85.0206 94.5352V116.724C85.0206 116.859 84.8846 116.995 84.7486 116.995Z" fill="#C1C1C1"/>
<path d="M79.4458 113.883C79.3098 113.883 79.1738 113.748 79.1738 113.613V90.7472C79.1738 90.6119 79.3098 90.4766 79.4458 90.4766C79.5818 90.4766 79.7178 90.6119 79.7178 90.7472V113.613C79.7178 113.748 79.5818 113.883 79.4458 113.883Z" fill="#C1C1C1"/>
<path d="M74.1411 110.906C74.0051 110.906 73.8691 110.771 73.8691 110.635V86.9581C73.8691 86.8228 74.0051 86.6875 74.1411 86.6875C74.2771 86.6875 74.4131 86.8228 74.4131 86.9581V110.5C74.4131 110.771 74.2771 110.906 74.1411 110.906Z" fill="#C1C1C1"/>
<path d="M68.8384 107.931C68.7024 107.931 68.5664 107.796 68.5664 107.66V83.3067C68.5664 83.1714 68.7024 83.0361 68.8384 83.0361C68.9744 83.0361 69.1104 83.1714 69.1104 83.3067V107.66C69.2464 107.796 69.1104 107.931 68.8384 107.931Z" fill="#C1C1C1"/>
<path d="M63.6724 104.819C63.5364 104.819 63.4004 104.684 63.4004 104.549V79.5186C63.4004 79.3833 63.5364 79.248 63.6724 79.248C63.8084 79.248 63.9444 79.3833 63.9444 79.5186V104.549C63.9444 104.684 63.8084 104.819 63.6724 104.819Z" fill="#C1C1C1"/>
<path d="M58.3657 101.843C58.2298 101.843 58.0938 101.708 58.0938 101.573V75.5953C58.0938 75.46 58.2298 75.3247 58.3657 75.3247C58.5017 75.3247 58.6377 75.46 58.6377 75.5953V101.573C58.6377 101.708 58.5017 101.843 58.3657 101.843Z" fill="#C1C1C1"/>
<path d="M53.0611 98.729C52.9251 98.729 52.7891 98.5937 52.7891 98.4584V71.94C52.7891 71.8047 52.9251 71.6694 53.0611 71.6694C53.1971 71.6694 53.3331 71.8047 53.3331 71.94V98.5937C53.3331 98.5937 53.1971 98.729 53.0611 98.729Z" fill="#C1C1C1"/>
<path d="M94.8118 113.071H94.6758L47.4837 86.0114C47.3477 85.8761 47.3477 85.7408 47.3477 85.6055C47.4837 85.4702 47.6197 85.4702 47.7557 85.4702L94.9478 112.53C95.0838 112.665 95.0838 112.8 95.0838 112.936C95.0838 112.936 94.9478 113.071 94.8118 113.071Z" fill="#C1C1C1"/>
<path d="M20.967 83.1706C20.831 83.1706 20.831 83.1706 20.695 83.0353C20.559 82.9 20.695 82.7647 20.831 82.6294L47.3511 67.3407C47.4871 67.2054 47.6231 67.3407 47.7591 67.476C47.8951 67.6113 47.7591 67.7466 47.6231 67.8819L21.103 83.1706H20.967Z" fill="#C1C1C1"/>
<path d="M68.2857 137.97H68.1497L20.8215 110.775C20.6855 110.775 20.6855 110.639 20.6855 110.504V82.9034C20.6855 82.7681 20.6855 82.6328 20.8215 82.6328C20.9575 82.6328 21.0935 82.6328 21.0935 82.6328L68.4217 116.728C68.5577 116.728 68.5577 116.863 68.5577 116.999V137.834C68.5577 137.97 68.5577 138.105 68.4217 138.105C68.4217 137.97 68.2857 137.97 68.2857 137.97ZM21.2295 110.369L68.0137 137.158V117.134L21.2295 83.4446V110.369Z" fill="#C1C1C1"/>
<path d="M63.3911 135.264C63.2551 135.264 63.1191 135.128 63.1191 134.993V113.481C63.1191 113.345 63.2551 113.21 63.3911 113.21C63.5271 113.21 63.6631 113.345 63.6631 113.481V134.858C63.6631 135.128 63.5271 135.264 63.3911 135.264Z" fill="#C1C1C1"/>
<path d="M58.2212 132.152C58.0852 132.152 57.9492 132.017 57.9492 131.882V109.828C57.9492 109.693 58.0852 109.558 58.2212 109.558C58.3572 109.558 58.4932 109.693 58.4932 109.828V132.017C58.4932 132.017 58.3572 132.152 58.2212 132.152Z" fill="#C1C1C1"/>
<path d="M52.9185 129.175C52.7825 129.175 52.6465 129.039 52.6465 128.904V106.039C52.6465 105.903 52.7825 105.768 52.9185 105.768C53.0545 105.768 53.1905 105.903 53.1905 106.039V128.904C53.1905 129.039 53.0545 129.175 52.9185 129.175Z" fill="#C1C1C1"/>
<path d="M47.6158 126.199C47.4798 126.199 47.3438 126.064 47.3438 125.928V102.251C47.3438 102.116 47.4798 101.98 47.6158 101.98C47.7518 101.98 47.8877 102.116 47.8877 102.251V125.793C47.8877 126.064 47.7518 126.199 47.6158 126.199Z" fill="#C1C1C1"/>
<path d="M42.3111 123.087C42.1751 123.087 42.0391 122.951 42.0391 122.816V98.4625C42.0391 98.3272 42.1751 98.1919 42.3111 98.1919C42.4471 98.1919 42.5831 98.3272 42.5831 98.4625V122.816C42.5831 122.951 42.4471 123.087 42.3111 123.087Z" fill="#C1C1C1"/>
<path d="M37.0064 120.11C36.8704 120.11 36.7344 119.975 36.7344 119.839V94.8092C36.7344 94.6739 36.8704 94.5386 37.0064 94.5386C37.1424 94.5386 37.2784 94.6739 37.2784 94.8092V119.839C37.4144 119.975 37.2784 120.11 37.0064 120.11Z" fill="#C1C1C1"/>
<path d="M31.8384 117.133C31.7024 117.133 31.5664 116.998 31.5664 116.863V90.7501C31.5664 90.6148 31.7024 90.4795 31.8384 90.4795C31.9744 90.4795 32.1104 90.6148 32.1104 90.7501V116.727C32.1104 116.998 31.9744 117.133 31.8384 117.133Z" fill="#C1C1C1"/>
<path d="M26.5376 114.023C26.4016 114.023 26.2656 113.888 26.2656 113.752V87.0987C26.2656 86.9634 26.4016 86.8281 26.5376 86.8281C26.6736 86.8281 26.8096 86.9634 26.8096 87.0987V113.752C26.8096 113.888 26.6736 114.023 26.5376 114.023Z" fill="#C1C1C1"/>
<path d="M68.2884 128.229H68.1524L20.9602 101.169C20.8242 101.034 20.8242 100.899 20.8242 100.763C20.9602 100.628 21.0962 100.628 21.2322 100.628L68.2884 127.688L94.6725 112.534C94.8085 112.399 94.9445 112.534 95.0805 112.669C95.2165 112.805 95.0805 112.94 94.9445 113.075L68.4244 128.229H68.2884Z" fill="#C1C1C1"/>
<path d="M68.2912 137.969C68.1552 137.969 68.1552 137.969 68.0192 137.834C67.8832 137.699 68.0192 137.563 68.1552 137.428L94.6753 122.275C94.8113 122.139 94.9473 122.275 95.0833 122.41C95.2193 122.545 95.0833 122.681 94.9473 122.816L68.4272 137.969H68.2912Z" fill="#C1C1C1"/>
<path d="M68.2912 117.268C68.1552 117.268 68.1552 117.268 68.0192 117.133C67.8832 116.998 68.0192 116.862 68.1552 116.727L94.5393 101.574C94.6753 101.438 94.8113 101.574 94.9473 101.709C95.0833 101.844 94.9473 101.98 94.8113 102.115L68.4272 117.133C68.4272 117.268 68.2912 117.268 68.2912 117.268Z" fill="#C1C1C1"/>
<path d="M87.8736 126.603C87.7376 126.603 87.6016 126.468 87.6016 126.332V105.767C87.6016 105.632 87.7376 105.497 87.8736 105.497C88.0096 105.497 88.1456 105.632 88.1456 105.767V126.332C88.1456 126.468 88.0096 126.603 87.8736 126.603Z" fill="#C1C1C1"/>
<path d="M81.481 130.392C81.345 130.392 81.209 130.256 81.209 130.121V109.421C81.209 109.285 81.345 109.15 81.481 109.15C81.617 109.15 81.753 109.285 81.753 109.421V129.986C81.753 130.256 81.617 130.392 81.481 130.392Z" fill="#C1C1C1"/>
<path d="M74.9556 134.046C74.8196 134.046 74.6836 133.911 74.6836 133.775V113.075C74.6836 112.939 74.8196 112.804 74.9556 112.804C75.0916 112.804 75.2276 112.939 75.2276 113.075V133.64C75.3636 133.911 75.2276 134.046 74.9556 134.046Z" fill="#C1C1C1"/>
<path d="M15.2497 72.7528C15.3856 73.0233 15.5215 73.429 15.3856 73.5642C15.2497 73.6994 14.9778 73.429 14.7059 73.1585C14.57 72.888 14.434 72.4823 14.57 72.3471C14.8419 72.2119 15.1137 72.3471 15.2497 72.7528Z" fill="#F4F4F4"/>
<path d="M95.489 138.102C95.0812 137.967 94.6734 139.184 95.2172 139.319C95.625 139.319 96.0328 138.373 95.489 138.102Z" fill="#F4F4F4"/>
<path d="M40.833 55.5201C40.833 55.5201 40.6595 55.3475 40.833 55.5201V55.5201Z" fill="#FBBD9E"/>
<path d="M43.69 57.8265C42.9956 57.1357 40.7388 55.0633 40.218 54.7179C39.1764 53.5089 35.7044 55.7541 36.0516 56.7903C36.5724 58.3446 38.8292 61.2805 38.8292 61.9713C39.0028 62.8348 39.1764 63.8711 39.1764 64.5619C39.1764 64.9073 39.5236 65.2527 40.0444 65.08C41.086 64.7346 42.822 63.6984 43.5164 62.3167C44.0372 61.2805 44.3844 58.69 43.69 57.8265Z" fill="#FBBD9E"/>
<path d="M29.5373 71.3265C29.8845 69.9449 30.0581 68.2179 29.1901 67.0089C28.6693 66.4908 25.7182 64.4184 24.3294 63.2095C22.9406 62.0006 19.295 65.2819 19.9894 66.3181C20.8574 67.3543 22.767 68.736 23.9822 70.6357C24.1558 70.9811 24.503 71.6719 25.0238 72.19C26.4126 73.917 28.8429 73.3989 29.5373 71.3265Z" fill="#FBBD9E"/>
<path d="M36.7495 57.8267C37.0967 59.0356 36.7495 61.108 36.4023 61.9715L38.4855 60.7626C38.6591 60.4172 38.6591 60.2445 38.6591 60.0718C38.8327 59.8991 36.5759 57.3086 36.7495 57.8267Z" fill="#FBBD9E"/>
<defs>
<radialGradient id="paint0_radial_1_20978" cx="0" cy="0" r="1" gradientUnits="userSpaceOnUse" gradientTransform="translate(13.5647 49.8881) scale(17.0139 16.926)">
<stop stop-color="#F84F4D"/>
<stop offset="0.2872" stop-color="#A13332"/>
<stop offset="0.5416" stop-color="#5C1D1D"/>
<stop offset="0.7521" stop-color="#2A0D0D"/>
<stop offset="0.9111" stop-color="#0C0404"/>
<stop offset="1"/>
</radialGradient>
</defs>
</svg>
