<svg width="64" height="64" viewBox="0 0 64 64" fill="none" xmlns="http://www.w3.org/2000/svg">
<path fill-rule="evenodd" clip-rule="evenodd" d="M47.411 44.1779L42.1255 52.1558C37.553 52.8422 32.9339 53.1706 28.3103 53.1379C24.8091 53.149 21.3099 52.9721 17.8276 52.6083C17.0552 52.52 16.3159 52.4207 15.6207 52.3214C11.56 51.7145 9 50.8207 9 49.8276V47.0689C8.99849 39.3413 13.6041 32.3569 20.7076 29.3145H35.9131C42.0568 31.9491 46.4045 37.5694 47.411 44.1779Z" fill="#F29C1F"/>
<path fill-rule="evenodd" clip-rule="evenodd" d="M47.411 44.1779L42.1255 52.1558C37.553 52.8422 32.9339 53.1706 28.3103 53.1379C24.8091 53.149 21.3099 52.9721 17.8276 52.6083C17.0552 52.52 16.3159 52.4207 15.6207 52.3214C11.56 51.7145 9 50.8207 9 49.8276V47.0689C8.99849 39.3413 13.6041 32.3569 20.7076 29.3145H35.9131C42.0568 31.9491 46.4045 37.5694 47.411 44.1779Z" fill="url(#paint0_linear_1_10168)"/>
<path d="M45.3751 54.299C43.2039 54.299 40.8519 52.8017 38.9224 50.1911C37.0651 47.6786 36 44.6817 36 41.9693V40.049C36.0013 39.4896 36.174 38.944 36.4949 38.4858C36.8158 38.0276 37.2695 37.6788 37.7948 37.4865L43.9375 35.2527C44.8658 34.9158 45.883 34.9158 46.8114 35.2527L52.9543 37.4865C53.4796 37.6788 53.9333 38.0275 54.2543 38.4857C54.5753 38.9439 54.7481 39.4895 54.7494 40.049V41.9687C54.7494 44.6812 53.6842 47.6777 51.8271 50.1905C49.8983 52.8015 47.5463 54.299 45.3751 54.299Z" fill="url(#paint1_linear_1_10168)"/>
<path d="M44.8456 47.7548C44.5141 47.7548 44.1962 47.6231 43.9618 47.3887L41.1981 44.625C40.9637 44.3906 40.832 44.0727 40.832 43.7411C40.832 43.4096 40.9638 43.0916 41.1982 42.8572C41.4326 42.6228 41.7506 42.4911 42.0821 42.4911C42.4136 42.4911 42.7316 42.6229 42.966 42.8573L44.8456 44.737L48.1069 41.4755C48.3417 41.2428 48.6591 41.1126 48.9896 41.1133C49.3202 41.114 49.637 41.2456 49.8708 41.4794C50.1045 41.7131 50.2362 42.03 50.2369 42.3605C50.2376 42.6911 50.1074 43.0085 49.8746 43.2433L45.7293 47.3887C45.4949 47.623 45.1771 47.7547 44.8456 47.7548Z" fill="url(#paint2_linear_1_10168)"/>
<path fill-rule="evenodd" clip-rule="evenodd" d="M39.897 20.5863C39.897 26.9852 34.7097 32.1725 28.3108 32.1725C21.9119 32.1725 16.7246 26.9852 16.7246 20.5863C16.7246 14.1875 21.9119 9.00014 28.3108 9.00014C31.3883 8.98508 34.344 10.2009 36.5201 12.377C38.6962 14.5531 39.9121 17.5089 39.897 20.5863Z" fill="#FDD7AD"/>
<path fill-rule="evenodd" clip-rule="evenodd" d="M17.828 44.3105V52.6084C17.0556 52.5201 16.3163 52.4208 15.6211 52.3215V44.3105C15.6211 43.7011 16.1151 43.207 16.7245 43.207C17.334 43.207 17.828 43.7011 17.828 44.3105Z" fill="#BB641A" fill-opacity="0.6"/>
<defs>
<linearGradient id="paint0_linear_1_10168" x1="68.5" y1="67.5" x2="37.8515" y2="16.2433" gradientUnits="userSpaceOnUse">
<stop stop-color="#F12711"/>
<stop offset="1" stop-color="#F5AF19"/>
</linearGradient>
<linearGradient id="paint1_linear_1_10168" x1="60.2296" y1="58.0641" x2="33.9839" y2="31.8183" gradientUnits="userSpaceOnUse">
<stop stop-color="#0C9258"/>
<stop offset="1" stop-color="#89D935"/>
</linearGradient>
<linearGradient id="paint2_linear_1_10168" x1="56.1794" y1="53.6931" x2="40.4228" y2="37.9367" gradientUnits="userSpaceOnUse">
<stop stop-color="#B3B3B3"/>
<stop offset="1" stop-color="white"/>
</linearGradient>
</defs>
</svg>
