<svg width="23" height="26" viewBox="0 0 23 26" fill="none" xmlns="http://www.w3.org/2000/svg">
<path d="M22.0001 11.4999C21.7241 11.4999 21.5001 11.2759 21.5001 10.9999C21.5001 8.0619 20.3561 5.2989 18.2781 3.2219C18.0831 3.0269 18.0831 2.7099 18.2781 2.5149C18.4731 2.3199 18.7901 2.3199 18.9851 2.5149C21.2521 4.7809 22.5001 7.7939 22.5001 10.9999C22.5001 11.2759 22.2761 11.4999 22.0001 11.4999Z" fill="#A6A6A6" stroke="#A6A6A6" stroke-width="0.3"/>
<path d="M1 11.4999C0.724 11.4999 0.5 11.2759 0.5 10.9999C0.5 7.7939 1.748 4.7809 4.015 2.5149C4.21 2.3199 4.527 2.3199 4.722 2.5149C4.917 2.7099 4.917 3.0269 4.722 3.2219C2.644 5.2989 1.5 8.0619 1.5 10.9999C1.5 11.2759 1.276 11.4999 1 11.4999Z" fill="#A6A6A6" stroke="#A6A6A6" stroke-width="0.3"/>
<path d="M13 5.18C12.724 5.18 12.5 4.956 12.5 4.68V3C12.5 2.449 12.051 2 11.5 2C10.949 2 10.5 2.449 10.5 3V4.68C10.5 4.956 10.276 5.18 10 5.18C9.724 5.18 9.5 4.957 9.5 4.68V3C9.5 1.897 10.397 1 11.5 1C12.603 1 13.5 1.897 13.5 3V4.68C13.5 4.957 13.276 5.18 13 5.18Z" fill="#A6A6A6" stroke="#A6A6A6" stroke-width="0.3"/>
<path d="M11.5 25C9.57 25 8 23.43 8 21.5C8 21.224 8.224 21 8.5 21C8.776 21 9 21.224 9 21.5C9 22.878 10.122 24 11.5 24C12.878 24 14 22.878 14 21.5C14 21.224 14.224 21 14.5 21C14.776 21 15 21.224 15 21.5C15 23.43 13.43 25 11.5 25Z" fill="#A6A6A6" stroke="#A6A6A6" stroke-width="0.3"/>
<path d="M20 22H3C2.173 22 1.5 21.327 1.5 20.5C1.5 20.061 1.691 19.646 2.025 19.36C3.601 18.028 4.5 16.09 4.5 14.038V11C4.5 7.14 7.64 4 11.5 4C15.36 4 18.5 7.14 18.5 11V14.038C18.5 16.091 19.399 18.028 20.967 19.353C21.309 19.646 21.5 20.061 21.5 20.5C21.5 21.327 20.828 22 20 22ZM11.5 5C8.191 5 5.5 7.691 5.5 11V14.038C5.5 16.386 4.472 18.601 2.679 20.117C2.564 20.215 2.5 20.354 2.5 20.5C2.5 20.776 2.724 21 3 21H20C20.276 21 20.5 20.776 20.5 20.5C20.5 20.354 20.436 20.215 20.325 20.12C18.529 18.601 17.5 16.385 17.5 14.038V11C17.5 7.691 14.809 5 11.5 5Z" fill="#A6A6A6" stroke="#A6A6A6" stroke-width="0.3"/>
</svg>
