<svg width="89" height="89" viewBox="0 0 89 89" fill="none" xmlns="http://www.w3.org/2000/svg">
<g clip-path="url(#clip0_147_4533)">
<path d="M76.6008 44.6362L74.6317 39.0411L53.3922 60.2813C51.3171 62.3605 48.5525 63.5038 45.6153 63.5038C42.6788 63.5038 39.9142 62.3605 37.8391 60.2813L22.2564 44.6986C20.1772 42.6234 19.0332 39.8588 19.0332 36.9223C19.0332 33.9852 20.1772 31.2206 22.2564 29.1454C24.3315 27.0669 27.0961 25.9229 30.0326 25.9229C32.9698 25.9229 35.7344 27.0669 37.8095 29.1454L45.6153 36.9478L66.5292 16.0346L65.1207 12.0381L64.4722 8.15902C64.0653 5.67301 62.4259 3.61264 60.0977 2.64791C57.7587 1.67646 55.1485 1.97723 53.0988 3.44748L42.9098 10.8243L32.6066 3.42869C30.5388 1.96984 27.9212 1.67982 25.5963 2.65529C23.2869 3.62338 21.6622 5.68039 21.2554 8.15163L19.2608 20.5696L6.76898 22.6447C4.287 23.0522 2.22663 24.691 1.25854 27.0193C0.290453 29.3549 0.591218 31.9725 2.06147 34.0221L9.43491 44.2112L2.03932 54.5137C0.583833 56.5815 0.290453 59.2031 1.26592 61.524C2.23737 63.8341 4.29036 65.4581 6.7616 65.8656L19.1802 67.8635L21.2554 80.3513C21.6589 82.8299 23.2869 84.8869 25.5963 85.855C27.9246 86.8298 30.5462 86.5405 32.6327 85.0628L42.8218 77.686L53.0988 85.0628C54.3563 85.9611 55.8192 86.423 57.3042 86.423C58.2461 86.423 59.192 86.2397 60.0977 85.8624C62.4299 84.8943 64.0653 82.834 64.4722 80.3587L66.4701 67.9407L78.9579 65.8656C81.4365 65.4581 83.4902 63.8341 84.4616 61.524C85.4371 59.2031 85.1471 56.5815 83.6694 54.4882L76.6008 44.6362Z" fill="#0BC15C"/>
<path d="M45.6155 56.1714C44.677 56.1714 43.7384 55.8122 43.0234 55.0972L27.4407 39.5145C26.0074 38.0812 26.0074 35.7637 27.4407 34.3304C28.8747 32.8963 31.1916 32.8963 32.6256 34.3304L45.6155 47.3203L82.4377 10.4981C83.8717 9.06476 86.1885 9.06476 87.6225 10.4981C89.0559 11.9314 89.0559 14.2489 87.6225 15.6823L48.2076 55.0972C47.4926 55.8122 46.5541 56.1714 45.6155 56.1714Z" fill="black"/>
</g>
<defs>
<clipPath id="clip0_147_4533">
<rect width="88" height="88" fill="white" transform="translate(0.697266 0.19043)"/>
</clipPath>
</defs>
</svg>
