<svg width="17" height="18" viewBox="0 0 17 18" fill="none" xmlns="http://www.w3.org/2000/svg">
<path fill-rule="evenodd" clip-rule="evenodd" d="M8.98912 10.1289L15.6378 16.7776C15.9485 17.0884 16.4568 17.0886 16.7673 16.7781C17.0778 16.4676 17.0776 15.9593 16.7668 15.6486L10.1181 8.99991L16.7668 2.35124C17.0776 2.0405 17.0778 1.53223 16.7673 1.22175C16.4568 0.911268 15.9485 0.911478 15.6378 1.22222L8.98912 7.87089L2.34043 1.22221C2.02969 0.911467 1.52142 0.911256 1.21094 1.22174C0.900462 1.53222 0.900674 2.04049 1.21141 2.35122L7.8601 8.99991L1.2114 15.6486C0.900664 15.9593 0.900452 16.4676 1.21093 16.7781C1.52141 17.0886 2.02968 17.0884 2.34042 16.7776L8.98912 10.1289Z" fill="#070909"/>
</svg>
