<svg width="10" height="10" viewBox="0 0 10 10" fill="none" xmlns="http://www.w3.org/2000/svg">
<path d="M5.94404 5L9.86307 1.08063C9.95122 0.992399 9.99986 0.874691 10 0.749178C10 0.623595 9.95136 0.505747 9.86307 0.417658L9.58223 0.136873C9.49394 0.0484352 9.37624 0 9.25059 0C9.12516 0 9.00746 0.0484352 8.91916 0.136873L5.00014 4.05604L1.08098 0.136873C0.992822 0.0484352 0.875052 0 0.749477 0C0.624042 0 0.506272 0.0484352 0.418118 0.136873L0.137143 0.417658C-0.0457143 0.600527 -0.0457143 0.897968 0.137143 1.08063L4.05624 5L0.137143 8.91923C0.0489199 9.0076 0.000348416 9.12531 0.000348416 9.25082C0.000348416 9.37634 0.0489199 9.49404 0.137143 9.58234L0.418049 9.86313C0.506202 9.9515 0.624042 10 0.749408 10C0.874983 10 0.992752 9.9515 1.08091 9.86313L5.00007 5.94389L8.91909 9.86313C9.00739 9.9515 9.12509 10 9.25052 10C9.37603 10 9.49387 9.9515 9.58216 9.86313L9.863 9.58234C9.95115 9.49411 9.99979 9.37634 9.99979 9.25082C9.99979 9.12531 9.95115 9.0076 9.863 8.9193L5.94404 5Z" fill="black" fill-opacity="0.3"/>
</svg>
