<svg width="17" height="17" viewBox="0 0 17 17" fill="none" xmlns="http://www.w3.org/2000/svg">
<g clip-path="url(#clip0_4194_68)">
<path d="M8.38756 8.03733C8.38756 8.03733 7.90567 5.24035 10.3117 3.61945C12.8964 1.87723 15.4946 3.94969 15.4946 3.94969C15.4946 3.94969 15.9967 6.62536 13.7423 8.24963C11.7203 9.70204 9.48276 9.06513 8.38756 8.03733Z" fill="#F58E8E"/>
<path d="M8.34039 7.70028C8.34039 7.70028 8.65042 10.5209 11.407 11.4172C14.3724 12.3776 16.2966 9.67165 16.2966 9.67165C16.2966 9.67165 16.0405 6.95891 13.4255 6.02209C11.0835 5.183 9.10872 6.40963 8.34039 7.70028Z" fill="#EA556E"/>
<path d="M8.08092 8.12468C8.08092 8.12468 10.7397 7.13057 12.7819 9.18955C14.9756 11.4035 13.4289 14.3421 13.4289 14.3421C13.4289 14.3421 10.8948 15.3362 8.87621 13.4255C7.06997 11.7068 7.27553 9.39174 8.08092 8.12468Z" fill="#A052CF"/>
<path d="M8.40104 8.01367C8.40104 8.01367 5.68831 8.84603 5.32436 11.7239C4.93683 14.814 7.95285 16.2024 7.95285 16.2024C7.95285 16.2024 10.5679 15.4442 10.9992 12.6978C11.3901 10.2378 9.81301 8.52926 8.40104 8.01367Z" fill="#6C65E7"/>
<path d="M7.99329 7.85148C7.99329 7.85148 9.40189 10.3148 7.70011 12.6603C5.87028 15.1809 2.71947 14.1261 2.71947 14.1261C2.71947 14.1261 1.33109 11.7841 2.8947 9.48586C4.29319 7.43025 6.61165 7.26175 7.99329 7.85148Z" fill="#59B5E3"/>
<path d="M8.15168 8.1514C8.15168 8.1514 6.89472 5.60716 3.99665 5.71163C0.882902 5.8262 0 9.02756 0 9.02756C0 9.02756 1.16934 11.4876 3.9461 11.4707C6.43642 11.4572 7.87198 9.6274 8.15168 8.1514Z" fill="#4FBAAA"/>
<path d="M8.23256 7.70034C8.23256 7.70034 6.02868 9.48973 3.43726 8.18223C0.653757 6.78037 1.18956 3.5015 1.18956 3.5015C1.18956 3.5015 3.27887 1.75591 5.79616 2.92525C8.05396 3.98002 8.5965 6.24119 8.23256 7.70034Z" fill="#9EE39D"/>
<path d="M7.96297 7.90568C7.96297 7.90568 10.2713 6.25445 9.70181 3.41029C9.0885 0.353835 5.78604 0 5.78604 0C5.78604 0 3.54846 1.55013 4.01013 4.28983C4.42462 6.74645 6.46338 7.86524 7.96297 7.90568Z" fill="#FF9A0B"/>
<path d="M8.43811 7.92609C8.43811 7.92609 6.28815 6.07267 7.11376 3.29254C8.0034 0.306847 11.3227 0.25293 11.3227 0.25293C11.3227 0.25293 13.412 1.99851 12.7043 4.68429C12.0674 7.09373 9.9377 8.02381 8.43811 7.92609Z" fill="#EF6753"/>
</g>
<defs>
<clipPath id="clip0_4194_68">
<rect width="16.3" height="16.2023" fill="white"/>
</clipPath>
</defs>
</svg>
