<svg width="47" height="47" viewBox="0 0 47 47" fill="none" xmlns="http://www.w3.org/2000/svg">
<g clip-path="url(#clip0_1_10336)">
<path d="M39.9964 3.37571C35.4955 -1.12524 28.1979 -1.12524 23.697 3.37571C19.1961 7.87666 19.1961 15.1742 23.697 19.6751C28.1979 24.1761 35.4955 24.1761 39.9964 19.6751C44.4974 15.1742 44.4974 7.87666 39.9964 3.37571Z" fill="#E4EAF8"/>
<path d="M26.5344 19.6751C22.0334 15.1742 22.0334 7.87663 26.5344 3.37533C28.4234 1.48631 30.8048 0.390834 33.2657 0.0871134C29.8631 -0.33243 26.3092 0.763403 23.6973 3.37533C19.196 7.87663 19.196 15.1742 23.6973 19.6751C26.3092 22.287 29.8631 23.3829 33.2657 22.9633C30.8048 22.66 28.4234 21.5641 26.5344 19.6751Z" fill="#D8DCE5"/>
<path d="M36.0223 8.60147C36.0223 10.9075 34.153 12.7771 31.8466 12.7771C29.5405 12.7771 27.6709 10.9075 27.6709 8.60147C27.6709 6.29507 29.5405 4.42578 31.8466 4.42578C34.153 4.42578 36.0223 6.29507 36.0223 8.60147Z" fill="#FFCDBF"/>
<path d="M30.508 8.60147C30.508 6.79314 31.6572 5.25411 33.2651 4.6732C32.8223 4.51328 32.3447 4.42578 31.8466 4.42578C29.5405 4.42578 27.6709 6.29507 27.6709 8.60147C27.6709 10.9075 29.5405 12.7771 31.8466 12.7771C32.3447 12.7771 32.8223 12.6897 33.2651 12.5294C31.6576 11.9488 30.508 10.4094 30.508 8.60147Z" fill="#FFBEAB"/>
<path d="M34.7975 5.6492L34.7982 5.64741C32.5778 3.42815 28.7693 4.38126 27.8535 7.38043C29.4298 8.95497 31.9553 9.01055 33.5976 7.52853C33.6694 7.46362 33.7791 7.46147 33.8519 7.52494C34.45 8.04345 35.1969 8.39486 36.0206 8.50638C35.9955 7.39047 35.5325 6.38358 34.7975 5.6492Z" fill="#576574"/>
<path d="M31.8108 4.42589C29.9742 4.44166 28.3806 5.65188 27.8535 7.37952C28.5929 8.1182 29.541 8.52232 30.5088 8.59045C30.5131 6.78822 31.6595 5.25457 33.2624 4.67402C32.8105 4.51087 32.3311 4.4223 31.8108 4.42589Z" fill="#3E4B5A"/>
<path d="M36.4964 12.7773H27.1983C25.499 12.7773 24.1084 14.1679 24.1084 15.8673V20.0656C28.4932 24.0451 35.2019 24.0451 39.5867 20.0656V15.8673C39.5867 14.1679 38.1961 12.7773 36.4964 12.7773Z" fill="#E11A7D"/>
<path d="M26.5349 19.6751C25.4778 18.618 24.6689 17.4063 24.1084 16.1133V20.0649C26.0784 21.8499 28.6326 22.9432 31.4378 23.0422C32.0474 23.064 32.6541 23.0379 33.2626 22.9629C30.8031 22.6588 28.4229 21.563 26.5349 19.6751Z" fill="#B9492F"/>
<path d="M28.231 22.4697V17.0608C28.231 16.6693 27.9137 16.3516 27.5218 16.3516C27.1302 16.3516 26.8125 16.6693 26.8125 17.0608V21.8945C27.2747 22.119 27.7488 22.3108 28.231 22.4697Z" fill="#B9492F"/>
<path d="M36.8814 17.0608C36.8814 16.6693 36.5641 16.3516 36.1722 16.3516C35.7806 16.3516 35.4629 16.6693 35.4629 17.0608V22.4697C35.9455 22.3108 36.4192 22.119 36.8814 21.8945V17.0608Z" fill="#B9492F"/>
<path d="M40.6632 39.8237L30.7523 29.9124C30.2832 29.4437 29.5159 29.4437 29.0468 29.9124L24.8069 34.1523C24.3924 34.5672 23.7201 34.5672 23.3055 34.1523L12.9389 23.7856C12.524 23.3711 12.524 22.6988 12.9389 22.2843L17.1788 18.0444C17.6474 17.5753 17.6474 16.808 17.1788 16.3389L7.26751 6.42767C6.79848 5.959 6.03111 5.959 5.56244 6.42767L3.13591 8.85421C-0.922906 12.913 -0.922906 19.5551 3.13591 23.6139C3.6953 24.1733 23.141 43.6189 23.4769 43.9553C27.5361 48.0141 34.1782 48.0141 38.237 43.9553L40.6632 41.5287C41.1322 41.0601 41.1322 40.2927 40.6632 39.8237Z" fill="#15BA8B"/>
<path d="M30.7526 29.914C30.2836 29.4453 29.5162 29.4453 29.0472 29.914L24.8073 34.1539C24.6212 34.3403 24.3831 34.4422 24.1396 34.4612L24.9235 35.245C25.4506 35.7721 26.3051 35.7721 26.8322 35.245L31.4579 30.6193L30.7526 29.914Z" fill="#11AA7B"/>
<path d="M26.3144 43.9553C25.9781 43.6189 6.53241 24.1733 5.97302 23.6139C1.91421 19.5551 1.91421 12.913 5.97302 8.85421L7.83336 6.99388L7.26751 6.42767C6.79848 5.959 6.03111 5.959 5.56209 6.42767L3.13591 8.85421C-0.922906 12.913 -0.922906 19.5551 3.13591 23.6139C3.6953 24.1733 23.141 43.6186 23.4769 43.9553C25.8662 46.3442 29.1501 47.3263 32.2759 46.9032C30.0914 46.6074 27.9843 45.6249 26.3144 43.9553Z" fill="#11AA7B"/>
<path d="M40.6628 39.8253L30.7519 29.914C30.2828 29.4453 29.5155 29.4453 29.0464 29.914L27.2295 31.7313L38.8458 43.3476L40.6628 41.5303C41.1318 41.0617 41.1318 40.2943 40.6628 39.8253Z" fill="#1DD1A1"/>
<path d="M17.1788 16.3389L7.26749 6.42767C6.79846 5.959 6.03109 5.959 5.56242 6.42767L3.74512 8.24498L15.3615 19.8613L17.1788 18.0444C17.6474 17.5753 17.6474 16.808 17.1788 16.3389Z" fill="#1DD1A1"/>
<path d="M31.4568 30.6175C31.2019 30.3622 31.0068 30.1675 30.7515 29.9122C30.2835 29.4442 29.5162 29.4424 29.0464 29.9122L27.2295 31.7295L28.7872 33.2872L31.4568 30.6175Z" fill="#15BA8B"/>
<path d="M3.74512 8.24496L5.20885 9.70833C5.44551 9.41322 5.69975 9.12743 5.97334 8.85419L7.83366 6.99387C7.55863 6.71884 7.54285 6.70306 7.26746 6.42767C6.79844 5.95901 6.03107 5.95901 5.56241 6.42767L3.74512 8.24496Z" fill="#15BA8B"/>
</g>
<defs>
<clipPath id="clip0_1_10336">
<rect width="47" height="47" fill="white"/>
</clipPath>
</defs>
</svg>
