<svg width="76" height="76" viewBox="0 0 76 76" fill="none" xmlns="http://www.w3.org/2000/svg">
<g clip-path="url(#clip0_3096_93)">
<path d="M5.15181 40.0551C3.41554 41.7914 3.41554 44.6065 5.15181 46.3428L29.6563 70.8473C31.3926 72.5836 34.2077 72.5836 35.944 70.8473L37.9454 68.8461L40.9094 38.71L37.9454 7.26172L5.15181 40.0551Z" fill="#EBEBF0"/>
<path d="M74.6973 25.8066L69.2776 20.387L64.6468 18.7249L62.588 13.6973L50.1929 1.30221C48.4566 -0.434068 45.6415 -0.434068 43.9052 1.30221L37.9453 7.26212V68.8463L74.6974 32.0942C76.4335 30.358 76.4335 27.543 74.6973 25.8066Z" fill="#D2D2D7"/>
<path d="M17.5645 58.7139L62.5771 13.7012L69.2657 20.3898L24.253 65.4025L17.5645 58.7139Z" fill="#373C41"/>
<path d="M4.45312 29.2305C1.99366 29.2305 0 31.2241 0 33.6836V71.5467C0 74.0062 1.99366 75.9999 4.45312 75.9999H38L40.9688 52.0363L38 29.2305H4.45312Z" fill="#FFA2C1"/>
<path d="M71.5469 29.2305H38V75.9999H71.5469C74.0063 75.9999 76 74.0062 76 71.5467V33.6836C76 31.2241 74.0063 29.2305 71.5469 29.2305Z" fill="#F37BB6"/>
<path d="M6.9375 61.8838H17.9596V66.3369H6.9375V61.8838Z" fill="#FFF5F5"/>
<path d="M23.9717 61.8838H34.9938V66.3369H23.9717V61.8838Z" fill="#FFF5F5"/>
<path d="M41.0059 61.8838H52.0279V66.3369H41.0059V61.8838Z" fill="#EBEBF0"/>
<path d="M58.04 61.8838H69.0621V66.3369H58.04V61.8838Z" fill="#EBEBF0"/>
<path d="M19.213 49.7281H8.42188C7.60205 49.7281 6.9375 49.0635 6.9375 48.2437V41.752C6.9375 40.9321 7.60205 40.2676 8.42188 40.2676H19.213C20.0328 40.2676 20.6974 40.9321 20.6974 41.752V48.2437C20.6974 49.0635 20.0327 49.7281 19.213 49.7281Z" fill="#FFEB99"/>
</g>
<defs>
<clipPath id="clip0_3096_93">
<rect width="76" height="76" fill="white"/>
</clipPath>
</defs>
</svg>
