<svg width="16" height="16" viewBox="0 0 16 16" fill="none" xmlns="http://www.w3.org/2000/svg">
<g clip-path="url(#clip0_1187_464)">
<path d="M4.95735 16C4.66142 16.0001 4.36597 15.9761 4.07391 15.9284C3.09423 15.7688 2.19891 15.3512 1.48829 14.7206C0.431413 13.7847 -0.104837 12.4825 0.0170379 11.1481C0.11485 10.0759 0.63735 9.07031 1.48829 8.31688L9.8211 0.9375C10.5045 0.333125 11.4064 0 12.3633 0C13.3202 0 14.2217 0.333125 14.9064 0.9375C15.8752 1.79562 16.2364 3.06563 15.848 4.25219C15.6655 4.81031 15.3208 5.325 14.8511 5.74094L13.2277 7.17844L8.13329 11.6875C7.6536 12.1122 7.11235 12.375 6.56735 12.4509C6.24933 12.4961 5.92527 12.4709 5.61804 12.3772C5.31081 12.2834 5.02788 12.1234 4.78923 11.9084C4.28141 11.4591 4.00204 10.8537 4.00204 10.2037C4.00204 9.55375 4.28141 8.94969 4.78923 8.5L9.93766 3.94219C10.093 3.80613 10.2958 3.73708 10.5019 3.75014C10.7079 3.76319 10.9004 3.85728 11.0373 4.01185C11.1742 4.16641 11.2444 4.36888 11.2324 4.57501C11.2205 4.78114 11.1274 4.97415 10.9736 5.11188L5.82485 9.67C5.65704 9.81875 5.56454 10.0087 5.56454 10.205C5.56454 10.4012 5.65829 10.5912 5.82485 10.74C6.28673 11.1487 6.8686 10.7216 7.09735 10.5191L12.1911 6.00969L13.8161 4.57219C14.0666 4.35706 14.2556 4.07941 14.3639 3.7675C14.558 3.17375 14.3739 2.55344 13.8711 2.10844C13.0549 1.38531 11.6752 1.38531 10.8589 2.10844L2.52423 9.48687C1.97235 9.97531 1.63454 10.6159 1.57298 11.29C1.49704 12.125 1.84391 12.9478 2.52423 13.5506C3.01485 13.985 3.63766 14.2741 4.32548 14.3862C5.45048 14.5697 6.60048 14.2575 7.3986 13.5506L14.1283 7.59156C14.2836 7.4555 14.4864 7.38646 14.6925 7.39951C14.8986 7.41256 15.0911 7.50666 15.228 7.66122C15.3649 7.81579 15.435 8.01826 15.423 8.22438C15.4111 8.43051 15.3181 8.62353 15.1642 8.76125L8.43454 14.7203C7.50016 15.5469 6.24673 16 4.95735 16Z" fill="#374255"/>
</g>
<defs>
<clipPath id="clip0_1187_464">
<rect width="16" height="16" fill="white"/>
</clipPath>
</defs>
</svg>
