<svg width="50" height="50" viewBox="0 0 50 50" fill="none" xmlns="http://www.w3.org/2000/svg">
<g clip-path="url(#clip0_3280_1088)">
<path d="M25 50C38.8071 50 50 38.8071 50 25C50 11.1929 38.8071 0 25 0C11.1929 0 0 11.1929 0 25C0 38.8071 11.1929 50 25 50Z" fill="url(#paint0_linear_3280_1088)"/>
<path d="M34.4361 21.1542C34.2915 20.8543 33.9889 20.6629 33.6559 20.6629H28.1319L32.699 11.5093C32.8333 11.2407 32.819 10.9214 32.661 10.6656C32.503 10.4099 32.2247 10.2539 31.9246 10.2539H21.5377C21.1768 10.2539 20.8539 10.4784 20.7271 10.8164L15.5336 24.695C15.4339 24.9618 15.471 25.2601 15.6326 25.4938C15.7949 25.7276 16.0603 25.8674 16.3443 25.8674H22.1599L18.9672 38.6686C18.8683 39.0642 19.0577 39.475 19.4229 39.6562C19.7933 39.838 20.2304 39.7357 20.4828 39.4208L34.3322 22.0725C34.54 21.8115 34.5797 21.4549 34.4361 21.1542Z" fill="url(#paint1_linear_3280_1088)"/>
</g>
<defs>
<linearGradient id="paint0_linear_3280_1088" x1="25" y1="50" x2="25" y2="0" gradientUnits="userSpaceOnUse">
<stop stop-color="#FFE59A"/>
<stop offset="1" stop-color="#FFFFD5"/>
</linearGradient>
<linearGradient id="paint1_linear_3280_1088" x1="24.9999" y1="39.7461" x2="24.9999" y2="10.2539" gradientUnits="userSpaceOnUse">
<stop stop-color="#FFDE00"/>
<stop offset="1" stop-color="#FD5900"/>
</linearGradient>
<clipPath id="clip0_3280_1088">
<rect width="50" height="50" fill="white"/>
</clipPath>
</defs>
</svg>
