<svg width="97" height="97" viewBox="0 0 97 97" fill="none" xmlns="http://www.w3.org/2000/svg">
<g clip-path="url(#clip0_1_22224)">
<path d="M96.3082 45.0117V55.3964H67.9066V43.5333C67.9104 41.1811 67.212 38.8823 65.9004 36.9305C67.6751 35.4933 69.8763 34.6842 72.1591 34.6289C73.7988 36.847 76.3713 38.1848 79.1295 38.2523C81.8866 38.3208 84.5219 37.1123 86.2694 34.9767C86.3557 34.8577 86.4541 34.7461 86.5619 34.6458C92.0379 34.9852 96.3063 39.5245 96.3082 45.0117Z" fill="#719DFF"/>
<path d="M88.4017 17.3229V21.9382C88.4017 27.0363 84.2692 31.1688 79.172 31.1688C74.0739 31.1688 69.9414 27.0363 69.9414 21.9382V17.3229C69.9414 12.2248 74.0739 8.09229 79.172 8.09229C84.2692 8.09229 88.4017 12.2248 88.4017 17.3229Z" fill="#719DFF"/>
<path d="M65.9014 36.9303C67.213 38.8822 67.9114 41.1809 67.9077 43.5331V60.6687H28.7539V43.5331C28.7567 37.0972 33.8867 31.8369 40.3198 31.6719C42.193 34.205 45.1311 35.7312 48.2811 35.8091C51.4302 35.8859 54.4395 34.5059 56.4355 32.0684C56.5358 31.9316 56.6483 31.805 56.772 31.6887C60.4658 31.9166 63.8427 33.8553 65.9014 36.9303Z" fill="#E11A7D"/>
<path d="M58.8742 11.8986V17.172C58.8742 22.9948 54.1539 27.7161 48.3302 27.7161C42.5064 27.7161 37.7852 22.9948 37.7852 17.172V11.8986C37.7852 6.07574 42.5064 1.35449 48.3302 1.35449C54.1539 1.35449 58.8742 6.07574 58.8742 11.8986Z" fill="#E11A7D"/>
<path d="M30.3058 36.6164L30.7239 36.9886C29.4348 38.9273 28.7495 41.2045 28.7533 43.5333V55.3964H0.308594V45.0117C0.310469 39.3783 4.80109 34.7733 10.4317 34.6289C12.0714 36.847 14.643 38.1848 17.4002 38.2523C20.1583 38.3208 22.7927 37.1123 24.5392 34.9767C24.6264 34.8577 24.7248 34.747 24.8317 34.6458C26.808 34.7648 28.7083 35.4483 30.3058 36.6164Z" fill="#719DFF"/>
<path d="M26.6752 17.3229V21.9382C26.6752 27.0363 22.5427 31.1688 17.4445 31.1688C12.3473 31.1688 8.21484 27.0363 8.21484 21.9382V17.3229C8.21484 12.2248 12.3473 8.09229 17.4445 8.09229C22.5427 8.09229 26.6752 12.2248 26.6752 17.3229Z" fill="#719DFF"/>
<path d="M49.328 67.7695C48.7655 67.207 47.8542 67.207 47.2917 67.7695L40.3008 74.7614C39.7383 75.3239 39.7383 76.2352 40.3008 76.7977C40.8633 77.3602 41.7745 77.3602 42.337 76.7977L46.6223 72.5114V93.0427C46.6223 93.8377 47.2673 94.4827 48.0623 94.4827C48.8583 94.4827 49.5023 93.8377 49.5023 93.0427V72.0173L54.2827 76.7977C54.8452 77.3602 55.7564 77.3602 56.3189 76.7977C56.8814 76.2352 56.8814 75.3239 56.3189 74.7614L49.328 67.7695Z" fill="#6FE3FF"/>
<path d="M26.4759 92.6122L12.6693 80.5026H18.7293C19.5243 80.5026 20.1693 79.8576 20.1693 79.0626C20.1693 78.2676 19.5243 77.6226 18.7293 77.6226H8.84336C8.82836 77.6226 8.81336 77.6244 8.79836 77.6254C8.77398 77.6254 8.75055 77.6263 8.7243 77.6282C8.69898 77.6301 8.67648 77.6338 8.65117 77.6366C8.62586 77.6404 8.60805 77.6432 8.58648 77.6469C8.56117 77.6516 8.53586 77.6572 8.51055 77.6629C8.48992 77.6676 8.47023 77.6722 8.45055 77.6779C8.42617 77.6854 8.40086 77.6929 8.37648 77.7022C8.35586 77.7088 8.33617 77.7163 8.31648 77.7238C8.2968 77.7322 8.27148 77.7426 8.24805 77.7529C8.22555 77.7632 8.20773 77.7716 8.18711 77.7829C8.16648 77.7932 8.14586 77.8044 8.12617 77.8157C8.10555 77.8279 8.08492 77.8401 8.0643 77.8532C8.04461 77.8663 8.0268 77.8776 8.00805 77.8916C7.99023 77.9057 7.96961 77.9197 7.95086 77.9347C7.93211 77.9497 7.9143 77.9647 7.89555 77.9807C7.87773 77.9966 7.8618 78.0107 7.84586 78.0266C7.82992 78.0426 7.80836 78.0641 7.79055 78.0838C7.78117 78.0941 7.77086 78.1026 7.76148 78.1138C7.7568 78.1185 7.75305 78.1241 7.74836 78.1297C7.73055 78.1504 7.71367 78.1719 7.6968 78.1944C7.68461 78.2104 7.67336 78.2263 7.66117 78.2422C7.64617 78.2638 7.63211 78.2863 7.61805 78.3088C7.6068 78.3266 7.59461 78.3444 7.58523 78.3632C7.57586 78.3819 7.56273 78.4072 7.55148 78.4297C7.54117 78.4513 7.5318 78.4691 7.52242 78.4897C7.51398 78.5104 7.50555 78.5338 7.49711 78.5563C7.48773 78.5788 7.48023 78.5994 7.47273 78.621C7.46523 78.6435 7.46055 78.666 7.45398 78.6885C7.44836 78.7101 7.4418 78.7344 7.43617 78.7579C7.43148 78.7804 7.42867 78.801 7.42492 78.8226C7.42117 78.8451 7.41648 78.8732 7.41367 78.8985C7.41086 78.9191 7.40992 78.9397 7.40898 78.9604C7.40711 78.9876 7.40523 79.0147 7.4043 79.0419V79.0626V88.9485C7.4043 89.7435 8.0493 90.3885 8.8443 90.3885C9.6393 90.3885 10.2843 89.7435 10.2843 88.9485V82.2407L24.5774 94.7779C24.9637 95.1201 25.5037 95.2297 25.993 95.0647C26.4824 94.8997 26.8452 94.4854 26.9455 93.9791C27.0449 93.4719 26.8659 92.9507 26.4759 92.6122Z" fill="#6FE3FF"/>
<path d="M89.2149 79.405C89.2149 79.3666 89.213 79.3272 89.2093 79.2878C89.2093 79.2794 89.2092 79.2709 89.2074 79.2625C89.2027 79.2156 89.1961 79.1687 89.1868 79.1219C89.183 79.105 89.1774 79.0881 89.1736 79.0703C89.1661 79.0422 89.1605 79.0131 89.1511 78.985C89.1446 78.9616 89.1352 78.94 89.1277 78.9175C89.1193 78.895 89.1127 78.8744 89.1033 78.8528C89.0911 78.8237 89.0761 78.7956 89.0621 78.7666C89.0555 78.7534 89.0499 78.7394 89.0424 78.7253C89.0199 78.6841 88.9955 78.6437 88.9683 78.6044C88.9646 78.5978 88.9599 78.5922 88.9552 78.5866C88.9318 78.5528 88.9074 78.5209 88.883 78.4909L88.8802 78.4862C88.8699 78.475 88.8596 78.4647 88.8493 78.4534C88.8286 78.4309 88.8089 78.4075 88.7874 78.3869C88.7705 78.37 88.7527 78.355 88.7349 78.3381C88.718 78.3222 88.7011 78.3072 88.6833 78.2922C88.6655 78.2781 88.6421 78.2612 88.6205 78.2444C88.6036 78.2322 88.5877 78.2209 88.5708 78.2087C88.5483 78.1947 88.5268 78.1816 88.5043 78.1684C88.4855 78.1581 88.4677 78.1469 88.4489 78.1366C88.4302 78.1262 88.4058 78.1159 88.3833 78.1056C88.3618 78.0953 88.3421 78.0859 88.3205 78.0766C88.2989 78.0681 88.2783 78.0616 88.2577 78.0531C88.2371 78.0447 88.2118 78.0362 88.1874 78.0287C88.1639 78.0212 88.1452 78.0175 88.1246 78.0128C88.103 78.0072 88.0758 77.9997 88.0524 77.995C88.028 77.9903 88.0046 77.9875 87.9793 77.9837C87.9539 77.9809 87.9361 77.9772 87.9146 77.9753C87.8808 77.9725 87.8471 77.9716 87.8143 77.9706C87.8021 77.9706 87.7899 77.9688 87.7777 77.9688H77.8899C77.0949 77.9688 76.4499 78.6128 76.4499 79.4087C76.4499 80.2037 77.0949 80.8487 77.8899 80.8487H83.8177L69.818 92.59C69.2086 93.1009 69.128 94.0094 69.639 94.6187C70.1499 95.2281 71.0583 95.3087 71.6686 94.7978L86.3358 82.4969V89.2966C86.3358 90.0916 86.9808 90.7366 87.7758 90.7366C88.5708 90.7366 89.2158 90.0916 89.2158 89.2966V79.405H89.2149Z" fill="#6FE3FF"/>
</g>
<defs>
<clipPath id="clip0_1_22224">
<rect width="96" height="96" fill="white" transform="translate(0.308594 0.154297)"/>
</clipPath>
</defs>
</svg>
