<svg width="64" height="64" viewBox="0 0 64 64" fill="none" xmlns="http://www.w3.org/2000/svg">
<path d="M51.8721 52.3743H9.37207C9.04055 52.3743 8.72261 52.2426 8.48819 52.0082C8.25377 51.7738 8.12207 51.4558 8.12207 51.1243V15.373C8.12207 15.0415 8.25377 14.7236 8.48819 14.4892C8.72261 14.2547 9.04055 14.123 9.37207 14.123H51.8721C52.2036 14.123 52.5215 14.2547 52.7559 14.4892C52.9904 14.7236 53.1221 15.0415 53.1221 15.373V51.1243C53.1221 51.4558 52.9904 51.7738 52.7559 52.0082C52.5215 52.2426 52.2036 52.3743 51.8721 52.3743Z" fill="url(#paint0_linear_1_10125)"/>
<path d="M24.7773 14.123V28.8697C24.7773 29.2012 24.909 29.5191 25.1435 29.7536C25.3779 29.988 25.6958 30.1197 26.0273 30.1197H35.5037C35.8352 30.1197 36.1532 29.988 36.3876 29.7536C36.622 29.5191 36.7537 29.2012 36.7537 28.8697V14.123H24.7773Z" fill="url(#paint1_linear_1_10125)"/>
<path d="M25.7405 47.6363H14.1104C13.7788 47.6363 13.4609 47.5046 13.2265 47.2702C12.992 47.0358 12.8604 46.7178 12.8604 46.3863V38.9199C12.8604 38.5884 12.992 38.2705 13.2265 38.036C13.4609 37.8016 13.7788 37.6699 14.1104 37.6699H25.7405C26.072 37.6699 26.3899 37.8016 26.6244 38.036C26.8588 38.2705 26.9905 38.5884 26.9905 38.9199V46.3863C26.9905 46.7178 26.8588 47.0358 26.6244 47.2702C26.3899 47.5046 26.072 47.6363 25.7405 47.6363ZM15.3604 45.1363H24.4905V40.1699H15.3604V45.1363Z" fill="url(#paint2_linear_1_10125)"/>
<path d="M45.3721 55.375C43.3943 55.375 41.4609 54.7885 39.8164 53.6897C38.1719 52.5909 36.8902 51.0291 36.1333 49.2018C35.3764 47.3746 35.1784 45.3639 35.5642 43.4241C35.9501 41.4843 36.9025 39.7025 38.301 38.3039C39.6995 36.9054 41.4814 35.953 43.4212 35.5672C45.361 35.1813 47.3717 35.3793 49.1989 36.1362C51.0262 36.8931 52.588 38.1748 53.6868 39.8193C54.7856 41.4638 55.3721 43.3972 55.3721 45.375C55.3691 48.0262 54.3145 50.568 52.4398 52.4427C50.5651 54.3174 48.0233 55.372 45.3721 55.375Z" fill="url(#paint3_linear_1_10125)"/>
<path d="M44.7379 49.2935C44.5737 49.2937 44.411 49.2615 44.2593 49.1986C44.1076 49.1358 43.9698 49.0436 43.8539 48.9273L40.3183 45.3918C40.0839 45.1573 39.9521 44.8393 39.9521 44.5077C39.9522 44.176 40.0839 43.858 40.3184 43.6235C40.5529 43.389 40.871 43.2573 41.2026 43.2573C41.5342 43.2573 41.8522 43.3891 42.0867 43.6236L44.7384 46.2753L49.1579 41.8558C49.2731 41.7361 49.4111 41.6406 49.5637 41.5748C49.7163 41.509 49.8805 41.4743 50.0466 41.4727C50.2128 41.4711 50.3776 41.5027 50.5315 41.5656C50.6853 41.6285 50.825 41.7214 50.9425 41.8389C51.06 41.9565 51.1529 42.0962 51.2157 42.2501C51.2785 42.4039 51.3101 42.5688 51.3084 42.7349C51.3068 42.9011 51.2721 43.0653 51.2062 43.2179C51.1404 43.3705 51.0448 43.5084 50.925 43.6236L45.6216 48.9273C45.5057 49.0436 45.3679 49.1358 45.2163 49.1986C45.0646 49.2614 44.902 49.2937 44.7379 49.2935Z" fill="url(#paint4_linear_1_10125)"/>
<defs>
<linearGradient id="paint0_linear_1_10125" x1="63.5234" y1="66.1504" x2="7.22442" y2="9.85132" gradientUnits="userSpaceOnUse">
<stop stop-color="#F2994A"/>
<stop offset="1" stop-color="#F2C94C"/>
</linearGradient>
<linearGradient id="paint1_linear_1_10125" x1="47.9445" y1="38.9343" x2="24.9737" y2="15.9634" gradientUnits="userSpaceOnUse">
<stop stop-color="#B3B3B3"/>
<stop offset="1" stop-color="white"/>
</linearGradient>
<linearGradient id="paint2_linear_1_10125" x1="28.093" y1="50.8206" x2="10.1506" y2="32.8782" gradientUnits="userSpaceOnUse">
<stop stop-color="#86340A"/>
<stop offset="1" stop-color="#C36839"/>
</linearGradient>
<linearGradient id="paint3_linear_1_10125" x1="61.2766" y1="61.28" x2="37.9419" y2="37.9452" gradientUnits="userSpaceOnUse">
<stop stop-color="#0C9258"/>
<stop offset="1" stop-color="#89D935"/>
</linearGradient>
<linearGradient id="paint4_linear_1_10125" x1="4896.93" y1="3261.39" x2="4237.12" y2="2303.31" gradientUnits="userSpaceOnUse">
<stop stop-color="#B3B3B3"/>
<stop offset="1" stop-color="white"/>
</linearGradient>
</defs>
</svg>
