<svg width="64" height="64" viewBox="0 0 64 64" fill="none" xmlns="http://www.w3.org/2000/svg">
<path d="M51.872 52.3743H9.37207C9.04055 52.3743 8.72261 52.2426 8.48819 52.0082C8.25377 51.7738 8.12207 51.4558 8.12207 51.1243V15.373C8.12207 15.0415 8.25377 14.7236 8.48819 14.4892C8.72261 14.2547 9.04055 14.123 9.37207 14.123H51.872C52.2036 14.123 52.5215 14.2547 52.7559 14.4892C52.9903 14.7236 53.122 15.0415 53.122 15.373V51.1243C53.122 51.4558 52.9903 51.7738 52.7559 52.0082C52.5215 52.2426 52.2036 52.3743 51.872 52.3743Z" fill="url(#paint0_linear_1_10132)"/>
<path d="M24.7773 14.123V28.8697C24.7773 29.2012 24.909 29.5191 25.1435 29.7536C25.3779 29.988 25.6958 30.1197 26.0273 30.1197H35.5038C35.8353 30.1197 36.1532 29.988 36.3876 29.7536C36.6221 29.5191 36.7538 29.2012 36.7538 28.8697V14.123H24.7773Z" fill="url(#paint1_linear_1_10132)"/>
<path d="M25.7405 47.6363H14.1104C13.7788 47.6363 13.4609 47.5046 13.2265 47.2702C12.992 47.0358 12.8604 46.7178 12.8604 46.3863V38.9199C12.8604 38.5884 12.992 38.2705 13.2265 38.036C13.4609 37.8016 13.7788 37.6699 14.1104 37.6699H25.7405C26.072 37.6699 26.3899 37.8016 26.6244 38.036C26.8588 38.2705 26.9905 38.5884 26.9905 38.9199V46.3863C26.9905 46.7178 26.8588 47.0358 26.6244 47.2702C26.3899 47.5046 26.072 47.6363 25.7405 47.6363ZM15.3604 45.1363H24.4905V40.1699H15.3604V45.1363Z" fill="url(#paint2_linear_1_10132)"/>
<path d="M45.3721 55.375C43.3943 55.375 41.4609 54.7885 39.8164 53.6897C38.1719 52.5909 36.8902 51.0291 36.1333 49.2018C35.3764 47.3746 35.1784 45.3639 35.5642 43.4241C35.9501 41.4843 36.9025 39.7025 38.301 38.3039C39.6995 36.9054 41.4814 35.953 43.4212 35.5672C45.361 35.1813 47.3717 35.3793 49.1989 36.1362C51.0262 36.8931 52.588 38.1748 53.6868 39.8193C54.7856 41.4638 55.3721 43.3972 55.3721 45.375C55.3691 48.0262 54.3146 50.568 52.4399 52.4427C50.5651 54.3174 48.0233 55.372 45.3721 55.375Z" fill="url(#paint3_linear_1_10132)"/>
<path d="M47.3745 41.2502H42.998V40.6642C42.998 40.6187 42.9857 40.5741 42.9622 40.5352C42.9388 40.4962 42.9052 40.4644 42.8651 40.4431C42.8249 40.4219 42.7797 40.4119 42.7343 40.4144C42.689 40.4169 42.6451 40.4317 42.6075 40.4573L39.8342 42.341C39.8004 42.3639 39.7728 42.3948 39.7537 42.4308C39.7346 42.4669 39.7246 42.507 39.7246 42.5478C39.7246 42.5886 39.7346 42.6288 39.7537 42.6648C39.7728 42.7009 39.8004 42.7317 39.8342 42.7546L42.6075 44.6384C42.6451 44.6639 42.6889 44.6787 42.7343 44.6812C42.7797 44.6837 42.8249 44.6738 42.865 44.6525C42.9052 44.6313 42.9388 44.5995 42.9622 44.5606C42.9856 44.5216 42.998 44.4771 42.998 44.4316V43.7501H47.3745C47.8055 43.7501 48.2188 43.9213 48.5236 44.2261C48.8283 44.5308 48.9995 44.9442 48.9995 45.3751C48.9995 45.8061 48.8283 46.2194 48.5236 46.5242C48.2188 46.8289 47.8055 47.0001 47.3745 47.0001H41.7495C41.418 47.0001 41.1001 47.1318 40.8656 47.3662C40.6312 47.6007 40.4995 47.9186 40.4995 48.2501C40.4995 48.5816 40.6312 48.8996 40.8656 49.134C41.1001 49.3684 41.418 49.5001 41.7495 49.5001H47.3745C48.4685 49.5001 49.5178 49.0655 50.2913 48.2919C51.0649 47.5184 51.4995 46.4691 51.4995 45.3751C51.4995 44.2811 51.0649 43.2319 50.2913 42.4583C49.5178 41.6847 48.4685 41.2502 47.3745 41.2502Z" fill="url(#paint4_linear_1_10132)"/>
<defs>
<linearGradient id="paint0_linear_1_10132" x1="63.5234" y1="66.1505" x2="7.22438" y2="9.85136" gradientUnits="userSpaceOnUse">
<stop stop-color="#F2994A"/>
<stop offset="1" stop-color="#F2C94C"/>
</linearGradient>
<linearGradient id="paint1_linear_1_10132" x1="47.9445" y1="38.9343" x2="24.9738" y2="15.9634" gradientUnits="userSpaceOnUse">
<stop stop-color="#B3B3B3"/>
<stop offset="1" stop-color="white"/>
</linearGradient>
<linearGradient id="paint2_linear_1_10132" x1="28.093" y1="50.8206" x2="10.1506" y2="32.8782" gradientUnits="userSpaceOnUse">
<stop stop-color="#86340A"/>
<stop offset="1" stop-color="#C36839"/>
</linearGradient>
<linearGradient id="paint3_linear_1_10132" x1="57.8606" y1="57.864" x2="37.1587" y2="37.1619" gradientUnits="userSpaceOnUse">
<stop stop-color="#F12711"/>
<stop offset="1" stop-color="#F5AF19"/>
</linearGradient>
<linearGradient id="paint4_linear_1_10132" x1="5422.82" y1="4210.13" x2="4019.23" y2="2391.16" gradientUnits="userSpaceOnUse">
<stop stop-color="#B3B3B3"/>
<stop offset="1" stop-color="white"/>
</linearGradient>
</defs>
</svg>
