<svg width="64" height="64" viewBox="0 0 64 64" fill="none" xmlns="http://www.w3.org/2000/svg">
<path d="M53.5023 35.75H23.7477C22.7541 35.7489 21.8015 35.3537 21.0989 34.6511C20.3963 33.9485 20.0011 32.9959 20 32.0023V13.8728C20.0011 12.8791 20.3963 11.9265 21.0989 11.2239C21.8015 10.5213 22.7541 10.1261 23.7477 10.125H53.5023C54.4959 10.1261 55.4485 10.5213 56.1511 11.2239C56.8537 11.9265 57.2489 12.8791 57.25 13.8728V32.0023C57.2489 32.9959 56.8537 33.9485 56.1511 34.6511C55.4485 35.3537 54.4959 35.7489 53.5023 35.75Z" fill="url(#paint0_linear_1_10161)"/>
<path d="M16.628 53.1516C15.8319 53.1512 15.0685 52.8349 14.5055 52.2721C13.9424 51.7093 13.6258 50.9461 13.625 50.15V46.1234L10.5 46.125C9.50578 46.1239 8.55261 45.7284 7.84959 45.0254C7.14657 44.3224 6.75112 43.3692 6.75 42.375V24.25C6.75112 23.2558 7.14657 22.3026 7.84959 21.5996C8.55261 20.8966 9.50578 20.5011 10.5 20.5H40.25C41.2442 20.5011 42.1974 20.8966 42.9004 21.5996C43.6034 22.3026 43.9989 23.2558 44 24.25V42.375C43.9989 43.3692 43.6034 44.3224 42.9004 45.0254C42.1974 45.7284 41.2442 46.1239 40.25 46.125H24.8927L18.7464 52.2715C18.4685 52.5503 18.1384 52.7716 17.7749 52.9226C17.4114 53.0737 17.0216 53.1515 16.628 53.1516Z" fill="url(#paint1_linear_1_10161)"/>
<path d="M16.625 35.375C18.0057 35.375 19.125 34.2557 19.125 32.875C19.125 31.4943 18.0057 30.375 16.625 30.375C15.2443 30.375 14.125 31.4943 14.125 32.875C14.125 34.2557 15.2443 35.375 16.625 35.375Z" fill="url(#paint2_linear_1_10161)"/>
<path d="M25.375 35.375C26.7557 35.375 27.875 34.2557 27.875 32.875C27.875 31.4943 26.7557 30.375 25.375 30.375C23.9943 30.375 22.875 31.4943 22.875 32.875C22.875 34.2557 23.9943 35.375 25.375 35.375Z" fill="url(#paint3_linear_1_10161)"/>
<path d="M34.125 35.375C35.5057 35.375 36.625 34.2557 36.625 32.875C36.625 31.4943 35.5057 30.375 34.125 30.375C32.7443 30.375 31.625 31.4943 31.625 32.875C31.625 34.2557 32.7443 35.375 34.125 35.375Z" fill="url(#paint4_linear_1_10161)"/>
<defs>
<linearGradient id="paint0_linear_1_10161" x1="55.8287" y1="40.1413" x2="9.26075" y2="-6.42675" gradientUnits="userSpaceOnUse">
<stop stop-color="#C6E9F7"/>
<stop offset="1" stop-color="#F2F2F2"/>
</linearGradient>
<linearGradient id="paint1_linear_1_10161" x1="41.3252" y1="49.5598" x2="2.01" y2="10.2445" gradientUnits="userSpaceOnUse">
<stop stop-color="#2F80ED"/>
<stop offset="1" stop-color="#56CCF2"/>
</linearGradient>
<linearGradient id="paint2_linear_1_10161" x1="801.225" y1="1467.48" x2="552.705" y2="1218.96" gradientUnits="userSpaceOnUse">
<stop stop-color="#C6E9F7"/>
<stop offset="1" stop-color="#F2F2F2"/>
</linearGradient>
<linearGradient id="paint3_linear_1_10161" x1="1159.98" y1="1467.48" x2="911.455" y2="1218.96" gradientUnits="userSpaceOnUse">
<stop stop-color="#C6E9F7"/>
<stop offset="1" stop-color="#F2F2F2"/>
</linearGradient>
<linearGradient id="paint4_linear_1_10161" x1="1518.73" y1="1467.48" x2="1270.21" y2="1218.96" gradientUnits="userSpaceOnUse">
<stop stop-color="#C6E9F7"/>
<stop offset="1" stop-color="#F2F2F2"/>
</linearGradient>
</defs>
</svg>
