<svg xmlns="http://www.w3.org/2000/svg" width="8" height="12" viewBox="0 0 8 12" fill="none">
    <path d="M0.203636 5.53176L5.88473 0.191706C6.01613 0.068097 6.19153 0 6.37856 0C6.56559 0 6.74099 0.068097 6.87239 0.191706L7.29076 0.584873C7.563 0.841066 7.563 1.25745 7.29076 1.51326L2.52021 5.99751L7.29605 10.4867C7.42745 10.6104 7.5 10.7751 7.5 10.9508C7.5 11.1267 7.42745 11.2915 7.29605 11.4152L6.87768 11.8083C6.74618 11.9319 6.57088 12 6.38385 12C6.19683 12 6.02142 11.9319 5.89003 11.8083L0.203636 6.46336C0.0719271 6.33936 -0.000413418 6.1738 1.90735e-06 5.99781C-0.000413418 5.82112 0.0719271 5.65566 0.203636 5.53176Z" fill="#53535380" />
</svg>