<svg width="24" height="22" viewBox="0 0 24 22" fill="none" xmlns="http://www.w3.org/2000/svg">
<path d="M23.4585 11.4301C23.1984 12.1231 22.5541 12.571 21.8162 12.571H21.2159V21.2143C21.2159 21.648 20.8639 22 20.4302 22H15.7157V16.4998C15.7157 14.3334 13.9532 12.571 11.7869 12.571C9.62062 12.571 7.85819 14.3334 7.85819 16.4998V22H3.14369C2.70996 22 2.35794 21.648 2.35794 21.2143V12.571H1.75684C1.01902 12.571 0.374709 12.1239 0.114626 11.4309C-0.145457 10.7379 0.0454799 9.97568 0.60179 9.49008L9.77856 0.799696C10.9053 -0.266565 12.6693 -0.266565 13.7953 0.799696L22.9941 9.51051C23.5268 9.97489 23.7185 10.7371 23.4585 11.4301Z" fill="#E11A7D"/>
</svg>
