<svg width="60" height="60" viewBox="0 0 60 60" fill="none" xmlns="http://www.w3.org/2000/svg">
<g clip-path="url(#clip0_147_6185)">
<path d="M11.3793 23.7931H48.6207H56.8966C58.6106 23.7931 60 25.1825 60 26.8965C60 28.6105 58.6106 29.9999 56.8966 29.9999H3.10342C1.38945 29.9999 0 28.6105 0 26.8965C0 25.1825 1.38945 23.7931 3.10342 23.7931H11.3793Z" fill="#E11A7D"/>
<path d="M56.8965 30L51.3724 56.7C50.9751 58.623 49.2807 60.0011 47.3172 60H12.6827C10.7192 60.0011 9.02481 58.623 8.62754 56.7L3.10344 30H56.8965ZM43.4483 51.7241C43.4483 52.8671 44.3742 53.793 45.5172 53.793C46.6603 53.793 47.5862 52.8671 47.5862 51.7241V36.207C47.5862 35.0639 46.6603 34.138 45.5172 34.138C44.3742 34.138 43.4483 35.0639 43.4483 36.207V51.7241ZM33.1034 51.7241C33.1034 52.8671 34.0293 53.793 35.1724 53.793C36.3154 53.793 37.2413 52.8671 37.2413 51.7241V36.207C37.2413 35.0639 36.3154 34.138 35.1724 34.138C34.0293 34.138 33.1034 35.0639 33.1034 36.207V51.7241ZM22.7586 51.7241C22.7586 52.8671 23.6845 53.793 24.8275 53.793C25.9706 53.793 26.8965 52.8671 26.8965 51.7241V36.207C26.8965 35.0639 25.9706 34.138 24.8275 34.138C23.6845 34.138 22.7586 35.0639 22.7586 36.207V51.7241ZM12.4137 51.7241C12.4137 52.8671 13.3396 53.793 14.4827 53.793C15.6257 53.793 16.5516 52.8671 16.5516 51.7241V36.207C16.5516 35.0639 15.6257 34.138 14.4827 34.138C13.3396 34.138 12.4137 35.0639 12.4137 36.207V51.7241Z" fill="#EB529E"/>
<path d="M29.9972 20L29.7352 19.8652C29.627 19.809 27.0357 18.4775 24.4046 16.1742C22.8499 14.809 21.6083 13.3933 20.7142 11.9551C19.5752 10.1236 19 8.25843 19 6.41573C19 4.80899 19.6492 3.18539 20.7826 1.97191C21.9671 0.702247 23.5162 0 25.145 0C27.0585 0 28.8468 0.882022 30.0028 2.34831C31.1532 0.882022 32.9415 0 34.855 0C36.4838 0 38.0329 0.702247 39.2174 1.97191C40.3508 3.19101 41 4.80899 41 6.41573C41 8.25843 40.4248 10.1236 39.2858 11.9494C38.3917 13.3876 37.1501 14.809 35.5954 16.1685C32.9643 18.4719 30.373 19.809 30.2648 19.8596L29.9972 20Z" fill="#FA85BF"/>
<path d="M3.7448 33.1035L3.10344 30H56.8965L56.2551 33.1035H3.7448Z" fill="#CA136E"/>
<path d="M53.5134 2.06891C55.0569 1.21028 57.0038 1.76059 57.8686 3.29997L57.9307 3.49649C58.4645 4.46165 58.4645 5.63481 57.9307 6.59997L46.4066 28.3241C46.118 28.8609 45.6845 29.3048 45.1549 29.6068C43.6136 30.4675 41.6666 29.916 40.8049 28.3757C40.8028 28.3727 40.8008 28.3695 40.7998 28.3654L40.686 28.1792C40.1522 27.2141 40.1522 26.0409 40.686 25.0757L52.21 3.35165C52.511 2.80649 52.9642 2.36071 53.5134 2.06891Z" fill="#E0E0E0"/>
<path d="M6.48543 2.06891C4.94195 1.21028 2.99512 1.76059 2.13027 3.29997L2.0268 3.49649C1.49301 4.46165 1.49301 5.63481 2.0268 6.59997L13.5509 28.3241C13.8395 28.8609 14.273 29.3048 14.8026 29.6068C16.344 30.4675 18.2909 29.916 19.1526 28.3757C19.1547 28.3727 19.1567 28.3695 19.1577 28.3654L19.2715 28.1792C19.8053 27.2141 19.8053 26.0409 19.2715 25.0757L7.74743 3.35165C7.45785 2.8127 7.02028 2.36692 6.48543 2.06891Z" fill="#E0E0E0"/>
</g>
<defs>
<clipPath id="clip0_147_6185">
<rect width="60" height="60" fill="white" transform="matrix(-1 0 0 1 60 0)"/>
</clipPath>
</defs>
</svg>
