<svg width="16" height="16" viewBox="0 0 16 16" fill="none" xmlns="http://www.w3.org/2000/svg">
<path d="M15.201 1.59667H0.799001C0.359551 1.59667 0 1.23742 0 0.798337C0 0.359252 0.359551 0 0.799001 0H15.201C15.6405 0 16 0.359252 16 0.798337C16 1.23742 15.6405 1.59667 15.201 1.59667Z" fill="black"/>
<path d="M15.201 8.80175H0.799001C0.359551 8.80175 0 8.4425 0 8.00341C0 7.56433 0.359551 7.20508 0.799001 7.20508H15.201C15.6405 7.20508 16 7.56433 16 8.00341C16 8.4425 15.6405 8.80175 15.201 8.80175Z" fill="black"/>
<path d="M15.201 16H0.799001C0.359551 16 0 15.6407 0 15.2017C0 14.7626 0.359551 14.4033 0.799001 14.4033H15.201C15.6405 14.4033 16 14.7626 16 15.2017C16 15.6407 15.6405 16 15.201 16Z" fill="black"/>
</svg>
