<svg width="11" height="2" viewBox="0 0 11 2" fill="none" xmlns="http://www.w3.org/2000/svg">
<path d="M10.5452 1.5L0.454873 1.49989C0.333768 1.50006 0.219691 1.44502 0.133535 1.34523C0.0475236 1.24562 -4.76597e-05 1.11344 9.5659e-05 0.973181L0 0.526874C4.7824e-05 0.386614 0.0474759 0.254495 0.133584 0.154768C0.219691 0.0550407 0.333768 0.000110599 0.454921 0L10.545 0.000109787C10.6663 -9.51473e-07 10.7803 0.0550403 10.8663 0.154712C10.9525 0.254549 11 0.386558 11 0.526984L11 0.973236C11.0001 1.11339 10.9527 1.24567 10.8665 1.34545C10.7803 1.44507 10.6662 1.49994 10.5452 1.5Z" fill="#C4C4C4"/>
</svg>
