<svg width="82" height="82" viewBox="0 0 82 82" fill="none" xmlns="http://www.w3.org/2000/svg">
<g clip-path="url(#clip0_3099_156)">
<path d="M51.7242 11.5493H30.2754L32.8914 2.39337C33.2963 0.976633 34.591 0 36.0642 0H45.9353C47.4086 0 48.7035 0.976633 49.1082 2.39321L51.7242 11.5493Z" fill="#C6C5CA"/>
<path d="M42.6638 0H36.0642C34.591 0 33.2961 0.976633 32.8914 2.39321L30.2754 11.5492H36.8749L39.4909 2.39321C39.8958 0.976633 41.1905 0 42.6638 0V0Z" fill="#ACABB1"/>
<path d="M12.623 24.748L16.3657 72.8678C16.7666 78.0218 21.0657 81.9996 26.2354 81.9996H55.7639C60.9334 81.9996 65.2326 78.0218 65.6335 72.8678L69.3762 24.748H12.623Z" fill="#D8D7DA"/>
<path d="M25.4519 72.8678L22.6075 36.2974H68.4779L69.3762 24.748H12.623L16.3657 72.8678C16.7666 78.0218 21.0658 81.9996 26.2354 81.9996H35.3215C30.1518 81.9996 25.8528 78.0218 25.4519 72.8678Z" fill="#C6C5CA"/>
<path d="M52.113 55.8486C49.1646 55.8486 46.7745 58.2388 46.7745 61.1871V78.6997C46.7745 80.5221 45.297 81.9996 43.4746 81.9996H49.7426C53.189 81.9996 56.055 79.3477 56.3223 75.9117L57.4354 61.6011C57.6766 58.4991 55.2245 55.8486 52.113 55.8486Z" fill="#ACABB1"/>
<path d="M35.2252 78.7005V61.1881C35.2252 58.2398 32.835 55.8496 29.8867 55.8496C26.7752 55.8496 24.3229 58.4999 24.5643 61.6021L25.6773 75.9127C25.9445 79.3485 28.8106 82.0004 32.2569 82.0004H38.5249C36.7025 82.0004 35.2252 80.523 35.2252 78.7005Z" fill="#ACABB1"/>
<path d="M69.0482 29.6978H12.9516C10.2179 29.6978 8.00195 27.4817 8.00195 24.7482C8.00195 22.0144 10.218 19.7985 12.9516 19.7985L40.9999 18.1484L69.0482 19.7984C71.7819 19.7984 73.9979 22.0144 73.9979 24.748C73.9979 27.4817 71.7818 29.6978 69.0482 29.6978Z" fill="#E8E8E8"/>
<path d="M69.0482 19.7987H12.9516C10.2179 19.7987 8.00195 17.5826 8.00195 14.849C8.00195 12.1153 10.218 9.89941 12.9516 9.89941H69.0482C71.7819 9.89941 73.9979 12.1155 73.9979 14.849C73.9979 17.5826 71.7818 19.7987 69.0482 19.7987Z" fill="#D8D7DA"/>
<path d="M20.5025 14.849C20.5025 12.1153 22.7186 9.89941 25.4521 9.89941H12.9516C10.2179 9.89941 8.00195 12.1155 8.00195 14.849C8.00195 17.5826 10.218 19.7987 12.9516 19.7987H25.4523C22.7185 19.7988 20.5025 17.5828 20.5025 14.849Z" fill="#C6C5CA"/>
<path d="M30.2967 24.7485C30.2967 22.0147 32.5127 19.7988 35.2463 19.7988V18.4873L12.9516 19.7988C10.2179 19.7988 8.00195 22.0149 8.00195 24.7485C8.00195 27.482 10.218 29.6981 12.9516 29.6981H35.2463C32.5127 29.6982 30.2967 27.4822 30.2967 24.7485Z" fill="#D8D7DA"/>
<path d="M27.8593 47.9988C30.5371 47.9988 32.7079 46.2701 32.7079 44.1376C32.7079 42.0051 30.5371 40.2764 27.8593 40.2764C25.1815 40.2764 23.0107 42.0051 23.0107 44.1376C23.0107 46.2701 25.1815 47.9988 27.8593 47.9988Z" fill="#FFA1AF"/>
<path d="M54.1406 47.9988C56.8184 47.9988 58.9891 46.2701 58.9891 44.1376C58.9891 42.0051 56.8184 40.2764 54.1406 40.2764C51.4628 40.2764 49.292 42.0051 49.292 44.1376C49.292 46.2701 51.4628 47.9988 54.1406 47.9988Z" fill="#FFA1AF"/>
<path d="M44.9093 41.1712C44.9093 38.7553 43.1591 38.5283 41.0001 38.5283C38.841 38.5283 37.0908 38.7553 37.0908 41.1712C37.0908 43.5872 38.841 45.5456 41.0001 45.5456C43.1591 45.5456 44.9093 43.587 44.9093 41.1712Z" fill="#495560"/>
<path d="M28.6699 40.7289C28.0066 40.7289 27.4688 40.1911 27.4688 39.5277V37.5479C27.4688 36.8845 28.0066 36.3467 28.6699 36.3467C29.3333 36.3467 29.8711 36.8845 29.8711 37.5479V39.5277C29.8711 40.1911 29.3333 40.7289 28.6699 40.7289Z" fill="#495560"/>
<path d="M53.3301 40.7289C52.6667 40.7289 52.1289 40.1911 52.1289 39.5277V37.5479C52.1289 36.8845 52.6667 36.3467 53.3301 36.3467C53.9934 36.3467 54.5312 36.8845 54.5312 37.5479V39.5277C54.5312 40.1911 53.9934 40.7289 53.3301 40.7289Z" fill="#495560"/>
</g>
<defs>
<clipPath id="clip0_3099_156">
<rect width="82" height="82" fill="white"/>
</clipPath>
</defs>
</svg>
