<svg width="17" height="16" viewBox="0 0 17 16" fill="none" xmlns="http://www.w3.org/2000/svg">
<path d="M13.167 4.66699C12.9902 4.66699 12.8206 4.73723 12.6956 4.86225C12.5706 4.98728 12.5003 5.15685 12.5003 5.33366V12.7943C12.4812 13.1314 12.3296 13.4474 12.0787 13.6732C11.8277 13.8991 11.4976 14.0167 11.1603 14.0003H5.84033C5.50306 14.0167 5.17298 13.8991 4.922 13.6732C4.67101 13.4474 4.51945 13.1314 4.50033 12.7943V5.33366C4.50033 5.15685 4.43009 4.98728 4.30506 4.86225C4.18004 4.73723 4.01047 4.66699 3.83366 4.66699C3.65685 4.66699 3.48728 4.73723 3.36225 4.86225C3.23723 4.98728 3.16699 5.15685 3.16699 5.33366V12.7943C3.18602 13.4851 3.47805 14.1403 3.97911 14.6162C4.48018 15.0922 5.14944 15.3501 5.84033 15.3337H11.1603C11.8512 15.3501 12.5205 15.0922 13.0215 14.6162C13.5226 14.1403 13.8146 13.4851 13.8337 12.7943V5.33366C13.8337 5.15685 13.7634 4.98728 13.6384 4.86225C13.5134 4.73723 13.3438 4.66699 13.167 4.66699Z" fill="black"/>
<path d="M13.8333 2.66699H11.1667V1.33366C11.1667 1.15685 11.0964 0.987279 10.9714 0.862254C10.8464 0.73723 10.6768 0.666992 10.5 0.666992H6.5C6.32319 0.666992 6.15362 0.73723 6.0286 0.862254C5.90357 0.987279 5.83333 1.15685 5.83333 1.33366V2.66699H3.16667C2.98986 2.66699 2.82029 2.73723 2.69526 2.86225C2.57024 2.98728 2.5 3.15685 2.5 3.33366C2.5 3.51047 2.57024 3.68004 2.69526 3.80506C2.82029 3.93009 2.98986 4.00033 3.16667 4.00033H13.8333C14.0101 4.00033 14.1797 3.93009 14.3047 3.80506C14.4298 3.68004 14.5 3.51047 14.5 3.33366C14.5 3.15685 14.4298 2.98728 14.3047 2.86225C14.1797 2.73723 14.0101 2.66699 13.8333 2.66699ZM7.16667 2.66699V2.00033H9.83333V2.66699H7.16667Z" fill="black"/>
<path d="M7.83333 11.3333V6.66667C7.83333 6.48986 7.7631 6.32029 7.63807 6.19526C7.51305 6.07024 7.34348 6 7.16667 6C6.98986 6 6.82029 6.07024 6.69526 6.19526C6.57024 6.32029 6.5 6.48986 6.5 6.66667V11.3333C6.5 11.5101 6.57024 11.6797 6.69526 11.8047C6.82029 11.9298 6.98986 12 7.16667 12C7.34348 12 7.51305 11.9298 7.63807 11.8047C7.7631 11.6797 7.83333 11.5101 7.83333 11.3333Z" fill="black"/>
<path d="M10.5003 11.3333V6.66667C10.5003 6.48986 10.4301 6.32029 10.3051 6.19526C10.18 6.07024 10.0105 6 9.83366 6C9.65685 6 9.48728 6.07024 9.36225 6.19526C9.23723 6.32029 9.16699 6.48986 9.16699 6.66667V11.3333C9.16699 11.5101 9.23723 11.6797 9.36225 11.8047C9.48728 11.9298 9.65685 12 9.83366 12C10.0105 12 10.18 11.9298 10.3051 11.8047C10.4301 11.6797 10.5003 11.5101 10.5003 11.3333Z" fill="black"/>
</svg>
