<svg width="16" height="16" viewBox="0 0 16 16" fill="none" xmlns="http://www.w3.org/2000/svg">
<g clip-path="url(#clip0_1221_14268)">
<path d="M15.5404 1.74102C15.2266 1.67369 14.918 1.87357 14.8508 2.18719L14.4288 4.15675C13.085 1.86433 10.6185 0.425781 7.91525 0.425781C3.75215 0.425781 0.365234 3.81265 0.365234 7.9758C0.365234 8.29653 0.625234 8.55657 0.946005 8.55657C1.26673 8.55657 1.52678 8.29653 1.52678 7.9758C1.52678 4.45317 4.39262 1.58732 7.91525 1.58732C10.2118 1.58732 12.3066 2.81405 13.4407 4.7673L11.5045 4.35235C11.1908 4.28512 10.8821 4.48495 10.8149 4.79857C10.7477 5.11218 10.9475 5.42097 11.2611 5.48815L14.5848 6.20041C14.6413 6.21253 14.6986 6.21602 14.7552 6.21128C14.8493 6.20333 14.9411 6.17244 15.022 6.12012C15.1513 6.03644 15.2421 5.90482 15.2744 5.75424L15.9867 2.43056C16.0538 2.11699 15.854 1.80829 15.5404 1.74102Z" fill="#E11A7D"/>
<path d="M14.9563 7.21424C14.6358 7.22483 14.3844 7.49329 14.395 7.81383C14.4513 9.51934 13.8402 11.1446 12.674 12.3905C11.5078 13.6362 9.92638 14.3534 8.22091 14.4097C8.14982 14.412 8.07911 14.4132 8.0083 14.4132C5.78297 14.4131 3.73299 13.2574 2.57526 11.3848L4.59388 11.9261C4.90369 12.0091 5.22218 11.8254 5.30525 11.5155C5.38833 11.2057 5.20452 10.8873 4.89472 10.8041L1.61155 9.92383C1.46278 9.88402 1.30421 9.90483 1.17086 9.98177C1.03742 10.0587 0.940088 10.1856 0.900177 10.3344L0.0199612 13.6176C-0.0631122 13.9274 0.12069 14.2459 0.430496 14.329C0.480907 14.3425 0.531458 14.349 0.581264 14.349C0.83764 14.349 1.07232 14.1779 1.14187 13.9185L1.63664 12.0731C3.01302 14.2404 5.40882 15.5748 8.00802 15.5747C8.09151 15.5747 8.17547 15.5734 8.25929 15.5706C10.2748 15.504 12.1439 14.6565 13.522 13.1842C14.9002 11.712 15.6225 9.79109 15.5559 7.77549C15.5454 7.455 15.2768 7.20285 14.9563 7.21424Z" fill="#E11A7D"/>
</g>
<defs>
<clipPath id="clip0_1221_14268">
<rect width="16" height="16" fill="white"/>
</clipPath>
</defs>
</svg>
