<svg width="64" height="64" viewBox="0 0 64 64" fill="none" xmlns="http://www.w3.org/2000/svg">
<g opacity="0.5">
<path d="M59.36 56.5401L49.36 47.2801C53.8194 42.2442 56.1534 35.676 55.8719 28.9553C55.5904 22.2347 52.7152 15.8847 47.8503 11.2393C42.9854 6.59397 36.5095 4.01482 29.7831 4.0437C23.0566 4.07258 16.6031 6.70724 11.7783 11.3942C6.95346 16.0812 4.13288 22.4556 3.90909 29.1784C3.68529 35.9012 6.07568 42.4492 10.5781 47.4466C15.0805 52.4441 21.3445 55.5021 28.0542 55.9782C34.7639 56.4544 41.397 54.3116 46.56 50.0001V50.1001L56.56 59.4201C56.7474 59.6203 56.9739 59.7799 57.2255 59.8888C57.4771 59.9978 57.7484 60.0539 58.0226 60.0536C58.2968 60.0533 58.568 59.9966 58.8194 59.887C59.0707 59.7775 59.2969 59.6174 59.4838 59.4168C59.6707 59.2161 59.8143 58.9792 59.9058 58.7207C59.9972 58.4622 60.0346 58.1877 60.0155 57.9142C59.9964 57.6407 59.9212 57.374 59.7947 57.1307C59.6682 56.8875 59.493 56.6728 59.28 56.5001L59.36 56.5401ZM30 52.0001C25.6488 52.0001 21.3953 50.7098 17.7775 48.2924C14.1596 45.875 11.3398 42.4391 9.67465 38.4191C8.00952 34.3992 7.57385 29.9757 8.42272 25.7081C9.2716 21.4405 11.3669 17.5205 14.4437 14.4438C17.5204 11.367 21.4404 9.2717 25.708 8.42282C29.9756 7.57395 34.3991 8.00962 38.419 9.67475C42.439 11.3399 45.8749 14.1597 48.2923 17.7776C50.7097 21.3954 52 25.6489 52 30.0001C52 35.8349 49.6822 41.4307 45.5564 45.5565C41.4306 49.6823 35.8348 52.0001 30 52.0001ZM45 30.0001C45 30.5305 44.7893 31.0392 44.4142 31.4143C44.0391 31.7894 43.5304 32.0001 43 32.0001H32V43.0001C32 43.5305 31.7893 44.0392 31.4142 44.4143C31.0391 44.7894 30.5304 45.0001 30 45.0001C29.4696 45.0001 28.9609 44.7894 28.5858 44.4143C28.2107 44.0392 28 43.5305 28 43.0001V32.0001H17C16.4696 32.0001 15.9609 31.7894 15.5858 31.4143C15.2107 31.0392 15 30.5305 15 30.0001C15 29.4697 15.2107 28.961 15.5858 28.5859C15.9609 28.2108 16.4696 28.0001 17 28.0001H28V17.0001C28 16.4697 28.2107 15.961 28.5858 15.5859C28.9609 15.2108 29.4696 15.0001 30 15.0001C30.5304 15.0001 31.0391 15.2108 31.4142 15.5859C31.7893 15.961 32 16.4697 32 17.0001V28.0001H43C43.5304 28.0001 44.0391 28.2108 44.4142 28.5859C44.7893 28.961 45 29.4697 45 30.0001Z" fill="white"/>
</g>
</svg>
