<svg width="19" height="25" viewBox="0 0 19 25" fill="none" xmlns="http://www.w3.org/2000/svg">
<g filter="url(#filter0_b_1426_2699)">
<path d="M9.73892 0.639648C14.8455 0.639648 19 4.79415 19 9.90069C19 11.664 18.5195 13.5361 17.5719 15.4649C16.8204 16.9943 15.7746 18.5639 14.4632 20.13C12.2371 22.7888 10.0463 24.4948 9.95412 24.5661C9.89079 24.6151 9.81481 24.6396 9.73892 24.6396C9.66303 24.6396 9.58704 24.6151 9.52371 24.5661C9.43151 24.4948 7.24075 22.7888 5.0146 20.13C3.70331 18.5638 2.65739 16.9943 1.90598 15.4649C0.958349 13.5361 0.477833 11.664 0.477833 9.90069C0.477833 4.79415 4.63233 0.639648 9.73892 0.639648ZM9.73892 6.69888C7.97346 6.69888 6.53711 8.13518 6.53711 9.90069C6.53711 11.6661 7.97341 13.1025 9.73892 13.1025C11.5044 13.1025 12.9407 11.6662 12.9407 9.90069C12.9407 8.13518 11.5044 6.69888 9.73892 6.69888Z" fill="#F0B5D2"/>
<path d="M9.73946 0.639648C10.0869 0.639648 10.4299 0.659524 10.7676 0.697024C6.1431 1.21017 2.5346 5.14163 2.5346 9.90073C2.5346 11.6641 3.01507 13.5362 3.96275 15.465C4.71416 16.9944 5.76004 18.5639 7.07137 20.13C8.49966 21.8359 9.91332 23.1495 10.7676 23.8909C10.2904 24.305 9.98771 24.5406 9.95467 24.5661C9.89134 24.6151 9.81535 24.6396 9.73946 24.6396C9.66357 24.6396 9.58759 24.6151 9.52426 24.5661C9.43206 24.4948 7.2413 22.7888 5.01514 20.13C3.70386 18.5638 2.65793 16.9943 1.90652 15.4649C0.958888 13.5361 0.478372 11.664 0.478372 9.90069C0.478372 4.79415 4.63288 0.639648 9.73946 0.639648Z" fill="#E196BB"/>
</g>
<defs>
<filter id="filter0_b_1426_2699" x="-3.52148" y="-3.36035" width="26.5215" height="32" filterUnits="userSpaceOnUse" color-interpolation-filters="sRGB">
<feFlood flood-opacity="0" result="BackgroundImageFix"/>
<feGaussianBlur in="BackgroundImageFix" stdDeviation="2"/>
<feComposite in2="SourceAlpha" operator="in" result="effect1_backgroundBlur_1426_2699"/>
<feBlend mode="normal" in="SourceGraphic" in2="effect1_backgroundBlur_1426_2699" result="shape"/>
</filter>
</defs>
</svg>
