<svg width="12" height="15" viewBox="0 0 12 15" fill="none" xmlns="http://www.w3.org/2000/svg">
<path d="M11.9933 11.9412L11.3681 4.06323C11.3293 3.55564 10.8999 3.1582 10.3909 3.1582H9.15598V4.98796C9.15598 5.21456 8.97256 5.39798 8.74596 5.39798C8.51964 5.39798 8.33594 5.21456 8.33594 4.98796V3.1582H4.56385V4.98796C4.56385 5.21456 4.38015 5.39798 4.15383 5.39798C3.92723 5.39798 3.74381 5.21456 3.74381 4.98796V3.1582H2.50885C1.99991 3.1582 1.57047 3.55564 1.53167 4.06213L0.906265 11.9423C0.857894 12.5734 1.07684 13.2016 1.50679 13.6657C1.93677 14.1298 2.54632 14.3963 3.17911 14.3963H9.72071C10.3535 14.3963 10.963 14.1298 11.393 13.6657C11.823 13.2016 12.0419 12.5734 11.9933 11.9412ZM8.29714 7.92936L6.17655 10.0499C6.09646 10.13 5.99149 10.1702 5.88655 10.1702C5.78157 10.1702 5.67663 10.13 5.59654 10.0499L4.60267 9.05609C4.4425 8.89591 4.4425 8.6365 4.60267 8.47632C4.76285 8.31614 5.02254 8.31614 5.18244 8.47632L5.88657 9.18017L7.7174 7.34934C7.87731 7.18944 8.13699 7.18944 8.29717 7.34934C8.45732 7.50952 8.45732 7.76918 8.29714 7.92936Z" fill="#2EA748"/>
<path d="M6.44948 0.396484C4.95731 0.396484 3.74341 1.61066 3.74341 3.10283V3.15831H4.56345V3.10283C4.56345 2.06276 5.40944 1.2165 6.44951 1.2165C7.48958 1.2165 8.33557 2.06276 8.33557 3.10283V3.15831H9.15558V3.10283C9.15556 1.61066 7.94166 0.396484 6.44948 0.396484Z" fill="#2EA748"/>
</svg>
