<svg width="18" height="20" viewBox="0 0 18 20" fill="none" xmlns="http://www.w3.org/2000/svg">
<g clip-path="url(#clip0_2568_14852)">
<path d="M17.4998 17.2877L16.279 4.39411C16.255 4.10532 15.9964 3.89015 15.6957 3.89015H13.1941C13.1641 1.73839 11.2939 0 9.00276 0C6.71164 0 4.84146 1.73839 4.80538 3.89015H2.30379C1.9971 3.89015 1.75055 4.10532 1.72048 4.39411L0.505769 17.2877C0.505769 17.3046 0.499756 17.3216 0.499756 17.3386C0.499756 18.8052 1.93095 20 3.68688 20H14.3126C16.0746 20 17.4998 18.8052 17.4998 17.3386C17.4998 17.3216 17.4998 17.3046 17.4998 17.2877ZM9.00276 1.10419C10.6504 1.10419 11.9914 2.34994 12.0275 3.89015H5.978C6.01408 2.34994 7.35508 1.10419 9.00276 1.10419Z" fill="#BDBDBD"/>
</g>
<defs>
<clipPath id="clip0_2568_14852">
<rect width="17" height="20" fill="white" transform="translate(0.499756)"/>
</clipPath>
</defs>
</svg>
