<svg width="355" height="116" viewBox="0 0 355 116" fill="none" xmlns="http://www.w3.org/2000/svg">
<g opacity="0.1">
<mask id="mask0_1428_5857" style="mask-type:alpha" maskUnits="userSpaceOnUse" x="0" y="0" width="355" height="101">
<rect y="0.300293" width="355" height="100" rx="18" fill="url(#paint0_linear_1428_5857)"/>
</mask>
<g mask="url(#mask0_1428_5857)">
<path d="M307.954 95.6897C303.914 92.0411 303.653 85.7863 307.302 81.7468C310.951 77.7073 317.207 77.4466 321.247 81.0953L319.552 83.0499C316.555 80.3134 311.994 80.574 309.257 83.5711C306.52 86.5682 306.781 91.1289 309.778 93.8654L307.954 95.6897Z" fill="#FAFAFA"/>
<path d="M352.002 62.4613L350.96 61.0279C352.133 60.2461 352.784 58.943 353.045 57.6399C353.306 56.2065 352.915 54.9035 352.133 53.7307C350.439 51.3852 347.18 50.8639 344.835 52.5579L343.792 51.1245C346.92 48.779 351.351 49.5608 353.566 52.6882C354.609 54.2519 355.13 56.0762 354.869 57.9005C354.609 59.7248 353.566 61.2885 352.002 62.4613Z" fill="#FAFAFA"/>
<path d="M201.61 98.8171L200.176 96.4716C203.825 94.126 204.868 89.3047 202.522 85.656C200.176 82.0074 195.354 80.965 191.705 83.3105L190.271 80.965C195.224 77.8376 201.74 79.271 204.868 84.0924C207.865 89.044 206.432 95.6897 201.61 98.8171Z" fill="#FAFAFA"/>
<path d="M147.265 94.7775C142.573 90.8683 141.922 83.962 145.831 79.2709C147.656 77.0557 150.393 75.6223 153.26 75.3617C156.257 75.1011 159.124 76.0132 161.34 77.8375L159.515 80.0527C157.821 78.6193 155.736 77.9678 153.52 78.2284C151.305 78.489 149.35 79.5315 148.047 81.2255C145.18 84.7438 145.701 89.8258 149.089 92.6926L147.265 94.7775Z" fill="#FAFAFA"/>
<path d="M62.2945 0.565215C62.4248 0.565215 62.5551 0.565215 62.6855 0.565215C63.5977 0.695522 64.3797 1.08645 64.901 1.73798C65.4223 2.38952 65.6829 3.30167 65.6829 4.21382C65.5526 5.90782 64.119 7.2109 62.2945 7.2109C62.1642 7.2109 62.0339 7.2109 61.9035 7.2109C60.079 7.08059 58.7758 5.38659 58.9061 3.56229C59.1667 1.86829 60.6003 0.565215 62.2945 0.565215ZM62.2945 -0.868164C59.8184 -0.868164 57.7332 0.956143 57.4725 3.43198C57.2119 6.03813 59.1667 8.51397 61.7732 8.77458C61.9035 8.77458 62.1642 8.77458 62.2945 8.77458C64.7706 8.77458 66.8558 6.95027 67.1165 4.47444C67.3771 1.86829 65.4223 -0.607549 62.8158 -0.868164C62.6855 -0.868164 62.5551 -0.868164 62.2945 -0.868164Z" fill="#FAFAFA"/>
<path d="M251.915 38.6151C252.176 38.6151 252.306 38.6151 252.566 38.6151C254.652 39.0061 256.085 40.9607 255.694 43.0456C255.434 44.8699 253.739 46.3033 251.915 46.3033C251.654 46.3033 251.524 46.3033 251.263 46.3033C249.178 45.9124 247.745 43.9577 248.135 41.8728C248.396 40.0485 250.09 38.6151 251.915 38.6151ZM251.915 36.9211C249.308 36.9211 246.963 38.8758 246.441 41.4819C245.92 44.479 248.005 47.3457 251.003 47.867C251.263 47.867 251.654 47.9973 251.915 47.9973C254.521 47.9973 256.867 46.0427 257.388 43.4365C257.91 40.4395 255.825 37.5727 252.827 37.0514C252.566 36.9211 252.176 36.9211 251.915 36.9211Z" fill="#FAFAFA"/>
<path d="M59.0363 46.9548C60.0789 46.9548 60.9912 47.3457 61.7731 47.8669C62.6854 48.6488 63.337 49.6913 63.4673 50.864C63.5976 52.0368 63.337 53.2095 62.5551 54.252C61.6428 55.2945 60.3396 55.946 59.0363 55.946C57.9937 55.946 57.0815 55.5551 56.2996 55.0339C54.3447 53.4702 53.9537 50.6034 55.5176 48.6488C56.2995 47.476 57.6028 46.9548 59.0363 46.9548ZM59.0363 44.8699C57.0815 44.8699 55.1266 45.782 53.8234 47.3457C51.6079 50.2125 52.1292 54.3823 54.9963 56.5975C56.1692 57.5097 57.6028 58.0309 59.0363 58.0309C60.9912 58.0309 62.946 57.1188 64.2493 55.5551C66.4647 52.6883 65.9435 48.5185 63.0763 46.3033C61.9034 45.2608 60.4699 44.8699 59.0363 44.8699Z" fill="#FAFAFA"/>
<path d="M101.782 47.4759L107.386 50.6033L108.298 56.858L102.694 53.7307L101.782 47.4759ZM99.8271 44.6091L101.261 54.7731L110.253 59.7248L108.819 49.5608L99.8271 44.6091Z" fill="#FAFAFA"/>
<path d="M187.144 10.7294L180.627 20.5024L168.768 21.154L175.284 11.3809L187.144 10.7294ZM192.747 7.47168L173.72 8.51414L163.164 24.4117L182.191 23.3692L192.747 7.47168Z" fill="#FAFAFA"/>
<path d="M276.285 11.3808C275.763 11.3808 275.373 10.9899 275.373 10.4686C275.373 9.81708 275.242 9.29585 274.721 8.90492C274.33 8.514 273.678 8.25338 273.157 8.38369C271.984 8.38369 270.942 8.12308 270.29 7.34124C269.508 6.55939 269.117 5.51693 269.117 4.47447C269.117 3.82293 268.987 3.3017 268.465 2.91078C268.074 2.51986 267.423 2.25924 266.902 2.38955C266.38 2.38955 265.989 1.99863 265.989 1.60771C265.989 1.08648 266.38 0.695557 266.771 0.695557C267.944 0.695557 268.987 0.956166 269.769 1.73801C270.551 2.51986 270.942 3.56232 270.942 4.60478C270.942 5.25632 271.072 5.77755 271.593 6.16847C271.984 6.55939 272.636 6.82001 273.157 6.6897C274.33 6.6897 275.373 6.95031 276.154 7.73215C276.936 8.514 277.327 9.55647 277.327 10.5989C277.197 10.9898 276.806 11.3808 276.285 11.3808Z" fill="#FAFAFA"/>
<path d="M53.8238 110.805C53.5631 110.805 53.3025 110.675 53.0418 110.545C51.7386 109.502 51.087 108.199 50.9567 106.635C50.8263 105.072 51.478 103.638 52.5205 102.466C53.1722 101.814 53.4328 101.032 53.4328 100.25C53.4328 99.4685 52.9115 98.6867 52.2599 98.0352C50.9567 96.9927 50.3051 95.6896 50.1747 94.1259C50.0444 92.5623 50.696 91.1289 51.7386 89.9561C52.2599 89.4349 53.0418 89.4349 53.4328 89.9561C53.9541 90.4773 53.9541 91.2592 53.4328 91.6501C52.7812 92.3016 52.5205 93.0835 52.5205 93.8653C52.5205 94.6472 53.0418 95.429 53.6935 96.0806C54.9967 97.123 55.6483 98.4261 55.7786 99.9898C55.9089 101.553 55.2573 102.987 54.2147 104.16C53.5631 104.811 53.3025 105.593 53.3025 106.375C53.3025 107.157 53.8238 107.939 54.4754 108.59C54.9967 108.981 55.127 109.763 54.6057 110.284C54.6057 110.675 54.2147 110.805 53.8238 110.805Z" fill="#FAFAFA"/>
<path d="M126.804 8.64444C126.022 8.64444 125.24 8.51413 124.588 8.12321C123.416 7.47167 122.634 6.42921 122.373 5.12613C122.243 4.34429 121.721 3.82306 121.2 3.43214C120.548 3.04122 119.897 3.04122 119.115 3.30184C117.812 3.69276 116.508 3.56245 115.335 3.04122C114.163 2.38968 113.381 1.34722 113.12 0.0441504C112.99 -0.477079 113.381 -1.12862 113.902 -1.25892C114.423 -1.38923 115.075 -0.998311 115.205 -0.477081C115.335 0.304763 115.857 0.825987 116.378 1.21691C117.03 1.60783 117.681 1.60784 118.463 1.34722C119.766 0.956302 121.07 1.08661 122.243 1.60784C123.416 2.25937 124.197 3.30184 124.458 4.60491C124.588 5.38676 125.11 5.90798 125.631 6.2989C126.283 6.68982 126.934 6.68982 127.716 6.42921C128.237 6.2989 128.889 6.55951 129.019 7.08074C129.15 7.60197 128.889 8.25351 128.368 8.38382C127.847 8.51413 127.325 8.64444 126.804 8.64444Z" fill="#FAFAFA"/>
<path d="M15.8994 55.6853C15.5085 55.6853 15.2478 55.555 14.9872 55.2944C13.8143 54.1216 13.293 52.5579 13.293 50.9943C13.4233 49.4306 14.0749 47.9972 15.3781 46.9547C16.0298 46.4335 16.551 45.6517 16.551 44.7395C16.551 43.8274 16.2904 43.0455 15.6388 42.394C14.4659 41.2212 13.9446 39.6575 13.9446 38.0938C14.0749 36.5301 14.7265 35.0968 16.0298 34.0543C16.551 33.6634 17.333 33.6634 17.8543 34.1846C18.2452 34.7058 18.2452 35.4877 17.724 36.0089C17.0723 36.5301 16.551 37.312 16.551 38.2241C16.551 39.1363 16.8117 39.9181 17.4633 40.5697C18.6362 41.7424 19.1575 43.3061 19.1575 44.8698C19.0272 46.4335 18.3756 47.8669 17.0723 48.9093C16.4207 49.4306 15.8994 50.2124 15.8994 51.1246C15.8994 52.0367 16.1601 52.8186 16.8117 53.4701C17.333 53.9913 17.333 54.7732 16.8117 55.2944C16.551 55.555 16.1601 55.6853 15.8994 55.6853Z" fill="#FAFAFA"/>
<path d="M269.508 72.2343C269.378 72.2343 269.117 72.2343 268.987 72.104L264.295 67.8038C264.034 67.5432 264.034 67.022 264.295 66.7614C264.556 66.5008 265.077 66.5008 265.338 66.7614L270.029 71.0615C270.29 71.3221 270.29 71.8434 270.029 72.104C269.899 72.104 269.638 72.2343 269.508 72.2343Z" fill="#FAFAFA"/>
<path d="M114.685 106.766C114.424 106.766 114.294 106.636 114.163 106.505L109.732 101.423C109.472 101.163 109.472 100.641 109.863 100.381C110.123 100.12 110.645 100.12 110.905 100.511L115.336 105.593C115.597 105.854 115.597 106.375 115.206 106.636C115.076 106.766 114.815 106.766 114.685 106.766Z" fill="#FAFAFA"/>
<path d="M302.87 43.3061L300.785 41.2211L311.211 30.6663L321.767 41.2211L319.682 43.1758L311.211 34.8361L302.87 43.3061Z" fill="#FAFAFA"/>
</g>
</g>
<defs>
<linearGradient id="paint0_linear_1428_5857" x1="-64.5" y1="170.717" x2="315.137" y2="-107.445" gradientUnits="userSpaceOnUse">
<stop stop-color="#F05835"/>
<stop offset="1" stop-color="#FF9E80"/>
</linearGradient>
</defs>
</svg>
