<svg width="20" height="21" viewBox="0 0 20 21" fill="none" xmlns="http://www.w3.org/2000/svg">
<g filter="url(#filter0_b_1428_6154)">
<path d="M12.8907 1.99609V16.1367C12.8907 17.1093 12.1056 17.8945 11.1329 17.8945H7.03129L4.50008 10.2383L1.21875 0.331992C1.39457 0.273398 1.57039 0.238281 1.75785 0.238281H11.1329C12.1056 0.238281 12.8907 1.0234 12.8907 1.99609Z" fill="#E196BB"/>
<path d="M8.20313 5.06645V6.08598C8.20313 6.08598 8.20313 7.06254 8.20313 10.2383V18.4772C8.20313 19.9186 6.59766 20.7038 5.47262 19.9421L0.785118 16.9688C0.292969 16.6407 0 16.1016 0 15.5039V1.99613C0 1.21094 0.515625 0.554688 1.21871 0.332031L7.13672 3.43754C7.81637 3.77734 8.20313 4.375 8.20313 5.06645Z" fill="#F0B5D2"/>
<path d="M5.85938 9.06641V11.4102C5.85938 11.7382 5.6016 11.9961 5.27344 11.9961C4.94527 11.9961 4.6875 11.7382 4.6875 11.4102V9.06641C4.6875 8.73824 4.94527 8.48047 5.27344 8.48047C5.6016 8.48047 5.85938 8.73824 5.85938 9.06641Z" fill="white"/>
<path d="M20 10.2386C20 10.4143 19.9297 10.5901 19.7656 10.7073L15.7227 13.5784C15.3593 13.9534 14.7266 13.6839 14.7266 13.1683V11.4105H9.96094C9.63277 11.4105 9.375 11.1526 9.375 10.8245V9.65264C9.375 9.32448 9.63277 9.0667 9.96094 9.0667H14.7266V7.30889C14.7266 6.79327 15.3593 6.52369 15.7226 6.8987L19.7656 9.76979C19.9297 9.88702 20 10.0628 20 10.2386Z" fill="#FFCBE4"/>
</g>
<defs>
<filter id="filter0_b_1428_6154" x="-4" y="-3.76172" width="28" height="28" filterUnits="userSpaceOnUse" color-interpolation-filters="sRGB">
<feFlood flood-opacity="0" result="BackgroundImageFix"/>
<feGaussianBlur in="BackgroundImageFix" stdDeviation="2"/>
<feComposite in2="SourceAlpha" operator="in" result="effect1_backgroundBlur_1428_6154"/>
<feBlend mode="normal" in="SourceGraphic" in2="effect1_backgroundBlur_1428_6154" result="shape"/>
</filter>
</defs>
</svg>
