<svg width="9" height="9" viewBox="0 0 9 9" fill="none" xmlns="http://www.w3.org/2000/svg">
<path fill-rule="evenodd" clip-rule="evenodd" d="M4.6619 5.18475L7.73625 8.2591C7.94728 8.47013 8.29246 8.47027 8.50331 8.25942C8.71417 8.04856 8.71402 7.70338 8.50299 7.49235L5.42865 4.41801L8.50307 1.34358C8.7141 1.13255 8.71424 0.787376 8.50339 0.576522C8.29253 0.365668 7.94736 0.365811 7.73633 0.576841L4.6619 3.65126L1.58697 0.576335C1.37594 0.365305 1.03077 0.365161 0.819912 0.576016C0.609058 0.78687 0.609202 1.13205 0.820231 1.34308L3.89516 4.41801L0.820308 7.49286C0.609278 7.70389 0.609134 8.04907 0.819989 8.25992C1.03084 8.47078 1.37602 8.47063 1.58705 8.2596L4.6619 5.18475Z" fill="#A6A6A6"/>
</svg>
