<svg width="12" height="12" viewBox="0 0 12 12" fill="none" xmlns="http://www.w3.org/2000/svg">
<path fill-rule="evenodd" clip-rule="evenodd" d="M6.00426 7.12938L10.5312 11.6563C10.8419 11.9671 11.3502 11.9673 11.6607 11.6568C11.9712 11.3463 11.971 10.838 11.6602 10.5273L7.13328 6.00036L11.6603 1.47331C11.9711 1.16257 11.9713 0.654298 11.6608 0.343818C11.3503 0.0333383 10.8421 0.0335497 10.5313 0.344288L6.00426 4.87134L1.47647 0.343544C1.16573 0.0328051 0.65746 0.0325935 0.34698 0.343074C0.0364998 0.653554 0.0367113 1.16182 0.34745 1.47256L4.87524 6.00036L0.347562 10.528C0.0368237 10.8388 0.0366122 11.347 0.347092 11.6575C0.657572 11.968 1.16584 11.9678 1.47658 11.6571L6.00426 7.12938Z" fill="#3E3E3E"/>
</svg>
