<svg width="40" height="100" viewBox="0 0 40 100" fill="none" xmlns="http://www.w3.org/2000/svg">
<path d="M12.5207 78.4664C12.9935 76.7586 15.6321 77.2274 15.5554 78.9967C15.4596 81.2083 15.3638 83.4199 15.2256 85.5854C15.1526 86.2469 14.972 87.347 14.8799 88.4509C27.6902 78.1488 35.2726 61.6819 33.5548 45.0779C31.5636 26.6008 18.757 10.2254 1.5941 3.36619C0.155524 2.81639 0.785978 0.539317 2.31685 1.00449C21.2413 7.09804 36.2402 24.0116 38.7855 44.0194C41.1382 62.3349 33.5446 81.1057 19.5152 92.9503C20.9307 93.0116 22.4384 92.9883 23.1884 93.0652C25.4423 93.2071 27.7001 93.2607 30.004 93.2719C33.8579 93.3059 33.555 99.2753 29.7472 99.199C24.6086 99.1536 14.5661 99.782 10.8539 95.4555C7.3955 91.4059 11.3136 82.8013 12.5207 78.4664Z" fill="#3E304F"/>
</svg>
