<svg width="24" height="22" viewBox="0 0 24 22" fill="none" xmlns="http://www.w3.org/2000/svg">
<g filter="url(#filter0_b_1426_2671)">
<path d="M2.23666 0.499023H21.7637C22.9985 0.499023 24 1.50051 24 2.73569V15.2491C24 16.4843 22.9989 17.4858 21.7637 17.4858H16.9232C16.5928 17.4858 16.2758 17.6171 16.0421 17.8512L12.6254 21.2683C12.1322 21.7614 11.3326 21.7614 10.8395 21.2683L7.42271 17.8512C7.18902 17.6171 6.87202 17.4858 6.5416 17.4858H2.23666C1.00148 17.4858 0.000350952 16.4847 0.000350952 15.2491V2.73569C0.000350952 1.50051 1.00148 0.499023 2.23666 0.499023Z" fill="#F0B5D2"/>
<path d="M2.09325 0.504883C2.08831 0.564894 2.08513 0.625612 2.08513 0.686682V10.1558C2.08513 13.0723 4.44958 15.4371 7.36579 15.4371C8.50353 15.4371 9.59504 15.889 10.3995 16.6939L12.9246 19.2193C13.3574 19.6521 14.0253 19.705 14.5156 19.3788L12.6256 21.2692C12.1325 21.7624 11.3329 21.7624 10.8397 21.2692L7.42297 17.8521C7.18928 17.618 6.87228 17.4867 6.54186 17.4867H2.23692C1.00175 17.4867 0.000261307 16.4856 0.000261307 15.2501V2.7366C0.000614166 1.54944 0.925143 0.579015 2.09325 0.504883Z" fill="#E196BB"/>
<path d="M4.42101 8.44751H14.0853C14.4729 8.44751 14.7871 8.13333 14.7871 7.74573C14.7871 7.35812 14.4729 7.04395 14.0853 7.04395H4.42101C4.03341 7.04395 3.71923 7.35812 3.71923 7.74573C3.71923 8.13333 4.03341 8.44751 4.42101 8.44751Z" fill="white"/>
<path d="M9.0726 11.7268H14.0853C14.4729 11.7268 14.7871 11.4126 14.7871 11.025C14.7871 10.6374 14.4729 10.3232 14.0853 10.3232H9.0726C8.685 10.3232 8.37082 10.6374 8.37082 11.025C8.37082 11.4126 8.685 11.7268 9.0726 11.7268Z" fill="white"/>
<path d="M18.2089 12.0258H19.3914C20.0911 12.0258 20.6602 11.4568 20.6602 10.7571V9.48486C20.6602 9.11455 20.5543 8.75413 20.3545 8.44207L19.0053 6.33602C18.7959 6.00949 18.3621 5.91453 18.0359 6.12386C17.7094 6.33284 17.6144 6.76704 17.8234 7.09322L18.6752 8.42265H18.2089C17.5096 8.42265 16.9405 8.9917 16.9405 9.69137V10.7571C16.9405 11.4564 17.5096 12.0258 18.2089 12.0258Z" fill="white"/>
</g>
<defs>
<filter id="filter0_b_1426_2671" x="-4" y="-3.50098" width="32" height="29.1401" filterUnits="userSpaceOnUse" color-interpolation-filters="sRGB">
<feFlood flood-opacity="0" result="BackgroundImageFix"/>
<feGaussianBlur in="BackgroundImageFix" stdDeviation="2"/>
<feComposite in2="SourceAlpha" operator="in" result="effect1_backgroundBlur_1426_2671"/>
<feBlend mode="normal" in="SourceGraphic" in2="effect1_backgroundBlur_1426_2671" result="shape"/>
</filter>
</defs>
</svg>
