<svg width="42" height="42" viewBox="0 0 42 42" fill="none" xmlns="http://www.w3.org/2000/svg">
<path d="M40.7679 30.1932C39.9344 29.8385 38.9707 30.2266 38.616 31.0605C38.3729 31.6317 37.8148 32.0009 37.1942 32.0009H36.1446C35.4505 29.6331 33.258 27.8988 30.668 27.8988C29.8017 27.8988 28.9799 28.0928 28.2437 28.4397V20.7457H35.7368C37.2991 20.7457 38.5839 21.9166 38.7253 23.4693C38.8075 24.3717 39.6054 25.0354 40.5079 24.9544C41.4103 24.8722 42.0751 24.0741 41.993 23.1718C41.8514 21.6167 41.1379 20.1769 39.9841 19.1178C39.2357 18.4308 38.3433 17.9427 37.3812 17.6824L33.342 10.4415C32.2561 8.49491 30.2166 7.2706 27.9944 7.22097C27.2331 4.60813 24.8167 2.69336 21.9614 2.69336H6.28234C2.81817 2.69352 0 5.51186 0 8.97611V28.9996C0 32.3877 2.69578 35.158 6.05495 35.2781C6.77264 37.6079 8.94629 39.3061 11.5092 39.3061C14.0706 39.3061 16.2433 37.61 16.9622 35.2822H25.2149C25.9339 37.61 28.1065 39.3061 30.6679 39.3061C33.2293 39.3061 35.4019 37.61 36.1209 35.2822H37.1941C39.1329 35.2822 40.8761 34.1293 41.6352 32.3452C41.99 31.5113 41.6017 30.5479 40.7679 30.1932ZM30.4765 12.04L33.5024 17.4644H28.2438V10.5261C29.1777 10.6483 30.0108 11.2051 30.4765 12.04ZM3.28124 28.9995V8.97611C3.28124 7.32113 4.62753 5.97476 6.28234 5.97476H21.9615C23.6163 5.97476 24.9626 7.32113 24.9626 8.97611V32.0009H16.9858C16.2918 29.6331 14.0993 27.8988 11.5093 27.8988C8.92291 27.8988 6.73302 29.628 6.03567 31.9908C4.49579 31.865 3.28124 30.5715 3.28124 28.9995ZM11.5093 36.0248C10.1725 36.0248 9.08501 34.9382 9.08501 33.6024C9.08501 32.2668 10.1725 31.1802 11.5093 31.1802C12.846 31.1802 13.9335 32.2668 13.9335 33.6024C13.9334 34.9382 12.846 36.0248 11.5093 36.0248ZM30.668 36.0248C29.3312 36.0248 28.2437 34.9382 28.2437 33.6024C28.2437 32.2668 29.3312 31.1802 30.668 31.1802C32.0048 31.1802 33.0923 32.2668 33.0923 33.6024C33.0923 34.9382 32.0048 36.0248 30.668 36.0248Z" fill="#E11A7D"/>
</svg>
