<svg width="128" height="128" viewBox="0 0 128 128" fill="none" xmlns="http://www.w3.org/2000/svg">
<g clip-path="url(#clip0_1428_5036)">
<g filter="url(#filter0_d_1428_5036)">
<path d="M81.8974 23.9701C81.8974 21.7635 80.1087 19.9751 77.9025 19.9751C65.3149 19.9751 26.5694 19.9751 13.9823 19.9751C11.7757 19.9751 9.9873 21.7635 9.9873 23.9701V75.905H81.8974V23.9701Z" fill="url(#paint0_linear_1428_5036)"/>
</g>
<path d="M55.9303 19.9751H35.9551V40.417C35.9551 41.1368 36.3423 41.8005 36.9683 42.1551C37.5946 42.5099 38.3633 42.5002 38.9803 42.1299C40.9989 40.9189 43.5279 39.4013 44.9147 38.5693C45.5475 38.1896 46.3378 38.1896 46.9703 38.5693C48.3571 39.4013 50.8865 40.9189 52.905 42.1299C53.522 42.5002 54.2907 42.5099 54.9167 42.1551C55.543 41.8005 55.9303 41.1368 55.9303 40.417C55.9303 33.7527 55.9303 19.9751 55.9303 19.9751Z" fill="url(#paint1_linear_1428_5036)"/>
<g filter="url(#filter1_d_1428_5036)">
<path d="M81.8974 75.9051H9.9873V89.8877C9.9873 92.0069 10.829 94.039 12.3273 95.5373C13.8259 97.0359 15.858 97.8776 17.9772 97.8776H109.863C111.981 97.8776 114.014 97.0359 115.512 95.5373C117.011 94.039 117.852 92.0069 117.852 89.8877C117.852 83.6042 117.852 65.9175 117.852 65.9175C117.852 65.9175 105.02 44.5304 101.038 37.8949C100.316 36.6914 99.0163 35.9551 97.613 35.9551C92.7828 35.9551 81.8974 35.9551 81.8974 35.9551V75.9051Z" fill="url(#paint2_linear_1428_5036)"/>
</g>
<path d="M103.868 97.8775C103.868 102.289 100.292 105.865 95.8802 105.865C91.4687 105.865 87.8926 102.289 87.8926 97.8775C87.8926 93.4661 91.4687 89.8899 95.8802 89.8899C100.292 89.8899 103.868 93.4661 103.868 97.8775Z" fill="#DDE6EF" stroke="url(#paint3_linear_1428_5036)" stroke-width="4"/>
<path d="M39.9478 97.8775C39.9478 102.289 36.3717 105.865 31.9603 105.865C27.5488 105.865 23.9727 102.289 23.9727 97.8775C23.9727 93.4661 27.5488 89.8899 31.9603 89.8899C36.3717 89.8899 39.9478 93.4661 39.9478 97.8775Z" fill="#DDE6EF" stroke="url(#paint4_linear_1428_5036)" stroke-width="4"/>
</g>
<defs>
<filter id="filter0_d_1428_5036" x="4.9873" y="19.9751" width="81.9102" height="70.9299" filterUnits="userSpaceOnUse" color-interpolation-filters="sRGB">
<feFlood flood-opacity="0" result="BackgroundImageFix"/>
<feColorMatrix in="SourceAlpha" type="matrix" values="0 0 0 0 0 0 0 0 0 0 0 0 0 0 0 0 0 0 127 0" result="hardAlpha"/>
<feMorphology radius="5" operator="erode" in="SourceAlpha" result="effect1_dropShadow_1428_5036"/>
<feOffset dy="10"/>
<feGaussianBlur stdDeviation="5"/>
<feComposite in2="hardAlpha" operator="out"/>
<feColorMatrix type="matrix" values="0 0 0 0 0.85098 0 0 0 0 0.027451 0 0 0 0 0.0352942 0 0 0 0.2 0"/>
<feBlend mode="normal" in2="BackgroundImageFix" result="effect1_dropShadow_1428_5036"/>
<feBlend mode="normal" in="SourceGraphic" in2="effect1_dropShadow_1428_5036" result="shape"/>
</filter>
<filter id="filter1_d_1428_5036" x="-0.0126953" y="35.9551" width="127.865" height="81.9226" filterUnits="userSpaceOnUse" color-interpolation-filters="sRGB">
<feFlood flood-opacity="0" result="BackgroundImageFix"/>
<feColorMatrix in="SourceAlpha" type="matrix" values="0 0 0 0 0 0 0 0 0 0 0 0 0 0 0 0 0 0 127 0" result="hardAlpha"/>
<feOffset dy="10"/>
<feGaussianBlur stdDeviation="5"/>
<feComposite in2="hardAlpha" operator="out"/>
<feColorMatrix type="matrix" values="0 0 0 0 0.789062 0 0 0 0 0.876379 0 0 0 0 0.9375 0 0 0 1 0"/>
<feBlend mode="normal" in2="BackgroundImageFix" result="effect1_dropShadow_1428_5036"/>
<feBlend mode="normal" in="SourceGraphic" in2="effect1_dropShadow_1428_5036" result="shape"/>
</filter>
<linearGradient id="paint0_linear_1428_5036" x1="29.1128" y1="82.6092" x2="92.2212" y2="70.5667" gradientUnits="userSpaceOnUse">
<stop stop-color="#E11A7D"/>
<stop offset="1" stop-color="#FFA6D2"/>
</linearGradient>
<linearGradient id="paint1_linear_1428_5036" x1="42.7662" y1="20.6285" x2="52.985" y2="38.4225" gradientUnits="userSpaceOnUse">
<stop stop-color="#E9F5F8"/>
<stop offset="1" stop-color="#DDE6EF"/>
</linearGradient>
<linearGradient id="paint2_linear_1428_5036" x1="46.7672" y1="37.7582" x2="64.4107" y2="97.8776" gradientUnits="userSpaceOnUse">
<stop stop-color="#E9F5F8"/>
<stop offset="1" stop-color="#DDE6EF"/>
</linearGradient>
<linearGradient id="paint3_linear_1428_5036" x1="95.8802" y1="87.8899" x2="96.7532" y2="106.243" gradientUnits="userSpaceOnUse">
<stop stop-color="#477294"/>
<stop offset="1" stop-color="#1C3D57"/>
</linearGradient>
<linearGradient id="paint4_linear_1428_5036" x1="31.9603" y1="87.8899" x2="32.8333" y2="106.243" gradientUnits="userSpaceOnUse">
<stop stop-color="#477294"/>
<stop offset="1" stop-color="#1C3D57"/>
</linearGradient>
<clipPath id="clip0_1428_5036">
<rect width="128" height="128" fill="white"/>
</clipPath>
</defs>
</svg>
