<svg width="36" height="36" viewBox="0 0 36 36" fill="none" xmlns="http://www.w3.org/2000/svg">
<g clip-path="url(#clip0_1_15266)">
<path d="M14.3666 23.8277V20.6708C10.8367 17.7959 11.2997 10.7886 11.2997 10.7886C16.7237 9.32162 19.5109 6.00101 19.5109 6.00101C21.4297 9.75778 24.6726 10.8331 24.6726 10.8331C24.6726 10.8331 25.0824 17.7413 21.6156 20.6312L21.6327 20.6444V23.8277C21.6327 23.8277 24.9162 25.5484 28.0314 27.2958C29.2204 20.0056 31.2712 0 17.9624 0C4.63021 0 6.71157 20.0756 7.89947 27.3343C11.0347 25.5737 14.3666 23.8277 14.3666 23.8277Z" fill="#A27C7C"/>
<path d="M28.2595 25.7946C25.0789 24.0041 21.6328 22.1982 21.6328 22.1982V23.8275C21.6328 23.8275 24.9164 25.5482 28.0315 27.2956C28.1054 26.8419 28.1829 26.339 28.2595 25.7946Z" fill="#8A6C6C"/>
<path d="M7.89871 27.3341C11.0339 25.5735 14.3658 23.8275 14.3658 23.8275V22.1982C14.3655 22.1985 10.8694 24.0305 7.66992 25.8333C7.7471 26.3783 7.82483 26.8809 7.89871 27.3341Z" fill="#8A6C6C"/>
<path d="M21.632 23.8276C21.632 23.8276 31.1519 28.816 33.1498 30.4315C34.7579 31.7315 35.2369 34.5462 35.3624 35.5951C35.3883 35.8107 35.2199 35.9999 35.0029 35.9999H0.995008C0.778028 35.9999 0.609388 35.8107 0.63548 35.5951C0.760999 34.5462 1.24 31.7315 2.84813 30.4315C4.84599 28.816 14.3662 23.8276 14.3662 23.8276L16.9645 28.886C17.397 29.7284 18.6009 29.7284 19.0335 28.886L21.632 23.8276Z" fill="#FFCEBE"/>
<path d="M0.776331 34.6895C0.707117 35.0528 0.662897 35.3659 0.635431 35.595C0.609613 35.8106 0.777979 35.9998 0.995234 35.9998H35.0029C35.2198 35.9998 35.3885 35.8106 35.3627 35.5953C35.3352 35.3662 35.2907 35.0528 35.2215 34.6895H0.776331Z" fill="#F4AFB0"/>
<path d="M19.0345 28.8862L21.633 23.8278V20.6445C20.7225 21.3976 19.5439 21.8747 18.0182 21.8797C16.4771 21.8849 15.2865 21.4059 14.3672 20.6451V23.8278L16.9655 28.8862C17.398 29.7286 18.6019 29.7286 19.0345 28.8862Z" fill="#F9D6D6"/>
<path d="M14.3652 20.6451V21.981C15.2713 22.719 16.4403 23.1851 17.9482 23.1901C19.5077 23.1953 20.7074 22.7039 21.6313 21.9275V20.6445C20.7208 21.3976 19.542 21.8747 18.0165 21.8797C16.4754 21.8846 15.2848 21.4059 14.3652 20.6451Z" fill="#EBBCBC"/>
<path d="M11.2993 10.7888C11.2993 10.7888 10.5676 21.8553 17.9488 21.8797C25.3302 21.9042 24.6719 10.8333 24.6719 10.8333C24.6719 10.8333 21.429 9.75824 19.5102 6.00146C19.5102 6.00146 16.723 9.32181 11.2993 10.7888Z" fill="#FFDEDE"/>
<path d="M17.9489 20.5693C12.2629 20.5503 11.3915 13.98 11.2909 10.9626C11.2354 12.365 11.113 21.8572 17.9489 21.8797C25.0164 21.903 24.7135 11.7563 24.675 10.8931C24.5726 13.855 23.7074 20.5882 17.9489 20.5693Z" fill="#F9D6D6"/>
</g>
<defs>
<clipPath id="clip0_1_15266">
<rect width="36" height="36" fill="white"/>
</clipPath>
</defs>
</svg>
