<svg width="50" height="50" viewBox="0 0 50 50" fill="none" xmlns="http://www.w3.org/2000/svg">
<g filter="url(#filter0_i_1566_3195)">
<path d="M31.9913 9.36522C31.9913 8.50328 31.2925 7.80469 30.4307 7.80469C25.5137 7.80469 10.3788 7.80469 5.4619 7.80469C4.59996 7.80469 3.90137 8.50328 3.90137 9.36522V29.6523H31.9913V9.36522Z" fill="url(#paint0_linear_1566_3195)"/>
</g>
<path d="M21.8477 7.80469H14.0449V15.7898C14.0449 16.071 14.1962 16.3302 14.4407 16.4687C14.6854 16.6074 14.9857 16.6036 15.2267 16.4589C16.0151 15.9859 17.0031 15.393 17.5448 15.068C17.792 14.9197 18.1007 14.9197 18.3477 15.068C18.8894 15.393 19.8775 15.9859 20.666 16.4589C20.907 16.6036 21.2073 16.6074 21.4518 16.4687C21.6965 16.3302 21.8477 16.071 21.8477 15.7898C21.8477 13.1866 21.8477 7.80469 21.8477 7.80469Z" fill="url(#paint1_linear_1566_3195)"/>
<path d="M31.9913 29.6519H3.90137V35.1138C3.90137 35.9416 4.23016 36.7354 4.81541 37.3207C5.40081 37.9061 6.19463 38.2349 7.02243 38.2349H42.9151C43.7428 38.2349 44.5368 37.9061 45.122 37.3207C45.7074 36.7354 46.0362 35.9416 46.0362 35.1138C46.0362 32.6593 46.0362 25.7505 46.0362 25.7505C46.0362 25.7505 41.0236 17.3961 39.4682 14.8041C39.1862 14.334 38.6783 14.0464 38.1302 14.0464C36.2434 14.0464 31.9913 14.0464 31.9913 14.0464V29.6519Z" fill="url(#paint2_linear_1566_3195)"/>
<path d="M38.9736 38.2349C38.9736 39.0746 38.2929 39.7554 37.4532 39.7554C36.6134 39.7554 35.9327 39.0746 35.9327 38.2349C35.9327 37.3952 36.6134 36.7144 37.4532 36.7144C38.2929 36.7144 38.9736 37.3952 38.9736 38.2349Z" fill="#DDE6EF" stroke="url(#paint3_linear_1566_3195)" stroke-width="4.7619"/>
<path d="M14.0049 38.2349C14.0049 39.0746 13.3241 39.7554 12.4844 39.7554C11.6447 39.7554 10.964 39.0746 10.964 38.2349C10.964 37.3952 11.6447 36.7144 12.4844 36.7144C13.3241 36.7144 14.0049 37.3952 14.0049 38.2349Z" fill="#DDE6EF" stroke="url(#paint4_linear_1566_3195)" stroke-width="4.7619"/>
<defs>
<filter id="filter0_i_1566_3195" x="3.90137" y="7.80469" width="28.0898" height="23.8477" filterUnits="userSpaceOnUse" color-interpolation-filters="sRGB">
<feFlood flood-opacity="0" result="BackgroundImageFix"/>
<feBlend mode="normal" in="SourceGraphic" in2="BackgroundImageFix" result="shape"/>
<feColorMatrix in="SourceAlpha" type="matrix" values="0 0 0 0 0 0 0 0 0 0 0 0 0 0 0 0 0 0 127 0" result="hardAlpha"/>
<feOffset dy="2"/>
<feGaussianBlur stdDeviation="2"/>
<feComposite in2="hardAlpha" operator="arithmetic" k2="-1" k3="1"/>
<feColorMatrix type="matrix" values="0 0 0 0 0 0 0 0 0 0 0 0 0 0 0 0 0 0 0.1 0"/>
<feBlend mode="normal" in2="shape" result="effect1_innerShadow_1566_3195"/>
</filter>
<linearGradient id="paint0_linear_1566_3195" x1="11.3723" y1="32.2711" x2="36.024" y2="27.567" gradientUnits="userSpaceOnUse">
<stop stop-color="#E11A7D"/>
<stop offset="1" stop-color="#FFA6D2"/>
</linearGradient>
<linearGradient id="paint1_linear_1566_3195" x1="16.7055" y1="8.05993" x2="20.6972" y2="15.0107" gradientUnits="userSpaceOnUse">
<stop stop-color="#E9F5F8"/>
<stop offset="1" stop-color="#DDE6EF"/>
</linearGradient>
<linearGradient id="paint2_linear_1566_3195" x1="18.2685" y1="14.7507" x2="25.1605" y2="38.2349" gradientUnits="userSpaceOnUse">
<stop stop-color="#E9F5F8"/>
<stop offset="1" stop-color="#DDE6EF"/>
</linearGradient>
<linearGradient id="paint3_linear_1566_3195" x1="37.4532" y1="34.3335" x2="37.7942" y2="41.5027" gradientUnits="userSpaceOnUse">
<stop stop-color="#477294"/>
<stop offset="1" stop-color="#1C3D57"/>
</linearGradient>
<linearGradient id="paint4_linear_1566_3195" x1="12.4844" y1="34.3335" x2="12.8255" y2="41.5027" gradientUnits="userSpaceOnUse">
<stop stop-color="#477294"/>
<stop offset="1" stop-color="#1C3D57"/>
</linearGradient>
</defs>
</svg>
