<svg width="176" height="49" viewBox="0 0 176 49" fill="none" xmlns="http://www.w3.org/2000/svg">
<path d="M140.778 44.7625C140.499 44.7625 140.255 44.6629 140.046 44.4637C139.847 44.2545 139.747 44.0105 139.747 43.7316C139.747 43.4428 139.847 43.1987 140.046 42.9995C140.255 42.7904 140.499 42.6858 140.778 42.6858C141.067 42.6858 141.311 42.7904 141.51 42.9995C141.709 43.1987 141.809 43.4428 141.809 43.7316C141.809 44.0105 141.709 44.2545 141.51 44.4637C141.311 44.6629 141.067 44.7625 140.778 44.7625ZM147.61 44.5832C146.813 44.5832 146.101 44.4039 145.473 44.0454C144.856 43.6768 144.368 43.1838 144.009 42.5663C143.661 41.9388 143.486 41.2316 143.486 40.4448C143.486 39.638 143.661 38.9209 144.009 38.2934C144.358 37.6659 144.836 37.1779 145.443 36.8293C146.051 36.4707 146.748 36.2914 147.535 36.2914C148.123 36.2914 148.661 36.406 149.149 36.635C149.637 36.8542 150.075 37.1878 150.463 37.636C150.603 37.7954 150.653 37.9597 150.613 38.1291C150.573 38.2984 150.463 38.4478 150.284 38.5773C150.145 38.6769 149.99 38.7117 149.821 38.6818C149.652 38.642 149.497 38.5524 149.358 38.4129C148.87 37.895 148.262 37.636 147.535 37.636C147.027 37.636 146.579 37.7556 146.19 37.9946C145.802 38.2237 145.498 38.5474 145.279 38.9657C145.06 39.384 144.95 39.8771 144.95 40.4448C144.95 40.9826 145.06 41.4607 145.279 41.879C145.508 42.2974 145.822 42.631 146.22 42.88C146.619 43.1191 147.082 43.2386 147.61 43.2386C147.958 43.2386 148.262 43.1987 148.521 43.1191C148.79 43.0294 149.034 42.895 149.253 42.7157C149.413 42.5862 149.577 42.5165 149.746 42.5065C149.915 42.4866 150.065 42.5314 150.194 42.641C150.364 42.7804 150.458 42.9398 150.478 43.1191C150.498 43.2884 150.438 43.4428 150.299 43.5822C149.582 44.2495 148.685 44.5832 147.61 44.5832ZM156.583 44.5832C155.776 44.5832 155.064 44.4089 154.446 44.0603C153.829 43.7017 153.341 43.2137 152.982 42.5962C152.633 41.9687 152.459 41.2515 152.459 40.4448C152.459 39.628 152.633 38.9109 152.982 38.2934C153.341 37.6659 153.829 37.1779 154.446 36.8293C155.064 36.4707 155.776 36.2914 156.583 36.2914C157.379 36.2914 158.087 36.4707 158.704 36.8293C159.322 37.1779 159.805 37.6659 160.153 38.2934C160.512 38.9109 160.691 39.628 160.691 40.4448C160.691 41.2515 160.517 41.9687 160.168 42.5962C159.82 43.2137 159.337 43.7017 158.719 44.0603C158.101 44.4089 157.389 44.5832 156.583 44.5832ZM156.583 43.2386C157.1 43.2386 157.559 43.1191 157.957 42.88C158.355 42.641 158.664 42.3123 158.883 41.894C159.112 41.4756 159.227 40.9926 159.227 40.4448C159.227 39.897 159.112 39.4139 158.883 38.9956C158.664 38.5673 158.355 38.2336 157.957 37.9946C157.559 37.7556 157.1 37.636 156.583 37.636C156.065 37.636 155.606 37.7556 155.208 37.9946C154.81 38.2336 154.496 38.5673 154.267 38.9956C154.038 39.4139 153.923 39.897 153.923 40.4448C153.923 40.9926 154.038 41.4756 154.267 41.894C154.496 42.3123 154.81 42.641 155.208 42.88C155.606 43.1191 156.065 43.2386 156.583 43.2386ZM173.686 44.5384C173.467 44.5384 173.283 44.4687 173.133 44.3292C172.994 44.1798 172.924 43.9956 172.924 43.7764V39.5035C172.924 38.8761 172.77 38.4129 172.461 38.1141C172.152 37.8054 171.749 37.651 171.251 37.651C170.733 37.651 170.305 37.8303 169.966 38.1888C169.637 38.5474 169.473 39.0055 169.473 39.5633H168.233C168.233 38.9159 168.372 38.3482 168.651 37.8601C168.93 37.3621 169.319 36.9737 169.817 36.6948C170.325 36.4159 170.902 36.2765 171.55 36.2765C172.117 36.2765 172.62 36.401 173.059 36.65C173.497 36.899 173.836 37.2675 174.075 37.7556C174.324 38.2336 174.448 38.8163 174.448 39.5035V43.7764C174.448 43.9956 174.378 44.1798 174.239 44.3292C174.099 44.4687 173.915 44.5384 173.686 44.5384ZM163.721 44.5384C163.502 44.5384 163.318 44.4687 163.168 44.3292C163.029 44.1798 162.959 43.9956 162.959 43.7764V37.1281C162.959 36.899 163.029 36.7147 163.168 36.5753C163.318 36.4358 163.502 36.3661 163.721 36.3661C163.95 36.3661 164.134 36.4358 164.274 36.5753C164.413 36.7147 164.483 36.899 164.483 37.1281V43.7764C164.483 43.9956 164.413 44.1798 164.274 44.3292C164.134 44.4687 163.95 44.5384 163.721 44.5384ZM168.711 44.5384C168.492 44.5384 168.308 44.4687 168.158 44.3292C168.019 44.1798 167.949 43.9956 167.949 43.7764V39.5035C167.949 38.8761 167.795 38.4129 167.486 38.1141C167.177 37.8054 166.774 37.651 166.276 37.651C165.758 37.651 165.33 37.8303 164.991 38.1888C164.652 38.5474 164.483 39.0055 164.483 39.5633H163.542C163.542 38.9159 163.671 38.3482 163.93 37.8601C164.189 37.3621 164.548 36.9737 165.006 36.6948C165.464 36.4159 165.987 36.2765 166.575 36.2765C167.142 36.2765 167.645 36.401 168.084 36.65C168.522 36.899 168.86 37.2675 169.099 37.7556C169.348 38.2336 169.473 38.8163 169.473 39.5035V43.7764C169.473 43.9956 169.403 44.1798 169.264 44.3292C169.124 44.4687 168.94 44.5384 168.711 44.5384Z" fill="#333333"/>
<path d="M14.3772 28.3185C12.6519 28.3185 11.0332 27.999 9.52089 27.36C8.02992 26.6998 6.72 25.7945 5.59112 24.6443C4.48355 23.4729 3.61027 22.1097 2.97128 20.5548C2.3536 19 2.04475 17.3173 2.04475 15.5069C2.04475 13.7177 2.3536 12.0563 2.97128 10.5228C3.61027 8.9679 4.48355 7.61538 5.59112 6.46521C6.72 5.29374 8.02992 4.37786 9.52089 3.71757C11.0119 3.05729 12.6306 2.72714 14.3772 2.72714C16.0172 2.72714 17.423 2.94014 18.5945 3.36613C19.7873 3.79212 20.98 4.495 22.1728 5.47478C22.3432 5.60258 22.471 5.74102 22.5562 5.89012C22.6627 6.01792 22.7266 6.15637 22.7479 6.30546C22.7905 6.43326 22.8118 6.59301 22.8118 6.7847C22.8118 7.18939 22.6627 7.53018 22.3645 7.80708C22.0876 8.06267 21.7468 8.21177 21.3421 8.25437C20.9374 8.27567 20.5434 8.13722 20.16 7.83903C19.3719 7.15744 18.5519 6.63561 17.6999 6.27351C16.8692 5.91142 15.7616 5.73038 14.3772 5.73038C13.1205 5.73038 11.9384 5.98597 10.8308 6.49716C9.72323 7.00835 8.74345 7.71123 7.89147 8.60581C7.06079 9.50039 6.41116 10.5441 5.94257 11.7368C5.47398 12.9083 5.23968 14.165 5.23968 15.5069C5.23968 16.87 5.47398 18.148 5.94257 19.3408C6.41116 20.5122 7.06079 21.5453 7.89147 22.4398C8.74345 23.3344 9.72323 24.0373 10.8308 24.5485C11.9384 25.0384 13.1205 25.2833 14.3772 25.2833C15.4635 25.2833 16.4858 25.1023 17.4443 24.7402C18.4241 24.3568 19.3613 23.835 20.2558 23.1747C20.6392 22.8978 21.012 22.7806 21.3741 22.8232C21.7575 22.8445 22.077 22.9936 22.3325 23.2705C22.5881 23.5261 22.7159 23.8882 22.7159 24.3568C22.7159 24.5698 22.6733 24.7828 22.5881 24.9958C22.5029 25.1875 22.3751 25.3685 22.2047 25.5389C21.0546 26.4548 19.8192 27.147 18.4986 27.6156C17.1994 28.0842 15.8255 28.3185 14.3772 28.3185ZM34.3552 28.1268C32.6299 28.1268 31.107 27.7541 29.7865 27.0086C28.4659 26.2418 27.4222 25.1981 26.6554 23.8776C25.9099 22.5357 25.5372 21.0021 25.5372 19.2769C25.5372 17.5303 25.9099 15.9967 26.6554 14.6762C27.4222 13.3343 28.4659 12.2906 29.7865 11.5451C31.107 10.7784 32.6299 10.395 34.3552 10.395C36.0592 10.395 37.5714 10.7784 38.892 11.5451C40.2126 12.2906 41.2456 13.3343 41.9911 14.6762C42.7579 15.9967 43.1413 17.5303 43.1413 19.2769C43.1413 21.0021 42.7685 22.5357 42.023 23.8776C41.2776 25.1981 40.2445 26.2418 38.924 27.0086C37.6034 27.7541 36.0805 28.1268 34.3552 28.1268ZM34.3552 25.2514C35.4628 25.2514 36.4426 24.9958 37.2945 24.4846C38.1465 23.9734 38.8068 23.2705 39.2754 22.376C39.7653 21.4814 40.0102 20.4483 40.0102 19.2769C40.0102 18.1054 39.7653 17.0724 39.2754 16.1778C38.8068 15.2619 38.1465 14.5484 37.2945 14.0372C36.4426 13.526 35.4628 13.2704 34.3552 13.2704C33.2476 13.2704 32.2679 13.526 31.4159 14.0372C30.5639 14.5484 29.893 15.2619 29.4031 16.1778C28.9132 17.0724 28.6682 18.1054 28.6682 19.2769C28.6682 20.4483 28.9132 21.4814 29.4031 22.376C29.893 23.2705 30.5639 23.9734 31.4159 24.4846C32.2679 24.9958 33.2476 25.2514 34.3552 25.2514ZM49.6527 27.392L47.4801 25.475L58.3429 11.1298L60.4835 13.0468L49.6527 27.392ZM48.6942 27.999C47.6931 27.999 47.1926 27.4985 47.1926 26.4974C47.1926 25.4963 47.6931 24.9958 48.6942 24.9958H59.5889C60.59 24.9958 61.0905 25.4963 61.0905 26.4974C61.0905 27.4985 60.59 27.999 59.5889 27.999H48.6942ZM48.3747 13.526C47.3736 13.526 46.8731 13.0255 46.8731 12.0244C46.8731 11.0233 47.3736 10.5228 48.3747 10.5228H59.2694C60.2705 10.5228 60.771 11.0233 60.771 12.0244C60.771 13.0255 60.2705 13.526 59.2694 13.526H48.3747ZM88.1848 28.031C87.7162 28.031 87.3221 27.8819 87.0026 27.5837C86.7044 27.2642 86.5553 26.8701 86.5553 26.4016V17.2641C86.5553 15.9222 86.2252 14.9318 85.5649 14.2928C84.9046 13.6325 84.042 13.3024 82.977 13.3024C81.8694 13.3024 80.9536 13.6857 80.2294 14.4525C79.5265 15.2193 79.1751 16.1991 79.1751 17.3919H76.5233C76.5233 16.0074 76.8215 14.7933 77.4178 13.7496C78.0142 12.6847 78.8449 11.854 79.9099 11.2576C80.9962 10.6612 82.2315 10.363 83.616 10.363C84.8301 10.363 85.9057 10.6293 86.8429 11.1618C87.7801 11.6942 88.5042 12.4823 89.0154 13.526C89.5479 14.5484 89.8142 15.7944 89.8142 17.2641V26.4016C89.8142 26.8701 89.6651 27.2642 89.3669 27.5837C89.0687 27.8819 88.6746 28.031 88.1848 28.031ZM66.8746 28.031C66.406 28.031 66.012 27.8819 65.6925 27.5837C65.3943 27.2642 65.2452 26.8701 65.2452 26.4016V12.1841C65.2452 11.6942 65.3943 11.3002 65.6925 11.002C66.012 10.7038 66.406 10.5547 66.8746 10.5547C67.3645 10.5547 67.7585 10.7038 68.0567 11.002C68.3549 11.3002 68.504 11.6942 68.504 12.1841V26.4016C68.504 26.8701 68.3549 27.2642 68.0567 27.5837C67.7585 27.8819 67.3645 28.031 66.8746 28.031ZM77.5456 28.031C77.0771 28.031 76.683 27.8819 76.3635 27.5837C76.0653 27.2642 75.9162 26.8701 75.9162 26.4016V17.2641C75.9162 15.9222 75.5861 14.9318 74.9258 14.2928C74.2655 13.6325 73.4029 13.3024 72.3379 13.3024C71.2303 13.3024 70.3145 13.6857 69.5903 14.4525C68.8661 15.2193 68.504 16.1991 68.504 17.3919H66.4912C66.4912 16.0074 66.7681 14.7933 67.3219 13.7496C67.8757 12.6847 68.6424 11.854 69.6222 11.2576C70.602 10.6612 71.7202 10.363 72.9769 10.363C74.191 10.363 75.2666 10.6293 76.2038 11.1618C77.141 11.6942 77.8651 12.4823 78.3763 13.526C78.9088 14.5484 79.1751 15.7944 79.1751 17.2641V26.4016C79.1751 26.8701 79.026 27.2642 78.7278 27.5837C78.4296 27.8819 78.0355 28.031 77.5456 28.031ZM103.44 28.1268C101.672 28.1268 100.096 27.7541 98.7113 27.0086C97.3481 26.2418 96.2725 25.1981 95.4844 23.8776C94.7176 22.5357 94.3342 21.0021 94.3342 19.2769C94.3342 17.5303 94.6963 15.9967 95.4205 14.6762C96.166 13.3343 97.1884 12.2906 98.4876 11.5451C99.7869 10.7784 101.278 10.395 102.961 10.395C104.622 10.395 106.049 10.7677 107.242 11.5132C108.435 12.2374 109.34 13.2491 109.957 14.5484C110.596 15.8263 110.916 17.3067 110.916 18.9893C110.916 19.394 110.777 19.7348 110.501 20.0117C110.224 20.2673 109.872 20.3951 109.446 20.3951H96.5707V17.8392H109.35L108.04 18.7337C108.019 17.6688 107.806 16.7209 107.401 15.8902C106.997 15.0383 106.422 14.3673 105.676 13.8774C104.931 13.3876 104.026 13.1426 102.961 13.1426C101.746 13.1426 100.703 13.4089 99.8295 13.9413C98.9775 14.4738 98.3279 15.2087 97.8806 16.1458C97.4333 17.0617 97.2097 18.1054 97.2097 19.2769C97.2097 20.4483 97.4759 21.492 98.0084 22.4079C98.5409 23.3238 99.2757 24.048 100.213 24.5805C101.15 25.1129 102.226 25.3792 103.44 25.3792C104.1 25.3792 104.771 25.262 105.453 25.0277C106.155 24.7721 106.72 24.4846 107.146 24.1651C107.465 23.9308 107.806 23.8137 108.168 23.8137C108.552 23.7924 108.882 23.8989 109.159 24.1332C109.521 24.4527 109.712 24.8041 109.734 25.1875C109.755 25.5709 109.585 25.901 109.223 26.1779C108.498 26.753 107.593 27.2216 106.507 27.5837C105.442 27.9458 104.42 28.1268 103.44 28.1268ZM121.43 27.999C120.365 27.999 119.407 27.7328 118.555 27.2003C117.703 26.6465 117.032 25.901 116.542 24.9638C116.052 24.0267 115.807 22.9723 115.807 21.8009V6.56106C115.807 6.09247 115.956 5.70908 116.254 5.41088C116.553 5.11269 116.936 4.96359 117.405 4.96359C117.873 4.96359 118.257 5.11269 118.555 5.41088C118.853 5.70908 119.002 6.09247 119.002 6.56106V21.8009C119.002 22.6528 119.236 23.3664 119.705 23.9415C120.174 24.5166 120.749 24.8041 121.43 24.8041H122.516C122.9 24.8041 123.219 24.9532 123.475 25.2514C123.752 25.5496 123.89 25.933 123.89 26.4016C123.89 26.8701 123.709 27.2535 123.347 27.5517C123.006 27.8499 122.559 27.999 122.005 27.999H121.43ZM114.337 13.9094C113.89 13.9094 113.528 13.7816 113.251 13.526C112.974 13.2704 112.836 12.9509 112.836 12.5675C112.836 12.1415 112.974 11.8007 113.251 11.5451C113.528 11.2896 113.89 11.1618 114.337 11.1618H121.718C122.165 11.1618 122.527 11.2896 122.804 11.5451C123.081 11.8007 123.219 12.1415 123.219 12.5675C123.219 12.9509 123.081 13.2704 122.804 13.526C122.527 13.7816 122.165 13.9094 121.718 13.9094H114.337ZM129.845 27.999C129.376 27.999 128.982 27.8499 128.662 27.5517C128.364 27.2322 128.215 26.8382 128.215 26.3696V12.1522C128.215 11.6623 128.364 11.2682 128.662 10.9701C128.982 10.6719 129.376 10.5228 129.845 10.5228C130.335 10.5228 130.729 10.6719 131.027 10.9701C131.325 11.2682 131.474 11.6623 131.474 12.1522V26.3696C131.474 26.8382 131.325 27.2322 131.027 27.5517C130.729 27.8499 130.335 27.999 129.845 27.999ZM129.845 7.67928C129.27 7.67928 128.769 7.47694 128.343 7.07225C127.938 6.64626 127.736 6.14572 127.736 5.57063C127.736 4.99554 127.938 4.50565 128.343 4.10096C128.769 3.67497 129.27 3.46198 129.845 3.46198C130.42 3.46198 130.91 3.67497 131.314 4.10096C131.74 4.50565 131.953 4.99554 131.953 5.57063C131.953 6.14572 131.74 6.64626 131.314 7.07225C130.91 7.47694 130.42 7.67928 129.845 7.67928ZM145.46 28.1268C143.756 28.1268 142.233 27.7434 140.891 26.9766C139.571 26.1886 138.527 25.1342 137.76 23.8137C137.015 22.4718 136.642 20.9595 136.642 19.2769C136.642 17.5516 137.015 16.018 137.76 14.6762C138.506 13.3343 139.528 12.2906 140.827 11.5451C142.127 10.7784 143.618 10.395 145.3 10.395C146.557 10.395 147.707 10.6399 148.751 11.1298C149.795 11.5984 150.732 12.3119 151.562 13.2704C151.861 13.6112 151.967 13.9626 151.882 14.3247C151.797 14.6868 151.562 15.0063 151.179 15.2832C150.881 15.4962 150.551 15.5708 150.189 15.5069C149.826 15.4217 149.496 15.23 149.198 14.9318C148.154 13.8242 146.855 13.2704 145.3 13.2704C144.214 13.2704 143.256 13.526 142.425 14.0372C141.594 14.5271 140.945 15.2193 140.476 16.1139C140.007 17.0085 139.773 18.0628 139.773 19.2769C139.773 20.427 140.007 21.4494 140.476 22.344C140.966 23.2386 141.637 23.9521 142.489 24.4846C143.341 24.9958 144.331 25.2514 145.46 25.2514C146.206 25.2514 146.855 25.1662 147.409 24.9958C147.984 24.8041 148.506 24.5166 148.974 24.1332C149.315 23.8563 149.667 23.7072 150.029 23.6859C150.391 23.6433 150.71 23.7391 150.987 23.9734C151.349 24.2716 151.552 24.6124 151.594 24.9958C151.637 25.3579 151.509 25.688 151.211 25.9862C149.677 27.4133 147.76 28.1268 145.46 28.1268ZM164.009 28.1268C162.455 28.1268 161.059 27.7434 159.824 26.9766C158.589 26.1886 157.609 25.1342 156.885 23.8137C156.182 22.4718 155.83 20.9595 155.83 19.2769C155.83 17.5942 156.214 16.0819 156.981 14.7401C157.769 13.3982 158.823 12.3439 160.144 11.5771C161.485 10.789 162.987 10.395 164.648 10.395C166.31 10.395 167.801 10.789 169.121 11.5771C170.442 12.3439 171.486 13.3982 172.252 14.7401C173.04 16.0819 173.434 17.5942 173.434 19.2769H172.188C172.188 20.9595 171.826 22.4718 171.102 23.8137C170.399 25.1342 169.43 26.1886 168.195 26.9766C166.959 27.7434 165.564 28.1268 164.009 28.1268ZM164.648 25.2514C165.735 25.2514 166.704 24.9958 167.556 24.4846C168.408 23.9521 169.079 23.2386 169.569 22.344C170.058 21.4281 170.303 20.4057 170.303 19.2769C170.303 18.1267 170.058 17.1043 169.569 16.2097C169.079 15.2939 168.408 14.5803 167.556 14.0691C166.704 13.5366 165.735 13.2704 164.648 13.2704C163.583 13.2704 162.614 13.5366 161.741 14.0691C160.889 14.5803 160.207 15.2939 159.696 16.2097C159.206 17.1043 158.961 18.1267 158.961 19.2769C158.961 20.4057 159.206 21.4281 159.696 22.344C160.207 23.2386 160.889 23.9521 161.741 24.4846C162.614 24.9958 163.583 25.2514 164.648 25.2514ZM171.805 28.031C171.336 28.031 170.942 27.8819 170.623 27.5837C170.325 27.2642 170.176 26.8701 170.176 26.4016V21.5133L170.783 18.1267L173.434 19.2769V26.4016C173.434 26.8701 173.275 27.2642 172.955 27.5837C172.657 27.8819 172.274 28.031 171.805 28.031Z" fill="#E11A7D"/>
<path d="M9.52089 27.36L9.11596 28.2744L9.12378 28.2779L9.13167 28.2812L9.52089 27.36ZM5.59112 24.6444L4.86448 25.3314L4.8709 25.3382L4.87744 25.3448L5.59112 24.6444ZM2.97128 20.5548L2.04187 20.9241L2.04634 20.935L2.97128 20.5548ZM2.97128 10.5228L2.04632 10.1426L2.0437 10.1492L2.97128 10.5228ZM5.59112 6.46521L4.87105 5.77132L4.8708 5.77157L5.59112 6.46521ZM9.52089 3.71757L9.11596 2.80322L9.11596 2.80322L9.52089 3.71757ZM18.5945 3.36613L18.2527 4.30594L18.2581 4.30787L18.5945 3.36613ZM22.1728 5.47478L21.5381 6.24751L21.5551 6.26153L21.5728 6.27478L22.1728 5.47478ZM22.5562 5.89012L21.6879 6.38626L21.7316 6.46269L21.788 6.53031L22.5562 5.89012ZM22.7479 6.30546L21.7579 6.44688L21.7707 6.53615L21.7992 6.6217L22.7479 6.30546ZM22.3645 7.80708L23.0428 8.54189L23.0449 8.53987L22.3645 7.80708ZM21.3421 8.25437L21.3947 9.25299L21.4208 9.25161L21.4468 9.24887L21.3421 8.25437ZM20.16 7.83903L19.5058 8.59539L19.5255 8.61241L19.5461 8.62838L20.16 7.83903ZM17.6999 6.27351L17.3003 7.19025L17.3088 7.19385L17.6999 6.27351ZM7.89147 8.60581L7.16728 7.9161L7.15868 7.92536L7.89147 8.60581ZM5.94257 11.7368L6.87106 12.1082L6.87332 12.1025L5.94257 11.7368ZM5.94257 19.3408L5.0118 19.7064L5.01409 19.7122L5.94257 19.3408ZM7.89147 22.4398L7.15862 23.1204L7.16733 23.1295L7.89147 22.4398ZM10.8308 24.5485L10.4117 25.4565L10.419 25.4598L10.4263 25.463L10.8308 24.5485ZM17.4443 24.7402L17.7977 25.6757L17.8087 25.6714L17.4443 24.7402ZM20.2558 23.1747L19.6703 22.364L19.662 22.3701L20.2558 23.1747ZM21.3741 22.8232L21.2572 23.8164L21.2878 23.82L21.3186 23.8217L21.3741 22.8232ZM22.3325 23.2705L21.5977 23.9488L21.6113 23.9635L21.6254 23.9776L22.3325 23.2705ZM22.5881 24.9958L23.502 25.4019L23.5096 25.3847L23.5166 25.3672L22.5881 24.9958ZM22.2048 25.5389L22.8277 26.3212L22.8719 26.286L22.9119 26.246L22.2048 25.5389ZM18.4986 27.6156L18.1642 26.6732L18.1594 26.6749L18.4986 27.6156ZM14.3772 27.3185C12.7787 27.3185 11.293 27.0232 9.9101 26.4389L9.13167 28.2812C10.7733 28.9748 12.5251 29.3185 14.3772 29.3185V27.3185ZM9.92581 26.4457C8.54895 25.8359 7.34413 25.0028 6.30481 23.9439L4.87744 25.3448C6.09586 26.5862 7.51089 27.5636 9.11596 28.2744L9.92581 26.4457ZM6.31777 23.9573C5.29816 22.8789 4.49054 21.6209 3.89622 20.1747L2.04634 20.935C2.72999 22.5985 3.66893 24.0668 4.86448 25.3314L6.31777 23.9573ZM3.90064 20.1856C3.33333 18.7576 3.04475 17.2013 3.04475 15.5069H1.04475C1.04475 17.4333 1.37386 19.2423 2.04193 20.924L3.90064 20.1856ZM3.04475 15.5069C3.04475 13.8351 3.33282 12.3017 3.89887 10.8964L2.0437 10.1492C1.37437 11.8109 1.04475 13.6003 1.04475 15.5069H3.04475ZM3.89622 10.9029C4.48991 9.45824 5.29576 8.2136 6.31144 7.15885L4.8708 5.77157C3.67134 7.01717 2.73063 8.47756 2.04634 10.1427L3.89622 10.9029ZM6.3112 7.1591C7.35007 6.08104 8.55289 5.23993 9.92581 4.63192L9.11596 2.80322C7.50695 3.51578 6.08993 4.50644 4.87105 5.77132L6.3112 7.1591ZM9.92581 4.63192C11.2804 4.03205 12.76 3.72714 14.3772 3.72714V1.72714C12.5012 1.72714 10.7433 2.08252 9.11596 2.80322L9.92581 4.63192ZM14.3772 3.72714C15.9354 3.72714 17.2193 3.93012 18.2527 4.30592L18.9362 2.42634C17.6267 1.95016 16.0991 1.72714 14.3772 1.72714V3.72714ZM18.2581 4.30787C19.3217 4.6877 20.4155 5.32537 21.5381 6.24751L22.8075 4.70205C21.5446 3.66464 20.2528 2.89654 18.9308 2.42439L18.2581 4.30787ZM21.5728 6.27478C21.6595 6.33977 21.6847 6.38053 21.6879 6.38626L23.4244 5.39398C23.2573 5.10152 23.0269 4.86539 22.7728 4.67478L21.5728 6.27478ZM21.788 6.53031C21.7902 6.53299 21.7839 6.526 21.776 6.50886C21.7678 6.49111 21.7612 6.46957 21.7579 6.44688L23.7378 6.16404C23.6876 5.8125 23.5368 5.50484 23.3244 5.24994L21.788 6.53031ZM21.7992 6.6217C21.7971 6.61542 21.8007 6.62421 21.8046 6.65329C21.8084 6.68207 21.8118 6.72505 21.8118 6.7847H23.8118C23.8118 6.52712 23.7842 6.25212 23.6966 5.98923L21.7992 6.6217ZM21.8118 6.7847C21.8118 6.90958 21.7798 6.98541 21.684 7.07429L23.0449 8.53987C23.5456 8.07496 23.8118 7.46921 23.8118 6.7847H21.8118ZM21.6862 7.07228C21.5805 7.16989 21.4461 7.2379 21.2374 7.25986L21.4468 9.24887C22.0475 9.18564 22.5947 8.95545 23.0428 8.54188L21.6862 7.07228ZM21.2896 7.25575C21.1706 7.26201 21.007 7.23097 20.7739 7.04968L19.5461 8.62838C20.0797 9.04347 20.7042 9.28932 21.3947 9.25299L21.2896 7.25575ZM20.8141 7.08266C19.9572 6.34151 19.0498 5.76067 18.091 5.35318L17.3088 7.19385C18.0539 7.51054 18.7866 7.97338 19.5058 8.59539L20.8141 7.08266ZM18.0995 5.35682C17.0941 4.91858 15.8337 4.73038 14.3772 4.73038V6.73038C15.6896 6.73038 16.6443 6.90426 17.3003 7.19021L18.0995 5.35682ZM14.3772 4.73038C12.9803 4.73038 11.6547 5.01552 10.4117 5.5892L11.2499 7.40512C12.222 6.95642 13.2607 6.73038 14.3772 6.73038V4.73038ZM10.4117 5.5892C9.18814 6.15394 8.10519 6.9314 7.16733 7.91615L8.61561 9.29547C9.38171 8.49106 10.2583 7.86275 11.2499 7.40512L10.4117 5.5892ZM7.15868 7.92536C6.23872 8.91609 5.52382 10.0679 5.01181 11.3712L6.87332 12.1025C7.29849 11.0202 7.88286 10.0847 8.62427 9.28626L7.15868 7.92536ZM5.01409 11.3654C4.49531 12.6624 4.23968 14.0459 4.23968 15.5069H6.23968C6.23968 14.284 6.45264 13.1542 6.87104 12.1082L5.01409 11.3654ZM4.23968 15.5069C4.23968 16.9871 4.49461 18.3899 5.01181 19.7064L6.87332 18.9751C6.45334 17.9061 6.23968 16.7529 6.23968 15.5069H4.23968ZM5.01409 19.7122C5.52679 20.9939 6.24151 22.1326 7.15868 23.1203L8.62427 21.7594C7.88007 20.958 7.29552 20.0306 6.87104 18.9694L5.01409 19.7122ZM7.16733 23.1295C8.10519 24.1143 9.18814 24.8917 10.4117 25.4565L11.2499 23.6405C10.2583 23.1829 9.38171 22.5546 8.61561 21.7502L7.16733 23.1295ZM10.4263 25.463C11.6661 26.0114 12.9866 26.2833 14.3772 26.2833V24.2833C13.2545 24.2833 12.2107 24.0654 11.2353 23.634L10.4263 25.463ZM14.3772 26.2833C15.5768 26.2833 16.7196 26.0829 17.7977 25.6757L17.0909 23.8047C16.252 24.1216 15.3501 24.2833 14.3772 24.2833V26.2833ZM17.8087 25.6714C18.8747 25.2543 19.8885 24.6887 20.8497 23.9793L19.662 22.3701C18.834 22.9812 17.9735 23.4593 17.0799 23.809L17.8087 25.6714ZM20.8413 23.9854C21.0838 23.8102 21.2107 23.8109 21.2572 23.8164L21.4909 21.8301C20.8133 21.7504 20.1946 21.9854 19.6704 22.364L20.8413 23.9854ZM21.3186 23.8217C21.448 23.8289 21.5221 23.8669 21.5977 23.9488L23.0674 22.5922C22.6318 22.1204 22.0669 21.8602 21.4295 21.8248L21.3186 23.8217ZM21.6254 23.9776C21.6425 23.9947 21.7159 24.0714 21.7159 24.3568H23.7159C23.7159 23.705 23.5337 23.0575 23.0397 22.5634L21.6254 23.9776ZM21.7159 24.3568C21.7159 24.4331 21.7013 24.5204 21.6597 24.6244L23.5166 25.3672C23.6454 25.0452 23.7159 24.7065 23.7159 24.3568H21.7159ZM21.6743 24.5897C21.6458 24.6538 21.594 24.7355 21.4976 24.8318L22.9119 26.246C23.1563 26.0016 23.3601 25.7212 23.502 25.4019L21.6743 24.5897ZM21.5818 24.7566C20.514 25.607 19.3754 26.2434 18.1642 26.6732L18.833 28.5581C20.2631 28.0506 21.5952 27.3027 22.8277 26.3212L21.5818 24.7566ZM18.1594 26.6749C16.9741 27.1024 15.7156 27.3185 14.3772 27.3185V29.3185C15.9355 29.3185 17.4246 29.066 18.8379 28.5563L18.1594 26.6749ZM29.7865 27.0086L29.2843 27.8734L29.2949 27.8794L29.7865 27.0086ZM26.6554 23.8776L25.7813 24.3632L25.7859 24.3715L25.7906 24.3797L26.6554 23.8776ZM26.6554 14.6762L25.7872 14.18L25.7846 14.1846L26.6554 14.6762ZM29.7865 11.5451L30.2781 12.416L30.2886 12.4099L29.7865 11.5451ZM38.892 11.5451L38.3898 12.41L38.4004 12.416L38.892 11.5451ZM41.9911 14.6762L41.1169 15.1618L41.1215 15.1701L41.1263 15.1783L41.9911 14.6762ZM42.023 23.8776L42.8939 24.3692L42.8972 24.3632L42.023 23.8776ZM38.924 27.0086L39.4156 27.8795L39.4261 27.8734L38.924 27.0086ZM37.2945 24.4846L36.78 23.6271H36.78L37.2945 24.4846ZM39.2754 22.3759L38.3983 21.8956L38.3939 21.9037L38.3896 21.9119L39.2754 22.3759ZM39.2754 16.1778L38.3852 16.6333L38.3916 16.6458L38.3983 16.6581L39.2754 16.1778ZM37.2945 14.0372L36.78 14.8947H36.78L37.2945 14.0372ZM31.4159 14.0372L31.9304 14.8947L31.4159 14.0372ZM29.4031 16.1778L30.2802 16.6581L30.2849 16.6494L29.4031 16.1778ZM29.4031 22.3759L30.2802 21.8956L29.4031 22.3759ZM31.4159 24.4846L30.9014 25.3421L31.4159 24.4846ZM34.3552 27.1268C32.7781 27.1268 31.429 26.7875 30.2781 26.1378L29.2949 27.8794C30.7851 28.7207 32.4818 29.1268 34.3552 29.1268V27.1268ZM30.2886 26.1438C29.1184 25.4643 28.1997 24.5456 27.5202 23.3754L25.7906 24.3797C26.6447 25.8506 27.8134 27.0193 29.2843 27.8734L30.2886 26.1438ZM27.5296 23.3919C26.8765 22.2163 26.5372 20.8536 26.5372 19.2769H24.5372C24.5372 21.1506 24.9434 22.8551 25.7813 24.3632L27.5296 23.3919ZM26.5372 19.2769C26.5372 17.6761 26.8776 16.3169 27.5263 15.1678L25.7846 14.1846C24.9423 15.6766 24.5372 17.3845 24.5372 19.2769H26.5372ZM27.5237 15.1723C28.2028 13.9839 29.1177 13.071 30.2781 12.416L29.2949 10.6743C27.8141 11.5102 26.6416 12.6847 25.7872 14.18L27.5237 15.1723ZM30.2886 12.4099C31.4376 11.7427 32.783 11.395 34.3552 11.395V9.39497C32.4769 9.39497 30.7764 9.81398 29.2843 10.6804L30.2886 12.4099ZM34.3552 11.395C35.9037 11.395 37.2389 11.7417 38.3899 12.4099L39.3941 10.6804C37.9039 9.81507 36.2146 9.39497 34.3552 9.39497V11.395ZM38.4004 12.416C39.5583 13.0696 40.4599 13.9791 41.1169 15.1618L42.8652 14.1905C42.0314 12.6895 40.8668 11.5116 39.3836 10.6743L38.4004 12.416ZM41.1263 15.1783C41.7924 16.3255 42.1413 17.6809 42.1413 19.2769H44.1413C44.1413 17.3797 43.7233 15.668 42.8559 14.174L41.1263 15.1783ZM42.1413 19.2769C42.1413 20.8536 41.802 22.2163 41.1489 23.3919L42.8972 24.3632C43.735 22.8551 44.1413 21.1506 44.1413 19.2769H42.1413ZM41.1522 23.386C40.4949 24.5504 39.5896 25.4657 38.4218 26.1438L39.4261 27.8734C40.8994 27.0179 42.0602 25.8459 42.8939 24.3692L41.1522 23.386ZM38.4324 26.1378C37.2815 26.7875 35.9323 27.1268 34.3552 27.1268V29.1268C36.2286 29.1268 37.9253 28.7207 39.4156 27.8794L38.4324 26.1378ZM34.3552 26.2514C35.6227 26.2514 36.7843 25.9569 37.809 25.3421L36.78 23.6271C36.1008 24.0346 35.3029 24.2514 34.3552 24.2514V26.2514ZM37.809 25.3421C38.8213 24.7347 39.6088 23.8945 40.1612 22.84L38.3896 21.9119C38.0048 22.6465 37.4717 23.2121 36.78 23.6271L37.809 25.3421ZM40.1525 22.8563C40.7343 21.7938 41.0102 20.591 41.0102 19.2769H39.0102C39.0102 20.3057 38.7963 21.1689 38.3983 21.8956L40.1525 22.8563ZM41.0102 19.2769C41.0102 17.9627 40.7343 16.7599 40.1525 15.6975L38.3983 16.6581C38.7963 17.3848 39.0102 18.2481 39.0102 19.2769H41.0102ZM40.1656 15.7223C39.615 14.6461 38.8273 13.7906 37.809 13.1797L36.78 14.8947C37.4658 15.3061 37.9986 15.8777 38.3852 16.6333L40.1656 15.7223ZM37.809 13.1797C36.7843 12.5649 35.6227 12.2704 34.3552 12.2704V14.2704C35.3029 14.2704 36.1008 14.4871 36.78 14.8947L37.809 13.1797ZM34.3552 12.2704C33.0877 12.2704 31.9261 12.5649 30.9014 13.1797L31.9304 14.8947C32.6096 14.4871 33.4075 14.2704 34.3552 14.2704V12.2704ZM30.9014 13.1797C29.8871 13.7882 29.0924 14.6384 28.5213 15.7061L30.2849 16.6494C30.6935 15.8855 31.2406 15.3085 31.9304 14.8947L30.9014 13.1797ZM28.526 15.6975C27.9442 16.7599 27.6682 17.9627 27.6682 19.2769H29.6682C29.6682 18.2481 29.8822 17.3848 30.2802 16.6581L28.526 15.6975ZM27.6682 19.2769C27.6682 20.591 27.9442 21.7938 28.526 22.8563L30.2802 21.8956C29.8822 21.1689 29.6682 20.3057 29.6682 19.2769H27.6682ZM28.526 22.8563C29.0987 23.9022 29.893 24.7371 30.9014 25.3421L31.9304 23.6271C31.2348 23.2097 30.6872 22.6389 30.2802 21.8956L28.526 22.8563ZM30.9014 25.3421C31.9261 25.9569 33.0877 26.2514 34.3552 26.2514V24.2514C33.4075 24.2514 32.6096 24.0346 31.9304 23.6271L30.9014 25.3421ZM49.6527 27.392L48.9911 28.1418L49.8004 28.8559L50.4507 27.9945L49.6527 27.392ZM47.4801 25.475L46.6829 24.8713L46.1228 25.611L46.8185 26.2249L47.4801 25.475ZM58.3429 11.1298L59.01 10.3849L58.2011 9.6605L57.5457 10.5261L58.3429 11.1298ZM60.4835 13.0468L61.2816 13.6493L61.8357 12.9153L61.1506 12.3018L60.4835 13.0468ZM50.3143 26.6421L48.1417 24.7252L46.8185 26.2249L48.9911 28.1418L50.3143 26.6421ZM48.2773 26.0787L59.1401 11.7335L57.5457 10.5261L46.6829 24.8713L48.2773 26.0787ZM57.6758 11.8748L59.8164 13.7917L61.1506 12.3018L59.01 10.3849L57.6758 11.8748ZM59.6854 12.4442L48.8546 26.7894L50.4507 27.9945L61.2816 13.6493L59.6854 12.4442ZM48.6942 26.999C48.5243 26.999 48.4163 26.9774 48.3535 26.9565C48.2955 26.9372 48.2781 26.9195 48.2751 26.9165C48.2721 26.9135 48.2544 26.8961 48.2351 26.8381C48.2142 26.7753 48.1926 26.6673 48.1926 26.4974H46.1926C46.1926 27.1521 46.3569 27.8268 46.8609 28.3307C47.3648 28.8347 48.0395 28.999 48.6942 28.999V26.999ZM48.1926 26.4974C48.1926 26.3275 48.2142 26.2195 48.2351 26.1567C48.2544 26.0987 48.2721 26.0813 48.2751 26.0783C48.2781 26.0753 48.2955 26.0577 48.3535 26.0383C48.4163 26.0174 48.5243 25.9958 48.6942 25.9958V23.9958C48.0395 23.9958 47.3648 24.1601 46.8609 24.6641C46.3569 25.168 46.1926 25.8427 46.1926 26.4974H48.1926ZM48.6942 25.9958H59.5889V23.9958H48.6942V25.9958ZM59.5889 25.9958C59.7588 25.9958 59.8668 26.0174 59.9296 26.0383C59.9876 26.0577 60.005 26.0753 60.008 26.0783C60.011 26.0813 60.0286 26.0987 60.048 26.1567C60.0689 26.2195 60.0905 26.3275 60.0905 26.4974H62.0905C62.0905 25.8427 61.9262 25.168 61.4222 24.6641C60.9183 24.1601 60.2436 23.9958 59.5889 23.9958V25.9958ZM60.0905 26.4974C60.0905 26.6673 60.0689 26.7753 60.048 26.8381C60.0286 26.8961 60.011 26.9135 60.008 26.9165C60.005 26.9195 59.9876 26.9372 59.9296 26.9565C59.8668 26.9774 59.7588 26.999 59.5889 26.999V28.999C60.2436 28.999 60.9183 28.8347 61.4222 28.3307C61.9262 27.8268 62.0905 27.1521 62.0905 26.4974H60.0905ZM59.5889 26.999H48.6942V28.999H59.5889V26.999ZM48.3747 12.526C48.2048 12.526 48.0968 12.5044 48.034 12.4835C47.976 12.4641 47.9586 12.4465 47.9556 12.4435C47.9526 12.4405 47.935 12.4231 47.9156 12.3651C47.8947 12.3023 47.8731 12.1943 47.8731 12.0244H45.8731C45.8731 12.6791 46.0374 13.3538 46.5414 13.8577C47.0453 14.3617 47.72 14.526 48.3747 14.526V12.526ZM47.8731 12.0244C47.8731 11.8545 47.8947 11.7465 47.9156 11.6837C47.935 11.6257 47.9526 11.6082 47.9556 11.6053C47.9586 11.6023 47.976 11.5846 48.034 11.5653C48.0968 11.5444 48.2048 11.5228 48.3747 11.5228V9.52277C47.72 9.52277 47.0453 9.68712 46.5414 10.1911C46.0374 10.695 45.8731 11.3697 45.8731 12.0244H47.8731ZM48.3747 11.5228H59.2694V9.52277H48.3747V11.5228ZM59.2694 11.5228C59.4393 11.5228 59.5473 11.5444 59.6101 11.5653C59.6681 11.5846 59.6855 11.6023 59.6885 11.6053C59.6915 11.6082 59.7092 11.6257 59.7285 11.6837C59.7494 11.7465 59.771 11.8545 59.771 12.0244H61.771C61.771 11.3697 61.6067 10.695 61.1027 10.1911C60.5988 9.68712 59.9241 9.52277 59.2694 9.52277V11.5228ZM59.771 12.0244C59.771 12.1943 59.7494 12.3023 59.7285 12.3651C59.7092 12.4231 59.6915 12.4405 59.6885 12.4435C59.6855 12.4465 59.6681 12.4641 59.6101 12.4835C59.5473 12.5044 59.4393 12.526 59.2694 12.526V14.526C59.9241 14.526 60.5988 14.3617 61.1027 13.8577C61.6067 13.3538 61.771 12.6791 61.771 12.0244H59.771ZM59.2694 12.526H48.3747V14.526H59.2694V12.526ZM87.0026 27.5837L86.2716 28.266L86.2951 28.2912L86.3203 28.3147L87.0026 27.5837ZM85.5649 14.2928L84.8578 14.9999L84.8636 15.0057L84.8695 15.0114L85.5649 14.2928ZM80.2294 14.4525L79.5024 13.7659L79.4973 13.7713L79.4922 13.7768L80.2294 14.4525ZM79.1751 17.3919V18.3919H80.1751V17.3919H79.1751ZM76.5233 17.3919H75.5233V18.3919H76.5233V17.3919ZM77.4178 13.7496L78.2861 14.2458L78.2904 14.2382L77.4178 13.7496ZM79.9099 11.2576L79.4286 10.381L79.4213 10.3851L79.9099 11.2576ZM86.8429 11.1618L86.3489 12.0312V12.0312L86.8429 11.1618ZM89.0154 13.526L88.1174 13.9659L88.1228 13.977L88.1285 13.9879L89.0154 13.526ZM89.3669 27.5837L90.074 28.2908L90.0862 28.2786L90.0979 28.266L89.3669 27.5837ZM65.6925 27.5837L64.9614 28.266L64.9849 28.2912L65.0101 28.3147L65.6925 27.5837ZM65.6925 11.002L65.0101 10.271L64.9975 10.2827L64.9854 10.2949L65.6925 11.002ZM68.0567 27.5837L68.7638 28.2908L68.776 28.2786L68.7878 28.266L68.0567 27.5837ZM76.3635 27.5837L75.6325 28.266L75.656 28.2912L75.6812 28.3147L76.3635 27.5837ZM74.9258 14.2928L74.2187 14.9999L74.2245 15.0057L74.2304 15.0114L74.9258 14.2928ZM69.5903 14.4525L68.8633 13.7659L69.5903 14.4525ZM68.504 17.3919V18.3919H69.504V17.3919H68.504ZM66.4912 17.3919H65.4912V18.3919H66.4912V17.3919ZM67.3219 13.7496L68.2053 14.2184L68.2091 14.211L67.3219 13.7496ZM69.6222 11.2576L69.1023 10.4034V10.4034L69.6222 11.2576ZM76.2038 11.1618L75.7098 12.0312V12.0312L76.2038 11.1618ZM78.3763 13.526L77.4783 13.9659L77.4837 13.977L77.4894 13.9879L78.3763 13.526ZM78.7278 27.5837L79.4349 28.2908L79.4471 28.2786L79.4588 28.266L78.7278 27.5837ZM88.1848 27.031C87.9494 27.031 87.8051 26.9648 87.685 26.8526L86.3203 28.3147C86.8391 28.799 87.4829 29.031 88.1848 29.031V27.031ZM87.7337 26.9014C87.6215 26.7812 87.5553 26.6369 87.5553 26.4016H85.5553C85.5553 27.1034 85.7874 27.7472 86.2716 28.266L87.7337 26.9014ZM87.5553 26.4016V17.2641H85.5553V26.4016H87.5553ZM87.5553 17.2641C87.5553 15.7765 87.1899 14.4737 86.2603 13.5742L84.8695 15.0114C85.2605 15.3898 85.5553 16.0679 85.5553 17.2641H87.5553ZM86.272 13.5857C85.3974 12.711 84.2667 12.3024 82.977 12.3024V14.3024C83.8173 14.3024 84.4119 14.554 84.8578 14.9999L86.272 13.5857ZM82.977 12.3024C81.6098 12.3024 80.4258 12.7881 79.5024 13.7659L80.9564 15.1392C81.4813 14.5834 82.1291 14.3024 82.977 14.3024V12.3024ZM79.4922 13.7768C78.5955 14.7551 78.1751 15.9882 78.1751 17.3919H80.1751C80.1751 16.41 80.4575 15.6835 80.9665 15.1283L79.4922 13.7768ZM79.1751 16.3919H76.5233V18.3919H79.1751V16.3919ZM77.5233 17.3919C77.5233 16.1547 77.7884 15.1167 78.2861 14.2458L76.5496 13.2535C75.8545 14.4699 75.5233 15.8601 75.5233 17.3919H77.5233ZM78.2904 14.2382C78.7966 13.3342 79.4944 12.6364 80.3985 12.1301L79.4213 10.3851C78.1954 11.0716 77.2318 12.0351 76.5453 13.261L78.2904 14.2382ZM80.3912 12.1342C81.3133 11.6279 82.3797 11.363 83.616 11.363V9.36302C82.0834 9.36302 80.679 9.69452 79.4286 10.381L80.3912 12.1342ZM83.616 11.363C84.6792 11.363 85.5805 11.5947 86.3489 12.0312L87.3369 10.2923C86.2309 9.66387 84.981 9.36302 83.616 9.36302V11.363ZM86.3489 12.0312C87.0974 12.4565 87.6874 13.0879 88.1174 13.9659L89.9135 13.0861C89.3211 11.8767 88.4627 10.932 87.3369 10.2923L86.3489 12.0312ZM88.1285 13.9879C88.5691 14.8338 88.8142 15.9122 88.8142 17.2641H90.8142C90.8142 15.6766 90.5267 14.2629 89.9024 13.0641L88.1285 13.9879ZM88.8142 17.2641V26.4016H90.8142V17.2641H88.8142ZM88.8142 26.4016C88.8142 26.6369 88.748 26.7812 88.6358 26.9014L90.0979 28.266C90.5821 27.7472 90.8142 27.1034 90.8142 26.4016H88.8142ZM88.6598 26.8766C88.5795 26.9568 88.4558 27.031 88.1848 27.031V29.031C88.8935 29.031 89.5578 28.8069 90.074 28.2908L88.6598 26.8766ZM66.8746 27.031C66.6393 27.031 66.495 26.9648 66.3748 26.8526L65.0101 28.3147C65.5289 28.799 66.1727 29.031 66.8746 29.031V27.031ZM66.4235 26.9014C66.3113 26.7812 66.2452 26.6369 66.2452 26.4016H64.2452C64.2452 27.1034 64.4772 27.7472 64.9614 28.266L66.4235 26.9014ZM66.2452 26.4016V12.1841H64.2452V26.4016H66.2452ZM66.2452 12.1841C66.2452 11.9131 66.3193 11.7894 66.3996 11.7091L64.9854 10.2949C64.4692 10.811 64.2452 11.4754 64.2452 12.1841H66.2452ZM66.3748 11.7331C66.495 11.6209 66.6393 11.5547 66.8746 11.5547V9.55472C66.1727 9.55472 65.5289 9.78674 65.0101 10.271L66.3748 11.7331ZM66.8746 11.5547C67.1456 11.5547 67.2694 11.6289 67.3496 11.7091L68.7638 10.2949C68.2477 9.77875 67.5833 9.55472 66.8746 9.55472V11.5547ZM67.3496 11.7091C67.4298 11.7894 67.504 11.9131 67.504 12.1841H69.504C69.504 11.4754 69.28 10.811 68.7638 10.2949L67.3496 11.7091ZM67.504 12.1841V26.4016H69.504V12.1841H67.504ZM67.504 26.4016C67.504 26.6369 67.4378 26.7812 67.3257 26.9014L68.7878 28.266C69.272 27.7472 69.504 27.1034 69.504 26.4016H67.504ZM67.3496 26.8766C67.2694 26.9568 67.1456 27.031 66.8746 27.031V29.031C67.5833 29.031 68.2477 28.8069 68.7638 28.2908L67.3496 26.8766ZM77.5456 27.031C77.3103 27.031 77.166 26.9648 77.0458 26.8526L75.6812 28.3147C76.2 28.799 76.8438 29.031 77.5456 29.031V27.031ZM77.0946 26.9014C76.9824 26.7812 76.9162 26.6369 76.9162 26.4016H74.9162C74.9162 27.1034 75.1482 27.7472 75.6325 28.266L77.0946 26.9014ZM76.9162 26.4016V17.2641H74.9162V26.4016H76.9162ZM76.9162 17.2641C76.9162 15.7765 76.5508 14.4737 75.6212 13.5742L74.2304 15.0114C74.6214 15.3898 74.9162 16.0679 74.9162 17.2641H76.9162ZM75.6329 13.5857C74.7583 12.711 73.6276 12.3024 72.3379 12.3024V14.3024C73.1782 14.3024 73.7728 14.554 74.2187 14.9999L75.6329 13.5857ZM72.3379 12.3024C70.9707 12.3024 69.7867 12.7881 68.8633 13.7659L70.3173 15.1392C70.8422 14.5834 71.49 14.3024 72.3379 14.3024V12.3024ZM68.8633 13.7659C67.9404 14.743 67.504 15.9799 67.504 17.3919H69.504C69.504 16.4183 69.7917 15.6956 70.3173 15.1392L68.8633 13.7659ZM68.504 16.3919H66.4912V18.3919H68.504V16.3919ZM67.4912 17.3919C67.4912 16.1427 67.7402 15.0947 68.2052 14.2184L66.4385 13.2809C65.796 14.4919 65.4912 15.8721 65.4912 17.3919H67.4912ZM68.2091 14.211C68.6827 13.3002 69.3258 12.6087 70.1422 12.1118L69.1023 10.4034C67.9591 11.0993 67.0686 12.0692 66.4347 13.2883L68.2091 14.211ZM70.1422 12.1118C70.9505 11.6198 71.8855 11.363 72.9769 11.363V9.36302C71.5549 9.36302 70.2535 9.70265 69.1023 10.4034L70.1422 12.1118ZM72.9769 11.363C74.0401 11.363 74.9414 11.5947 75.7098 12.0312L76.6978 10.2923C75.5918 9.66387 74.3419 9.36302 72.9769 9.36302V11.363ZM75.7098 12.0312C76.4583 12.4565 77.0483 13.0879 77.4783 13.9659L79.2744 13.0861C78.682 11.8767 77.8236 10.932 76.6978 10.2923L75.7098 12.0312ZM77.4894 13.9879C77.93 14.8338 78.1751 15.9122 78.1751 17.2641H80.1751C80.1751 15.6766 79.8876 14.2629 79.2632 13.0641L77.4894 13.9879ZM78.1751 17.2641V26.4016H80.1751V17.2641H78.1751ZM78.1751 26.4016C78.1751 26.6369 78.1089 26.7812 77.9967 26.9014L79.4588 28.266C79.943 27.7472 80.1751 27.1034 80.1751 26.4016H78.1751ZM78.0207 26.8766C77.9404 26.9568 77.8167 27.031 77.5456 27.031V29.031C78.2544 29.031 78.9187 28.8069 79.4349 28.2908L78.0207 26.8766ZM98.7113 27.0086L98.221 27.8802L98.2291 27.8847L98.2372 27.8891L98.7113 27.0086ZM95.4844 23.8776L94.6162 24.3737L94.6208 24.3819L94.6257 24.39L95.4844 23.8776ZM95.4205 14.6762L94.5463 14.1905L94.5437 14.1953L95.4205 14.6762ZM98.4876 11.5451L98.9853 12.4126L98.9959 12.4064L98.4876 11.5451ZM107.242 11.5132L106.712 12.3613L106.723 12.368L107.242 11.5132ZM109.957 14.5484L109.054 14.9777L109.059 14.9867L109.063 14.9956L109.957 14.5484ZM110.501 20.0117L111.179 20.7465L111.194 20.7329L111.208 20.7188L110.501 20.0117ZM96.5707 20.3951H95.5707V21.3951H96.5707V20.3951ZM96.5707 17.8392V16.8392H95.5707V17.8392H96.5707ZM109.35 17.8392L109.914 18.665L112.588 16.8392H109.35V17.8392ZM108.04 18.7337L107.041 18.7537L107.078 20.6022L108.604 19.5595L108.04 18.7337ZM107.401 15.8902L106.498 16.3193L106.503 16.3282L107.401 15.8902ZM99.8295 13.9413L99.3089 13.0875L99.2995 13.0933L99.8295 13.9413ZM97.8806 16.1458L98.7792 16.5847L98.7831 16.5766L97.8806 16.1458ZM98.0084 22.4079L97.1439 22.9105L98.0084 22.4079ZM100.213 24.5805L100.707 23.711L100.213 24.5805ZM105.453 25.0277L105.778 25.9734L105.786 25.9706L105.794 25.9675L105.453 25.0277ZM107.146 24.1651L106.554 23.3587L106.546 23.3651L107.146 24.1651ZM108.168 23.8137V24.8137H108.196L108.224 24.8121L108.168 23.8137ZM109.159 24.1332L109.82 23.3833L109.813 23.3765L109.805 23.3698L109.159 24.1332ZM109.734 25.1875L110.732 25.132L109.734 25.1875ZM109.223 26.1779L108.615 25.3836L108.608 25.3891L108.601 25.3948L109.223 26.1779ZM106.507 27.5837L106.191 26.635L106.185 26.6369L106.507 27.5837ZM103.44 27.1268C101.817 27.1268 100.407 26.7858 99.1854 26.1281L98.2372 27.8891C99.7847 28.7223 101.527 29.1268 103.44 29.1268V27.1268ZM99.2015 26.137C97.9877 25.4542 97.0402 24.5332 96.3431 23.3651L94.6257 24.39C95.5048 25.863 96.7085 27.0294 98.221 27.8802L99.2015 26.137ZM96.3527 23.3814C95.6819 22.2077 95.3342 20.8488 95.3342 19.2769H93.3342C93.3342 21.1555 93.7533 22.8637 94.6162 24.3737L96.3527 23.3814ZM95.3342 19.2769C95.3342 17.6714 95.666 16.3082 96.2973 15.157L94.5437 14.1953C93.7266 15.6853 93.3342 17.3893 93.3342 19.2769H95.3342ZM96.2947 15.1618C96.954 13.9749 97.848 13.0651 98.9853 12.4125L97.99 10.6778C96.5287 11.5162 95.3779 12.6937 94.5463 14.1905L96.2947 15.1618ZM98.9959 12.4064C100.124 11.7406 101.436 11.395 102.961 11.395V9.39497C101.12 9.39497 99.4499 9.81612 97.9794 10.6839L98.9959 12.4064ZM102.961 11.395C104.469 11.395 105.705 11.7318 106.712 12.3612L107.772 10.6652C106.393 9.8036 104.775 9.39497 102.961 9.39497V11.395ZM106.723 12.368C107.743 12.9876 108.518 13.8489 109.054 14.9777L110.861 14.119C110.162 12.6493 109.126 11.4871 107.761 10.6584L106.723 12.368ZM109.063 14.9956C109.621 16.1121 109.916 17.4345 109.916 18.9893H111.916C111.916 17.1789 111.572 15.5406 110.852 14.1012L109.063 14.9956ZM109.916 18.9893C109.916 19.1387 109.876 19.2221 109.793 19.3046L111.208 20.7188C111.679 20.2475 111.916 19.6493 111.916 18.9893H109.916ZM109.822 19.2769C109.755 19.3395 109.656 19.3951 109.446 19.3951V21.3951C110.088 21.3951 110.693 21.1951 111.179 20.7465L109.822 19.2769ZM109.446 19.3951H96.5707V21.3951H109.446V19.3951ZM97.5707 20.3951V17.8392H95.5707V20.3951H97.5707ZM96.5707 18.8392H109.35V16.8392H96.5707V18.8392ZM108.786 17.0134L107.477 17.9079L108.604 19.5595L109.914 18.665L108.786 17.0134ZM109.04 18.7137C109.017 17.5259 108.778 16.4318 108.3 15.4523L106.503 16.3282C106.835 17.01 107.022 17.8117 107.041 18.7537L109.04 18.7137ZM108.305 15.4612C107.826 14.4537 107.133 13.638 106.225 13.0417L105.127 14.7131C105.711 15.0966 106.167 15.6228 106.498 16.3193L108.305 15.4612ZM106.225 13.0417C105.287 12.4254 104.182 12.1426 102.961 12.1426V14.1426C103.869 14.1426 104.574 14.3497 105.127 14.7131L106.225 13.0417ZM102.961 12.1426C101.597 12.1426 100.366 12.4429 99.3089 13.0875L100.35 14.7951C101.039 14.3748 101.895 14.1426 102.961 14.1426V12.1426ZM99.2995 13.0933C98.2806 13.7302 97.5045 14.6123 96.9781 15.7151L98.7831 16.5766C99.1513 15.805 99.6745 15.2175 100.36 14.7893L99.2995 13.0933ZM96.982 15.707C96.4587 16.7786 96.2097 17.976 96.2097 19.2769H98.2097C98.2097 18.2347 98.4079 17.3448 98.7792 16.5847L96.982 15.707ZM96.2097 19.2769C96.2097 20.6057 96.5135 21.8262 97.1439 22.9105L98.8729 21.9053C98.4383 21.1578 98.2097 20.2909 98.2097 19.2769H96.2097ZM97.1439 22.9105C97.7669 23.9821 98.6308 24.8317 99.7189 25.4499L100.707 23.711C99.9207 23.2643 99.3149 22.6655 98.8729 21.9053L97.1439 22.9105ZM99.7189 25.4499C100.825 26.0783 102.075 26.3792 103.44 26.3792V24.3792C102.377 24.3792 101.475 24.1475 100.707 23.711L99.7189 25.4499ZM103.44 26.3792C104.22 26.3792 105.001 26.2404 105.778 25.9734L105.128 24.0821C104.541 24.2837 103.98 24.3792 103.44 24.3792V26.3792ZM105.794 25.9675C106.555 25.6908 107.217 25.3622 107.746 24.9651L106.546 23.3651C106.223 23.6071 105.756 23.8535 105.111 24.0879L105.794 25.9675ZM107.737 24.9715C107.902 24.8505 108.039 24.8137 108.168 24.8137V22.8137C107.573 22.8137 107.029 23.0111 106.555 23.3587L107.737 24.9715ZM108.224 24.8121C108.368 24.8041 108.443 24.8377 108.513 24.8965L109.805 23.3698C109.32 22.96 108.735 22.7806 108.113 22.8152L108.224 24.8121ZM108.497 24.883C108.713 25.0736 108.732 25.1916 108.735 25.243L110.732 25.132C110.692 24.4166 110.328 23.8317 109.82 23.3833L108.497 24.883ZM108.735 25.243C108.736 25.25 108.736 25.2545 108.735 25.257C108.735 25.2594 108.735 25.2605 108.735 25.2605C108.735 25.2605 108.735 25.2604 108.735 25.2605C108.735 25.2605 108.735 25.2617 108.733 25.264C108.73 25.2714 108.705 25.3149 108.615 25.3836L109.83 26.9723C110.399 26.5375 110.776 25.9111 110.732 25.132L108.735 25.243ZM108.601 25.3948C107.987 25.8823 107.192 26.3014 106.191 26.635L106.823 28.5324C107.995 28.1418 109.01 27.6237 109.844 26.961L108.601 25.3948ZM106.185 26.6369C105.209 26.9689 104.295 27.1268 103.44 27.1268V29.1268C104.544 29.1268 105.675 28.9227 106.829 28.5305L106.185 26.6369ZM118.555 27.2003L118.01 28.0387L118.017 28.0436L118.025 28.0483L118.555 27.2003ZM116.542 24.9638L115.656 25.4271L116.542 24.9638ZM118.555 5.41088L119.262 4.70378V4.70378L118.555 5.41088ZM119.705 23.9415L120.48 23.3098L119.705 23.9415ZM123.475 25.2514L122.716 25.9022L122.729 25.9173L122.742 25.9318L123.475 25.2514ZM123.347 27.5517L122.711 26.7798L122.7 26.7893L122.689 26.7992L123.347 27.5517ZM113.251 13.526L112.573 14.2608V14.2608L113.251 13.526ZM113.251 11.5451L112.573 10.8103V10.8103L113.251 11.5451ZM122.804 11.5451L123.482 10.8103V10.8103L122.804 11.5451ZM122.804 13.526L123.482 14.2608V14.2608L122.804 13.526ZM121.43 26.999C120.541 26.999 119.768 26.7794 119.085 26.3523L118.025 28.0483C119.045 28.6862 120.19 28.999 121.43 28.999V26.999ZM119.1 26.3618C118.398 25.9056 117.842 25.2919 117.428 24.5006L115.656 25.4271C116.222 26.5101 117.008 27.3874 118.01 28.0387L119.1 26.3618ZM117.428 24.5006C117.021 23.7213 116.807 22.8287 116.807 21.8009H114.807C114.807 23.116 115.083 24.332 115.656 25.4271L117.428 24.5006ZM116.807 21.8009V6.56106H114.807V21.8009H116.807ZM116.807 6.56106C116.807 6.32539 116.873 6.20698 116.962 6.11799L115.547 4.70378C115.04 5.21117 114.807 5.85955 114.807 6.56106H116.807ZM116.962 6.11799C117.051 6.029 117.169 5.96359 117.405 5.96359V3.96359C116.703 3.96359 116.055 4.19638 115.547 4.70378L116.962 6.11799ZM117.405 5.96359C117.64 5.96359 117.759 6.029 117.848 6.11799L119.262 4.70378C118.754 4.19638 118.106 3.96359 117.405 3.96359V5.96359ZM117.848 6.11799C117.937 6.20698 118.002 6.32539 118.002 6.56106H120.002C120.002 5.85955 119.769 5.21117 119.262 4.70378L117.848 6.11799ZM118.002 6.56106V21.8009H120.002V6.56106H118.002ZM118.002 21.8009C118.002 22.847 118.295 23.7936 118.93 24.5731L120.48 23.3098C120.178 22.9392 120.002 22.4587 120.002 21.8009H118.002ZM118.93 24.5731C119.569 25.3578 120.419 25.8041 121.43 25.8041V23.8041C121.078 23.8041 120.778 23.6753 120.48 23.3098L118.93 24.5731ZM121.43 25.8041H122.516V23.8041H121.43V25.8041ZM122.516 25.8041C122.6 25.8041 122.645 25.8194 122.716 25.9022L124.234 24.6006C123.794 24.087 123.2 23.8041 122.516 23.8041V25.8041ZM122.742 25.9318C122.821 26.0171 122.89 26.1444 122.89 26.4016H124.89C124.89 25.7216 124.682 25.0821 124.208 24.5709L122.742 25.9318ZM122.89 26.4016C122.89 26.571 122.843 26.6713 122.711 26.7798L123.983 28.3237C124.575 27.8357 124.89 27.1693 124.89 26.4016H122.89ZM122.689 26.7992C122.569 26.9043 122.373 26.999 122.005 26.999V28.999C122.745 28.999 123.444 28.7956 124.006 28.3043L122.689 26.7992ZM122.005 26.999H121.43V28.999H122.005V26.999ZM114.337 12.9094C114.092 12.9094 113.988 12.8452 113.929 12.7912L112.573 14.2608C113.068 14.718 113.689 14.9094 114.337 14.9094V12.9094ZM113.929 12.7912C113.862 12.7286 113.836 12.6773 113.836 12.5675H111.836C111.836 13.2245 112.087 13.8122 112.573 14.2608L113.929 12.7912ZM113.836 12.5675C113.836 12.3804 113.885 12.3206 113.929 12.2799L112.573 10.8103C112.063 11.2809 111.836 11.9026 111.836 12.5675H113.836ZM113.929 12.2799C113.988 12.2259 114.092 12.1618 114.337 12.1618V10.1618C113.689 10.1618 113.068 10.3532 112.573 10.8103L113.929 12.2799ZM114.337 12.1618H121.718V10.1618H114.337V12.1618ZM121.718 12.1618C121.964 12.1618 122.067 12.2259 122.126 12.2799L123.482 10.8103C122.987 10.3532 122.367 10.1618 121.718 10.1618V12.1618ZM122.126 12.2799C122.17 12.3206 122.219 12.3804 122.219 12.5675H124.219C124.219 11.9026 123.992 11.2809 123.482 10.8103L122.126 12.2799ZM122.219 12.5675C122.219 12.6773 122.194 12.7286 122.126 12.7912L123.482 14.2608C123.968 13.8122 124.219 13.2245 124.219 12.5675H122.219ZM122.126 12.7912C122.067 12.8452 121.964 12.9094 121.718 12.9094V14.9094C122.367 14.9094 122.987 14.718 123.482 14.2608L122.126 12.7912ZM121.718 12.9094H114.337V14.9094H121.718V12.9094ZM128.662 27.5517L127.931 28.2341L127.955 28.2593L127.98 28.2828L128.662 27.5517ZM128.662 10.9701L127.98 10.239L127.968 10.2508L127.955 10.2629L128.662 10.9701ZM131.027 27.5517L131.734 28.2588L131.746 28.2467L131.758 28.2341L131.027 27.5517ZM128.343 7.07225L127.618 7.761L127.636 7.77958L127.654 7.79725L128.343 7.07225ZM128.343 4.10096L127.636 3.39386V3.39386L128.343 4.10096ZM131.314 4.10096L130.589 4.78971L130.607 4.8083L130.626 4.82596L131.314 4.10096ZM131.314 7.07225L132.021 7.77935L131.314 7.07225ZM129.845 26.999C129.609 26.999 129.465 26.9328 129.345 26.8207L127.98 28.2828C128.499 28.767 129.143 28.999 129.845 28.999V26.999ZM129.394 26.8694C129.281 26.7492 129.215 26.6049 129.215 26.3696H127.215C127.215 27.0715 127.447 27.7152 127.931 28.2341L129.394 26.8694ZM129.215 26.3696V12.1522H127.215V26.3696H129.215ZM129.215 12.1522C129.215 11.8811 129.289 11.7574 129.37 11.6772L127.955 10.2629C127.439 10.7791 127.215 11.4434 127.215 12.1522H129.215ZM129.345 11.7011C129.465 11.5889 129.609 11.5228 129.845 11.5228V9.52277C129.143 9.52277 128.499 9.75479 127.98 10.239L129.345 11.7011ZM129.845 11.5228C130.116 11.5228 130.239 11.5969 130.32 11.6772L131.734 10.2629C131.218 9.7468 130.553 9.52277 129.845 9.52277V11.5228ZM130.32 11.6772C130.4 11.7574 130.474 11.8811 130.474 12.1522H132.474C132.474 11.4434 132.25 10.7791 131.734 10.2629L130.32 11.6772ZM130.474 12.1522V26.3696H132.474V12.1522H130.474ZM130.474 26.3696C130.474 26.6049 130.408 26.7492 130.296 26.8694L131.758 28.2341C132.242 27.7152 132.474 27.0715 132.474 26.3696H130.474ZM130.32 26.8446C130.239 26.9249 130.116 26.999 129.845 26.999V28.999C130.553 28.999 131.218 28.775 131.734 28.2588L130.32 26.8446ZM129.845 6.67928C129.532 6.67928 129.276 6.57964 129.032 6.34725L127.654 7.79725C128.262 8.37423 129.007 8.67928 129.845 8.67928V6.67928ZM129.068 6.3835C128.836 6.13887 128.736 5.88325 128.736 5.57063H126.736C126.736 6.40818 127.041 7.15364 127.618 7.761L129.068 6.3835ZM128.736 5.57063C128.736 5.25932 128.834 5.02421 129.05 4.80807L127.636 3.39386C127.043 3.9871 126.736 4.73177 126.736 5.57063H128.736ZM129.05 4.80807C129.298 4.55968 129.548 4.46198 129.845 4.46198V2.46198C128.991 2.46198 128.239 2.79026 127.636 3.39386L129.05 4.80807ZM129.845 4.46198C130.139 4.46198 130.369 4.55758 130.589 4.78971L132.039 3.41221C131.45 2.79237 130.7 2.46198 129.845 2.46198V4.46198ZM130.626 4.82596C130.858 5.04649 130.953 5.27631 130.953 5.57063H132.953C132.953 4.71478 132.623 3.96482 132.003 3.37596L130.626 4.82596ZM130.953 5.57063C130.953 5.86678 130.856 6.11675 130.607 6.36514L132.021 7.77935C132.625 7.17576 132.953 6.42466 132.953 5.57063H130.953ZM130.607 6.36514C130.391 6.58127 130.156 6.67928 129.845 6.67928V8.67928C130.683 8.67928 131.428 8.3726 132.021 7.77935L130.607 6.36514ZM140.891 26.9766L140.379 27.8354L140.387 27.8402L140.395 27.8449L140.891 26.9766ZM137.76 23.8137L136.886 24.2993L136.891 24.3076L136.895 24.3158L137.76 23.8137ZM137.76 14.6762L136.886 14.1905L137.76 14.6762ZM140.827 11.5451L141.325 12.4126L141.336 12.4064L140.827 11.5451ZM148.751 11.1298L148.326 12.035L148.334 12.0386L148.341 12.0421L148.751 11.1298ZM151.562 13.2704L150.807 13.9253L150.81 13.9289L151.562 13.2704ZM151.882 14.3247L150.908 14.0957L151.882 14.3247ZM151.179 15.2832L151.76 16.097L151.764 16.0939L151.179 15.2832ZM150.189 15.5069L149.96 16.4803L149.987 16.4867L150.015 16.4916L150.189 15.5069ZM149.198 14.9318L148.47 15.6176L148.481 15.6284L148.491 15.6389L149.198 14.9318ZM142.425 14.0372L142.933 14.8986L142.941 14.8938L142.949 14.8888L142.425 14.0372ZM140.476 16.1139L141.362 16.5779L140.476 16.1139ZM140.476 22.344L139.59 22.808L139.594 22.8162L139.599 22.8243L140.476 22.344ZM142.489 24.4846L141.959 25.3326L141.966 25.3374L141.974 25.3421L142.489 24.4846ZM147.409 24.9958L147.703 25.9516L147.714 25.9482L147.725 25.9445L147.409 24.9958ZM148.974 24.1332L148.344 23.357L148.341 23.3592L148.974 24.1332ZM150.029 23.6859L150.088 24.6841L150.117 24.6824L150.146 24.679L150.029 23.6859ZM150.987 23.9734L150.341 24.7369L150.352 24.7453L150.987 23.9734ZM151.594 24.9958L150.6 25.1062L150.601 25.1126L151.594 24.9958ZM151.211 25.9862L151.892 26.7183L151.905 26.706L151.918 26.6933L151.211 25.9862ZM145.46 27.1268C143.912 27.1268 142.563 26.7802 141.387 26.1084L140.395 27.8449C141.903 28.7067 143.6 29.1268 145.46 29.1268V27.1268ZM141.404 26.1179C140.228 25.4162 139.306 24.4842 138.625 23.3115L136.895 24.3158C137.748 25.7843 138.914 26.9609 140.379 27.8354L141.404 26.1179ZM138.634 23.328C137.979 22.1487 137.642 20.8063 137.642 19.2769H135.642C135.642 21.1127 136.05 22.7949 136.886 24.2993L138.634 23.328ZM137.642 19.2769C137.642 17.7001 137.981 16.3375 138.634 15.1618L136.886 14.1905C136.048 15.6986 135.642 17.4031 135.642 19.2769H137.642ZM138.634 15.1618C139.294 13.9749 140.188 13.0651 141.325 12.4125L140.33 10.6778C138.869 11.5162 137.718 12.6937 136.886 14.1905L138.634 15.1618ZM141.336 12.4064C142.464 11.7406 143.775 11.395 145.3 11.395V9.39497C143.46 9.39497 141.79 9.81612 140.319 10.6839L141.336 12.4064ZM145.3 11.395C146.424 11.395 147.427 11.613 148.326 12.035L149.176 10.2246C147.988 9.66682 146.69 9.39497 145.3 9.39497V11.395ZM148.341 12.0421C149.238 12.4449 150.061 13.0647 150.807 13.9253L152.318 12.6155C151.403 11.5591 150.351 10.7519 149.16 10.2175L148.341 12.0421ZM150.81 13.9289C150.887 14.0167 150.905 14.0677 150.909 14.0796C150.911 14.0854 150.91 14.0865 150.91 14.085C150.91 14.0835 150.911 14.0864 150.908 14.0957L152.855 14.5538C153.031 13.8077 152.774 13.136 152.315 12.6119L150.81 13.9289ZM150.908 14.0957C150.892 14.1655 150.836 14.2972 150.593 14.4725L151.764 16.0939C152.288 15.7154 152.701 15.2081 152.855 14.5538L150.908 14.0957ZM150.598 14.4695C150.519 14.5258 150.461 14.5395 150.362 14.5221L150.015 16.4916C150.64 16.602 151.243 16.4666 151.76 16.0969L150.598 14.4695ZM150.418 14.5334C150.26 14.4963 150.09 14.4094 149.905 14.2247L148.491 15.6389C148.903 16.0505 149.393 16.347 149.96 16.4803L150.418 14.5334ZM149.926 14.246C148.689 12.933 147.124 12.2704 145.3 12.2704V14.2704C146.586 14.2704 147.62 14.7154 148.47 15.6176L149.926 14.246ZM145.3 12.2704C144.051 12.2704 142.907 12.5666 141.901 13.1855L142.949 14.8888C143.605 14.4854 144.377 14.2704 145.3 14.2704V12.2704ZM141.917 13.1758C140.918 13.7649 140.141 14.5984 139.59 15.6499L141.362 16.5779C141.748 15.8402 142.27 15.2892 142.933 14.8986L141.917 13.1758ZM139.59 15.6499C139.033 16.7138 138.773 17.9336 138.773 19.2769H140.773C140.773 18.192 140.982 17.3031 141.362 16.5779L139.59 15.6499ZM138.773 19.2769C138.773 20.566 139.037 21.7515 139.59 22.808L141.362 21.88C140.978 21.1474 140.773 20.2881 140.773 19.2769H138.773ZM139.599 22.8243C140.17 23.8668 140.959 24.7079 141.959 25.3326L143.019 23.6366C142.314 23.1964 141.762 22.6104 141.353 21.8637L139.599 22.8243ZM141.974 25.3421C143.002 25.9587 144.175 26.2514 145.46 26.2514V24.2514C144.487 24.2514 143.68 24.0329 143.003 23.6271L141.974 25.3421ZM145.46 26.2514C146.278 26.2514 147.031 26.1583 147.703 25.9516L147.115 24.04C146.679 24.1741 146.133 24.2514 145.46 24.2514V26.2514ZM147.725 25.9445C148.416 25.7144 149.045 25.3676 149.608 24.9071L148.341 23.3592C147.967 23.6655 147.553 23.8938 147.093 24.0471L147.725 25.9445ZM149.605 24.9093C149.818 24.7361 149.976 24.6907 150.088 24.6841L149.97 22.6876C149.358 22.7236 148.812 22.9764 148.344 23.357L149.605 24.9093ZM150.146 24.679C150.234 24.6686 150.277 24.6825 150.341 24.7368L151.633 23.21C151.144 22.7958 150.548 22.6179 149.912 22.6927L150.146 24.679ZM150.352 24.7453C150.559 24.916 150.593 25.0353 150.6 25.1062L152.588 24.8854C152.511 24.1895 152.14 23.6272 151.623 23.2015L150.352 24.7453ZM150.601 25.1126C150.604 25.1369 150.601 25.1455 150.598 25.154C150.593 25.1669 150.573 25.2099 150.504 25.2791L151.918 26.6933C152.394 26.2169 152.672 25.5949 152.587 24.879L150.601 25.1126ZM150.53 25.2542C149.2 26.4915 147.535 27.1268 145.46 27.1268V29.1268C147.986 29.1268 150.155 28.3351 151.892 26.7183L150.53 25.2542ZM159.824 26.9766L159.286 27.8198L159.297 27.8263L159.824 26.9766ZM156.885 23.8137L155.999 24.2777L156.003 24.2861L156.008 24.2945L156.885 23.8137ZM156.981 14.7401L156.118 14.2336L156.112 14.2439L156.981 14.7401ZM160.144 11.5771L160.646 12.4419L160.65 12.4394L160.144 11.5771ZM169.121 11.5771L168.609 12.4359L168.619 12.4419L169.121 11.5771ZM172.252 14.7401L171.384 15.2362L171.39 15.2465L172.252 14.7401ZM173.434 19.2769V20.2769H174.434V19.2769H173.434ZM172.188 19.2769V18.2769H171.188V19.2769H172.188ZM171.102 23.8137L170.222 23.3387L170.219 23.3438L171.102 23.8137ZM168.195 26.9766L168.722 27.8264L168.733 27.8197L168.195 26.9766ZM167.556 24.4846L168.07 25.3421L168.078 25.3374L168.086 25.3326L167.556 24.4846ZM169.569 22.344L170.446 22.8243L170.45 22.8157L169.569 22.344ZM169.569 16.2097L168.687 16.6814L168.691 16.6901L169.569 16.2097ZM167.556 14.0691L167.026 14.9171L167.033 14.922L167.041 14.9266L167.556 14.0691ZM161.741 14.0691L162.255 14.9267L162.262 14.9229L161.741 14.0691ZM159.696 16.2097L158.823 15.7224L158.819 15.7294L159.696 16.2097ZM159.696 22.344L158.814 22.8157L158.821 22.828L158.828 22.8401L159.696 22.344ZM161.741 24.4846L161.211 25.3326L161.223 25.3403L161.236 25.3476L161.741 24.4846ZM170.623 27.5837L169.892 28.266L169.915 28.2912L169.941 28.3147L170.623 27.5837ZM170.176 21.5133L169.191 21.3369L169.176 21.4244V21.5133H170.176ZM170.783 18.1267L171.181 17.2093L170.021 16.7065L169.798 17.9503L170.783 18.1267ZM173.434 19.2769H174.434V18.6206L173.832 18.3594L173.434 19.2769ZM172.955 27.5837L173.662 28.2908L172.955 27.5837ZM164.009 27.1268C162.627 27.1268 161.417 26.7886 160.351 26.127L159.297 27.8263C160.701 28.6982 162.282 29.1268 164.009 29.1268V27.1268ZM160.362 26.1336C159.272 25.4384 158.407 24.5104 157.761 23.3328L156.008 24.2945C156.81 25.7581 157.905 26.9387 159.286 27.8197L160.362 26.1336ZM157.771 23.3497C157.151 22.1663 156.83 20.8161 156.83 19.2769H154.83C154.83 21.103 155.213 22.7773 155.999 24.2777L157.771 23.3497ZM156.83 19.2769C156.83 17.7523 157.176 16.4138 157.849 15.2362L156.112 14.2439C155.252 15.7501 154.83 17.4361 154.83 19.2769H156.83ZM157.843 15.2465C158.545 14.0501 159.477 13.1205 160.646 12.4419L159.641 10.7123C158.169 11.5673 156.992 12.7463 156.118 14.2337L157.843 15.2465ZM160.65 12.4394C161.828 11.7476 163.153 11.395 164.648 11.395V9.39497C162.821 9.39497 161.143 9.83044 159.637 10.7148L160.65 12.4394ZM164.648 11.395C166.144 11.395 167.456 11.7476 168.609 12.4358L169.634 10.7184C168.146 9.83043 166.475 9.39497 164.648 9.39497V11.395ZM168.619 12.4419C169.785 13.1191 170.704 14.0454 171.384 15.2362L173.121 14.2439C172.267 12.751 171.098 11.5687 169.623 10.7123L168.619 12.4419ZM171.39 15.2465C172.081 16.4224 172.434 17.7573 172.434 19.2769H174.434C174.434 17.4311 174 15.7415 173.115 14.2337L171.39 15.2465ZM173.434 18.2769H172.188V20.2769H173.434V18.2769ZM171.188 19.2769C171.188 20.8112 170.86 22.1575 170.222 23.3387L171.982 24.2886C172.793 22.7861 173.188 21.1078 173.188 19.2769H171.188ZM170.219 23.3438C169.596 24.5157 168.744 25.4401 167.657 26.1336L168.733 27.8197C170.116 26.937 171.203 25.7528 171.985 24.2835L170.219 23.3438ZM167.667 26.127C166.601 26.7886 165.391 27.1268 164.009 27.1268V29.1268C165.737 29.1268 167.317 28.6982 168.722 27.8263L167.667 26.127ZM164.648 26.2514C165.898 26.2514 167.049 25.9551 168.07 25.3421L167.041 23.6271C166.359 24.0365 165.571 24.2514 164.648 24.2514V26.2514ZM168.086 25.3326C169.085 24.7079 169.875 23.8668 170.446 22.8243L168.691 21.8637C168.283 22.6104 167.73 23.1964 167.026 23.6366L168.086 25.3326ZM170.45 22.8157C171.024 21.7423 171.303 20.5557 171.303 19.2769H169.303C169.303 20.2558 169.092 21.1139 168.687 21.8723L170.45 22.8157ZM171.303 19.2769C171.303 17.9806 171.026 16.7892 170.446 15.7294L168.691 16.6901C169.091 17.4194 169.303 18.2728 169.303 19.2769H171.303ZM170.45 15.7381C169.879 14.6703 169.084 13.8202 168.07 13.2116L167.041 14.9266C167.731 15.3405 168.278 15.9174 168.687 16.6814L170.45 15.7381ZM168.086 13.2211C167.062 12.5813 165.906 12.2704 164.648 12.2704V14.2704C165.563 14.2704 166.346 14.492 167.026 14.9171L168.086 13.2211ZM164.648 12.2704C163.408 12.2704 162.257 12.5832 161.22 13.2153L162.262 14.9229C162.971 14.4901 163.759 14.2704 164.648 14.2704V12.2704ZM161.226 13.2116C160.216 13.8178 159.414 14.6627 158.823 15.7224L160.569 16.6971C161 15.925 161.562 15.3428 162.255 14.9266L161.226 13.2116ZM158.819 15.7294C158.239 16.7892 157.961 17.9806 157.961 19.2769H159.961C159.961 18.2728 160.174 17.4194 160.573 16.6901L158.819 15.7294ZM157.961 19.2769C157.961 20.5557 158.24 21.7423 158.814 22.8157L160.578 21.8723C160.172 21.1139 159.961 20.2558 159.961 19.2769H157.961ZM158.828 22.8401C159.419 23.8743 160.215 24.7103 161.211 25.3326L162.271 23.6366C161.563 23.194 160.996 22.6028 160.564 21.8479L158.828 22.8401ZM161.236 25.3476C162.27 25.9533 163.416 26.2514 164.648 26.2514V24.2514C163.751 24.2514 162.958 24.0383 162.246 23.6216L161.236 25.3476ZM171.805 27.031C171.57 27.031 171.425 26.9648 171.305 26.8526L169.941 28.3147C170.459 28.799 171.103 29.031 171.805 29.031V27.031ZM171.354 26.9014C171.242 26.7812 171.176 26.6369 171.176 26.4016H169.176C169.176 27.1034 169.408 27.7472 169.892 28.266L171.354 26.9014ZM171.176 26.4016V21.5133H169.176V26.4016H171.176ZM171.16 21.6898L171.767 18.3031L169.798 17.9503L169.191 21.3369L171.16 21.6898ZM170.385 19.0441L173.036 20.1943L173.832 18.3594L171.181 17.2093L170.385 19.0441ZM172.434 19.2769V26.4016H174.434V19.2769H172.434ZM172.434 26.4016C172.434 26.6159 172.372 26.7522 172.248 26.8766L173.662 28.2908C174.177 27.7761 174.434 27.1244 174.434 26.4016H172.434ZM172.248 26.8766C172.159 26.9656 172.041 27.031 171.805 27.031V29.031C172.507 29.031 173.155 28.7982 173.662 28.2908L172.248 26.8766Z" fill="#E11A7D"/>
</svg>
