<svg width="121" height="104" viewBox="0 0 121 104" fill="none" xmlns="http://www.w3.org/2000/svg">
<g filter="url(#filter0_d_170_542)">
<path d="M60.5 19.1279C30.0815 -10.6001 -19.8596 39.1968 53.7287 82.0506C57.9184 84.4905 63.0817 84.4905 67.2714 82.0506C140.86 39.1968 90.9186 -10.6001 60.5 19.1279Z" fill="url(#paint0_linear_170_542)"/>
</g>
<path d="M97.8676 30.3153C97.3696 28.3661 96.5316 26.4985 95.377 24.7647C94.828 23.9405 95.0514 22.8275 95.8756 22.2787C96.6994 21.73 97.8129 21.9533 98.3614 22.7773C99.7404 24.8486 100.743 27.086 101.341 29.4276C101.586 30.387 101.008 31.3634 100.048 31.6086C99.0828 31.855 98.1113 31.2685 97.8676 30.3153Z" fill="#FDB0BF"/>
<path d="M91.3689 20.5548C90.6213 20.0126 89.8303 19.5443 89.0178 19.163C88.1216 18.7422 87.736 17.6746 88.1566 16.7784C88.5772 15.8819 89.6444 15.4965 90.5414 15.9171C91.5576 16.3942 92.5443 16.9779 93.4741 17.6522C94.2757 18.2334 94.4542 19.3545 93.873 20.156C93.2935 20.9549 92.1728 21.1376 91.3689 20.5548Z" fill="#FDB0BF"/>
<path d="M36.3951 49.7305C38.6577 49.7305 40.4919 48.2564 40.4919 46.4381C40.4919 44.6198 38.6577 43.1458 36.3951 43.1458C34.1325 43.1458 32.2983 44.6198 32.2983 46.4381C32.2983 48.2564 34.1325 49.7305 36.3951 49.7305Z" fill="#FB99AC"/>
<path d="M84.6056 49.7305C86.8682 49.7305 88.7024 48.2564 88.7024 46.4381C88.7024 44.6198 86.8682 43.1458 84.6056 43.1458C82.343 43.1458 80.5088 44.6198 80.5088 46.4381C80.5088 48.2564 82.343 49.7305 84.6056 49.7305Z" fill="#FB99AC"/>
<path d="M43.4184 46.4379C47.9049 46.4379 51.5419 42.8009 51.5419 38.3144C51.5419 33.8279 47.9049 30.1909 43.4184 30.1909C38.9319 30.1909 35.2949 33.8279 35.2949 38.3144C35.2949 42.8009 38.9319 46.4379 43.4184 46.4379Z" fill="white"/>
<path d="M77.582 46.4379C82.0685 46.4379 85.7055 42.8009 85.7055 38.3144C85.7055 33.8279 82.0685 30.1909 77.582 30.1909C73.0955 30.1909 69.4585 33.8279 69.4585 38.3144C69.4585 42.8009 73.0955 46.4379 77.582 46.4379Z" fill="white"/>
<path d="M43.4184 43.1561C46.0924 43.1561 48.2601 40.9884 48.2601 38.3144C48.2601 35.6404 46.0924 33.4727 43.4184 33.4727C40.7444 33.4727 38.5767 35.6404 38.5767 38.3144C38.5767 40.9884 40.7444 43.1561 43.4184 43.1561Z" fill="black"/>
<path d="M77.582 43.1561C80.256 43.1561 82.4237 40.9884 82.4237 38.3144C82.4237 35.6404 80.256 33.4727 77.582 33.4727C74.9079 33.4727 72.7402 35.6404 72.7402 38.3144C72.7402 40.9884 74.9079 43.1561 77.582 43.1561Z" fill="black"/>
<path d="M60.5002 46.2181C59.1755 46.2181 57.8511 45.717 56.7704 44.715C56.4073 44.3785 56.3858 43.8112 56.7225 43.4484C57.059 43.0853 57.6265 43.064 57.9891 43.4005C59.4675 44.7711 61.5325 44.7711 63.0109 43.4005C63.3735 43.064 63.941 43.0851 64.2775 43.4484C64.6142 43.8112 64.5928 44.3785 64.2296 44.715C63.1493 45.717 61.8249 46.2181 60.5002 46.2181Z" fill="#383842"/>
<defs>
<filter id="filter0_d_170_542" x="0.5" y="0.119385" width="120" height="103.761" filterUnits="userSpaceOnUse" color-interpolation-filters="sRGB">
<feFlood flood-opacity="0" result="BackgroundImageFix"/>
<feColorMatrix in="SourceAlpha" type="matrix" values="0 0 0 0 0 0 0 0 0 0 0 0 0 0 0 0 0 0 127 0" result="hardAlpha"/>
<feOffset dy="5"/>
<feGaussianBlur stdDeviation="7.5"/>
<feComposite in2="hardAlpha" operator="out"/>
<feColorMatrix type="matrix" values="0 0 0 0 0.952941 0 0 0 0 0.219608 0 0 0 0 0.364706 0 0 0 0.5 0"/>
<feBlend mode="normal" in2="BackgroundImageFix" result="effect1_dropShadow_170_542"/>
<feBlend mode="normal" in="SourceGraphic" in2="effect1_dropShadow_170_542" result="shape"/>
</filter>
<linearGradient id="paint0_linear_170_542" x1="60.5" y1="83.8804" x2="60.5" y2="10.1195" gradientUnits="userSpaceOnUse">
<stop stop-color="#FD869C"/>
<stop offset="0.9788" stop-color="#F3385D"/>
</linearGradient>
</defs>
</svg>
