<svg width="36" height="36" viewBox="0 0 36 36" fill="none" xmlns="http://www.w3.org/2000/svg">
<g clip-path="url(#clip0_1_15254)">
<path d="M11.3961 12.1866C11.3871 11.5903 11.4087 11.2247 11.4087 11.2247C11.4087 11.2247 14.2806 9.05329 15.7066 5.38441C15.7066 5.38441 18.3582 9.41639 24.5731 11.1813C24.5731 11.1813 24.5989 11.5705 24.5915 12.2017C25.1222 11.9353 25.8055 11.8045 26.4048 12.3563C29.4277 2.61118 20.6886 0.146948 18.4309 0.00797114C16.0697 -0.137323 14.6321 1.75178 14.6321 1.75178C12.5046 0.11701 10.1486 2.07862 9.31311 5.13007C8.80169 6.99747 9.16122 10.2264 9.51718 12.4505C10.1275 11.8021 10.841 11.9163 11.3961 12.1866Z" fill="#A27C7C"/>
<path d="M26.6887 12.6791C26.0309 11.7647 25.2086 11.8922 24.5919 12.2015C24.5777 13.4404 24.4359 15.6122 23.7227 17.6062C26.8268 18.6477 27.7733 14.1875 26.6887 12.6791Z" fill="#F9D6D6"/>
<path d="M11.3968 12.1865C10.7838 11.8882 9.97742 11.7797 9.3306 12.6792C8.24652 14.1863 9.1908 18.6415 12.29 17.6085C11.563 15.5967 11.4155 13.4071 11.3968 12.1865Z" fill="#F9D6D6"/>
<path d="M24.0869 16.3902C23.9861 16.7964 23.866 17.2048 23.7227 17.6058C26.2819 18.4644 27.3745 15.5835 27.071 13.7002C26.8477 15.2383 25.8622 16.7607 24.0869 16.3902Z" fill="#EBBCBC"/>
<path d="M8.94776 13.7007C8.64481 15.5824 9.73493 18.46 12.2898 17.6082C12.1448 17.2072 12.0231 16.7988 11.9207 16.3926C10.1524 16.7546 9.17078 15.2355 8.94776 13.7007Z" fill="#EBBCBC"/>
<path d="M18.028 22.0994C16.5106 22.1046 15.3386 21.6331 14.4336 20.8843V24.0174C14.4336 25.9924 16.0346 27.5937 18.0099 27.5937C19.985 27.5937 21.5862 25.9924 21.5862 24.0174V20.8838C20.6898 21.6251 19.5296 22.0948 18.028 22.0994Z" fill="#F9D6D6"/>
<path d="M24.5738 11.1812C24.5738 11.1812 25.2939 22.0753 18.0276 22.0994C10.7612 22.1233 11.4094 11.2249 11.4094 11.2249C11.4094 11.2249 14.2812 9.05317 15.707 5.38428C15.7072 5.38428 18.3588 9.41627 24.5738 11.1812Z" fill="#FFDEDE"/>
<path d="M18.0279 20.7849C12.3678 20.8039 11.5097 14.1953 11.407 11.2729C11.3716 12.0392 11.0376 22.1228 18.0279 22.0994C24.7755 22.0772 24.6362 12.6828 24.5818 11.3416C24.4808 14.3184 23.6167 20.7665 18.0279 20.7849Z" fill="#F9D6D6"/>
<path d="M14.4336 20.8843V22.1972C15.3386 22.9465 16.51 23.4192 18.028 23.4142C19.5299 23.409 20.6898 22.9391 21.5862 22.1972V20.8838C20.6898 21.6251 19.5296 22.0948 18.028 22.0997C16.5106 22.1046 15.3386 21.6331 14.4336 20.8843Z" fill="#EBBCBC"/>
<path d="M32.924 30.518C30.9575 28.928 21.5856 24.0171 21.5856 24.0171C21.5856 25.9924 19.9843 27.5937 18.0093 27.5937C16.0339 27.5937 14.4329 25.9924 14.4329 24.0171C14.4329 24.0171 5.06105 28.928 3.09422 30.518C1.51439 31.7954 1.0417 34.5574 0.91673 35.595C0.890638 35.8106 1.05928 35.9999 1.27653 35.9999H34.742C34.9592 35.9999 35.1276 35.8106 35.1018 35.595C34.9768 34.5574 34.5038 31.7954 32.924 30.518Z" fill="#FFCEBE"/>
<path d="M1.05928 34.6855C0.98924 35.0503 0.944471 35.365 0.91673 35.5952C0.890638 35.8108 1.05928 36.0001 1.27653 36.0001H34.742C34.9592 36.0001 35.1276 35.8108 35.1018 35.5952C35.074 35.365 35.0293 35.0503 34.9589 34.6855H1.05928Z" fill="#F4AFB0"/>
</g>
<defs>
<clipPath id="clip0_1_15254">
<rect width="36" height="36" fill="white"/>
</clipPath>
</defs>
</svg>
