<svg width="42" height="42" viewBox="0 0 42 42" fill="none" xmlns="http://www.w3.org/2000/svg">
<path d="M22.0396 21.8328C22.9376 21.7116 23.5673 20.8854 23.4461 19.9875C23.3248 19.0895 22.4986 18.4601 21.6008 18.581C21.4031 18.6076 21.2009 18.6212 20.9999 18.6212C18.5574 18.6212 16.5702 16.634 16.5702 14.1915C16.5702 11.749 18.5574 9.7618 20.9999 9.7618C23.4424 9.7618 25.4296 11.749 25.4296 14.1915C25.4296 14.4334 25.4101 14.6757 25.3716 14.9118C25.2258 15.8061 25.8326 16.6493 26.7268 16.7951C27.6221 16.9408 28.4644 16.3341 28.6101 15.4398C28.6771 15.0297 28.7109 14.6097 28.7109 14.1914C28.7109 9.93956 25.2518 6.48047 21 6.48047C16.7482 6.48047 13.2891 9.93956 13.2891 14.1914C13.2891 18.4432 16.7482 21.9023 21 21.9023C21.3472 21.9023 21.6971 21.8789 22.0396 21.8328Z" fill="#E11A7D"/>
<path d="M35.9924 32.5341C34.7304 31.8721 32.9976 31.3143 30.8424 30.8764C29.954 30.6962 29.0884 31.2696 28.9079 32.1575C28.7275 33.0454 29.3011 33.9115 30.189 34.0919C33.5136 34.7674 34.8767 35.5782 35.2698 35.9714C34.9802 36.2616 34.0116 36.9902 31.1662 37.6752C28.3712 38.348 24.7609 38.7186 21 38.7186C17.2391 38.7186 13.6288 38.348 10.8339 37.6752C7.98837 36.9902 7.01991 36.2617 6.73025 35.9714C7.12343 35.5782 8.48638 34.7674 11.8111 34.0919C12.699 33.9115 13.2726 33.0454 13.0922 32.1575C12.9118 31.2696 12.0456 30.6962 11.1577 30.8764C9.00244 31.3143 7.26969 31.8721 6.00764 32.5341C4.25299 33.4545 3.36328 34.6119 3.36328 35.9741C3.36328 38.0096 5.34565 39.5852 9.25526 40.657C12.4139 41.523 16.5849 41.9998 21 41.9998C25.4151 41.9998 29.5861 41.523 32.7447 40.657C36.6544 39.5852 38.6367 38.0096 38.6367 35.9741C38.6367 34.6119 37.747 33.4545 35.9924 32.5341Z" fill="#E11A7D"/>
<path d="M19.6132 34.6735C19.9138 35.1491 20.4373 35.4375 21 35.4375C21.5627 35.4375 22.0862 35.1491 22.3868 34.6734C23.891 32.2937 25.8489 30.2062 27.7423 28.1877C31.442 24.2434 35.2676 20.1648 35.2734 14.1074C35.269 10.3102 33.7769 6.75511 31.0717 4.09697C28.383 1.45499 24.806 0 21 0C17.1963 0 13.6321 1.45687 10.9641 4.10222C8.28877 6.75478 6.81302 10.3081 6.80859 14.111C6.81442 20.1748 10.6214 24.2606 14.3031 28.2119C16.177 30.2231 18.1146 32.3027 19.6132 34.6735ZM21 3.28125C27.0542 3.28125 31.9853 8.13963 31.9922 14.1078C31.9877 18.8655 28.9113 22.1452 25.3491 25.9429C23.8747 27.5148 22.3633 29.1261 21.001 30.9248C19.6517 29.1388 18.1593 27.5372 16.7038 25.975C13.1573 22.1689 10.0945 18.8816 10.0898 14.1113C10.0968 8.03832 14.8892 3.28125 21 3.28125Z" fill="#E11A7D"/>
</svg>
