<svg width="36" height="28" viewBox="0 0 36 28" fill="none" xmlns="http://www.w3.org/2000/svg">
<g clip-path="url(#clip0_1428_4970)">
<path d="M35.2669 27.607V27.6799H35.3341C35.349 27.6799 35.3617 27.6763 35.3709 27.6707C35.3794 27.665 35.3843 27.6551 35.3843 27.6431C35.3843 27.6311 35.3794 27.6219 35.3709 27.6162C35.3617 27.6099 35.349 27.607 35.3341 27.607H35.2669ZM35.3348 27.5561C35.3695 27.5561 35.3963 27.5639 35.4154 27.5795C35.4345 27.595 35.4437 27.6162 35.4437 27.6431C35.4437 27.6657 35.4367 27.6841 35.4211 27.699C35.4062 27.7131 35.385 27.7223 35.3567 27.7259L35.4459 27.8284H35.3765L35.2938 27.7266H35.2669V27.8284H35.2089V27.5561H35.3348ZM35.3171 27.9225C35.3489 27.9225 35.3787 27.9161 35.4055 27.9041C35.4331 27.892 35.4572 27.8758 35.4777 27.8553C35.4982 27.8348 35.5145 27.8107 35.5265 27.7824C35.5378 27.7548 35.5442 27.7251 35.5442 27.6933C35.5442 27.6615 35.5378 27.6318 35.5265 27.6042C35.5145 27.5766 35.4982 27.5519 35.4777 27.5314C35.4572 27.5109 35.4331 27.4946 35.4055 27.4826C35.3787 27.4713 35.3489 27.4656 35.3171 27.4656C35.2853 27.4656 35.2549 27.4713 35.2273 27.4826C35.199 27.4946 35.1742 27.5109 35.1537 27.5314C35.1332 27.5519 35.1169 27.5766 35.1056 27.6042C35.0936 27.6318 35.0879 27.6615 35.0879 27.6933C35.0879 27.7251 35.0936 27.7548 35.1056 27.7824C35.1169 27.8107 35.1332 27.8348 35.1537 27.8553C35.1742 27.8758 35.199 27.892 35.2273 27.9041C35.2549 27.9161 35.2853 27.9225 35.3171 27.9225ZM35.3171 27.3998C35.3589 27.3998 35.397 27.4076 35.4338 27.4232C35.4699 27.438 35.501 27.4592 35.5286 27.4861C35.5555 27.5123 35.5767 27.5434 35.5923 27.5795C35.6078 27.6148 35.6156 27.653 35.6156 27.6933C35.6156 27.7336 35.6078 27.7718 35.5923 27.8072C35.5767 27.8425 35.5555 27.8737 35.5286 27.9005C35.501 27.9267 35.4699 27.9479 35.4338 27.9635C35.397 27.979 35.3589 27.9868 35.3171 27.9868C35.2747 27.9868 35.2358 27.979 35.199 27.9635C35.1622 27.9479 35.1304 27.9267 35.1035 27.9005C35.0766 27.8737 35.0554 27.8425 35.0398 27.8072C35.0243 27.7718 35.0165 27.7336 35.0165 27.6933C35.0165 27.653 35.0243 27.6148 35.0398 27.5795C35.0554 27.5434 35.0766 27.5123 35.1035 27.4861C35.1304 27.4592 35.1622 27.438 35.199 27.4232C35.2358 27.4076 35.2747 27.3998 35.3171 27.3998ZM7.75873 26.351C7.75873 25.8319 8.09896 25.4055 8.65492 25.4055C9.18613 25.4055 9.54475 25.8135 9.54475 26.351C9.54475 26.8885 9.18613 27.2966 8.65492 27.2966C8.09896 27.2966 7.75873 26.8701 7.75873 26.351ZM10.1502 26.351V24.8743H9.50797V25.2329C9.30426 24.967 8.99515 24.8001 8.575 24.8001C7.74671 24.8001 7.09738 25.4493 7.09738 26.351C7.09738 27.2534 7.74671 27.9019 8.575 27.9019C8.99515 27.9019 9.30426 27.735 9.50797 27.4691V27.8277H10.1502V26.351ZM31.854 26.351C31.854 25.8319 32.1942 25.4055 32.7502 25.4055C33.2821 25.4055 33.64 25.8135 33.64 26.351C33.64 26.8885 33.2821 27.2966 32.7502 27.2966C32.1942 27.2966 31.854 26.8701 31.854 26.351ZM34.2462 26.351V23.6883H33.6033V25.2329C33.3995 24.967 33.0904 24.8001 32.6703 24.8001C31.842 24.8001 31.1927 25.4493 31.1927 26.351C31.1927 27.2534 31.842 27.9019 32.6703 27.9019C33.0904 27.9019 33.3995 27.735 33.6033 27.4691V27.8277H34.2462V26.351ZM18.1226 25.375C18.5364 25.375 18.8023 25.6346 18.8702 26.0915H17.3374C17.406 25.665 17.6649 25.375 18.1226 25.375ZM18.1353 24.8001C17.2695 24.8001 16.6641 25.4302 16.6641 26.351C16.6641 27.2902 17.2943 27.9019 18.1785 27.9019C18.6234 27.9019 19.0308 27.7909 19.3894 27.4882L19.0746 27.0123C18.8271 27.2096 18.5116 27.3213 18.2152 27.3213C17.8014 27.3213 17.4244 27.1297 17.3318 26.5978H19.5252C19.5316 26.5179 19.5379 26.4373 19.5379 26.351C19.5316 25.4302 18.9629 24.8001 18.1353 24.8001ZM25.8905 26.351C25.8905 25.8319 26.2307 25.4055 26.7867 25.4055C27.3179 25.4055 27.6765 25.8135 27.6765 26.351C27.6765 26.8885 27.3179 27.2966 26.7867 27.2966C26.2307 27.2966 25.8905 26.8701 25.8905 26.351ZM28.282 26.351V24.8743H27.6397V25.2329C27.4353 24.967 27.1269 24.8001 26.7068 24.8001C25.8785 24.8001 25.2291 25.4493 25.2291 26.351C25.2291 27.2534 25.8785 27.9019 26.7068 27.9019C27.1269 27.9019 27.4353 27.735 27.6397 27.4691V27.8277H28.282V26.351ZM22.2633 26.351C22.2633 27.2471 22.8872 27.9019 23.8392 27.9019C24.2841 27.9019 24.5805 27.8029 24.9016 27.5498L24.5932 27.0307C24.352 27.2039 24.0988 27.2966 23.8201 27.2966C23.3073 27.2902 22.9303 26.9196 22.9303 26.351C22.9303 25.7824 23.3073 25.4118 23.8201 25.4055C24.0988 25.4055 24.352 25.4981 24.5932 25.6714L24.9016 25.1523C24.5805 24.8991 24.2841 24.8001 23.8392 24.8001C22.8872 24.8001 22.2633 25.455 22.2633 26.351ZM30.544 24.8001C30.1734 24.8001 29.9322 24.9733 29.7653 25.2329V24.8743H29.1287V27.8277H29.7716V26.1721C29.7716 25.6834 29.9817 25.4118 30.4019 25.4118C30.532 25.4118 30.6678 25.4302 30.8036 25.4861L31.0017 24.8807C30.8595 24.8248 30.6742 24.8001 30.544 24.8001ZM13.3269 25.1091C13.0178 24.9055 12.5919 24.8001 12.1223 24.8001C11.3739 24.8001 10.8922 25.1586 10.8922 25.7456C10.8922 26.2273 11.2508 26.5243 11.9115 26.6169L12.2149 26.6601C12.5672 26.7096 12.7334 26.8022 12.7334 26.9691C12.7334 27.1976 12.4986 27.3277 12.06 27.3277C11.6151 27.3277 11.294 27.1855 11.0775 27.0186L10.7748 27.5186C11.1271 27.7782 11.572 27.9019 12.0537 27.9019C12.9067 27.9019 13.4011 27.5002 13.4011 26.938C13.4011 26.4189 13.0121 26.1473 12.3691 26.0547L12.0664 26.0108C11.7884 25.9741 11.5656 25.9189 11.5656 25.7209C11.5656 25.5045 11.7757 25.375 12.1279 25.375C12.5049 25.375 12.8699 25.5172 13.0489 25.6282L13.3269 25.1091ZM21.614 24.8001C21.2433 24.8001 21.0021 24.9733 20.8359 25.2329V24.8743H20.1993V27.8277H20.8416V26.1721C20.8416 25.6834 21.0516 25.4118 21.4718 25.4118C21.6019 25.4118 21.7377 25.4302 21.8736 25.4861L22.0716 24.8807C21.9294 24.8248 21.7441 24.8001 21.614 24.8001ZM16.1328 24.8743H15.0825V23.9783H14.4331V24.8743H13.834V25.4613H14.4331V26.8086C14.4331 27.4939 14.6991 27.9019 15.4588 27.9019C15.7374 27.9019 16.0586 27.8157 16.2623 27.6735L16.077 27.1233C15.8853 27.2343 15.6752 27.2902 15.5083 27.2902C15.1871 27.2902 15.0825 27.0922 15.0825 26.7959V25.4613H16.1328V24.8743ZM6.52939 27.8277V25.9741C6.52939 25.276 6.08448 24.8064 5.36724 24.8001C4.99023 24.7937 4.6012 24.9111 4.32888 25.3255C4.12517 24.9981 3.80404 24.8001 3.35276 24.8001C3.03729 24.8001 2.72889 24.8927 2.48769 25.2386V24.8743H1.84473V27.8277H2.49335V26.1905C2.49335 25.6777 2.7777 25.4055 3.21695 25.4055C3.64347 25.4055 3.85921 25.6834 3.85921 26.1841V27.8277H4.50854V26.1905C4.50854 25.6777 4.80491 25.4055 5.23143 25.4055C5.66998 25.4055 5.88006 25.6834 5.88006 26.1841V27.8277H6.52939Z" fill="#393333"/>
<path d="M35.6633 18.0059V17.5745H35.5508L35.4207 17.8708L35.2912 17.5745H35.1781V18.0059H35.258V17.6805L35.3796 17.9613H35.4624L35.5841 17.6798V18.0059H35.6633ZM34.9496 18.0059V17.648H35.0939V17.5752H34.7261V17.648H34.8704V18.0059H34.9496Z" fill="#F79410"/>
<path d="M22.8747 19.8616H13.1406V2.37061H22.8747V19.8616Z" fill="#FF5F00"/>
<path d="M13.7637 11.1146C13.7637 7.56651 15.4253 4.40594 18.0127 2.36914C16.1206 0.879733 13.7326 -0.00924392 11.1374 -0.00924392C4.99351 -0.00924392 0.0131836 4.97101 0.0131836 11.1146C0.0131836 17.2583 4.99351 22.2385 11.1374 22.2385C13.7326 22.2385 16.1206 21.3495 18.0127 19.8601C15.4253 17.8233 13.7637 14.6628 13.7637 11.1146Z" fill="#EB001B"/>
<path d="M36.0026 11.1146C36.0026 17.2583 31.0223 22.2385 24.8784 22.2385C22.2832 22.2385 19.8953 21.3495 18.0024 19.8601C20.5906 17.8233 22.2521 14.6628 22.2521 11.1146C22.2521 7.56651 20.5906 4.40594 18.0024 2.36914C19.8953 0.879733 22.2832 -0.00924392 24.8784 -0.00924392C31.0223 -0.00924392 36.0026 4.97101 36.0026 11.1146Z" fill="#F79E1B"/>
</g>
<defs>
<clipPath id="clip0_1428_4970">
<rect width="36" height="28" fill="white"/>
</clipPath>
</defs>
</svg>
