<svg width="24" height="24" viewBox="0 0 24 24" fill="none" xmlns="http://www.w3.org/2000/svg">
<g filter="url(#filter0_i_1428_4385)">
<path d="M12 0C5.3835 0 0 5.3835 0 12V23.25C0 23.664 0.336 24 0.75 24H12C18.6165 24 24 18.6165 24 12C24 5.3835 18.6165 0 12 0ZM12.75 15H6.75C6.336 15 6 14.664 6 14.25C6 13.836 6.336 13.5 6.75 13.5H12.75C13.164 13.5 13.5 13.836 13.5 14.25C13.5 14.664 13.164 15 12.75 15ZM17.25 10.5H6.75C6.336 10.5 6 10.164 6 9.75C6 9.336 6.336 9 6.75 9H17.25C17.664 9 18 9.336 18 9.75C18 10.164 17.664 10.5 17.25 10.5Z" fill="white"/>
</g>
<defs>
<filter id="filter0_i_1428_4385" x="0" y="0" width="24" height="26" filterUnits="userSpaceOnUse" color-interpolation-filters="sRGB">
<feFlood flood-opacity="0" result="BackgroundImageFix"/>
<feBlend mode="normal" in="SourceGraphic" in2="BackgroundImageFix" result="shape"/>
<feColorMatrix in="SourceAlpha" type="matrix" values="0 0 0 0 0 0 0 0 0 0 0 0 0 0 0 0 0 0 127 0" result="hardAlpha"/>
<feOffset dy="2"/>
<feGaussianBlur stdDeviation="1"/>
<feComposite in2="hardAlpha" operator="arithmetic" k2="-1" k3="1"/>
<feColorMatrix type="matrix" values="0 0 0 0 0 0 0 0 0 0 0 0 0 0 0 0 0 0 0.3 0"/>
<feBlend mode="normal" in2="shape" result="effect1_innerShadow_1428_4385"/>
</filter>
</defs>
</svg>
