<svg width="86" height="172" viewBox="0 0 86 172" fill="none" xmlns="http://www.w3.org/2000/svg">
<g clip-path="url(#clip0_1_22319)">
<path d="M24.1749 171.499C23.6848 171.499 23.2356 171.335 22.8273 171.007C21.9697 170.268 21.8881 168.955 22.6231 168.094C30.096 159.437 22.9498 150.493 15.0277 142.124C14.3335 141.385 13.6801 140.729 13.1492 140.073C6.86052 133.098 -6.20691 118.574 3.43032 104.912C6.45216 100.605 10.9441 97.8969 16.0486 97.2815C21.2347 96.6661 26.5025 98.3072 30.5452 101.794C34.5471 105.282 39.9374 112.092 42.7551 124.769C47.9821 148.36 55.8225 155.704 61.4579 157.755C65.9089 159.355 69.9925 157.919 72.361 156.073C76.2812 152.996 74.6478 144.832 74.6069 144.75C74.3619 143.642 75.0561 142.534 76.1587 142.329C77.2613 142.083 78.3638 142.78 78.568 143.888C78.6497 144.339 80.814 154.596 74.852 159.314C71.6259 161.858 66.0723 163.786 60.0694 161.612C53.4541 159.232 44.3885 151.068 38.7532 125.672C36.7523 116.646 32.8729 109.261 27.8909 104.912C24.7057 102.164 20.5813 100.892 16.5794 101.343C12.6184 101.835 9.14732 103.928 6.77885 107.251C-0.040714 116.892 7.26888 127.395 16.1711 137.283C16.7019 137.857 17.3145 138.513 18.0087 139.252C21.1939 142.616 25.5633 147.252 28.0134 152.586C31.1169 159.314 30.341 165.427 25.7266 170.761C25.3183 171.253 24.7466 171.499 24.1749 171.499Z" fill="#393963"/>
<path d="M44.266 57.3623C56.219 57.3623 65.9089 47.627 65.9089 35.618C65.9089 23.609 56.219 13.8738 44.266 13.8738C32.3129 13.8738 22.623 23.609 22.623 35.618C22.623 47.627 32.3129 57.3623 44.266 57.3623Z" fill="url(#paint0_linear_1_22319)"/>
<path d="M44.266 57.3625C56.219 57.3625 65.9089 47.6273 65.9089 35.6183C65.9089 23.6093 56.219 13.874 44.266 13.874C32.3129 13.874 22.623 23.6093 22.623 35.6183C22.623 47.6273 32.3129 57.3625 44.266 57.3625Z" fill="url(#paint1_radial_1_22319)"/>
<mask id="mask0_1_22319" style="mask-type:alpha" maskUnits="userSpaceOnUse" x="22" y="13" width="44" height="45">
<path d="M44.266 57.3625C56.219 57.3625 65.9089 47.6273 65.9089 35.6183C65.9089 23.6093 56.219 13.874 44.266 13.874C32.3129 13.874 22.623 23.6093 22.623 35.6183C22.623 47.6273 32.3129 57.3625 44.266 57.3625Z" fill="url(#paint2_radial_1_22319)"/>
</mask>
<g mask="url(#mask0_1_22319)">
<g opacity="0.19">
<path opacity="0.19" d="M77.342 39.6387C77.4237 39.3515 77.4645 39.1054 77.5462 38.8182C73.9526 41.6901 70.2366 44.1927 66.4389 46.3671C66.4389 45.9569 66.398 45.5056 66.398 45.0953C70.2774 43.0029 74.0751 40.5413 77.7912 37.7925C77.832 37.5053 77.9137 37.2592 77.9545 36.972C74.1568 39.6387 70.3182 42.0183 66.3572 44.1106C66.3163 43.7004 66.3163 43.2491 66.2755 42.8388C70.3182 40.8285 74.2793 38.531 78.1587 35.9463C78.1995 35.7001 78.2404 35.4129 78.2812 35.1668C74.2793 37.6694 70.2366 39.8849 66.153 41.8542C66.1122 41.4439 66.0713 41.0336 66.0305 40.5823C70.1957 38.6541 74.2793 36.5207 78.322 34.1411C78.3629 33.8949 78.3629 33.6078 78.3629 33.3616C74.2793 35.6591 70.1141 37.7515 65.908 39.5977C65.8672 39.1874 65.7855 38.7771 65.7446 38.3669C70.0324 36.5617 74.2385 34.5514 78.4037 32.377C78.4037 32.1308 78.4037 31.8846 78.4037 31.5974C74.1976 33.6898 69.9099 35.6181 65.5813 37.3822C65.4996 36.972 65.4588 36.5617 65.3771 36.1514C69.7466 34.4693 74.0751 32.6231 78.3629 30.6538C78.3629 30.4077 78.322 30.1615 78.322 29.9153C73.9935 31.8026 69.624 33.5667 65.2138 35.2078C65.1321 34.7975 65.0504 34.3873 64.9688 33.977C69.4199 32.418 73.8301 30.7359 78.2404 28.9307C78.1995 28.6845 78.1995 28.4384 78.1587 28.1922C73.7484 29.8743 69.2565 31.4744 64.8054 32.9924C64.7238 32.5821 64.6421 32.1718 64.5196 31.8026C69.0115 30.3666 73.5443 28.8486 77.9954 27.2486C77.9545 27.0024 77.9137 26.7563 77.832 26.5511C73.2993 28.0281 68.8073 29.464 64.2746 30.859C64.1929 30.4487 64.0704 30.0794 63.9479 29.6692C68.5215 28.3563 73.0542 27.0024 77.6278 25.6485C77.5462 25.4024 77.5053 25.1972 77.4237 24.9511C72.8501 26.2229 68.2765 27.4948 63.7029 28.7666C63.5804 28.3563 63.4579 27.9871 63.3353 27.5768C67.9089 26.387 72.5234 25.1973 77.1378 24.0895C77.0561 23.8434 76.9745 23.6382 76.8928 23.3921C72.2784 24.4177 67.6639 25.5255 63.0495 26.6742C62.927 26.2639 62.8045 25.8947 62.6411 25.4844C67.2556 24.4177 71.87 23.4331 76.5253 22.5305C76.4436 22.3254 76.3211 22.0792 76.2394 21.8741C71.5842 22.6946 66.9289 23.5972 62.3144 24.5818C62.1919 24.2126 62.0286 23.8023 61.9061 23.4331C66.5205 22.4895 71.1758 21.71 75.8311 21.0125C75.7086 20.8074 75.5861 20.5612 75.5044 20.3561C70.8083 20.9305 66.153 21.6689 61.5794 22.5305C61.4161 22.1613 61.2527 21.751 61.1302 21.3818C65.7446 20.6022 70.3591 19.9868 75.0552 19.5355C74.9327 19.3304 74.8102 19.1253 74.6468 18.8791C69.9507 19.2073 65.2955 19.7407 60.7219 20.4792C60.5585 20.1099 60.3952 19.6996 60.2318 19.3304C64.8054 18.715 69.4199 18.2637 74.116 18.0586C73.9526 17.8534 73.8301 17.6483 73.6668 17.4432C68.9707 17.5662 64.3562 17.8945 59.8235 18.4688C59.6601 18.0996 59.4559 17.7304 59.2926 17.3201C63.8254 16.8278 68.399 16.6226 73.0951 16.6226C72.9317 16.4175 72.7684 16.2124 72.605 16.0072C67.9498 15.8841 63.3762 16.0072 58.8842 16.4175C58.6801 16.0483 58.5167 15.679 58.3125 15.3098C62.7636 14.9816 67.3372 14.9405 71.9517 15.2277C71.7883 15.0226 71.5842 14.8175 71.4208 14.6123C66.8064 14.2431 62.2736 14.161 57.8634 14.4072C57.6592 14.0379 57.455 13.6687 57.2508 13.2995C61.6202 13.1353 66.1122 13.2995 70.7266 13.8328C70.5224 13.6277 70.3182 13.4225 70.1141 13.2584C65.5405 12.602 61.0894 12.3558 56.7608 12.4379C54.5557 8.66342 52.0238 5.05305 49.0837 1.48371C48.7978 1.40166 48.5528 1.36063 48.267 1.27858C51.1255 4.88894 53.6164 8.62239 55.7807 12.4379C55.3724 12.4379 54.9232 12.4789 54.5148 12.4789C52.4322 8.58136 49.9821 4.76586 47.2461 1.03242C46.9602 0.991391 46.7152 0.909337 46.4294 0.86831C49.0837 4.68381 51.4522 8.54034 53.5348 12.5199C53.1264 12.561 52.6772 12.561 52.2689 12.602C50.2679 8.54034 47.9811 4.56073 45.4085 0.663176C45.1634 0.622149 44.8776 0.581122 44.6326 0.540095C47.1236 4.5197 49.3287 8.54034 51.2888 12.643C50.8805 12.6841 50.4721 12.7251 50.0229 12.7661C48.1036 8.58136 45.9802 4.47868 43.6117 0.417015C43.3667 0.375988 43.0808 0.375988 42.8358 0.375988C45.1226 4.47868 47.2052 8.66342 49.0428 12.8892C48.6345 12.9302 48.2261 13.0123 47.8178 13.0533C46.021 8.74547 44.0201 4.5197 41.8558 0.334961C41.6107 0.334961 41.3657 0.334961 41.0799 0.334961C43.1625 4.56073 45.0818 8.86855 46.8377 13.2174C46.4294 13.2995 46.021 13.3405 45.6126 13.4225C43.9384 9.03266 42.1008 4.68381 40.1407 0.375988C39.8956 0.375988 39.6506 0.417015 39.4056 0.417015C41.2841 4.76586 43.04 9.15574 44.6734 13.5866C44.2651 13.6687 43.8567 13.7508 43.4484 13.8328C41.8149 9.52498 40.1407 5.09408 38.3847 0.663176C38.1397 0.704203 37.8947 0.704203 37.6497 0.74523C39.3239 5.17613 40.9165 9.68909 42.4275 14.161C42.0191 14.2431 41.6107 14.3251 41.2432 14.4482C39.814 9.93525 38.3031 5.42229 36.7105 0.909337C36.4654 0.950364 36.2204 0.991391 36.0163 1.07344C37.4863 5.62743 38.9156 10.1404 40.304 14.6944C39.8956 14.7764 39.5281 14.8995 39.1198 15.0226C37.813 10.4276 36.4654 5.87359 35.1179 1.27858C34.8729 1.36063 34.6687 1.40166 34.4237 1.48371C35.6896 6.07872 36.9555 10.6737 38.2214 15.2687C37.813 15.3918 37.4455 15.5149 37.0371 15.638C35.8529 11.043 34.6687 6.40694 33.5661 1.7709C33.3211 1.85296 33.1169 1.93501 32.8719 2.01706C33.8928 6.6531 34.9954 11.2891 36.1388 15.9252C35.7304 16.0483 35.3629 16.1713 34.9545 16.3354C33.8928 11.6994 32.9127 7.06337 32.0144 2.3863C31.8102 2.46836 31.5652 2.59144 31.361 2.67349C32.1777 7.35056 33.0761 12.0276 34.0561 16.6637C33.6886 16.7867 33.2803 16.9508 32.9127 17.0739C31.9735 12.4379 31.1976 7.76083 30.5034 3.08376C30.2176 3.16582 30.0134 3.2889 29.8092 3.41198C30.3809 8.13007 31.116 12.8071 31.9735 17.4021C31.606 17.5662 31.1976 17.7304 30.8301 17.8534C30.0134 13.2584 29.4009 8.58136 28.9517 3.86327C28.7475 3.98635 28.5433 4.10943 28.2983 4.27354C28.625 8.99163 29.1559 13.6687 29.8909 18.2637C29.5234 18.4278 29.115 18.5919 28.7475 18.756C28.135 14.161 27.6858 9.52498 27.4816 4.80689C27.2774 4.971 27.0732 5.09408 26.8691 5.25819C26.9916 9.97628 27.3182 14.6123 27.8899 19.1663C27.5224 19.3304 27.1549 19.5355 26.7465 19.6996C26.2565 15.1457 26.0523 10.5507 26.0523 5.83256C25.8482 5.99667 25.644 6.16078 25.4398 6.32488C25.3173 11.0019 25.4398 15.597 25.8482 20.1099C25.4806 20.3151 25.1131 20.4792 24.7456 20.6843C24.4189 16.2124 24.3781 11.6174 24.6639 6.98132C24.4597 7.14542 24.2556 7.35056 24.0514 7.51466C23.6839 12.1507 23.6022 16.7047 23.8472 21.1356C23.4797 21.3407 23.1122 21.5459 22.7446 21.751C22.5813 17.3611 22.7446 12.8482 23.2755 8.21212C23.0713 8.41726 22.8672 8.62239 22.7038 8.82752C22.0504 13.4225 21.8054 17.8945 21.8871 22.2433C18.1302 24.4588 14.5367 27.0024 10.984 29.9564C10.9023 30.2436 10.8615 30.4897 10.7798 30.7769C14.3733 27.905 18.0894 25.4024 21.8871 23.228C21.8871 23.6382 21.9279 24.0895 21.9279 24.4998C18.1302 26.7152 14.3325 29.1358 10.6164 31.9257C10.5756 32.2128 10.4939 32.459 10.4531 32.7462C14.2508 30.0794 18.0894 27.6999 22.0504 25.6075C22.0913 26.0178 22.0913 26.4691 22.1321 26.8794C18.1302 28.8486 14.1691 31.1461 10.3306 33.7308C10.2898 33.977 10.2489 34.2642 10.2081 34.5104C14.1691 32.0077 18.171 29.7923 22.2546 27.823C22.2955 28.2332 22.3363 28.6435 22.3771 29.0948C18.2119 31.0231 14.1283 33.1565 10.0856 35.536C10.0447 35.7822 10.0447 36.0694 10.0447 36.3155C14.1283 34.018 18.2936 31.9257 22.4996 30.0794C22.5405 30.4897 22.6221 30.9 22.663 31.3103C18.3752 33.1154 14.1691 35.1258 10.0039 37.3002C10.0039 37.5463 10.0039 37.7925 10.0039 38.0797C14.21 35.9873 18.4977 34.0591 22.8263 32.2949C22.908 32.7052 22.9488 33.1154 23.0305 33.5257C18.6611 35.2078 14.3325 37.013 10.0447 39.0233C10.0447 39.2695 10.0856 39.5156 10.0856 39.7618C14.4142 37.8746 18.7836 36.1104 23.1938 34.4693C23.2755 34.8796 23.3572 35.2899 23.4389 35.7001C18.9878 37.2592 14.5775 38.9413 10.1672 40.7054C10.2081 40.9516 10.2081 41.1977 10.2489 41.4439C14.6592 39.7618 19.1511 38.1617 23.6022 36.6437C23.6839 37.054 23.7655 37.4643 23.888 37.8335C19.3961 39.2695 14.8634 40.7875 10.4123 42.3875C10.4531 42.6337 10.4939 42.8798 10.5756 43.085C15.1084 41.608 19.6003 40.1721 24.1331 38.7771C24.2147 39.1874 24.3372 39.5567 24.4597 39.9669C19.8861 41.2798 15.3534 42.6337 10.7798 43.9876C10.8615 44.2337 10.9023 44.4389 10.984 44.685C15.5576 43.4132 20.1312 42.1413 24.7048 40.8695C24.8273 41.2798 24.9498 41.649 25.0723 42.0593C20.4987 43.2491 15.8842 44.4389 11.2698 45.5466C11.3515 45.7927 11.4332 45.9979 11.5148 46.244C16.1293 45.2184 20.7437 44.1106 25.3581 42.9619C25.4806 43.3722 25.6031 43.7414 25.7665 44.1517C21.1521 45.2184 16.5376 46.203 11.8823 47.1056C11.964 47.3107 12.0865 47.5569 12.1682 47.762C16.8235 46.9415 21.4787 46.0389 26.0932 45.0543C26.2157 45.4235 26.379 45.8338 26.5015 46.203C21.8871 47.1466 17.2318 47.9261 12.5766 48.6236C12.6991 48.8287 12.8216 49.0749 12.9032 49.28C17.5993 48.7057 22.2546 47.9672 26.8282 47.1056C26.9916 47.4748 27.1549 47.8851 27.2774 48.2544C22.663 49.0339 18.0485 49.6493 13.3524 50.1006C13.4749 50.3057 13.5974 50.5108 13.7608 50.757C18.4569 50.4288 23.1122 49.8954 27.6858 49.1569C27.8491 49.5262 28.0125 49.9365 28.1758 50.3057C23.6022 50.9211 18.9878 51.3724 14.2917 51.5775C14.455 51.7827 14.5775 51.9878 14.7408 52.1929C19.437 52.0699 24.0514 51.7416 28.5842 51.1673C28.7475 51.5365 28.9517 51.9058 29.115 52.316C24.5823 52.8083 20.0087 53.0135 15.3125 53.0135C15.4759 53.2186 15.6392 53.4237 15.8026 53.6289C20.4578 53.752 25.0314 53.6289 29.5234 53.2186C29.7276 53.5878 29.8909 53.9571 30.0951 54.3263C25.644 54.6545 21.0704 54.6956 16.4559 54.4084C16.6193 54.6135 16.8235 54.8186 16.9868 55.0238C21.6012 55.393 26.134 55.4751 30.5443 55.2289C30.7484 55.5982 30.9526 55.9674 31.1568 56.3367C26.7874 56.5008 22.2955 56.3366 17.681 55.8033C17.8852 56.0084 18.0894 56.2136 18.2936 56.3777C22.8672 57.0341 27.3182 57.2803 31.6468 57.1982C33.852 60.9727 36.3838 64.583 39.3239 68.1524C39.6098 68.2344 39.8548 68.2755 40.1407 68.3575C37.2822 64.7472 34.7912 61.0137 32.6269 57.1982C33.0352 57.1982 33.4844 57.1572 33.8928 57.1572C35.9754 61.0547 38.4256 64.8702 41.1616 68.6037C41.4474 68.6447 41.6924 68.7268 41.9783 68.7678C39.3239 64.9523 36.9555 61.0958 34.8729 57.1162C35.2812 57.0751 35.7304 57.0751 36.1388 57.0341C38.1397 61.0958 40.4265 65.0754 42.9992 68.9729C43.2442 69.0139 43.53 69.055 43.775 69.096C41.2841 65.1164 39.0789 61.0958 37.1188 56.9931C37.5272 56.952 37.9355 56.911 38.3847 56.87C40.304 61.0547 42.4275 65.1574 44.7959 69.2191C45.0409 69.2601 45.3268 69.2601 45.5718 69.2601C43.285 65.1574 41.2024 60.9727 39.3648 56.7469C39.7731 56.7059 40.1815 56.6238 40.5899 56.5828C42.3866 60.8906 44.3876 65.1164 46.5519 69.3011C46.7969 69.3011 47.0419 69.3011 47.3277 69.3011C45.2451 65.0754 43.3258 60.7676 41.5699 56.4187C41.9783 56.3366 42.3866 56.2956 42.795 56.2136C44.4692 60.6034 46.3069 64.9523 48.267 69.2601C48.512 69.2601 48.757 69.2191 49.002 69.2191C47.1236 64.8702 45.3676 60.4804 43.7342 56.0495C44.1426 55.9674 44.5509 55.8854 44.9593 55.8033C46.511 60.2752 48.1853 64.7061 49.9821 69.137C50.2271 69.096 50.4721 69.096 50.7171 69.055C49.0428 64.6241 47.4503 60.1111 45.9393 55.6392C46.3477 55.5571 46.756 55.4751 47.1236 55.352C48.5528 59.865 50.0637 64.4189 51.6563 68.8909C51.9013 68.8498 52.1464 68.8088 52.3505 68.7268C50.8804 64.1728 49.4512 59.6598 48.0628 55.1058C48.4711 55.0238 48.8387 54.9007 49.247 54.7776C50.5538 59.3726 51.9013 63.9266 53.2489 68.5216C53.4939 68.4396 53.6981 68.3986 53.9431 68.3165C52.6772 63.7215 51.4113 59.1265 50.1454 54.5315C50.5538 54.4084 50.9213 54.2853 51.3296 54.1622C52.5139 58.7572 53.6981 63.3933 54.8007 68.0293C55.0457 67.9473 55.2499 67.8652 55.4949 67.7831C54.474 63.1471 53.3714 58.5111 52.228 53.875C52.6364 53.752 53.0039 53.6289 53.4123 53.4648C54.474 58.1008 55.454 62.7368 56.3524 67.4139C56.5566 67.3319 56.8016 67.2088 57.0058 67.1267C56.1891 62.4496 55.2907 57.7726 54.3106 53.1366C54.6782 53.0135 55.0865 52.8494 55.4541 52.7263C56.3933 57.3623 57.1691 62.0394 57.8634 66.7164C58.0675 66.5934 58.3125 66.4703 58.5167 66.3882C57.945 61.6701 57.21 56.9931 56.3524 52.3981C56.72 52.234 57.1283 52.0699 57.4958 51.9468C58.2717 56.5828 58.8843 61.2188 59.3334 65.9369C59.5376 65.8139 59.7418 65.6908 59.9868 65.5267C59.6601 60.8086 59.1293 56.1315 58.3942 51.5365C58.7617 51.3724 59.1701 51.2083 59.5376 51.0442C60.1502 55.6392 60.5993 60.2752 60.8035 64.9933C61.0077 64.8292 61.2119 64.7061 61.4161 64.542C61.2936 59.8239 60.9669 55.1879 60.3952 50.6339C60.7627 50.4698 61.1302 50.2647 61.5386 50.1006C62.0286 54.6545 62.2328 59.2496 62.2328 63.9676C62.437 63.8035 62.6411 63.6394 62.8453 63.4753C62.9678 58.7983 62.8453 54.2033 62.437 49.6903C62.8045 49.4852 63.172 49.3211 63.5395 49.1159C63.8662 53.5878 63.907 58.1829 63.6212 62.8189C63.8254 62.6548 64.0295 62.4497 64.2337 62.2855C64.6012 57.6495 64.6829 53.0955 64.4379 48.6646C64.8054 48.4595 65.1729 48.2544 65.5405 48.0492C65.7038 52.4391 65.5405 56.952 65.0096 61.5881C65.2138 61.3829 65.418 61.1778 65.5813 60.9727C66.2347 56.3777 66.4797 51.9057 66.398 47.5569C70.1957 45.1773 73.8301 42.5926 77.342 39.6387ZM65.418 44.5619C65.0096 44.7671 64.6421 44.9722 64.2337 45.1363C64.1929 44.685 64.1521 44.2747 64.1112 43.8645C64.5196 43.6593 64.8871 43.4952 65.2955 43.2901C65.3363 43.7414 65.3771 44.1517 65.418 44.5619ZM43.53 34.4693C43.0808 34.5924 42.6316 34.7155 42.1824 34.8386C42.0599 34.3873 41.9374 33.936 41.8149 33.4847C42.2641 33.3616 42.7133 33.2385 43.1625 33.1154C43.285 33.5667 43.4075 34.018 43.53 34.4693ZM44.1834 32.8283C44.6326 32.7052 45.0818 32.5821 45.531 32.459C45.6535 32.9103 45.776 33.3616 45.8985 33.8129C45.4493 33.936 45.0001 34.0591 44.5509 34.1821C44.4692 33.7308 44.3467 33.2795 44.1834 32.8283ZM43.8159 35.536C43.9384 35.9873 44.0609 36.4386 44.1834 36.8899C43.7342 37.013 43.285 37.1361 42.8358 37.2592C42.7133 36.8079 42.5908 36.3566 42.4683 35.9053C42.9175 35.7822 43.3667 35.6591 43.8159 35.536ZM44.8776 35.2488C45.3268 35.1258 45.776 35.0027 46.2252 34.8796C46.3477 35.3309 46.4702 35.7822 46.5927 36.2335C46.1435 36.3566 45.6943 36.4796 45.2451 36.6027C45.1226 36.1104 45.0001 35.6591 44.8776 35.2488ZM47.2461 34.5514C47.6953 34.4283 48.1445 34.3052 48.5937 34.1821C48.7162 34.6334 48.8387 35.0847 48.9612 35.536C48.512 35.6591 48.0628 35.7822 47.6136 35.9053C47.5319 35.454 47.4094 35.0027 47.2461 34.5514ZM46.9602 33.4847C46.8377 33.0334 46.7152 32.5821 46.5927 32.1308C47.0419 32.0077 47.4911 31.8846 47.9403 31.7615C48.0628 32.2128 48.1853 32.6641 48.3078 33.1154C47.8586 33.2385 47.4094 33.3616 46.9602 33.4847ZM46.3069 31.1051C46.1843 30.6538 46.0618 30.2025 45.9393 29.7512C46.3885 29.6282 46.8377 29.5051 47.2869 29.382C47.4094 29.8333 47.5319 30.2846 47.6953 30.7359C47.1644 30.859 46.7152 30.982 46.3069 31.1051ZM45.2451 31.3923C44.7959 31.5154 44.3467 31.6385 43.8975 31.7615C43.775 31.3103 43.6525 30.859 43.53 30.4077C43.9792 30.2846 44.4284 30.1615 44.8776 30.0384C45.0001 30.4897 45.1226 30.941 45.2451 31.3923ZM42.8767 32.0898C42.4275 32.2128 41.9783 32.3359 41.5291 32.459C41.4066 32.0077 41.2841 31.5564 41.1616 31.1051C41.6107 30.982 42.0599 30.859 42.5091 30.7359C42.5908 31.1872 42.7541 31.6385 42.8767 32.0898ZM40.4673 32.7462C40.0182 32.8693 39.569 32.9924 39.1198 33.1154C38.9973 32.6641 38.8748 32.2128 38.7522 31.7615C39.2014 31.6385 39.6506 31.5154 40.0998 31.3513C40.2223 31.8436 40.3448 32.2949 40.4673 32.7462ZM40.794 33.8129C40.9165 34.2642 41.039 34.7155 41.1616 35.1668C40.7124 35.2899 40.2632 35.4129 39.814 35.536C39.6915 35.0847 39.569 34.6334 39.4465 34.1821C39.8956 34.0591 40.3448 33.936 40.794 33.8129ZM41.4474 36.1925C41.5699 36.6437 41.6924 37.095 41.8149 37.5463C41.3657 37.6694 40.9165 37.7925 40.4673 37.9156C40.3448 37.4643 40.2223 37.013 40.0998 36.5617C40.549 36.4386 40.9982 36.3155 41.4474 36.1925ZM42.1416 38.572C42.2641 39.0233 42.3866 39.4746 42.5091 39.9259C42.0599 40.049 41.6107 40.1721 41.1616 40.2951C41.039 39.8438 40.9165 39.3925 40.7532 38.9413C41.2432 38.8592 41.6924 38.7361 42.1416 38.572ZM43.1625 38.2848C43.6117 38.1617 44.0609 38.0387 44.5101 37.9156C44.6326 38.3669 44.7551 38.8182 44.8776 39.2695C44.4284 39.3926 43.9792 39.5156 43.53 39.6387C43.4075 39.1874 43.285 38.7361 43.1625 38.2848ZM45.531 37.6284C45.9802 37.5053 46.4294 37.3822 46.8786 37.2592C47.0011 37.7104 47.1236 38.1617 47.2461 38.613C46.7969 38.7361 46.3477 38.8592 45.8985 38.9823C45.8168 38.531 45.6943 38.0797 45.531 37.6284ZM47.9403 36.9309C48.3895 36.8079 48.8387 36.6848 49.2879 36.5617C49.4104 37.013 49.5329 37.4643 49.6554 37.9156C49.2062 38.0387 48.757 38.1617 48.3078 38.3259C48.1853 37.8335 48.0628 37.3822 47.9403 36.9309ZM50.3088 36.2335C50.7579 36.1104 51.2071 35.9873 51.6563 35.8232C51.7788 36.2745 51.9013 36.7258 52.0238 37.1771C51.5747 37.3002 51.1255 37.4643 50.6763 37.5874C50.5538 37.1361 50.4313 36.6848 50.3088 36.2335ZM50.0229 35.2078C49.9004 34.7565 49.7779 34.3052 49.6554 33.8539C50.1046 33.7308 50.5538 33.6078 51.003 33.4847C51.1255 33.936 51.248 34.3873 51.3705 34.7975C50.9213 34.9616 50.4721 35.0847 50.0229 35.2078ZM49.3695 32.8283C49.247 32.377 49.1245 31.9257 49.002 31.4744C49.4512 31.3513 49.9004 31.2282 50.3496 31.1051C50.4721 31.5564 50.5946 32.0077 50.7171 32.418C50.2679 32.5821 49.8187 32.7052 49.3695 32.8283ZM48.6753 30.4487C48.5528 29.9974 48.4303 29.5461 48.267 29.1358C48.7162 29.0128 49.1654 28.8897 49.6145 28.7666C49.737 29.2179 49.8596 29.6692 50.0229 30.0794C49.5737 30.2025 49.1245 30.3256 48.6753 30.4487ZM47.9811 28.0691C47.8586 27.6178 47.6953 27.1665 47.5728 26.7563C48.0219 26.6332 48.4711 26.5101 48.9203 26.4281C49.0428 26.8794 49.2062 27.2896 49.3287 27.7409C48.8795 27.864 48.4303 27.946 47.9811 28.0691ZM46.9194 28.3563C46.4702 28.4794 46.021 28.6025 45.5718 28.7256C45.4493 28.2743 45.3268 27.823 45.1635 27.3717C45.6126 27.2486 46.0618 27.1255 46.511 27.0024C46.6744 27.4537 46.7969 27.905 46.9194 28.3563ZM44.5509 29.0127C44.1017 29.1358 43.6525 29.2589 43.2033 29.382C43.0808 28.9307 42.9583 28.4794 42.8358 28.0281C43.285 27.905 43.7342 27.7819 44.1426 27.6589C44.3059 28.1102 44.4284 28.5615 44.5509 29.0127ZM42.1824 29.6692C41.7333 29.7923 41.2841 29.9153 40.8349 30.0384C40.7124 29.5871 40.5899 29.1358 40.4673 28.6845C40.9165 28.5615 41.3657 28.4384 41.7741 28.3153C41.9374 28.7666 42.0599 29.2179 42.1824 29.6692ZM39.814 30.3666C39.3648 30.4897 38.9156 30.6128 38.5072 30.7769C38.3847 30.3256 38.2622 29.8743 38.1397 29.423C38.5889 29.2999 39.0381 29.1769 39.4465 29.0127C39.569 29.464 39.6915 29.9153 39.814 30.3666ZM37.4863 31.0641C37.0371 31.1872 36.588 31.3513 36.1796 31.4744C36.0571 31.0231 35.9346 30.5718 35.8529 30.1205C36.3021 29.9974 36.7105 29.8333 37.1597 29.7102C37.2413 30.1615 37.3638 30.6128 37.4863 31.0641ZM37.7314 32.1308C37.8539 32.5821 37.9764 33.0334 38.0989 33.4847C37.6497 33.6078 37.2005 33.7308 36.7513 33.8949C36.6288 33.4437 36.5063 32.9924 36.3838 32.5411C36.8738 32.377 37.323 32.2539 37.7314 32.1308ZM38.3847 34.5104C38.5072 34.9616 38.6297 35.4129 38.7522 35.8642C38.3031 35.9873 37.8539 36.1104 37.4047 36.2335C37.2822 35.7822 37.1597 35.3309 37.0371 34.9206C37.4863 34.7565 37.9355 34.6334 38.3847 34.5104ZM39.0381 36.8899C39.1606 37.3412 39.2831 37.7925 39.4056 38.2438C38.9564 38.3669 38.5072 38.49 38.058 38.613C37.9355 38.1617 37.813 37.7104 37.6905 37.3002C38.1805 37.1361 38.6297 37.013 39.0381 36.8899ZM39.7323 39.2695C39.8548 39.7208 39.9773 40.1721 40.1407 40.5823C39.6915 40.7054 39.2423 40.8285 38.7931 40.9516C38.6706 40.5003 38.5481 40.049 38.3847 39.6387C38.8339 39.5156 39.2831 39.3926 39.7323 39.2695ZM40.4265 41.608C40.549 42.0593 40.7124 42.5106 40.8349 42.9209C40.3857 43.0439 39.9365 43.167 39.4873 43.2491C39.3648 42.7978 39.2014 42.3875 39.0789 41.9362C39.5281 41.8542 39.9773 41.7311 40.4265 41.608ZM41.4882 41.3618C41.9374 41.2388 42.3866 41.1157 42.8358 40.9926C42.9583 41.4439 43.0808 41.8952 43.2442 42.3465C42.795 42.4696 42.3458 42.5926 41.8966 42.7157C41.7333 42.2234 41.6107 41.7721 41.4882 41.3618ZM43.8567 40.7054C44.3059 40.5823 44.7551 40.4592 45.2043 40.3362C45.3268 40.7875 45.4493 41.2388 45.5718 41.6901C45.1226 41.8131 44.6734 41.9362 44.2651 42.0593C44.1017 41.608 43.9792 41.1567 43.8567 40.7054ZM46.2252 40.008C46.6744 39.8849 47.1236 39.7618 47.5728 39.6387C47.6953 40.09 47.8178 40.5413 47.9403 40.9926C47.4911 41.1157 47.0419 41.2388 46.6335 41.3618C46.4702 40.9105 46.3477 40.4593 46.2252 40.008ZM48.5937 39.3515C49.0428 39.2284 49.492 39.1054 49.9004 38.9413C50.0229 39.3925 50.1454 39.8438 50.2679 40.2951C49.8187 40.4182 49.3695 40.5413 48.9612 40.7054C48.8387 40.2541 48.7162 39.8028 48.5937 39.3515ZM50.9621 38.6541C51.4113 38.531 51.8605 38.3669 52.2689 38.2438C52.3914 38.6951 52.5139 39.1464 52.5956 39.5977C52.1464 39.7208 51.738 39.8849 51.2888 40.008C51.1663 39.5156 51.0438 39.0643 50.9621 38.6541ZM53.2898 37.9156C53.7389 37.7925 54.1881 37.6284 54.5965 37.5053C54.719 37.9566 54.8007 38.4079 54.9232 38.8182C54.474 38.9413 54.0656 39.1054 53.6164 39.2284C53.5348 38.8182 53.4123 38.3669 53.2898 37.9156ZM53.0447 36.8899C52.9222 36.4386 52.7997 35.9873 52.6772 35.577C53.1264 35.454 53.5756 35.3309 54.0248 35.1668C54.1473 35.6181 54.2698 36.0283 54.3515 36.4796C53.9023 36.6027 53.4531 36.7258 53.0447 36.8899ZM52.3914 34.5104C52.2689 34.0591 52.1464 33.6078 52.0238 33.1975C52.473 33.0744 52.9222 32.9513 53.3714 32.8283C53.4939 33.2795 53.6164 33.6898 53.739 34.1411C53.2898 34.2642 52.8406 34.3873 52.3914 34.5104ZM51.738 32.1718C51.6155 31.7205 51.493 31.3103 51.3705 30.859C51.8197 30.7359 52.2689 30.6128 52.7181 30.4897C52.8406 30.941 52.9631 31.3513 53.0856 31.8026C52.6364 31.8846 52.1872 32.0077 51.738 32.1718ZM51.0438 29.7923C50.9213 29.341 50.7988 28.9307 50.6354 28.4794C51.0846 28.3563 51.5338 28.2332 51.983 28.1102C52.1055 28.5615 52.2689 28.9717 52.3914 29.423C51.9422 29.5461 51.493 29.6692 51.0438 29.7923ZM50.3496 27.4537C50.2271 27.0024 50.0637 26.5922 49.9412 26.1409C50.3904 26.0178 50.8396 25.9357 51.2888 25.8127C51.4113 26.2639 51.5747 26.6742 51.6972 27.1255C51.248 27.2486 50.7988 27.3306 50.3496 27.4537ZM49.6145 25.1152C49.492 24.6639 49.3287 24.2536 49.2062 23.8023C49.6554 23.6793 50.1046 23.5972 50.5129 23.4741C50.6763 23.9254 50.7988 24.3357 50.9621 24.787C50.5129 24.9101 50.0637 25.0331 49.6145 25.1152ZM48.5937 25.4024C48.1445 25.5255 47.6953 25.6075 47.2461 25.7306C47.1236 25.2793 46.9602 24.828 46.8377 24.4177C47.2869 24.2947 47.7361 24.2126 48.1445 24.0895C48.3078 24.4998 48.4303 24.9511 48.5937 25.4024ZM46.2252 25.9768C45.776 26.0998 45.3268 26.2229 44.9184 26.346C44.7959 25.8947 44.6734 25.4434 44.5101 24.9921C44.9593 24.869 45.3676 24.746 45.8168 24.6639C45.9393 25.1152 46.1027 25.5255 46.2252 25.9768ZM43.8567 26.6332C43.4075 26.7563 42.9583 26.8794 42.55 27.0024C42.4275 26.5511 42.305 26.0998 42.1824 25.6485C42.6316 25.5255 43.04 25.4024 43.4892 25.2793C43.6117 25.7306 43.7342 26.1819 43.8567 26.6332ZM41.5291 27.2896C41.0799 27.4127 40.6715 27.5358 40.2223 27.6589C40.0998 27.2076 39.9773 26.7563 39.8548 26.305C40.304 26.1819 40.7124 26.0588 41.1616 25.9357C41.2841 26.387 41.4066 26.8383 41.5291 27.2896ZM39.2014 27.9461C38.7522 28.0691 38.3439 28.1922 37.8947 28.3563C37.7722 27.905 37.6497 27.4537 37.5272 27.0024C37.9764 26.8794 38.3847 26.7563 38.8339 26.5922C38.9564 27.0435 39.0789 27.4948 39.2014 27.9461ZM36.833 28.6845C36.3838 28.8076 35.9754 28.9717 35.5262 29.0948C35.4037 28.6435 35.322 28.1922 35.1995 27.7409C35.6487 27.6178 36.0571 27.4537 36.5063 27.3306C36.6288 27.7819 36.7513 28.2332 36.833 28.6845ZM34.5462 29.423C34.097 29.5461 33.6886 29.7102 33.2394 29.8333C33.1169 29.382 33.0352 28.9307 32.9127 28.5204C33.3619 28.3563 33.7703 28.2332 34.2195 28.0691C34.3012 28.5204 34.4237 28.9717 34.5462 29.423ZM34.7912 30.4487C34.9137 30.9 34.9954 31.3513 35.1179 31.8026C34.6687 31.9257 34.2195 32.0898 33.8111 32.2128C33.6886 31.7616 33.6069 31.3103 33.4844 30.9C33.8928 30.7359 34.342 30.6128 34.7912 30.4487ZM35.4037 32.8283C35.5262 33.2795 35.6487 33.7308 35.7712 34.1411C35.322 34.2642 34.8729 34.3873 34.4237 34.5514C34.3012 34.1001 34.1786 33.6898 34.097 33.2385C34.5053 33.1154 34.9545 32.9513 35.4037 32.8283ZM36.0163 35.2078C36.1388 35.6591 36.2613 36.1104 36.3838 36.5207C35.9346 36.6437 35.4854 36.7668 35.0362 36.8899C34.9137 36.4386 34.7912 36.0283 34.6687 35.577C35.1179 35.454 35.5671 35.3309 36.0163 35.2078ZM36.6696 37.5463C36.7921 37.9976 36.9146 38.4079 37.0371 38.8592C36.588 38.9823 36.1388 39.1054 35.6896 39.2284C35.5671 38.7771 35.4446 38.3669 35.322 37.9156C35.7712 37.7925 36.2204 37.6694 36.6696 37.5463ZM37.3638 39.8849C37.4863 40.3362 37.6088 40.7464 37.7722 41.1977C37.323 41.3208 36.8738 41.4439 36.4246 41.567C36.3021 41.1157 36.1796 40.7054 36.0163 40.2541C36.4654 40.131 36.9146 40.008 37.3638 39.8849ZM38.058 42.2234C38.1805 42.6747 38.3439 43.085 38.4664 43.5363C38.0172 43.6593 37.568 43.7414 37.1188 43.8645C36.9963 43.4132 36.833 43.0029 36.7105 42.5516C37.1597 42.4696 37.6088 42.3465 38.058 42.2234ZM38.7931 44.5619C38.9156 45.0132 39.0789 45.4235 39.2014 45.8748C38.7522 45.9979 38.3031 46.0799 37.8947 46.203C37.7314 45.7517 37.6088 45.3414 37.4455 44.8902C37.8947 44.8081 38.3439 44.685 38.7931 44.5619ZM39.814 44.3158C40.2632 44.1927 40.7124 44.1106 41.1616 43.9876C41.2841 44.4389 41.4474 44.8902 41.5699 45.3004C41.1207 45.4235 40.6715 45.5056 40.2632 45.6286C40.0998 45.2184 39.9773 44.7671 39.814 44.3158ZM42.1824 43.7004C42.6316 43.5773 43.0808 43.4542 43.4892 43.3311C43.6117 43.7824 43.7342 44.2337 43.8975 44.685C43.4484 44.8081 43.04 44.9312 42.5908 45.0132C42.4683 44.603 42.3458 44.1517 42.1824 43.7004ZM44.5509 43.085C45.0001 42.9619 45.4493 42.8388 45.8577 42.7157C45.9802 43.167 46.1027 43.6183 46.2252 44.0696C45.776 44.1927 45.3676 44.3158 44.9184 44.4389C44.7959 43.9876 44.6734 43.5363 44.5509 43.085ZM46.8786 42.4285C47.3277 42.3055 47.7361 42.1824 48.1853 42.0593C48.3078 42.5106 48.4303 42.9619 48.5528 43.4132C48.1036 43.5363 47.6953 43.6593 47.2461 43.7824C47.1236 43.3311 47.0011 42.8798 46.8786 42.4285ZM49.247 41.7311C49.6962 41.608 50.1046 41.4849 50.5538 41.3208C50.6763 41.7721 50.7988 42.2234 50.9213 42.6747C50.4721 42.7978 50.0637 42.9209 49.6145 43.085C49.4512 42.6337 49.3695 42.1824 49.247 41.7311ZM51.5747 41.0336C52.0239 40.9105 52.4322 40.7464 52.8814 40.6234C53.0039 41.0747 53.0856 41.5259 53.2081 41.9772C52.7589 42.1003 52.3505 42.2644 51.9013 42.3875C51.7788 41.9362 51.6972 41.4849 51.5747 41.0336ZM53.9023 40.2951C54.3515 40.1721 54.7598 40.008 55.209 39.8849C55.3315 40.3362 55.4132 40.7875 55.5357 41.1977C55.0865 41.3618 54.6782 41.4849 54.229 41.649C54.1065 41.1977 53.984 40.7464 53.9023 40.2951ZM56.1891 39.5156C56.6383 39.3515 57.0466 39.2284 57.4958 39.0643C57.5775 39.5156 57.7 39.9259 57.7817 40.3772C57.3733 40.5413 56.9241 40.6644 56.5158 40.8285C56.3933 40.4182 56.3116 39.9669 56.1891 39.5156ZM55.9441 38.49C55.8216 38.0387 55.7399 37.6284 55.6174 37.1771C56.0666 37.054 56.5158 36.8899 56.9241 36.7668C57.0466 37.2181 57.1283 37.6284 57.2508 38.0797C56.8425 38.2028 56.3933 38.3669 55.9441 38.49ZM55.3724 36.1514C55.2499 35.7001 55.1682 35.2899 55.0457 34.8386C55.4949 34.7155 55.9441 34.5514 56.3933 34.4283C56.5158 34.8796 56.5974 35.2899 56.72 35.7412C56.2708 35.8642 55.8216 36.0283 55.3724 36.1514ZM54.7598 33.8129C54.6373 33.3616 54.5148 32.9513 54.3923 32.5C54.8415 32.377 55.2907 32.2539 55.7399 32.1308C55.8624 32.5821 55.9849 32.9924 56.1074 33.4437C55.6582 33.5667 55.209 33.6898 54.7598 33.8129ZM54.1473 31.4744C54.0248 31.0231 53.9023 30.6128 53.7798 30.1615C54.229 30.0384 54.6782 29.9153 55.1274 29.7923C55.2499 30.2025 55.3724 30.6538 55.4949 31.0641C55.0457 31.2282 54.5965 31.3513 54.1473 31.4744ZM53.4531 29.1769C53.3306 28.7256 53.2081 28.3153 53.0447 27.864C53.4939 27.7409 53.9431 27.6178 54.3923 27.5358C54.5148 27.9461 54.6782 28.3973 54.8007 28.8076C54.3515 28.9307 53.9023 29.0538 53.4531 29.1769ZM52.7589 26.8383C52.6364 26.387 52.473 25.9768 52.3505 25.5255C52.7997 25.4024 53.2489 25.3203 53.6981 25.1973C53.8206 25.6075 53.984 26.0588 54.1065 26.4691C53.6164 26.6332 53.2081 26.7563 52.7589 26.8383ZM51.983 24.5408C51.8197 24.1306 51.6972 23.6793 51.5338 23.269C51.983 23.1869 52.4322 23.0639 52.8814 22.9818C53.0447 23.3921 53.1673 23.8434 53.3306 24.2536C52.8814 24.3357 52.4322 24.4588 51.983 24.5408ZM51.2071 22.2843C51.0438 21.8741 50.9213 21.4228 50.7579 21.0125C51.2071 20.9305 51.6155 20.8484 52.0647 20.7253C52.228 21.1356 52.3914 21.5869 52.5139 21.9972C52.1055 22.0792 51.6563 22.1613 51.2071 22.2843ZM50.1862 22.4895C49.7371 22.5715 49.2879 22.6946 48.8795 22.7767C48.7162 22.3254 48.5937 21.9151 48.4303 21.4638C48.8795 21.3818 49.2879 21.2587 49.7371 21.1766C49.9004 21.6279 50.0229 22.0792 50.1862 22.4895ZM47.8178 23.0228C47.3686 23.1459 46.9602 23.228 46.511 23.351C46.3885 22.8997 46.2252 22.4484 46.1027 22.0382C46.5519 21.9151 46.9602 21.833 47.4094 21.71C47.5319 22.1613 47.6953 22.6126 47.8178 23.0228ZM45.4901 23.6382C45.0409 23.7613 44.6326 23.8434 44.1834 23.9664C44.0609 23.5151 43.8975 23.0639 43.775 22.6126C44.2242 22.4895 44.6326 22.4074 45.0818 22.2843C45.2043 22.7356 45.3676 23.1869 45.4901 23.6382ZM43.1625 24.2126C42.7133 24.3357 42.305 24.4588 41.8558 24.5818C41.7333 24.1306 41.6107 23.6793 41.4882 23.228C41.9374 23.1049 42.3458 22.9818 42.795 22.8587C42.9175 23.351 43.04 23.8023 43.1625 24.2126ZM40.8349 24.869C40.3857 24.9921 39.9773 25.1152 39.5281 25.2383C39.4056 24.787 39.2831 24.3357 39.1606 23.8844C39.569 23.7613 40.0182 23.6382 40.4265 23.5151C40.5899 23.9664 40.7124 24.4177 40.8349 24.869ZM38.5481 25.5665C38.0989 25.6896 37.6905 25.8127 37.2413 25.9768C37.1188 25.5255 36.9963 25.0742 36.9146 24.6229C37.323 24.4998 37.7722 24.3357 38.1805 24.2126C38.3031 24.6639 38.4256 25.1152 38.5481 25.5665ZM36.2613 26.2639C35.8121 26.387 35.4037 26.5511 34.9545 26.6742C34.832 26.2229 34.7503 25.7716 34.6278 25.3203C35.0362 25.1973 35.4854 25.0331 35.8937 24.9101C36.0163 25.3614 36.1388 25.8127 36.2613 26.2639ZM33.9745 27.0435C33.5661 27.2076 33.1169 27.3306 32.7086 27.4948C32.6269 27.0435 32.5044 26.5922 32.4227 26.1409C32.8311 25.9768 33.2803 25.8537 33.6886 25.6896C33.7703 26.1409 33.852 26.5922 33.9745 27.0435ZM31.6877 27.823C31.2793 27.9871 30.8301 28.1102 30.4218 28.2743C30.3401 27.823 30.2584 27.4127 30.1359 26.9614C30.5443 26.7973 30.9935 26.6332 31.4018 26.5101C31.4835 26.9204 31.606 27.3717 31.6877 27.823ZM31.8918 28.8486C31.9735 29.2999 32.096 29.7512 32.1777 30.1615C31.7285 30.3256 31.3201 30.4487 30.871 30.6128C30.7893 30.1615 30.6668 29.7512 30.5851 29.2999C31.0343 29.1358 31.4835 29.0127 31.8918 28.8486ZM32.4635 31.1872C32.5861 31.6385 32.6677 32.0487 32.7902 32.5C32.341 32.6231 31.8918 32.7872 31.4835 32.9103C31.361 32.459 31.2793 32.0487 31.1568 31.5974C31.5652 31.5154 32.0144 31.3513 32.4635 31.1872ZM33.0352 33.5667C33.1578 34.018 33.2394 34.4283 33.3619 34.8796C32.9127 35.0027 32.4635 35.1668 32.0144 35.2899C31.8918 34.8386 31.8102 34.4283 31.6877 33.977C32.1369 33.8129 32.5861 33.6898 33.0352 33.5667ZM33.6478 35.9053C33.7703 36.3566 33.8928 36.7668 34.0153 37.2181C33.5661 37.3412 33.1169 37.4643 32.6677 37.5874C32.5452 37.1361 32.4227 36.7258 32.3002 36.2745C32.7494 36.1514 33.1986 36.0283 33.6478 35.9053ZM34.3012 38.2028C34.4237 38.6541 34.5462 39.0643 34.6687 39.5156C34.2195 39.6387 33.7703 39.7618 33.3211 39.8849C33.1986 39.4746 33.0761 39.0233 32.9536 38.613C33.4028 38.49 33.852 38.3669 34.3012 38.2028ZM34.9545 40.5413C35.077 40.9926 35.1995 41.4029 35.3629 41.8542C34.9137 41.9772 34.4645 42.1003 34.0153 42.1824C33.8928 41.7721 33.7295 41.3208 33.6069 40.9105C34.0561 40.7875 34.5053 40.6644 34.9545 40.5413ZM35.6896 42.8388C35.8121 43.2901 35.9754 43.7004 36.0979 44.1517C35.6487 44.2747 35.1995 44.3568 34.7503 44.4799C34.6278 44.0696 34.4645 43.6183 34.342 43.208C34.7912 43.085 35.2404 42.9619 35.6896 42.8388ZM36.4246 45.1363C36.588 45.5466 36.7105 45.9979 36.8738 46.4081C36.4246 46.4902 35.9754 46.6133 35.5262 46.6953C35.3629 46.2851 35.2404 45.8338 35.077 45.4235C35.5262 45.3414 35.9754 45.2594 36.4246 45.1363ZM37.2005 47.4338C37.3638 47.8441 37.4863 48.2954 37.6497 48.7057C37.2005 48.7877 36.7921 48.8698 36.3429 48.9928C36.1796 48.5826 36.0163 48.1313 35.8937 47.721C36.3021 47.639 36.7513 47.5159 37.2005 47.4338ZM38.2214 47.1877C38.6706 47.1056 39.1198 46.9825 39.5281 46.9005C39.6915 47.3518 39.814 47.762 39.9773 48.2133C39.5281 48.2954 39.1198 48.4185 38.6706 48.5005C38.5481 48.0492 38.3847 47.639 38.2214 47.1877ZM40.5899 46.6543C41.039 46.5312 41.4474 46.4492 41.8966 46.3261C42.0191 46.7774 42.1824 47.2287 42.305 47.639C41.8558 47.762 41.4474 47.8441 40.9982 47.9672C40.8757 47.5569 40.7124 47.1056 40.5899 46.6543ZM42.9175 46.0799C43.3667 45.9568 43.775 45.8748 44.2242 45.7517C44.3467 46.203 44.5101 46.6543 44.6326 47.1056C44.1834 47.2287 43.775 47.3107 43.3258 47.4338C43.2033 46.9825 43.04 46.5312 42.9175 46.0799ZM45.2451 45.4645C45.6943 45.3414 46.1027 45.2184 46.5519 45.0953C46.6744 45.5466 46.7969 45.9979 46.9194 46.4492C46.4702 46.5723 46.0618 46.6953 45.6126 46.8184C45.4901 46.3671 45.3676 45.9158 45.2451 45.4645ZM47.5728 44.8081C48.0219 44.685 48.4303 44.5619 48.8795 44.4389C49.002 44.8902 49.1245 45.3414 49.247 45.7927C48.8387 45.9158 48.3895 46.0389 47.9811 46.162C47.8178 45.7107 47.6953 45.2594 47.5728 44.8081ZM49.8596 44.1517C50.3088 44.0286 50.7171 43.9055 51.1663 43.7414C51.2888 44.1927 51.4113 44.644 51.493 45.0953C51.0846 45.2184 50.6354 45.3825 50.2271 45.5056C50.1046 45.0543 49.9821 44.603 49.8596 44.1517ZM52.1464 43.4132C52.5956 43.2901 53.0039 43.126 53.4531 43.0029C53.5756 43.4542 53.6573 43.9055 53.7798 44.3568C53.3714 44.4799 52.9222 44.644 52.5139 44.7671C52.3914 44.3158 52.2689 43.8645 52.1464 43.4132ZM54.4332 42.6747C54.8415 42.5106 55.2907 42.3875 55.6991 42.2234C55.7807 42.6747 55.9032 43.126 55.9849 43.5773C55.5766 43.7414 55.1274 43.8645 54.719 44.0286C54.6782 43.5773 54.5557 43.126 54.4332 42.6747ZM56.72 41.8952C57.1283 41.7311 57.5775 41.608 57.9859 41.4439C58.0675 41.8952 58.1492 42.3055 58.2717 42.7568C57.8634 42.9209 57.4142 43.085 57.0058 43.208C56.9241 42.7978 56.8425 42.3465 56.72 41.8952ZM59.0068 41.0747C59.4151 40.9105 59.8643 40.7464 60.2727 40.5823C60.3543 41.0336 60.436 41.4439 60.5177 41.8952C60.1093 42.0593 59.701 42.2234 59.2518 42.3875C59.1701 41.9362 59.0884 41.5259 59.0068 41.0747ZM58.8026 40.049C58.7209 39.5977 58.6392 39.1874 58.5167 38.7361C58.9659 38.572 59.3743 38.4489 59.8235 38.2848C59.9051 38.7361 59.9868 39.1464 60.0685 39.5977C59.6601 39.7208 59.2109 39.8849 58.8026 40.049ZM58.2717 37.7104C58.19 37.2592 58.0675 36.8489 57.9859 36.3976C58.4351 36.2335 58.8434 36.1104 59.2926 35.9463C59.3743 36.3566 59.4968 36.8079 59.5785 37.2181C59.1701 37.4233 58.7209 37.5874 58.2717 37.7104ZM57.7408 35.4129C57.6183 34.9616 57.5367 34.5514 57.4142 34.1001C57.8634 33.977 58.3125 33.8129 58.7617 33.6898C58.8842 34.1001 58.9659 34.5514 59.0884 34.9616C58.6392 35.1258 58.19 35.2488 57.7408 35.4129ZM57.1692 33.1154C57.0466 32.7052 56.9241 32.2539 56.8016 31.8436C57.2508 31.7205 57.7 31.5974 58.1492 31.4744C58.2717 31.8846 58.3942 32.3359 58.4759 32.7462C58.0267 32.8282 57.5775 32.9513 57.1692 33.1154ZM56.5158 30.8179C56.3933 30.4077 56.2708 29.9564 56.1483 29.5461C56.5975 29.423 57.0466 29.2999 57.4958 29.1769C57.6183 29.5871 57.7408 30.0384 57.8634 30.4487C57.4142 30.5718 56.965 30.6949 56.5158 30.8179ZM55.8624 28.5204C55.7399 28.1102 55.6174 27.6589 55.4541 27.2486C55.9032 27.1255 56.3524 27.0435 56.8016 26.9204C56.9241 27.3306 57.0875 27.7409 57.21 28.1922C56.7608 28.3153 56.3116 28.3973 55.8624 28.5204ZM55.1274 26.2639C55.0049 25.8537 54.8415 25.4024 54.719 24.9921C55.1682 24.869 55.6174 24.787 56.0666 24.7049C56.2299 25.1152 56.3524 25.5255 56.4749 25.9768C56.0257 26.0588 55.5766 26.1409 55.1274 26.2639ZM54.3923 24.0075C54.229 23.5972 54.1065 23.1459 53.9431 22.7356C54.3923 22.6536 54.8415 22.5305 55.2907 22.4484C55.454 22.8587 55.5766 23.269 55.7399 23.6793C55.2499 23.8023 54.8415 23.9254 54.3923 24.0075ZM53.5756 21.792C53.4123 21.3818 53.2489 20.9715 53.1264 20.5202C53.5756 20.4381 54.0248 20.3561 54.4332 20.274C54.5965 20.6843 54.7598 21.0946 54.9232 21.5048C54.474 21.5869 54.0248 21.6689 53.5756 21.792ZM52.7181 19.5355C52.5547 19.1253 52.3914 18.715 52.228 18.3047C52.6772 18.2227 53.0856 18.1406 53.5348 18.0996C53.6981 18.5099 53.8615 18.9201 54.0248 19.3304C53.6164 19.3714 53.1673 19.4535 52.7181 19.5355ZM51.6972 19.7407C51.248 19.8227 50.8396 19.9048 50.3904 19.9868C50.2271 19.5766 50.0637 19.1253 49.9004 18.715C50.3496 18.6329 50.7579 18.5509 51.2071 18.4688C51.3705 18.8791 51.5338 19.3304 51.6972 19.7407ZM49.3695 20.192C48.9203 20.274 48.512 20.3561 48.0628 20.4792C47.8994 20.0279 47.7769 19.6176 47.6136 19.1663C48.0628 19.0842 48.4711 19.0022 48.9203 18.9201C49.0837 19.3304 49.2062 19.7817 49.3695 20.192ZM47.0419 20.7253C46.5927 20.8074 46.1843 20.9305 45.7351 21.0125C45.5718 20.5612 45.4493 20.1509 45.286 19.6996C45.6943 19.6176 46.1435 19.4945 46.5519 19.4125C46.756 19.8227 46.9194 20.274 47.0419 20.7253ZM44.7551 21.2587C44.3059 21.3818 43.8975 21.4638 43.4484 21.5869C43.3258 21.1356 43.1625 20.6843 43.04 20.233C43.4484 20.1099 43.8975 20.0279 44.3059 19.9048C44.4692 20.3561 44.6326 20.8074 44.7551 21.2587ZM42.4683 21.833C42.0599 21.9561 41.6107 22.0792 41.2024 22.2023C41.0799 21.751 40.9574 21.2997 40.8349 20.8484C41.2432 20.7253 41.6924 20.6022 42.1008 20.5202C42.1824 20.9715 42.3458 21.3818 42.4683 21.833ZM40.1815 22.4895C39.7731 22.6126 39.3239 22.7356 38.9156 22.8587C38.7931 22.4074 38.6706 21.9561 38.5481 21.5048C38.9564 21.3818 39.4056 21.2587 39.814 21.1356C39.9365 21.5869 40.059 22.0382 40.1815 22.4895ZM37.9355 23.1459C37.5272 23.269 37.078 23.3921 36.6696 23.5562C36.5471 23.1049 36.4654 22.6536 36.3429 22.2023C36.7513 22.0792 37.1597 21.9151 37.6088 21.792C37.6905 22.2433 37.813 22.6946 37.9355 23.1459ZM35.6487 23.8844C35.2404 24.0075 34.7912 24.1716 34.3828 24.2947C34.2603 23.8434 34.1786 23.3921 34.097 22.9408C34.5053 22.7767 34.9137 22.6536 35.3629 22.5305C35.4446 22.9818 35.5671 23.4331 35.6487 23.8844ZM33.4028 24.6229C32.9944 24.787 32.5452 24.9101 32.1369 25.0742C32.0552 24.6229 31.9327 24.1716 31.851 23.7203C32.2594 23.5562 32.6677 23.4331 33.0761 23.269C33.2394 23.7203 33.3211 24.1716 33.4028 24.6229ZM31.1976 25.4434C30.7893 25.6075 30.3809 25.7716 29.9317 25.8947C29.8501 25.4434 29.7684 24.9921 29.6867 24.5818C30.0951 24.4177 30.5034 24.2536 30.9118 24.0895C31.0343 24.5408 31.116 24.9921 31.1976 25.4434ZM28.9925 26.305C28.5842 26.4691 28.1758 26.6332 27.7674 26.7973C27.6858 26.346 27.6041 25.9357 27.5633 25.4844C27.9716 25.3203 28.38 25.1562 28.7883 24.9921C28.8292 25.4024 28.9108 25.8537 28.9925 26.305ZM29.1559 27.3306C29.2375 27.7819 29.3192 28.1922 29.4009 28.6435C28.9925 28.8076 28.5433 28.9717 28.135 29.1358C28.0533 28.6845 27.9716 28.2743 27.8899 27.823C28.3391 27.6589 28.7475 27.4948 29.1559 27.3306ZM29.605 29.6692C29.6867 30.1205 29.7684 30.5307 29.8909 30.982C29.4417 31.1461 29.0333 31.2692 28.5842 31.4333C28.5025 30.982 28.4208 30.5718 28.3391 30.1205C28.7883 29.9564 29.1967 29.7923 29.605 29.6692ZM30.1359 31.9667C30.2176 32.418 30.3401 32.8283 30.4218 33.2795C29.9726 33.4437 29.5642 33.5667 29.115 33.7308C29.0333 33.3206 28.9108 32.8693 28.8292 32.459C29.2375 32.2949 29.6867 32.1308 30.1359 31.9667ZM30.6668 34.3052C30.7893 34.7565 30.871 35.1668 30.9935 35.6181C30.5443 35.7412 30.0951 35.9053 29.6459 36.0283C29.5234 35.6181 29.4417 35.1668 29.3192 34.7565C29.8092 34.5924 30.2176 34.4283 30.6668 34.3052ZM31.2793 36.6027C31.4018 37.013 31.5243 37.4643 31.6468 37.8746C31.1976 37.9976 30.7484 38.1207 30.2993 38.2438C30.1767 37.8335 30.0542 37.3822 29.9726 36.972C30.3809 36.8489 30.8301 36.7258 31.2793 36.6027ZM31.8918 38.9002C32.0144 39.3105 32.1369 39.7618 32.2594 40.1721C31.8102 40.2951 31.361 40.4182 30.9118 40.5413C30.7893 40.131 30.6668 39.6797 30.5443 39.2695C30.9935 39.1464 31.4427 39.0233 31.8918 38.9002ZM32.5452 41.1567C32.6677 41.567 32.7902 42.0183 32.9536 42.4285C32.5044 42.5516 32.0552 42.6337 31.606 42.7568C31.4835 42.3465 31.3201 41.9362 31.1976 41.4849C31.6877 41.4029 32.1369 41.2798 32.5452 41.1567ZM33.2803 43.4542C33.4028 43.8645 33.5661 44.3158 33.6886 44.726C33.2394 44.8491 32.7902 44.9312 32.341 45.0132C32.1777 44.603 32.0552 44.1927 31.9327 43.7414C32.3819 43.6593 32.8311 43.5363 33.2803 43.4542ZM34.0561 45.6697C34.2195 46.0799 34.342 46.5312 34.5053 46.9415C34.0561 47.0235 33.6069 47.1466 33.1578 47.2287C32.9944 46.8184 32.8719 46.4081 32.7086 45.9979C33.1578 45.8748 33.6069 45.7927 34.0561 45.6697ZM34.832 47.9261C34.9954 48.3364 35.1587 48.7467 35.2812 49.198C34.832 49.28 34.3828 49.3621 33.9745 49.4441C33.8111 49.0339 33.6478 48.6236 33.4844 48.2133C33.9336 48.0902 34.3828 48.0082 34.832 47.9261ZM35.6896 50.1416C35.8529 50.5519 36.0163 50.9621 36.1796 51.3724C35.7304 51.4545 35.322 51.5365 34.8729 51.5775C34.7095 51.1673 34.5462 50.757 34.3828 50.3467C34.7912 50.3057 35.2404 50.2236 35.6896 50.1416ZM36.7105 49.9775C37.1597 49.8954 37.568 49.8134 38.0172 49.7313C38.1805 50.1416 38.3439 50.5929 38.5072 51.0032C38.058 51.0852 37.6497 51.1673 37.2005 51.2493C37.0371 50.798 36.8738 50.3878 36.7105 49.9775ZM39.0381 49.4852C39.4873 49.4031 39.8956 49.3211 40.3448 49.198C40.5082 49.6493 40.6307 50.0595 40.794 50.5108C40.3448 50.5929 39.9365 50.6749 39.4873 50.757C39.3239 50.3467 39.2014 49.9365 39.0381 49.4852ZM41.3657 48.9928C41.8149 48.9108 42.2233 48.7877 42.6725 48.7057C42.8358 49.1569 42.9583 49.5672 43.1217 50.0185C42.7133 50.1006 42.2641 50.2236 41.8558 50.3057C41.6516 49.8544 41.4882 49.4441 41.3657 48.9928ZM43.6525 48.4595C44.1017 48.3364 44.5101 48.2544 44.9593 48.1313C45.0818 48.5826 45.2451 49.0339 45.3676 49.4852C44.9593 49.6082 44.5101 49.6903 44.1017 49.8134C43.9384 49.3211 43.8159 48.9108 43.6525 48.4595ZM45.9393 47.8441C46.3477 47.721 46.7969 47.5979 47.2052 47.4748C47.3277 47.9261 47.4503 48.3774 47.5728 48.8287C47.1644 48.9518 46.7152 49.0749 46.3069 49.1569C46.2252 48.7467 46.0618 48.2954 45.9393 47.8441ZM48.2261 47.2287C48.6345 47.1056 49.0837 46.9825 49.492 46.8594C49.6145 47.3107 49.737 47.762 49.8596 48.2133C49.4512 48.3364 49.002 48.4595 48.5937 48.5826C48.4711 48.1313 48.3486 47.68 48.2261 47.2287ZM50.5129 46.5312C50.9213 46.4081 51.3705 46.2851 51.7788 46.121C51.9013 46.5723 51.983 47.0235 52.1055 47.4748C51.6972 47.5979 51.2888 47.762 50.8396 47.8851C50.7171 47.4338 50.5946 46.9825 50.5129 46.5312ZM52.7589 45.8338C53.1672 45.7107 53.6164 45.5466 54.0248 45.4235C54.1473 45.8748 54.229 46.3261 54.3106 46.7774C53.9023 46.9415 53.4939 47.0646 53.0447 47.1877C52.9631 46.7364 52.8406 46.2851 52.7589 45.8338ZM55.0049 45.0543C55.4132 44.8902 55.8624 44.7671 56.2708 44.603C56.3524 45.0543 56.4749 45.5056 56.5566 45.9569C56.1483 46.121 55.7399 46.244 55.3315 46.4081C55.209 45.9569 55.0865 45.5056 55.0049 45.0543ZM57.21 44.2747C57.6183 44.1106 58.0267 43.9465 58.4759 43.8235C58.5576 44.2747 58.6392 44.726 58.7209 45.1363C58.3125 45.3004 57.9042 45.4645 57.4958 45.6286C57.4142 45.1363 57.3325 44.726 57.21 44.2747ZM59.456 43.4132C59.8643 43.2491 60.2727 43.085 60.681 42.9209C60.7627 43.3722 60.8444 43.7824 60.8852 44.2337C60.4768 44.3978 60.0685 44.5619 59.6601 44.726C59.5785 44.3158 59.5376 43.8645 59.456 43.4132ZM61.6611 42.5106C62.0694 42.3465 62.4778 42.1824 62.8862 41.9772C62.9678 42.3875 63.0087 42.8388 63.0495 43.2491C62.6411 43.4132 62.2328 43.6183 61.8244 43.7824C61.7836 43.4132 61.7019 42.9619 61.6611 42.5106ZM61.4977 41.5259C61.4161 41.0747 61.3344 40.6644 61.2527 40.2131C61.6611 40.049 62.1103 39.8849 62.5186 39.7208C62.6003 40.131 62.6411 40.5823 62.7228 40.9926C62.3144 41.1567 61.9061 41.3618 61.4977 41.5259ZM61.0485 39.2284C60.9669 38.8182 60.8852 38.3669 60.8035 37.9566C61.2527 37.7925 61.6611 37.6284 62.1103 37.5053C62.1919 37.9156 62.2736 38.3669 62.3553 38.7771C61.9061 38.9002 61.4977 39.0643 61.0485 39.2284ZM60.5993 36.9309C60.5177 36.5207 60.3952 36.0694 60.3135 35.6591C60.7627 35.495 61.171 35.3719 61.6202 35.2078C61.7019 35.6181 61.8244 36.0694 61.9061 36.4796C61.4569 36.6027 61.0485 36.7668 60.5993 36.9309ZM60.1093 34.6334C60.0276 34.2232 59.9051 33.7719 59.7826 33.3616C60.2318 33.2385 60.681 33.0744 61.1302 32.9513C61.2527 33.3616 61.3344 33.7719 61.4161 34.2232C60.9669 34.3462 60.5177 34.5103 60.1093 34.6334ZM59.5376 32.377C59.4151 31.9667 59.3334 31.5154 59.2109 31.1051C59.6601 30.982 60.1093 30.859 60.5585 30.7359C60.681 31.1461 60.8035 31.5564 60.8852 31.9667C60.3952 32.1308 59.9868 32.2539 59.5376 32.377ZM58.9251 30.1615C58.8026 29.7512 58.6801 29.341 58.5576 28.8897C59.0068 28.7666 59.4559 28.6435 59.9051 28.5204C60.0276 28.9307 60.1502 29.341 60.2727 29.7512C59.8235 29.8743 59.3743 30.0384 58.9251 30.1615ZM58.2309 27.905C58.1084 27.4948 57.9859 27.0845 57.8225 26.6742C58.2717 26.5511 58.7209 26.4691 59.1701 26.346C59.2926 26.7563 59.4559 27.1665 59.5785 27.5768C59.1293 27.6999 58.6801 27.7819 58.2309 27.905ZM57.5367 25.6896C57.4142 25.2793 57.2508 24.869 57.1283 24.4588C57.5775 24.3767 58.0267 24.2536 58.4759 24.1716C58.6392 24.5818 58.7617 24.9921 58.8842 25.4024C58.4351 25.4844 57.9859 25.6075 57.5367 25.6896ZM56.7608 23.5151C56.5975 23.1049 56.4749 22.6946 56.3116 22.2843C56.7608 22.2023 57.21 22.1202 57.6592 22.0382C57.8225 22.4484 57.9859 22.8587 58.1084 23.269C57.6592 23.31 57.21 23.3921 56.7608 23.5151ZM55.9441 21.2997C55.7807 20.8894 55.6174 20.4792 55.4541 20.0689C55.9032 19.9868 56.3524 19.9048 56.8016 19.8638C56.965 20.274 57.1283 20.6843 57.2917 21.0535C56.8425 21.1356 56.3933 21.2176 55.9441 21.2997ZM55.0865 19.1253C54.9232 18.715 54.7598 18.3047 54.5965 17.8945C55.0457 17.8124 55.454 17.7714 55.9032 17.6893C56.0666 18.0996 56.2708 18.4688 56.4341 18.8791C55.9441 19.0022 55.5357 19.0842 55.0865 19.1253ZM54.1473 16.9919C53.984 16.5816 53.7798 16.1713 53.6164 15.8021C54.0656 15.7611 54.474 15.72 54.9232 15.638C55.1274 16.0483 55.2907 16.4175 55.4541 16.8278C55.0457 16.8688 54.5965 16.9098 54.1473 16.9919ZM53.1264 17.115C52.6772 17.197 52.2689 17.238 51.8197 17.3201C51.6563 16.9098 51.493 16.4996 51.2888 16.0893C51.6972 16.0072 52.1464 15.9662 52.5547 15.9252C52.7997 16.3354 52.9631 16.7047 53.1264 17.115ZM50.8396 17.4842C50.3904 17.5663 49.9821 17.6483 49.5329 17.7304C49.3695 17.3201 49.2062 16.8688 49.0428 16.4585C49.4512 16.3765 49.9004 16.3354 50.3088 16.2534C50.5129 16.6637 50.6763 17.0739 50.8396 17.4842ZM48.5528 17.8945C48.1445 17.9765 47.6953 18.0586 47.2869 18.1406C47.1236 17.6893 46.9602 17.2791 46.8377 16.8278C47.2461 16.7457 47.6953 16.6637 48.1036 16.5816C48.2261 17.0739 48.3895 17.4842 48.5528 17.8945ZM46.266 18.3868C45.8577 18.4688 45.4085 18.5919 45.0001 18.674C44.8368 18.2227 44.7143 17.8124 44.5509 17.3611C44.9593 17.2791 45.4085 17.156 45.8168 17.0739C45.9802 17.5252 46.1027 17.9355 46.266 18.3868ZM44.0201 18.8791C43.6117 18.9612 43.1625 19.0842 42.7541 19.2073C42.6316 18.756 42.4683 18.3047 42.3458 17.8945C42.7541 17.7714 43.1625 17.6893 43.6117 17.6073C43.7342 18.0175 43.8567 18.4688 44.0201 18.8791ZM41.7741 19.4535C41.3657 19.5766 40.9165 19.6586 40.5082 19.7817C40.3857 19.3304 40.2632 18.8791 40.1407 18.4278C40.549 18.3047 40.9574 18.1817 41.3657 18.0996C41.4882 18.5509 41.6107 19.0022 41.7741 19.4535ZM39.5281 20.0689C39.1198 20.192 38.7114 20.3151 38.2622 20.4381C38.1397 19.9868 38.0172 19.5355 37.8947 19.0842C38.3031 18.9612 38.7114 18.8381 39.1198 18.715C39.2831 19.1663 39.4056 19.6176 39.5281 20.0689ZM37.2822 20.7663C36.8738 20.8894 36.4654 21.0125 36.0571 21.1766C35.9346 20.7253 35.8529 20.274 35.7304 19.8227C36.1388 19.6996 36.5471 19.5355 36.9555 19.4125C37.078 19.8638 37.2005 20.3151 37.2822 20.7663ZM35.077 21.4638C34.6687 21.5869 34.2603 21.751 33.852 21.8741C33.7703 21.4228 33.6478 20.9715 33.5661 20.5202C33.9745 20.3561 34.3828 20.233 34.7912 20.1099C34.8729 20.5612 34.9954 21.0125 35.077 21.4638ZM32.9127 22.2433C32.5044 22.4074 32.096 22.5305 31.6877 22.6946C31.606 22.2433 31.5243 21.792 31.4427 21.3407C31.851 21.1766 32.2594 21.0125 32.6677 20.8894C32.7086 21.3407 32.8311 21.792 32.9127 22.2433ZM30.7484 23.0639C30.3401 23.228 29.9317 23.3921 29.5234 23.5562C29.4417 23.1049 29.36 22.6536 29.3192 22.2023C29.7276 22.0382 30.0951 21.8741 30.5034 21.71C30.5851 22.1613 30.6668 22.6126 30.7484 23.0639ZM28.5842 23.9254C28.1758 24.0895 27.7674 24.2536 27.3591 24.4177C27.2774 23.9664 27.2366 23.5562 27.1549 23.1049C27.5633 22.9408 27.9308 22.7356 28.3391 22.5715C28.4208 23.0639 28.5025 23.4741 28.5842 23.9254ZM26.4199 24.869C26.0115 25.0331 25.6031 25.2383 25.2356 25.4024C25.1948 24.9511 25.154 24.5408 25.0723 24.0895C25.4806 23.8844 25.8482 23.7203 26.2565 23.5562C26.2974 23.9664 26.379 24.4177 26.4199 24.869ZM26.5832 25.8947C26.6649 26.346 26.7057 26.7563 26.7874 27.2076C26.379 27.3717 25.9707 27.5358 25.5623 27.7409C25.4806 27.3306 25.4398 26.8794 25.399 26.4691C25.7665 26.2229 26.1748 26.0588 26.5832 25.8947ZM26.9507 28.1922C27.0324 28.6435 27.1141 29.0538 27.1957 29.5051C26.7874 29.6692 26.3382 29.8333 25.9298 29.9974C25.8482 29.5871 25.8073 29.1358 25.7257 28.7256C26.0932 28.5204 26.5015 28.3563 26.9507 28.1922ZM27.3591 30.4897C27.4408 30.9 27.5224 31.3513 27.6041 31.7615C27.1549 31.9257 26.7465 32.0898 26.2974 32.2128C26.2157 31.8026 26.134 31.3513 26.0523 30.941C26.5015 30.8179 26.9099 30.6538 27.3591 30.4897ZM27.8083 32.7872C27.8899 33.1975 28.0125 33.6488 28.0941 34.0591C27.6449 34.2232 27.2366 34.3462 26.7874 34.5104C26.7057 34.1001 26.5832 33.6488 26.5015 33.2385C26.9507 33.0744 27.3591 32.9513 27.8083 32.7872ZM28.3391 35.0437C28.4208 35.454 28.5433 35.9053 28.6658 36.3155C28.2166 36.4386 27.7674 36.6027 27.3182 36.7258C27.1957 36.3155 27.1141 35.9053 27.0324 35.454C27.4408 35.3309 27.8899 35.2078 28.3391 35.0437ZM28.87 37.3002C28.9925 37.7104 29.0742 38.1617 29.1967 38.572C28.7475 38.6951 28.2983 38.8182 27.8491 38.9413C27.7266 38.531 27.6041 38.1207 27.5224 37.7104C28.0125 37.5874 28.4616 37.4643 28.87 37.3002ZM29.4825 39.5567C29.605 39.9669 29.7276 40.3772 29.8501 40.8285C29.4009 40.9516 28.9517 41.0746 28.5025 41.1977C28.38 40.7875 28.2575 40.3772 28.135 39.9669C28.625 39.8028 29.0742 39.6797 29.4825 39.5567ZM30.1767 41.7721C30.2993 42.1824 30.4218 42.5926 30.5851 43.0029C30.1359 43.126 29.6867 43.208 29.2375 43.3311C29.115 42.9209 28.9517 42.5106 28.8292 42.1003C29.2784 42.0183 29.7276 41.8952 30.1767 41.7721ZM30.871 43.9876C30.9935 44.3978 31.1568 44.8081 31.2793 45.2184C30.8301 45.3004 30.3809 45.4235 29.9317 45.5056C29.7684 45.0953 29.6459 44.685 29.5234 44.2747C29.9726 44.2337 30.4218 44.1106 30.871 43.9876ZM31.6468 46.203C31.8102 46.6133 31.9327 47.0235 32.096 47.4338C31.6468 47.5159 31.1976 47.5979 30.7484 47.68C30.5851 47.2697 30.4218 46.8594 30.2993 46.4492C30.7484 46.4081 31.1976 46.2851 31.6468 46.203ZM32.4635 48.3774C32.6269 48.7877 32.7902 49.198 32.9536 49.6082C32.5044 49.6903 32.0552 49.7724 31.606 49.8134C31.4427 49.4031 31.2793 49.0339 31.116 48.6236C31.5652 48.5415 32.0144 48.4595 32.4635 48.3774ZM33.3211 50.5519C33.4844 50.9621 33.6478 51.3724 33.8111 51.7827C33.3619 51.8647 32.9536 51.9057 32.5044 51.9878C32.341 51.5775 32.1369 51.2083 31.9735 50.798C32.4635 50.716 32.9127 50.6339 33.3211 50.5519ZM34.2603 52.7263C34.4237 53.1366 34.6278 53.5468 34.7912 53.9161C34.342 53.9571 33.9336 53.9981 33.4844 54.0802C33.2803 53.6699 33.1169 53.3007 32.9536 52.8904C33.4028 52.8494 33.8111 52.7673 34.2603 52.7263ZM35.2812 52.5622C35.7304 52.4801 36.1388 52.4391 36.588 52.357C36.7513 52.7673 36.9146 53.1776 37.1188 53.5878C36.7105 53.6699 36.2613 53.7109 35.8529 53.752C35.6079 53.3827 35.4446 52.9724 35.2812 52.5622ZM37.568 52.1929C38.0172 52.1109 38.4256 52.0288 38.8748 51.9468C39.0381 52.357 39.2014 52.8083 39.3648 53.2186C38.9564 53.3007 38.5072 53.3417 38.0989 53.4237C37.8947 53.0545 37.7314 52.6442 37.568 52.1929ZM39.8548 51.7827C40.2632 51.7006 40.7124 51.6186 41.1207 51.5365C41.2841 51.9878 41.4474 52.3981 41.5699 52.8494C41.1616 52.9314 40.7124 53.0135 40.304 53.0955C40.1815 52.6442 40.0182 52.234 39.8548 51.7827ZM42.1416 51.3314C42.55 51.2493 42.9992 51.1262 43.4075 51.0442C43.5709 51.4955 43.6934 51.9057 43.8567 52.357C43.4484 52.4391 42.9992 52.5622 42.5908 52.6442C42.4683 52.1929 42.305 51.7416 42.1416 51.3314ZM44.4284 50.798C44.8368 50.716 45.286 50.5929 45.6943 50.4698C45.8168 50.9211 45.9802 51.3724 46.1027 51.8237C45.6943 51.9468 45.286 52.0288 44.8368 52.1109C44.7143 51.7006 44.5509 51.2493 44.4284 50.798ZM46.6744 50.2236C47.0827 50.1006 47.5319 50.0185 47.9403 49.8954C48.0628 50.3467 48.1853 50.798 48.3078 51.2493C47.8994 51.3724 47.4911 51.4955 47.0827 51.5775C46.9194 51.1262 46.7969 50.6749 46.6744 50.2236ZM48.8795 49.6082C49.2879 49.4852 49.6962 49.3621 50.1454 49.239C50.2679 49.6903 50.3904 50.1416 50.5129 50.5929C50.1046 50.716 49.6962 50.8391 49.2879 50.9621C49.1245 50.5108 49.002 50.0595 48.8795 49.6082ZM51.1255 48.9518C51.5338 48.8287 51.9422 48.7057 52.3505 48.5415C52.473 48.9928 52.5547 49.4441 52.6772 49.8954C52.2689 50.0185 51.8605 50.1826 51.4521 50.3057C51.3296 49.8544 51.2071 49.4031 51.1255 48.9518ZM53.3306 48.2544C53.739 48.1313 54.1473 47.9672 54.5557 47.8441C54.6373 48.2954 54.7598 48.7467 54.8415 49.198C54.4332 49.3621 54.0248 49.4852 53.6164 49.6082C53.5348 49.1569 53.4123 48.7057 53.3306 48.2544ZM55.4949 47.4748C55.9032 47.3107 56.3116 47.1877 56.72 47.0235C56.8016 47.4748 56.8833 47.9261 56.965 48.3774C56.5566 48.5415 56.1483 48.7057 55.7807 48.8287C55.6991 48.3774 55.6174 47.9261 55.4949 47.4748ZM57.7 46.6543C58.1084 46.4902 58.5167 46.3261 58.9251 46.162C59.0068 46.6133 59.0884 47.0646 59.1293 47.5159C58.7209 47.68 58.3125 47.8441 57.945 48.0082C57.8634 47.5569 57.7817 47.1056 57.7 46.6543ZM59.8235 45.7927C60.2318 45.6286 60.6402 45.4645 61.0485 45.3004C61.1302 45.7517 61.171 46.162 61.2527 46.6133C60.8444 46.7774 60.4768 46.9825 60.0685 47.1466C59.9868 46.6543 59.9051 46.203 59.8235 45.7927ZM61.9878 44.8491C62.3961 44.685 62.8045 44.4799 63.172 44.3158C63.2128 44.7671 63.2537 45.1773 63.3353 45.6286C62.927 45.8338 62.5595 45.9979 62.1511 46.162C62.1103 45.7107 62.0286 45.3004 61.9878 44.8491ZM65.2138 42.3055C64.8054 42.5106 64.3971 42.6747 63.9887 42.8798C63.9479 42.4696 63.8662 42.0183 63.8254 41.608C64.2337 41.4439 64.6421 41.2388 65.0504 41.0747C65.1321 41.4849 65.1729 41.8952 65.2138 42.3055ZM64.9279 40.049C64.5196 40.2131 64.1112 40.4182 63.7029 40.5823C63.6212 40.1721 63.5804 39.7208 63.4987 39.3105C63.907 39.1464 64.3562 38.9823 64.7646 38.7771C64.8054 39.2284 64.8871 39.6387 64.9279 40.049ZM64.6012 37.8335C64.1929 37.9976 63.7437 38.1617 63.3353 38.3259C63.2537 37.9156 63.172 37.4643 63.0903 37.054C63.5395 36.8899 63.9479 36.7258 64.3562 36.5617C64.4787 37.013 64.5196 37.4233 64.6012 37.8335ZM64.1929 35.6181C63.7437 35.7822 63.3353 35.9463 62.8862 36.1104C62.8045 35.7001 62.7228 35.2899 62.6411 34.8386C63.0903 34.6745 63.4987 34.5514 63.9479 34.3873C64.0296 34.7975 64.1112 35.2078 64.1929 35.6181ZM63.7437 33.4437C63.2945 33.6078 62.8861 33.7308 62.437 33.8949C62.3553 33.4847 62.2328 33.0744 62.1511 32.6641C62.6003 32.5411 63.0495 32.377 63.4578 32.2539C63.5804 32.6231 63.662 33.0334 63.7437 33.4437ZM63.2128 31.2692C62.7636 31.3923 62.3144 31.5564 61.8653 31.6795C61.7427 31.2692 61.6611 30.859 61.5386 30.4487C61.9878 30.3256 62.437 30.2025 62.8862 30.0794C63.0087 30.4487 63.1312 30.859 63.2128 31.2692ZM62.6411 29.0948C62.1919 29.2179 61.7428 29.341 61.2936 29.464C61.1711 29.0538 61.0485 28.6435 60.926 28.2332C61.3752 28.1102 61.8244 27.9871 62.2736 27.864C62.3961 28.3153 62.5186 28.6845 62.6411 29.0948ZM61.9878 26.9614C61.5386 27.0845 61.0894 27.1665 60.6402 27.2896C60.5177 26.8794 60.3952 26.4691 60.2318 26.0588C60.681 25.9357 61.1302 25.8537 61.5794 25.7306C61.7427 26.1819 61.8653 26.5511 61.9878 26.9614ZM61.2936 24.828C60.8444 24.9101 60.3952 25.0331 59.946 25.1152C59.8235 24.7049 59.6601 24.2947 59.5376 23.9254C59.9868 23.8434 60.436 23.7203 60.8852 23.6382C61.0077 24.0485 61.1302 24.4588 61.2936 24.828ZM60.5177 22.7356C60.0685 22.8177 59.6193 22.8997 59.1701 22.9818C59.0068 22.5715 58.8843 22.2023 58.7209 21.792C59.1701 21.71 59.6193 21.6279 60.0685 21.5459C60.191 21.9561 60.3543 22.3664 60.5177 22.7356ZM59.6601 20.6433C59.2109 20.7253 58.7617 20.8074 58.3125 20.8484C58.1492 20.4381 57.9859 20.0689 57.8225 19.6586C58.2717 19.5766 58.7209 19.5355 59.1701 19.4535C59.3334 19.9048 59.4968 20.274 59.6601 20.6433ZM58.7617 18.5919C58.3125 18.6329 57.8634 18.715 57.4142 18.756C57.2508 18.3458 57.0466 17.9765 56.8833 17.5662C57.3325 17.5252 57.7817 17.4432 58.19 17.4021C58.3942 17.8124 58.5984 18.2227 58.7617 18.5919ZM57.7817 16.5406C57.3325 16.5816 56.9241 16.6226 56.4749 16.6637C56.3116 16.2944 56.1074 15.8841 55.9032 15.5149C56.3524 15.4739 56.7608 15.4329 57.21 15.3918C57.4142 15.8021 57.6183 16.1713 57.7817 16.5406ZM56.1483 13.3815C56.3524 13.7507 56.5566 14.12 56.7608 14.5303C56.3116 14.5713 55.9032 14.6123 55.4541 14.6123C55.2499 14.2431 55.0457 13.8328 54.8415 13.4636C55.2907 13.4225 55.7399 13.4225 56.1483 13.3815ZM53.9023 13.5456C54.1065 13.9559 54.3106 14.3251 54.474 14.7354C54.0248 14.7764 53.6164 14.8174 53.2081 14.8585C53.0039 14.4482 52.8406 14.079 52.6364 13.6687C53.0447 13.6277 53.4531 13.5866 53.9023 13.5456ZM51.6155 13.7508C51.8197 14.161 51.983 14.5713 52.1872 14.9816C51.7788 15.0226 51.3296 15.1046 50.9213 15.1457C50.7579 14.7354 50.5538 14.3251 50.3904 13.9149C50.7988 13.8328 51.2071 13.7918 51.6155 13.7508ZM49.4104 14.0379C49.5737 14.4482 49.7779 14.8585 49.9412 15.2687C49.5329 15.3508 49.0837 15.3918 48.6753 15.4739C48.512 15.0636 48.3486 14.6123 48.1445 14.202C48.5528 14.12 48.9612 14.079 49.4104 14.0379ZM47.1644 14.3662C47.3277 14.7764 47.4911 15.2277 47.6544 15.638C47.2461 15.72 46.7969 15.8021 46.3885 15.8841C46.2252 15.4329 46.0618 15.0226 45.8985 14.6123C46.3477 14.4892 46.756 14.4072 47.1644 14.3662ZM44.9593 14.7354C45.1226 15.1867 45.286 15.597 45.4493 16.0483C45.0409 16.1303 44.6326 16.2124 44.1834 16.2944C44.0201 15.8431 43.8975 15.4329 43.7342 14.9816C44.1426 14.8995 44.5509 14.8174 44.9593 14.7354ZM42.795 15.2277C42.9583 15.679 43.0808 16.0893 43.2442 16.5406C42.8358 16.6226 42.4275 16.7457 42.0191 16.8278C41.8966 16.3765 41.7333 15.9252 41.6107 15.5149C41.9783 15.3918 42.3866 15.3098 42.795 15.2277ZM40.6307 15.72C40.7532 16.1713 40.9165 16.6226 41.039 17.0739C40.6307 17.197 40.2223 17.2791 39.814 17.4021C39.6915 16.9508 39.569 16.4996 39.4465 16.0483C39.814 15.9662 40.2223 15.8431 40.6307 15.72ZM38.4664 16.3354C38.5889 16.7867 38.7114 17.238 38.8339 17.6893C38.4256 17.8124 38.0172 17.9355 37.6088 18.0586C37.4863 17.6073 37.3638 17.156 37.2413 16.7047C37.6905 16.5816 38.0989 16.4585 38.4664 16.3354ZM36.3429 16.9919C36.4654 17.4432 36.5471 17.8945 36.6696 18.3458C36.2613 18.4688 35.8529 18.5919 35.4446 18.756C35.322 18.3047 35.2404 17.8534 35.1179 17.4021C35.5671 17.238 35.9754 17.115 36.3429 16.9919ZM34.2603 17.6893C34.342 18.1406 34.4645 18.5919 34.5462 19.0432C34.1378 19.1663 33.7295 19.3304 33.3619 19.4535C33.2803 19.0022 33.1578 18.5509 33.0761 18.0996C33.4436 17.9765 33.852 17.8534 34.2603 17.6893ZM32.1369 18.4688C32.2185 18.9201 32.3002 19.3714 32.3819 19.8227C31.9735 19.9868 31.606 20.1099 31.1976 20.274C31.116 19.8227 31.0343 19.3714 30.9526 18.9201C31.361 18.7971 31.7693 18.6329 32.1369 18.4688ZM30.0951 19.3304C30.1767 19.7817 30.2584 20.233 30.2993 20.6843C29.8909 20.8484 29.5234 21.0125 29.115 21.1766C29.0333 20.7253 28.9925 20.274 28.9108 19.8227C29.3192 19.6586 29.6867 19.4945 30.0951 19.3304ZM28.0125 20.233C28.0533 20.6843 28.135 21.1356 28.1758 21.5869C27.7674 21.751 27.3999 21.9561 26.9916 22.1202C26.9507 21.6689 26.8691 21.2176 26.8282 20.8074C27.2774 20.5612 27.6449 20.3971 28.0125 20.233ZM26.0115 21.1766C26.0523 21.6279 26.0932 22.0382 26.134 22.4895C25.7665 22.6536 25.3581 22.8587 24.9906 23.0639C24.9498 22.6126 24.9089 22.2023 24.8681 21.751C25.2356 21.5869 25.6031 21.3818 26.0115 21.1766ZM22.8672 22.8587C23.2347 22.6536 23.6022 22.4484 24.0106 22.2433C24.0514 22.6946 24.0922 23.1049 24.0922 23.5562C23.7247 23.7613 23.3163 23.9664 22.9488 24.1716C22.908 23.6793 22.8672 23.269 22.8672 22.8587ZM22.9897 25.1152C23.398 24.9101 23.7655 24.7049 24.1739 24.5408C24.2147 24.9921 24.2556 25.4024 24.2964 25.8127C23.888 26.0178 23.5205 26.1819 23.1122 26.387C23.0713 25.9768 23.0305 25.5665 22.9897 25.1152ZM23.1938 27.3717C23.6022 27.1665 24.0106 27.0024 24.4189 26.7973C24.4597 27.2076 24.5414 27.6589 24.5823 28.0691C24.1739 28.2332 23.7655 28.4384 23.3572 28.6025C23.2755 28.2332 23.2347 27.823 23.1938 27.3717ZM23.4797 29.6282C23.888 29.464 24.2964 29.2589 24.7048 29.0948C24.7864 29.5051 24.8273 29.9564 24.9089 30.3666C24.5006 30.5307 24.0514 30.6949 23.643 30.9C23.6022 30.4897 23.5205 30.0384 23.4797 29.6282ZM23.8064 31.8846C24.2147 31.7205 24.6639 31.5564 25.0723 31.3923C25.154 31.8026 25.2356 32.2539 25.3173 32.6641C24.8681 32.8283 24.4597 32.9924 24.0514 33.1565C23.9289 32.7052 23.888 32.2949 23.8064 31.8846ZM24.2147 34.0591C24.6639 33.895 25.0723 33.7308 25.5215 33.5667C25.6031 33.977 25.6848 34.3873 25.7665 34.8386C25.3173 35.0027 24.9089 35.1258 24.4597 35.2899C24.3781 34.9206 24.2964 34.5104 24.2147 34.0591ZM24.6639 36.2745C25.1131 36.1104 25.5215 35.9873 25.9707 35.8232C26.0523 36.2335 26.1748 36.6437 26.2565 37.054C25.8073 37.1771 25.3581 37.3412 24.9498 37.4643C24.8681 37.095 24.7456 36.6848 24.6639 36.2745ZM25.1948 38.4489C25.644 38.3259 26.0932 38.1617 26.5424 38.0387C26.6649 38.4489 26.7465 38.8592 26.8691 39.2695C26.4199 39.3926 25.9707 39.5156 25.5215 39.6387C25.399 39.2695 25.2765 38.8592 25.1948 38.4489ZM25.7665 40.5823C26.2157 40.4592 26.6649 40.3362 27.1141 40.2131C27.2366 40.6234 27.3591 41.0336 27.4816 41.4439C27.0324 41.567 26.5832 41.6901 26.134 41.8131C26.0115 41.4029 25.889 40.9926 25.7665 40.5823ZM26.4199 42.7568C26.8691 42.6337 27.3182 42.5516 27.7674 42.4285C27.8899 42.8388 28.0125 43.2491 28.1758 43.6593C27.7266 43.7824 27.2774 43.8645 26.8282 43.9876C26.6649 43.5363 26.5424 43.126 26.4199 42.7568ZM27.1141 44.8491C27.5633 44.7671 28.0125 44.644 28.4616 44.5619C28.5842 44.9722 28.7475 45.3825 28.87 45.7517C28.4208 45.8338 27.9716 45.9569 27.5224 46.0389C27.3999 45.6286 27.2774 45.2594 27.1141 44.8491ZM27.8899 46.9415C28.3391 46.8594 28.7883 46.7774 29.2375 46.6953C29.4009 47.1056 29.5234 47.4748 29.6867 47.8851C29.2375 47.9672 28.7883 48.0492 28.3391 48.1313C28.2166 47.762 28.0533 47.3518 27.8899 46.9415ZM28.7475 49.0339C29.1967 48.9518 29.6459 48.8698 30.0951 48.8287C30.2584 49.239 30.4218 49.6082 30.5851 50.0185C30.1359 50.1006 29.6867 50.1416 29.2375 50.2236C29.0742 49.8134 28.9108 49.4441 28.7475 49.0339ZM29.6459 51.0852C30.0951 51.0442 30.5443 50.9621 30.9935 50.9211C31.1568 51.3314 31.361 51.7006 31.5243 52.1109C31.0751 52.1519 30.6259 52.234 30.2176 52.275C30.0134 51.8647 29.8092 51.4955 29.6459 51.0852ZM30.6259 53.1366C31.0751 53.0955 31.4835 53.0545 31.9327 53.0135C32.096 53.3827 32.3002 53.793 32.5044 54.1622C32.0552 54.2033 31.6468 54.2443 31.1976 54.2853C30.9935 53.9161 30.7893 53.5468 30.6259 53.1366ZM32.2594 56.2956C32.0552 55.9264 31.851 55.5571 31.6468 55.1469C32.096 55.1058 32.5044 55.0648 32.9536 55.0648C33.1578 55.4341 33.3619 55.8443 33.5661 56.2136C33.1169 56.2546 32.6677 56.2956 32.2594 56.2956ZM34.5053 56.1725C34.3012 55.7623 34.097 55.393 33.9336 54.9828C34.3828 54.9417 34.7912 54.9007 35.1995 54.8597C35.4037 55.2699 35.5671 55.6392 35.7712 56.0495C35.3629 56.0905 34.9545 56.1315 34.5053 56.1725ZM36.7921 55.9674C36.588 55.5571 36.4246 55.1469 36.2204 54.7366C36.6288 54.6956 37.078 54.6135 37.4863 54.5725C37.6497 54.9828 37.8539 55.393 38.0172 55.8033C37.6088 55.8443 37.2005 55.9264 36.7921 55.9674ZM38.9973 55.6802C38.8339 55.2699 38.6297 54.8597 38.4664 54.4494C38.8748 54.3674 39.3239 54.3263 39.7323 54.2443C39.8956 54.6545 40.059 55.1058 40.2632 55.5161C39.8548 55.5571 39.4465 55.6392 38.9973 55.6802ZM41.2432 55.352C41.0799 54.9417 40.9165 54.4904 40.7532 54.0802C41.1616 53.9981 41.6107 53.9161 42.0191 53.834C42.1824 54.2853 42.3458 54.6956 42.5091 55.1058C42.0599 55.1879 41.6516 55.2699 41.2432 55.352ZM43.4484 54.9417C43.285 54.4904 43.1217 54.0802 42.9583 53.6289C43.3667 53.5468 43.775 53.4648 44.2242 53.3827C44.3876 53.834 44.5101 54.2443 44.6734 54.6956C44.2651 54.7776 43.8567 54.8597 43.4484 54.9417ZM45.6126 54.4904C45.4493 54.0391 45.3268 53.6289 45.1635 53.1776C45.5718 53.0955 45.9802 52.9724 46.3885 52.8904C46.511 53.3417 46.6744 53.793 46.7969 54.2032C46.4294 54.2853 46.021 54.4084 45.6126 54.4904ZM47.7769 53.9571C47.6544 53.5058 47.4911 53.0545 47.3686 52.6032C47.7769 52.4801 48.1853 52.3981 48.5937 52.275C48.7162 52.7263 48.8387 53.1776 48.9612 53.6289C48.5937 53.752 48.1853 53.875 47.7769 53.9571ZM49.9412 53.3827C49.8187 52.9314 49.6962 52.4801 49.5737 52.0288C49.9821 51.9057 50.3904 51.7827 50.7988 51.6596C50.9213 52.1109 51.0438 52.5622 51.1663 53.0135C50.7171 53.1366 50.3496 53.2596 49.9412 53.3827ZM52.0647 52.7263C51.9422 52.275 51.8605 51.8237 51.738 51.3724C52.1464 51.2493 52.5547 51.1262 52.9631 50.9621C53.0856 51.4134 53.1673 51.8647 53.2898 52.316C52.8406 52.4801 52.473 52.6032 52.0647 52.7263ZM54.1473 51.9878C54.0656 51.5365 53.9431 51.0852 53.8615 50.6339C54.2698 50.5108 54.6782 50.3467 55.0457 50.2236C55.1274 50.6749 55.2499 51.1262 55.3315 51.5775C54.964 51.7416 54.5557 51.8647 54.1473 51.9878ZM56.2708 51.2083C56.1891 50.757 56.1074 50.3057 56.0257 49.8544C56.4341 49.6903 56.8016 49.5672 57.21 49.4031C57.2917 49.8544 57.3733 50.3057 57.455 50.757C57.0466 50.9211 56.6383 51.0852 56.2708 51.2083ZM58.3125 50.3878C58.2309 49.9365 58.1492 49.4852 58.1084 49.0339C58.5167 48.8698 58.8842 48.7057 59.2926 48.5415C59.3743 48.9928 59.4151 49.4441 59.4968 49.8954C59.0884 50.0595 58.7209 50.2236 58.3125 50.3878ZM60.3952 49.4852C60.3543 49.0339 60.2727 48.5826 60.2318 48.1313C60.6402 47.9672 61.0077 47.762 61.4161 47.5979C61.4569 48.0492 61.5386 48.5005 61.5794 48.9108C61.1302 49.1159 60.7627 49.3211 60.3952 49.4852ZM62.437 48.5005C62.3961 48.0492 62.3553 47.639 62.3144 47.1877C62.682 47.0236 63.0903 46.8184 63.4578 46.6133C63.4987 47.0646 63.5395 47.4748 63.5804 47.9261C63.172 48.1313 62.8045 48.3364 62.437 48.5005ZM64.4379 47.4748C64.3971 47.0235 64.3562 46.6133 64.3562 46.162C64.7238 45.9569 65.1321 45.7517 65.4996 45.5466C65.5405 45.9569 65.5405 46.4081 65.5813 46.8184C65.173 47.0646 64.8054 47.2697 64.4379 47.4748Z" fill="#393963"/>
</g>
</g>
<path d="M68.4805 131.416L68.603 138.39L73.0541 150.329C73.5849 151.56 75.2184 152.299 76.8518 151.642L78.1177 151.232C79.3836 150.822 80.1595 149.55 79.9145 148.237L77.546 135.601L70.2364 131.17L68.4805 131.416Z" fill="#150035"/>
<path d="M44.8788 79.886L31.5664 97.2814L74.2397 84.6862L86.0004 77.9167L44.8788 79.886Z" fill="#D04120"/>
<path d="M62.9276 117.426L62.8867 122.062L68.6037 138.431L68.8896 138.513C72.0748 139.416 75.505 138.267 77.5059 135.641L73.5857 117.467L63.7851 117.426H62.9276Z" fill="url(#paint3_linear_1_22319)"/>
<path d="M50.7988 89.2811L63.4987 128.503C68.0723 128.749 72.6051 127.518 76.4028 124.933L76.7295 124.728L67.1331 84.645L50.7988 89.2811Z" fill="#474777"/>
<path d="M32.9534 85.5478L38.2212 92.1531L85.9989 77.9168L75.3817 43.7825L27.6855 57.0752L32.9534 85.5478Z" fill="#E11A7D"/>
<path d="M45.764 70.5734C46.5221 73.4309 48.1128 75.5419 50.5077 76.8899C52.9027 78.2379 55.5639 78.5117 58.475 77.7394C59.1244 77.5671 59.756 77.3279 60.3923 77.0157C60.8164 76.8076 60.9752 76.5027 60.8686 76.1008C60.839 75.9892 60.8212 75.9222 60.7811 75.8612L60.423 75.1437C60.2492 74.7597 59.9496 74.6241 59.5689 74.7251C59.5465 74.731 59.4852 74.7712 59.4181 74.789C58.876 75.0045 58.3504 75.1917 57.8354 75.3283C55.6857 75.8986 53.6882 75.6877 51.8372 74.6734C49.9578 73.6426 48.751 72.075 48.1825 69.9318C47.5843 67.677 47.8495 65.695 48.9662 63.9411C50.0604 62.1932 51.719 61.0363 53.8911 60.4601C56.0632 59.8839 57.9922 60.0173 59.6391 60.8947C61.286 61.7721 62.3381 63.1179 62.8119 64.9039C63.4041 67.1363 62.8769 68.8533 61.6229 69.186L61.175 69.3048L59.5642 63.2325C59.4694 62.8753 59.0822 62.5001 58.7049 62.4329C57.3193 62.1792 55.9211 62.2395 54.5551 62.6018C52.8757 63.0474 51.6459 63.9232 50.8152 65.2189C49.9844 66.5146 49.7786 67.9073 50.1754 69.4031C50.5959 70.9881 51.3814 72.1418 52.5317 72.8642C53.6821 73.5865 55.0216 73.7569 56.522 73.3589C57.6192 73.0678 58.465 72.4611 59.0203 71.573C59.1388 72.0195 59.5918 72.2817 60.0173 72.1688L61.8087 71.6936C63.3585 71.2107 64.4242 70.2589 65.0061 68.8381C65.5655 67.4232 65.6403 65.898 65.2079 64.2682C64.515 61.6563 63.0402 59.8013 60.7941 58.6528C58.5538 57.5266 56.0341 57.3347 53.2574 58.0714C50.3687 58.8377 48.2214 60.4109 46.799 62.8194C45.3766 65.2279 45.0297 67.8051 45.764 70.5734ZM58.3866 69.1843C57.9208 70.0486 57.2542 70.6078 56.3585 70.8454C54.7462 71.2731 53.4154 70.503 52.9594 68.784C52.5152 67.1097 53.2914 65.5178 55.1724 65.0188C55.7994 64.8525 56.4902 64.8365 57.2732 64.9872L58.3866 69.1843Z" fill="white"/>
<path d="M27.6864 57.075L21.6836 67.0855L31.5658 97.2813L38.2221 92.1529L27.6864 57.075Z" fill="#FB7E61"/>
<path opacity="0.19" d="M59.375 86.8605L77.0569 151.601L78.0778 151.273C79.3437 150.862 80.1195 149.591 79.8745 148.278L77.5061 135.641L75.3418 125.59C75.7093 125.385 76.036 125.18 76.3627 124.933L76.6893 124.728L67.093 84.645L59.375 86.8605Z" fill="#393963"/>
</g>
<defs>
<linearGradient id="paint0_linear_1_22319" x1="23.4762" y1="41.5579" x2="65.1254" y2="29.7425" gradientUnits="userSpaceOnUse">
<stop offset="0.1043" stop-color="#C5CCE9"/>
<stop offset="1" stop-color="#A2AFDB"/>
</linearGradient>
<radialGradient id="paint1_radial_1_22319" cx="0" cy="0" r="1" gradientUnits="userSpaceOnUse" gradientTransform="translate(33.9408 31.101) rotate(-15.9791) scale(30.1688 30.2887)">
<stop offset="0.00038545" stop-color="white"/>
<stop offset="1" stop-color="#A7B6DE"/>
</radialGradient>
<radialGradient id="paint2_radial_1_22319" cx="0" cy="0" r="1" gradientUnits="userSpaceOnUse" gradientTransform="translate(33.9408 31.101) rotate(-15.9791) scale(30.1688 30.2887)">
<stop offset="0.00038545" stop-color="white"/>
<stop offset="1" stop-color="#A7B6DE"/>
</radialGradient>
<linearGradient id="paint3_linear_1_22319" x1="65.0336" y1="128.926" x2="76.1085" y2="125.482" gradientUnits="userSpaceOnUse">
<stop stop-color="#C5CCE9"/>
<stop offset="1" stop-color="#A2AFDB"/>
</linearGradient>
<clipPath id="clip0_1_22319">
<rect width="86" height="171" fill="white" transform="translate(0 0.499023)"/>
</clipPath>
</defs>
</svg>
