<svg width="26" height="25" viewBox="0 0 26 25" fill="none" xmlns="http://www.w3.org/2000/svg">
<g clip-path="url(#clip0_1_25152)">
<path d="M5.13324 0.785156C6.60833 0.785156 7.91799 1.49142 8.72898 2.57672H13.1679V1.49086C13.1679 1.10255 13.4896 0.787734 13.8864 0.787734H17.735C18.1318 0.787734 18.4534 1.10255 18.4534 1.49086V2.57672H19.6333C20.0301 2.57672 20.3518 2.89153 20.3518 3.27984C20.3518 3.66816 20.0301 3.98297 19.6333 3.98297H18.4534V5.25628H18.6215C19.0182 5.25628 19.3399 5.57109 19.3399 5.95941V8.77702C22.774 10.1415 25.2012 13.4346 25.2012 17.2712C25.2012 18.7296 24.8413 20.1812 24.1605 21.469C23.5022 22.7142 22.5425 23.8134 21.3852 24.6481C21.2617 24.7371 21.1124 24.7852 20.9591 24.7852H10.6624C10.5091 24.7852 10.3597 24.7371 10.2363 24.6481C9.07894 23.8134 8.11929 22.7141 7.46103 21.469C6.78017 20.1812 6.42035 18.7296 6.42035 17.2712C6.42035 13.4347 8.84761 10.1416 12.2816 8.77711V5.95941C12.2816 5.57109 12.6032 5.25628 13 5.25628H13.168V3.98297H9.42565C9.53073 4.35398 9.58715 4.74459 9.58715 5.14795C9.58715 7.55358 7.58915 9.51075 5.13334 9.51075C2.67752 9.51075 0.679432 7.55358 0.679432 5.14795C0.679432 2.74233 2.67743 0.785156 5.13324 0.785156V0.785156ZM17.9031 8.55169V6.66253H13.7183V8.55169H17.9031ZM7.85707 17.2712C7.85707 18.5234 8.15315 19.7183 8.73708 20.8228C9.25926 21.8105 10.0057 22.6902 10.9042 23.379H20.7172C21.6156 22.6902 22.3622 21.8106 22.8843 20.8228C23.4683 19.7183 23.7644 18.5234 23.7644 17.2712C23.7644 13.902 21.5522 11.028 18.4708 9.95794H13.1507C10.0692 11.028 7.85707 13.902 7.85707 17.2712ZM17.0167 5.25623V2.19398H14.6048V5.25628H17.0167V5.25623ZM5.13324 8.1045C6.79679 8.1045 8.15023 6.77822 8.15023 5.14795C8.15023 3.51769 6.79684 2.19141 5.13324 2.19141C3.46964 2.19141 2.11625 3.51769 2.11625 5.14795C2.11625 6.77822 3.46969 8.1045 5.13324 8.1045Z" fill="#686677"/>
</g>
<defs>
<clipPath id="clip0_1_25152">
<rect width="24.5217" height="24" fill="white" transform="matrix(-1 0 0 1 25.2012 0.785156)"/>
</clipPath>
</defs>
</svg>
