<svg width="37" height="37" viewBox="0 0 37 37" fill="none" xmlns="http://www.w3.org/2000/svg">
<g clip-path="url(#clip0_1428_5950)">
<path d="M6.89811 0.300293C9.11074 0.300293 11.0752 1.35969 12.2917 2.98764H18.9502V1.35885C18.9502 0.776379 19.4326 0.30416 20.0278 0.30416H25.8008C26.3959 0.30416 26.8784 0.776379 26.8784 1.35885V2.98764H28.6483C29.2434 2.98764 29.7259 3.45986 29.7259 4.04232C29.7259 4.62479 29.2434 5.09701 28.6483 5.09701H26.8784V7.00698H27.1305C27.7256 7.00698 28.2081 7.4792 28.2081 8.06167V12.2881C33.3592 14.3347 37 19.2745 37 25.0293C37 27.217 36.4602 29.3944 35.439 31.3261C34.4516 33.1938 33.012 34.8427 31.2761 36.0947C31.0909 36.2282 30.8669 36.3003 30.6368 36.3003H15.1919C14.9618 36.3003 14.7378 36.2282 14.5526 36.0947C12.8167 34.8427 11.3772 33.1937 10.3898 31.326C9.3685 29.3943 8.82876 27.217 8.82876 25.0293C8.82876 19.2745 12.4697 14.3349 17.6206 12.2882V8.06167C17.6206 7.4792 18.1031 7.00698 18.6982 7.00698H18.9503V5.09701H13.3367C13.4943 5.65354 13.579 6.23945 13.579 6.84449C13.579 10.4529 10.582 13.3887 6.89825 13.3887C3.21453 13.3887 0.217392 10.4529 0.217392 6.84449C0.217392 3.23605 3.21439 0.300293 6.89811 0.300293V0.300293ZM26.0529 11.9501V9.11636H19.7758V11.9501H26.0529ZM10.9838 25.0293C10.9838 26.9076 11.428 28.7 12.3039 30.3567C13.0871 31.8383 14.2069 33.1578 15.5546 34.191H30.274C31.6217 33.1579 32.7415 31.8384 33.5248 30.3567C34.4006 28.6999 34.8448 26.9076 34.8448 25.0293C34.8448 19.9755 31.5265 15.6646 26.9044 14.0595H18.9243C14.3021 15.6646 10.9838 19.9755 10.9838 25.0293ZM24.7232 7.00691V2.41354H21.1055V7.00698H24.7232V7.00691ZM6.89811 11.2793C9.39343 11.2793 11.4236 9.28989 11.4236 6.84449C11.4236 4.39909 9.3935 2.40967 6.89811 2.40967C4.40271 2.40967 2.37262 4.39909 2.37262 6.84449C2.37262 9.28989 4.40278 11.2793 6.89811 11.2793Z" fill="white"/>
</g>
<defs>
<clipPath id="clip0_1428_5950">
<rect width="36.7826" height="36" fill="white" transform="matrix(-1 0 0 1 37 0.300293)"/>
</clipPath>
</defs>
</svg>
