<svg width="42" height="42" viewBox="0 0 42 42" fill="none" xmlns="http://www.w3.org/2000/svg">
<g clip-path="url(#clip0_1530_4459)">
<path d="M40.2858 28.7511C41.1919 28.7511 41.9264 28.0165 41.9264 27.1104V25.9039C41.9264 22.2953 38.9905 19.3594 35.3819 19.3594H31.4104C31.9656 18.3982 32.2835 17.2836 32.2835 16.0961V6.54454C32.2835 2.9359 29.3477 0 25.7391 0H16.261C12.6524 0 9.7165 2.9359 9.7165 6.54454V16.0961C9.7165 17.2836 10.0345 18.3982 10.5896 19.3594H6.61827C3.00963 19.3594 0.0737305 22.2953 0.0737305 25.9039V35.4555C0.0737305 39.0641 3.00963 42 6.61827 42H16.0962C18.0464 42 19.8001 41.1425 21.0001 39.7849C22.2001 41.1425 23.9538 42 25.904 42H35.3819C38.9672 42 41.9029 39.0835 41.9263 35.4988C41.9322 34.5927 41.2025 33.8534 40.2964 33.8475C40.2928 33.8475 40.2891 33.8475 40.2855 33.8475C39.3845 33.8475 38.6511 34.575 38.6451 35.4774C38.6334 37.2647 37.1696 38.7188 35.3819 38.7188H25.904C24.1046 38.7188 22.6407 37.2548 22.6407 35.4555V25.9039C22.6407 24.1046 24.1046 22.6406 25.904 22.6406H29.0024V24.3023C29.0024 25.2084 29.7369 25.9429 30.643 25.9429C31.5491 25.9429 32.2836 25.2084 32.2836 24.3023V22.6406H35.3819C37.1813 22.6406 38.6452 24.1046 38.6452 25.9039V27.1104C38.6452 28.0165 39.3797 28.7511 40.2858 28.7511ZM12.9978 6.54454C12.9978 4.74518 14.4618 3.28125 16.2611 3.28125H19.3594V4.94287C19.3594 5.84899 20.094 6.5835 21.0001 6.5835C21.9062 6.5835 22.6407 5.84899 22.6407 4.94287V3.28125H25.7391C27.5384 3.28125 29.0024 4.74518 29.0024 6.54454V16.0961C29.0024 17.8954 27.5384 19.3594 25.7391 19.3594H16.261C14.4617 19.3594 12.9978 17.8954 12.9978 16.0961V6.54454H12.9978ZM16.0962 38.7188H6.61827C4.81891 38.7188 3.35498 37.2548 3.35498 35.4555V25.9039C3.35498 24.1046 4.81891 22.6406 6.61827 22.6406H9.71659V24.3023C9.71659 25.2084 10.4511 25.9429 11.3572 25.9429C12.2633 25.9429 12.9978 25.2084 12.9978 24.3023V22.6406H16.0962C17.8955 22.6406 19.3594 24.1046 19.3594 25.9039V35.4555C19.3594 37.2548 17.8955 38.7188 16.0962 38.7188Z" fill="#E11A7D"/>
</g>
<defs>
<clipPath id="clip0_1530_4459">
<rect width="42" height="42" fill="white"/>
</clipPath>
</defs>
</svg>
