<svg version="1.2" xmlns="http://www.w3.org/2000/svg" viewBox="0 0 297 250" width="297" height="250">
	<title>register-svg</title>
	<defs>
		<clipPath clipPathUnits="userSpaceOnUse" id="cp1">
			<path d="m0 8c0-4.42 3.58-8 8-8h281c4.42 0 8 3.58 8 8v234.36c0 4.41-3.58 8-8 8h-281c-4.42 0-8-3.59-8-8z"/>
		</clipPath>
		<clipPath clipPathUnits="userSpaceOnUse" id="cp2">
			<path d="m67.58 50.95h175v167.17h-175z"/>
		</clipPath>
	</defs>
	<style>
		.s0 { fill: #dde8fd } 
		.s1 { fill: #ffffff } 
		.s2 { fill: #efeff4 } 
		.s3 { fill: #d2d2db } 
		.s4 { fill: #000000 } 
		.s5 { fill: #4fd364 } 
		.s6 { fill: #e11a7d } 
		.s7 { fill: #fc8165 } 
		.s8 { fill: #ffaf45 } 
		.s9 { fill: #ea366e } 
		.s10 { fill: #7c4fd3 } 
		.s11 { fill: #80baff } 
		.s12 { fill: #ff9e29 } 
		.s13 { fill: #73aaed } 
		.s14 { fill: #e4e4ea } 
		.s15 { fill: #ada4f7 } 
		.s16 { fill: #ffd39f } 
	</style>
	<g id="Clip-Path" clip-path="url(#cp1)">
		<g id="Layer">
			<path id="Layer" class="s0" d="m123.2 321.5c-42.7 3.9-83.5-21.7-99.5-62.7q-0.4-1.1-0.8-2.3c-20.6-56.5 1.1-103.5 54.2-117.6 43.3-11.4 65.4-30 92.6-75.9 44.5-75.1 152.4-75 171.4 15.9 8.2 38.9 52.2 39.9 48.4 77-0.9 8.5-4 16.4-9.1 23.1l-0.9 1.3c-60.6 80.9-151.9 131.8-252.4 140.9z"/>
		</g>
	</g>
	<g id="Clip-Path" clip-path="url(#cp2)">
		<g id="Layer">
			<g id="Layer">
				<path id="Layer" fill-rule="evenodd" class="s1" d="m82.2 70.6v-5.4c0-1.4 1.1-2.5 2.5-2.5h36c4.4 0 8 3.5 8 7.9h72.5c2.8 0 5 2.2 5 4.9v80.9c-0.1 2.8-2.3 5-5.1 5h-113.9c-2.8 0-5-2.2-5-4.9v-81.2z"/>
			</g>
			<path id="Layer" class="s2" d="m124.1 80.1v27.7c0 1.3-1 2.3-2.2 2.3h-27.7c-0.5 0-1-0.2-1.3-0.4-0.6-0.4-0.9-1.1-0.9-1.9v-27.7c0-1.3 1-2.3 2.2-2.3h27.7c1.3 0 2.2 1.1 2.2 2.3z"/>
			<path id="Layer" class="s3" d="m194.4 87.3h-65.1c-0.6 0-1-0.4-1-0.9v-4.3c0-0.5 0.4-1 1-1h65.1c0.6 0 1 0.4 1 1v4.3c0 0.5-0.4 0.9-1 0.9z"/>
			<path id="Layer" class="s3" d="m194.4 96.6h-65.1c-0.6 0-1-0.4-1-1v-4.3c0-0.5 0.4-0.9 1-0.9h65.1c0.6 0 1 0.4 1 0.9v4.3c0 0.6-0.4 1-1 1z"/>
			<path id="Layer" class="s3" d="m194.4 105.9h-65.1c-0.6 0-1-0.4-1-1v-4.3c0-0.5 0.4-1 1-1h65.1c0.6 0 1 0.4 1 1v4.3c0 0.6-0.4 1-1 1z"/>
			<path id="Layer" class="s4" d="m144.1 115.4h-51.2v-0.5h51.2z"/>
			<path id="Layer" class="s4" d="m148.4 121.2h-55.5v-0.5h55.5z"/>
			<path id="Layer" class="s4" d="m130.2 126.9h-37.3v-0.5h37.3z"/>
			<path id="Layer" class="s1" d="m93.7 142c0-4.8 3.9-8.7 8.6-8.7 4.8 0 8.7 3.9 8.7 8.7 0 4.8-3.9 8.6-8.7 8.6-4.7 0-8.6-3.8-8.6-8.6z"/>
			<path id="Layer" class="s5" d="m92.5 142c0-4.8 3.9-8.7 8.7-8.7 4.7 0 8.6 3.9 8.6 8.7 0 4.8-3.9 8.6-8.6 8.6-4.8 0-8.7-3.8-8.7-8.6z"/>
			<path id="Layer" class="s1" d="m100.4 146.6l-4.3-4.8 1.6-1.4 2.7 3.1 4.7-5.5 1.5 1.4z"/>
			<path id="Layer" class="s4" d="m108.6 87.7l-3.1 12.3-6.8 2.8c0 0-1.9-1.1-1.4-5.1 0.6-3.9 4.7-7.6 4.7-7.6 0 0-0.9-4.4 2.1-6.2 3.1-1.8 6.3-0.2 6.3-0.2z"/>
			<path id="Layer" class="s4" d="m110.3 99.6l0.7-14.6c0 0 2.6 1.8 2.5 5.5-0.1 1.6 2.3 1.8 3.6 3.8 1.4 1.9-0.4 7.6-0.4 7.6z"/>
			<path id="Layer" class="s6" d="m119.9 110.1h-24.1c-0.2-4.4 0.8-8.7 5.6-12.1 0.8-0.6 3.7-2 6.4-1.6 6.2 0.8 11.2 4.2 11.8 10.5z"/>
			<path id="Layer" class="s4" d="m104.5 89.9c-2.2 1.8-7.7-3.8-5.5-7.6 2.2-3.8 6 2.4 6 2.4 0 0 1.7 3.3-0.5 5.2z"/>
			<path id="Layer" class="s7" d="m107 93.5l4 1 0.4 3.8c0 0-0.6 0.4-2.3 0.3-2.2-0.2-2.9-0.8-2.9-0.8l0.1-4.4z"/>
			<path id="Layer" class="s4" d="m111 94.5l0.2 1.9c-1-0.1-3.3-0.6-4.1-2.5-0.1-0.1-0.1-0.3-0.1-0.4z"/>
			<path id="Layer" class="s7" d="m112 85.7c0 0 2 4.9 1.1 7.5-0.8 2.7-3.3 2.2-4.7 1.7-1.4-0.6-2.1-1.5-2.1-1.5 0 0-1.4 0.4-2.2-0.9-0.9-1.3-0.3-2.7 0.5-3.1 0.7-0.3 1.7 0.3 1.7 0.3l-0.8-1.4c0 0 3.3-7 6.5-2.6z"/>
			<path id="Layer" class="s4" d="m105 88.2l1.4-3.6 4.6-1c0 0 0.7-0.2 1.3 0.9 0.6 1.1 0.2 2.7 0.2 2.7l-1.3-2.4c0 0 0.1 0.9-1.4 3.2-1.5 2.2-3.6 1.7-3.6 1.7z"/>
			<path id="Layer" class="s4" d="m111.6 91.8h-0.1c-0.1 0-0.1-0.1-0.1-0.2 0.3-0.9-0.3-1.8-0.3-1.8 0-0.1 0-0.2 0.1-0.3 0.1-0.1 0.2-0.1 0.2 0.1 0.1 0 0.7 1.1 0.4 2.1-0.1 0.1-0.1 0.1-0.2 0.1z"/>
			<path id="Layer" class="s4" d="m109.6 88.4h-0.1c-0.1 0-0.1-0.1-0.1-0.2 0.4-1 1.1-0.8 1.2-0.8 0.1 0.1 0.1 0.1 0.1 0.2-0.1 0.1-0.1 0.2-0.2 0.1 0 0-0.5-0.1-0.8 0.6q0 0.1-0.1 0.1z"/>
			<path id="Layer" class="s4" d="m112.6 87.8q-0.2 0-0.2-0.1c0-0.1 0-0.2-0.2-0.3-0.1-0.1-0.2 0-0.3 0.1-0.1 0-0.2 0-0.3-0.1 0-0.1 0-0.2 0.1-0.3 0.2-0.1 0.4-0.2 0.6-0.1 0.3 0.2 0.4 0.5 0.4 0.6 0.1 0.1 0 0.2-0.1 0.2q0.1 0 0 0z"/>
			<path id="Layer" class="s4" d="m106 92c-0.1 0-0.1 0-0.1-0.1l-1.3-1.4q-0.1-0.1 0-0.3 0.1-0.1 0.2 0l1.3 1.5q0.1 0 0 0.2-0.1 0.1-0.1 0.1z"/>
			<path id="Layer" class="s4" d="m104.6 91.5q-0.2 0-0.2-0.1 0-0.1 0.2-0.2l0.9-0.1q0.1 0 0.2 0.1 0 0.2-0.2 0.2l-0.9 0.1c0 0 0 0 0 0z"/>
			<path id="Layer" class="s4" d="m112.5 90q-0.2 0-0.2-0.2l-0.1-0.9q0 0 0.1-0.1l0.3-0.4c0.1-0.1 0.2-0.1 0.3 0 0.1 0 0.1 0.1 0 0.2l-0.4 0.3 0.1 0.9c0 0.1 0 0.2-0.1 0.2z"/>
			<path id="Layer" class="s4" d="m109.9 90.1q-0.2 0-0.2-0.2l-0.1-0.9q0 0 0.1-0.1l0.5-0.5q0.1-0.1 0.2 0 0.1 0.1 0 0.3l-0.4 0.4v0.8c0 0.1 0 0.2-0.1 0.2z"/>
			<path id="Layer" class="s1" d="m109.3 98.8c-1.1 0-2.5-0.3-3.8-1.4-0.1 0-0.1-0.1-0.1-0.2 0.1-0.1 0.2-0.1 0.3-0.1 2.9 2.3 6.1 0.8 6.1 0.7 0.1 0 0.2 0 0.3 0.1 0 0.2 0 0.3-0.1 0.3-0.1 0.1-1.2 0.6-2.7 0.6z"/>
			<path id="Layer" class="s1" d="m115.5 110.1c0 0-0.1 0-0.1-0.1 0 0-0.1-0.1 0-0.2 2.8-3.2-0.3-8.4-0.4-8.5 0-0.1 0-0.2 0.1-0.2 0.1-0.1 0.2 0 0.3 0 0.1 0.2 3.2 5.6 0.3 8.9q-0.1 0.1-0.2 0.1z"/>
			<path id="Layer" class="s4" d="m111.1 93.2c-0.4 0-0.8-0.2-1-0.4 0 0 0-0.2 0-0.2q0.1-0.1 0.3 0c0 0 0.5 0.5 1 0.2 0.1-0.1 0.2 0 0.3 0 0 0.1 0 0.2-0.1 0.3-0.2 0.1-0.3 0.1-0.5 0.1z"/>
			<path id="Layer" class="s6" d="m68.8 166.1h36.8c0.7 0 1.2 0.5 1.2 1.1v18.4c0 0.6-0.6 1-1.2 1h-36.8c-0.7 0-1.2-0.4-1.2-1v-18.4c0-0.6 0.5-1 1.2-1.1z"/>
			<path id="Layer" class="s1" d="m68.8 166.1h36.8c0.7 0 1.2 0.7 1.2 1.4v1.5h-39.2v-1.5c0-0.7 0.5-1.3 1.2-1.4z"/>
			<path id="Layer" class="s8" d="m100.3 166.9c0.4 0 0.7 0.3 0.7 0.7 0 0.3-0.3 0.6-0.7 0.6-0.3 0-0.6-0.3-0.6-0.6 0-0.4 0.3-0.7 0.6-0.7z"/>
			<path id="Layer" class="s9" d="m101.8 167.6c0-0.4 0.3-0.7 0.7-0.7 0.3 0 0.6 0.3 0.6 0.7 0 0.4-0.3 0.6-0.6 0.6-0.4 0-0.7-0.2-0.7-0.6z"/>
			<path id="Layer" class="s10" d="m104.6 166.9c0.3 0 0.6 0.3 0.6 0.7 0 0.3-0.3 0.6-0.6 0.6-0.4 0-0.7-0.3-0.7-0.6 0-0.4 0.3-0.7 0.7-0.7z"/>
			<path id="Layer" class="s1" d="m82 172.8h21.1v1.3h-21.1z"/>
			<path id="Layer" class="s1" d="m82 176.1h21.1v1.3h-21.1z"/>
			<path id="Layer" class="s1" d="m82 179.5h21.1v1.2h-21.1z"/>
			<path id="Layer" class="s1" d="m70.9 172.9h8.8v7.9h-8.8z"/>
			<path id="Layer" fill-rule="evenodd" class="s8" d="m180.3 74.7h-32.3c-1 0-1.7-0.8-1.7-1.8v-20.2c0-1 0.7-1.8 1.7-1.8h32.3c1 0 1.7 0.8 1.7 1.8v20.2c0 1-0.8 1.8-1.7 1.8zm-32.3-23.2c-0.7 0-1.2 0.5-1.2 1.2v20.2c0 0.7 0.5 1.2 1.2 1.2h32.3c0.7 0 1.2-0.5 1.2-1.2v-20.2c0-0.7-0.5-1.2-1.2-1.2z"/>
			<path id="Layer" class="s8" d="m181.7 55.4h-35.2c-0.2 0-0.3-0.1-0.3-0.3 0-0.1 0.1-0.2 0.3-0.2h35.2c0.2 0 0.3 0.1 0.3 0.2 0 0.2-0.1 0.3-0.3 0.3z"/>
			<path id="Layer" class="s8" d="m150 54.1q0 0-0.1 0l-1.9-1.4c-0.1-0.1-0.2-0.3 0-0.4 0.1-0.1 0.2-0.1 0.3 0l1.9 1.4c0.1 0.1 0.2 0.2 0.1 0.3 0 0.1-0.1 0.1-0.3 0.1z"/>
			<path id="Layer" class="s8" d="m148.2 54.1c-0.1 0-0.1 0-0.2-0.1-0.1-0.1 0-0.2 0.1-0.3l1.8-1.4c0.1-0.1 0.3-0.1 0.4 0 0.1 0.1 0.1 0.3 0 0.4l-1.9 1.4q-0.1 0-0.2 0z"/>
			<path id="Layer" class="s4" d="m199.8 112.3c0 0 3.3-1.5 6.2 0.4 3 1.9 1.9 6.3 1.9 6.3 0 0 4 4 4.4 7.9 0.4 4-1.7 5-1.7 5l-6.6-3-2.6-12.5z"/>
			<path id="Layer" class="s4" d="m192.1 127.7c0 0-0.9-3.3 0.5-5.1 1.5-1.9 3.8-2 3.8-3.7 0-3.6 2.7-5.3 2.7-5.3v14.6z"/>
			<path id="Layer" class="s11" d="m201.4 205.2c0 0 1.3 3 1.7 5.2 0.4 2.1 0.2 7.4 0.2 7.4l-5.8 0.1c0 0 1.1-4.8-1-5.2-2-0.3-2.2 5-2.2 5 0 0-19.3 0.9-19.6 0-0.3-0.9-0.2-2.7 2.6-5.3 2.7-2.6 12.1-7 12.1-7z"/>
			<path id="Layer" class="s7" d="m195.9 202.5l5.5 2.6c0 0-2 2.5-4.4 3.4-2.4 0.9-10.7 0.8-12.2 0.4-1.4-0.5 6.6-5.1 6.6-5.1z"/>
			<path id="Layer" class="s7" d="m191.2 205.8l1.4-7.3 9.9 2-1.1 4.6z"/>
			<path id="Layer" class="s11" d="m226.8 176.6c0 0 2.9-1.6 5-2.4 2-0.6 7.3-1 7.3-1l0.7 5.7c0 0-4.8-0.5-4.9 1.6-0.1 2.1 5.2 1.6 5.2 1.6 0 0 3.2 19.1 2.4 19.5-0.8 0.5-2.6 0.5-5.5-1.9-3-2.4-8.6-11.1-8.6-11.1z"/>
			<path id="Layer" class="s7" d="m224.7 182.4l1.9-5.8c0 0 2.8 1.7 4 4 1.1 2.3 2.1 10.5 1.8 12.1-0.3 1.5-5.8-5.9-5.8-5.9z"/>
			<path id="Layer" class="s7" d="m228.6 186.7l-7.4-0.5 0.7-10 4.7 0.4z"/>
			<path id="Layer" class="s7" d="m172.3 129.7c0 0-7 0.1-8.3 0-1.2-0.1 0-1 0-1 0 0-2.4-0.2-1.5-0.9 0.8-0.7 8.8-0.8 10.5-0.6 1.8 0.3 4.4 0.7 4.4 0.7z"/>
			<path id="Layer" class="s6" d="m193.6 140.3c0 0-3.2 3.5-11.6 2.5-8.3-1-13.5-11.7-13.5-11.7l8.4-4.8c0 0 5.6 3.6 7 3.6 1.4 0 9-4 10.1-4.4 1.1-0.4 5.3-0.5 5.3-0.5z"/>
			<path id="Layer" class="s1" d="m170.2 132.2c-0.7 0-1.8-0.8-1.9-0.9-0.1 0-0.1-0.1 0-0.2 0-0.1 0.1-0.1 0.2-0.1 0.6 0.4 1.5 0.9 1.8 0.7 0.4-0.1 0.6-1.1 0.6-1.8q0 0 0.1-0.1 0.1-0.1 0.2 0c0.5 0.3 1.9 0.9 2.4 0.4 0.6-0.6 0.5-2.2 0.5-2.2q-0.1-0.1 0-0.1 0.1-0.1 0.2-0.1c1 0.3 2 0.4 2.1 0.2 0.3-0.4 0.2-0.9 0.2-0.9 0-0.1 0.1-0.2 0.2-0.2 0.1 0 0.2 0 0.2 0.1 0 0.1 0 0.7-0.3 1.2-0.3 0.4-1.6 0.1-2.3 0 0 0.5 0 1.6-0.5 2.2-0.7 0.6-2.1 0.1-2.6-0.2-0.1 0.5-0.3 1.5-0.8 1.8-0.1 0.2-0.2 0.2-0.3 0.2z"/>
			<path id="Layer" class="s12" d="m204.3 204.5l-16.7-0.3c0 0-3.8-13.6-3.9-26.2-0.1-7.4 1.8-15.3 3.3-20.6 1.1-3.6 2-5.9 2-5.9l9.4 0.7 1.7 0.1 0.2 13.2c0 0 0.6 19.4 0.9 22.5 0.3 3.1 3.1 16.5 3.1 16.5z"/>
			<path id="Layer" class="s8" d="m198.7 158.2l-11.7-0.8c1.1-3.6 2-5.9 2-5.9l9.4 0.7z"/>
			<path id="Layer" class="s8" d="m209.5 147.4c0 0 1.8 10.1 2.5 16.1 0.4 4 3.7 8.1 7.4 9.4 3.8 1.2 7.3 1.7 7.3 1.7l0.5 14.6c0 0-12.6 3.4-21.5-2.2-4.5-2.7-6.9-6.9-8.3-11.2-1.3-3.8-1.7-8.6-1.7-13.1l1.3-12.2z"/>
			<path id="Layer" class="s6" d="m207.8 125.8c0 0.2 4 12.9 4.1 20.5 0 3.2-2.5 5.5-2.6 5.6-0.3 0.2-4.6 0.7-10.1 0.9-5.5 0.3-9.9-0.9-10.1-1.3-0.3-0.5 0.7-13.6 0.7-13.6l-0.1-2.9c0.8-6.2 6-10.6 12.2-10 3.4 0.3 5.9 0.8 5.9 0.8z"/>
			<path id="Layer" class="s1" d="m208.7 156.7c-3.2 0-3.5-2.4-3.5-2.5 0-0.1 0-0.2 0.1-0.2 0.1 0 0.2 0.1 0.2 0.2 0 0.1 0.3 2.2 3.3 2.1q0.2 0 0.2 0.2 0 0.1-0.2 0.1c0 0.1-0.1 0.1-0.1 0.1z"/>
			<path id="Layer" fill-rule="evenodd" class="s1" d="m212.5 173q0 0-0.1 0c-0.3 0-0.4-0.2-0.5-0.3-0.3-1 1.9-3.3 2.3-3.7 0.1 0 0.2 0 0.2 0 0.1 0 0.1 0.1 0.1 0.2 0 0.1-0.4 2.9-1.4 3.7-0.2 0.1-0.4 0.1-0.6 0.1zm1.6-3.4c-0.9 1.1-2 2.4-1.9 3q0 0 0.2 0.1 0.3 0.1 0.5-0.1c0.6-0.5 1-2 1.2-3z"/>
			<path id="Layer" class="s7" d="m203.8 146.6c-2.7 0.8-4.7-4.1-4.7-4.1 0 0-3.3-4.6-2.9-5.2 0.4-0.6 2.5 1.2 2.5 1.2 0 0-2.3-3-1.8-3.5 0.6-0.6 3.3 2.4 3.3 2.4 0 0-1.6-2.8-0.9-3 0.7-0.2 4.4 4 4.4 4 0 0 0.2-2.9 0.8-2.6 0.7 0.3 0.6 2.1 0.8 2.6 0.2 0.5 0.7 2.1 0.7 2.1 0 0 0.5 5.4-2.2 6.1z"/>
			<path id="Layer" class="s4" d="m164 128.9c0 0-0.1-0.1-0.1-0.1-0.1-0.1 0-0.2 0.1-0.2 0.1-0.1 1.6-0.6 3.2-0.9l-0.5-0.2c-0.1 0-0.1-0.1-0.1-0.2 0-0.1 0.1-0.1 0.2-0.1l1.3 0.4c0.1 0 0.2 0.1 0.1 0.2 0 0.1-0.1 0.2-0.1 0.2-1.8 0.1-3.9 0.9-4 0.9 0 0 0 0-0.1 0z"/>
			<path id="Layer" class="s13" d="m151.7 124.2h28.3l5.9 2.1h-28.3z"/>
			<path id="Layer" class="s1" d="m157.5 126.4h28.4v1.1h-28.4z"/>
			<path id="Layer" class="s8" d="m157.5 126.3v1.2l-5.8-2v-1.3z"/>
			<path id="Layer" class="s11" d="m151.7 124.2l-4.3-14.6c-0.1-0.3 0.1-0.6 0.5-0.6h26.3c0.2 0 0.4 0.1 0.5 0.3l5.3 14.9z"/>
			<path id="Layer" class="s1" d="m176.3 122.4h-21.3c-0.3 0-0.5-0.2-0.6-0.4l-3.3-11.3c-0.1-0.2 0.1-0.4 0.3-0.4h21.1c0.1 0 0.3 0.1 0.3 0.2l4 11.1c0.1 0.4-0.1 0.8-0.5 0.8z"/>
			<path id="Layer" class="s6" d="m207.8 125.9c0 0 8.3 3.3 13.4 11.4 4.6 7.5 4.7 14.1-3.1 16-7.9 2-15.7-5.6-15.7-5.6l4.1-8.3 1.8 0.7z"/>
			<path id="Layer" class="s4" d="m204.1 139.9q-0.1 0-0.2-0.1l-0.4-1.4q0.1-0.2 0.1-0.2 0.2 0.1 0.2 0.1l0.4 1.4c0 0.1 0 0.2-0.1 0.2z"/>
			<path id="Layer" class="s4" d="m199.3 139.2c-0.1 0-0.2 0-0.2 0l-0.5-0.6c0-0.1 0-0.2 0-0.3 0.1 0 0.2 0 0.2 0l0.6 0.7c0 0 0 0.1 0 0.2-0.1 0-0.1 0-0.1 0z"/>
			<path id="Layer" class="s4" d="m200.7 138.1c0 0-0.1 0-0.1-0.1l-0.5-0.5c-0.1-0.1-0.1-0.2 0-0.2 0-0.1 0.1-0.1 0.2 0l0.5 0.5c0.1 0.1 0.1 0.2 0 0.2 0 0.1 0 0.1-0.1 0.1z"/>
			<path id="Layer" class="s1" d="m217.4 142.9c-0.1 0-0.1 0-0.1-0.1-3.6-2.3-9-3.1-9.1-3.1-0.1 0-0.1-0.1-0.1-0.3 0-0.1 0.1-0.1 0.2-0.1 0 0 5.5 0.9 9.2 3.2 0.1 0.1 0.1 0.2 0 0.3q0 0.1-0.1 0.1z"/>
			<path id="Layer" fill-rule="evenodd" class="s1" d="m216.2 141.3c-1.1 0-2.4-0.2-2.9-0.4 0 0-0.1-0.1-0.1-0.2 0 0 0.1-0.2 0.1-0.2 0.2 0 3.2-1.1 4.2-0.2 0.3 0.3 0.2 0.5 0.2 0.6-0.2 0.3-0.8 0.4-1.5 0.4zm-2.2-0.6c1.2 0.3 3.2 0.3 3.3 0.1 0 0 0-0.1-0.1-0.1-0.5-0.6-2.2-0.3-3.2 0z"/>
			<path id="Layer" fill-rule="evenodd" class="s1" d="m183.2 133.4q-0.2 0-0.3-0.2c-0.5-0.6 0.6-2.8 0.8-3.3 0.1 0 0.1-0.1 0.2-0.1 0.1 0 0.2 0.1 0.2 0.2 0 0.3 0.2 2.5-0.4 3.2-0.1 0.1-0.3 0.2-0.5 0.2zm0.6-2.7c-0.5 1-0.8 2.1-0.6 2.3 0 0 0 0.1 0.1 0 0 0 0.1 0 0.2-0.1 0.3-0.3 0.3-1.4 0.3-2.2z"/>
			<path id="Layer" class="s1" d="m208.2 151.9c0 0 0 0-0.1 0-0.1-0.1-4.1-2.2-5.4-4-0.1-0.1-0.1-0.2 0-0.2q0.1-0.1 0.1-0.1c0.3 0 1.1 0 1.3-0.3 0.2-0.4-0.2-1.1-0.6-1.5 0-0.1 0-0.2 0-0.2q0.1-0.1 0.2-0.1c0 0 1.8 0.1 2.5-0.7 0.6-0.6-0.6-2.4-1-3q-0.1-0.1 0-0.2 0.1-0.1 0.1-0.1c0 0 1.1 0 1.7-0.6q0.1-0.1 0.1-0.3c0-0.4-0.5-1-0.7-1.1-0.1-0.1-0.1-0.2 0-0.3 0 0 0.1-0.1 0.2 0 0.1 0.1 0.9 0.7 0.9 1.4q0 0.3-0.2 0.6c-0.5 0.5-1.2 0.6-1.6 0.7 0.4 0.7 1.6 2.4 0.8 3.2-0.6 0.7-1.8 0.8-2.4 0.8 0.3 0.4 0.7 1 0.4 1.6-0.2 0.4-0.8 0.5-1.2 0.5 1.5 1.7 5 3.7 5.1 3.7 0.1 0 0.1 0.1 0 0.2 0 0-0.1 0-0.2 0z"/>
			<path id="Layer" class="s4" d="m205.2 113.5c0 0 4-6 6.1-2.1 2 3.9-3.7 9.3-5.8 7.3-2.2-1.9-0.3-5.2-0.3-5.2z"/>
			<path id="Layer" class="s7" d="m203.5 122.1l-0.1 4.4c0 0-0.7 0.5-3 0.6-1.7 0.1-2.2-0.3-2.2-0.3l0.5-3.8 4.1-0.8z"/>
			<path id="Layer" class="s4" d="m202.8 122.3c0 0.1 0 0.2-0.1 0.3-0.9 1.9-3.2 2.3-4.2 2.3l0.3-1.9z"/>
			<path id="Layer" class="s7" d="m204.5 117.1l-0.8 1.4c0 0 1-0.5 1.8-0.2 0.8 0.4 1.3 1.8 0.3 3.1-0.9 1.3-2.3 0.8-2.3 0.8 0 0-0.7 0.8-2.2 1.4-1.4 0.4-3.9 0.8-4.6-1.9-0.7-2.7 1.5-7.5 1.5-7.5 3.4-4.3 6.3 2.9 6.3 2.9z"/>
			<path id="Layer" class="s4" d="m203.7 118.5c0 0-2 0.4-3.4-1.9-1.5-2.3-1.3-3.2-1.3-3.2l-1.4 2.3c0 0-0.3-1.6 0.3-2.7 0.7-1 1.4-0.8 1.4-0.8l4.5 1.2 1.2 3.6z"/>
			<path id="Layer" class="s4" d="m198.3 120.3c0 0-0.1 0-0.1-0.1-0.3-1 0.4-2.1 0.4-2.1 0.1-0.1 0.2-0.1 0.3-0.1 0 0.1 0.1 0.2 0 0.3 0 0-0.6 0.9-0.4 1.8 0 0.1-0.1 0.2-0.2 0.2z"/>
			<path id="Layer" class="s4" d="m200.5 117c-0.1 0-0.2 0-0.2-0.1-0.2-0.7-0.6-0.6-0.6-0.6-0.1 0-0.2-0.1-0.2-0.1 0-0.1 0-0.2 0.1-0.2 0 0 0.7-0.2 1 0.8 0.1 0.1 0 0.2-0.1 0.2z"/>
			<path id="Layer" class="s4" d="m197.5 116.3q-0.1 0 0 0-0.3-0.1-0.2-0.2c0-0.1 0.1-0.4 0.4-0.5 0.2-0.1 0.4-0.1 0.7 0.1 0.1 0 0.1 0.1 0 0.2 0 0.1-0.1 0.1-0.2 0.1-0.1-0.1-0.3-0.2-0.4-0.1-0.1 0-0.2 0.2-0.2 0.2 0 0.1-0.1 0.2-0.1 0.2z"/>
			<path id="Layer" class="s4" d="m203.9 120.7c-0.1 0-0.1 0-0.1 0q-0.1-0.1 0-0.3l1.3-1.4q0.1 0 0.3 0 0.1 0.1 0 0.3l-1.3 1.4q-0.1 0-0.2 0z"/>
			<path id="Layer" class="s4" d="m205.3 120.4l-0.9-0.2c-0.1 0-0.2-0.1-0.2-0.2 0-0.1 0.1-0.1 0.2-0.1l0.9 0.1c0.1 0 0.2 0.1 0.2 0.2 0 0.1-0.1 0.2-0.2 0.2z"/>
			<path id="Layer" class="s4" d="m197.5 118.4c-0.1 0-0.2-0.1-0.2-0.2l0.1-0.8-0.3-0.4c0 0 0-0.2 0.1-0.2 0-0.1 0.2-0.1 0.2 0l0.3 0.5q0.1 0 0.1 0.1l-0.2 0.9q0 0.1-0.1 0.1z"/>
			<path id="Layer" class="s4" d="m200.1 118.7c-0.1 0-0.2-0.1-0.2-0.2l0.1-0.8-0.4-0.4q-0.1-0.1 0-0.3 0.1-0.1 0.3 0l0.5 0.5q0 0.1 0 0.2l-0.1 0.8q-0.1 0.2-0.2 0.2z"/>
			<path id="Layer" fill-rule="evenodd" class="s4" d="m198.9 122.1c-0.4 0-1-0.4-1.1-0.5 0 0-0.1-0.1 0-0.1q0-0.1 0.1-0.2l2.1-0.4c0.1 0 0.2 0 0.2 0 0 0.1 0 0.2 0 0.2-0.1 0.1-0.5 0.8-1.1 0.9-0.1 0.1-0.1 0.1-0.2 0.1zm-0.5-0.5c0.2 0.1 0.5 0.2 0.6 0.1 0.2 0 0.4-0.2 0.6-0.4z"/>
			<path id="Layer" class="s3" d="m155.6 111.3h12.8c0.2 0 0.3 0.2 0.4 0.3l2.6 9.1c0.1 0.2 0 0.3-0.2 0.3h-12.9c-0.1 0-0.3-0.1-0.3-0.3l-2.6-9.1c0-0.1 0-0.3 0.2-0.3z"/>
			<path id="Layer" class="s14" d="m155.6 111.3h12.9c0.1 0 0.3 0.2 0.3 0.3l0.2 0.5h-13.5l-0.1-0.5c0-0.1 0-0.3 0.2-0.3z"/>
			<path id="Layer" class="s1" d="m160 115.7h-2l-0.5-2h1.9z"/>
			<path id="Layer" class="s1" d="m160.7 118h-2l-0.5-1.9h1.9z"/>
			<path id="Layer" class="s1" d="m161.3 120.4h-2l-0.5-2h1.9z"/>
			<path id="Layer" class="s15" d="m168.1 114.6h-7.8l-0.1-0.3h7.8z"/>
			<path id="Layer" class="s15" d="m168.7 116.9h-7.8l-0.1-0.2h7.9z"/>
			<path id="Layer" class="s5" d="m158.8 115.4l-0.9-0.6 0.1-0.3 0.7 0.4 0.4-0.8 0.3 0.2z"/>
			<path id="Layer" class="s5" d="m159.6 117.7l-1-0.6 0.2-0.2 0.6 0.4 0.5-0.8 0.3 0.1z"/>
			<path id="Layer" fill-rule="evenodd" class="s1" d="m200.4 129.3c-0.1 0-0.2 0-0.2 0-0.5-0.1-0.8-0.3-1.1-0.6-0.2-0.3-0.2-0.6-0.2-0.9-0.4 0.3-1.2 0.8-1.7 0.6q-0.2-0.1-0.2-0.3c-0.2-0.5 0.4-1.4 0.6-1.6 0 0 0.1-0.1 0.2 0 0 0 3.2 1.7 6.2-0.5q0 0 0.1 0c0.1 0 0.1 0.1 0.1 0.1 0.1 0.2 0.4 1.4-0.3 1.7-0.5 0.2-1-0.1-1.3-0.3-0.2 0.5-1 1.8-2.2 1.8zm-1.1-1.9c0 0 0.1 0.1 0 0.1 0 0-0.2 0.6 0.1 1q0.2 0.3 0.8 0.4c1.2 0.2 2.1-1.4 2.2-1.7-1.1 0.4-2.2 0.4-3.1 0.2zm-1.5-0.5c-0.3 0.4-0.5 0.9-0.5 1.1 0 0.1 0.1 0.1 0.1 0.1 0.3 0.1 1.1-0.4 1.6-0.8-0.6-0.1-1-0.3-1.2-0.4zm4.9 0.2c0 0 0 0.1 0 0 0.1 0 0.6 0.6 1.1 0.4 0.3-0.2 0.3-0.7 0.2-1.1q-0.7 0.5-1.3 0.7z"/>
			<path id="Layer" class="s1" d="m189.7 142.5c-0.1 0-0.2-0.1-0.2-0.1l0.1-4.5c-0.1-0.2-0.6-1.8-0.4-3.9 0.4-3.2 2.5-4.6 2.6-4.6 0.1-0.1 0.2 0 0.2 0 0.1 0.1 0 0.2 0 0.3 0 0-2 1.3-2.4 4.3-0.2 2.3 0.5 3.8 0.5 3.8v0.1l-0.1 4.4c-0.1 0.1-0.2 0.2-0.3 0.2z"/>
			<path id="Layer" class="s1" d="m199.7 178c-0.9 0-1.5-0.1-1.6-0.1-0.1 0-0.1-0.1-0.1-0.2 0-0.1 0.1-0.2 0.2-0.2 0 0 3.1 0.7 4.5-1 0.4-0.5 0.5-1 0.5-1.5-0.1-0.7-0.8-1.1-0.8-1.1-0.1-0.1-0.1-0.1-0.1-0.1q0-0.1 0-0.2c0.1 0 2.6-2.7 1-5.7-0.5-0.8-1.1-1.4-1.9-1.6-1.2-0.3-2.4 0.4-2.4 0.4-0.1 0-0.2 0-0.2 0-0.1-0.1-0.1-0.1-0.1-0.2 0.1-0.6 0.3-2.1-0.1-2.6q-0.2-0.1-0.4-0.1c-1.3 0.1-2.4 1.8-2.4 1.8-0.1 0.1-0.2 0.1-0.3 0.1-0.1-0.1-0.1-0.2 0-0.3 0 0 1.2-1.8 2.6-2 0.3 0 0.5 0.1 0.7 0.3 0.6 0.6 0.5 1.9 0.3 2.6 0.5-0.3 1.4-0.6 2.4-0.3q1.3 0.4 2.1 1.8c1.5 2.8-0.4 5.4-0.9 6 0.3 0.2 0.7 0.6 0.8 1.3 0.1 0.5-0.1 1.1-0.6 1.8-0.7 0.9-2.1 1.1-3.2 1.1z"/>
			<path id="Layer" fill-rule="evenodd" class="s1" d="m211.1 186.1c-1.5 0-2.7-2.2-3-2.7-0.5 0.1-2.1 0.4-3.2-0.3q-0.8-0.5-1-1.6-0.3-1.1 0.3-1.7c0.6-0.7 1.7-0.7 2.2-0.7-0.1-0.6-0.3-1.8 0.4-2.5 0.4-0.4 1-0.4 1.9-0.2 0.3-0.4 1.4-1.6 3.2-1.4 0.4 0.1 0.8 0.3 0.9 0.7 0.5 0.8-0.1 2.3-0.3 2.8 0.6 0.2 2.3 0.9 2.7 1.8q0.3 0.6-0.1 1.2c-0.9 1.4-2.3 1.5-2.9 1.4 0.2 0.6 0.5 1.7 0.1 2.4q-0.3 0.5-0.9 0.7c-0.1 0.1-0.2 0.1-0.3 0.1zm-2.9-3.2c0.1 0 0.2 0.1 0.2 0.1 0 0.1 1.3 3 2.9 2.7 0.4-0.1 0.6-0.2 0.7-0.5 0.4-0.8-0.2-2.4-0.2-2.4 0 0 0-0.1 0-0.2q0.1 0 0.2 0c0 0 1.7 0.3 2.8-1.2 0.2-0.4 0.2-0.6 0.1-0.9-0.4-1-2.7-1.7-2.7-1.7 0 0-0.1 0-0.1-0.1q0 0 0-0.1c0 0 0.9-1.9 0.4-2.8-0.1-0.2-0.3-0.4-0.7-0.5-1.8-0.3-2.8 1.3-2.8 1.4-0.1 0-0.1 0.1-0.2 0-0.9-0.2-1.4-0.2-1.8 0.2-0.6 0.6-0.1 2.2-0.1 2.2q0 0.1-0.1 0.2-0.1 0-0.1 0c0 0-1.6-0.1-2.3 0.7-0.3 0.3-0.3 0.8-0.2 1.4q0.2 0.9 0.9 1.3c1.3 0.8 3.1 0.2 3.1 0.2z"/>
			<path id="Layer" class="s1" d="m219.3 176.6c-0.4 0-0.7-0.1-1-0.3-1.7-1-1.1-4.3-1.1-4.4 0-0.1 0.1-0.2 0.2-0.2 0.1 0 0.2 0.1 0.2 0.2 0 0.1-0.6 3.3 0.9 4.1 1.5 1 4.1-1.4 4.2-1.5q0 0 0.1 0c0.1 0 0.1 0 0.1 0.1 0 0 0.7 1 1.6 1.1 0.7 0 1.4-0.4 2.1-1.2 0 0 0.1-0.1 0.2 0 0.1 0.1 0.1 0.2 0 0.3-0.7 0.9-1.5 1.3-2.3 1.3-0.9-0.1-1.5-0.8-1.8-1.1-0.5 0.4-2.1 1.6-3.4 1.6z"/>
			<path id="Layer" class="s1" d="m223.7 190c-0.1 0-0.1-0.1-0.1-0.1 0 0 0-0.7-0.9-1.5-0.7-0.6-2.3 0.4-2.9 0.8q-0.1 0.1-0.2 0.1c0 0-0.1-0.1-0.1-0.1 0-0.1-0.6-2.1-2.9-2.3-2.2-0.1-3.6 2.9-3.6 2.9 0 0.1-0.1 0.1-0.2 0.1-0.1 0-0.1-0.1-0.1-0.2 0.1-0.1 1.4-3.1 3.8-3.1q0.1 0 0.2 0c2 0.1 2.8 1.7 3.1 2.3 0.6-0.4 2.3-1.6 3.2-0.7 0.9 0.9 0.9 1.7 0.9 1.7 0 0-0.1 0.1-0.2 0.1z"/>
			<path id="Layer" class="s1" d="m210.5 168.5c0 0 0 0-0.1 0q-0.6-0.1-0.9-0.5c-0.3-0.4-0.2-0.9-0.2-1.2-0.8 0-3.5 0-3.9-2.2-0.4-2.2 1.9-3.8 2.6-4.2-0.2-0.4-0.5-1.2 0.2-1.8 0.9-0.9 3.2 1.1 3.5 1.4 0 0.1 0.1 0.2 0 0.3-0.1 0-0.2 0.1-0.3 0-0.9-0.9-2.5-2-3-1.5-0.7 0.7 0 1.6 0 1.6q0.1 0 0 0.1c0 0.1 0 0.1-0.1 0.1 0 0-3 1.6-2.5 3.9 0.5 2.3 3.7 1.9 3.8 1.9q0-0.1 0.1 0 0.1 0.1 0.1 0.2c0 0-0.3 0.7 0 1.1 0.2 0.2 0.4 0.3 0.7 0.3 1.4 0.1 2.2-1.6 2.2-1.6 0.1-0.1 0.2-0.1 0.3 0 0.1 0 0.1 0.1 0 0.2-0.1 0.1-1 1.9-2.5 1.9z"/>
			<path id="Layer" class="s16" d="m197.4 176c-0.3 0-2.8-0.1-3.1-2.2-0.2-1.8 0.8-3.7 1.1-4.2-0.6-0.5-3.3-3-2.5-5.7 0.8-2.8 2.9-3.9 3-4 0.1 0 0.2 0 0.3 0.1 0 0.1 0 0.2-0.1 0.2 0 0-2 1.1-2.8 3.9-0.7 2.6 2.5 5.3 2.5 5.3 0.1 0.1 0.1 0.2 0.1 0.3 0 0-1.5 2.2-1.2 4.1 0.2 1.9 2.7 1.9 2.8 1.9q0.1 0 0.1 0.1c0 0.1-0.1 0.2-0.2 0.2 0 0 0 0 0 0z"/>
			<path id="Layer" fill-rule="evenodd" class="s16" d="m196.1 199c-1.1 0-2.4-1.2-2.7-1.6-0.5 0.4-2.2 1.5-3.2 1.3-0.3-0.1-0.5-0.3-0.7-0.6-0.6-1.3 1.1-2.7 1.7-3.2-0.6-0.3-2-1.2-2-3.1q0-0.7 0.4-1.1c0.7-0.6 2-0.5 2.4-0.5 0.2-0.7 0.7-2.8 2.3-2.9 0.4 0 0.7 0.1 1 0.4 0.7 0.7 0.7 2.4 0.7 2.9 0.6 0.1 2.9 0.4 3.6 1.6 0.2 0.3 0.2 0.8 0.1 1.2-0.7 1.7-1.9 1.8-2.5 1.8 0.4 0.7 1.1 2.6-0.2 3.5-0.3 0.2-0.6 0.3-0.9 0.3zm-2.7-2q0.1 0 0.1 0.1c0 0 2 2.2 3.4 1.3 1.2-0.8-0.1-3.2-0.1-3.3-0.1 0-0.1-0.1 0-0.2 0.1 0 0.1-0.1 0.2 0 0 0 1.6 0.3 2.4-1.6 0.1-0.4 0.1-0.7-0.1-0.9-0.7-1.2-3.4-1.4-3.5-1.4-0.1 0-0.1-0.1-0.1-0.2 0 0 0.1-2.1-0.7-2.9-0.2-0.2-0.4-0.2-0.7-0.2-1.6 0.1-2 2.7-2 2.7 0 0.1-0.1 0.1-0.2 0.1 0 0-1.6-0.2-2.3 0.5-0.3 0.2-0.4 0.4-0.4 0.8 0 2.3 2 2.9 2.1 2.9q0.1 0 0.1 0.2c0 0 0 0.1-0.1 0.1 0 0-2.4 1.7-1.8 2.9 0.2 0.3 0.3 0.4 0.5 0.4 0.8 0.2 2.4-0.9 3-1.3 0.1 0 0.1 0 0.2 0z"/>
			<path id="Layer" class="s16" d="m185.4 187c-0.4 0-0.8 0-1.2-0.1-0.1 0-0.2-0.1-0.1-0.2 0-0.1 0.1-0.2 0.2-0.1 1.1 0.2 1.9 0.1 2.3-0.3 1-1 0.6-3 0.6-3q0-0.1 0-0.2c0.1-0.1 0.1-0.1 0.1-0.1 0.1 0 2.5-0.2 3.1-2.8 0.6-2.6-2.4-3.8-2.6-3.9 0 0-0.1 0-0.1-0.1q0 0 0-0.1c0 0 0.5-0.8 0.2-1.6-0.1-0.4-0.4-0.7-0.9-1-0.2-0.1-0.5-0.1-0.8 0-1.3 0.4-2.4 2.9-2.4 2.9-0.1 0.1-0.2 0.1-0.3 0.1-0.1-0.1-0.1-0.2-0.1-0.3 0.1-0.1 1.2-2.6 2.7-3.1 0.4-0.1 0.7-0.1 1.1 0.1 0.5 0.3 0.9 0.7 1 1.2 0.2 0.7 0 1.4-0.1 1.7 0.7 0.3 3.2 1.7 2.6 4.2-0.5 2.4-2.5 3-3.1 3.1 0.1 0.5 0.2 2.2-0.7 3.1-0.4 0.3-0.9 0.5-1.5 0.5z"/>
			<path id="Layer" class="s16" d="m184.8 168.1q-0.1 0-0.2 0c-0.1 0-0.1-0.1-0.1-0.2q0-0.2 0.2-0.2 0.8 0 1.4-0.5c1.1-1.2 0.8-3.9 0.8-3.9 0-0.1 0.1-0.2 0.1-0.2 0.1 0 1.3-0.5 1.7-2.2 0.3-1.7-1.7-2.6-1.7-2.6-0.1 0-0.1-0.1-0.1-0.2 0.1-0.1 0.2-0.1 0.2-0.1 0 0 2.3 1 1.9 2.9-0.3 1.6-1.4 2.2-1.8 2.4 0.1 0.5 0.2 2.9-0.9 4.1-0.4 0.5-0.9 0.7-1.5 0.7z"/>
			<path id="Layer" class="s1" d="m200.8 182.2q0 0-0.1-0.1c-6.4-8.3-5.4-17.8-4.8-23 0-0.3 0-0.6 0.1-0.9l-4.5-0.2c-0.1 0-0.2-0.1-0.2-0.2 0-0.1 0.1-0.3 0.2-0.2l4.7 0.3c0 0 0.1 0 0.1 0q0.1 0.1 0 0.2c0 0.3 0 0.7-0.1 1.1-0.5 5.1-1.5 14.5 4.8 22.7 0 0.1 0 0.2-0.1 0.3q-0.1 0-0.1 0z"/>
			<path id="Layer" class="s3" d="m163.1 194.8h-38.2c-1.5 0-2.6-1.2-2.6-2.6v-51.2c0-1.4 1.1-2.6 2.6-2.6h38.2c1.5 0 2.6 1.2 2.6 2.6v51.2c0 1.4-1.1 2.6-2.6 2.6z"/>
			<path id="Layer" class="s1" d="m134.1 152.7h-7.4c-0.5 0-0.9-0.4-0.9-0.9v-7.4c0-0.5 0.4-0.9 0.9-0.9h7.4c0.5 0 0.9 0.4 0.9 0.9v7.4c0 0.5-0.4 0.9-0.9 0.9z"/>
			<path id="Layer" class="s1" d="m134.1 166.9h-7.4c-0.5 0-0.9-0.4-0.9-1v-7.3c0-0.5 0.4-1 0.9-1h7.4c0.5 0 0.9 0.5 0.9 1v7.3c0 0.6-0.4 1-0.9 1z"/>
			<path id="Layer" class="s1" d="m134.1 181.2h-7.4c-0.5 0-0.9-0.5-0.9-1v-7.3c0-0.6 0.4-1 0.9-1h7.4c0.5 0 0.9 0.4 0.9 1v7.3c0 0.5-0.4 1-0.9 1z"/>
			<path id="Layer" class="s5" d="m130.2 151.1l-2.9-2.9 1.1-1.1 1.6 1.7 2.3-3 1.2 0.9z"/>
			<path id="Layer" class="s5" d="m130.2 165.3l-2.9-2.9 1.1-1.1 1.6 1.7 2.3-3 1.2 0.9z"/>
			<path id="Layer" class="s5" d="m130.2 179.5l-2.9-2.9 1.1-1.1 1.6 1.7 2.3-3 1.2 0.9z"/>
			<path id="Layer" class="s6" d="m159.6 146.5l-20.3 0.1v-1.5l20.3-0.2z"/>
			<path id="Layer" class="s6" d="m154.3 150.7l-15 0.1v-1.5l15-0.1z"/>
			<path id="Layer" class="s2" d="m154.9 160.6l-15 0.1v-1.6l15-0.1z"/>
			<path id="Layer" class="s2" d="m159.6 164.8l-19.7 0.1v-1.6l19.7-0.1z"/>
			<path id="Layer" class="s2" d="m160.2 174.7l-20.3 0.1v-1.5l20.3-0.1z"/>
			<path id="Layer" class="s2" d="m154.9 178.9l-15 0.1v-1.5l15-0.1z"/>
			<path id="Layer" class="s6" d="m189.4 92.6l0.2-1.4 21.9-26.9c0.5-0.7 1.4-0.7 2-0.2 0.6 0.5 0.8 1.4 0.3 2l-21.9 27-1.3 0.4-1.1 0.4c-0.1 0.1-0.3 0-0.2-0.2z"/>
			<path id="Layer" class="s8" d="m209.2 73.3c-0.1 0-0.2-0.1-0.3-0.1-0.1-0.2-0.1-0.4 0-0.5 0.1-0.1 3-3.4 4.1-5.1 0.9-1.4-0.3-2.3-0.4-2.4-0.2-0.1-0.2-0.4-0.1-0.5 0.1-0.2 0.3-0.2 0.5-0.1 0.7 0.4 1.6 1.7 0.6 3.3-1.1 1.8-4 5.1-4.2 5.2q-0.1 0.2-0.2 0.2z"/>
			<path id="Layer" class="s1" d="m190.8 90.6q-0.1 0 0-0.1l4.1-5.1q0.1-0.1 0.2 0 0 0 0 0.1l-4.2 5.1q0 0-0.1 0z"/>
		</g>
	</g>
</svg>