<svg width="16" height="16" viewBox="0 0 16 16" fill="none" xmlns="http://www.w3.org/2000/svg">
<path d="M9.57585 1.65657C9.48359 1.47833 9.3212 1.35254 9.11878 1.30228L3.96713 0.0237661C3.64001 -0.0575596 3.48104 0.0905082 3.42795 0.15792C3.37438 0.225667 3.26649 0.41596 3.42248 0.718643L4.16014 2.15129C2.85506 2.95529 -1.29087 5.92114 0.398699 10.2511C0.436348 10.3478 0.529095 10.4116 0.63304 10.4126C0.633784 10.4126 0.634491 10.4126 0.635272 10.4126C0.738213 10.4126 0.83096 10.3504 0.87006 10.2553C0.88416 10.221 2.30089 6.87573 6.04946 5.82092L6.78611 7.25137C6.94162 7.55387 7.15863 7.57627 7.24516 7.57113C7.33125 7.56667 7.54453 7.52217 7.66708 7.20699L9.60115 2.23734C9.6763 2.04463 9.66715 1.83287 9.57585 1.65657ZM9.12785 2.05293L7.21343 6.97198L6.40739 5.40629C6.35329 5.30108 6.2345 5.24732 6.11895 5.27645C2.917 6.09157 1.28826 8.40857 0.682855 9.49374C-0.36679 5.59681 3.74987 2.9724 4.62239 2.46659C4.73947 2.39873 4.78266 2.25096 4.7206 2.13057L3.89645 0.529466L8.99615 1.79515C9.05564 1.80995 9.10003 1.84277 9.12462 1.89002C9.14917 1.93745 9.15018 1.99523 9.12785 2.05293Z" fill="#ACACAC"/>
<path d="M14.8418 5.74856C14.8042 5.6518 14.7112 5.58781 14.6072 5.58691C14.6067 5.58691 14.606 5.58691 14.6052 5.58691C14.5023 5.58691 14.4093 5.64915 14.3701 5.74462C14.3563 5.77884 12.9488 9.12186 9.19098 10.1785L8.45432 8.74827C8.29859 8.44581 8.08062 8.42471 7.99528 8.4284C7.90919 8.4329 7.6959 8.47728 7.57336 8.79235L5.63929 13.7621C5.5641 13.955 5.57333 14.1668 5.66481 14.3431C5.75707 14.5212 5.91924 14.6469 6.12162 14.6971L11.2735 15.9759C11.3405 15.9926 11.4005 15.9995 11.4539 15.9995C11.6609 15.9995 11.7703 15.895 11.8124 15.8414C11.866 15.7737 11.9739 15.5834 11.8179 15.2807L11.0803 13.8481C12.3854 13.0439 16.5311 10.0779 14.8418 5.74856ZM10.6182 13.5327C10.5011 13.6005 10.4579 13.7483 10.5199 13.8687L11.3443 15.4701L6.24406 14.2041C6.18476 14.1895 6.14037 14.1567 6.11582 14.1094C6.09123 14.062 6.09004 14.0041 6.11258 13.9463L8.02679 9.02733L8.8332 10.5928C8.88729 10.698 9.00608 10.7521 9.12163 10.7227C12.3235 9.90781 13.9523 7.59089 14.5577 6.50579C15.607 10.4021 11.4907 13.0268 10.6182 13.5327Z" fill="#ACACAC"/>
</svg>
