<svg width="128" height="128" viewBox="0 0 128 128" fill="none" xmlns="http://www.w3.org/2000/svg">
<path d="M69.3741 110.928C66.319 111.539 63.1593 111.86 59.9255 111.86C33.4666 111.86 11.9852 90.3787 11.9852 63.9201C11.9852 37.4612 33.4666 15.9798 59.9255 15.9798C83.7731 15.9798 103.578 33.4299 107.254 56.2477C107.429 57.336 108.455 58.0774 109.544 57.902C110.632 57.7269 111.373 56.7007 111.198 55.6124C107.216 30.8922 85.7614 11.9849 59.9255 11.9849C31.2618 11.9849 7.99023 35.2564 7.99023 63.9201C7.99023 92.5839 31.2618 115.855 59.9255 115.855C63.4279 115.855 66.8497 115.507 70.1583 114.845C71.2391 114.629 71.9413 113.576 71.7249 112.494C71.5084 111.414 70.455 110.711 69.3741 110.928Z" fill="url(#paint0_linear_1428_3403)"/>
<path d="M99.0153 55.9302C98.6115 55.9302 98.2473 56.1732 98.0926 56.5464C97.938 56.9197 98.0236 57.3493 98.3091 57.6352C101.112 60.4382 106.577 65.903 108.52 67.8457C108.707 68.033 108.961 68.1384 109.226 68.1384C109.491 68.1384 109.745 68.033 109.932 67.8457C111.875 65.903 117.34 60.4382 120.143 57.6352C120.429 57.3493 120.514 56.9197 120.36 56.5464C120.205 56.1732 119.841 55.9302 119.437 55.9302C114.616 55.9302 103.836 55.9302 99.0153 55.9302Z" fill="url(#paint1_linear_1428_3403)"/>
<g filter="url(#filter0_d_1428_3403)">
<path d="M80.698 49.99C80.4679 47.5187 78.3941 45.6292 75.9121 45.6292C67.9777 45.6292 51.3139 45.6292 43.3794 45.6292C40.8974 45.6292 38.8236 47.5187 38.5935 49.99C37.8196 58.3021 36.123 76.5189 35.1454 87.0175C34.9572 89.037 35.6286 91.0425 36.9949 92.5418C38.361 94.0412 40.2957 94.8957 42.3241 94.8957H76.9674C78.996 94.8957 80.9305 94.0412 82.2966 92.5418C83.663 91.0425 84.3343 89.037 84.1462 87.0175C83.1685 76.5189 81.4721 58.3021 80.698 49.99Z" fill="url(#paint2_linear_1428_3403)"/>
</g>
<path d="M92.6224 62.2271C92.5062 60.9923 91.4698 60.0488 90.2298 60.0488C84.7664 60.0488 70.574 60.0488 65.1109 60.0488C63.8709 60.0488 62.8344 60.9923 62.7183 62.2271C62.2085 67.6482 60.8711 81.8679 60.1403 89.6393C60.0135 90.9864 60.4606 92.3244 61.3714 93.3249C62.2822 94.3255 63.5726 94.8959 64.9258 94.8959H90.4149C91.768 94.8959 93.0584 94.3255 93.9692 93.3249C94.8801 92.3244 95.3269 90.9864 95.2004 89.6393C94.4695 81.8679 93.1322 67.6482 92.6224 62.2271Z" fill="url(#paint3_linear_1428_3403)"/>
<path d="M70.4627 51.6374V42.0243C70.4627 39.1561 69.3233 36.4055 67.2951 34.3773C65.267 32.3491 62.5164 31.2097 59.6481 31.2097C59.6464 31.2097 59.6445 31.2097 59.6427 31.2097C56.7747 31.2097 54.0239 32.3491 51.9957 34.3773C49.9676 36.4055 48.8281 39.1561 48.8281 42.0243V51.6374C48.8281 52.3006 49.3667 52.8389 50.0298 52.8389C50.693 52.8389 51.2313 52.3006 51.2313 51.6374C51.2313 51.6374 51.2313 46.831 51.2313 42.0243C51.2313 39.7935 52.1177 37.6541 53.6951 36.0767C55.2725 34.4993 57.4119 33.6129 59.6427 33.6129H59.6481C61.879 33.6129 64.0183 34.4993 65.5957 36.0767C67.1732 37.6541 68.0595 39.7935 68.0595 42.0243V51.6374C68.0595 52.3006 68.5979 52.8389 69.261 52.8389C69.9242 52.8389 70.4627 52.3006 70.4627 51.6374Z" fill="url(#paint4_linear_1428_3403)"/>
<path d="M83.6803 67.2584V70.8633C83.6803 72.4567 83.0472 73.9848 81.9205 75.1117C80.7939 76.2384 79.2655 76.8713 77.6721 76.8713H77.6682C76.0748 76.8713 74.5465 76.2384 73.4198 75.1117C72.2931 73.9848 71.6601 72.4567 71.6601 70.8633V67.2584C71.6601 66.5952 71.1217 66.0566 70.4583 66.0566C69.7952 66.0566 69.2568 66.5952 69.2568 67.2584V70.8633C69.2568 73.0941 70.143 75.2335 71.7204 76.8109C73.2978 78.3883 75.4374 79.2747 77.6682 79.2747H77.6721C79.903 79.2747 82.0425 78.3883 83.6199 76.8109C85.1974 75.2335 86.0835 73.0941 86.0835 70.8633V67.2584C86.0835 66.5952 85.5451 66.0566 84.8818 66.0566C84.2186 66.0566 83.6803 66.5952 83.6803 67.2584Z" fill="url(#paint5_linear_1428_3403)"/>
<path d="M50.0331 55.2422C51.3604 55.2422 52.4363 54.1663 52.4363 52.839C52.4363 51.5117 51.3604 50.4358 50.0331 50.4358C48.7058 50.4358 47.6299 51.5117 47.6299 52.839C47.6299 54.1663 48.7058 55.2422 50.0331 55.2422Z" fill="url(#paint6_linear_1428_3403)"/>
<path d="M69.2587 55.2422C70.5859 55.2422 71.6619 54.1663 71.6619 52.839C71.6619 51.5117 70.5859 50.4358 69.2587 50.4358C67.9314 50.4358 66.8555 51.5117 66.8555 52.839C66.8555 54.1663 67.9314 55.2422 69.2587 55.2422Z" fill="url(#paint7_linear_1428_3403)"/>
<defs>
<filter id="filter0_d_1428_3403" x="30.1143" y="45.6292" width="59.0635" height="64.2666" filterUnits="userSpaceOnUse" color-interpolation-filters="sRGB">
<feFlood flood-opacity="0" result="BackgroundImageFix"/>
<feColorMatrix in="SourceAlpha" type="matrix" values="0 0 0 0 0 0 0 0 0 0 0 0 0 0 0 0 0 0 127 0" result="hardAlpha"/>
<feMorphology radius="5" operator="erode" in="SourceAlpha" result="effect1_dropShadow_1428_3403"/>
<feOffset dy="10"/>
<feGaussianBlur stdDeviation="5"/>
<feComposite in2="hardAlpha" operator="out"/>
<feColorMatrix type="matrix" values="0 0 0 0 0.898039 0 0 0 0 0.74902 0 0 0 0 0.823529 0 0 0 0.2 0"/>
<feBlend mode="normal" in2="BackgroundImageFix" result="effect1_dropShadow_1428_3403"/>
<feBlend mode="normal" in="SourceGraphic" in2="effect1_dropShadow_1428_3403" result="shape"/>
</filter>
<linearGradient id="paint0_linear_1428_3403" x1="35.4467" y1="128.306" x2="127.344" y2="114.75" gradientUnits="userSpaceOnUse">
<stop stop-color="#E11A7D"/>
<stop offset="1" stop-color="#FFA6D2"/>
</linearGradient>
<linearGradient id="paint1_linear_1428_3403" x1="103.979" y1="69.6017" x2="122.961" y2="64.4283" gradientUnits="userSpaceOnUse">
<stop stop-color="#E11A7D"/>
<stop offset="1" stop-color="#FFA6D2"/>
</linearGradient>
<linearGradient id="paint2_linear_1428_3403" x1="48.1633" y1="100.801" x2="91.8348" y2="94.3464" gradientUnits="userSpaceOnUse">
<stop stop-color="#E11A7D"/>
<stop offset="1" stop-color="#FFA6D2"/>
</linearGradient>
<linearGradient id="paint3_linear_1428_3403" x1="72.0883" y1="61.0636" x2="86.9176" y2="90.284" gradientUnits="userSpaceOnUse">
<stop stop-color="#E9F5F8"/>
<stop offset="1" stop-color="#DDE6EF"/>
</linearGradient>
<linearGradient id="paint4_linear_1428_3403" x1="51.2342" y1="32.4114" x2="69.2584" y2="56.4439" gradientUnits="userSpaceOnUse">
<stop stop-color="#477294"/>
<stop offset="1" stop-color="#1C3D57"/>
</linearGradient>
<linearGradient id="paint5_linear_1428_3403" x1="69.2568" y1="72.6657" x2="86.0835" y2="72.6657" gradientUnits="userSpaceOnUse">
<stop stop-color="#477294"/>
<stop offset="1" stop-color="#1C3D57"/>
</linearGradient>
<linearGradient id="paint6_linear_1428_3403" x1="51.2348" y1="32.4115" x2="69.2591" y2="56.444" gradientUnits="userSpaceOnUse">
<stop stop-color="#477294"/>
<stop offset="1" stop-color="#1C3D57"/>
</linearGradient>
<linearGradient id="paint7_linear_1428_3403" x1="51.2344" y1="32.4115" x2="69.2587" y2="56.4439" gradientUnits="userSpaceOnUse">
<stop stop-color="#477294"/>
<stop offset="1" stop-color="#1C3D57"/>
</linearGradient>
</defs>
</svg>
