<svg width="50" height="50" viewBox="0 0 50 50" fill="none" xmlns="http://www.w3.org/2000/svg">
<g filter="url(#filter0_i_1566_3204)">
<path d="M26.4415 5.53082C26.1901 5.48574 25.9326 5.5665 25.752 5.74711C25.752 5.74711 10.2989 21.2002 4.45031 27.0488C3.71871 27.7804 3.30762 28.7727 3.30762 29.8074C3.30762 30.8422 3.71871 31.8345 4.45031 32.5661C7.61871 35.7346 13.4229 41.5388 16.5915 44.7072C17.3231 45.4388 18.3153 45.8499 19.3502 45.8499C20.3849 45.8499 21.3771 45.4388 22.1087 44.7072C27.9573 38.8586 43.4104 23.4055 43.4104 23.4055C43.5868 23.2291 43.6683 22.9791 43.6295 22.7326L41.4325 8.75259C41.3808 8.42408 41.1267 8.16439 40.7995 8.10568L26.4415 5.53082Z" fill="url(#paint0_linear_1566_3204)"/>
</g>
<path d="M17.1145 24.0691C17.8757 23.3077 19.1118 23.3077 19.8731 24.0691C20.6344 24.8303 20.6344 26.0664 19.8731 26.8277C19.1118 27.589 17.8757 27.589 17.1145 26.8277C16.3531 26.0664 16.3531 24.8303 17.1145 24.0691Z" fill="white"/>
<path d="M27.7223 24.194C28.4835 23.4327 29.7198 23.4327 30.481 24.194C31.2423 24.9552 31.2423 26.1913 30.481 26.9527C29.7198 27.7139 28.4835 27.7139 27.7223 26.9527C26.9611 26.1913 26.9611 24.9552 27.7223 24.194Z" fill="white"/>
<path d="M37.8455 11.5219C36.3955 10.0719 36.3955 7.71738 37.8455 6.26738C39.2955 4.81738 41.65 4.81738 43.1 6.26738C44.55 7.71738 44.55 10.0719 43.1 11.5219C42.778 11.8438 42.3869 12.1047 41.9955 12.2837L42.2486 13.8854C42.9485 13.6299 43.6423 13.1865 44.2034 12.6254C46.2625 10.5663 46.2625 7.223 44.2034 5.16387C42.1444 3.10488 38.8011 3.10488 36.742 5.16387C34.683 7.223 34.683 10.5663 36.742 12.6254C37.0465 12.9299 37.541 12.9299 37.8455 12.6254C38.15 12.3208 38.15 11.8264 37.8455 11.5219Z" fill="url(#paint1_linear_1566_3204)"/>
<path d="M23.3629 32.6407C23.3129 33.0047 23.5272 33.3647 23.8883 33.4856C24.2968 33.6223 24.7393 33.4017 24.876 32.9933C24.8914 32.9471 24.9222 32.8317 24.9241 32.648C24.9265 32.4152 24.8975 31.8489 24.8449 31.0666C24.5923 27.2998 23.8098 18.3327 23.8098 18.3327C23.7725 17.9036 23.3937 17.5857 22.9647 17.6231C22.5357 17.6606 22.2178 18.0393 22.2552 18.4683C22.2552 18.4683 23.0358 27.4134 23.2879 31.1711C23.3369 31.9026 23.36 32.5509 23.3629 32.6407Z" fill="white"/>
<defs>
<filter id="filter0_i_1566_3204" x="3.30762" y="5.51855" width="40.3313" height="42.3315" filterUnits="userSpaceOnUse" color-interpolation-filters="sRGB">
<feFlood flood-opacity="0" result="BackgroundImageFix"/>
<feBlend mode="normal" in="SourceGraphic" in2="BackgroundImageFix" result="shape"/>
<feColorMatrix in="SourceAlpha" type="matrix" values="0 0 0 0 0 0 0 0 0 0 0 0 0 0 0 0 0 0 127 0" result="hardAlpha"/>
<feOffset dy="2"/>
<feGaussianBlur stdDeviation="2"/>
<feComposite in2="hardAlpha" operator="arithmetic" k2="-1" k3="1"/>
<feColorMatrix type="matrix" values="0 0 0 0 0 0 0 0 0 0 0 0 0 0 0 0 0 0 0.1 0"/>
<feBlend mode="normal" in2="shape" result="effect1_innerShadow_1566_3204"/>
</filter>
<linearGradient id="paint0_linear_1566_3204" x1="14.0343" y1="50.6844" x2="49.9274" y2="45.3572" gradientUnits="userSpaceOnUse">
<stop stop-color="#E11A7D"/>
<stop offset="1" stop-color="#FFA6D2"/>
</linearGradient>
<linearGradient id="paint1_linear_1566_3204" x1="36.9701" y1="5.41092" x2="43.2559" y2="12.8751" gradientUnits="userSpaceOnUse">
<stop stop-color="#477294"/>
<stop offset="1" stop-color="#1C3D57"/>
</linearGradient>
</defs>
</svg>
