<svg width="74" height="70" viewBox="0 0 74 70" fill="none" xmlns="http://www.w3.org/2000/svg">
<g clip-path="url(#clip0_1428_3419)">
<path d="M0.255859 35.0479C0.255859 31.3423 4.67658 28.3518 5.71675 24.9712C6.82193 21.5257 5.06664 16.5198 7.21199 13.5944C9.35734 10.6689 14.6232 10.7989 17.5487 8.71857C20.4742 6.63823 21.9044 1.5024 25.415 0.397215C28.7305 -0.642955 32.9562 2.54257 36.6618 2.54257C40.3674 2.54257 44.5931 -0.642955 47.9086 0.397215C51.3542 1.5024 52.8494 6.63823 55.7749 8.71857C58.7004 10.8639 63.9663 10.6689 66.1116 13.5944C68.1919 16.5198 66.4367 21.4607 67.6068 24.9712C68.712 28.3518 73.0677 31.2773 73.0677 35.0479C73.0677 38.7535 68.647 41.744 67.6068 45.1245C66.5017 48.5701 68.257 53.5759 66.1116 56.5014C63.9663 59.3618 58.7004 59.2318 55.7749 61.3772C52.8494 63.4575 51.4192 68.5933 47.9086 69.6985C44.5281 70.8037 40.3674 67.5532 36.6618 67.5532C32.9562 67.5532 28.7305 70.7387 25.415 69.6985C21.9694 68.5933 20.4742 63.4575 17.5487 61.3772C14.6232 59.2318 9.35734 59.4268 7.21199 56.5014C5.13165 53.5759 6.88694 48.6351 5.71675 45.1245C4.67658 41.744 0.255859 38.7535 0.255859 35.0479Z" fill="url(#paint0_linear_1428_3419)"/>
<g filter="url(#filter0_d_1428_3419)">
<path d="M19.6633 25.3762C21.8347 25.3762 23.4299 25.8341 24.4491 26.7499C25.4831 27.6509 26.0001 28.84 26.0001 30.3171C26.0001 31.292 25.7416 32.193 25.2246 33.0202C24.7224 33.8326 23.9395 34.4973 22.876 35.0143C21.8125 35.5165 20.4905 35.7676 18.91 35.7676C17.817 35.7676 16.7239 35.6494 15.6309 35.4131C14.5526 35.1768 13.6072 34.8296 12.7948 34.3717L14.5674 30.5165C15.2173 30.8858 15.8967 31.1664 16.6057 31.3585C17.3295 31.5505 18.0311 31.6465 18.7106 31.6465C19.3162 31.6465 19.8037 31.5431 20.1729 31.3363C20.557 31.1147 20.749 30.8119 20.749 30.4279C20.749 30.0586 20.5791 29.7853 20.2394 29.6081C19.8997 29.4161 19.2867 29.3201 18.4004 29.3201H13.9027L14.6781 19.9036H24.9809V23.8474H18.9765L18.8657 25.3762H19.6633ZM34.0682 35.7676C32.6945 35.7676 31.4759 35.45 30.4123 34.8149C29.3636 34.1649 28.5364 33.2344 27.9308 32.0231C27.34 30.7972 27.0446 29.3422 27.0446 27.6583C27.0446 25.9744 27.34 24.5269 27.9308 23.3157C28.5364 22.0897 29.3636 21.1591 30.4123 20.5239C31.4759 19.874 32.6945 19.5491 34.0682 19.5491C35.4419 19.5491 36.6531 19.874 37.7018 20.5239C38.7653 21.1591 39.5925 22.0897 40.1833 23.3157C40.789 24.5269 41.0918 25.9744 41.0918 27.6583C41.0918 29.3422 40.789 30.7972 40.1833 32.0231C39.5925 33.2344 38.7653 34.1649 37.7018 34.8149C36.6531 35.45 35.4419 35.7676 34.0682 35.7676ZM34.0682 31.58C35.2498 31.58 35.8407 30.2728 35.8407 27.6583C35.8407 25.0439 35.2498 23.7366 34.0682 23.7366C32.8865 23.7366 32.2956 25.0439 32.2956 27.6583C32.2956 30.2728 32.8865 31.58 34.0682 31.58ZM46.2184 28.323C45.0072 28.323 44.0175 27.939 43.2494 27.1709C42.4813 26.4028 42.0973 25.3467 42.0973 24.0025C42.0973 23.1015 42.2745 22.326 42.629 21.6761C42.9835 21.0262 43.471 20.5313 44.0914 20.1916C44.7265 19.8519 45.4355 19.682 46.2184 19.682C47.0012 19.682 47.7029 19.8519 48.3233 20.1916C48.9584 20.5313 49.4532 21.0262 49.8077 21.6761C50.1622 22.326 50.3395 23.1015 50.3395 24.0025C50.3395 25.3467 49.9554 26.4028 49.1874 27.1709C48.4193 27.939 47.4296 28.323 46.2184 28.323ZM55.3247 19.9036H59.0691L48.4783 35.4131H44.7339L55.3247 19.9036ZM46.2184 25.9301C46.499 25.9301 46.728 25.7824 46.9052 25.487C47.0973 25.1768 47.1933 24.682 47.1933 24.0025C47.1933 23.323 47.0973 22.8356 46.9052 22.5402C46.728 22.23 46.499 22.0749 46.2184 22.0749C45.9377 22.0749 45.7014 22.23 45.5094 22.5402C45.3321 22.8356 45.2435 23.323 45.2435 24.0025C45.2435 24.682 45.3321 25.1768 45.5094 25.487C45.7014 25.7824 45.9377 25.9301 46.2184 25.9301ZM57.5847 35.6347C56.3734 35.6347 55.3838 35.2506 54.6157 34.4825C53.8476 33.7144 53.4636 32.6583 53.4636 31.3141C53.4636 30.4131 53.6408 29.6376 53.9953 28.9877C54.3498 28.3378 54.8373 27.843 55.4576 27.5032C56.0928 27.1635 56.8018 26.9936 57.5847 26.9936C58.3675 26.9936 59.0691 27.1635 59.6895 27.5032C60.3247 27.843 60.8195 28.3378 61.174 28.9877C61.5285 29.6376 61.7058 30.4131 61.7058 31.3141C61.7058 32.6583 61.3217 33.7144 60.5536 34.4825C59.7855 35.2506 58.7959 35.6347 57.5847 35.6347ZM57.5847 33.2418C57.8653 33.2418 58.0943 33.094 58.2715 32.7986C58.4635 32.4884 58.5595 31.9936 58.5595 31.3141C58.5595 30.6347 58.4635 30.1472 58.2715 29.8518C58.0943 29.5416 57.8653 29.3865 57.5847 29.3865C57.304 29.3865 57.0677 29.5416 56.8756 29.8518C56.6984 30.1472 56.6098 30.6347 56.6098 31.3141C56.6098 31.9936 56.6984 32.4884 56.8756 32.7986C57.0677 33.094 57.304 33.2418 57.5847 33.2418Z" fill="white"/>
</g>
<g filter="url(#filter1_d_1428_3419)">
<path d="M13.2588 43.0807H15.6839V50.2739H13.2588V43.0807ZM14.4714 42.5977C14.1288 42.5977 13.848 42.4881 13.6287 42.2689C13.4095 42.0497 13.2999 41.7688 13.2999 41.4263C13.2999 41.0837 13.4095 40.8029 13.6287 40.5836C13.848 40.3644 14.1288 40.2548 14.4714 40.2548C14.8139 40.2548 15.0948 40.3644 15.314 40.5836C15.5332 40.8029 15.6428 41.0837 15.6428 41.4263C15.6428 41.7688 15.5332 42.0497 15.314 42.2689C15.0948 42.4881 14.8139 42.5977 14.4714 42.5977ZM24.5584 43.0807V50.2739H22.5649L19.8314 47.0062V50.2739H17.468V43.0807H19.4615L22.1949 46.3485V43.0807H24.5584ZM26.3435 43.0807H29.8887C30.6902 43.0807 31.3958 43.228 32.0056 43.5226C32.6221 43.8103 33.0982 44.2248 33.4339 44.766C33.7765 45.3072 33.9477 45.9443 33.9477 46.6773C33.9477 47.4103 33.7765 48.0475 33.4339 48.5887C33.0982 49.1299 32.6221 49.5478 32.0056 49.8423C31.3958 50.1301 30.6902 50.2739 29.8887 50.2739H26.3435V43.0807ZM29.7859 48.3831C30.3066 48.3831 30.7211 48.2358 31.0293 47.9413C31.3445 47.6398 31.502 47.2185 31.502 46.6773C31.502 46.1361 31.3445 45.7182 31.0293 45.4236C30.7211 45.1222 30.3066 44.9715 29.7859 44.9715H28.7686V48.3831H29.7859ZM35.4498 43.0807H37.8749V50.2739H35.4498V43.0807ZM36.6624 42.5977C36.3198 42.5977 36.0389 42.4881 35.8197 42.2689C35.6005 42.0497 35.4909 41.7688 35.4909 41.4263C35.4909 41.0837 35.6005 40.8029 35.8197 40.5836C36.0389 40.3644 36.3198 40.2548 36.6624 40.2548C37.0049 40.2548 37.2858 40.3644 37.505 40.5836C37.7242 40.8029 37.8338 41.0837 37.8338 41.4263C37.8338 41.7688 37.7242 42.0497 37.505 42.2689C37.2858 42.4881 37.0049 42.5977 36.6624 42.5977ZM42.7418 48.4653H42.0841V50.2739H39.6589V43.0807H43.122C43.7865 43.0807 44.3654 43.1903 44.8586 43.4095C45.3519 43.6288 45.7321 43.9439 45.9993 44.3549C46.2664 44.766 46.4 45.2455 46.4 45.7936C46.4 46.3074 46.2836 46.7561 46.0506 47.1397C45.8177 47.5234 45.482 47.8282 45.0436 48.0543L46.5542 50.2739H43.9646L42.7418 48.4653ZM43.9543 45.7936C43.9543 45.5264 43.8721 45.3209 43.7077 45.177C43.5433 45.0263 43.2967 44.9509 42.9678 44.9509H42.0841V46.6362H42.9678C43.2967 46.6362 43.5433 46.5643 43.7077 46.4204C43.8721 46.2697 43.9543 46.0608 43.9543 45.7936ZM47.9323 43.0807H50.3575V50.2739H47.9323V43.0807ZM49.1449 42.5977C48.8024 42.5977 48.5215 42.4881 48.3023 42.2689C48.0831 42.0497 47.9735 41.7688 47.9735 41.4263C47.9735 41.0837 48.0831 40.8029 48.3023 40.5836C48.5215 40.3644 48.8024 40.2548 49.1449 40.2548C49.4875 40.2548 49.7683 40.3644 49.9876 40.5836C50.2068 40.8029 50.3164 41.0837 50.3164 41.4263C50.3164 41.7688 50.2068 42.0497 49.9876 42.2689C49.7683 42.4881 49.4875 42.5977 49.1449 42.5977ZM58.564 50.2739L58.5435 46.9959L56.9815 49.6265H55.9128L54.3508 47.1089V50.2739H52.1415V43.0807H54.1351L56.478 46.9137L58.7593 43.0807H60.7528L60.7734 50.2739H58.564Z" fill="white"/>
</g>
</g>
<defs>
<filter id="filter0_d_1428_3419" x="10.0451" y="19.5488" width="54.4108" height="21.7184" filterUnits="userSpaceOnUse" color-interpolation-filters="sRGB">
<feFlood flood-opacity="0" result="BackgroundImageFix"/>
<feColorMatrix in="SourceAlpha" type="matrix" values="0 0 0 0 0 0 0 0 0 0 0 0 0 0 0 0 0 0 127 0" result="hardAlpha"/>
<feOffset dy="2.74983"/>
<feGaussianBlur stdDeviation="1.37492"/>
<feComposite in2="hardAlpha" operator="out"/>
<feColorMatrix type="matrix" values="0 0 0 0 0 0 0 0 0 0 0 0 0 0 0 0 0 0 0.25 0"/>
<feBlend mode="normal" in2="BackgroundImageFix" result="effect1_dropShadow_1428_3419"/>
<feBlend mode="normal" in="SourceGraphic" in2="effect1_dropShadow_1428_3419" result="shape"/>
</filter>
<filter id="filter1_d_1428_3419" x="10.6584" y="40.2549" width="52.7155" height="15.2199" filterUnits="userSpaceOnUse" color-interpolation-filters="sRGB">
<feFlood flood-opacity="0" result="BackgroundImageFix"/>
<feColorMatrix in="SourceAlpha" type="matrix" values="0 0 0 0 0 0 0 0 0 0 0 0 0 0 0 0 0 0 127 0" result="hardAlpha"/>
<feOffset dy="2.60042"/>
<feGaussianBlur stdDeviation="1.30021"/>
<feComposite in2="hardAlpha" operator="out"/>
<feColorMatrix type="matrix" values="0 0 0 0 0 0 0 0 0 0 0 0 0 0 0 0 0 0 0.25 0"/>
<feBlend mode="normal" in2="BackgroundImageFix" result="effect1_dropShadow_1428_3419"/>
<feBlend mode="normal" in="SourceGraphic" in2="effect1_dropShadow_1428_3419" result="shape"/>
</filter>
<linearGradient id="paint0_linear_1428_3419" x1="36.6618" y1="3.85519" x2="36.6618" y2="71.4675" gradientUnits="userSpaceOnUse">
<stop stop-color="#FF223E"/>
<stop offset="1" stop-color="#E11A7D"/>
</linearGradient>
<clipPath id="clip0_1428_3419">
<rect width="72.8119" height="69.6914" fill="white" transform="translate(0.254883 0.202148)"/>
</clipPath>
</defs>
</svg>
