<svg width="128" height="128" viewBox="0 0 128 128" fill="none" xmlns="http://www.w3.org/2000/svg">
<g filter="url(#filter0_d_1428_3396)">
<path d="M115.824 54.7404C116.038 52.1718 115.167 49.6312 113.422 47.7342C111.677 45.8376 109.216 44.7582 106.639 44.7582C98.75 44.7582 89.0755 44.7582 89.0755 44.7582C89.0755 44.7582 91.5474 32.3987 94.037 19.9514C94.6601 16.8348 93.1205 13.6869 90.2779 12.2656C87.4353 10.8443 83.9933 11.5012 81.8741 13.8699C74.8862 21.6797 67.2904 30.1695 62.2444 35.8086C58.5328 39.9571 53.4211 42.5908 47.8883 43.2057C41.5106 43.9144 31.9609 44.7582 31.9609 44.7582V101.785C62.0488 106.799 84.6185 105.042 95.4281 104.934C104.592 104.842 112.227 97.9091 112.988 88.7766C113.891 77.935 115.053 63.9974 115.824 54.7404Z" fill="url(#paint0_linear_1428_3396)"/>
</g>
<g filter="url(#filter1_d_1428_3396)">
<path d="M31.9605 45.9426C31.9605 43.8234 31.1188 41.7912 29.6202 40.2926C28.122 38.7943 26.0894 37.9526 23.9706 37.9526C22.655 37.9526 21.2912 37.9526 19.9756 37.9526C17.8565 37.9526 15.8243 38.7943 14.3257 40.2926C12.8274 41.7912 11.9854 43.8234 11.9854 45.9426V101.872C11.9854 103.992 12.8274 106.024 14.3257 107.522C15.8243 109.021 17.8565 109.863 19.9756 109.863H23.9706C26.0894 109.863 28.122 109.021 29.6202 107.522C31.1188 106.024 31.9605 103.992 31.9605 101.872C31.9605 88.0377 31.9605 59.7777 31.9605 45.9426Z" fill="url(#paint1_linear_1428_3396)"/>
</g>
<path d="M19.9756 93.8826V97.9645C19.9756 99.0669 20.8705 99.9622 21.9729 99.9622C23.0753 99.9622 23.9706 99.0669 23.9706 97.9645V93.8826C23.9706 92.7802 23.0753 91.8853 21.9729 91.8853C20.8705 91.8853 19.9756 92.7802 19.9756 93.8826Z" fill="url(#paint2_linear_1428_3396)"/>
<defs>
<filter id="filter0_d_1428_3396" x="27.9609" y="11.5212" width="91.8955" height="101.798" filterUnits="userSpaceOnUse" color-interpolation-filters="sRGB">
<feFlood flood-opacity="0" result="BackgroundImageFix"/>
<feColorMatrix in="SourceAlpha" type="matrix" values="0 0 0 0 0 0 0 0 0 0 0 0 0 0 0 0 0 0 127 0" result="hardAlpha"/>
<feOffset dy="4"/>
<feGaussianBlur stdDeviation="2"/>
<feComposite in2="hardAlpha" operator="out"/>
<feColorMatrix type="matrix" values="0 0 0 0 0.898039 0 0 0 0 0.74902 0 0 0 0 0.823529 0 0 0 0.25 0"/>
<feBlend mode="normal" in2="BackgroundImageFix" result="effect1_dropShadow_1428_3396"/>
<feBlend mode="normal" in="SourceGraphic" in2="effect1_dropShadow_1428_3396" result="shape"/>
</filter>
<filter id="filter1_d_1428_3396" x="6.98535" y="37.9526" width="29.9756" height="86.9102" filterUnits="userSpaceOnUse" color-interpolation-filters="sRGB">
<feFlood flood-opacity="0" result="BackgroundImageFix"/>
<feColorMatrix in="SourceAlpha" type="matrix" values="0 0 0 0 0 0 0 0 0 0 0 0 0 0 0 0 0 0 127 0" result="hardAlpha"/>
<feMorphology radius="5" operator="erode" in="SourceAlpha" result="effect1_dropShadow_1428_3396"/>
<feOffset dy="10"/>
<feGaussianBlur stdDeviation="5"/>
<feComposite in2="hardAlpha" operator="out"/>
<feColorMatrix type="matrix" values="0 0 0 0 0.898039 0 0 0 0 0.74902 0 0 0 0 0.823529 0 0 0 0.2 0"/>
<feBlend mode="normal" in2="BackgroundImageFix" result="effect1_dropShadow_1428_3396"/>
<feBlend mode="normal" in="SourceGraphic" in2="effect1_dropShadow_1428_3396" result="shape"/>
</filter>
<linearGradient id="paint0_linear_1428_3396" x1="90.3027" y1="9.78437" x2="35.1735" y2="103.45" gradientUnits="userSpaceOnUse">
<stop stop-color="#FFDEC6"/>
<stop offset="1" stop-color="#FFC3B7"/>
</linearGradient>
<linearGradient id="paint1_linear_1428_3396" x1="17.298" y1="118.482" x2="35.4358" y2="117.735" gradientUnits="userSpaceOnUse">
<stop stop-color="#E11A7D"/>
<stop offset="1" stop-color="#FFA6D2"/>
</linearGradient>
<linearGradient id="paint2_linear_1428_3396" x1="24.8709" y1="91.1083" x2="25.2703" y2="100.696" gradientUnits="userSpaceOnUse">
<stop stop-color="#477294"/>
<stop offset="1" stop-color="#1C3D57"/>
</linearGradient>
</defs>
</svg>
