<svg width="24" height="25" viewBox="0 0 24 25" fill="none" xmlns="http://www.w3.org/2000/svg">
<g clip-path="url(#clip0_1426_2629)">
<path d="M23.4201 19.2386C22.9454 19.8086 22.242 20.1384 21.5001 20.1386H2.50008C1.75823 20.1384 1.05483 19.8086 0.580078 19.2386L9.75009 11.5986L10.7001 12.2486C11.4827 12.7886 12.5175 12.7886 13.3001 12.2486L14.2501 11.5986L23.4201 19.2386Z" fill="#E7A1C4"/>
<path d="M23.5594 5.22874L14.2494 11.5987L13.2994 12.2487C12.5168 12.7887 11.482 12.7887 10.6994 12.2487L9.74939 11.5987L0.439453 5.21871C0.907922 4.54319 1.67738 4.13978 2.49947 4.13871H21.4995C22.3253 4.13435 23.0985 4.54347 23.5594 5.22874Z" fill="#F0B5D2"/>
<path d="M9.75005 11.5987L0.580029 19.2387C0.204701 18.7901 -0.000658687 18.2237 4.44378e-05 17.6387V6.63873C-0.00300244 6.13141 0.150701 5.63547 0.44006 5.21875L9.75005 11.5987Z" fill="#E196BB"/>
<path d="M24 6.63852V17.6385C24.0007 18.2234 23.7953 18.7899 23.42 19.2385L14.25 11.5985L23.56 5.22852C23.8479 5.64223 24.0015 6.13447 24 6.63852Z" fill="#E196BB"/>
</g>
<defs>
<clipPath id="clip0_1426_2629">
<rect width="24" height="24" fill="white" transform="translate(0 0.138672)"/>
</clipPath>
</defs>
</svg>
