<svg width="340" height="205" viewBox="0 0 340 205" fill="none" xmlns="http://www.w3.org/2000/svg">
<g filter="url(#filter0_d_1221_17525)">
<rect x="5" width="330" height="190" rx="18" fill="url(#paint0_linear_1221_17525)"/>
</g>
<mask id="mask0_1221_17525" style="mask-type:alpha" maskUnits="userSpaceOnUse" x="5" y="0" width="330" height="190">
<rect x="5" width="330" height="190" rx="18" fill="url(#paint1_linear_1221_17525)"/>
</mask>
<g mask="url(#mask0_1221_17525)">
<g opacity="0.3">
<path opacity="0.5" d="M67.11 1.84928C82.1572 29.9932 83.3647 65.1035 70.3609 94.1763C64.5092 107.273 56.0567 118.976 49.6477 131.794C43.2387 144.613 38.8731 159.195 41.9383 173.221C44.2604 183.438 50.5766 192.727 59.4006 198.485C68.1317 204.244 79.1849 206.473 89.4951 204.523C84.6651 217.155 73.519 226.908 60.2365 229.787C46.9541 232.667 33.2072 231.088 19.8319 229.509C11.3794 228.487 2.74113 227.465 -4.50384 223.1C-10.9129 219.292 -15.5571 213.161 -19.2725 206.752C-32.6478 183.531 -34.1339 155.387 -32.9264 128.636C-31.9976 108.295 -29.6755 87.8602 -23.2665 68.5402C-16.9503 49.1274 -6.17576 30.8292 9.61457 17.9183C25.312 5.00735 47.047 -1.30879 67.11 1.84928Z" fill="url(#paint2_linear_1221_17525)"/>
<path d="M22.0609 74.2988C15.559 100.306 18.6242 130.215 36.5508 150.185C51.9696 167.369 76.2124 174.707 99.3406 174.057C122.469 173.406 144.761 165.697 166.217 156.966C187.674 148.235 208.758 138.296 231.236 132.816C268.762 123.62 309.445 127.614 344.555 143.869C345.391 155.48 345.949 167.369 343.626 178.794C341.304 190.218 336.103 201.457 327.093 208.888C315.111 218.734 298.578 220.592 283.066 221.892C199.841 228.765 116.431 231.18 32.9284 233.503C16.6736 233.967 -1.53173 233.688 -12.9565 222.171C-23.7311 211.303 -24.567 194.398 -24.7528 179.165C-25.0315 159.102 -25.2172 138.482 -18.994 119.348C-12.7707 100.121 2.64807 79.8719 22.0609 74.2988Z" fill="url(#paint3_linear_1221_17525)" stroke="url(#paint4_linear_1221_17525)" stroke-width="0.5" stroke-miterlimit="10"/>
<path opacity="0.5" d="M337.496 163.56L341.769 159.102C295.884 129.843 234.394 127.15 186.095 152.228C167.332 161.981 150.799 175.357 132.965 186.596C115.131 197.835 94.975 207.03 73.8903 206.937C52.8055 206.844 30.6991 195.327 23.4541 175.449C17.9739 160.402 21.6893 143.311 28.9343 129.1C36.1792 114.796 46.6752 102.442 55.5921 89.1599C64.509 75.8774 72.1255 60.8302 72.4041 44.8541C72.6828 28.878 63.7659 11.7872 48.5329 6.77148C17.4166 20.7041 -7.29063 50.3342 -18.6225 82.4722C-29.9544 114.61 -29.8615 150.185 -22.0592 183.345C-19.3656 194.584 -15.5573 206.194 -7.19774 214.182C5.71318 226.536 25.5904 227.093 43.5171 226.907C117.081 226.071 190.646 225.328 264.21 224.492C277.307 224.307 290.497 224.214 303.129 220.963C315.761 217.712 328.022 211.117 335.453 200.435C342.976 189.754 344.648 174.521 337.496 163.56Z" fill="url(#paint5_linear_1221_17525)" stroke="url(#paint6_linear_1221_17525)" stroke-width="0.5" stroke-miterlimit="10"/>
<path opacity="0.5" d="M341.955 108.016C310.653 101.421 276.471 109.873 251.857 130.308C227.243 150.742 212.567 182.695 213.217 214.74C245.541 224.307 279.444 229.415 313.161 227.929C320.777 227.558 328.765 226.815 335.081 222.542C342.512 217.433 346.135 208.424 348.457 199.785C356.352 170.898 352.358 135.974 341.955 108.016Z" fill="url(#paint7_linear_1221_17525)" stroke="url(#paint8_linear_1221_17525)" stroke-width="0.5" stroke-miterlimit="10"/>
<path d="M151.078 -21.9297C160.088 -3.44571 156.094 19.4967 145.226 36.959C134.359 54.4212 117.547 67.425 100.177 78.4783C82.8078 89.5315 64.5096 99.2844 48.5335 112.195C38.1304 120.741 28.006 132.537 29.7708 145.912C31.4428 159.102 44.4466 168.297 57.4504 171.27C83.1793 177.121 109.373 165.511 133.244 154.179C157.115 142.847 183.402 131.422 209.13 137.553C226.5 141.733 240.897 153.529 253.808 165.882C266.719 178.236 278.887 191.704 294.305 200.714C309.724 209.724 329.601 213.439 345.392 205.265" stroke="url(#paint9_linear_1221_17525)" stroke-width="0.25" stroke-miterlimit="10"/>
<path d="M148.199 -22.4873C157.58 -4.00332 154.143 19.032 143.647 36.8658C133.151 54.6996 116.711 68.1678 99.2485 79.5926C82.1578 90.8316 63.8596 100.492 48.1621 113.495C37.7591 122.134 28.0991 134.301 30.1426 147.491C32.186 160.495 45.1898 169.319 58.1007 172.012C83.9226 177.307 110.023 165.325 133.894 153.9C157.859 142.382 184.331 130.865 210.06 137.088C227.336 141.268 241.733 152.971 254.644 165.325C267.462 177.586 279.723 190.961 295.142 199.785C310.56 208.609 330.345 212.324 346.042 204.058" stroke="url(#paint10_linear_1221_17525)" stroke-width="0.25" stroke-miterlimit="10"/>
<path d="M145.412 -23.1367C155.165 -4.55985 152.285 18.5683 142.254 36.6808C132.222 54.8861 115.968 68.9117 98.5053 80.6151C81.6004 91.947 63.395 101.514 47.9762 114.797C37.6661 123.621 28.3777 136.067 30.7926 149.071C33.1148 161.889 46.1186 170.434 59.0295 172.849C84.9442 177.772 110.859 165.326 134.823 153.622C158.787 141.919 185.445 130.308 211.36 136.624C228.543 140.804 242.94 152.508 255.758 164.675C268.577 176.843 280.837 190.126 296.256 198.857C311.675 207.588 331.366 211.118 346.971 202.851" stroke="url(#paint11_linear_1221_17525)" stroke-width="0.25" stroke-miterlimit="10"/>
<path d="M142.532 -23.6943C152.749 -5.11747 150.334 18.1036 140.674 36.6805C131.014 55.1645 115.038 69.7473 97.5761 81.7294C80.9498 93.1542 62.8374 102.721 47.6972 116.097C37.4799 125.106 28.563 137.832 31.2567 150.742C33.8574 163.375 46.8613 171.549 59.7722 173.685C85.6869 178.05 111.602 165.325 135.566 153.436C159.623 141.547 186.374 129.843 212.381 136.252C229.565 140.432 243.869 152.043 256.687 164.211C269.505 176.379 281.766 189.475 297.185 198.113C312.603 206.752 332.202 210.188 347.714 201.736" stroke="url(#paint12_linear_1221_17525)" stroke-width="0.25" stroke-miterlimit="10"/>
<path d="M139.653 -24.252C150.242 -5.67509 148.384 17.7318 139.189 36.5873C129.993 55.4428 114.203 70.5829 96.7407 82.8437C80.3002 94.3613 62.2806 103.928 47.4191 117.304C37.2948 126.499 28.7494 139.41 31.7217 152.228C34.6011 164.675 47.6049 172.477 60.5158 174.428C86.5234 178.329 112.252 165.139 136.309 153.064C160.366 140.989 187.303 129.193 213.496 135.602C230.587 139.782 244.891 151.299 257.709 163.374C270.527 175.449 282.788 188.453 298.207 196.998C313.626 205.544 333.224 208.795 348.55 200.342" stroke="url(#paint13_linear_1221_17525)" stroke-width="0.25" stroke-miterlimit="10"/>
<path d="M136.867 -24.9014C147.827 -6.3245 146.527 17.2681 137.703 36.4023C128.879 55.5365 113.46 71.2339 95.9049 83.8662C79.743 95.4767 61.7235 105.137 47.1406 118.605C37.0162 127.893 28.9353 141.176 32.2791 153.901C35.5301 166.162 48.441 173.592 61.3519 175.264C87.4524 178.608 113.089 165.14 137.146 152.879C161.203 140.619 188.325 128.729 214.611 135.231C231.609 139.411 245.913 150.929 258.731 162.911C271.549 174.893 283.81 187.804 299.229 196.256C314.555 204.709 334.153 207.867 349.479 199.321" stroke="url(#paint14_linear_1221_17525)" stroke-width="0.25" stroke-miterlimit="10"/>
<path d="M133.987 -25.459C145.319 -6.88212 144.576 16.8034 136.216 36.3091C127.857 55.8148 112.624 71.9767 94.9758 84.9805C78.9997 96.7768 61.1659 106.344 46.8617 119.905C36.8302 129.379 29.1208 142.94 32.7433 155.48C36.2729 167.462 49.2767 174.707 62.0019 176.1C88.1024 178.979 113.646 165.14 137.795 152.6C161.945 140.154 189.161 128.172 215.633 134.766C232.63 138.946 246.842 150.371 259.66 162.26C272.478 174.149 284.738 187.06 300.064 195.327C315.39 203.594 334.896 206.659 350.129 198.114" stroke="url(#paint15_linear_1221_17525)" stroke-width="0.25" stroke-miterlimit="10"/>
<path d="M131.108 -26.1094C142.811 -7.53251 142.626 16.3388 134.638 36.1231C126.65 56.0004 111.695 72.7196 94.0471 86.002C78.2568 97.8912 60.5159 107.458 46.4903 121.112C36.5517 130.772 29.2138 144.612 33.2079 157.059C37.0161 168.855 50.0199 175.728 62.7451 176.843C88.9385 179.165 114.389 164.954 138.539 152.321C162.689 139.596 190.09 127.614 216.654 134.302C233.559 138.482 247.771 149.906 260.589 161.703C273.407 173.499 285.668 186.317 300.993 194.491C316.319 202.665 335.732 205.637 350.872 196.999" stroke="url(#paint16_linear_1221_17525)" stroke-width="0.25" stroke-miterlimit="10"/>
<path d="M128.322 -26.667C140.49 -8.09013 140.768 15.874 133.152 36.0299C125.535 56.1858 110.952 73.4623 93.2114 87.0234C77.6997 99.0055 60.0517 108.573 46.2119 122.319C36.3662 132.165 29.307 146.284 33.6725 158.544C37.8523 170.248 50.8561 176.75 63.5813 177.679C89.8676 179.536 115.132 164.953 139.375 152.042C163.618 139.132 191.204 127.057 217.862 133.837C234.767 138.017 248.886 149.349 261.611 161.052C274.429 172.756 286.689 185.481 302.015 193.562C317.341 201.643 336.754 204.429 351.708 195.791" stroke="url(#paint17_linear_1221_17525)" stroke-width="0.25" stroke-miterlimit="10"/>
<path d="M125.442 -27.2236C137.981 -8.64677 138.817 15.5032 131.665 36.0306C124.42 56.558 110.116 74.2989 92.375 88.2316C77.0491 100.307 59.494 109.874 46.0257 123.713C36.2729 133.745 29.5852 148.142 34.3223 160.31C38.6879 171.735 51.6917 177.865 64.4168 178.515C90.796 179.816 115.968 164.861 140.21 151.857C164.453 138.761 192.226 126.593 218.976 133.373C235.788 137.553 249.907 148.792 262.632 160.496C275.45 172.199 287.711 184.738 303.037 192.726C318.363 200.715 337.683 203.408 352.544 194.677" stroke="url(#paint18_linear_1221_17525)" stroke-width="0.25" stroke-miterlimit="10"/>
<path d="M122.562 -27.874C135.473 -9.29716 136.866 14.9457 130.085 35.8446C123.305 56.6507 109.186 74.9489 91.4455 89.2531C76.3053 101.421 58.8431 110.988 45.6535 124.921C35.9006 135.138 29.6774 149.814 34.6931 161.796C39.3374 172.942 52.4341 178.794 65.0663 179.165C91.4455 179.908 116.524 164.675 140.86 151.393C165.196 138.11 193.061 125.85 219.997 132.723C236.717 136.903 250.835 148.142 263.56 159.659C276.285 171.177 288.639 183.716 303.965 191.612C319.291 199.507 338.518 202.015 353.286 193.284" stroke="url(#paint19_linear_1221_17525)" stroke-width="0.25" stroke-miterlimit="10"/>
<path d="M119.775 -28.4316C133.058 -9.85477 135.101 14.5738 128.692 35.7514C122.283 56.9291 108.444 75.7846 90.7027 90.3674C75.8412 102.535 58.4718 112.288 45.468 126.314C35.808 136.717 29.9563 151.671 35.3436 163.56C40.2665 174.521 53.3632 180.001 65.9955 180.187C92.4675 180.465 117.453 164.861 141.789 151.392C166.125 137.924 194.176 125.571 221.205 132.537C237.924 136.717 251.95 147.863 264.675 159.38C277.4 170.898 289.847 183.252 305.08 191.054C320.406 198.856 339.633 201.271 354.216 192.447" stroke="url(#paint20_linear_1221_17525)" stroke-width="0.25" stroke-miterlimit="10"/>
<path d="M116.896 -29.082C130.643 -10.5052 133.151 14.1092 127.113 35.5655C121.076 57.1146 107.608 76.4346 89.6809 91.389C75.0052 103.65 57.7287 113.403 45.0964 127.521C35.5293 138.11 29.9563 153.25 35.7151 165.046C40.9166 175.821 54.0133 180.929 66.5527 180.837C93.1176 180.558 117.918 164.582 142.346 150.928C166.682 137.274 194.919 124.827 222.134 131.887C238.76 136.066 252.693 147.12 265.511 158.637C278.236 170.062 290.683 182.323 305.916 190.032C321.149 197.649 340.376 199.971 354.959 191.054" stroke="url(#paint21_linear_1221_17525)" stroke-width="0.25" stroke-miterlimit="10"/>
<path d="M114.017 -29.6387C128.136 -11.0618 131.201 13.6454 125.535 35.4732C119.962 57.3011 106.679 77.1783 88.7526 92.5042C74.2626 104.858 57.1719 114.611 44.7254 128.822C35.3441 139.597 30.1426 155.015 36.2729 166.719C41.7531 177.308 54.9427 182.045 67.3892 181.673C94.047 180.837 118.754 164.582 143.183 150.743C167.611 136.903 195.941 124.456 223.249 131.423C239.783 135.603 253.715 146.656 266.533 157.988C279.258 169.32 291.705 181.487 306.938 189.011C322.171 196.535 341.305 198.764 355.795 189.754" stroke="url(#paint22_linear_1221_17525)" stroke-width="0.25" stroke-miterlimit="10"/>
<path d="M111.231 -30.1963C125.721 -11.6194 129.343 13.2736 124.142 35.4729C118.94 57.6723 105.936 78.014 88.0097 93.6185C73.7984 106.065 56.8006 115.911 44.5398 130.122C35.1585 141.082 30.2356 156.78 36.7375 168.39C42.4964 178.701 55.6859 183.252 68.1324 182.602C94.8831 181.301 119.405 164.675 143.926 150.557C168.355 136.438 196.963 123.992 224.364 131.051C240.897 135.324 254.737 146.191 267.462 157.523C280.187 168.762 292.634 180.837 307.867 188.268C323.1 195.698 342.141 197.742 356.538 188.732" stroke="url(#paint23_linear_1221_17525)" stroke-width="0.25" stroke-miterlimit="10"/>
<path d="M108.351 -30.8467C123.212 -12.1769 127.392 12.7161 122.562 35.287C117.825 57.765 105.007 78.664 87.0803 94.6401C73.0548 107.179 56.1498 117.025 44.2606 131.329C34.9722 142.475 30.4209 158.452 37.2943 169.876C43.3318 180.001 56.5214 184.181 68.9679 183.252C95.7186 181.394 120.24 164.396 144.761 150.092C169.283 135.788 197.984 123.248 225.478 130.401C241.919 134.673 255.758 145.541 268.483 156.687C281.209 167.926 293.655 179.815 308.888 187.153C324.121 194.491 343.162 196.441 357.374 187.339" stroke="url(#paint24_linear_1221_17525)" stroke-width="0.25" stroke-miterlimit="10"/>
<path d="M105.471 -31.4033C120.797 -12.8265 125.441 12.3452 121.076 35.1947C116.71 58.0443 104.171 79.4077 86.2442 95.7553C72.4045 108.388 55.6853 118.233 43.9819 132.63C34.7863 143.962 30.6065 160.217 37.7586 171.549C44.0747 181.488 57.3572 185.296 69.7108 184.181C96.5544 181.766 120.89 164.49 145.504 150C170.026 135.51 198.913 122.878 226.592 130.123C242.94 134.395 256.78 145.17 269.505 156.316C282.23 167.462 294.677 179.258 309.91 186.503C325.143 193.748 344.091 195.513 358.21 186.41" stroke="url(#paint25_linear_1221_17525)" stroke-width="0.25" stroke-miterlimit="10"/>
<path d="M102.685 -32.0537C118.382 -13.384 123.584 11.7877 119.59 35.0088C115.596 58.2299 103.335 80.0577 85.4084 96.7768C71.7544 109.409 55.1281 119.441 43.7033 133.838C34.5078 145.355 30.6995 161.889 38.3161 173.035C44.9108 182.788 58.1933 186.224 70.5469 184.831C97.4834 181.859 121.726 164.304 146.341 149.535C170.955 134.859 199.935 122.134 227.707 129.379C244.055 133.652 257.802 144.334 270.527 155.387C283.252 166.44 295.699 178.236 310.932 185.296C326.165 192.355 345.02 194.12 359.046 184.924" stroke="url(#paint26_linear_1221_17525)" stroke-width="0.25" stroke-miterlimit="10"/>
<path d="M99.8058 -32.6113C115.875 -13.9416 121.634 11.4158 118.011 34.9156C114.482 58.4153 102.407 80.8004 84.3871 97.8911C70.9188 110.616 54.4783 120.648 43.3322 135.138C34.2295 146.934 30.6999 163.653 38.688 174.706C45.5614 184.274 58.8439 187.339 71.1046 185.667C98.1339 182.137 122.191 164.211 146.805 149.349C171.42 134.488 200.585 121.67 228.544 129.007C244.798 133.28 258.545 143.962 271.27 154.922C283.995 165.882 296.442 177.586 311.675 184.552C326.908 191.519 345.764 193.098 359.603 183.902" stroke="url(#paint27_linear_1221_17525)" stroke-width="0.25" stroke-miterlimit="10"/>
<path d="M96.9263 -33.1689C113.367 -14.5921 119.683 10.9511 116.525 34.8224C113.367 58.6937 101.571 81.5432 83.5509 98.9126C70.3614 111.731 54.0137 121.855 43.0534 136.345C34.0436 148.327 30.8855 165.325 39.1522 176.192C46.2114 185.481 59.5868 188.267 71.8475 186.41C98.9697 182.323 122.934 164.117 147.548 148.977C172.163 133.837 201.514 121.019 229.565 128.45C245.727 132.722 259.474 143.311 272.199 154.179C284.924 165.046 297.371 176.657 312.511 183.53C327.651 190.404 346.506 191.797 360.346 182.601" stroke="url(#paint28_linear_1221_17525)" stroke-width="0.25" stroke-miterlimit="10"/>
<path d="M94.1396 -33.8184C110.952 -15.1486 117.825 10.4875 115.039 34.7303C112.252 58.8802 100.734 82.287 82.7148 100.028C69.711 112.846 53.4563 123.063 42.7746 137.739C33.8577 149.907 30.9783 167.183 39.7094 177.958C47.0473 187.061 60.5155 189.476 72.6833 187.339C99.8056 182.695 123.677 164.118 148.384 148.885C173.091 133.559 202.628 120.648 230.772 128.172C246.934 132.445 260.588 143.033 273.221 153.808C285.946 164.583 298.392 176.1 313.532 182.881C328.673 189.661 347.435 190.962 361.182 181.58" stroke="url(#paint29_linear_1221_17525)" stroke-width="0.25" stroke-miterlimit="10"/>
<path d="M91.2604 -34.376C108.537 -15.7062 115.875 10.1156 113.553 34.6371C111.231 59.1585 99.8987 83.0298 81.8791 101.142C69.0611 114.053 52.9921 124.27 42.4962 139.039C33.6721 151.393 31.1643 168.948 40.1741 179.537C47.7906 188.454 61.2588 190.497 73.4266 188.175C100.642 182.973 124.42 164.118 149.127 148.606C173.835 133.094 203.558 120.091 231.794 127.614C247.863 131.887 261.517 142.383 274.15 153.065C286.782 163.746 299.321 175.171 314.461 181.859C329.602 188.546 348.271 189.661 361.925 180.28" stroke="url(#paint30_linear_1221_17525)" stroke-width="0.25" stroke-miterlimit="10"/>
<path d="M88.3811 -35.0264C106.029 -16.3566 113.924 9.55811 111.974 34.4511C110.023 59.3441 98.97 83.6798 80.9504 102.164C68.3181 115.168 52.4349 125.478 42.2176 140.246C33.4865 152.786 31.2573 170.62 40.7315 181.115C48.6266 189.847 62.0949 191.519 74.2627 188.918C101.571 183.159 125.256 164.025 149.963 148.327C174.764 132.63 204.579 119.533 233.002 127.15C248.978 131.422 262.632 141.825 275.264 152.507C287.897 163.189 300.436 174.428 315.576 181.023C330.716 187.617 349.386 188.639 362.854 179.165" stroke="url(#paint31_linear_1221_17525)" stroke-width="0.25" stroke-miterlimit="10"/>
<path d="M85.5947 -35.584C103.614 -16.9142 112.067 9.18626 110.581 34.3579C109.002 59.5296 98.227 84.3297 80.2074 103.278C67.7609 116.282 52.0635 126.685 42.032 141.546C33.3937 154.272 31.4432 172.384 41.2889 182.694C49.3698 191.24 63.0238 192.447 75.0988 189.753C102.5 183.437 125.999 163.932 150.8 148.048C175.6 132.165 205.601 118.976 234.117 126.685C250.093 130.958 263.654 141.361 276.286 151.857C288.919 162.445 301.458 173.592 316.598 180.093C331.738 186.502 350.315 187.431 363.69 177.957" stroke="url(#paint32_linear_1221_17525)" stroke-width="0.25" stroke-miterlimit="10"/>
<path d="M82.7146 -36.1406C101.106 -17.4709 110.115 8.81539 109.001 34.2657C107.886 59.8089 97.2974 85.0734 79.2779 104.3C67.0171 117.397 51.4126 127.893 41.6597 142.755C33.1144 155.758 31.5353 174.057 41.7526 184.274C50.1122 192.633 63.7662 193.469 75.7483 190.497C103.242 183.624 126.649 163.839 151.449 147.77C176.342 131.701 206.437 118.419 235.138 126.221C251.021 130.494 264.582 140.804 277.214 151.3C289.847 161.796 302.386 172.849 317.526 179.165C332.666 185.481 351.15 186.317 364.433 176.75" stroke="url(#paint33_linear_1221_17525)" stroke-width="0.25" stroke-miterlimit="10"/>
<path d="M79.8358 -36.791C98.6913 -18.1213 108.166 8.25789 107.422 34.1726C106.679 60.0873 96.3692 85.8163 78.2568 105.415C66.1818 118.512 50.763 129.193 41.2888 144.055C32.9292 157.244 31.536 175.821 42.1248 185.853C50.763 194.027 64.417 194.491 76.3991 191.24C103.893 183.809 127.207 163.746 152.1 147.399C176.993 131.144 207.273 117.769 236.067 125.664C251.95 129.936 265.419 140.154 278.051 150.65C290.683 161.053 303.223 172.013 318.363 178.236C333.503 184.459 351.894 185.11 365.084 175.543" stroke="url(#paint34_linear_1221_17525)" stroke-width="0.25" stroke-miterlimit="10"/>
<path d="M77.0491 -37.3486C96.2762 -18.6789 106.308 7.88604 106.029 34.0794C105.658 60.2728 95.5331 86.5591 77.5136 106.529C65.6244 119.719 50.3913 130.4 41.1029 145.355C32.8362 158.73 31.7216 177.586 42.7748 187.524C51.5988 195.512 65.3457 195.605 77.3278 192.169C104.914 184.181 128.136 163.746 153.029 147.305C178.014 130.865 208.388 117.397 237.368 125.292C253.158 129.565 266.533 139.782 279.165 150.092C291.798 160.402 304.43 171.27 319.477 177.4C334.525 183.53 353.009 184.088 366.105 174.428" stroke="url(#paint35_linear_1221_17525)" stroke-width="0.25" stroke-miterlimit="10"/>
<path d="M74.1695 -37.9053C93.768 -19.2355 104.357 7.42228 104.45 33.9872C104.543 60.5521 94.604 87.2099 76.5844 107.644C64.881 120.927 49.8338 131.702 40.7311 146.656C32.5573 160.217 31.7213 179.351 43.1461 189.104C52.2487 196.906 66.0885 196.628 77.9777 192.912C105.657 184.367 128.693 163.654 153.678 146.935C178.664 130.215 209.316 116.747 238.296 124.735C253.993 129.008 267.369 139.132 280.001 149.442C292.633 159.66 305.266 170.434 320.313 176.472C335.36 182.509 353.751 182.881 366.755 173.221" stroke="url(#paint36_linear_1221_17525)" stroke-width="0.25" stroke-miterlimit="10"/>
<path d="M71.2907 -38.5557C91.2608 -19.8859 102.407 6.95766 102.964 33.8012C103.429 60.6448 93.7687 87.8599 75.7491 108.666C64.2315 121.948 49.37 132.816 40.546 147.863C32.465 161.61 32.0006 181.116 43.7969 190.683C53.1783 198.299 67.018 197.649 78.9072 193.748C106.587 184.552 129.622 163.561 154.608 146.749C179.594 129.937 210.431 116.283 239.597 124.363C255.295 128.636 268.577 138.761 281.209 148.885C293.842 159.102 306.474 169.784 321.521 175.636C336.568 181.58 354.867 181.859 367.777 172.106" stroke="url(#paint37_linear_1221_17525)" stroke-width="0.25" stroke-miterlimit="10"/>
<path d="M68.5029 -39.1133C88.8446 -20.3506 100.548 6.49293 101.477 33.708C102.406 60.9231 92.8386 88.6027 74.912 109.687C63.5801 123.063 48.9044 134.023 40.2661 149.163C32.2781 163.189 32.0923 182.88 44.2601 192.262C53.8272 199.692 67.7599 198.671 79.6491 194.491C107.421 184.738 130.271 163.467 155.35 146.377C180.429 129.286 211.359 115.725 240.618 123.806C256.222 128.079 269.505 138.11 282.137 148.234C294.769 158.359 307.401 168.948 322.449 174.706C337.496 180.465 355.794 180.651 368.519 170.805" stroke="url(#paint38_linear_1221_17525)" stroke-width="0.25" stroke-miterlimit="10"/>
<path d="M65.6244 -39.7637C86.4305 -21.001 98.6912 6.0283 99.8987 33.615C101.199 61.2016 91.9107 89.2527 73.984 110.802C62.8379 124.177 48.3479 135.23 39.8955 150.463C32.0003 164.675 32.0932 184.645 44.7254 193.933C54.5712 201.178 68.5038 199.785 80.3001 195.327C108.165 185.016 130.922 163.467 156.001 146.191C181.08 128.914 212.196 115.26 241.64 123.341C257.152 127.614 270.434 137.553 283.067 147.584C295.699 157.616 308.331 168.111 323.378 173.777C338.426 179.443 356.631 179.536 369.263 169.598" stroke="url(#paint39_linear_1221_17525)" stroke-width="0.25" stroke-miterlimit="10"/>
<path d="M62.7443 -40.3203C83.922 -21.5577 96.74 5.65743 98.4119 33.5227C100.084 61.388 91.0741 89.9964 73.0545 111.917C62.0941 125.385 47.79 136.531 39.6161 151.764C31.9067 166.162 32.1854 186.41 45.1892 195.513C55.3136 202.572 69.2462 200.715 81.0425 196.163C108.908 185.296 131.572 163.375 156.743 145.913C181.915 128.451 213.124 114.704 242.661 122.877C258.173 127.15 271.363 137.089 283.995 147.027C296.627 156.966 309.259 167.369 324.307 172.942C339.354 178.515 357.466 178.422 370.006 168.484" stroke="url(#paint40_linear_1221_17525)" stroke-width="0.25" stroke-miterlimit="10"/>
<path d="M59.9583 -40.8779C81.5075 -22.1153 94.8829 5.1927 96.9263 33.4295C99.0627 61.6664 90.1458 90.6463 72.2191 113.031C61.3516 126.5 47.3261 137.739 39.338 152.972C31.7215 167.647 32.3717 188.175 45.747 197.092C56.0572 204.058 70.1756 201.736 81.879 196.906C109.837 185.388 132.408 163.282 157.58 145.634C182.751 127.986 214.146 114.146 243.869 122.413C259.288 126.685 272.478 136.531 285.017 146.377C297.556 156.223 310.282 166.533 325.236 172.013C340.19 177.493 358.303 177.307 370.749 167.276" stroke="url(#paint41_linear_1221_17525)" stroke-width="0.25" stroke-miterlimit="10"/>
<path d="M57.0788 -41.5283C78.9995 -22.7657 92.9322 4.72808 95.44 33.2436C97.9479 61.7591 89.3097 91.2963 71.383 114.053C60.7013 127.614 46.8615 138.946 39.0593 154.272C31.5356 169.133 32.4645 189.939 46.2113 198.763C56.8002 205.544 70.9186 202.85 82.622 197.835C110.58 185.76 133.058 163.375 158.323 145.448C183.587 127.614 215.168 113.681 244.891 122.041C260.217 126.314 273.406 136.067 285.946 145.912C298.485 155.665 311.21 165.882 326.165 171.27C341.119 176.657 359.232 176.285 371.585 166.254" stroke="url(#paint42_linear_1221_17525)" stroke-width="0.25" stroke-miterlimit="10"/>
<path d="M54.1997 -42.085C76.5849 -23.3223 90.9819 4.26432 93.8613 33.1513C96.7407 62.0384 88.2883 92.04 70.4545 115.075C59.9586 128.636 46.3046 140.154 38.7809 155.48C31.4431 170.527 32.5577 191.705 46.6761 200.25C57.5436 206.845 71.662 203.78 83.3654 198.485C111.416 185.853 133.802 163.097 159.066 145.077C184.331 126.965 216.097 113.032 246.006 121.391C261.332 125.664 274.428 135.417 286.968 145.077C299.507 154.83 312.232 164.861 327.187 170.156C342.141 175.357 360.161 174.986 372.421 164.861" stroke="url(#paint43_linear_1221_17525)" stroke-width="0.25" stroke-miterlimit="10"/>
<path d="M51.4128 -42.7354C74.1694 -23.9727 89.1238 3.7997 92.3748 33.0583C95.7186 62.3168 87.359 92.69 69.6181 116.19C59.3079 129.844 45.8397 141.361 38.5019 156.78C31.2569 172.013 32.6501 193.469 47.233 201.922C58.2862 208.331 72.4975 204.894 84.2009 199.414C112.252 186.132 134.544 163.189 159.902 144.891C185.166 126.593 217.118 112.567 247.12 121.02C262.353 125.292 275.45 134.952 287.989 144.612C300.529 154.272 313.254 164.211 328.208 169.412C343.162 174.521 361.089 173.964 373.257 163.839" stroke="url(#paint44_linear_1221_17525)" stroke-width="0.25" stroke-miterlimit="10"/>
<path d="M48.5333 -43.293C71.6615 -24.5303 87.1732 3.42785 90.8886 32.9651C94.604 62.5023 86.523 93.4328 68.7821 117.304C58.6577 130.958 45.3753 142.661 38.2232 158.08C31.0711 173.592 32.8359 195.327 47.6974 203.501C59.0293 209.724 73.2406 205.916 84.8511 200.157C112.995 186.317 135.194 163.003 160.552 144.612C185.909 126.128 217.954 112.01 248.142 120.555C263.282 124.828 276.379 134.488 288.918 143.962C301.457 153.529 314.183 163.375 329.137 168.39C344.091 173.406 362.018 172.756 374 162.539" stroke="url(#paint45_linear_1221_17525)" stroke-width="0.25" stroke-miterlimit="10"/>
</g>
</g>
<path d="M215.494 48V36.228H219.202C219.85 36.228 220.45 36.288 221.002 36.408C221.566 36.528 222.052 36.732 222.46 37.02C222.868 37.308 223.186 37.686 223.414 38.154C223.642 38.61 223.756 39.18 223.756 39.864C223.756 40.512 223.642 41.076 223.414 41.556C223.186 42.036 222.868 42.438 222.46 42.762C222.064 43.074 221.59 43.308 221.038 43.464C220.498 43.608 219.91 43.68 219.274 43.68H217.582V48H215.494ZM217.582 42.006H219.112C220.84 42.006 221.704 41.292 221.704 39.864C221.704 39.12 221.476 38.61 221.02 38.334C220.576 38.046 219.916 37.902 219.04 37.902H217.582V42.006ZM227.247 48.216C226.467 48.216 225.837 47.982 225.357 47.514C224.877 47.034 224.637 46.404 224.637 45.624C224.637 45.156 224.733 44.742 224.925 44.382C225.129 44.01 225.441 43.692 225.861 43.428C226.293 43.164 226.833 42.942 227.481 42.762C228.141 42.582 228.927 42.444 229.839 42.348C229.827 42.12 229.791 41.904 229.731 41.7C229.683 41.484 229.593 41.298 229.461 41.142C229.341 40.974 229.179 40.848 228.975 40.764C228.771 40.668 228.519 40.62 228.219 40.62C227.787 40.62 227.361 40.704 226.941 40.872C226.533 41.04 226.131 41.244 225.735 41.484L224.979 40.098C225.471 39.786 226.023 39.516 226.635 39.288C227.247 39.06 227.907 38.946 228.615 38.946C229.719 38.946 230.541 39.276 231.081 39.936C231.633 40.584 231.909 41.526 231.909 42.762V48H230.199L230.055 47.028H229.983C229.587 47.364 229.161 47.646 228.705 47.874C228.261 48.102 227.775 48.216 227.247 48.216ZM227.913 46.596C228.273 46.596 228.597 46.512 228.885 46.344C229.185 46.176 229.503 45.936 229.839 45.624V43.644C229.239 43.716 228.735 43.812 228.327 43.932C227.919 44.052 227.589 44.19 227.337 44.346C227.085 44.49 226.905 44.658 226.797 44.85C226.689 45.042 226.635 45.246 226.635 45.462C226.635 45.858 226.755 46.146 226.995 46.326C227.235 46.506 227.541 46.596 227.913 46.596ZM236.852 48.216C236.24 48.216 235.634 48.102 235.034 47.874C234.446 47.634 233.936 47.34 233.504 46.992L234.476 45.66C234.872 45.972 235.262 46.218 235.646 46.398C236.042 46.566 236.468 46.65 236.924 46.65C237.404 46.65 237.758 46.554 237.986 46.362C238.214 46.158 238.328 45.9 238.328 45.588C238.328 45.408 238.274 45.252 238.166 45.12C238.058 44.976 237.914 44.85 237.734 44.742C237.554 44.634 237.35 44.538 237.122 44.454C236.894 44.358 236.666 44.262 236.438 44.166C236.15 44.058 235.856 43.932 235.556 43.788C235.256 43.644 234.986 43.47 234.746 43.266C234.518 43.062 234.326 42.828 234.17 42.564C234.026 42.288 233.954 41.964 233.954 41.592C233.954 40.812 234.242 40.176 234.818 39.684C235.394 39.192 236.18 38.946 237.176 38.946C237.788 38.946 238.34 39.054 238.832 39.27C239.324 39.486 239.75 39.732 240.11 40.008L239.156 41.268C238.844 41.04 238.526 40.86 238.202 40.728C237.89 40.584 237.56 40.512 237.212 40.512C236.768 40.512 236.438 40.608 236.222 40.8C236.018 40.98 235.916 41.208 235.916 41.484C235.916 41.664 235.964 41.82 236.06 41.952C236.168 42.072 236.306 42.18 236.474 42.276C236.642 42.372 236.834 42.462 237.05 42.546C237.278 42.63 237.512 42.714 237.752 42.798C238.052 42.906 238.352 43.032 238.652 43.176C238.952 43.308 239.222 43.476 239.462 43.68C239.714 43.884 239.912 44.136 240.056 44.436C240.212 44.724 240.29 45.072 240.29 45.48C240.29 45.864 240.212 46.224 240.056 46.56C239.912 46.884 239.696 47.172 239.408 47.424C239.12 47.664 238.76 47.856 238.328 48C237.896 48.144 237.404 48.216 236.852 48.216ZM242.138 48V35.292H244.208V38.568L244.136 40.278C244.508 39.93 244.916 39.624 245.36 39.36C245.816 39.084 246.35 38.946 246.962 38.946C247.91 38.946 248.6 39.252 249.032 39.864C249.464 40.464 249.68 41.328 249.68 42.456V48H247.61V42.726C247.61 41.994 247.502 41.478 247.286 41.178C247.07 40.878 246.716 40.728 246.224 40.728C245.84 40.728 245.498 40.824 245.198 41.016C244.91 41.196 244.58 41.466 244.208 41.826V48H242.138ZM254.317 48.216C253.537 48.216 252.907 47.982 252.427 47.514C251.947 47.034 251.707 46.404 251.707 45.624C251.707 45.156 251.803 44.742 251.995 44.382C252.199 44.01 252.511 43.692 252.931 43.428C253.363 43.164 253.903 42.942 254.551 42.762C255.211 42.582 255.997 42.444 256.909 42.348C256.897 42.12 256.861 41.904 256.801 41.7C256.753 41.484 256.663 41.298 256.531 41.142C256.411 40.974 256.249 40.848 256.045 40.764C255.841 40.668 255.589 40.62 255.289 40.62C254.857 40.62 254.431 40.704 254.011 40.872C253.603 41.04 253.201 41.244 252.805 41.484L252.049 40.098C252.541 39.786 253.093 39.516 253.705 39.288C254.317 39.06 254.977 38.946 255.685 38.946C256.789 38.946 257.611 39.276 258.151 39.936C258.703 40.584 258.979 41.526 258.979 42.762V48H257.269L257.125 47.028H257.053C256.657 47.364 256.231 47.646 255.775 47.874C255.331 48.102 254.845 48.216 254.317 48.216ZM254.983 46.596C255.343 46.596 255.667 46.512 255.955 46.344C256.255 46.176 256.573 45.936 256.909 45.624V43.644C256.309 43.716 255.805 43.812 255.397 43.932C254.989 44.052 254.659 44.19 254.407 44.346C254.155 44.49 253.975 44.658 253.867 44.85C253.759 45.042 253.705 45.246 253.705 45.462C253.705 45.858 253.825 46.146 254.065 46.326C254.305 46.506 254.611 46.596 254.983 46.596ZM265.24 48V36.228H269.002C269.614 36.228 270.172 36.282 270.676 36.39C271.192 36.486 271.636 36.648 272.008 36.876C272.392 37.092 272.686 37.386 272.89 37.758C273.106 38.13 273.214 38.586 273.214 39.126C273.214 39.69 273.07 40.212 272.782 40.692C272.494 41.172 272.092 41.502 271.576 41.682V41.754C272.224 41.898 272.758 42.204 273.178 42.672C273.61 43.128 273.826 43.752 273.826 44.544C273.826 45.132 273.712 45.642 273.484 46.074C273.256 46.506 272.938 46.866 272.53 47.154C272.134 47.442 271.66 47.658 271.108 47.802C270.556 47.934 269.956 48 269.308 48H265.24ZM267.328 41.088H268.822C269.65 41.088 270.244 40.938 270.604 40.638C270.976 40.338 271.162 39.936 271.162 39.432C271.162 38.856 270.97 38.448 270.586 38.208C270.202 37.968 269.626 37.848 268.858 37.848H267.328V41.088ZM267.328 46.38H269.092C269.956 46.38 270.622 46.224 271.09 45.912C271.558 45.588 271.792 45.096 271.792 44.436C271.792 43.812 271.564 43.362 271.108 43.086C270.652 42.798 269.98 42.654 269.092 42.654H267.328V46.38ZM277.942 48.216C277.162 48.216 276.532 47.982 276.052 47.514C275.572 47.034 275.332 46.404 275.332 45.624C275.332 45.156 275.428 44.742 275.62 44.382C275.824 44.01 276.136 43.692 276.556 43.428C276.988 43.164 277.528 42.942 278.176 42.762C278.836 42.582 279.622 42.444 280.534 42.348C280.522 42.12 280.486 41.904 280.426 41.7C280.378 41.484 280.288 41.298 280.156 41.142C280.036 40.974 279.874 40.848 279.67 40.764C279.466 40.668 279.214 40.62 278.914 40.62C278.482 40.62 278.056 40.704 277.636 40.872C277.228 41.04 276.826 41.244 276.43 41.484L275.674 40.098C276.166 39.786 276.718 39.516 277.33 39.288C277.942 39.06 278.602 38.946 279.31 38.946C280.414 38.946 281.236 39.276 281.776 39.936C282.328 40.584 282.604 41.526 282.604 42.762V48H280.894L280.75 47.028H280.678C280.282 47.364 279.856 47.646 279.4 47.874C278.956 48.102 278.47 48.216 277.942 48.216ZM278.608 46.596C278.968 46.596 279.292 46.512 279.58 46.344C279.88 46.176 280.198 45.936 280.534 45.624V43.644C279.934 43.716 279.43 43.812 279.022 43.932C278.614 44.052 278.284 44.19 278.032 44.346C277.78 44.49 277.6 44.658 277.492 44.85C277.384 45.042 277.33 45.246 277.33 45.462C277.33 45.858 277.45 46.146 277.69 46.326C277.93 46.506 278.236 46.596 278.608 46.596ZM285.082 48V39.162H286.792L286.936 40.35H287.008C287.404 39.966 287.83 39.636 288.286 39.36C288.754 39.084 289.294 38.946 289.906 38.946C290.854 38.946 291.544 39.252 291.976 39.864C292.408 40.464 292.624 41.328 292.624 42.456V48H290.554V42.726C290.554 41.994 290.446 41.478 290.23 41.178C290.014 40.878 289.66 40.728 289.168 40.728C288.784 40.728 288.442 40.824 288.142 41.016C287.854 41.196 287.524 41.466 287.152 41.826V48H285.082ZM295.154 48V35.292H297.188V43.23H297.242L300.518 39.162H302.786L299.762 42.762L303.092 48H300.842L298.574 44.166L297.188 45.75V48H295.154Z" fill="white"/>
<path d="M54.5004 29.7002C51.1004 29.7002 48.4004 32.5002 48.4004 35.8002V48.2002C48.4004 51.6002 51.2004 54.3002 54.5004 54.3002C57.9004 54.3002 60.6004 51.5002 60.6004 48.2002V35.8002C60.7004 32.4002 57.9004 29.7002 54.5004 29.7002Z" fill="white" fill-opacity="0.7"/>
<path d="M54.5 28.8C58.1 28.8 61 31.5 61.4 34.9H68V26H41V34.9H47.6C48 31.5 51 28.8 54.5 28.8Z" fill="white" fill-opacity="0.7"/>
<path d="M68.9004 34.9H78.0004V30.5C78.0004 28 76.0004 26 73.5004 26H68.9004V34.9Z" fill="white" fill-opacity="0.7"/>
<path d="M54.5 55.1996C50.9 55.1996 48 52.4996 47.6 49.0996H41V57.9996H68.1V49.0996H61.5C61 52.4996 58.1 55.1996 54.5 55.1996Z" fill="white" fill-opacity="0.7"/>
<path d="M78.1 35.7998H61.5V48.1998H78.1V35.7998Z" fill="white" fill-opacity="0.7"/>
<path d="M40.1 49.0996H31V53.4996C31 55.9996 33 57.9996 35.5 57.9996H40.1V49.0996Z" fill="white" fill-opacity="0.7"/>
<path d="M68.9004 49.0996V57.9996H73.5004C76.0004 57.9996 78.0004 55.9996 78.0004 53.4996V49.0996H68.9004Z" fill="white" fill-opacity="0.7"/>
<path d="M31 48.1998H47.5V35.7998H31V48.1998Z" fill="white" fill-opacity="0.7"/>
<path d="M40.1 34.9V26H35.5C33 26 31 28 31 30.5V34.9H40.1Z" fill="white" fill-opacity="0.7"/>
<path d="M34.374 148.168C33.6553 148.168 33.0487 148.047 32.554 147.804C32.0687 147.552 31.6627 147.263 31.336 146.936L32.078 145.9C32.3487 146.152 32.652 146.376 32.988 146.572C33.324 146.759 33.716 146.852 34.164 146.852C34.668 146.852 35.0787 146.703 35.396 146.404C35.7227 146.105 35.886 145.685 35.886 145.144C35.886 144.612 35.7367 144.201 35.438 143.912C35.1393 143.623 34.7427 143.478 34.248 143.478C33.9587 143.478 33.716 143.52 33.52 143.604C33.324 143.679 33.0907 143.805 32.82 143.982L32.05 143.492L32.316 139.096H37.076V140.454H33.716L33.534 142.61C33.7207 142.517 33.9027 142.447 34.08 142.4C34.2667 142.344 34.4767 142.316 34.71 142.316C35.0927 142.316 35.452 142.372 35.788 142.484C36.1333 142.596 36.432 142.769 36.684 143.002C36.936 143.226 37.1367 143.515 37.286 143.87C37.4353 144.215 37.51 144.626 37.51 145.102C37.51 145.587 37.4213 146.021 37.244 146.404C37.076 146.787 36.8473 147.109 36.558 147.37C36.2687 147.631 35.9327 147.832 35.55 147.972C35.1767 148.103 34.7847 148.168 34.374 148.168ZM39.2137 148V146.684H41.2017V140.832H39.5637V139.824C40.0117 139.74 40.3944 139.642 40.7117 139.53C41.0384 139.409 41.3417 139.264 41.6217 139.096H42.8257V146.684H44.5757V148H39.2137ZM46.3915 148V146.684H48.3795V140.832H46.7415V139.824C47.1895 139.74 47.5721 139.642 47.8895 139.53C48.2161 139.409 48.5195 139.264 48.7995 139.096H50.0035V146.684H51.7535V148H46.3915ZM66.0961 148C66.1335 147.207 66.2035 146.483 66.3061 145.83C66.4088 145.167 66.5535 144.537 66.7401 143.94C66.9361 143.343 67.1835 142.764 67.4821 142.204C67.7808 141.635 68.1448 141.051 68.5741 140.454H64.3601V139.096H70.3381V140.076C69.8155 140.72 69.3908 141.336 69.0641 141.924C68.7468 142.503 68.4948 143.1 68.3081 143.716C68.1215 144.323 67.9861 144.971 67.9021 145.662C67.8275 146.353 67.7715 147.132 67.7341 148H66.0961ZM74.7719 148.168C74.3332 148.168 73.9179 148.084 73.5259 147.916C73.1339 147.739 72.7885 147.473 72.4899 147.118C72.2005 146.763 71.9672 146.311 71.7899 145.76C71.6219 145.209 71.5379 144.561 71.5379 143.814C71.5379 142.946 71.6359 142.204 71.8319 141.588C72.0279 140.972 72.2845 140.468 72.6019 140.076C72.9285 139.684 73.3019 139.395 73.7219 139.208C74.1419 139.021 74.5805 138.928 75.0379 138.928C75.5792 138.928 76.0412 139.026 76.4239 139.222C76.8159 139.418 77.1472 139.656 77.4179 139.936L76.5499 140.916C76.3912 140.72 76.1812 140.561 75.9199 140.44C75.6679 140.309 75.4065 140.244 75.1359 140.244C74.8559 140.244 74.5899 140.3 74.3379 140.412C74.0952 140.524 73.8805 140.711 73.6939 140.972C73.5072 141.224 73.3532 141.56 73.2319 141.98C73.1199 142.4 73.0545 142.918 73.0359 143.534C73.2972 143.207 73.6005 142.951 73.9459 142.764C74.3005 142.577 74.6412 142.484 74.9679 142.484C75.3505 142.484 75.7005 142.54 76.0179 142.652C76.3445 142.764 76.6199 142.937 76.8439 143.17C77.0772 143.394 77.2545 143.679 77.3759 144.024C77.5065 144.369 77.5719 144.775 77.5719 145.242C77.5719 145.69 77.4972 146.096 77.3479 146.46C77.1985 146.815 76.9979 147.118 76.7459 147.37C76.4939 147.622 76.1952 147.818 75.8499 147.958C75.5139 148.098 75.1545 148.168 74.7719 148.168ZM74.7439 146.936C75.1172 146.936 75.4299 146.791 75.6819 146.502C75.9432 146.213 76.0739 145.793 76.0739 145.242C76.0739 144.71 75.9525 144.313 75.7099 144.052C75.4672 143.791 75.1219 143.66 74.6739 143.66C74.4219 143.66 74.1559 143.739 73.8759 143.898C73.5959 144.047 73.3299 144.309 73.0779 144.682C73.1619 145.475 73.3485 146.049 73.6379 146.404C73.9365 146.759 74.3052 146.936 74.7439 146.936ZM80.1016 142.624L79.3876 142.106L80.1996 140.734L78.7716 140.104L79.0376 139.264L80.5636 139.614L80.7176 138.032H81.5996L81.7536 139.614L83.2936 139.264L83.5596 140.104L82.1176 140.734L82.9296 142.106L82.2156 142.624L81.1656 141.406L80.1016 142.624ZM86.2403 142.624L85.5263 142.106L86.3383 140.734L84.9103 140.104L85.1763 139.264L86.7023 139.614L86.8563 138.032H87.7383L87.8923 139.614L89.4323 139.264L89.6983 140.104L88.2563 140.734L89.0683 142.106L88.3543 142.624L87.3043 141.406L86.2403 142.624ZM103.59 142.624L102.876 142.106L103.688 140.734L102.26 140.104L102.526 139.264L104.052 139.614L104.206 138.032H105.088L105.242 139.614L106.782 139.264L107.048 140.104L105.606 140.734L106.418 142.106L105.704 142.624L104.654 141.406L103.59 142.624ZM109.729 142.624L109.015 142.106L109.827 140.734L108.399 140.104L108.665 139.264L110.191 139.614L110.345 138.032H111.227L111.381 139.614L112.921 139.264L113.187 140.104L111.745 140.734L112.557 142.106L111.843 142.624L110.793 141.406L109.729 142.624ZM115.867 142.624L115.153 142.106L115.965 140.734L114.537 140.104L114.803 139.264L116.329 139.614L116.483 138.032H117.365L117.519 139.614L119.059 139.264L119.325 140.104L117.883 140.734L118.695 142.106L117.981 142.624L116.931 141.406L115.867 142.624ZM122.006 142.624L121.292 142.106L122.104 140.734L120.676 140.104L120.942 139.264L122.468 139.614L122.622 138.032H123.504L123.658 139.614L125.198 139.264L125.464 140.104L124.022 140.734L124.834 142.106L124.12 142.624L123.07 141.406L122.006 142.624ZM137.886 148V147.062C138.502 146.465 139.057 145.914 139.552 145.41C140.056 144.906 140.48 144.439 140.826 144.01C141.18 143.581 141.451 143.179 141.638 142.806C141.824 142.433 141.918 142.078 141.918 141.742C141.918 141.266 141.792 140.893 141.54 140.622C141.288 140.342 140.924 140.202 140.448 140.202C140.102 140.202 139.785 140.3 139.496 140.496C139.216 140.692 138.954 140.925 138.712 141.196L137.816 140.3C138.226 139.861 138.646 139.525 139.076 139.292C139.514 139.049 140.042 138.928 140.658 138.928C141.087 138.928 141.474 138.993 141.82 139.124C142.165 139.255 142.459 139.441 142.702 139.684C142.944 139.917 143.131 140.202 143.262 140.538C143.402 140.874 143.472 141.247 143.472 141.658C143.472 142.05 143.383 142.451 143.206 142.862C143.038 143.263 142.804 143.674 142.506 144.094C142.216 144.505 141.876 144.929 141.484 145.368C141.092 145.807 140.676 146.259 140.238 146.726C140.471 146.707 140.723 146.689 140.994 146.67C141.264 146.642 141.507 146.628 141.722 146.628H143.906V148H137.886ZM148.115 148.168C147.182 148.168 146.445 147.771 145.903 146.978C145.362 146.175 145.091 145.018 145.091 143.506C145.091 141.994 145.362 140.855 145.903 140.09C146.445 139.315 147.182 138.928 148.115 138.928C149.049 138.928 149.786 139.315 150.327 140.09C150.869 140.865 151.139 142.003 151.139 143.506C151.139 145.018 150.869 146.175 150.327 146.978C149.786 147.771 149.049 148.168 148.115 148.168ZM148.115 146.908C148.33 146.908 148.526 146.852 148.703 146.74C148.89 146.619 149.049 146.423 149.179 146.152C149.31 145.881 149.413 145.531 149.487 145.102C149.562 144.673 149.599 144.141 149.599 143.506C149.599 142.881 149.562 142.358 149.487 141.938C149.413 141.509 149.31 141.163 149.179 140.902C149.049 140.641 148.89 140.459 148.703 140.356C148.526 140.244 148.33 140.188 148.115 140.188C147.901 140.188 147.7 140.244 147.513 140.356C147.336 140.459 147.182 140.641 147.051 140.902C146.921 141.163 146.818 141.509 146.743 141.938C146.669 142.358 146.631 142.881 146.631 143.506C146.631 144.141 146.669 144.673 146.743 145.102C146.818 145.531 146.921 145.881 147.051 146.152C147.182 146.423 147.336 146.619 147.513 146.74C147.7 146.852 147.901 146.908 148.115 146.908ZM152.241 148V147.062C152.857 146.465 153.412 145.914 153.907 145.41C154.411 144.906 154.836 144.439 155.181 144.01C155.536 143.581 155.806 143.179 155.993 142.806C156.18 142.433 156.273 142.078 156.273 141.742C156.273 141.266 156.147 140.893 155.895 140.622C155.643 140.342 155.279 140.202 154.803 140.202C154.458 140.202 154.14 140.3 153.851 140.496C153.571 140.692 153.31 140.925 153.067 141.196L152.171 140.3C152.582 139.861 153.002 139.525 153.431 139.292C153.87 139.049 154.397 138.928 155.013 138.928C155.442 138.928 155.83 138.993 156.175 139.124C156.52 139.255 156.814 139.441 157.057 139.684C157.3 139.917 157.486 140.202 157.617 140.538C157.757 140.874 157.827 141.247 157.827 141.658C157.827 142.05 157.738 142.451 157.561 142.862C157.393 143.263 157.16 143.674 156.861 144.094C156.572 144.505 156.231 144.929 155.839 145.368C155.447 145.807 155.032 146.259 154.593 146.726C154.826 146.707 155.078 146.689 155.349 146.67C155.62 146.642 155.862 146.628 156.077 146.628H158.261V148H152.241ZM162.261 148.168C161.542 148.168 160.935 148.047 160.441 147.804C159.955 147.552 159.549 147.263 159.223 146.936L159.965 145.9C160.235 146.152 160.539 146.376 160.875 146.572C161.211 146.759 161.603 146.852 162.051 146.852C162.555 146.852 162.965 146.703 163.283 146.404C163.609 146.105 163.773 145.685 163.773 145.144C163.773 144.612 163.623 144.201 163.325 143.912C163.026 143.623 162.629 143.478 162.135 143.478C161.845 143.478 161.603 143.52 161.407 143.604C161.211 143.679 160.977 143.805 160.707 143.982L159.937 143.492L160.203 139.096H164.963V140.454H161.603L161.421 142.61C161.607 142.517 161.789 142.447 161.967 142.4C162.153 142.344 162.363 142.316 162.597 142.316C162.979 142.316 163.339 142.372 163.675 142.484C164.02 142.596 164.319 142.769 164.571 143.002C164.823 143.226 165.023 143.515 165.173 143.87C165.322 144.215 165.397 144.626 165.397 145.102C165.397 145.587 165.308 146.021 165.131 146.404C164.963 146.787 164.734 147.109 164.445 147.37C164.155 147.631 163.819 147.832 163.437 147.972C163.063 148.103 162.671 148.168 162.261 148.168ZM32.036 166V164.684H34.024V158.832H32.386V157.824C32.834 157.74 33.2167 157.642 33.534 157.53C33.8607 157.409 34.164 157.264 34.444 157.096H35.648V164.684H37.398V166H32.036ZM38.3457 168.24L41.6077 156.06H42.6997L39.4377 168.24H38.3457ZM43.5222 166V165.062C44.1382 164.465 44.6936 163.914 45.1882 163.41C45.6922 162.906 46.1169 162.439 46.4622 162.01C46.8169 161.581 47.0876 161.179 47.2742 160.806C47.4609 160.433 47.5542 160.078 47.5542 159.742C47.5542 159.266 47.4282 158.893 47.1762 158.622C46.9242 158.342 46.5602 158.202 46.0842 158.202C45.7389 158.202 45.4216 158.3 45.1322 158.496C44.8522 158.692 44.5909 158.925 44.3482 159.196L43.4522 158.3C43.8629 157.861 44.2829 157.525 44.7122 157.292C45.1509 157.049 45.6782 156.928 46.2942 156.928C46.7236 156.928 47.1109 156.993 47.4562 157.124C47.8016 157.255 48.0956 157.441 48.3382 157.684C48.5809 157.917 48.7676 158.202 48.8982 158.538C49.0382 158.874 49.1082 159.247 49.1082 159.658C49.1082 160.05 49.0196 160.451 48.8422 160.862C48.6742 161.263 48.4409 161.674 48.1422 162.094C47.8529 162.505 47.5122 162.929 47.1202 163.368C46.7282 163.807 46.3129 164.259 45.8742 164.726C46.1076 164.707 46.3596 164.689 46.6302 164.67C46.9009 164.642 47.1436 164.628 47.3582 164.628H49.5422V166H43.5222ZM53.752 166.168C52.8186 166.168 52.0813 165.771 51.54 164.978C50.9986 164.175 50.728 163.018 50.728 161.506C50.728 159.994 50.9986 158.855 51.54 158.09C52.0813 157.315 52.8186 156.928 53.752 156.928C54.6853 156.928 55.4226 157.315 55.964 158.09C56.5053 158.865 56.776 160.003 56.776 161.506C56.776 163.018 56.5053 164.175 55.964 164.978C55.4226 165.771 54.6853 166.168 53.752 166.168ZM53.752 164.908C53.9666 164.908 54.1626 164.852 54.34 164.74C54.5266 164.619 54.6853 164.423 54.816 164.152C54.9466 163.881 55.0493 163.531 55.124 163.102C55.1986 162.673 55.236 162.141 55.236 161.506C55.236 160.881 55.1986 160.358 55.124 159.938C55.0493 159.509 54.9466 159.163 54.816 158.902C54.6853 158.641 54.5266 158.459 54.34 158.356C54.1626 158.244 53.9666 158.188 53.752 158.188C53.5373 158.188 53.3366 158.244 53.15 158.356C52.9726 158.459 52.8186 158.641 52.688 158.902C52.5573 159.163 52.4546 159.509 52.38 159.938C52.3053 160.358 52.268 160.881 52.268 161.506C52.268 162.141 52.3053 162.673 52.38 163.102C52.4546 163.531 52.5573 163.881 52.688 164.152C52.8186 164.423 52.9726 164.619 53.15 164.74C53.3366 164.852 53.5373 164.908 53.752 164.908ZM57.8777 166V165.062C58.4937 164.465 59.049 163.914 59.5437 163.41C60.0477 162.906 60.4724 162.439 60.8177 162.01C61.1724 161.581 61.443 161.179 61.6297 160.806C61.8164 160.433 61.9097 160.078 61.9097 159.742C61.9097 159.266 61.7837 158.893 61.5317 158.622C61.2797 158.342 60.9157 158.202 60.4397 158.202C60.0944 158.202 59.777 158.3 59.4877 158.496C59.2077 158.692 58.9464 158.925 58.7037 159.196L57.8077 158.3C58.2184 157.861 58.6384 157.525 59.0677 157.292C59.5064 157.049 60.0337 156.928 60.6497 156.928C61.079 156.928 61.4664 156.993 61.8117 157.124C62.157 157.255 62.451 157.441 62.6937 157.684C62.9364 157.917 63.123 158.202 63.2537 158.538C63.3937 158.874 63.4637 159.247 63.4637 159.658C63.4637 160.05 63.375 160.451 63.1977 160.862C63.0297 161.263 62.7964 161.674 62.4977 162.094C62.2084 162.505 61.8677 162.929 61.4757 163.368C61.0837 163.807 60.6684 164.259 60.2297 164.726C60.463 164.707 60.715 164.689 60.9857 164.67C61.2564 164.642 61.499 164.628 61.7137 164.628H63.8977V166H57.8777ZM68.7094 166V163.704H64.7754V162.612L68.3034 157.096H70.2214V162.458H71.3414V163.704H70.2214V166H68.7094ZM66.3714 162.458H68.7094V160.442C68.7094 160.181 68.7141 159.873 68.7234 159.518C68.7421 159.163 68.7608 158.855 68.7794 158.594H68.7234C68.6114 158.827 68.4948 159.056 68.3734 159.28C68.2521 159.504 68.1261 159.737 67.9954 159.98L66.3714 162.458Z" fill="white"/>
<g clip-path="url(#clip0_1221_17525)">
<path d="M305.003 169.466V169.565H305.094C305.115 169.565 305.132 169.56 305.145 169.552C305.156 169.545 305.163 169.531 305.163 169.515C305.163 169.499 305.156 169.486 305.145 169.479C305.132 169.47 305.115 169.466 305.094 169.466H305.003ZM305.095 169.397C305.143 169.397 305.179 169.407 305.205 169.429C305.231 169.45 305.244 169.479 305.244 169.515C305.244 169.546 305.234 169.571 305.213 169.591C305.193 169.61 305.164 169.622 305.125 169.627L305.247 169.766H305.152L305.04 169.628H305.003V169.766H304.924V169.397H305.095ZM305.071 169.894C305.115 169.894 305.155 169.885 305.192 169.869C305.229 169.853 305.262 169.831 305.29 169.803C305.318 169.775 305.34 169.742 305.356 169.704C305.372 169.667 305.38 169.626 305.38 169.583C305.38 169.54 305.372 169.5 305.356 169.462C305.34 169.425 305.318 169.391 305.29 169.363C305.262 169.335 305.229 169.313 305.192 169.297C305.155 169.282 305.115 169.274 305.071 169.274C305.028 169.274 304.987 169.282 304.949 169.297C304.911 169.313 304.877 169.335 304.849 169.363C304.821 169.391 304.799 169.425 304.783 169.462C304.767 169.5 304.759 169.54 304.759 169.583C304.759 169.626 304.767 169.667 304.783 169.704C304.799 169.742 304.821 169.775 304.849 169.803C304.877 169.831 304.911 169.853 304.949 169.869C304.987 169.885 305.028 169.894 305.071 169.894ZM305.071 169.185C305.128 169.185 305.18 169.195 305.23 169.216C305.279 169.237 305.322 169.265 305.359 169.302C305.396 169.337 305.425 169.38 305.446 169.429C305.467 169.477 305.478 169.528 305.478 169.583C305.478 169.638 305.467 169.69 305.446 169.738C305.425 169.786 305.396 169.828 305.359 169.864C305.322 169.9 305.279 169.929 305.23 169.95C305.18 169.971 305.128 169.981 305.071 169.981C305.014 169.981 304.961 169.971 304.911 169.95C304.861 169.929 304.817 169.9 304.781 169.864C304.744 169.828 304.715 169.786 304.694 169.738C304.673 169.69 304.662 169.638 304.662 169.583C304.662 169.528 304.673 169.477 304.694 169.429C304.715 169.38 304.744 169.337 304.781 169.302C304.817 169.265 304.861 169.237 304.911 169.216C304.961 169.195 305.014 169.185 305.071 169.185ZM267.561 167.761C267.561 167.057 268.024 166.478 268.781 166.478C269.504 166.478 269.992 167.032 269.992 167.761C269.992 168.491 269.504 169.045 268.781 169.045C268.024 169.045 267.561 168.466 267.561 167.761ZM270.816 167.761V165.757H269.942V166.244C269.665 165.883 269.244 165.657 268.672 165.657C267.545 165.657 266.661 166.538 266.661 167.761C266.661 168.986 267.545 169.866 268.672 169.866C269.244 169.866 269.665 169.64 269.942 169.279V169.765H270.816V167.761ZM300.358 167.761C300.358 167.057 300.821 166.478 301.578 166.478C302.302 166.478 302.789 167.032 302.789 167.761C302.789 168.491 302.302 169.045 301.578 169.045C300.821 169.045 300.358 168.466 300.358 167.761ZM303.614 167.761V164.148H302.739V166.244C302.461 165.883 302.041 165.657 301.469 165.657C300.341 165.657 299.458 166.538 299.458 167.761C299.458 168.986 300.341 169.866 301.469 169.866C302.041 169.866 302.461 169.64 302.739 169.279V169.765H303.614V167.761ZM281.668 166.437C282.231 166.437 282.593 166.789 282.685 167.409H280.599C280.692 166.83 281.045 166.437 281.668 166.437ZM281.685 165.657C280.507 165.657 279.682 166.512 279.682 167.761C279.682 169.036 280.54 169.866 281.744 169.866C282.349 169.866 282.904 169.716 283.392 169.305L282.964 168.659C282.627 168.927 282.197 169.078 281.794 169.078C281.231 169.078 280.717 168.818 280.591 168.096H283.577C283.585 167.988 283.594 167.879 283.594 167.761C283.585 166.512 282.811 165.657 281.685 165.657ZM292.241 167.761C292.241 167.057 292.704 166.478 293.461 166.478C294.184 166.478 294.672 167.032 294.672 167.761C294.672 168.491 294.184 169.045 293.461 169.045C292.704 169.045 292.241 168.466 292.241 167.761ZM295.496 167.761V165.757H294.622V166.244C294.343 165.883 293.924 165.657 293.352 165.657C292.224 165.657 291.341 166.538 291.341 167.761C291.341 168.986 292.224 169.866 293.352 169.866C293.924 169.866 294.343 169.64 294.622 169.279V169.765H295.496V167.761ZM287.304 167.761C287.304 168.977 288.153 169.866 289.449 169.866C290.054 169.866 290.458 169.732 290.895 169.388L290.475 168.684C290.147 168.919 289.802 169.045 289.423 169.045C288.725 169.036 288.212 168.533 288.212 167.761C288.212 166.99 288.725 166.487 289.423 166.478C289.802 166.478 290.147 166.604 290.475 166.839L290.895 166.135C290.458 165.791 290.054 165.657 289.449 165.657C288.153 165.657 287.304 166.545 287.304 167.761ZM298.575 165.657C298.07 165.657 297.742 165.892 297.515 166.244V165.757H296.648V169.765H297.523V167.519C297.523 166.855 297.809 166.487 298.381 166.487C298.558 166.487 298.743 166.512 298.928 166.588L299.198 165.766C299.004 165.69 298.752 165.657 298.575 165.657ZM275.14 166.076C274.719 165.8 274.14 165.657 273.501 165.657C272.482 165.657 271.826 166.143 271.826 166.94C271.826 167.593 272.314 167.997 273.214 168.122L273.627 168.181C274.106 168.248 274.332 168.374 274.332 168.6C274.332 168.91 274.013 169.087 273.416 169.087C272.81 169.087 272.373 168.894 272.079 168.667L271.667 169.346C272.146 169.698 272.752 169.866 273.407 169.866C274.568 169.866 275.241 169.321 275.241 168.558C275.241 167.854 274.712 167.485 273.837 167.359L273.425 167.3C273.046 167.25 272.743 167.175 272.743 166.906C272.743 166.613 273.029 166.437 273.508 166.437C274.021 166.437 274.518 166.63 274.762 166.781L275.14 166.076ZM286.42 165.657C285.915 165.657 285.587 165.892 285.361 166.244V165.757H284.494V169.765H285.369V167.519C285.369 166.855 285.654 166.487 286.226 166.487C286.403 166.487 286.588 166.512 286.773 166.588L287.043 165.766C286.849 165.69 286.597 165.657 286.42 165.657ZM278.959 165.757H277.53V164.541H276.646V165.757H275.83V166.554H276.646V168.382C276.646 169.312 277.008 169.866 278.042 169.866C278.421 169.866 278.858 169.749 279.136 169.556L278.883 168.81C278.622 168.96 278.337 169.036 278.109 169.036C277.672 169.036 277.53 168.767 277.53 168.365V166.554H278.959V165.757ZM265.888 169.765V167.25C265.888 166.303 265.282 165.665 264.306 165.657C263.793 165.648 263.264 165.807 262.893 166.37C262.616 165.925 262.179 165.657 261.564 165.657C261.135 165.657 260.715 165.782 260.387 166.252V165.757H259.512V169.765H260.395V167.544C260.395 166.848 260.782 166.478 261.379 166.478C261.96 166.478 262.254 166.855 262.254 167.535V169.765H263.137V167.544C263.137 166.848 263.541 166.478 264.121 166.478C264.718 166.478 265.004 166.855 265.004 167.535V169.765H265.888Z" fill="white"/>
<path d="M305.277 163.585V162.999H305.124L304.946 163.402L304.77 162.999H304.616V163.585H304.725V163.143L304.891 163.524H305.003L305.169 163.142V163.585H305.277ZM304.305 163.585V163.099H304.502V163H304.001V163.099H304.197V163.585H304.305Z" fill="white"/>
<path d="M288.136 158.955H274.887V135.217H288.136V158.955Z" fill="#F782BC"/>
<path d="M275.735 147.084C275.735 142.269 277.996 137.979 281.518 135.215C278.942 133.194 275.692 131.987 272.16 131.987C263.797 131.987 257.019 138.746 257.019 147.084C257.019 155.422 263.797 162.181 272.16 162.181C275.692 162.181 278.942 160.974 281.518 158.953C277.996 156.189 275.735 151.899 275.735 147.084Z" fill="#F268AC"/>
<path d="M306.004 147.084C306.004 155.422 299.225 162.181 290.863 162.181C287.331 162.181 284.08 160.974 281.504 158.953C285.027 156.189 287.288 151.899 287.288 147.084C287.288 142.269 285.027 137.979 281.504 135.215C284.08 133.194 287.331 131.987 290.863 131.987C299.225 131.987 306.004 138.746 306.004 147.084Z" fill="#F268AC"/>
</g>
<defs>
<filter id="filter0_d_1221_17525" x="0" y="0" width="340" height="205" filterUnits="userSpaceOnUse" color-interpolation-filters="sRGB">
<feFlood flood-opacity="0" result="BackgroundImageFix"/>
<feColorMatrix in="SourceAlpha" type="matrix" values="0 0 0 0 0 0 0 0 0 0 0 0 0 0 0 0 0 0 127 0" result="hardAlpha"/>
<feMorphology radius="5" operator="erode" in="SourceAlpha" result="effect1_dropShadow_1221_17525"/>
<feOffset dy="10"/>
<feGaussianBlur stdDeviation="5"/>
<feComposite in2="hardAlpha" operator="out"/>
<feColorMatrix type="matrix" values="0 0 0 0 0.85098 0 0 0 0 0.027451 0 0 0 0 0.0352942 0 0 0 0.2 0"/>
<feBlend mode="normal" in2="BackgroundImageFix" result="effect1_dropShadow_1221_17525"/>
<feBlend mode="normal" in="SourceGraphic" in2="effect1_dropShadow_1221_17525" result="shape"/>
</filter>
<linearGradient id="paint0_linear_1221_17525" x1="-54.9577" y1="323.792" x2="425.642" y2="151.508" gradientUnits="userSpaceOnUse">
<stop stop-color="#E11A7D"/>
<stop offset="1" stop-color="#FFA6D2"/>
</linearGradient>
<linearGradient id="paint1_linear_1221_17525" x1="-54.9577" y1="323.792" x2="425.642" y2="151.508" gradientUnits="userSpaceOnUse">
<stop stop-color="#F05835"/>
<stop offset="1" stop-color="#FF9E80"/>
</linearGradient>
<linearGradient id="paint2_linear_1221_17525" x1="-9.88389" y1="116.849" x2="95.8857" y2="115.663" gradientUnits="userSpaceOnUse">
<stop stop-color="white" stop-opacity="0"/>
<stop offset="1" stop-color="#F7EBEB"/>
</linearGradient>
<linearGradient id="paint3_linear_1221_17525" x1="148.025" y1="219.24" x2="206.838" y2="-77.6732" gradientUnits="userSpaceOnUse">
<stop stop-color="white" stop-opacity="0"/>
<stop offset="1" stop-color="#F7EBEB"/>
</linearGradient>
<linearGradient id="paint4_linear_1221_17525" x1="-25.1296" y1="153.997" x2="345.379" y2="153.997" gradientUnits="userSpaceOnUse">
<stop stop-color="white" stop-opacity="0"/>
<stop offset="1" stop-color="#F7EBEB"/>
</linearGradient>
<linearGradient id="paint5_linear_1221_17525" x1="112.484" y1="216.483" x2="278.49" y2="-63.3551" gradientUnits="userSpaceOnUse">
<stop stop-color="white" stop-opacity="0"/>
<stop offset="1" stop-color="#F7EBEB"/>
</linearGradient>
<linearGradient id="paint6_linear_1221_17525" x1="-27.8289" y1="116.852" x2="342.292" y2="116.852" gradientUnits="userSpaceOnUse">
<stop stop-color="white" stop-opacity="0"/>
<stop offset="1" stop-color="#F7EBEB"/>
</linearGradient>
<linearGradient id="paint7_linear_1221_17525" x1="280.337" y1="170.202" x2="249.033" y2="43.0886" gradientUnits="userSpaceOnUse">
<stop stop-color="white" stop-opacity="0"/>
<stop offset="1" stop-color="#F7EBEB"/>
</linearGradient>
<linearGradient id="paint8_linear_1221_17525" x1="212.963" y1="166.968" x2="352.872" y2="166.968" gradientUnits="userSpaceOnUse">
<stop stop-color="white" stop-opacity="0"/>
<stop offset="1" stop-color="#F7EBEB"/>
</linearGradient>
<linearGradient id="paint9_linear_1221_17525" x1="97.9749" y1="227.757" x2="251.468" y2="88.7942" gradientUnits="userSpaceOnUse">
<stop stop-color="white" stop-opacity="0"/>
<stop offset="1" stop-color="#F7EBEB"/>
</linearGradient>
<linearGradient id="paint10_linear_1221_17525" x1="96.8165" y1="226.988" x2="249.293" y2="88.944" gradientUnits="userSpaceOnUse">
<stop stop-color="white" stop-opacity="0"/>
<stop offset="1" stop-color="#F7EBEB"/>
</linearGradient>
<linearGradient id="paint11_linear_1221_17525" x1="95.641" y1="226.234" x2="247.118" y2="89.0951" gradientUnits="userSpaceOnUse">
<stop stop-color="white" stop-opacity="0"/>
<stop offset="1" stop-color="#F7EBEB"/>
</linearGradient>
<linearGradient id="paint12_linear_1221_17525" x1="94.4596" y1="225.484" x2="245.535" y2="88.7097" gradientUnits="userSpaceOnUse">
<stop stop-color="white" stop-opacity="0"/>
<stop offset="1" stop-color="#F7EBEB"/>
</linearGradient>
<linearGradient id="paint13_linear_1221_17525" x1="93.2691" y1="224.744" x2="245.657" y2="86.7807" gradientUnits="userSpaceOnUse">
<stop stop-color="white" stop-opacity="0"/>
<stop offset="1" stop-color="#F7EBEB"/>
</linearGradient>
<linearGradient id="paint14_linear_1221_17525" x1="92.0679" y1="224.013" x2="245.778" y2="84.8528" gradientUnits="userSpaceOnUse">
<stop stop-color="white" stop-opacity="0"/>
<stop offset="1" stop-color="#F7EBEB"/>
</linearGradient>
<linearGradient id="paint15_linear_1221_17525" x1="90.8554" y1="223.292" x2="245.9" y2="82.9237" gradientUnits="userSpaceOnUse">
<stop stop-color="white" stop-opacity="0"/>
<stop offset="1" stop-color="#F7EBEB"/>
</linearGradient>
<linearGradient id="paint16_linear_1221_17525" x1="89.6321" y1="222.58" x2="246.021" y2="80.9948" gradientUnits="userSpaceOnUse">
<stop stop-color="white" stop-opacity="0"/>
<stop offset="1" stop-color="#F7EBEB"/>
</linearGradient>
<linearGradient id="paint17_linear_1221_17525" x1="88.3971" y1="221.88" x2="246.143" y2="79.0657" gradientUnits="userSpaceOnUse">
<stop stop-color="white" stop-opacity="0"/>
<stop offset="1" stop-color="#F7EBEB"/>
</linearGradient>
<linearGradient id="paint18_linear_1221_17525" x1="87.1496" y1="221.191" x2="246.264" y2="77.1377" gradientUnits="userSpaceOnUse">
<stop stop-color="white" stop-opacity="0"/>
<stop offset="1" stop-color="#F7EBEB"/>
</linearGradient>
<linearGradient id="paint19_linear_1221_17525" x1="85.8892" y1="220.512" x2="246.385" y2="75.2087" gradientUnits="userSpaceOnUse">
<stop stop-color="white" stop-opacity="0"/>
<stop offset="1" stop-color="#F7EBEB"/>
</linearGradient>
<linearGradient id="paint20_linear_1221_17525" x1="84.6169" y1="219.845" x2="246.507" y2="73.2796" gradientUnits="userSpaceOnUse">
<stop stop-color="white" stop-opacity="0"/>
<stop offset="1" stop-color="#F7EBEB"/>
</linearGradient>
<linearGradient id="paint21_linear_1221_17525" x1="83.3312" y1="219.19" x2="246.628" y2="71.3507" gradientUnits="userSpaceOnUse">
<stop stop-color="white" stop-opacity="0"/>
<stop offset="1" stop-color="#F7EBEB"/>
</linearGradient>
<linearGradient id="paint22_linear_1221_17525" x1="82.0327" y1="218.548" x2="246.75" y2="69.4225" gradientUnits="userSpaceOnUse">
<stop stop-color="white" stop-opacity="0"/>
<stop offset="1" stop-color="#F7EBEB"/>
</linearGradient>
<linearGradient id="paint23_linear_1221_17525" x1="80.7204" y1="217.917" x2="246.872" y2="67.4934" gradientUnits="userSpaceOnUse">
<stop stop-color="white" stop-opacity="0"/>
<stop offset="1" stop-color="#F7EBEB"/>
</linearGradient>
<linearGradient id="paint24_linear_1221_17525" x1="79.3935" y1="217.299" x2="246.993" y2="65.5645" gradientUnits="userSpaceOnUse">
<stop stop-color="white" stop-opacity="0"/>
<stop offset="1" stop-color="#F7EBEB"/>
</linearGradient>
<linearGradient id="paint25_linear_1221_17525" x1="78.0533" y1="216.694" x2="247.114" y2="63.6362" gradientUnits="userSpaceOnUse">
<stop stop-color="white" stop-opacity="0"/>
<stop offset="1" stop-color="#F7EBEB"/>
</linearGradient>
<linearGradient id="paint26_linear_1221_17525" x1="76.6997" y1="216.1" x2="247.236" y2="61.7073" gradientUnits="userSpaceOnUse">
<stop stop-color="white" stop-opacity="0"/>
<stop offset="1" stop-color="#F7EBEB"/>
</linearGradient>
<linearGradient id="paint27_linear_1221_17525" x1="75.3326" y1="215.519" x2="247.357" y2="59.7781" gradientUnits="userSpaceOnUse">
<stop stop-color="white" stop-opacity="0"/>
<stop offset="1" stop-color="#F7EBEB"/>
</linearGradient>
<linearGradient id="paint28_linear_1221_17525" x1="73.9514" y1="214.95" x2="247.478" y2="57.849" gradientUnits="userSpaceOnUse">
<stop stop-color="white" stop-opacity="0"/>
<stop offset="1" stop-color="#F7EBEB"/>
</linearGradient>
<linearGradient id="paint29_linear_1221_17525" x1="72.557" y1="214.394" x2="247.6" y2="55.921" gradientUnits="userSpaceOnUse">
<stop stop-color="white" stop-opacity="0"/>
<stop offset="1" stop-color="#F7EBEB"/>
</linearGradient>
<linearGradient id="paint30_linear_1221_17525" x1="71.1491" y1="213.848" x2="247.721" y2="53.9908" gradientUnits="userSpaceOnUse">
<stop stop-color="white" stop-opacity="0"/>
<stop offset="1" stop-color="#F7EBEB"/>
</linearGradient>
<linearGradient id="paint31_linear_1221_17525" x1="69.7283" y1="213.314" x2="247.841" y2="52.0609" gradientUnits="userSpaceOnUse">
<stop stop-color="white" stop-opacity="0"/>
<stop offset="1" stop-color="#F7EBEB"/>
</linearGradient>
<linearGradient id="paint32_linear_1221_17525" x1="68.2953" y1="212.79" x2="247.962" y2="50.1308" gradientUnits="userSpaceOnUse">
<stop stop-color="white" stop-opacity="0"/>
<stop offset="1" stop-color="#F7EBEB"/>
</linearGradient>
<linearGradient id="paint33_linear_1221_17525" x1="66.8501" y1="212.278" x2="248.081" y2="48.2017" gradientUnits="userSpaceOnUse">
<stop stop-color="white" stop-opacity="0"/>
<stop offset="1" stop-color="#F7EBEB"/>
</linearGradient>
<linearGradient id="paint34_linear_1221_17525" x1="65.3952" y1="211.775" x2="248.202" y2="46.2718" gradientUnits="userSpaceOnUse">
<stop stop-color="white" stop-opacity="0"/>
<stop offset="1" stop-color="#F7EBEB"/>
</linearGradient>
<linearGradient id="paint35_linear_1221_17525" x1="63.929" y1="211.281" x2="248.323" y2="44.3416" gradientUnits="userSpaceOnUse">
<stop stop-color="white" stop-opacity="0"/>
<stop offset="1" stop-color="#F7EBEB"/>
</linearGradient>
<linearGradient id="paint36_linear_1221_17525" x1="62.4525" y1="210.797" x2="248.443" y2="42.4126" gradientUnits="userSpaceOnUse">
<stop stop-color="white" stop-opacity="0"/>
<stop offset="1" stop-color="#F7EBEB"/>
</linearGradient>
<linearGradient id="paint37_linear_1221_17525" x1="60.9672" y1="210.322" x2="248.564" y2="40.4826" gradientUnits="userSpaceOnUse">
<stop stop-color="white" stop-opacity="0"/>
<stop offset="1" stop-color="#F7EBEB"/>
</linearGradient>
<linearGradient id="paint38_linear_1221_17525" x1="59.4708" y1="209.854" x2="248.683" y2="38.5526" gradientUnits="userSpaceOnUse">
<stop stop-color="white" stop-opacity="0"/>
<stop offset="1" stop-color="#F7EBEB"/>
</linearGradient>
<linearGradient id="paint39_linear_1221_17525" x1="57.9677" y1="209.395" x2="248.805" y2="36.6228" gradientUnits="userSpaceOnUse">
<stop stop-color="white" stop-opacity="0"/>
<stop offset="1" stop-color="#F7EBEB"/>
</linearGradient>
<linearGradient id="paint40_linear_1221_17525" x1="56.4548" y1="208.944" x2="248.925" y2="34.6937" gradientUnits="userSpaceOnUse">
<stop stop-color="white" stop-opacity="0"/>
<stop offset="1" stop-color="#F7EBEB"/>
</linearGradient>
<linearGradient id="paint41_linear_1221_17525" x1="54.935" y1="208.5" x2="249.046" y2="32.7636" gradientUnits="userSpaceOnUse">
<stop stop-color="white" stop-opacity="0"/>
<stop offset="1" stop-color="#F7EBEB"/>
</linearGradient>
<linearGradient id="paint42_linear_1221_17525" x1="53.4072" y1="208.062" x2="249.166" y2="30.8338" gradientUnits="userSpaceOnUse">
<stop stop-color="white" stop-opacity="0"/>
<stop offset="1" stop-color="#F7EBEB"/>
</linearGradient>
<linearGradient id="paint43_linear_1221_17525" x1="51.8728" y1="207.632" x2="249.287" y2="28.9048" gradientUnits="userSpaceOnUse">
<stop stop-color="white" stop-opacity="0"/>
<stop offset="1" stop-color="#F7EBEB"/>
</linearGradient>
<linearGradient id="paint44_linear_1221_17525" x1="50.3311" y1="207.206" x2="249.407" y2="26.9749" gradientUnits="userSpaceOnUse">
<stop stop-color="white" stop-opacity="0"/>
<stop offset="1" stop-color="#F7EBEB"/>
</linearGradient>
<linearGradient id="paint45_linear_1221_17525" x1="48.7834" y1="206.787" x2="249.527" y2="25.0449" gradientUnits="userSpaceOnUse">
<stop stop-color="white" stop-opacity="0"/>
<stop offset="1" stop-color="#F7EBEB"/>
</linearGradient>
<clipPath id="clip0_1221_17525">
<rect width="49" height="38" fill="white" transform="translate(257 132)"/>
</clipPath>
</defs>
</svg>
