<svg width="64" height="64" viewBox="0 0 64 64" fill="none" xmlns="http://www.w3.org/2000/svg">
<g clip-path="url(#clip0_1221_17190)">
<path d="M32 0C14.3271 0 0 14.3271 0 32C0 49.6729 14.3271 64 32 64C49.6729 64 64 49.6729 64 32C63.9802 14.3354 49.6646 0.0197917 32 0ZM32 61.8667C15.5052 61.8667 2.13333 48.4948 2.13333 32C2.13333 15.5052 15.5052 2.13333 32 2.13333C48.4948 2.13333 61.8667 15.5052 61.8667 32C61.8479 48.487 48.487 61.8479 32 61.8667ZM32 17.0667C23.1776 17.0667 16 23.2875 16 30.9333C16 38.5792 23.1776 44.8 32 44.8C33.6651 44.7984 35.3224 44.5682 36.925 44.1161L46.6411 46.8896C46.7359 46.9172 46.8344 46.9323 46.9333 46.9333C47.3042 46.9354 47.649 46.7448 47.8448 46.4302C48.0406 46.1151 48.0589 45.7214 47.8932 45.3901L44.8193 39.2417C46.8453 36.9453 47.9745 33.9953 48 30.9333C48 23.2875 40.8224 17.0667 32 17.0667ZM42.5781 39.5411L44.8948 44.175L37.2151 41.9797C37.1193 41.9531 37.0208 41.9396 36.9214 41.9391C36.8177 41.9391 36.7146 41.9542 36.6156 41.9839C35.1182 42.4349 33.5635 42.6651 32 42.6667C24.3542 42.6667 18.1333 37.4026 18.1333 30.9333C18.1333 24.4641 24.3542 19.2 32 19.2C39.6458 19.2 45.8667 24.4641 45.8667 30.9333C45.8307 33.7068 44.7177 36.3573 42.7635 38.3255C42.451 38.6505 42.3766 39.1375 42.5781 39.5411ZM26.6667 30.9333C26.6667 32.1115 25.7115 33.0667 24.5333 33.0667C23.3552 33.0667 22.4 32.1115 22.4 30.9333C22.4 29.7552 23.3552 28.8 24.5333 28.8C25.7115 28.8 26.6667 29.7552 26.6667 30.9333ZM34.1333 30.9333C34.1333 32.1115 33.1781 33.0667 32 33.0667C30.8219 33.0667 29.8667 32.1115 29.8667 30.9333C29.8667 29.7552 30.8219 28.8 32 28.8C33.1781 28.8 34.1333 29.7552 34.1333 30.9333ZM41.6 30.9333C41.6 32.1115 40.6448 33.0667 39.4667 33.0667C38.2885 33.0667 37.3333 32.1115 37.3333 30.9333C37.3333 29.7552 38.2885 28.8 39.4667 28.8C40.6448 28.8 41.6 29.7552 41.6 30.9333Z" fill="url(#paint0_linear_1221_17190)"/>
</g>
<defs>
<linearGradient id="paint0_linear_1221_17190" x1="28.4445" y1="-1.08" x2="28.4445" y2="61.8231" gradientUnits="userSpaceOnUse">
<stop stop-color="#FFA6D2"/>
<stop offset="1" stop-color="#E11A7D"/>
</linearGradient>
<clipPath id="clip0_1221_17190">
<rect width="64" height="64" fill="white"/>
</clipPath>
</defs>
</svg>
