<svg width="56" height="56" viewBox="0 0 56 56" fill="none" xmlns="http://www.w3.org/2000/svg">
<path d="M48.9021 6.40399C50.1813 6.48707 51.1757 7.55029 51.173 8.83226V21.3917C51.1635 36.2115 42.4942 49.6584 28.9999 55.7844C28.3644 56.0706 27.6367 56.0706 27.0012 55.7844C13.504 49.6617 4.83341 36.2127 4.82813 21.3917V8.83226C4.82544 7.55029 5.81975 6.48707 7.09903 6.40399C11.356 6.12592 20.6327 5.00881 26.477 0.522055C27.3734 -0.174018 28.6277 -0.174018 29.5241 0.522055C35.3684 5.00881 44.6451 6.12592 48.9021 6.40399Z" fill="#BDC3C7"/>
<path d="M28.4372 51.7756C28.1605 51.9117 27.8363 51.9117 27.5595 51.7756C16.0067 46.0566 8.69446 34.2827 8.68947 21.3918V11.0337C8.68697 10.536 9.06322 10.118 9.55843 10.0682C14.5878 9.5555 21.8987 8.18447 27.4697 4.53867C27.7883 4.32825 28.2017 4.32825 28.5202 4.53867C34.0903 8.18447 41.4022 9.55936 46.4315 10.0682C46.9287 10.1156 47.3076 10.5343 47.3053 11.0337V21.3918C47.2805 34.2765 39.9752 46.0405 28.4372 51.7756Z" fill="#4FBA6F"/>
<path d="M28.0005 52.8423C27.6992 52.8435 27.4018 52.7747 27.1315 52.6415C21.6387 49.9112 16.9574 45.7889 13.5544 40.6855C9.74484 34.9727 7.71596 28.258 7.72464 21.3916V11.0335C7.72462 10.0418 8.47583 9.21129 9.46257 9.11212C14.4678 8.60232 21.5634 7.25543 26.9384 3.73612C27.5785 3.31713 28.406 3.31713 29.0462 3.73612C34.425 7.25543 41.5206 8.60232 46.522 9.11212C47.5088 9.21129 48.26 10.0418 48.2599 11.0335V21.3916C48.197 34.6283 40.702 46.707 28.8695 52.6405C28.5992 52.7738 28.3018 52.8428 28.0005 52.8423ZM28.0005 5.35143C22.3039 9.08412 14.8839 10.5015 9.66533 11.0335L9.65567 21.3916C9.64709 27.8763 11.5624 34.2179 15.1591 39.6138C18.3741 44.4359 22.7971 48.3309 27.987 50.9103L28.4359 51.7793L28.0063 50.9103C39.1921 45.3112 46.2813 33.9003 46.3453 21.3916V11.0335C41.1199 10.5015 33.7019 9.08412 28.0005 5.35143Z" fill="#ECF0F1"/>
<path d="M29.9311 35.7238C29.3979 35.7238 28.9656 35.2915 28.9656 34.7583V32.8272C28.9656 32.294 28.5333 31.8617 28.0001 31.8617C27.4668 31.8617 27.0346 32.294 27.0346 32.8272V34.7583C27.0346 35.2915 26.6023 35.7238 26.069 35.7238C25.5358 35.7238 25.1035 35.2915 25.1035 34.7583V32.8272C25.1035 31.2275 26.4003 29.9307 28.0001 29.9307C29.5998 29.9307 30.8966 31.2275 30.8966 32.8272V34.7583C30.8966 35.2915 30.4643 35.7238 29.9311 35.7238Z" fill="#D1D4D1"/>
<path d="M18.3445 27.0338C16.2115 27.0338 14.4824 25.3047 14.4824 23.1718C14.4824 22.6385 14.9147 22.2063 15.4479 22.2063C15.9812 22.2063 16.4135 22.6385 16.4135 23.1718C16.4135 24.2383 17.278 25.1028 18.3445 25.1028C19.411 25.1028 20.2755 24.2383 20.2755 23.1718C20.2755 22.1053 19.411 21.2407 18.3445 21.2407C16.2115 21.2407 14.4824 19.5116 14.4824 17.3787C14.4824 15.2457 16.2115 13.5166 18.3445 13.5166C20.4775 13.5166 22.2066 15.2457 22.2066 17.3787C22.2066 17.9119 21.7743 18.3442 21.241 18.3442C20.7078 18.3442 20.2755 17.9119 20.2755 17.3787C20.2755 16.3122 19.411 15.4476 18.3445 15.4476C17.278 15.4476 16.4135 16.3122 16.4135 17.3787C16.4135 18.4452 17.278 19.3097 18.3445 19.3097C20.4775 19.3097 22.2066 21.0388 22.2066 23.1718C22.2066 25.3047 20.4775 27.0338 18.3445 27.0338Z" fill="white"/>
<path d="M27.9988 27.0338C25.8658 27.0338 24.1367 25.3047 24.1367 23.1718C24.1367 22.6385 24.569 22.2063 25.1022 22.2063C25.6355 22.2063 26.0678 22.6385 26.0678 23.1718C26.0678 24.2383 26.9323 25.1028 27.9988 25.1028C29.0653 25.1028 29.9298 24.2383 29.9298 23.1718C29.9298 22.1053 29.0653 21.2407 27.9988 21.2407C25.8658 21.2407 24.1367 19.5116 24.1367 17.3787C24.1367 15.2457 25.8658 13.5166 27.9988 13.5166C30.1317 13.5166 31.8609 15.2457 31.8609 17.3787C31.8609 17.9119 31.4286 18.3442 30.8953 18.3442C30.3621 18.3442 29.9298 17.9119 29.9298 17.3787C29.9298 16.3122 29.0653 15.4476 27.9988 15.4476C26.9323 15.4476 26.0678 16.3122 26.0678 17.3787C26.0678 18.4452 26.9323 19.3097 27.9988 19.3097C30.1317 19.3097 31.8609 21.0388 31.8609 23.1718C31.8609 25.3047 30.1317 27.0338 27.9988 27.0338Z" fill="white"/>
<path d="M39.5861 27.0338H36.6895C35.0898 27.0338 33.793 25.737 33.793 24.1373V14.4821C33.793 13.9489 34.2252 13.5166 34.7585 13.5166C35.2917 13.5166 35.724 13.9489 35.724 14.4821V24.1373C35.724 24.6705 36.1563 25.1028 36.6895 25.1028H39.5861C40.1193 25.1028 40.5516 25.5351 40.5516 26.0683C40.5516 26.6016 40.1193 27.0338 39.5861 27.0338Z" fill="white"/>
<path d="M30.8973 34.7588H25.1042C24.5709 34.7588 24.1387 35.1911 24.1387 35.7243V41.5174C24.1387 42.0507 24.5709 42.4829 25.1042 42.4829H30.8973C31.4305 42.4829 31.8628 42.0507 31.8628 41.5174V35.7243C31.8628 35.1911 31.4305 34.7588 30.8973 34.7588Z" fill="#F3D55B"/>
<path d="M28.0007 39.5863C28.5339 39.5863 28.9662 39.154 28.9662 38.6208C28.9662 38.0876 28.5339 37.6553 28.0007 37.6553C27.4674 37.6553 27.0352 38.0876 27.0352 38.6208C27.0352 39.154 27.4674 39.5863 28.0007 39.5863Z" fill="#CB8252"/>
</svg>
