<svg width="16" height="17" viewBox="0 0 16 17" fill="none" xmlns="http://www.w3.org/2000/svg">
<g clip-path="url(#clip0_1428_3128)">
<path d="M8.52557 1.21449L10.5763 5.36959L15.1617 6.0359C15.6835 6.11169 15.8918 6.75295 15.5143 7.12102L12.1962 10.3553L12.9795 14.9222C13.0686 15.4419 12.5231 15.8382 12.0564 15.5928L7.95508 13.4366L3.85375 15.5928C3.38706 15.8381 2.84158 15.4419 2.93073 14.9222L3.714 10.3553L0.39593 7.12099C0.0183559 6.75292 0.22672 6.11172 0.748522 6.03587L5.33395 5.36956L7.38461 1.21449C7.61799 0.741654 8.29219 0.741654 8.52557 1.21449Z" fill="url(#paint0_linear_1428_3128)"/>
<path d="M10.5762 5.36959L8.52554 1.21448C8.40887 0.97808 8.18197 0.859863 7.95508 0.859863V8.72654L10.5762 5.36959Z" fill="url(#paint1_linear_1428_3128)"/>
<path d="M12.1962 10.3552L15.5142 7.12092C15.7005 6.93935 15.7439 6.69138 15.6777 6.47754L7.95508 8.72647L12.1962 10.3552Z" fill="url(#paint2_linear_1428_3128)"/>
<path d="M12.7283 15.5429L7.95508 8.72656V13.4367L12.0564 15.5928C12.2906 15.716 12.5446 15.6775 12.7283 15.5429Z" fill="url(#paint3_linear_1428_3128)"/>
<path d="M7.9549 8.72656L3.7138 10.3553L2.93055 14.9222C2.88613 15.1811 2.99932 15.4093 3.1817 15.5429L7.9549 8.72656Z" fill="url(#paint4_linear_1428_3128)"/>
<path d="M0.232422 6.47767L7.95507 8.72657L5.33394 5.36963L0.748502 6.03596C0.484118 6.07436 0.300433 6.25801 0.232422 6.47767Z" fill="url(#paint5_linear_1428_3128)"/>
<path d="M3.71382 10.3552L0.395748 7.12092C0.20949 6.93936 0.166036 6.69138 0.232261 6.47754L7.95489 8.72645L3.71382 10.3552Z" fill="url(#paint6_linear_1428_3128)"/>
</g>
<defs>
<linearGradient id="paint0_linear_1428_3128" x1="7.95534" y1="2.58676" x2="7.95534" y2="19.6936" gradientUnits="userSpaceOnUse">
<stop stop-color="#FFCF95"/>
<stop offset="0.427" stop-color="#FFC954"/>
<stop offset="1" stop-color="#FFC200"/>
</linearGradient>
<linearGradient id="paint1_linear_1428_3128" x1="11.9735" y1="4.7928" x2="6.80216" y2="4.7928" gradientUnits="userSpaceOnUse">
<stop stop-color="#FFC200" stop-opacity="0"/>
<stop offset="0.203" stop-color="#FFBB00" stop-opacity="0.203"/>
<stop offset="0.499" stop-color="#FFA700" stop-opacity="0.499"/>
<stop offset="0.852" stop-color="#FF8800" stop-opacity="0.852"/>
<stop offset="1" stop-color="#FF7800"/>
</linearGradient>
<linearGradient id="paint2_linear_1428_3128" x1="12.8569" y1="12.7159" x2="11.4874" y2="5.97152" gradientUnits="userSpaceOnUse">
<stop stop-color="#FFC200" stop-opacity="0"/>
<stop offset="0.203" stop-color="#FFBB00" stop-opacity="0.203"/>
<stop offset="0.499" stop-color="#FFA700" stop-opacity="0.499"/>
<stop offset="0.852" stop-color="#FF8800" stop-opacity="0.852"/>
<stop offset="1" stop-color="#FF7800"/>
</linearGradient>
<linearGradient id="paint3_linear_1428_3128" x1="6.21625" y1="16.2604" x2="11.5801" y2="10.8965" gradientUnits="userSpaceOnUse">
<stop stop-color="#FFC200" stop-opacity="0"/>
<stop offset="0.203" stop-color="#FFBB00" stop-opacity="0.203"/>
<stop offset="0.499" stop-color="#FFA700" stop-opacity="0.499"/>
<stop offset="0.852" stop-color="#FF8800" stop-opacity="0.852"/>
<stop offset="1" stop-color="#FF7800"/>
</linearGradient>
<linearGradient id="paint4_linear_1428_3128" x1="2.39101" y1="9.47721" x2="6.34463" y2="12.7848" gradientUnits="userSpaceOnUse">
<stop stop-color="#FFC200" stop-opacity="0"/>
<stop offset="0.203" stop-color="#FFBB00" stop-opacity="0.203"/>
<stop offset="0.499" stop-color="#FFA700" stop-opacity="0.499"/>
<stop offset="0.852" stop-color="#FF8800" stop-opacity="0.852"/>
<stop offset="1" stop-color="#FF7800"/>
</linearGradient>
<linearGradient id="paint5_linear_1428_3128" x1="5.35496" y1="4.02125" x2="3.75285" y2="8.56919" gradientUnits="userSpaceOnUse">
<stop stop-color="#FFC200" stop-opacity="0"/>
<stop offset="0.203" stop-color="#FFBB00" stop-opacity="0.203"/>
<stop offset="0.499" stop-color="#FFA700" stop-opacity="0.499"/>
<stop offset="0.852" stop-color="#FF8800" stop-opacity="0.852"/>
<stop offset="1" stop-color="#FF7800"/>
</linearGradient>
<linearGradient id="paint6_linear_1428_3128" x1="11.3856" y1="4.49605" x2="-0.384852" y2="9.50913" gradientUnits="userSpaceOnUse">
<stop stop-color="#FFC200" stop-opacity="0"/>
<stop offset="0.203" stop-color="#FFBB00" stop-opacity="0.203"/>
<stop offset="0.499" stop-color="#FFA700" stop-opacity="0.499"/>
<stop offset="0.852" stop-color="#FF8800" stop-opacity="0.852"/>
<stop offset="1" stop-color="#FF7800"/>
</linearGradient>
<clipPath id="clip0_1428_3128">
<rect width="15.504" height="15.504" fill="white" transform="translate(0.203125 0.511719)"/>
</clipPath>
</defs>
</svg>
