<svg width="24" height="25" viewBox="0 0 24 25" fill="none" xmlns="http://www.w3.org/2000/svg">
<g clip-path="url(#clip0_1426_2732)">
<path d="M12 0.638672C5.37258 0.638672 0 6.01126 0 12.6387C0 19.2661 5.37258 24.6387 12 24.6387C18.6275 24.6387 24 19.2661 24 12.6387C24 6.01126 18.6275 0.638672 12 0.638672Z" fill="#F0B5D2"/>
<path fill-rule="evenodd" clip-rule="evenodd" d="M24 12.6387H0C0 19.2661 5.37258 24.6387 12 24.6387C18.6275 24.6387 24 19.2661 24 12.6387Z" fill="#E196BB"/>
<path fill-rule="evenodd" clip-rule="evenodd" d="M13.8945 5.40527C14.1904 5.05006 14.7184 5.00207 15.0736 5.29807L18.118 7.83507C18.3104 7.99537 18.4209 8.23336 18.4192 8.48375C18.4176 8.73415 18.3039 8.97065 18.1095 9.1284L15.065 11.5981C14.7061 11.8895 14.1787 11.8345 13.8875 11.4754C13.5961 11.1163 13.6511 10.5891 14.0102 10.2978L15.2211 9.31545H8.44884C7.7903 9.31545 7.25645 9.8493 7.25645 10.5078V11.5226C7.25645 11.985 6.88161 12.3599 6.41924 12.3599C5.95687 12.3599 5.58203 11.985 5.58203 11.5226V10.5078C5.58203 8.92454 6.86554 7.64103 8.44884 7.64103H15.2697L14.0017 6.58439C13.6465 6.28839 13.5985 5.76048 13.8945 5.40527Z" fill="white"/>
<path fill-rule="evenodd" clip-rule="evenodd" d="M10.1247 19.3139C9.84097 19.679 9.31499 19.745 8.9499 19.4613L5.90551 17.0953C5.69817 16.9342 5.57845 16.6851 5.58211 16.4225C5.58577 16.16 5.7124 15.9144 5.92415 15.7591L8.96855 13.5266C9.34141 13.2531 9.86531 13.3337 10.1388 13.7066C10.4122 14.0795 10.3316 14.6033 9.95874 14.8768L8.97662 15.597H15.5524C16.3147 15.597 16.7448 15.0748 16.7448 14.6482V13.7552C16.7448 13.2928 17.1197 12.918 17.582 12.918C18.0444 12.918 18.4192 13.2928 18.4192 13.7552V14.6482C18.4192 16.1944 17.0319 17.2715 15.5524 17.2715H8.86088L9.97738 18.1391C10.3425 18.4229 10.4084 18.9489 10.1247 19.3139Z" fill="white"/>
</g>
<defs>
<clipPath id="clip0_1426_2732">
<rect width="24" height="24" fill="white" transform="translate(0 0.638672)"/>
</clipPath>
</defs>
</svg>
