<svg width="14" height="16" viewBox="0 0 14 16" fill="none" xmlns="http://www.w3.org/2000/svg">
<path fill-rule="evenodd" clip-rule="evenodd" d="M13.4298 2.89387C13.4298 3.29567 13.4298 3.69746 13.4489 4.11839C13.5254 8.15546 13.6211 13.6466 6.92453 15.9617L6.7332 16L6.54187 15.9617C-0.164082 13.65 -0.059345 8.1523 0.0171726 4.13588L0.0175059 4.11839C0.0366389 3.69746 0.0366389 3.29567 0.0366389 2.89387C0.0366389 2.56861 0.285368 2.31988 0.61063 2.31988C3.00226 2.31988 4.8199 1.63109 6.33141 0.157848C6.561 -0.0526159 6.9054 -0.0526159 7.13499 0.157848C8.6465 1.63109 10.4641 2.31988 12.8558 2.31988C13.181 2.31988 13.4298 2.56861 13.4298 2.89387ZM7.39998 4.95256V10.938H9.01904C9.8897 10.938 10.5725 10.6848 11.0675 10.1784C11.5624 9.66584 11.8099 8.91233 11.8099 7.91781C11.8099 6.92939 11.5595 6.18808 11.0585 5.69387C10.5576 5.19966 9.85989 4.95256 8.96537 4.95256H7.39998ZM8.89381 10.0777H8.43761V5.81285H8.89381C9.48419 5.81285 9.94039 5.98064 10.2624 6.31621C10.5844 6.65178 10.7455 7.18565 10.7455 7.91781C10.7455 8.65607 10.5844 9.20214 10.2624 9.55602C9.94039 9.9038 9.48419 10.0777 8.89381 10.0777ZM3.05539 10.8098C3.37145 10.9685 3.75907 11.0478 4.21825 11.0478C4.58202 11.0478 4.91299 10.9807 5.21116 10.8465C5.51529 10.7122 5.75681 10.52 5.93571 10.2699C6.12058 10.0197 6.21301 9.71771 6.21301 9.36383C6.21301 8.97944 6.0997 8.66523 5.87309 8.42117C5.64649 8.17712 5.36621 8.00933 5.03225 7.91781V7.8812C5.34235 7.75918 5.58387 7.58834 5.75681 7.36869C5.93571 7.14294 6.02516 6.86838 6.02516 6.54501C6.02516 6.0508 5.8552 5.67252 5.51529 5.41016C5.17538 5.1417 4.7311 5.00747 4.18247 5.00747C3.84256 5.00747 3.53246 5.07459 3.25218 5.20882C2.97786 5.34305 2.71845 5.51998 2.47396 5.73963L3.00172 6.38943C3.17465 6.22469 3.35356 6.09351 3.53842 5.99589C3.72329 5.89217 3.92604 5.8403 4.14669 5.8403C4.40908 5.8403 4.61482 5.91047 4.7639 6.0508C4.91299 6.18503 4.98753 6.37417 4.98753 6.61823C4.98753 6.88668 4.88019 7.10938 4.66551 7.28632C4.45082 7.46326 4.0632 7.55173 3.50264 7.55173V8.3205C3.93797 8.3205 4.2749 8.36016 4.51344 8.43948C4.75794 8.51879 4.9279 8.63472 5.02331 8.78725C5.12469 8.93368 5.17538 9.10757 5.17538 9.30892C5.17538 9.58348 5.07698 9.80007 4.88019 9.95871C4.68936 10.1112 4.4389 10.1875 4.1288 10.1875C3.84256 10.1875 3.58911 10.1265 3.36847 10.0045C3.14782 9.87634 2.95103 9.72381 2.77809 9.54687L2.28611 10.2241C2.48886 10.4499 2.74529 10.6451 3.05539 10.8098Z" fill="black"/>
</svg>
