<svg width="48" height="48" viewBox="0 0 48 48" fill="none" xmlns="http://www.w3.org/2000/svg">
<g filter="url(#filter0_d_1_17810)">
<rect x="4.5" y="39.5" width="39" height="39" rx="19.5" transform="rotate(-90 4.5 39.5)" stroke="url(#paint0_linear_1_17810)" shape-rendering="crispEdges"/>
</g>
<g filter="url(#filter1_d_1_17810)">
<path d="M23.4537 15.2172L17.2237 21.277C17.0794 21.4172 17 21.6043 17 21.8038C17 22.0033 17.0794 22.1904 17.2237 22.3305L17.6824 22.7768C17.9812 23.0672 18.467 23.0672 18.7655 22.7768L23.9971 17.6882L29.2345 22.7825C29.3787 22.9226 29.571 23 29.776 23C29.9812 23 30.1734 22.9226 30.3178 22.7825L30.7763 22.3362C30.9206 22.1959 31 22.0089 31 21.8094C31 21.6099 30.9206 21.4228 30.7763 21.2827L24.5406 15.2172C24.3959 15.0767 24.2028 14.9996 23.9974 15C23.7913 14.9996 23.5983 15.0767 23.4537 15.2172Z" fill="url(#paint1_linear_1_17810)"/>
</g>
<defs>
<filter id="filter0_d_1_17810" x="0" y="0" width="48" height="48" filterUnits="userSpaceOnUse" color-interpolation-filters="sRGB">
<feFlood flood-opacity="0" result="BackgroundImageFix"/>
<feColorMatrix in="SourceAlpha" type="matrix" values="0 0 0 0 0 0 0 0 0 0 0 0 0 0 0 0 0 0 127 0" result="hardAlpha"/>
<feOffset dy="4"/>
<feGaussianBlur stdDeviation="2"/>
<feComposite in2="hardAlpha" operator="out"/>
<feColorMatrix type="matrix" values="0 0 0 0 0.85098 0 0 0 0 0.027451 0 0 0 0 0.0352942 0 0 0 0.23 0"/>
<feBlend mode="normal" in2="BackgroundImageFix" result="effect1_dropShadow_1_17810"/>
<feBlend mode="normal" in="SourceGraphic" in2="effect1_dropShadow_1_17810" result="shape"/>
</filter>
<filter id="filter1_d_1_17810" x="13" y="15" width="22" height="16" filterUnits="userSpaceOnUse" color-interpolation-filters="sRGB">
<feFlood flood-opacity="0" result="BackgroundImageFix"/>
<feColorMatrix in="SourceAlpha" type="matrix" values="0 0 0 0 0 0 0 0 0 0 0 0 0 0 0 0 0 0 127 0" result="hardAlpha"/>
<feOffset dy="4"/>
<feGaussianBlur stdDeviation="2"/>
<feComposite in2="hardAlpha" operator="out"/>
<feColorMatrix type="matrix" values="0 0 0 0 0.85098 0 0 0 0 0.027451 0 0 0 0 0.0352942 0 0 0 0.23 0"/>
<feBlend mode="normal" in2="BackgroundImageFix" result="effect1_dropShadow_1_17810"/>
<feBlend mode="normal" in="SourceGraphic" in2="effect1_dropShadow_1_17810" result="shape"/>
</filter>
<linearGradient id="paint0_linear_1_17810" x1="14.3333" y1="86" x2="40.6667" y2="23.3333" gradientUnits="userSpaceOnUse">
<stop stop-color="#F05835"/>
<stop offset="1" stop-color="#F06D35"/>
</linearGradient>
<linearGradient id="paint1_linear_1_17810" x1="33.1" y1="20.9333" x2="16.3511" y2="8.61663" gradientUnits="userSpaceOnUse">
<stop stop-color="#F05835"/>
<stop offset="1" stop-color="#F06D35"/>
</linearGradient>
</defs>
</svg>
