<svg width="24" height="25" viewBox="0 0 24 25" fill="none" xmlns="http://www.w3.org/2000/svg">
<g clip-path="url(#clip0_1426_2678)">
<path d="M20.3672 3.20801C20.3666 3.20801 20.3661 3.2081 20.3654 3.2081C20.3654 3.2081 1.87927 3.20843 1.875 3.20843C1.8675 3.20843 1.86047 3.20904 1.8532 3.20937C0.827766 3.22109 0 4.0556 0 5.0838V5.42951C0.0001875 5.36998 0.0031875 5.54552 0.00792187 5.48712C0.093375 6.44346 0.896438 7.19323 1.875 7.19323C1.87927 7.19323 20.3654 6.95852 20.3654 6.95852C20.366 6.95852 20.3666 7.19285 20.3672 7.19285C21.5949 7.19285 22.5938 7.95734 22.5938 9.18509V5.43471C22.5938 4.20687 21.5949 3.20801 20.3672 3.20801Z" fill="#E196BB"/>
<path d="M20.3674 6.95862C20.3668 6.95862 20.3662 6.95871 20.3655 6.95871C20.3655 6.95871 1.87941 6.95904 1.87514 6.95904C0.896578 6.95904 0.0935156 6.20927 0.0080625 5.25293C0.0031875 5.31312 0 5.37382 0 5.43523C0 5.43584 4.6875e-05 5.4364 4.6875e-05 5.43701V15.3378V17.6226V20.4355C4.6875e-05 20.4362 0.000140625 20.4367 0.000140625 20.4374C0.001125 21.6643 0.999563 22.6622 2.22666 22.6622H20.3674C21.595 22.6622 22.5938 21.6635 22.5939 20.4359C22.5939 20.4358 22.5939 20.4358 22.5939 20.4357V18.8535V17.623V9.18522C22.5939 7.95747 21.5951 6.95862 20.3674 6.95862Z" fill="#F0B5D2"/>
<path d="M20.3674 6.9585C20.3668 6.9585 20.3662 6.95859 20.3655 6.95859C20.3655 6.95859 19.8381 6.95859 18.9656 6.95864C20.1912 6.96117 21.1875 7.95895 21.1875 9.18515V17.623V18.8535V20.4357C21.1875 20.4358 21.1875 20.4358 21.1875 20.4359C21.1873 21.6635 20.1885 22.6622 18.9609 22.6622H20.3673C21.5949 22.6622 22.5937 21.6635 22.5939 20.4359C22.5939 20.4358 22.5939 20.4358 22.5939 20.4357V18.8535V17.623V9.18511C22.5939 7.95736 21.5951 6.9585 20.3674 6.9585Z" fill="#E196BB"/>
<path d="M20.3686 3.20801C20.368 3.20801 20.3674 3.2081 20.3668 3.2081C20.3668 3.2081 19.8393 3.2081 18.9668 3.2081C20.1924 3.21063 21.1887 4.20841 21.1887 5.43457V7.11555C22.0116 7.44288 22.5951 8.24679 22.5951 9.18495V5.43457C22.5952 4.20687 21.5963 3.20801 20.3686 3.20801Z" fill="#F0B5D2"/>
<path d="M23.2971 11.6463H22.9383H21.0195H18.0233C18.0231 11.6463 18.0229 11.6463 18.0226 11.6463C18.0125 11.6463 18.0024 11.6469 17.9924 11.6478C17.9809 11.6488 17.9695 11.6504 17.9584 11.6525C17.957 11.6528 17.9556 11.6529 17.9543 11.6532C17.945 11.6551 17.9359 11.6574 17.9269 11.66C17.925 11.6605 17.9231 11.6609 17.9213 11.6615C17.9132 11.6639 17.9055 11.6669 17.8977 11.6698C17.8948 11.6709 17.8918 11.6718 17.8889 11.673C17.8824 11.6757 17.8762 11.6788 17.8699 11.6819C17.8658 11.6839 17.8616 11.6857 17.8576 11.6878C17.8528 11.6904 17.8482 11.6934 17.8435 11.6962C17.8383 11.6993 17.8329 11.7023 17.8279 11.7057C17.8245 11.7079 17.8214 11.7105 17.8182 11.7128C17.8121 11.7172 17.806 11.7214 17.8002 11.7262C17.7978 11.7282 17.7957 11.7304 17.7933 11.7324C17.7871 11.7378 17.7808 11.7432 17.7749 11.7491C17.7719 11.7521 17.7692 11.7554 17.7663 11.7585C17.7612 11.764 17.756 11.7694 17.7512 11.7753C17.7441 11.784 17.7374 11.793 17.7312 11.8023C17.731 11.8025 17.7309 11.8027 17.7308 11.8029L15.8559 14.6154C15.8428 14.635 15.8318 14.6558 15.823 14.6774C15.8197 14.6854 15.817 14.6936 15.8143 14.7018C15.8135 14.7043 15.8125 14.7067 15.8117 14.7092C15.8091 14.7179 15.8071 14.7266 15.8052 14.7354C15.8047 14.7377 15.804 14.7399 15.8035 14.7422C15.802 14.75 15.801 14.7579 15.8 14.7659C15.7995 14.7692 15.7989 14.7726 15.7986 14.776C15.7979 14.7826 15.7978 14.789 15.7975 14.7955C15.7973 14.8005 15.7969 14.8055 15.7969 14.8105C15.7969 14.8153 15.7973 14.8202 15.7975 14.825C15.7977 14.8316 15.7979 14.8383 15.7986 14.845C15.7989 14.8482 15.7995 14.8515 15.7999 14.8547C15.801 14.8628 15.802 14.8709 15.8036 14.8789C15.804 14.8811 15.8047 14.8832 15.8052 14.8854C15.8071 14.8943 15.8092 14.9031 15.8118 14.9118C15.8125 14.9143 15.8136 14.9167 15.8144 14.9192C15.817 14.9274 15.8197 14.9356 15.823 14.9437C15.8318 14.9653 15.8429 14.986 15.856 15.0057L17.7309 17.8178C17.731 17.818 17.7311 17.818 17.7312 17.8182C17.7387 17.8294 17.747 17.8401 17.7557 17.8503C17.7585 17.8537 17.7615 17.8569 17.7645 17.8601C17.7705 17.8666 17.7767 17.8729 17.7832 17.8789C17.787 17.8825 17.7907 17.886 17.7945 17.8893C17.8013 17.8952 17.8085 17.9006 17.8157 17.906C17.819 17.9084 17.8222 17.911 17.8255 17.9132C17.836 17.9204 17.847 17.927 17.8583 17.933C17.8611 17.9345 17.8641 17.9358 17.8669 17.9372C17.8759 17.9417 17.8851 17.9459 17.8945 17.9496C17.8982 17.951 17.9018 17.9523 17.9055 17.9536C17.9145 17.9568 17.9236 17.9596 17.9329 17.9621C17.9367 17.9631 17.9404 17.9642 17.9443 17.965C17.9538 17.9672 17.9634 17.9689 17.9732 17.9703C17.9768 17.9709 17.9803 17.9716 17.9839 17.972C17.996 17.9733 18.0083 17.9741 18.0207 17.9742C18.0217 17.9742 18.0227 17.9744 18.0237 17.9744C18.0239 17.9744 18.0241 17.9743 18.0244 17.9743H22.9455C23.527 17.9743 24 17.5013 24 16.9198V11.6464V10.9468C23.9981 11.3334 23.6842 11.6463 23.2971 11.6463Z" fill="#E196BB"/>
<path d="M23.297 11.6463H22.9382H22.5936V16.9197C22.5936 17.5012 22.1205 17.9742 21.5391 17.9742H22.9455C23.5269 17.9742 24 17.5012 24 16.9197V11.6463V10.9468C23.998 11.3334 23.6841 11.6463 23.297 11.6463Z" fill="#F0B5D2"/>
<path d="M23.2969 10.2402H22.5939V10.9398C22.5939 10.941 22.5938 10.9421 22.5938 10.9434C22.5938 10.9446 22.5939 10.9458 22.5939 10.947V11.6465H23.2969C23.6852 11.6465 24 11.3317 24 10.9434C24 10.555 23.6852 10.2402 23.2969 10.2402Z" fill="#E196BB"/>
<path d="M19.8981 5.78711H2.22656C2.03241 5.78711 1.875 5.6297 1.875 5.43555C1.875 5.24139 2.03241 5.08398 2.22656 5.08398H19.8981C20.0923 5.08398 20.2497 5.24139 20.2497 5.43555C20.2497 5.6297 20.0923 5.78711 19.8981 5.78711Z" fill="#E196BB"/>
<path d="M19.4297 15.982C18.7835 15.982 18.2578 15.4563 18.2578 14.8101C18.2578 14.1639 18.7835 13.6382 19.4297 13.6382C20.0759 13.6382 20.6016 14.1639 20.6016 14.8101C20.6016 15.4563 20.0759 15.982 19.4297 15.982Z" fill="white"/>
<path d="M18 6.13867L4.36432 3.14931C4.36236 3.14889 4.36041 3.14867 4.3584 3.14826C4.35635 3.14784 4.35449 3.14724 4.35244 3.14687C4.34838 3.14608 4.34433 3.14571 4.34027 3.14503C4.33392 3.14398 4.32756 3.14293 4.32126 3.14214C4.31559 3.14147 4.31002 3.14098 4.30435 3.14049C4.2977 3.13993 4.29105 3.13937 4.2844 3.13907C4.27903 3.13884 4.2737 3.1388 4.26837 3.13873C4.26153 3.13865 4.25474 3.13862 4.24794 3.13884C4.24286 3.13899 4.23778 3.13937 4.23274 3.13967C4.2258 3.14012 4.21891 3.14061 4.21212 3.14136C4.20728 3.14188 4.20254 3.14259 4.1977 3.14327C4.19076 3.14424 4.18387 3.14526 4.17702 3.14653C4.17248 3.14739 4.16798 3.14841 4.16349 3.14938C4.15659 3.15088 4.14975 3.15242 4.14301 3.15426C4.13875 3.15542 4.1346 3.15669 4.1304 3.15793C4.1236 3.15999 4.11686 3.16209 4.11021 3.16442C4.10625 3.16584 4.10234 3.16738 4.09843 3.16888C4.09188 3.17143 4.08533 3.17406 4.07898 3.17691C4.07527 3.17859 4.07165 3.18039 4.06793 3.18216C4.06168 3.1852 4.05552 3.18827 4.04951 3.19157C4.04594 3.19352 4.04247 3.19562 4.039 3.19768C4.03323 3.2011 4.02756 3.20458 4.02204 3.20826C4.01857 3.21058 4.01529 3.21302 4.01192 3.21542C4.00679 3.21917 4.00166 3.22296 3.99677 3.22693C3.99345 3.22963 3.99027 3.23249 3.98704 3.2353C3.98255 3.23927 3.9781 3.24325 3.9739 3.24745C3.97067 3.25067 3.96764 3.25397 3.96456 3.25727C3.9608 3.26136 3.95708 3.26545 3.95356 3.26969C3.95049 3.27344 3.94765 3.2773 3.94482 3.28116C3.94179 3.28529 3.93876 3.28941 3.93597 3.29365C3.93318 3.29789 3.93074 3.30224 3.9282 3.30659C3.9258 3.31083 3.92341 3.31503 3.92121 3.31938C3.91896 3.32392 3.91696 3.32864 3.915 3.33333C3.91373 3.33637 3.91217 3.33922 3.91104 3.34229C3.91046 3.34379 3.91021 3.34533 3.90967 3.34683C3.90914 3.34837 3.90835 3.34983 3.90787 3.35137L3 6.13848H18V6.13867Z" fill="white"/>
</g>
<defs>
<clipPath id="clip0_1426_2678">
<rect width="24" height="24" fill="white" transform="translate(0 0.138672)"/>
</clipPath>
</defs>
</svg>
