<svg width="24" height="25" viewBox="0 0 24 25" fill="none" xmlns="http://www.w3.org/2000/svg">
<g filter="url(#filter0_b_1426_1051)">
<path d="M24 12.7422C24 6.11477 18.6274 0.742188 12 0.742188C5.37248 0.742188 0 6.11477 0 12.7422C0 19.3696 5.37258 24.7422 12 24.7422C18.6273 24.7422 24 19.3696 24 12.7422Z" fill="#F0B5D2"/>
<path d="M12.8452 14.1136V15.5065C12.8452 16.1064 12.3715 16.5565 11.7397 16.5565C11.1531 16.5565 10.6342 16.1065 10.6342 15.5065V13.2779C10.6342 13.2565 10.6568 13.2565 10.6568 13.235C10.6342 13.2136 10.6342 13.2136 10.6342 13.1921C10.6342 12.635 11.1532 12.1421 11.7397 12.1421C13.161 12.1421 14.3116 11.0706 14.3116 9.74213C14.3116 8.39212 13.161 7.34214 11.7397 7.34214C10.8147 7.34214 10.0025 7.81356 9.57394 8.52072C9.25811 9.03501 8.58126 9.20644 8.03981 8.90646C7.52087 8.60648 7.34043 7.98503 7.65626 7.47074C8.4684 6.14218 10.0025 5.24219 11.7397 5.24219C14.3567 5.24219 16.5 7.25648 16.5 9.74222C16.5 11.8635 14.9433 13.6421 12.8452 14.1136ZM12.8452 18.8064V19.1922C12.8452 19.7921 12.3715 20.2422 11.7397 20.2422C11.1531 20.2422 10.6342 19.7922 10.6342 19.1922V18.8064C10.6342 18.2278 11.1532 17.7564 11.7397 17.7564C12.3714 17.7564 12.8452 18.2279 12.8452 18.8064Z" fill="white"/>
<path opacity="0.1" d="M3.22837 12.7422C3.22837 6.66227 7.75022 1.63914 13.6142 0.850609C13.0862 0.779594 12.5475 0.742188 12 0.742188C5.37258 0.742188 0 6.11477 0 12.7422C0 19.3697 5.37258 24.7422 12 24.7422C12.5475 24.7422 13.0862 24.7048 13.6142 24.6338C7.75022 23.8452 3.22837 18.8221 3.22837 12.7422Z" fill="#B04599"/>
</g>
<defs>
<filter id="filter0_b_1426_1051" x="-4" y="-3.25781" width="32" height="32" filterUnits="userSpaceOnUse" color-interpolation-filters="sRGB">
<feFlood flood-opacity="0" result="BackgroundImageFix"/>
<feGaussianBlur in="BackgroundImageFix" stdDeviation="2"/>
<feComposite in2="SourceAlpha" operator="in" result="effect1_backgroundBlur_1426_1051"/>
<feBlend mode="normal" in="SourceGraphic" in2="effect1_backgroundBlur_1426_1051" result="shape"/>
</filter>
</defs>
</svg>
