<svg width="90" height="152" viewBox="0 0 90 152" fill="none" xmlns="http://www.w3.org/2000/svg">
<g clip-path="url(#clip0_1_21162)">
<path d="M59.1738 120.812L0 154.796V46.8203L59.1738 12.6821V120.812Z" fill="#F8F6F9"/>
<path d="M59.1738 40.0236L0 74.1618V46.8203L59.1738 12.6821V40.0236Z" fill="#DCE1E4"/>
<path d="M59.1738 17.6254L0 51.6092V41.723L59.1738 7.73926V17.6254Z" fill="#E11A7D"/>
<path d="M14.5613 110.772C13.1671 111.545 11.9279 112.317 10.9985 112.626C9.44941 113.398 9.29451 113.244 9.29451 113.089V105.829C9.1396 105.829 8.51998 106.447 8.51998 106.447L5.42188 106.293C5.42188 106.138 9.29451 100.577 9.29451 100.577C9.44941 100.268 10.2239 99.8048 11.6181 98.8779C11.9279 98.569 12.8573 98.1056 14.4064 97.1788C15.9554 96.2519 16.8849 95.7885 17.1947 95.634C19.0535 94.5527 19.6732 94.5527 19.6732 94.5527L23.5458 95.634C23.5458 95.7885 20.4477 99.4958 20.4477 99.4958L19.8281 99.6503C19.6732 99.8048 19.6732 99.8048 19.6732 99.8048V107.065C19.8281 107.374 18.4339 108.455 14.5613 110.772Z" fill="#DCE1E4"/>
<path d="M14.5617 85.5932C13.1676 86.3655 11.9283 87.1379 10.9989 87.4468C9.44983 88.2192 9.29492 88.0647 9.29492 87.9103V80.3412C9.29492 80.3412 9.29492 80.3412 9.29492 80.1867C9.29492 80.1867 10.844 78.7964 10.6891 74.1623V74.0078C10.9989 73.8534 11.3087 73.6989 11.6185 73.3899C11.7734 73.3899 11.9283 73.2355 12.0832 73.2355C12.5479 73.081 13.6323 72.7721 14.5617 72.1542C15.4911 71.5363 16.4206 70.7639 16.8853 70.455C17.0402 70.3005 17.1951 70.146 17.1951 70.146C17.5049 69.9916 17.8147 69.8371 18.1245 69.6826C17.6598 74.7802 19.5187 74.1623 19.5187 74.1623V81.8859C19.8285 82.1948 18.4343 83.2761 14.5617 85.5932Z" fill="#DCE1E4"/>
<path d="M14.5618 135.797C12.3931 137.032 9.75969 138.423 9.44988 138.268C9.44988 138.268 9.44988 138.268 9.44988 138.114L9.14007 137.496V135.642C7.59101 134.87 6.35177 133.479 6.04196 132.862C5.88705 132.707 5.88705 132.553 6.04196 132.244C6.50668 130.081 7.74592 127.301 9.29497 124.829C9.44988 124.52 10.2244 123.902 11.6186 123.13C11.9284 122.821 12.8578 122.358 14.4068 121.431C15.9559 120.504 16.8853 120.04 17.1951 119.886C18.7442 119.114 19.5187 118.805 19.6736 118.805C21.2227 119.423 22.4619 120.813 22.9266 122.512C22.9266 122.666 22.9266 122.975 22.9266 123.13C22.4619 124.211 21.3776 126.992 19.8285 129.463V131.317L19.6736 132.089C19.6736 132.244 19.3638 132.862 14.8716 135.488L14.5618 135.797Z" fill="#DCE1E4"/>
<path d="M23.7007 95.4793L19.8281 94.3979C19.6732 94.3979 19.2085 94.398 17.3496 95.4793C17.0398 95.6337 16.2652 95.9427 14.5613 97.024C12.7024 98.1053 11.9279 98.5687 11.773 98.7232C9.91413 99.9589 9.44941 100.268 9.29451 100.577L5.42188 106.292V106.447L8.51998 106.756C8.51998 106.756 8.51998 106.756 8.67489 106.756L9.29451 106.138V113.398C9.1396 113.398 9.29451 113.552 10.8436 112.78C11.773 112.317 13.0122 111.699 14.4064 110.772C16.4202 109.691 19.8281 107.528 19.8281 106.91V99.65L20.4477 99.4955C20.6026 99.4955 20.6026 99.4955 20.6026 99.341L23.7007 95.4793C23.7007 95.6337 23.8556 95.6337 23.7007 95.4793C23.8556 95.4793 23.7007 95.4793 23.7007 95.4793ZM17.1947 95.7882C17.0398 96.4061 15.9554 97.4874 14.5613 98.2597C13.1671 99.0321 11.9279 99.341 11.9279 98.8776C12.3926 98.4142 16.4202 96.0971 17.1947 95.7882ZM8.51998 106.292L5.73169 106.138L9.29451 101.04V105.674L8.51998 106.292ZM14.5613 110.463C11.3083 112.317 9.60432 113.089 9.44941 112.935V100.422C9.44941 100.268 9.91413 99.9589 11.4632 99.0321C11.6181 99.65 12.8573 99.341 14.4064 98.4142C15.9554 97.4874 17.3496 96.2516 17.3496 95.4793C19.0535 94.5524 19.3634 94.5524 19.5183 94.5524V99.4955V107.065C19.3634 107.374 17.8143 108.609 14.5613 110.463ZM20.4477 99.341L19.8281 99.4955V94.8614L23.3909 95.9427L20.4477 99.341Z" fill="#BAC1C6"/>
<path d="M19.8291 74.3169C19.8291 74.3169 18.1251 75.0892 18.4349 69.8372C18.4349 69.8372 18.4349 69.6827 18.28 69.8372C17.9702 69.9917 17.6604 70.1462 17.3506 70.3006C17.1957 70.3006 17.1957 70.4551 16.8859 70.6096C16.4212 71.073 15.4917 71.8453 14.5623 72.3088C13.6329 72.9266 12.5485 73.2356 12.0838 73.3901C11.774 73.5445 11.6191 73.5445 11.6191 73.5445C11.3093 73.699 10.9995 74.0079 10.6897 74.1624C10.5348 74.1624 10.5348 74.3169 10.5348 74.3169C10.8446 79.1055 9.29553 80.3413 9.29553 80.3413L9.14062 80.4957V88.0648C9.14062 88.2193 9.29553 88.3738 10.8446 87.6014C11.774 87.138 13.0133 86.5201 14.4074 85.5933C16.4212 84.512 19.8291 82.3494 19.8291 81.7315V74.3169C19.984 74.3169 19.8291 74.1624 19.8291 74.3169ZM12.0838 73.699C12.7034 73.5445 13.6329 73.2356 14.7172 72.6177C15.6466 71.9998 16.5761 71.2275 17.1957 70.764L17.3506 70.6096C17.1957 71.3819 16.5761 72.9266 14.7172 74.0079C13.0133 74.9348 12.2387 74.3169 12.0838 73.699C11.9289 73.699 11.9289 73.699 12.0838 73.699ZM14.5623 85.4388C11.3093 87.2925 9.60534 88.0649 9.45044 87.9104V80.4957C9.91515 80.0323 10.9995 78.4876 10.8446 74.3169C10.9995 74.1624 11.3093 74.0079 11.4642 73.8535C11.6191 74.6258 12.5485 75.2437 14.4074 74.1624C16.5761 72.9266 17.3506 71.2275 17.3506 70.3006C17.5055 70.1462 17.8153 70.1461 17.9702 69.9917C17.6604 74.4714 19.0546 74.6258 19.3644 74.4714V81.886C19.5193 82.1949 17.8153 83.4307 14.5623 85.4388Z" fill="#BAC1C6"/>
<path d="M23.0806 122.357C22.6159 120.658 21.3766 119.268 19.8276 118.65C19.6727 118.65 19.0531 118.804 17.3491 119.731C17.0393 119.886 16.2648 120.195 14.5608 121.276C12.7019 122.357 12.0823 122.821 11.7725 122.975C10.0686 124.056 9.44893 124.52 9.29403 124.674C7.74497 127.146 6.50573 129.926 6.04102 132.089C6.04102 132.398 6.04102 132.552 6.19592 132.707C6.66064 133.325 7.74497 134.715 9.29403 135.487V137.341L9.44893 137.959C9.44893 137.959 9.44893 138.113 9.60384 138.113C10.2235 138.268 13.7863 136.26 14.8706 135.642C15.0255 135.642 15.0255 135.487 15.0255 135.487C17.1942 134.252 19.9825 132.552 19.9825 131.934L20.1374 131.162V129.308C21.6865 126.837 22.7708 124.056 23.2355 122.975C23.0806 122.821 23.0806 122.512 23.0806 122.357ZM17.0393 120.195C16.7295 120.504 15.8001 121.121 14.4059 121.894C13.0118 122.666 12.0823 123.13 11.7725 123.13C12.7019 122.512 16.1099 120.504 17.0393 120.195ZM9.29403 135.333C7.89988 134.715 6.81554 133.325 6.19592 132.552C6.19592 132.552 6.19592 132.398 6.19592 132.089C6.66064 130.081 7.74497 127.609 9.13912 125.292V129.926V130.235V130.544C9.13912 130.699 9.13912 131.008 9.29403 131.162C9.75874 132.089 10.3784 133.17 10.5333 133.943L9.29403 135.333ZM10.5333 134.252L10.8431 134.715L9.75874 135.796L9.44893 135.487L10.5333 134.252ZM9.44893 137.341V135.951L9.75874 136.105H9.91365L11.1529 134.715C11.1529 134.56 11.3078 134.56 11.1529 134.56L10.8431 133.943C10.6882 133.17 10.0686 131.934 9.60384 131.008C9.44893 130.853 9.44893 130.699 9.44893 130.544V130.235V129.772V124.829C9.44893 124.674 9.91365 124.365 11.4627 123.439C11.7725 123.747 13.3216 122.821 14.251 122.357V135.024C11.3078 136.723 9.60384 137.495 9.44893 137.341ZM19.3629 132.243C19.208 132.552 17.6589 133.634 14.7157 135.333C11.4627 137.186 9.60384 137.959 9.44893 137.959L9.29403 137.65C10.3784 137.341 13.1667 135.796 14.251 135.178C14.251 135.178 14.4059 135.178 14.4059 135.024C14.5608 135.024 14.5608 134.869 14.5608 134.869C16.4197 133.788 18.4334 132.552 19.208 131.78L19.3629 132.243ZM19.5178 131.471C19.3629 131.78 17.8138 132.861 14.7157 134.715C14.7157 134.715 14.5608 134.715 14.5608 134.869V122.203C15.4902 121.739 17.1942 120.658 17.3491 120.04C19.0531 119.113 19.3629 119.113 19.5178 119.113V124.056V124.211V124.829C19.5178 124.983 19.5178 125.292 19.3629 125.447C18.8982 126.991 18.2785 128.845 18.1236 129.772L17.6589 130.699C17.6589 130.853 17.6589 130.853 17.6589 130.853L18.8982 130.699L19.0531 130.544L19.3629 130.081L19.5178 131.471ZM18.4334 129.926L19.5178 129.772L19.208 130.544L18.1236 130.699L18.4334 129.926ZM22.7708 123.13C22.3061 124.365 21.0668 127.146 19.6727 129.308L18.4334 129.463C18.5883 128.536 19.208 126.682 19.6727 125.292C19.8276 124.983 19.8276 124.674 19.8276 124.52V123.902V123.747V119.113C21.2217 119.886 22.3061 121.121 22.7708 122.666C22.7708 122.821 22.7708 122.975 22.7708 123.13Z" fill="#BAC1C6"/>
<path d="M18.7434 123.129L15.9551 124.674V125.292L18.7434 123.747V123.129Z" fill="#BAC1C6"/>
<path d="M10.2227 128.691L13.011 126.991V126.374L10.2227 128.073V128.691Z" fill="#BAC1C6"/>
<path d="M24.0109 63.1947L4.95751 74.1622C4.6477 74.3167 4.33789 74.7801 4.33789 75.089V95.1703C4.33789 95.4793 4.6477 95.4793 4.95751 95.3248L23.856 84.3573C24.1658 84.2029 24.4756 83.7394 24.4756 83.4305V63.3492C24.4756 63.0403 24.3207 63.0403 24.0109 63.1947ZM24.1658 83.585C24.1658 83.7394 24.0109 83.8939 23.856 84.0484L4.95751 94.8614C4.80261 95.0159 4.6477 94.8614 4.6477 94.7069V74.6256C4.6477 74.4711 4.80261 74.3167 4.95751 74.1622L23.856 63.1947C24.0109 63.0403 24.1658 63.1947 24.1658 63.3492V83.585Z" fill="#BAC1C6"/>
<path d="M24.0109 87.9102L4.95751 98.8777C4.6477 99.0321 4.33789 99.4955 4.33789 99.8045V119.886C4.33789 120.195 4.6477 120.195 4.95751 120.04L23.856 109.073C24.1658 108.918 24.4756 108.455 24.4756 108.146V88.0646C24.4756 87.9102 24.3207 87.7557 24.0109 87.9102ZM24.1658 108.3C24.1658 108.455 24.0109 108.609 23.856 108.764L4.95751 119.731C4.80261 119.886 4.6477 119.731 4.6477 119.577V99.4955C4.6477 99.3411 4.80261 99.1866 4.95751 99.0321L23.856 88.0646C24.0109 87.9102 24.1658 88.0646 24.1658 88.2191V108.3Z" fill="#BAC1C6"/>
<path d="M24.0109 112.78L4.95751 123.593C4.6477 123.747 4.33789 124.211 4.33789 124.52V144.601C4.33789 144.91 4.6477 144.91 4.95751 144.756L23.856 133.788C24.1658 133.634 24.4756 133.17 24.4756 132.861V112.78C24.4756 112.625 24.3207 112.471 24.0109 112.78ZM24.1658 133.016C24.1658 133.17 24.0109 133.325 23.856 133.479L4.95751 144.447C4.80261 144.601 4.6477 144.447 4.6477 144.292V124.211C4.6477 124.056 4.80261 123.902 4.95751 123.747L23.856 112.78C24.0109 112.625 24.1658 112.78 24.1658 112.934V133.016Z" fill="#BAC1C6"/>
<path d="M49.8794 57.7876C49.8794 57.7876 49.7245 57.7876 49.8794 57.7876C49.7245 57.9421 49.8794 57.7876 49.8794 57.7876Z" fill="#968EA0"/>
<path d="M47.8652 60.7229C48.0202 60.5685 47.8652 60.7229 47.8652 60.7229V60.7229Z" fill="#968EA0"/>
<path d="M47.4004 61.0319C47.5553 60.8774 47.4004 60.8774 47.4004 61.0319V61.0319Z" fill="#968EA0"/>
<path d="M49.5689 57.9424C49.5689 57.9424 49.4139 57.9424 49.5689 57.9424C49.4139 58.0969 49.5689 57.9424 49.5689 57.9424Z" fill="#968EA0"/>
<path d="M43.2188 66.9019C43.2188 67.0563 43.3736 66.9019 43.2188 66.9019C43.3736 66.9019 43.2188 66.9019 43.2188 66.9019Z" fill="#968EA0"/>
<path d="M43.9922 66.4385C43.9922 66.5929 44.1471 66.4385 43.9922 66.4385C44.1471 66.4385 43.9922 66.4385 43.9922 66.4385Z" fill="#968EA0"/>
<path d="M50.3442 57.479C50.3442 57.479 50.1893 57.479 50.3442 57.479C50.1893 57.6335 50.3442 57.479 50.3442 57.479Z" fill="#968EA0"/>
<path d="M48.1758 60.5682C48.3307 60.4137 48.1758 60.5682 48.1758 60.5682V60.5682Z" fill="#968EA0"/>
<path d="M46.627 61.4952C46.7819 61.3408 46.627 61.3408 46.627 61.4952V61.4952Z" fill="#968EA0"/>
<path d="M46.3164 61.4951C46.3164 61.6496 46.4713 61.6496 46.3164 61.4951C46.4713 61.4951 46.3164 61.4951 46.3164 61.4951Z" fill="#968EA0"/>
<path d="M50.6548 57.3242C50.6548 57.3242 50.4999 57.3242 50.6548 57.3242C50.4999 57.4787 50.6548 57.3242 50.6548 57.3242Z" fill="#968EA0"/>
<path d="M47.0918 61.1862C47.2467 61.0317 47.0918 61.0317 47.0918 61.1862V61.1862Z" fill="#968EA0"/>
<path d="M44.7676 64.2757C44.9225 64.1212 44.7676 64.2757 44.7676 64.2757V64.2757Z" fill="#968EA0"/>
<path d="M41.8249 70.2998L39.6562 71.5356V71.999L41.8249 70.7632V70.2998Z" fill="#968EA0"/>
<path d="M49.106 58.2515C49.106 58.2515 48.951 58.2515 49.106 58.2515C48.951 58.4059 49.106 58.2515 49.106 58.2515Z" fill="#968EA0"/>
<path d="M46.0064 65.3569C45.8514 65.5114 46.0064 65.5114 46.0064 65.3569V65.3569Z" fill="#968EA0"/>
<path d="M52.2036 56.5519C52.2036 56.3974 52.0487 56.3974 52.2036 56.5519C52.0487 56.5519 52.2036 56.5519 52.2036 56.5519Z" fill="#968EA0"/>
<path d="M49.7246 59.6414C49.8795 59.4869 49.7246 59.6414 49.7246 59.6414V59.6414Z" fill="#968EA0"/>
<path d="M45.6978 65.5112C45.5429 65.6657 45.6978 65.6657 45.6978 65.5112V65.5112Z" fill="#968EA0"/>
<path d="M48.1758 62.422C48.3307 62.2675 48.1758 62.2675 48.1758 62.422V62.422Z" fill="#968EA0"/>
<path d="M47.8652 62.5763C48.0202 62.4218 47.8652 62.4218 47.8652 62.5763V62.5763Z" fill="#968EA0"/>
<path d="M48.9512 60.1048C49.1061 59.9503 48.9512 60.1048 48.9512 60.1048V60.1048Z" fill="#968EA0"/>
<path d="M48.6406 60.2596C48.7955 60.1051 48.6406 60.2596 48.6406 60.2596V60.2596Z" fill="#968EA0"/>
<path d="M49.4141 59.7962C49.569 59.6417 49.4141 59.7962 49.4141 59.7962V59.7962Z" fill="#968EA0"/>
<path d="M38.8809 73.6985V74.1619L41.8241 72.6172V72.1538L38.8809 73.6985Z" fill="#968EA0"/>
<path d="M44.7676 65.9746C44.7676 66.1291 44.9225 65.9746 44.7676 65.9746C44.9225 65.9746 44.7676 65.9746 44.7676 65.9746Z" fill="#968EA0"/>
<path d="M51.4282 57.0153C51.4282 56.8608 51.2733 56.8608 51.4282 57.0153C51.2733 57.0153 51.4282 57.0153 51.4282 57.0153Z" fill="#968EA0"/>
<path d="M30.3613 72.6172L31.6006 71.9993L33.3045 70.918V70.4546L31.6006 71.5359L30.3613 72.1538V72.6172Z" fill="#968EA0"/>
<path d="M46.0064 60.1048C46.0064 59.9503 45.8514 60.1048 46.0064 60.1048C45.8514 60.1048 46.0064 60.1048 46.0064 60.1048Z" fill="#968EA0"/>
<path d="M42.5981 65.6657C42.5981 65.5112 42.4432 65.5112 42.5981 65.6657C42.4432 65.6657 42.5981 65.6657 42.5981 65.6657Z" fill="#968EA0"/>
<path d="M46.4712 59.7962C46.4712 59.6417 46.3163 59.7962 46.4712 59.7962C46.3163 59.7962 46.4712 59.7962 46.4712 59.7962Z" fill="#968EA0"/>
<path d="M45.6978 60.2596C45.6978 60.1051 45.5429 60.2596 45.6978 60.2596C45.5429 60.2596 45.6978 60.2596 45.6978 60.2596Z" fill="#968EA0"/>
<path d="M41.8255 65.666L39.502 66.9018V67.3652L41.8255 66.1294V65.666Z" fill="#968EA0"/>
<path d="M32.2208 76.1699L35.3189 74.4707V74.0073L32.2208 75.7065L30.207 76.9423V77.4057L32.2208 76.1699Z" fill="#968EA0"/>
<path d="M33.1504 72.4628V72.9262L35.3191 71.536V71.2271L33.1504 72.4628Z" fill="#968EA0"/>
<path d="M41.8249 63.812L39.6562 65.0478V65.5112L41.8249 64.2754V63.812Z" fill="#968EA0"/>
<path d="M37.7969 68.2921L38.7263 67.8287V67.3652L37.7969 67.8287V68.2921Z" fill="#968EA0"/>
<path d="M54.8369 54.8529V54.5439L53.5977 55.1618V55.6252L54.8369 54.8529Z" fill="#968EA0"/>
<path d="M45.6978 61.9585C45.6978 61.9585 45.5429 61.9585 45.6978 61.9585C45.5429 62.113 45.6978 61.9585 45.6978 61.9585Z" fill="#968EA0"/>
<path d="M54.9919 56.7066V56.2432L54.0625 56.7066V57.17L54.9919 56.7066Z" fill="#968EA0"/>
<path d="M54.9919 63.1944V62.731L54.0625 63.1944V63.6578L54.9919 63.1944Z" fill="#968EA0"/>
<path d="M44.1489 64.7391C44.1489 64.5846 43.994 64.7391 44.1489 64.7391C43.994 64.7391 44.1489 64.7391 44.1489 64.7391Z" fill="#968EA0"/>
<path d="M54.9907 65.0479V64.5845L54.3711 64.7389V65.2024L54.9907 65.0479Z" fill="#968EA0"/>
<path d="M54.9919 60.2593V59.7959L54.0625 60.4138V60.7227L54.9919 60.2593Z" fill="#968EA0"/>
<path d="M54.9925 58.5601V58.0967L53.9082 58.7146V59.178L54.9925 58.5601Z" fill="#968EA0"/>
<path d="M44.9224 62.4219C44.9224 62.4219 44.7675 62.4219 44.9224 62.4219C44.7675 62.5763 44.9224 62.4219 44.9224 62.4219Z" fill="#968EA0"/>
<path d="M43.3735 65.2024C43.3735 65.048 43.2186 65.2024 43.3735 65.2024C43.2186 65.2024 43.3735 65.2024 43.3735 65.2024Z" fill="#968EA0"/>
<path d="M30.5166 68.4463L27.7283 70.1455L26.7988 70.6089V71.0723L27.7283 70.6089L30.5166 68.9097V68.4463Z" fill="#968EA0"/>
<path d="M29.5871 72.6172L26.7988 74.1619V74.6253L29.5871 73.0806V72.6172Z" fill="#968EA0"/>
<path d="M41.6689 62.5767V62.1133L40.4297 62.7312V63.1946L41.6689 62.5767Z" fill="#968EA0"/>
<path d="M39.6566 63.6577V63.1943L38.5723 63.8122V64.2756L39.6566 63.6577Z" fill="#968EA0"/>
<path d="M32.9941 69.2187L35.3177 67.9829V67.5195L32.9941 68.9098V69.2187Z" fill="#968EA0"/>
<path d="M30.8264 74.162L32.2205 73.3897V72.9263L30.2067 74.0076L26.7988 76.0157V76.4791L30.8264 74.162Z" fill="#968EA0"/>
<path d="M32.2205 69.682V69.373L30.2067 70.4543L26.7988 72.4625V72.9259L31.1362 70.4543L32.2205 69.682Z" fill="#968EA0"/>
<path d="M45.8516 61.8042C45.8516 61.9587 46.0065 61.8042 45.8516 61.8042C46.0065 61.8042 45.8516 61.8042 45.8516 61.8042Z" fill="#968EA0"/>
<path d="M39.6562 68.601V69.0644L41.8249 67.8287V67.3652L39.6562 68.601Z" fill="#968EA0"/>
<path d="M29.2773 79.2596L26.7988 80.6498V81.1132L29.2773 79.723L32.0656 78.1783V77.7148L29.2773 79.2596Z" fill="#968EA0"/>
<path d="M29.4322 77.4058L26.7988 78.9505V79.4139L29.4322 77.8692V77.4058Z" fill="#968EA0"/>
<path d="M32.8398 77.251V77.7145L34.3889 76.7876V76.3242L32.8398 77.251Z" fill="#968EA0"/>
<path d="M31.291 68.4464L33.3048 67.3651L36.7127 65.357V64.8936L32.995 67.0562L31.291 67.983V68.4464Z" fill="#968EA0"/>
<path d="M44.9224 60.7229C44.9224 60.5685 44.7675 60.7229 44.9224 60.7229C44.7675 60.7229 44.9224 60.7229 44.9224 60.7229Z" fill="#968EA0"/>
<path d="M43.3735 61.6496C43.3735 61.4951 43.2186 61.4951 43.3735 61.6496C43.2186 61.6496 43.3735 61.6496 43.3735 61.6496Z" fill="#968EA0"/>
<path d="M42.5981 61.9585C42.5981 61.9585 42.4432 61.9585 42.5981 61.9585C42.4432 62.113 42.5981 61.9585 42.5981 61.9585Z" fill="#968EA0"/>
<path d="M44.1489 61.1862C44.1489 61.0317 43.994 61.0317 44.1489 61.1862C43.994 61.1862 44.1489 61.1862 44.1489 61.1862Z" fill="#968EA0"/>
<path d="M48.9512 66.5926C48.9512 66.5926 49.1061 66.5926 48.9512 66.5926C49.1061 66.4381 48.9512 66.5926 48.9512 66.5926Z" fill="#968EA0"/>
<path d="M52.0488 61.8042C52.0488 61.9587 52.2037 61.8042 52.0488 61.8042C52.2037 61.8042 52.0488 61.8042 52.0488 61.8042Z" fill="#968EA0"/>
<path d="M48.6406 66.7474C48.6406 66.7474 48.7955 66.7474 48.6406 66.7474C48.7955 66.5929 48.6406 66.7474 48.6406 66.7474Z" fill="#968EA0"/>
<path d="M52.8223 61.3408C52.8223 61.4953 52.9772 61.4953 52.8223 61.3408C52.9772 61.3408 52.8223 61.3408 52.8223 61.3408Z" fill="#968EA0"/>
<path d="M49.4141 66.284C49.4141 66.284 49.569 66.284 49.4141 66.284C49.569 66.1295 49.4141 66.284 49.4141 66.284Z" fill="#968EA0"/>
<path d="M47.4004 67.5193C47.4004 67.5193 47.5553 67.5193 47.4004 67.5193C47.5553 67.3649 47.4004 67.5193 47.4004 67.5193Z" fill="#968EA0"/>
<path d="M52.9771 59.6414C52.9771 59.4869 52.8221 59.6414 52.9771 59.6414C52.8221 59.6414 52.9771 59.6414 52.9771 59.6414Z" fill="#968EA0"/>
<path d="M45.543 70.3001C45.543 70.3001 45.6979 70.3001 45.543 70.3001C45.6979 70.1456 45.543 70.3001 45.543 70.3001Z" fill="#968EA0"/>
<path d="M50.5 62.731C50.5 62.8854 50.6549 62.731 50.5 62.731C50.6549 62.731 50.5 62.731 50.5 62.731Z" fill="#968EA0"/>
<path d="M47.0918 67.5195C47.0918 67.674 47.2467 67.674 47.0918 67.5195C47.2467 67.5195 47.0918 67.5195 47.0918 67.5195Z" fill="#968EA0"/>
<path d="M47.8652 68.9097C47.8652 69.0641 48.0202 68.9097 47.8652 68.9097C48.0202 68.9097 47.8652 68.9097 47.8652 68.9097Z" fill="#968EA0"/>
<path d="M48.1758 67.056C48.1758 67.056 48.3307 67.056 48.1758 67.056C48.3307 66.9015 48.1758 67.056 48.1758 67.056Z" fill="#968EA0"/>
<path d="M47.8652 67.2107C47.8652 67.2107 48.0202 67.2107 47.8652 67.2107C48.0202 67.0563 47.8652 67.2107 47.8652 67.2107Z" fill="#968EA0"/>
<path d="M51.2734 62.2676C51.2734 62.422 51.4283 62.2676 51.2734 62.2676C51.4283 62.2676 51.2734 62.2676 51.2734 62.2676Z" fill="#968EA0"/>
<path d="M52.8223 64.2759C52.8223 64.4304 52.9772 64.2759 52.8223 64.2759C52.9772 64.2759 52.8223 64.2759 52.8223 64.2759Z" fill="#968EA0"/>
<path d="M51.2734 67.056C51.2734 67.056 51.4283 67.056 51.2734 67.056C51.4283 66.9015 51.2734 67.056 51.2734 67.056Z" fill="#968EA0"/>
<path d="M50.5 67.3652C50.5 67.5197 50.6549 67.5197 50.5 67.3652C50.6549 67.3652 50.5 67.3652 50.5 67.3652Z" fill="#968EA0"/>
<path d="M50.1895 67.5195C50.1895 67.674 50.3444 67.674 50.1895 67.5195C50.3444 67.5195 50.1895 67.5195 50.1895 67.5195Z" fill="#968EA0"/>
<path d="M52.8223 66.1292C52.8223 66.1292 52.9772 66.1292 52.8223 66.1292C52.9772 65.9747 52.8223 66.1292 52.8223 66.1292Z" fill="#968EA0"/>
<path d="M52.0488 66.5926C52.0488 66.5926 52.2037 66.5926 52.0488 66.5926C52.2037 66.4381 52.0488 66.5926 52.0488 66.5926Z" fill="#968EA0"/>
<path d="M48.6406 68.4463C48.6406 68.6007 48.7955 68.4463 48.6406 68.4463C48.7955 68.4463 48.6406 68.4463 48.6406 68.4463Z" fill="#968EA0"/>
<path d="M48.9512 68.292C48.9512 68.4465 49.1061 68.292 48.9512 68.292C49.1061 68.292 48.9512 68.292 48.9512 68.292Z" fill="#968EA0"/>
<path d="M46.4712 65.0479C46.3163 65.2023 46.4712 65.2023 46.4712 65.0479V65.0479Z" fill="#968EA0"/>
<path d="M48.1758 68.7554C48.1758 68.9098 48.3307 68.7554 48.1758 68.7554C48.3307 68.7554 48.1758 68.7554 48.1758 68.7554Z" fill="#968EA0"/>
<path d="M49.7246 67.8286C49.7246 67.9831 49.8795 67.8286 49.7246 67.8286C49.8795 67.8286 49.7246 67.8286 49.7246 67.8286Z" fill="#968EA0"/>
<path d="M52.0488 64.7393C52.0488 64.8937 52.2037 64.7393 52.0488 64.7393C52.2037 64.7393 52.0488 64.7393 52.0488 64.7393Z" fill="#968EA0"/>
<path d="M49.4141 67.9829C49.4141 68.1374 49.569 67.9829 49.4141 67.9829C49.569 67.9829 49.4141 67.9829 49.4141 67.9829Z" fill="#968EA0"/>
<path d="M49.8794 61.3408C49.8794 61.3408 49.7245 61.3408 49.8794 61.3408C49.7245 61.4953 49.8794 61.3408 49.8794 61.3408Z" fill="#968EA0"/>
<path d="M49.5689 61.4951C49.5689 61.4951 49.4139 61.4951 49.5689 61.4951C49.4139 61.6496 49.5689 61.4951 49.5689 61.4951Z" fill="#968EA0"/>
<path d="M43.9922 69.373C43.9922 69.5275 44.1471 69.373 43.9922 69.373C44.1471 69.373 43.9922 69.373 43.9922 69.373Z" fill="#968EA0"/>
<path d="M47.4004 64.5848C47.4004 64.5848 47.5553 64.5848 47.4004 64.5848C47.5553 64.4303 47.4004 64.5848 47.4004 64.5848Z" fill="#968EA0"/>
<path d="M42.4434 71.999C42.4434 72.1535 42.5983 72.1535 42.4434 71.999C42.5983 71.999 42.4434 71.999 42.4434 71.999Z" fill="#968EA0"/>
<path d="M52.0488 58.2515C52.0488 58.4059 52.2037 58.2515 52.0488 58.2515C52.2037 58.2515 52.0488 58.2515 52.0488 58.2515Z" fill="#968EA0"/>
<path d="M44.7676 68.9097C44.7676 69.0641 44.9225 68.9097 44.7676 68.9097C44.9225 68.9097 44.7676 68.9097 44.7676 68.9097Z" fill="#968EA0"/>
<path d="M50.3442 61.1862C50.3442 61.0317 50.1893 61.0317 50.3442 61.1862C50.1893 61.1862 50.3442 61.1862 50.3442 61.1862Z" fill="#968EA0"/>
<path d="M47.8652 64.2757C47.8652 64.2757 48.0202 64.2757 47.8652 64.2757C48.0202 64.1212 47.8652 64.2757 47.8652 64.2757Z" fill="#968EA0"/>
<path d="M52.9771 56.0887C52.9771 55.9342 52.8221 56.0887 52.9771 56.0887C52.8221 56.0887 52.9771 56.0887 52.9771 56.0887Z" fill="#968EA0"/>
<path d="M48.1758 64.1214C48.1758 64.1214 48.3307 64.1214 48.1758 64.1214C48.3307 63.9669 48.1758 64.1214 48.1758 64.1214Z" fill="#968EA0"/>
<path d="M48.6406 62.1129C48.7955 61.9585 48.6406 61.9585 48.6406 62.1129V62.1129Z" fill="#968EA0"/>
<path d="M46.7817 64.8936C46.6268 65.048 46.7817 65.048 46.7817 64.8936V64.8936Z" fill="#968EA0"/>
<path d="M47.0918 64.7391C47.0918 64.7391 47.2467 64.7391 47.0918 64.7391C47.2467 64.5846 47.0918 64.7391 47.0918 64.7391Z" fill="#968EA0"/>
<path d="M48.9512 61.9586C49.1061 61.8042 48.9512 61.8042 48.9512 61.9586V61.9586Z" fill="#968EA0"/>
<path d="M51.4282 60.5682C51.4282 60.4137 51.2733 60.5682 51.4282 60.5682C51.2733 60.5682 51.4282 60.5682 51.4282 60.5682Z" fill="#968EA0"/>
<path d="M46.3164 67.9829C46.3164 68.1374 46.4713 68.1374 46.3164 67.9829C46.4713 67.9829 46.3164 67.9829 46.3164 67.9829Z" fill="#968EA0"/>
<path d="M43.9922 71.2269C43.9922 71.2269 44.1471 71.2269 43.9922 71.2269C44.1471 71.0724 43.9922 71.2269 43.9922 71.2269Z" fill="#968EA0"/>
<path d="M44.7676 70.7635C44.7676 70.7635 44.9225 70.7635 44.7676 70.7635C44.9225 70.609 44.7676 70.7635 44.7676 70.7635Z" fill="#968EA0"/>
<path d="M52.2036 60.1048C52.2036 59.9503 52.0487 60.1048 52.2036 60.1048C52.0487 60.1048 52.2036 60.1048 52.2036 60.1048Z" fill="#968EA0"/>
<path d="M46.627 67.8286C46.627 67.9831 46.7819 67.9831 46.627 67.8286C46.7819 67.8286 46.627 67.8286 46.627 67.8286Z" fill="#968EA0"/>
<path d="M43.2188 71.5356C43.2188 71.6901 43.3736 71.6901 43.2188 71.5356C43.3736 71.5356 43.2188 71.5356 43.2188 71.5356Z" fill="#968EA0"/>
<path d="M50.6548 61.0319C50.6548 60.8774 50.4999 60.8774 50.6548 61.0319C50.4999 61.0319 50.6548 61.0319 50.6548 61.0319Z" fill="#968EA0"/>
<path d="M45.543 68.4463C45.543 68.6007 45.6979 68.4463 45.543 68.4463C45.6979 68.4463 45.543 68.4463 45.543 68.4463Z" fill="#968EA0"/>
<path d="M52.8223 57.7876C52.8223 57.9421 52.9772 57.7876 52.8223 57.7876C52.9772 57.7876 52.8223 57.7876 52.8223 57.7876Z" fill="#968EA0"/>
<path d="M45.8516 68.292C45.8516 68.4465 46.0065 68.292 45.8516 68.292C46.0065 68.292 45.8516 68.292 45.8516 68.292Z" fill="#968EA0"/>
<path d="M31.6009 60.4137L26.7988 63.1942V62.4219L31.6009 59.6414V60.4137ZM33.6147 62.1129L35.3186 61.1861V60.4137L33.6147 61.3405V62.1129ZM32.3754 62.8853V62.1129L26.7988 65.3568V66.1292L32.3754 62.8853ZM32.8401 59.7958L37.4873 57.1698V56.3975L32.8401 59.0235V59.7958Z" fill="#968EA0"/>
<path d="M49.8794 82.1943C49.8794 82.1943 49.7245 82.1943 49.8794 82.1943C49.7245 82.3488 49.8794 82.1943 49.8794 82.1943Z" fill="#968EA0"/>
<path d="M47.8652 85.1297C48.0202 84.9752 47.8652 85.1297 47.8652 85.1297V85.1297Z" fill="#968EA0"/>
<path d="M47.4004 85.4383C47.5553 85.2838 47.4004 85.4383 47.4004 85.4383V85.4383Z" fill="#968EA0"/>
<path d="M49.5689 82.3491C49.5689 82.3491 49.4139 82.3491 49.5689 82.3491C49.4139 82.5036 49.5689 82.3491 49.5689 82.3491Z" fill="#968EA0"/>
<path d="M43.2188 91.3086C43.2188 91.4631 43.3736 91.3086 43.2188 91.3086C43.3736 91.3086 43.2188 91.3086 43.2188 91.3086Z" fill="#968EA0"/>
<path d="M43.9922 90.8447C43.9922 90.9992 44.1471 90.9992 43.9922 90.8447C44.1471 90.8447 43.9922 90.8447 43.9922 90.8447Z" fill="#968EA0"/>
<path d="M50.3442 82.0402C50.3442 81.8857 50.1893 81.8857 50.3442 82.0402C50.1893 82.0402 50.3442 82.0402 50.3442 82.0402Z" fill="#968EA0"/>
<path d="M48.1758 84.9749C48.3307 84.8204 48.1758 84.9749 48.1758 84.9749V84.9749Z" fill="#968EA0"/>
<path d="M48.7954 82.8125C48.7954 82.8125 48.6405 82.8125 48.7954 82.8125C48.6405 82.967 48.7954 82.8125 48.7954 82.8125Z" fill="#968EA0"/>
<path d="M46.627 85.9017C46.7819 85.7472 46.627 85.9017 46.627 85.9017V85.9017Z" fill="#968EA0"/>
<path d="M46.3164 86.0564C46.3164 86.0564 46.4713 86.0564 46.3164 86.0564C46.4713 85.902 46.3164 86.0564 46.3164 86.0564Z" fill="#968EA0"/>
<path d="M50.6548 81.8854C50.6548 81.7309 50.4999 81.7309 50.6548 81.8854C50.4999 81.8854 50.6548 81.8854 50.6548 81.8854Z" fill="#968EA0"/>
<path d="M48.1758 83.1216C48.1758 83.2761 48.3307 83.1216 48.1758 83.1216C48.3307 83.1216 48.1758 83.1216 48.1758 83.1216Z" fill="#968EA0"/>
<path d="M47.0918 85.5931C47.2467 85.4386 47.0918 85.5931 47.0918 85.5931V85.5931Z" fill="#968EA0"/>
<path d="M42.5981 91.772C42.4432 91.9265 42.5981 91.772 42.5981 91.772V91.772Z" fill="#968EA0"/>
<path d="M41.8249 94.7065L39.6562 95.9423V96.4057L41.8249 95.17V94.7065Z" fill="#968EA0"/>
<path d="M49.106 82.6582C49.106 82.6582 48.951 82.6582 49.106 82.6582C48.951 82.8127 49.106 82.6582 49.106 82.6582Z" fill="#968EA0"/>
<path d="M47.0918 87.4464C47.2467 87.2919 47.0918 87.2919 47.0918 87.4464V87.4464Z" fill="#968EA0"/>
<path d="M46.0064 89.7637C45.8514 89.9181 46.0064 89.9181 46.0064 89.7637V89.7637Z" fill="#968EA0"/>
<path d="M52.2036 80.9588C52.2036 80.8043 52.0487 80.9588 52.2036 80.9588C52.0487 80.9588 52.2036 80.9588 52.2036 80.9588Z" fill="#968EA0"/>
<path d="M45.6978 89.918C45.5429 90.0724 45.6978 90.0724 45.6978 89.918V89.918Z" fill="#968EA0"/>
<path d="M47.4004 87.2921C47.5553 87.1376 47.4004 87.1376 47.4004 87.2921V87.2921Z" fill="#968EA0"/>
<path d="M48.1758 86.8287C48.3307 86.6743 48.1758 86.6743 48.1758 86.8287V86.8287Z" fill="#968EA0"/>
<path d="M47.8652 86.983C48.0202 86.8286 47.8652 86.8286 47.8652 86.983V86.983Z" fill="#968EA0"/>
<path d="M46.3164 87.9098C46.4713 87.7553 46.3164 87.7553 46.3164 87.9098V87.9098Z" fill="#968EA0"/>
<path d="M46.627 87.7555C46.7819 87.601 46.627 87.601 46.627 87.7555V87.7555Z" fill="#968EA0"/>
<path d="M38.8809 98.1053V98.5687L41.8241 97.024V96.5605L38.8809 98.1053Z" fill="#968EA0"/>
<path d="M44.7676 90.3813C44.7676 90.5358 44.9225 90.5358 44.7676 90.3813C44.9225 90.3813 44.7676 90.3813 44.7676 90.3813Z" fill="#968EA0"/>
<path d="M51.4282 81.4222C51.4282 81.2677 51.2733 81.4222 51.4282 81.4222C51.2733 81.4222 51.4282 81.4222 51.4282 81.4222Z" fill="#968EA0"/>
<path d="M30.3613 97.0238L31.6006 96.4059L33.3045 95.3246V95.0156L31.6006 95.9425L30.3613 96.5603V97.0238Z" fill="#968EA0"/>
<path d="M44.1489 87.292C44.1489 87.292 43.994 87.292 44.1489 87.292C43.994 87.4465 44.1489 87.292 44.1489 87.292Z" fill="#968EA0"/>
<path d="M42.5981 90.0726C42.5981 89.9181 42.4432 90.0726 42.5981 90.0726C42.4432 90.0726 42.5981 90.0726 42.5981 90.0726Z" fill="#968EA0"/>
<path d="M41.8255 90.0728L39.502 91.3085V91.7719L41.8255 90.5362V90.0728Z" fill="#968EA0"/>
<path d="M32.2208 100.731L35.3189 98.8775V98.4141L32.2208 100.268L30.207 101.349V101.812L32.2208 100.731Z" fill="#968EA0"/>
<path d="M33.1504 96.8696V97.333L35.3191 96.0972V95.6338L33.1504 96.8696Z" fill="#968EA0"/>
<path d="M41.8249 88.2188L39.6562 89.4545V89.9179L41.8249 88.6822V88.2188Z" fill="#968EA0"/>
<path d="M37.7969 92.6988L38.7263 92.2354V91.772L37.7969 92.2354V92.6988Z" fill="#968EA0"/>
<path d="M54.8369 79.4141V78.9507L53.5977 79.5686V80.032L54.8369 79.4141Z" fill="#968EA0"/>
<path d="M45.6978 86.5197C45.6978 86.3652 45.5429 86.3652 45.6978 86.5197C45.5429 86.5197 45.6978 86.5197 45.6978 86.5197Z" fill="#968EA0"/>
<path d="M54.9919 81.1133V80.6499L54.0625 81.1133V81.5767L54.9919 81.1133Z" fill="#968EA0"/>
<path d="M54.9919 87.6011V87.1377L54.0625 87.6011V88.0645L54.9919 87.6011Z" fill="#968EA0"/>
<path d="M44.1489 89.1458C44.1489 88.9913 43.994 89.1458 44.1489 89.1458C43.994 89.1458 44.1489 89.1458 44.1489 89.1458Z" fill="#968EA0"/>
<path d="M54.9907 89.4546V88.9912L54.3711 89.3002V89.6091L54.9907 89.4546Z" fill="#968EA0"/>
<path d="M54.9919 84.666V84.2026L54.0625 84.8205V85.2839L54.9919 84.666Z" fill="#968EA0"/>
<path d="M54.9925 82.9668V82.5034L53.9082 83.1213V83.5847L54.9925 82.9668Z" fill="#968EA0"/>
<path d="M44.9224 86.8286C44.9224 86.8286 44.7675 86.8286 44.9224 86.8286C44.7675 86.9831 44.9224 86.8286 44.9224 86.8286Z" fill="#968EA0"/>
<path d="M43.3735 89.6092C43.3735 89.4547 43.2186 89.6092 43.3735 89.6092C43.2186 89.6092 43.3735 89.6092 43.3735 89.6092Z" fill="#968EA0"/>
<path d="M30.5166 93.0078L27.7283 94.5525L26.7988 95.0159V95.4794L27.7283 95.0159L30.5166 93.3168V93.0078Z" fill="#968EA0"/>
<path d="M43.3735 87.7554C43.3735 87.7554 43.2186 87.7554 43.3735 87.7554C43.2186 87.9098 43.3735 87.7554 43.3735 87.7554Z" fill="#968EA0"/>
<path d="M29.5871 97.0239L26.7988 98.7231V99.0321L29.5871 97.4873V97.0239Z" fill="#968EA0"/>
<path d="M41.6689 86.9834V86.52L40.4297 87.1379V87.6013L41.6689 86.9834Z" fill="#968EA0"/>
<path d="M39.6566 88.0645V87.6011L38.5723 88.219V88.6824L39.6566 88.0645Z" fill="#968EA0"/>
<path d="M32.9941 93.7798L35.3177 92.3895V92.0806L32.9941 93.3163V93.7798Z" fill="#968EA0"/>
<path d="M30.8264 98.5688L32.2205 97.7964V97.333L30.2067 98.4143L26.7988 100.422V100.886L30.8264 98.5688Z" fill="#968EA0"/>
<path d="M32.2205 94.2432V93.7798L30.2067 94.8611L26.7988 96.8692V97.3326L31.1362 94.8611L32.2205 94.2432Z" fill="#968EA0"/>
<path d="M47.8652 83.2759C47.8652 83.4304 48.0202 83.2759 47.8652 83.2759C48.0202 83.2759 47.8652 83.2759 47.8652 83.2759Z" fill="#968EA0"/>
<path d="M45.8516 86.2109C45.8516 86.3654 46.0065 86.3654 45.8516 86.2109C46.0065 86.2109 45.8516 86.2109 45.8516 86.2109Z" fill="#968EA0"/>
<path d="M39.6562 93.0077V93.4712L41.8249 92.2354V91.772L39.6562 93.0077Z" fill="#968EA0"/>
<path d="M29.2773 103.666L26.7988 105.057V105.52L29.2773 104.13L32.0656 102.585V102.122L29.2773 103.666Z" fill="#968EA0"/>
<path d="M29.4322 101.812L26.7988 103.357V103.821L29.4322 102.276V101.812Z" fill="#968EA0"/>
<path d="M32.8398 101.658V102.121L34.3889 101.194V100.731L32.8398 101.658Z" fill="#968EA0"/>
<path d="M31.291 93.0074L33.3048 91.7717L36.7127 89.918V89.4546L32.995 91.4627L31.291 92.544V93.0074Z" fill="#968EA0"/>
<path d="M44.9224 85.1297C44.9224 84.9752 44.7675 85.1297 44.9224 85.1297C44.7675 85.1297 44.9224 85.1297 44.9224 85.1297Z" fill="#968EA0"/>
<path d="M43.3735 86.0564C43.3735 85.902 43.2186 86.0564 43.3735 86.0564C43.2186 86.0564 43.3735 86.0564 43.3735 86.0564Z" fill="#968EA0"/>
<path d="M42.5981 86.5197C42.5981 86.3652 42.4432 86.3652 42.5981 86.5197C42.4432 86.5197 42.5981 86.5197 42.5981 86.5197Z" fill="#968EA0"/>
<path d="M44.1489 85.5931C44.1489 85.4386 43.994 85.5931 44.1489 85.5931C43.994 85.5931 44.1489 85.5931 44.1489 85.5931Z" fill="#968EA0"/>
<path d="M52.0488 86.2109C52.0488 86.3654 52.2037 86.3654 52.0488 86.2109C52.2037 86.2109 52.0488 86.2109 52.0488 86.2109Z" fill="#968EA0"/>
<path d="M47.0918 93.7798C47.0918 93.9343 47.2467 93.7798 47.0918 93.7798C47.2467 93.7798 47.0918 93.7798 47.0918 93.7798Z" fill="#968EA0"/>
<path d="M46.627 94.0889C46.627 94.2434 46.7819 94.0889 46.627 94.0889C46.7819 94.0889 46.627 94.0889 46.627 94.0889Z" fill="#968EA0"/>
<path d="M52.8223 85.9017C52.8223 85.9017 52.9772 85.9017 52.8223 85.9017C52.9772 85.7472 52.8223 85.9017 52.8223 85.9017Z" fill="#968EA0"/>
<path d="M47.4004 93.6255C47.4004 93.7799 47.5553 93.6255 47.4004 93.6255C47.5553 93.6255 47.4004 93.6255 47.4004 93.6255Z" fill="#968EA0"/>
<path d="M47.4004 91.9261C47.4004 91.9261 47.5553 91.9261 47.4004 91.9261C47.5553 91.7716 47.4004 91.9261 47.4004 91.9261Z" fill="#968EA0"/>
<path d="M50.5 87.1377C50.5 87.2921 50.6549 87.1377 50.5 87.1377C50.6549 87.1377 50.5 87.1377 50.5 87.1377Z" fill="#968EA0"/>
<path d="M47.0918 92.0808C47.0918 92.0808 47.2467 92.0808 47.0918 92.0808C47.2467 91.9264 47.0918 92.0808 47.0918 92.0808Z" fill="#968EA0"/>
<path d="M47.8652 93.3164C47.8652 93.4709 48.0202 93.3164 47.8652 93.3164C48.0202 93.3164 47.8652 93.3164 47.8652 93.3164Z" fill="#968EA0"/>
<path d="M48.1758 91.4627C48.1758 91.4627 48.3307 91.4627 48.1758 91.4627C48.3307 91.3082 48.1758 91.4627 48.1758 91.4627Z" fill="#968EA0"/>
<path d="M47.8652 91.6175C47.8652 91.6175 48.0202 91.6175 47.8652 91.6175C48.0202 91.463 47.8652 91.6175 47.8652 91.6175Z" fill="#968EA0"/>
<path d="M51.2734 86.6743C51.2734 86.8288 51.4283 86.6743 51.2734 86.6743C51.4283 86.6743 51.2734 86.6743 51.2734 86.6743Z" fill="#968EA0"/>
<path d="M52.8223 88.6826C52.8223 88.8371 52.9772 88.8371 52.8223 88.6826C52.9772 88.6826 52.8223 88.6826 52.8223 88.6826Z" fill="#968EA0"/>
<path d="M51.2734 91.4627C51.2734 91.4627 51.4283 91.4627 51.2734 91.4627C51.4283 91.3082 51.2734 91.4627 51.2734 91.4627Z" fill="#968EA0"/>
<path d="M50.5 91.9261C50.5 91.9261 50.6549 91.9261 50.5 91.9261C50.6549 91.7716 50.5 91.9261 50.5 91.9261Z" fill="#968EA0"/>
<path d="M50.1895 92.0808C50.1895 92.0808 50.3444 92.0808 50.1895 92.0808C50.3444 91.9264 50.1895 92.0808 50.1895 92.0808Z" fill="#968EA0"/>
<path d="M52.0488 90.9993C52.0488 90.9993 52.2037 90.9993 52.0488 90.9993C52.2037 90.8448 52.0488 90.9993 52.0488 90.9993Z" fill="#968EA0"/>
<path d="M50.5 90.0728C50.5 90.2272 50.6549 90.0728 50.5 90.0728C50.6549 90.0728 50.5 90.0728 50.5 90.0728Z" fill="#968EA0"/>
<path d="M48.6406 92.853C48.6406 93.0075 48.7955 92.853 48.6406 92.853C48.7955 92.853 48.6406 92.853 48.6406 92.853Z" fill="#968EA0"/>
<path d="M48.9512 92.6987C48.9512 92.8532 49.1061 92.8532 48.9512 92.6987C49.1061 92.6987 48.9512 92.6987 48.9512 92.6987Z" fill="#968EA0"/>
<path d="M46.4712 89.4546C46.3163 89.6091 46.4712 89.6091 46.4712 89.4546V89.4546Z" fill="#968EA0"/>
<path d="M48.1758 93.1621C48.1758 93.3166 48.3307 93.1621 48.1758 93.1621C48.3307 93.1621 48.1758 93.1621 48.1758 93.1621Z" fill="#968EA0"/>
<path d="M49.7246 92.2354C49.7246 92.3898 49.8795 92.3898 49.7246 92.2354C49.8795 92.2354 49.7246 92.2354 49.7246 92.2354Z" fill="#968EA0"/>
<path d="M52.0488 89.146C52.0488 89.3004 52.2037 89.146 52.0488 89.146C52.2037 89.146 52.0488 89.146 52.0488 89.146Z" fill="#968EA0"/>
<path d="M49.4141 92.3896C49.4141 92.5441 49.569 92.5441 49.4141 92.3896C49.569 92.3896 49.4141 92.3896 49.4141 92.3896Z" fill="#968EA0"/>
<path d="M51.2734 89.6094C51.2734 89.7639 51.4283 89.6094 51.2734 89.6094C51.4283 89.6094 51.2734 89.6094 51.2734 89.6094Z" fill="#968EA0"/>
<path d="M49.8794 85.902C49.8794 85.7475 49.7245 85.7475 49.8794 85.902C49.7245 85.902 49.8794 85.902 49.8794 85.902Z" fill="#968EA0"/>
<path d="M49.5689 86.0563C49.5689 85.9018 49.4139 85.9018 49.5689 86.0563C49.4139 86.0563 49.5689 86.0563 49.5689 86.0563Z" fill="#968EA0"/>
<path d="M43.9922 93.7798C43.9922 93.9343 44.1471 93.7798 43.9922 93.7798C44.1471 93.7798 43.9922 93.7798 43.9922 93.7798Z" fill="#968EA0"/>
<path d="M42.4434 96.5604C42.4434 96.5604 42.5983 96.5604 42.4434 96.5604C42.5983 96.4059 42.4434 96.5604 42.4434 96.5604Z" fill="#968EA0"/>
<path d="M52.0488 82.6582C52.0488 82.8127 52.2037 82.6582 52.0488 82.6582C52.2037 82.6582 52.0488 82.6582 52.0488 82.6582Z" fill="#968EA0"/>
<path d="M44.7676 93.3164C44.7676 93.4709 44.9225 93.3164 44.7676 93.3164C44.9225 93.3164 44.7676 93.3164 44.7676 93.3164Z" fill="#968EA0"/>
<path d="M50.3442 85.5931C50.3442 85.4386 50.1893 85.5931 50.3442 85.5931C50.1893 85.5931 50.3442 85.5931 50.3442 85.5931Z" fill="#968EA0"/>
<path d="M52.9771 80.4954C52.9771 80.341 52.8221 80.4954 52.9771 80.4954C52.8221 80.4954 52.9771 80.4954 52.9771 80.4954Z" fill="#968EA0"/>
<path d="M43.2188 94.2432C43.2188 94.3976 43.3736 94.2432 43.2188 94.2432C43.3736 94.2432 43.2188 94.2432 43.2188 94.2432Z" fill="#968EA0"/>
<path d="M48.6406 86.5197C48.7955 86.3652 48.6406 86.3652 48.6406 86.5197V86.5197Z" fill="#968EA0"/>
<path d="M46.7817 89.3003C46.6268 89.4548 46.7817 89.4548 46.7817 89.3003V89.3003Z" fill="#968EA0"/>
<path d="M51.2734 83.1216C51.2734 83.2761 51.4283 83.1216 51.2734 83.1216C51.4283 83.1216 51.2734 83.1216 51.2734 83.1216Z" fill="#968EA0"/>
<path d="M48.9512 86.3654C49.1061 86.2109 48.9512 86.2109 48.9512 86.3654V86.3654Z" fill="#968EA0"/>
<path d="M49.4141 87.7554C49.4141 87.9098 49.569 87.7554 49.4141 87.7554C49.569 87.7554 49.4141 87.7554 49.4141 87.7554Z" fill="#968EA0"/>
<path d="M51.4282 84.9749C51.4282 84.8204 51.2733 84.9749 51.4282 84.9749C51.2733 84.9749 51.4282 84.9749 51.4282 84.9749Z" fill="#968EA0"/>
<path d="M46.3164 92.5442C46.3164 92.5442 46.4713 92.5442 46.3164 92.5442C46.4713 92.3898 46.3164 92.5442 46.3164 92.5442Z" fill="#968EA0"/>
<path d="M43.9922 95.6336C43.9922 95.6336 44.1471 95.6336 43.9922 95.6336C44.1471 95.4791 43.9922 95.6336 43.9922 95.6336Z" fill="#968EA0"/>
<path d="M50.1895 87.292C50.1895 87.4465 50.3444 87.292 50.1895 87.292C50.3444 87.292 50.1895 87.292 50.1895 87.292Z" fill="#968EA0"/>
<path d="M46.627 92.3895C46.627 92.3895 46.7819 92.3895 46.627 92.3895C46.7819 92.235 46.627 92.3895 46.627 92.3895Z" fill="#968EA0"/>
<path d="M49.7246 87.6011C49.7246 87.7556 49.8795 87.6011 49.7246 87.6011C49.8795 87.6011 49.7246 87.6011 49.7246 87.6011Z" fill="#968EA0"/>
<path d="M43.2188 96.097C43.2188 96.097 43.3736 96.097 43.2188 96.097C43.3736 95.9425 43.2188 96.097 43.2188 96.097Z" fill="#968EA0"/>
<path d="M50.6548 85.4383C50.6548 85.2838 50.4999 85.4383 50.6548 85.4383C50.4999 85.4383 50.6548 85.4383 50.6548 85.4383Z" fill="#968EA0"/>
<path d="M45.543 92.853C45.543 93.0075 45.6979 93.0075 45.543 92.853C45.6979 92.853 45.543 92.853 45.543 92.853Z" fill="#968EA0"/>
<path d="M52.8223 82.1943C52.8223 82.3488 52.9772 82.1943 52.8223 82.1943C52.9772 82.1943 52.8223 82.1943 52.8223 82.1943Z" fill="#968EA0"/>
<path d="M45.8516 92.6987C45.8516 92.8532 46.0065 92.8532 45.8516 92.6987C46.0065 92.6987 45.8516 92.6987 45.8516 92.6987Z" fill="#968EA0"/>
<path d="M31.6009 84.8205L26.7988 87.6009V86.8286L31.6009 84.0481V84.8205ZM33.6147 86.5196L35.3186 85.5928V84.8205L33.6147 85.7473V86.5196ZM32.3754 87.292V86.5196L26.7988 89.7635V90.5359L32.3754 87.292ZM32.8401 84.2026L37.4873 81.5766V80.8042L32.8401 83.4302V84.2026Z" fill="#968EA0"/>
<path d="M45.543 112.78C45.6979 112.626 45.543 112.626 45.543 112.78V112.78Z" fill="#968EA0"/>
<path d="M49.8794 106.756C49.8794 106.601 49.7245 106.756 49.8794 106.756C49.7245 106.756 49.8794 106.756 49.8794 106.756Z" fill="#968EA0"/>
<path d="M49.5689 106.91C49.5689 106.756 49.4139 106.756 49.5689 106.91C49.4139 106.91 49.5689 106.91 49.5689 106.91Z" fill="#968EA0"/>
<path d="M43.2188 115.715C43.2188 115.87 43.3736 115.87 43.2188 115.715C43.3736 115.715 43.2188 115.715 43.2188 115.715Z" fill="#968EA0"/>
<path d="M43.9922 115.406C43.9922 115.406 44.1471 115.406 43.9922 115.406C44.1471 115.252 43.9922 115.406 43.9922 115.406Z" fill="#968EA0"/>
<path d="M50.3442 106.447C50.3442 106.293 50.1893 106.447 50.3442 106.447C50.1893 106.447 50.3442 106.447 50.3442 106.447Z" fill="#968EA0"/>
<path d="M45.8516 112.626C46.0065 112.471 45.8516 112.471 45.8516 112.626V112.626Z" fill="#968EA0"/>
<path d="M48.7954 107.374C48.7954 107.219 48.6405 107.219 48.7954 107.374C48.6405 107.374 48.7954 107.374 48.7954 107.374Z" fill="#968EA0"/>
<path d="M46.627 110.309C46.7819 110.154 46.627 110.309 46.627 110.309V110.309Z" fill="#968EA0"/>
<path d="M46.3164 110.463C46.3164 110.463 46.4713 110.463 46.3164 110.463C46.4713 110.309 46.3164 110.463 46.3164 110.463Z" fill="#968EA0"/>
<path d="M50.6548 106.292C50.6548 106.138 50.4999 106.292 50.6548 106.292C50.4999 106.292 50.6548 106.292 50.6548 106.292Z" fill="#968EA0"/>
<path d="M48.1758 107.528C48.1758 107.683 48.3307 107.528 48.1758 107.528C48.3307 107.528 48.1758 107.528 48.1758 107.528Z" fill="#968EA0"/>
<path d="M47.0918 110C47.2467 109.845 47.0918 110 47.0918 110V110Z" fill="#968EA0"/>
<path d="M42.5981 116.179C42.4432 116.333 42.5981 116.333 42.5981 116.179V116.179Z" fill="#968EA0"/>
<path d="M41.8249 119.113L39.6562 120.349V120.812L41.8249 119.577V119.113Z" fill="#968EA0"/>
<path d="M49.106 107.219C49.106 107.065 48.951 107.065 49.106 107.219C48.951 107.219 49.106 107.219 49.106 107.219Z" fill="#968EA0"/>
<path d="M47.0918 111.853C47.2467 111.699 47.0918 111.699 47.0918 111.853V111.853Z" fill="#968EA0"/>
<path d="M46.0064 114.17C45.8514 114.325 46.0064 114.325 46.0064 114.17V114.17Z" fill="#968EA0"/>
<path d="M49.7246 108.61C49.8795 108.455 49.7246 108.455 49.7246 108.61V108.61Z" fill="#968EA0"/>
<path d="M45.6978 114.325C45.5429 114.479 45.6978 114.479 45.6978 114.325V114.325Z" fill="#968EA0"/>
<path d="M47.4004 111.699C47.5553 111.544 47.4004 111.544 47.4004 111.699V111.699Z" fill="#968EA0"/>
<path d="M48.1758 111.235C48.3307 111.081 48.1758 111.081 48.1758 111.235V111.235Z" fill="#968EA0"/>
<path d="M50.5 108.146C50.6549 107.992 50.5 107.992 50.5 108.146V108.146Z" fill="#968EA0"/>
<path d="M50.1895 108.3C50.3444 108.146 50.1895 108.146 50.1895 108.3V108.3Z" fill="#968EA0"/>
<path d="M47.8652 111.39C48.0202 111.235 47.8652 111.235 47.8652 111.39V111.39Z" fill="#968EA0"/>
<path d="M42.4434 119.113C42.4434 119.268 42.5983 119.113 42.4434 119.113C42.5983 119.113 42.4434 119.113 42.4434 119.113Z" fill="#968EA0"/>
<path d="M46.3164 112.317C46.4713 112.162 46.3164 112.162 46.3164 112.317V112.317Z" fill="#968EA0"/>
<path d="M46.627 112.162C46.7819 112.008 46.627 112.008 46.627 112.162V112.162Z" fill="#968EA0"/>
<path d="M38.8809 122.512V122.975L41.8241 121.431V120.967L38.8809 122.512Z" fill="#968EA0"/>
<path d="M44.7676 114.943C44.7676 114.943 44.9225 114.943 44.7676 114.943C44.9225 114.788 44.7676 114.943 44.7676 114.943Z" fill="#968EA0"/>
<path d="M51.4282 105.829C51.4282 105.674 51.2733 105.829 51.4282 105.829C51.2733 105.829 51.4282 105.829 51.4282 105.829Z" fill="#968EA0"/>
<path d="M30.3613 121.43L31.6006 120.813L33.3045 119.886V119.422L31.6006 120.349L30.3613 120.967V121.43Z" fill="#968EA0"/>
<path d="M44.1489 111.853C44.1489 111.699 43.994 111.699 44.1489 111.853C43.994 111.853 44.1489 111.853 44.1489 111.853Z" fill="#968EA0"/>
<path d="M42.5981 114.479C42.5981 114.325 42.4432 114.479 42.5981 114.479C42.4432 114.479 42.5981 114.479 42.5981 114.479Z" fill="#968EA0"/>
<path d="M46.4712 108.609C46.4712 108.609 46.3163 108.609 46.4712 108.609C46.3163 108.764 46.4712 108.609 46.4712 108.609Z" fill="#968EA0"/>
<path d="M41.8255 114.479L39.502 115.715V116.179L41.8255 114.943V114.479Z" fill="#968EA0"/>
<path d="M32.2208 125.138L35.3189 123.284V122.975L32.2208 124.674L30.207 125.756V126.219L32.2208 125.138Z" fill="#968EA0"/>
<path d="M33.1504 121.276V121.74L35.3191 120.504V120.041L33.1504 121.276Z" fill="#968EA0"/>
<path d="M41.8249 112.625L39.6562 113.861V114.325L41.8249 113.089V112.625Z" fill="#968EA0"/>
<path d="M46.7817 108.455C46.7817 108.455 46.6268 108.455 46.7817 108.455C46.6268 108.61 46.7817 108.455 46.7817 108.455Z" fill="#968EA0"/>
<path d="M37.7969 117.106L38.7263 116.642V116.179L37.7969 116.797V117.106Z" fill="#968EA0"/>
<path d="M54.8369 103.821V103.357L53.5977 103.975V104.439L54.8369 103.821Z" fill="#968EA0"/>
<path d="M45.6978 110.927C45.6978 110.772 45.5429 110.927 45.6978 110.927C45.5429 110.927 45.6978 110.927 45.6978 110.927Z" fill="#968EA0"/>
<path d="M54.9919 105.52V105.057L54.0625 105.675V105.983L54.9919 105.52Z" fill="#968EA0"/>
<path d="M54.9919 112.008V111.544L54.0625 112.162V112.471L54.9919 112.008Z" fill="#968EA0"/>
<path d="M54.9907 113.861V113.398L54.3711 113.707V114.17L54.9907 113.861Z" fill="#968EA0"/>
<path d="M54.9919 109.073V108.764L54.0625 109.228V109.691L54.9919 109.073Z" fill="#968EA0"/>
<path d="M54.9925 107.374V106.91L53.9082 107.528V107.991L54.9925 107.374Z" fill="#968EA0"/>
<path d="M47.5552 107.992C47.5552 107.992 47.4003 107.992 47.5552 107.992C47.4003 108.146 47.5552 107.992 47.5552 107.992Z" fill="#968EA0"/>
<path d="M44.9224 111.39C44.9224 111.235 44.7675 111.235 44.9224 111.39C44.7675 111.39 44.9224 111.39 44.9224 111.39Z" fill="#968EA0"/>
<path d="M47.2466 108.146C47.2466 108.146 47.0917 108.146 47.2466 108.146C47.0917 108.3 47.2466 108.146 47.2466 108.146Z" fill="#968EA0"/>
<path d="M30.5166 117.415L27.7283 118.959L26.7988 119.423V119.886L27.7283 119.423L30.5166 117.878V117.415Z" fill="#968EA0"/>
<path d="M43.3735 112.162C43.3735 112.162 43.2186 112.162 43.3735 112.162C43.2186 112.317 43.3735 112.162 43.3735 112.162Z" fill="#968EA0"/>
<path d="M29.5871 121.431L26.7988 123.13V123.593L29.5871 121.894V121.431Z" fill="#968EA0"/>
<path d="M41.6689 111.39V110.927L40.4297 111.545V112.008L41.6689 111.39Z" fill="#968EA0"/>
<path d="M39.6566 112.471V112.008L38.5723 112.626V113.089L39.6566 112.471Z" fill="#968EA0"/>
<path d="M32.9941 118.186L35.3177 116.951V116.487L32.9941 117.723V118.186Z" fill="#968EA0"/>
<path d="M30.8264 122.976L32.2205 122.203V121.74L30.2067 122.976L26.7988 124.829V125.293L30.8264 122.976Z" fill="#968EA0"/>
<path d="M32.2205 118.65V118.187L30.2067 119.268L26.7988 121.276V121.739L31.1362 119.268L32.2205 118.65Z" fill="#968EA0"/>
<path d="M47.8652 107.683C47.8652 107.837 48.0202 107.683 47.8652 107.683C48.0202 107.683 47.8652 107.683 47.8652 107.683Z" fill="#968EA0"/>
<path d="M45.8516 110.772C45.8516 110.772 46.0065 110.772 45.8516 110.772C46.0065 110.617 45.8516 110.772 45.8516 110.772Z" fill="#968EA0"/>
<path d="M39.6562 117.414V117.878L41.8249 116.796V116.333L39.6562 117.414Z" fill="#968EA0"/>
<path d="M29.2773 128.073L26.7988 129.618V130.081L29.2773 128.536L32.0656 126.992V126.528L29.2773 128.073Z" fill="#968EA0"/>
<path d="M29.4322 126.219L26.7988 127.764V128.227L29.4322 126.683V126.219Z" fill="#968EA0"/>
<path d="M32.8398 126.065V126.528L34.3889 125.756V125.292L32.8398 126.065Z" fill="#968EA0"/>
<path d="M31.291 117.414L33.3048 116.178L36.7127 114.325V113.861L32.995 116.024L31.291 116.951V117.414Z" fill="#968EA0"/>
<path d="M42.5981 112.625C42.5981 112.625 42.4432 112.625 42.5981 112.625C42.4432 112.78 42.5981 112.625 42.5981 112.625Z" fill="#968EA0"/>
<path d="M43.3735 110.463C43.3735 110.309 43.2186 110.463 43.3735 110.463C43.2186 110.463 43.3735 110.463 43.3735 110.463Z" fill="#968EA0"/>
<path d="M42.5981 110.927C42.5981 110.772 42.4432 110.927 42.5981 110.927C42.4432 110.927 42.5981 110.927 42.5981 110.927Z" fill="#968EA0"/>
<path d="M44.1489 110C44.1489 109.845 43.994 110 44.1489 110C43.994 110 44.1489 110 44.1489 110Z" fill="#968EA0"/>
<path d="M52.0488 110.772C52.0488 110.772 52.2037 110.772 52.0488 110.772C52.2037 110.617 52.0488 110.772 52.0488 110.772Z" fill="#968EA0"/>
<path d="M47.0918 118.187C47.0918 118.341 47.2467 118.187 47.0918 118.187C47.2467 118.187 47.0918 118.187 47.0918 118.187Z" fill="#968EA0"/>
<path d="M46.627 118.496C46.627 118.65 46.7819 118.496 46.627 118.496C46.7819 118.496 46.627 118.496 46.627 118.496Z" fill="#968EA0"/>
<path d="M49.7246 114.943C49.7246 115.097 49.8795 114.943 49.7246 114.943C49.8795 114.943 49.7246 114.943 49.7246 114.943Z" fill="#968EA0"/>
<path d="M46.3164 118.65C46.3164 118.804 46.4713 118.65 46.3164 118.65C46.4713 118.65 46.3164 118.65 46.3164 118.65Z" fill="#968EA0"/>
<path d="M52.8223 110.309C52.8223 110.309 52.9772 110.309 52.8223 110.309C52.9772 110.154 52.8223 110.309 52.8223 110.309Z" fill="#968EA0"/>
<path d="M49.4141 115.097C49.4141 115.252 49.569 115.097 49.4141 115.097C49.569 115.097 49.4141 115.097 49.4141 115.097Z" fill="#968EA0"/>
<path d="M47.4004 118.032C47.4004 118.187 47.5553 118.032 47.4004 118.032C47.5553 118.032 47.4004 118.032 47.4004 118.032Z" fill="#968EA0"/>
<path d="M45.543 119.113C45.543 119.268 45.6979 119.113 45.543 119.113C45.6979 119.113 45.543 119.113 45.543 119.113Z" fill="#968EA0"/>
<path d="M50.5 111.544C50.5 111.699 50.6549 111.699 50.5 111.544C50.6549 111.544 50.5 111.544 50.5 111.544Z" fill="#968EA0"/>
<path d="M47.0918 116.488C47.0918 116.488 47.2467 116.488 47.0918 116.488C47.2467 116.333 47.0918 116.488 47.0918 116.488Z" fill="#968EA0"/>
<path d="M47.8652 117.723C47.8652 117.878 48.0202 117.878 47.8652 117.723C48.0202 117.723 47.8652 117.723 47.8652 117.723Z" fill="#968EA0"/>
<path d="M45.8516 118.959C45.8516 119.113 46.0065 118.959 45.8516 118.959C46.0065 118.959 45.8516 118.959 45.8516 118.959Z" fill="#968EA0"/>
<path d="M51.2734 111.081C51.2734 111.236 51.4283 111.236 51.2734 111.081C51.4283 111.081 51.2734 111.081 51.2734 111.081Z" fill="#968EA0"/>
<path d="M52.8223 113.243C52.8223 113.243 52.9772 113.243 52.8223 113.243C52.9772 113.089 52.8223 113.243 52.8223 113.243Z" fill="#968EA0"/>
<path d="M50.5 116.333C50.5 116.333 50.6549 116.333 50.5 116.333C50.6549 116.179 50.5 116.333 50.5 116.333Z" fill="#968EA0"/>
<path d="M50.1895 116.488C50.1895 116.488 50.3444 116.488 50.1895 116.488C50.3444 116.333 50.1895 116.488 50.1895 116.488Z" fill="#968EA0"/>
<path d="M50.5 114.479C50.5 114.634 50.6549 114.479 50.5 114.479C50.6549 114.479 50.5 114.479 50.5 114.479Z" fill="#968EA0"/>
<path d="M48.6406 117.26C48.6406 117.414 48.7955 117.414 48.6406 117.26C48.7955 117.26 48.6406 117.26 48.6406 117.26Z" fill="#968EA0"/>
<path d="M48.9512 117.26C48.9512 117.26 49.1061 117.26 48.9512 117.26C49.1061 117.106 48.9512 117.26 48.9512 117.26Z" fill="#968EA0"/>
<path d="M50.1895 114.634C50.1895 114.788 50.3444 114.634 50.1895 114.634C50.3444 114.634 50.1895 114.634 50.1895 114.634Z" fill="#968EA0"/>
<path d="M48.1758 117.569C48.1758 117.723 48.3307 117.723 48.1758 117.569C48.3307 117.569 48.1758 117.569 48.1758 117.569Z" fill="#968EA0"/>
<path d="M49.7246 116.796C49.7246 116.796 49.8795 116.796 49.7246 116.796C49.8795 116.642 49.7246 116.796 49.7246 116.796Z" fill="#968EA0"/>
<path d="M52.0488 113.553C52.0488 113.707 52.2037 113.707 52.0488 113.553C52.2037 113.553 52.0488 113.553 52.0488 113.553Z" fill="#968EA0"/>
<path d="M49.4141 116.951C49.4141 116.951 49.569 116.951 49.4141 116.951C49.569 116.797 49.4141 116.951 49.4141 116.951Z" fill="#968EA0"/>
<path d="M51.2734 114.016C51.2734 114.171 51.4283 114.016 51.2734 114.016C51.4283 114.016 51.2734 114.016 51.2734 114.016Z" fill="#968EA0"/>
<path d="M49.8794 110.309C49.8794 110.154 49.7245 110.309 49.8794 110.309C49.7245 110.309 49.8794 110.309 49.8794 110.309Z" fill="#968EA0"/>
<path d="M49.5689 110.463C49.5689 110.309 49.4139 110.463 49.5689 110.463C49.4139 110.463 49.5689 110.463 49.5689 110.463Z" fill="#968EA0"/>
<path d="M43.9922 118.187C43.9922 118.341 44.1471 118.341 43.9922 118.187C44.1471 118.187 43.9922 118.187 43.9922 118.187Z" fill="#968EA0"/>
<path d="M42.4434 120.967C42.4434 120.967 42.5983 120.967 42.4434 120.967C42.5983 120.813 42.4434 120.967 42.4434 120.967Z" fill="#968EA0"/>
<path d="M52.0488 107.065C52.0488 107.219 52.2037 107.219 52.0488 107.065C52.2037 107.065 52.0488 107.065 52.0488 107.065Z" fill="#968EA0"/>
<path d="M44.7676 117.723C44.7676 117.878 44.9225 117.878 44.7676 117.723C44.9225 117.723 44.7676 117.723 44.7676 117.723Z" fill="#968EA0"/>
<path d="M50.3442 110C50.3442 109.845 50.1893 110 50.3442 110C50.1893 110 50.3442 110 50.3442 110Z" fill="#968EA0"/>
<path d="M48.1758 112.935C48.1758 113.089 48.3307 112.935 48.1758 112.935C48.3307 112.935 48.1758 112.935 48.1758 112.935Z" fill="#968EA0"/>
<path d="M43.2188 118.65C43.2188 118.804 43.3736 118.65 43.2188 118.65C43.3736 118.65 43.2188 118.65 43.2188 118.65Z" fill="#968EA0"/>
<path d="M48.6406 110.927C48.7955 110.772 48.6406 110.927 48.6406 110.927V110.927Z" fill="#968EA0"/>
<path d="M51.2734 107.528C51.2734 107.683 51.4283 107.528 51.2734 107.528C51.4283 107.528 51.2734 107.528 51.2734 107.528Z" fill="#968EA0"/>
<path d="M48.9512 110.772C49.1061 110.617 48.9512 110.772 48.9512 110.772V110.772Z" fill="#968EA0"/>
<path d="M48.6406 112.625C48.6406 112.78 48.7955 112.625 48.6406 112.625C48.7955 112.625 48.6406 112.625 48.6406 112.625Z" fill="#968EA0"/>
<path d="M49.4141 112.162C49.4141 112.317 49.569 112.162 49.4141 112.162C49.569 112.162 49.4141 112.162 49.4141 112.162Z" fill="#968EA0"/>
<path d="M46.3164 116.951C46.3164 116.951 46.4713 116.951 46.3164 116.951C46.4713 116.797 46.3164 116.951 46.3164 116.951Z" fill="#968EA0"/>
<path d="M50.1895 111.699C50.1895 111.853 50.3444 111.699 50.1895 111.699C50.3444 111.699 50.1895 111.699 50.1895 111.699Z" fill="#968EA0"/>
<path d="M46.627 116.796C46.627 116.796 46.7819 116.796 46.627 116.796C46.7819 116.642 46.627 116.796 46.627 116.796Z" fill="#968EA0"/>
<path d="M49.7246 112.008C49.7246 112.162 49.8795 112.008 49.7246 112.008C49.8795 112.008 49.7246 112.008 49.7246 112.008Z" fill="#968EA0"/>
<path d="M43.2188 120.504C43.2188 120.504 43.3736 120.504 43.2188 120.504C43.3736 120.349 43.2188 120.504 43.2188 120.504Z" fill="#968EA0"/>
<path d="M50.6548 109.845C50.6548 109.691 50.4999 109.845 50.6548 109.845C50.4999 109.845 50.6548 109.845 50.6548 109.845Z" fill="#968EA0"/>
<path d="M48.9512 112.471C48.9512 112.626 49.1061 112.471 48.9512 112.471C49.1061 112.471 48.9512 112.471 48.9512 112.471Z" fill="#968EA0"/>
<path d="M45.543 117.414C45.543 117.414 45.6979 117.414 45.543 117.414C45.6979 117.26 45.543 117.414 45.543 117.414Z" fill="#968EA0"/>
<path d="M52.8223 106.601C52.8223 106.756 52.9772 106.756 52.8223 106.601C52.9772 106.601 52.8223 106.601 52.8223 106.601Z" fill="#968EA0"/>
<path d="M45.8516 117.26C45.8516 117.26 46.0065 117.26 45.8516 117.26C46.0065 117.106 45.8516 117.26 45.8516 117.26Z" fill="#968EA0"/>
<path d="M31.6009 109.382L26.7988 112.162V111.39L31.6009 108.609V109.382ZM33.6147 110.926L35.3186 110V109.227L33.6147 110.154V110.926ZM32.3754 111.699V110.926L26.7988 114.17V114.943L32.3754 111.699ZM32.8401 108.609L37.4873 105.983V105.211L32.8401 107.837V108.609Z" fill="#968EA0"/>
<path d="M53.5981 51.7637L42.29 58.2515C41.6704 58.7149 41.0508 58.5604 41.0508 57.9425V54.8531C41.0508 54.2352 41.6704 53.4629 42.29 52.9994L53.5981 46.5116C54.2177 46.0482 54.8374 46.2027 54.8374 46.8206V49.91C54.8374 50.5279 54.3726 51.4547 53.5981 51.7637Z" fill="#719DFF"/>
<path d="M53.5981 76.3247L42.29 82.8125C41.6704 83.2759 41.0508 83.1215 41.0508 82.5036V79.4141C41.0508 78.7962 41.6704 78.0239 42.29 77.5605L53.5981 71.0727C54.2177 70.6093 54.8374 70.7637 54.8374 71.3816V74.471C54.8374 75.0889 54.3726 75.8613 53.5981 76.3247Z" fill="#719DFF"/>
<path d="M53.5981 100.731L42.29 107.219C41.6704 107.682 41.0508 107.528 41.0508 106.91V103.82C41.0508 103.202 41.6704 102.43 42.29 101.967L53.5981 95.4789C54.2177 95.0155 54.8374 95.17 54.8374 95.7879V98.8773C54.8374 99.4952 54.3726 100.268 53.5981 100.731Z" fill="#719DFF"/>
<path d="M42.4446 56.089L42.1348 56.2435L42.4446 54.5443C42.4446 54.5443 42.4446 54.5443 42.5995 54.3898L42.9093 54.2354C42.9093 54.2354 42.9093 54.2354 43.0642 54.2354L43.5289 55.3166L43.2191 55.4711L43.0642 55.3166L42.5995 55.6256L42.4446 56.089ZM42.7544 54.6988L42.5995 55.4711L42.9093 55.3166L42.7544 54.6988Z" fill="#FFFCF3"/>
<path d="M44.1489 55.1623C43.8391 55.3167 43.8391 55.3167 43.6842 55.3167L43.5293 55.1623V54.6988C43.5293 54.5444 43.5293 54.5444 43.6842 54.3899C43.6842 54.2354 43.8391 54.2354 43.994 54.081H44.1489H44.3038H44.4587V53.6175C44.4587 53.6175 44.4587 53.6175 44.4587 53.4631L44.6136 53.3086V54.8533C44.6136 54.8533 44.6136 54.8533 44.6136 55.0078L44.4587 55.1623C44.3038 55.0078 44.3038 55.0078 44.1489 55.1623C44.3038 55.1623 44.1489 55.1623 44.1489 55.1623ZM44.4587 54.5444V54.2354C44.4587 54.081 44.4587 54.081 44.3038 54.2354H44.1489C44.1489 54.2354 43.994 54.2354 43.994 54.3899C43.994 54.3899 43.994 54.3899 43.994 54.5444V55.0078C43.994 55.0078 43.994 55.0078 43.994 55.1623C43.994 55.1623 43.994 55.1623 44.1489 55.1623H44.3038C44.3038 54.8533 44.4587 54.6988 44.4587 54.5444Z" fill="#FFFCF3"/>
<path d="M45.5435 54.3898C45.2336 54.5443 45.2336 54.5443 45.0787 54.5443L44.9238 54.3898V53.9264C44.9238 53.7719 44.9238 53.7719 45.0787 53.6174C45.0787 53.463 45.2336 53.463 45.3885 53.3085H45.5435H45.6984H45.8533V52.8451C45.8533 52.8451 45.8533 52.8451 45.8533 52.6906L46.0082 52.5361V54.0809C46.0082 54.0809 46.0082 54.0809 46.0082 54.2353L45.8533 54.3898C45.6984 54.0809 45.6984 54.2353 45.5435 54.3898C45.5435 54.2353 45.5435 54.3898 45.5435 54.3898ZM45.6984 53.7719V53.463C45.6984 53.3085 45.6984 53.3085 45.5435 53.463H45.3885C45.3885 53.463 45.2336 53.463 45.2336 53.6174C45.2336 53.6174 45.2336 53.6174 45.2336 53.7719V54.0809C45.2336 54.0809 45.2336 54.0809 45.2336 54.2353C45.2336 54.2353 45.2336 54.2353 45.3885 54.2353H45.5435C45.6984 53.9264 45.6984 53.9264 45.6984 53.7719Z" fill="#FFFCF3"/>
<path d="M46.9362 52.5362C46.7812 52.5362 46.7813 52.3817 46.7813 52.3817C46.7813 52.3817 46.7813 52.3817 46.7813 52.2273H46.9362V51.9183C46.9362 51.9183 46.9362 51.9183 46.9362 51.7638L47.0911 51.6094V51.7638L47.4009 51.6094V51.7638L47.0911 51.9183V52.5362C47.0911 52.5362 47.0911 52.5362 47.0911 52.6907C47.0911 52.6907 47.0911 52.6907 47.246 52.6907H47.4009V52.8451L47.246 52.9996C47.0911 53.1541 46.9362 53.1541 46.9362 53.1541L46.7813 52.9996L46.9362 52.5362C47.0911 52.5362 46.9362 52.5362 46.9362 52.5362Z" fill="#FFFCF3"/>
<path d="M48.4855 52.6904L48.1757 52.8448C48.0207 52.9993 47.8658 52.9993 47.8658 52.9993L47.7109 52.8448V52.3814C47.7109 52.2269 47.7109 52.2269 47.8658 52.0725C47.8658 51.918 48.0207 51.918 48.1757 51.7635L48.4855 51.6091C48.6404 51.4546 48.7953 51.4546 48.7953 51.4546L48.9502 51.6091V52.0725C48.9502 52.2269 48.9502 52.2269 48.7953 52.3814C48.7953 52.3814 48.6404 52.5359 48.4855 52.6904ZM48.3306 52.5359C48.4855 52.3814 48.4855 52.3814 48.6404 52.3814C48.6404 52.3814 48.6404 52.3814 48.6404 52.2269V51.7635C48.6404 51.7635 48.6404 51.7635 48.6404 51.6091C48.6404 51.6091 48.6404 51.6091 48.4855 51.6091L48.3306 51.7635C48.3306 51.7635 48.1757 51.7635 48.1757 51.918C48.1757 51.918 48.1757 51.918 48.1757 52.0725L48.3306 52.5359C48.1757 52.5359 48.1757 52.5359 48.3306 52.5359C48.1757 52.5359 48.3306 52.5359 48.3306 52.5359Z" fill="#FFFCF3"/>
<path d="M50.4991 51.4549L50.1893 51.6093C50.0344 51.7638 49.8795 51.7638 49.8795 51.7638L49.7246 51.6093V50.837C49.7246 50.6825 49.7246 50.6825 49.8795 50.528C49.8795 50.3736 50.0344 50.3736 50.1893 50.2191L50.4991 50.0646C50.654 49.9102 50.809 49.9102 50.809 49.9102L50.9639 50.0646V50.2191C50.9639 50.2191 50.9639 50.2191 50.9639 50.3736L50.809 50.528V50.3736C50.809 50.3736 50.809 50.3736 50.809 50.2191C50.809 50.2191 50.809 50.2191 50.654 50.2191L50.4991 50.3736C50.4991 50.3736 50.3442 50.3736 50.3442 50.528C50.3442 50.528 50.3442 50.528 50.3442 50.6825V51.3004C50.3442 51.3004 50.3442 51.3004 50.3442 51.4549C50.3442 51.4549 50.3442 51.4549 50.4991 51.4549L50.654 51.3004C50.654 51.3004 50.809 51.3004 50.809 51.1459C50.809 51.1459 50.809 51.1459 50.809 50.9915C50.809 50.9915 50.809 50.9915 50.809 50.837L50.9639 50.6825V50.837C50.9639 50.9915 50.9639 50.9915 50.809 51.1459C50.809 51.3004 50.654 51.4549 50.4991 51.4549Z" fill="#FFFCF3"/>
<path d="M51.5839 50.837C51.4289 50.9915 51.4289 50.9915 51.274 50.9915L51.1191 50.837V50.3736C51.1191 50.2191 51.1191 50.2191 51.274 50.0647C51.274 49.9102 51.4289 49.9102 51.5839 49.7557L52.2035 49.4468V50.5281C52.2035 50.5281 52.2035 50.5281 52.2035 50.6825L52.0486 50.837C51.8937 50.5281 51.8937 50.6825 51.5839 50.837C51.7388 50.6825 51.7388 50.837 51.5839 50.837ZM51.8937 50.2191V49.7557L51.5839 49.9102C51.5839 49.9102 51.429 49.9102 51.429 50.0647C51.429 50.0647 51.429 50.0647 51.429 50.2191V50.6825C51.429 50.6825 51.429 50.6825 51.429 50.837C51.429 50.837 51.4289 50.837 51.5839 50.837H51.7388C51.8937 50.3736 51.8937 50.3736 51.8937 50.2191Z" fill="#FFFCF3"/>
<path d="M52.8229 50.219H52.668V49.1377C52.668 49.1377 52.668 49.1377 52.668 48.9833L52.8229 48.8288C52.9778 48.8288 52.9778 48.8288 52.9778 48.8288L53.1327 48.6743H53.2876V48.8288L52.9778 48.9833C52.8229 48.9833 52.8229 49.1377 52.8229 49.2922V50.219C52.8229 50.0646 52.8229 50.0646 52.8229 50.219Z" fill="#FFFCF3"/>
<path d="M53.442 48.8287C53.2871 48.8287 53.2871 48.6742 53.2871 48.6742C53.2871 48.6742 53.2871 48.6742 53.2871 48.5197H53.442V48.2108C53.442 48.2108 53.442 48.2108 53.442 48.0563L53.5969 47.9019V48.0563L53.9067 47.9019V48.0563L53.5969 48.2108V48.8287C53.5969 48.8287 53.5969 48.8287 53.5969 48.9832C53.5969 48.9832 53.5969 48.9832 53.7518 48.9832H53.9067V49.1376L53.7518 49.2921C53.5969 49.4466 53.442 49.4466 53.442 49.4466L53.2871 49.2921L53.442 48.8287Z" fill="#FFFCF3"/>
<path d="M42.4446 80.65L42.1348 80.8045L42.4446 79.1053C42.4446 79.1053 42.4446 79.1053 42.5995 78.9509L42.9093 78.7964C42.9093 78.7964 42.9093 78.7964 43.0642 78.7964L43.5289 79.8777L43.2191 80.0322L43.0642 79.8777L42.5995 80.1866L42.4446 80.65C42.4446 80.4956 42.4446 80.65 42.4446 80.65ZM42.7544 79.2598L42.5995 80.0322L42.9093 79.8777L42.7544 79.2598Z" fill="#FFFCF3"/>
<path d="M44.1489 79.569C43.8391 79.7235 43.8391 79.7235 43.6842 79.7235L43.5293 79.569V79.1056C43.5293 78.9511 43.5293 78.9511 43.6842 78.7966C43.6842 78.6422 43.8391 78.6422 43.994 78.4877H44.1489H44.3038H44.4587V78.0243C44.4587 78.0243 44.4587 78.0243 44.4587 77.8698L44.6136 77.7153V79.26C44.6136 79.26 44.6136 79.26 44.6136 79.4145L44.4587 79.569C44.3038 79.4145 44.3038 79.4145 44.1489 79.569C44.3038 79.569 44.1489 79.569 44.1489 79.569ZM44.4587 78.9511V78.6422C44.4587 78.4877 44.4587 78.4877 44.3038 78.6422H44.1489C44.1489 78.6422 43.994 78.6422 43.994 78.7966C43.994 78.7966 43.994 78.7966 43.994 78.9511V79.4145C43.994 79.4145 43.994 79.4145 43.994 79.569C43.994 79.569 43.994 79.569 44.1489 79.569H44.3038C44.3038 79.26 44.4587 79.1056 44.4587 78.9511Z" fill="#FFFCF3"/>
<path d="M45.5435 78.7965C45.2336 78.951 45.2336 78.951 45.0787 78.951L44.9238 78.7965V78.3331C44.9238 78.1786 44.9238 78.1786 45.0787 78.0242C45.0787 77.8697 45.2336 77.8697 45.3885 77.7152H45.5435H45.6984H45.8533V77.2518C45.8533 77.2518 45.8533 77.2518 45.8533 77.0973L46.0082 76.9429V78.4876C46.0082 78.4876 46.0082 78.4876 46.0082 78.6421L45.8533 78.7965C45.6984 78.6421 45.6984 78.6421 45.5435 78.7965ZM45.6984 78.1786V77.8697C45.6984 77.7152 45.6984 77.7152 45.5435 77.8697H45.3885C45.3885 77.8697 45.2336 77.8697 45.2336 78.0242C45.2336 78.0242 45.2336 78.0242 45.2336 78.1786V78.6421C45.2336 78.6421 45.2336 78.6421 45.2336 78.7965C45.2336 78.7965 45.2336 78.7965 45.3885 78.7965H45.5435C45.6984 78.4876 45.6984 78.3331 45.6984 78.1786Z" fill="#FFFCF3"/>
<path d="M46.9362 77.0972C46.7812 77.0972 46.7813 76.9428 46.7813 76.9428C46.7813 76.9428 46.7813 76.9428 46.7813 76.7883H46.9362V76.4794C46.9362 76.4794 46.9362 76.4794 46.9362 76.3249L47.0911 76.1704V76.3249L47.4009 76.1704V76.3249C47.4009 76.4794 47.0911 76.4794 47.0911 76.4794V77.0972C47.0911 77.0972 47.0911 77.0972 47.0911 77.2517C47.0911 77.2517 47.0911 77.2517 47.246 77.2517H47.4009V77.4062L47.246 77.5606C47.0911 77.7151 46.9362 77.7151 46.9362 77.7151L46.7813 77.5606L46.9362 77.0972C47.0911 77.0972 46.9362 77.0972 46.9362 77.0972Z" fill="#FFFCF3"/>
<path d="M48.4868 77.0973L48.3319 77.2518C48.177 77.2518 48.0221 77.2518 48.0221 77.2518L47.8672 77.0973V76.6339C47.8672 76.4794 47.8672 76.4794 48.0221 76.3249C48.0221 76.1705 48.177 76.1704 48.3319 76.016L48.6417 75.8615C48.7966 75.707 48.9515 75.707 48.9515 75.707L49.1064 75.8615V76.3249C49.1064 76.4794 49.1064 76.4794 48.9515 76.6339C48.7966 76.9428 48.6417 76.9428 48.4868 77.0973ZM48.3319 76.9428C48.4868 76.7883 48.4868 76.7883 48.6417 76.7883C48.6417 76.7883 48.6417 76.7883 48.6417 76.6339V76.1704C48.6417 76.1704 48.6417 76.1704 48.6417 76.016C48.6417 76.016 48.6417 76.016 48.4868 76.016H48.3319C48.3319 76.016 48.177 76.016 48.177 76.1704C48.177 76.1704 48.177 76.1705 48.177 76.3249L48.3319 76.9428C48.177 76.9428 48.177 76.9428 48.3319 76.9428C48.177 76.9428 48.3319 76.9428 48.3319 76.9428Z" fill="#FFFCF3"/>
<path d="M50.4991 75.8616L50.1893 76.0161C50.0344 76.1706 49.8795 76.1706 49.8795 76.1706L49.7246 76.0161V75.2437C49.7246 75.0893 49.7246 75.0893 49.8795 74.9348C49.8795 74.7803 50.0344 74.7803 50.1893 74.6258L50.4991 74.4714C50.654 74.3169 50.809 74.3169 50.809 74.3169L50.9639 74.4714V74.6258C50.9639 74.6258 50.9639 74.6258 50.9639 74.7803L50.809 74.9348V74.7803C50.809 74.7803 50.809 74.7803 50.809 74.6258C50.809 74.6258 50.809 74.6258 50.654 74.6258L50.4991 74.7803C50.4991 74.7803 50.3442 74.7803 50.3442 74.9348C50.3442 74.9348 50.3442 74.9348 50.3442 75.0893V75.7071C50.3442 75.7071 50.3442 75.7071 50.3442 75.8616C50.3442 75.8616 50.3442 75.8616 50.4991 75.8616L50.654 75.7071C50.654 75.7071 50.809 75.7071 50.809 75.5527C50.809 75.5527 50.809 75.5527 50.809 75.3982V75.2437C50.809 75.2437 50.809 75.2437 50.809 75.0893L50.9639 74.9348V75.0893C50.9639 75.2437 50.9639 75.2437 50.809 75.3982C50.809 75.7071 50.654 75.8616 50.4991 75.8616Z" fill="#FFFCF3"/>
<path d="M51.5839 75.2437C51.4289 75.3982 51.274 75.3982 51.274 75.3982L51.1191 75.2437V74.7803C51.1191 74.6259 51.1191 74.6259 51.274 74.4714C51.274 74.3169 51.4289 74.3169 51.5839 74.1625L52.2035 73.8535V74.9348C52.2035 74.9348 52.2035 74.9348 52.2035 75.0893L52.0486 75.2437C51.8937 75.0893 51.8937 75.0893 51.5839 75.2437C51.7388 75.2437 51.7388 75.2437 51.5839 75.2437ZM51.8937 74.6259V74.1625L51.5839 74.3169C51.5839 74.3169 51.429 74.3169 51.429 74.4714C51.429 74.4714 51.429 74.4714 51.429 74.6259V75.0893C51.429 75.0893 51.429 75.0893 51.429 75.2437C51.429 75.2437 51.4289 75.2437 51.5839 75.2437H51.7388C51.8937 74.9348 51.8937 74.7803 51.8937 74.6259Z" fill="#FFFCF3"/>
<path d="M52.8229 74.6256L52.668 74.7801V73.6988C52.668 73.6988 52.668 73.6988 52.668 73.5443L52.8229 73.3898C52.9778 73.3898 52.9778 73.3898 52.9778 73.3898L53.1327 73.2354H53.2876V73.3898L52.9778 73.5443C52.8229 73.5443 52.8229 73.6988 52.8229 73.8532V74.6256C52.8229 74.4711 52.8229 74.6256 52.8229 74.6256Z" fill="#FFFCF3"/>
<path d="M53.442 73.2354C53.2871 73.2354 53.2871 73.081 53.2871 73.081C53.2871 73.081 53.2871 73.081 53.2871 72.9265H53.442V72.6175C53.442 72.6175 53.442 72.6175 53.442 72.4631L53.5969 72.3086V72.4631L53.9067 72.3086V72.4631L53.5969 72.6175V73.2354C53.5969 73.2354 53.5969 73.2354 53.5969 73.3899C53.5969 73.3899 53.5969 73.3899 53.7518 73.3899H53.9067V73.5444L53.7518 73.6988C53.5969 73.8533 53.442 73.8533 53.442 73.8533L53.2871 73.6988L53.442 73.2354Z" fill="#FFFCF3"/>
<path d="M42.4446 105.056L42.1348 105.211L42.4446 103.512C42.4446 103.512 42.4446 103.512 42.5995 103.357L42.9093 103.203C42.9093 103.203 42.9093 103.203 43.0642 103.203L43.5289 104.284L43.2191 104.438L43.0642 104.284L42.5995 104.593L42.4446 105.056ZM42.7544 103.666L42.5995 104.438L42.9093 104.284L42.7544 103.666Z" fill="#FFFCF3"/>
<path d="M44.1489 103.975C43.8391 104.129 43.8391 104.129 43.6842 104.129L43.5293 103.975V103.511C43.5293 103.357 43.5293 103.357 43.6842 103.202C43.6842 103.048 43.8391 103.048 43.994 102.893H44.1489H44.3038H44.4587V102.43C44.4587 102.43 44.4587 102.43 44.4587 102.276L44.6136 102.121V103.666C44.6136 103.666 44.6136 103.666 44.6136 103.82L44.4587 103.975C44.3038 103.82 44.3038 103.82 44.1489 103.975C44.3038 103.975 44.1489 103.975 44.1489 103.975ZM44.4587 103.511V103.202C44.4587 103.048 44.4587 103.048 44.3038 103.202H44.1489C44.1489 103.202 43.994 103.202 43.994 103.357C43.994 103.357 43.994 103.357 43.994 103.511V103.975C43.994 103.975 43.994 103.975 43.994 104.129C43.994 104.129 43.994 104.129 44.1489 104.129H44.3038C44.3038 103.666 44.4587 103.511 44.4587 103.511Z" fill="#FFFCF3"/>
<path d="M45.5435 103.202C45.2336 103.357 45.2336 103.357 45.0787 103.357L44.9238 103.202V102.739C44.9238 102.584 44.9238 102.584 45.0787 102.43C45.0787 102.275 45.2336 102.275 45.3885 102.121H45.5435H45.6984H45.8533V101.658C45.8533 101.658 45.8533 101.658 45.8533 101.503L46.0082 101.349V102.893C46.0082 102.893 46.0082 102.893 46.0082 103.048L45.8533 103.202C45.6984 103.048 45.6984 103.048 45.5435 103.202ZM45.6984 102.584V102.275C45.6984 102.121 45.6984 102.121 45.5435 102.275H45.3885C45.3885 102.275 45.2336 102.275 45.2336 102.43C45.2336 102.43 45.2336 102.43 45.2336 102.584V103.048C45.2336 103.048 45.2336 103.048 45.2336 103.202C45.2336 103.202 45.2336 103.202 45.3885 103.202H45.5435C45.6984 102.893 45.6984 102.739 45.6984 102.584Z" fill="#FFFCF3"/>
<path d="M46.9362 101.503C46.7812 101.503 46.7813 101.349 46.7813 101.349C46.7813 101.349 46.7813 101.349 46.7813 101.195H46.9362V100.886C46.9362 100.886 46.9362 100.886 46.9362 100.731L47.0911 100.577V100.731L47.4009 100.577V100.731L47.0911 100.886V101.503C47.0911 101.503 47.0911 101.503 47.0911 101.658C47.0911 101.658 47.0911 101.658 47.246 101.658H47.4009V101.812L47.246 101.967C47.0911 102.121 46.9362 102.121 46.9362 102.121L46.7813 101.967L46.9362 101.503C47.0911 101.503 46.9362 101.503 46.9362 101.503Z" fill="#FFFCF3"/>
<path d="M48.4855 101.503L48.1757 101.658C48.0207 101.812 47.8658 101.812 47.8658 101.812L47.7109 101.658V101.194C47.7109 101.04 47.7109 101.04 47.8658 100.885C47.8658 100.731 48.0207 100.731 48.1757 100.577L48.4855 100.422C48.6404 100.268 48.7953 100.268 48.7953 100.268L48.9502 100.422V100.885C48.9502 101.04 48.9502 101.04 48.7953 101.194C48.7953 101.349 48.6404 101.349 48.4855 101.503ZM48.3306 101.349C48.4855 101.194 48.4855 101.194 48.6404 101.194C48.6404 101.194 48.6404 101.194 48.6404 101.04V100.577C48.6404 100.577 48.6404 100.577 48.6404 100.422C48.6404 100.422 48.6404 100.422 48.4855 100.422H48.3306C48.3306 100.422 48.1757 100.422 48.1757 100.577C48.1757 100.577 48.1757 100.577 48.1757 100.731L48.3306 101.349C48.1757 101.349 48.1757 101.349 48.3306 101.349C48.1757 101.349 48.3306 101.349 48.3306 101.349Z" fill="#FFFCF3"/>
<path d="M50.4991 100.267L50.1893 100.422C50.0344 100.576 49.8795 100.576 49.8795 100.576L49.7246 100.422V99.6495C49.7246 99.495 49.7246 99.3405 49.8795 99.3405C49.8795 99.1861 50.0344 99.1861 50.1893 99.0316L50.4991 98.8771C50.654 98.7227 50.809 98.7227 50.809 98.7227L50.9639 98.8771V99.0316C50.9639 99.0316 50.9639 99.0316 50.9639 99.1861L50.809 99.3405V99.1861C50.809 99.1861 50.809 99.1861 50.809 99.0316C50.809 99.0316 50.809 99.0316 50.654 99.0316L50.4991 99.1861C50.4991 99.1861 50.3442 99.1861 50.3442 99.3405C50.3442 99.3405 50.3442 99.3405 50.3442 99.495V100.113C50.3442 100.113 50.3442 100.113 50.3442 100.267C50.3442 100.267 50.3442 100.267 50.4991 100.267L50.654 100.113C50.654 100.113 50.809 100.113 50.809 99.9584C50.809 99.9584 50.809 99.9584 50.809 99.804V99.6495C50.809 99.6495 50.809 99.6495 50.809 99.495L50.9639 99.3405V99.495C50.9639 99.6495 50.9639 99.6495 50.809 99.804C50.809 100.113 50.654 100.267 50.4991 100.267Z" fill="#FFFCF3"/>
<path d="M51.5839 99.6495C51.4289 99.804 51.274 99.804 51.274 99.804L51.1191 99.6495V99.1861C51.1191 99.0316 51.1191 99.0316 51.274 98.8772C51.274 98.7227 51.4289 98.7227 51.5839 98.5682L52.2035 98.2593V99.3406C52.2035 99.3406 52.2035 99.3406 52.2035 99.4951L52.0486 99.6495C51.8937 99.4951 51.8937 99.4951 51.5839 99.6495C51.7388 99.6495 51.7388 99.6495 51.5839 99.6495ZM51.8937 99.0316V98.5682L51.5839 98.7227C51.5839 98.7227 51.429 98.7227 51.429 98.8772C51.429 98.8772 51.429 98.8772 51.429 99.0316V99.4951C51.429 99.4951 51.429 99.4951 51.429 99.6495C51.429 99.6495 51.4289 99.6495 51.5839 99.6495H51.7388C51.8937 99.3406 51.8937 99.1861 51.8937 99.0316Z" fill="#FFFCF3"/>
<path d="M52.8229 99.0318L52.668 99.1863V98.105C52.668 98.105 52.668 98.105 52.668 97.9505L52.8229 97.7961C52.9778 97.7961 52.9778 97.7961 52.9778 97.7961L53.1327 97.6416H53.2876V97.7961L52.9778 97.9505C52.8229 97.9505 52.8229 98.105 52.8229 98.2595V99.0318Z" fill="#FFFCF3"/>
<path d="M53.442 97.796C53.2871 97.796 53.2871 97.6415 53.2871 97.6415C53.2871 97.6415 53.2871 97.6415 53.2871 97.487H53.442V97.1781C53.442 97.1781 53.442 97.1781 53.442 97.0236L53.5969 96.8691V97.0236L53.9067 96.8691V97.0236L53.5969 97.1781V97.796C53.5969 97.796 53.5969 97.796 53.5969 97.9504C53.5969 97.9504 53.5969 97.9504 53.7518 97.9504H53.9067V98.1049L53.7518 98.2594C53.5969 98.4139 53.442 98.4139 53.442 98.4139L53.2871 98.2594L53.442 97.796C53.442 97.6415 53.442 97.6415 53.442 97.796Z" fill="#FFFCF3"/>
<path d="M54.5274 24.5767L32.9956 36.9344C31.9112 37.5523 31.1367 38.9425 31.1367 40.1783V49.6011C31.1367 50.8369 31.9112 51.3003 32.9956 50.6824L54.5274 38.3247C55.6118 37.7068 56.3863 36.3165 56.3863 35.0808V25.658C56.3863 24.4222 55.6118 23.9588 54.5274 24.5767Z" fill="#BAC1C6"/>
<path d="M36.5594 53.4631L35.3202 52.6907C35.0104 52.5363 34.8555 52.0728 34.8555 51.6094V42.1867C34.8555 40.9509 35.63 39.5606 36.7143 38.9428L58.2462 26.585C58.7109 26.2761 59.1756 26.2761 59.4854 26.4306L60.7247 27.2029L36.5594 53.4631Z" fill="#DFDCE0"/>
<path d="M59.3302 27.2029L37.7983 39.5606C36.714 40.1785 35.9395 41.5687 35.9395 42.8045V52.2273C35.9395 53.463 36.714 53.9264 37.7983 53.3086L59.3302 40.9508C60.4145 40.3329 61.189 38.9427 61.189 37.7069V28.2842C61.189 27.2029 60.2596 26.7394 59.3302 27.2029Z" fill="#E11A7D"/>
<path d="M40.1211 48.3652V41.7229C40.1211 41.5684 40.1211 41.414 40.276 41.414L42.5996 40.0237C43.0643 39.7148 43.529 39.7148 43.8388 39.8693C44.1486 40.0237 44.3035 40.3327 44.3035 40.9506V41.414C44.3035 42.0319 43.9937 42.6497 43.529 43.1132C43.8388 42.9587 43.9937 42.9587 44.1486 43.1132C44.3035 43.2676 44.3035 43.4221 44.3035 43.8855V44.5034C44.3035 45.1213 44.1486 45.5847 43.8388 46.0481C43.529 46.5115 43.2192 46.8205 42.7545 47.1294L40.4309 48.5197C40.276 48.5197 40.1211 48.5197 40.1211 48.3652ZM41.5152 43.5766L42.4447 42.9587C42.5996 42.8042 42.7545 42.6497 42.9094 42.4953C43.0643 42.3408 43.0643 42.1863 43.0643 41.8774V41.414C43.0643 41.2595 43.0643 41.105 42.9094 40.9506C42.7545 40.9506 42.5996 40.9506 42.4447 41.105L41.5152 41.7229L41.3603 41.8774L41.5152 43.5766C41.3603 43.5766 41.3603 43.5766 41.5152 43.5766ZM41.5152 46.666L42.5996 46.0481C42.7545 45.8936 42.9094 45.7392 43.0643 45.5847C43.2192 45.4302 43.2192 45.2758 43.2192 44.9668V44.3489C43.2192 44.1945 43.2192 44.04 43.0643 43.8855C42.9094 43.8855 42.7545 43.8855 42.5996 44.04L41.5152 44.6579L41.3603 44.8123L41.5152 46.666C41.3603 46.666 41.3603 46.666 41.5152 46.666ZM48.6409 36.6254L49.4154 36.1619C49.5703 36.0075 49.5703 36.1619 49.5703 36.3164V41.414C49.5703 42.0319 49.4154 42.4953 49.1056 42.9587C48.7958 43.4221 48.486 43.731 48.0213 44.04L46.9369 44.6579C46.4722 44.8123 46.1624 44.9668 45.8526 44.8123C45.5428 44.6579 45.3879 44.3489 45.3879 43.731V38.6335C45.3879 38.479 45.3879 38.3245 45.5428 38.3245L46.3173 37.8611C46.4722 37.8611 46.4722 37.8611 46.4722 38.0156V42.9587C46.4722 43.2676 46.4722 43.2676 46.6271 43.4221C46.782 43.4221 46.782 43.4221 47.0918 43.2676L47.7115 42.9587C47.8664 42.8042 48.0213 42.6497 48.1762 42.4953C48.3311 42.3408 48.3311 42.1863 48.3311 41.8774V36.9343C48.486 36.7798 48.486 36.6254 48.6409 36.6254ZM53.1331 41.105L52.3586 41.5684C52.2037 41.5684 52.2037 41.5684 52.2037 41.414V39.0969L50.4998 35.853V35.6985C50.4998 35.6985 50.4998 35.5441 50.6547 35.5441L51.739 34.9262C51.8939 34.9262 51.8939 34.9262 51.8939 35.0806L52.8233 37.2432L53.7528 33.9993C53.7528 33.8449 53.9077 33.6904 53.9077 33.6904L54.992 33.0725H55.1469V33.227L53.443 38.479V40.7961C53.2881 40.9506 53.2881 40.9506 53.1331 41.105ZM55.6116 34.4628V32.7636C55.6116 32.6091 55.6116 32.4546 55.7665 32.4546L56.696 31.9912C56.8509 31.9912 56.8509 31.9912 56.8509 32.1457V33.8449C56.8509 34.1538 56.8509 34.4628 56.8509 34.9262C56.8509 35.2351 56.8509 35.5441 56.8509 35.6985C56.8509 35.853 56.8509 36.0075 56.8509 36.1619C56.8509 36.3164 56.8509 36.3164 56.8509 36.3164C56.8509 36.4709 56.696 36.6254 56.696 36.6254L56.0763 36.9343C55.9214 36.9343 55.9214 36.9343 55.9214 36.7798C55.9214 36.7798 55.9214 36.7798 55.9214 36.6254C55.9214 36.4709 55.9214 36.3164 55.9214 36.1619C55.9214 36.0075 55.9214 35.853 55.9214 35.5441C55.6116 35.0806 55.6116 34.7717 55.6116 34.4628ZM56.8509 37.2432V38.6335C56.8509 38.788 56.8509 38.9424 56.696 38.9424L55.9214 39.4058C55.7665 39.4058 55.7665 39.4058 55.7665 39.2514V37.8611C55.7665 37.7067 55.7665 37.5522 55.9214 37.5522L56.696 37.0888C56.8509 37.0888 56.8509 37.2432 56.8509 37.2432Z" fill="#FFFCF3"/>
<path d="M4.02648 54.853L3.71667 55.0075C3.56176 55.0075 3.56176 55.1619 3.40686 55.0075L3.25195 54.853V53.9261C3.25195 53.7717 3.25195 53.6172 3.40686 53.6172C3.40686 53.4627 3.56176 53.4627 3.71667 53.3083L4.02648 53.1538C4.18139 53.1538 4.18139 52.9993 4.33629 53.1538L4.4912 53.3083V54.2351C4.4912 54.3896 4.4912 54.3896 4.33629 54.544C4.33629 54.6985 4.18139 54.6985 4.02648 54.853ZM3.87157 54.853L4.18139 54.6985C4.33629 54.544 4.33629 54.544 4.33629 54.3896V53.4627C4.33629 53.3083 4.33629 53.3083 4.18139 53.3083L3.87157 53.4627C3.71667 53.6172 3.71667 53.6172 3.71667 53.7717V54.6985C3.56176 54.853 3.71667 54.853 3.87157 54.853ZM4.95591 54.3896C4.80101 54.3896 4.80101 53.1538 4.80101 53.1538L4.95591 52.9993V53.1538C4.95591 53.1538 4.95591 52.9993 5.11082 52.9993L5.26572 52.8448H5.42063V52.9993L5.26572 53.1538L5.11082 53.3083V53.4627L4.95591 54.3896C4.95591 54.2351 4.95591 54.2351 4.95591 54.3896ZM6.19515 53.6172C5.88534 53.7717 5.88534 53.7717 5.73044 53.7717C5.57553 53.7717 5.57553 53.6172 5.57553 53.6172V52.9993C5.57553 52.8448 5.57553 52.6904 5.73044 52.6904C5.73044 52.5359 5.88534 52.5359 6.04025 52.3814H6.19515C6.35006 52.3814 6.35006 52.227 6.50497 52.3814V51.7635L6.65987 51.6091V53.3083L6.50497 53.4627V53.3083C6.35006 53.4627 6.35006 53.6172 6.19515 53.6172ZM6.35006 53.1538V52.5359V52.3814H6.19515L6.04025 52.5359C5.88534 52.6904 5.88534 52.6904 5.88534 52.8448V53.3083C5.88534 53.4627 5.88534 53.4627 6.04025 53.4627H6.19515L6.35006 53.3083V53.1538ZM7.89911 52.6904L7.4344 52.9993C7.27949 52.9993 7.27949 53.1538 7.12459 52.9993L6.96968 52.8448V52.227C6.96968 52.0725 6.96968 51.918 7.12459 51.918C7.12459 51.7635 7.27949 51.7635 7.4344 51.6091L7.5893 51.4546C7.74421 51.4546 7.74421 51.3001 7.89911 51.4546L8.05402 51.6091V51.918L7.27949 52.3814V52.5359C7.27949 52.6904 7.27949 52.6904 7.4344 52.6904L7.89911 52.5359V52.6904ZM7.12459 52.3814L7.74421 52.0725V51.7635C7.74421 51.6091 7.74421 51.6091 7.5893 51.6091L7.4344 51.7635C7.27949 51.918 7.27949 51.918 7.27949 52.0725L7.12459 52.3814ZM8.36383 52.3814C8.20892 52.3814 8.20892 51.1457 8.20892 51.1457L8.36383 50.9912V51.1457C8.36383 51.1457 8.36383 50.9912 8.51873 50.9912L8.67364 50.8367H8.82855V50.9912L8.67364 51.1457L8.51873 51.3001V51.4546L8.36383 52.3814ZM9.75798 50.3733C9.60307 50.3733 9.60307 50.3733 9.60307 50.3733L9.75798 50.2188V49.9099L9.91288 49.7554V50.0644L10.2227 49.9099V50.0644L9.91288 50.2188V50.9912C9.91288 51.1457 9.91288 51.1457 10.0678 51.1457H10.2227V51.3001L10.0678 51.4546C9.91288 51.4546 9.91288 51.6091 9.75798 51.4546L9.60307 51.3001L9.75798 50.3733ZM11.1521 50.8367H10.8423C10.8423 50.9912 10.6874 50.9912 10.6874 50.9912L10.5325 50.8367V50.2188C10.5325 50.0644 10.5325 49.9099 10.6874 49.9099C10.6874 49.7554 10.8423 49.7554 10.9972 49.6009L11.1521 49.4465C11.307 49.4465 11.307 49.292 11.4619 49.4465L11.6168 49.6009V50.2188C11.6168 50.3733 11.6168 50.5278 11.4619 50.5278C11.307 50.6822 11.307 50.6822 11.1521 50.8367ZM10.9972 50.6822L11.1521 50.5278C11.307 50.3733 11.307 50.3733 11.307 50.2188V49.6009C11.307 49.4465 11.307 49.4465 11.1521 49.4465L10.9972 49.6009C10.8423 49.7554 10.8423 49.7554 10.8423 49.9099V50.5278C10.6874 50.8367 10.8423 50.8367 10.9972 50.6822ZM11.9267 49.1375C11.7717 49.1375 11.7717 49.1375 11.7717 49.1375L11.9267 48.9831V48.6741L12.0816 48.5196V48.8286L12.3914 48.6741V48.8286L12.0816 48.9831V49.7554C12.0816 49.9099 12.0816 49.9099 12.2365 49.9099H12.3914V50.0644L12.2365 50.2188C12.0816 50.2188 12.0816 50.3733 11.9267 50.2188L11.7717 50.0644L11.9267 49.1375ZM13.1659 49.6009C12.8561 49.7554 12.8561 49.7554 12.7012 49.7554L12.5463 49.6009V48.9831C12.5463 48.8286 12.5463 48.6741 12.7012 48.6741C12.7012 48.5196 12.8561 48.5196 13.011 48.3652L13.6306 48.0562V49.292L13.4757 49.4465V49.292C13.4757 49.4465 13.3208 49.4465 13.1659 49.6009ZM13.4757 48.9831V48.2107L13.1659 48.3652C13.011 48.5196 13.011 48.5196 13.011 48.6741V49.4465C13.011 49.6009 13.011 49.6009 13.1659 49.6009V49.4465L13.3208 49.292C13.4757 49.1375 13.4757 49.1375 13.4757 48.9831ZM14.2502 48.9831C14.0953 48.9831 14.0953 47.2839 14.0953 47.2839L14.2502 47.1294C14.2502 47.2839 14.2502 48.9831 14.2502 48.9831Z" fill="#968EA0"/>
<path d="M19.9824 45.1211C19.9824 45.739 19.5177 46.6658 18.7431 46.9748C18.1235 47.2837 17.5039 47.1292 17.5039 46.5114C17.5039 45.8935 17.9686 44.9666 18.7431 44.6577C19.5177 44.1943 19.9824 44.5032 19.9824 45.1211Z" fill="#968EA0"/>
<path d="M19.6727 45.121L19.0531 45.5844V44.812L18.7433 45.121V45.7388L17.9688 46.2023V46.5112L18.7433 46.0478V46.8201L19.0531 46.6657V45.8933L19.6727 45.4299V45.121Z" fill="#DCE1E4"/>
<path d="M21.0664 45.2757V43.5765L21.686 43.1131C21.8409 43.1131 21.8409 42.9586 21.9958 43.1131C21.9958 43.1131 22.1507 43.2676 22.1507 43.422V44.3489C22.1507 44.5033 22.1507 44.6578 21.9958 44.6578C21.9958 44.8123 21.8409 44.8123 21.686 44.9667L21.0664 45.2757ZM21.3762 44.9667L21.8409 44.6578C21.9958 44.5033 21.9958 44.5033 21.9958 44.3489V43.422C21.9958 43.2676 21.9958 43.2676 21.8409 43.2676L21.3762 43.5765C21.2213 43.731 21.2213 44.9667 21.3762 44.9667C21.2213 44.9667 21.3762 44.9667 21.3762 44.9667Z" fill="#968EA0"/>
<path d="M23.5453 43.8857L22.9257 44.1946C22.7707 44.1946 22.7707 44.3491 22.6158 44.1946C22.6158 44.1946 22.4609 44.0401 22.4609 43.8857V43.2678C22.4609 43.1133 22.4609 42.9588 22.6158 42.9588C22.6158 42.8044 22.7707 42.8044 22.9257 42.6499L23.0806 42.4954C23.2355 42.4954 23.2355 42.3409 23.3904 42.4954C23.5453 42.6499 23.5453 42.6499 23.5453 42.8044V43.1133L22.7707 43.5767V43.7312C22.7707 43.8857 22.7707 43.8857 22.9257 43.8857L23.5453 43.5767C23.5453 43.7312 23.5453 43.8857 23.5453 43.8857ZM22.7707 43.5767L23.3904 43.2678V42.9588C23.3904 42.8044 23.3904 42.8044 23.2355 42.8044L23.0806 42.9588C22.9257 43.1133 22.9257 43.1133 22.9257 43.2678L22.7707 43.5767Z" fill="#968EA0"/>
<path d="M23.8541 42.4953C23.6992 42.4953 23.6992 42.4953 23.6992 42.4953L23.8541 42.3409V42.0319L24.009 41.8774V42.1864L24.3188 42.0319V42.1864L24.009 42.3409V43.1132C24.009 43.2677 24.1639 43.2677 24.3188 43.2677H24.4737V43.4222L24.3188 43.5766C24.1639 43.5766 24.1639 43.7311 24.009 43.5766L23.8541 43.4222V42.4953C24.009 42.4953 24.009 42.4953 23.8541 42.4953Z" fill="#968EA0"/>
<path d="M25.2485 42.959C24.9387 43.1134 24.9387 43.1134 24.7838 43.1134C24.7838 43.1134 24.6289 42.959 24.6289 42.8045V42.1866C24.6289 42.0321 24.6289 41.8777 24.7838 41.8777C24.9387 41.8777 24.9387 41.7232 25.0936 41.5687L25.7132 41.2598V42.65L25.5583 42.8045V42.65C25.5583 42.8045 25.4034 42.8045 25.2485 42.959ZM25.5583 42.3411V41.5687L25.0936 41.7232C24.9387 41.8777 24.9387 41.8777 24.9387 42.0321V42.65C24.9387 42.8045 24.9387 42.8045 25.0936 42.8045L25.2485 42.65C25.4034 42.65 25.4034 42.4955 25.4034 42.4955C25.5583 42.4955 25.5583 42.3411 25.5583 42.3411Z" fill="#968EA0"/>
<path d="M26.1777 40.7959V40.487L26.3326 40.3325V40.6415C26.3326 40.7959 26.1777 40.7959 26.1777 40.7959ZM26.1777 42.3406V41.1049L26.3326 40.9504V42.3406H26.1777Z" fill="#968EA0"/>
<path d="M26.9537 42.0321C26.7988 42.0321 26.7988 40.1784 26.7988 40.1784L26.9537 40.0239C26.9537 40.0239 26.9537 41.8776 26.9537 42.0321C26.9537 41.8776 26.9537 42.0321 26.9537 42.0321Z" fill="#968EA0"/>
<path d="M27.8813 41.414L27.2617 41.723V41.5685C27.2617 41.5685 27.7264 41.2596 27.8813 41.414C28.0362 41.1051 28.0362 41.1051 28.0362 40.9506C28.0362 40.7961 28.0362 40.7961 27.8813 40.7961H27.5715C27.4166 40.7961 27.4166 40.7961 27.4166 40.7961V40.6417C27.4166 40.4872 27.5715 40.1783 27.7264 40.0238L28.1912 39.7148V39.8693L27.7264 40.1783L27.5715 40.3327V40.4872C27.5715 40.6417 27.5715 40.6417 27.7264 40.6417H28.0362C28.1912 40.6417 28.1912 40.6417 28.1912 40.6417V40.7961C28.1912 41.1051 28.0362 41.2596 27.8813 41.414Z" fill="#968EA0"/>
<path d="M4.4912 59.9507L4.18139 60.1052H4.02648V59.7962C3.71667 59.9507 3.56176 59.9507 3.40686 59.9507C3.25195 59.9507 3.25195 59.7962 3.25195 59.4873V59.3328C3.25195 59.3328 3.25195 59.1783 3.40686 59.1783L3.71667 59.0239H3.87157C3.87157 59.1784 3.87157 59.1783 3.87157 59.1783C3.87157 59.1783 4.02648 59.1784 4.18139 59.0239L4.33629 58.8694C4.6461 58.8694 4.6461 58.8694 4.6461 58.7149C4.6461 58.7149 4.6461 58.5605 4.6461 58.406C4.6461 58.2515 4.6461 58.2515 4.6461 58.2515H4.4912C4.4912 58.2515 4.33629 58.2515 4.18139 58.406C4.02648 58.406 3.87157 58.5605 3.87157 58.5605C3.71667 58.5605 3.71667 58.5605 3.56176 58.5605C3.40686 58.5605 3.25195 58.406 3.25195 58.097V57.9426C3.25195 57.6336 3.25195 57.4792 3.40686 57.3247C3.56176 57.1702 3.71667 57.0157 3.87157 56.8613V56.5523C3.87157 56.5523 3.87157 56.3979 4.02648 56.3979L4.33629 56.2434H4.4912V56.5523C4.6461 56.3979 4.95591 56.3979 4.95591 56.3979C5.11082 56.3979 5.11082 56.5523 5.11082 56.8613V57.0157C5.11082 57.0157 5.11082 57.1702 4.95591 57.1702L4.6461 57.3247H4.4912C4.4912 57.1702 4.4912 57.1702 4.4912 57.0157C4.4912 57.0157 4.33629 57.0157 4.18139 57.1702H4.33629C4.18139 57.1702 4.18139 57.3247 4.02648 57.3247C4.02648 57.3247 4.02648 57.4792 4.02648 57.6336V57.7881V57.9426H4.18139C4.18139 57.9426 4.33629 57.9426 4.4912 57.7881C4.6461 57.7881 4.80101 57.6336 4.80101 57.6336C4.95591 57.6336 4.95591 57.6336 5.11082 57.6336C5.26572 57.6336 5.42063 57.7881 5.42063 58.097V58.2515C5.42063 58.5605 5.42063 58.7149 5.26572 58.8694C5.11082 59.0239 4.95591 59.1784 4.80101 59.3328C4.6461 59.3328 4.6461 59.7962 4.4912 59.9507C4.6461 59.7962 4.6461 59.7962 4.4912 59.9507ZM5.73044 58.5605V58.097C5.73044 57.9426 5.73044 57.7881 5.88534 57.4792L6.65987 56.2434C6.81478 56.0889 6.81478 55.9344 6.81478 55.78V55.6255C6.81478 55.471 6.81478 55.471 6.81478 55.471H6.65987L6.50496 55.6255C6.35006 55.6255 6.35006 55.78 6.35006 55.78C6.35006 55.78 6.35006 55.9344 6.35006 56.0889V56.2434C6.35006 56.2434 6.35006 56.3979 6.19515 56.3979L5.88534 56.5523H5.73044V56.3979C5.73044 56.0889 5.73044 55.9344 5.88534 55.78C6.04025 55.6255 6.19515 55.471 6.50496 55.3166L6.81478 55.1621C7.12459 55.0076 7.27949 55.0076 7.4344 55.0076C7.5893 55.0076 7.5893 55.1621 7.5893 55.471V55.6255C7.5893 55.9344 7.4344 56.0889 7.27949 56.3979L6.50496 57.6336V57.7881L7.5893 57.1702H7.74421V57.4792C7.74421 57.4792 7.74421 57.6336 7.5893 57.6336L5.73044 58.5605C5.73044 58.7149 5.88534 58.7149 5.73044 58.5605ZM9.29326 56.7068L8.82855 57.0157C8.51873 57.1702 8.36383 57.1702 8.20892 57.1702C8.05402 57.1702 8.05402 57.0157 8.05402 56.7068V55.3166C8.05402 55.0076 8.05402 54.8531 8.20892 54.6987C8.36383 54.5442 8.51873 54.3897 8.82855 54.2353L9.29326 53.7718C9.60307 53.6174 9.75798 53.6174 9.91288 53.6174C10.0678 53.6174 10.0678 53.7718 10.0678 54.0808V55.6255C10.0678 55.9344 10.0678 56.0889 9.91288 56.2434C9.60307 56.3979 9.44817 56.5523 9.29326 56.7068ZM8.82855 56.3979L9.13836 56.2434C9.29326 56.2434 9.29326 56.2434 9.29326 56.0889C9.29326 56.0889 9.29326 55.9344 9.29326 55.78V54.3897C9.29326 54.2353 9.29326 54.2353 9.29326 54.2353H9.13836L8.82855 54.3897C8.67364 54.3897 8.67364 54.5442 8.67364 54.5442C8.67364 54.5442 8.67364 54.6987 8.67364 54.8531V56.2434C8.67364 56.3979 8.67364 56.3979 8.67364 56.3979C8.67364 56.5523 8.82855 56.5523 8.82855 56.3979ZM11.6168 55.3166L11.1521 55.6255C10.8423 55.78 10.6874 55.78 10.5325 55.78C10.3776 55.78 10.3776 55.6255 10.3776 55.3166V53.9263C10.3776 53.6174 10.3776 53.4629 10.5325 53.3084C10.6874 53.154 10.8423 52.9995 11.1521 52.845L11.6168 52.5361C11.9267 52.3816 12.0816 52.3816 12.2365 52.3816C12.3914 52.3816 12.3914 52.5361 12.3914 52.6905V54.0808C12.3914 54.3897 12.3914 54.5442 12.2365 54.6987C12.0816 55.0076 11.9267 55.1621 11.6168 55.3166ZM11.307 55.0076L11.6168 54.8531C11.7717 54.8531 11.7717 54.6987 11.7717 54.6987C11.7717 54.6987 11.7717 54.5442 11.7717 54.3897V52.9995C11.7717 52.845 11.7717 52.845 11.7717 52.845H11.6168L11.307 52.9995C11.1521 52.9995 11.1521 53.154 11.1521 53.154C11.1521 53.154 11.1521 53.3084 11.1521 53.4629V54.8531C11.1521 55.0076 11.1521 55.0076 11.1521 55.0076C11.1521 55.1621 11.1521 55.1621 11.307 55.0076ZM13.3208 53.7718V54.3897C13.3208 54.3897 13.3208 54.5442 13.1659 54.5442L12.7012 54.6987H12.5463V54.0808C12.5463 54.0808 12.5463 53.9263 12.7012 53.9263L13.3208 53.7718C13.3208 53.6174 13.3208 53.6174 13.3208 53.7718ZM15.0248 53.4629L14.56 53.7718C14.2502 53.9263 14.0953 53.9263 13.9404 53.9263C13.7855 53.9263 13.7855 53.7718 13.7855 53.4629V52.0727C13.7855 51.7637 13.7855 51.6092 13.9404 51.4548C14.0953 51.3003 14.2502 51.1458 14.56 50.9914L15.0248 50.6824C15.3346 50.5279 15.4895 50.5279 15.6444 50.5279C15.7993 50.5279 15.7993 50.6824 15.7993 50.9914V52.3816C15.7993 52.6905 15.7993 52.845 15.6444 52.9995C15.3346 53.154 15.1797 53.3084 15.0248 53.4629ZM14.56 53.154L14.8699 52.9995C15.0248 52.9995 15.0248 52.845 15.0248 52.845C15.0248 52.845 15.0248 52.6905 15.0248 52.5361V51.1458C15.0248 50.9914 15.0248 50.9914 15.0248 50.9914H14.8699L14.56 51.1458C14.4051 51.1458 14.4051 51.3003 14.4051 51.3003C14.4051 51.3003 14.4051 51.4548 14.4051 51.6092V52.9995C14.4051 53.154 14.4051 53.154 14.4051 53.154H14.56ZM17.3483 52.0727L16.8836 52.3816C16.5738 52.5361 16.4189 52.5361 16.264 52.5361C16.1091 52.5361 16.1091 52.3816 16.1091 52.0727V50.6824C16.1091 50.3735 16.1091 50.219 16.264 50.0645C16.4189 49.9101 16.5738 49.7556 16.8836 49.6011L17.3483 49.2922C17.6581 49.1377 17.8131 49.1377 17.968 49.1377C18.1229 49.1377 18.1229 49.2922 18.1229 49.6011V50.9914C18.1229 51.3003 18.1229 51.4548 17.968 51.6092C17.8131 51.7637 17.6581 51.9182 17.3483 52.0727ZM17.0385 51.7637L17.3483 51.6092C17.5032 51.6092 17.5032 51.4548 17.5032 51.4548C17.5032 51.4548 17.5032 51.3003 17.5032 51.1458V49.7556C17.5032 49.6011 17.5032 49.6011 17.5032 49.6011H17.3483L17.0385 49.7556C16.8836 49.7556 16.8836 49.9101 16.8836 49.9101C16.8836 49.9101 16.8836 50.0645 16.8836 50.219V51.6092C16.8836 51.7637 16.8836 51.7637 16.8836 51.7637C16.8836 51.7637 16.8836 51.7637 17.0385 51.7637Z" fill="#E11A7D"/>
<path d="M10.377 60.4138L12.0809 59.487V59.9504L10.377 60.8773V60.4138ZM8.20832 64.739L5.57492 66.2838V66.7472L8.67303 65.048L9.75737 64.4301V63.9667L8.20832 64.739ZM10.5319 62.2675V61.8041L9.29265 62.5764L8.51813 63.0399V63.5033L9.29265 63.0399L10.5319 62.2675ZM7.7436 63.3488L5.57492 64.5846V65.048L7.7436 63.8122V63.3488ZM8.82794 61.6496L9.75737 61.1862V60.7228L8.20832 61.6496L5.72983 63.0399V63.5033L8.82794 61.6496ZM6.34945 61.4951L8.51813 60.2594V59.796L6.50436 61.0317L5.88474 61.4951V61.9586L6.34945 61.4951ZM10.5319 59.1781L11.1515 58.7147V58.2512L10.2221 58.7147L8.98284 59.487V59.9504L10.5319 59.1781ZM12.0809 62.5764L10.377 63.5033V63.9667L12.0809 63.0399V62.5764ZM16.883 59.796L15.334 60.7228V61.1862L16.883 60.2594V59.796ZM16.883 55.0073L15.9536 55.6252V56.0886L16.883 55.6252V55.0073ZM15.334 55.9342L14.5594 56.3976V56.861L15.334 56.3976V55.9342ZM16.883 56.5521L15.334 57.4789V57.9423L16.883 57.0155V56.5521ZM14.5594 59.487L13.9398 59.796V60.2594L14.5594 59.9504V59.487ZM15.1791 59.487L16.883 58.5602V58.0968L15.1791 59.0236V59.487ZM28.1911 53.3081L27.5715 53.6171V54.0805L28.1911 53.7716V53.3081ZM28.1911 48.5195L27.2617 48.9829V49.4464L28.1911 48.9829V48.5195ZM28.1911 50.0642L27.5715 50.3732V50.8366L28.1911 50.5277V50.0642ZM27.4166 52.0724V52.5358L28.1911 52.0724V51.609L27.4166 52.0724ZM3.40625 67.8285L4.02587 67.3651V66.9016L3.40625 67.3651V67.8285ZM3.40625 63.1943L3.87097 62.8854V62.422L3.40625 62.7309V63.1943ZM3.40625 64.739L4.18078 64.2756V63.8122L3.40625 64.2756V64.739ZM3.40625 65.9748V66.4382L3.87097 66.1293V65.6659L3.40625 65.9748Z" fill="#968EA0"/>
<path d="M78.0723 150.301C78.0723 150.147 78.0723 149.992 78.0723 149.838C78.0723 147.829 78.0723 145.976 78.2272 143.968C76.833 143.659 75.4389 143.35 74.0447 143.195L69.7074 143.813C68.3132 146.13 58.864 144.895 58.3993 148.293C57.6248 151.382 66.9191 151.537 68.3132 151.228C69.3976 151.073 71.1015 150.764 71.876 150.61C71.876 150.764 78.0723 150.455 78.0723 150.301Z" fill="#F5F5F5"/>
<path d="M86.7476 130.529L77.1435 128.057C75.7493 128.521 74.9748 130.838 75.2846 132.228C75.4395 132.691 80.2416 134.236 81.7906 134.699C83.0299 135.008 84.7338 135.008 85.9731 134.39C86.128 134.236 86.7476 134.082 86.7476 133.618C86.7476 133.618 86.7476 130.992 86.7476 130.529Z" fill="#F5F5F5"/>
<path d="M84.5788 134.545C83.4944 134.7 82.4101 134.7 81.3258 134.391C79.9316 134.082 78.3826 133.618 77.4531 133L77.9178 134.545C79.1571 135.009 82.2552 135.781 82.8748 135.781C85.6631 135.935 86.4376 135.163 86.5925 134.854C86.5925 134.7 86.7474 134.7 86.7474 134.545V133.464C86.7474 133.464 86.7474 134.236 84.5788 134.545Z" fill="#E58D2E"/>
<path d="M78.0726 149.838C77.7627 150.147 73.2705 150.61 72.1861 150.61C66.9194 151.073 64.1311 150.919 61.9624 150.765C61.033 150.765 59.9486 150.456 59.1741 149.838C58.7094 149.374 58.2447 148.911 58.3996 148.293C58.2447 148.756 58.0898 149.22 58.3996 149.838C58.8643 150.765 59.6388 151.382 60.5682 151.691C63.2016 152.309 69.3978 151.846 70.9469 151.691C72.3411 151.537 77.4529 151.228 77.9176 150.919C78.0725 150.765 78.0726 150.61 78.0726 150.301C78.0726 150.147 78.2275 149.838 78.0726 149.838C78.0726 149.683 78.0726 149.683 78.0726 149.838Z" fill="#E58D2E"/>
<path d="M66.9195 48.3499C66.6097 47.5775 65.3705 44.797 64.7509 44.1791C64.7509 44.1791 61.9626 41.8621 61.6528 41.7076C60.5684 40.9352 60.1037 41.5531 60.5684 42.171C59.9488 41.7076 59.4841 41.3987 59.1743 41.3987C58.5547 41.2442 58.0899 41.7076 59.0194 42.6344C58.2448 42.0165 57.935 41.8621 57.6252 42.0165C56.8507 42.48 57.4703 43.0978 58.2448 43.8702C57.935 43.5613 57.3154 43.4068 57.0056 43.7157C56.5409 44.3336 58.3997 45.7239 58.8645 46.1873C59.0194 46.3417 59.7939 47.1141 59.7939 47.1141C59.9488 47.423 60.2586 47.732 60.4135 48.0409C59.639 47.4231 58.3998 46.6507 57.935 47.1141C57.6252 47.423 59.1743 49.2767 60.2586 49.8946C61.6528 50.667 64.2861 52.2117 64.2861 52.2117L69.8627 57.6182L73.5805 53.4474L66.9195 48.3499Z" fill="#FBBD9E"/>
<path d="M85.8182 101.643C85.8182 97.9352 86.2829 85.5775 86.128 81.4067L76.9886 81.8702C76.369 86.0409 75.9043 100.561 75.9043 104.732C75.9043 108.748 78.3828 125.122 78.8475 130.22C79.1573 131.919 86.7477 131.919 86.7477 130.529C87.5222 115.236 87.2124 110.756 86.128 106.122C85.9731 105.041 85.8182 102.724 85.8182 101.643Z" fill="#231B23"/>
<path d="M79.0022 135.008C79.1571 130.374 79.4669 125.586 78.8473 121.106C78.5374 118.634 78.0727 116.317 77.9178 114C77.7629 111.683 78.3825 109.521 78.6923 107.203C79.6218 102.106 80.3963 97.0083 80.7061 91.7563C80.7061 90.675 80.7061 89.2848 79.9316 88.5124C79.1571 87.74 78.0727 87.7401 77.1433 87.5856C75.904 87.4311 74.5099 87.4311 73.2707 87.5856C70.3275 88.049 68.1588 89.7482 65.5254 91.1384C65.5254 91.1384 65.8352 104.114 66.6097 110.293C67.3843 116.008 68.3137 118.943 68.4686 122.651C68.7784 127.748 68.7784 137.016 68.9333 143.659C68.9333 147.212 78.5374 147.829 78.6923 144.895C78.6923 141.651 78.8473 138.407 79.0022 135.008Z" fill="#231B23"/>
<path d="M87.9872 41.3985C88.9166 42.1709 89.5363 43.2522 89.8461 44.6424C90.3108 46.805 89.6912 49.1221 89.5363 51.2847C88.9166 57.0002 88.297 59.0083 87.3676 64.2603C86.4382 68.8945 86.2832 76.6181 86.1283 84.6506C86.1283 88.2034 77.2987 92.2197 65.9906 89.2847C65.8357 89.2847 66.1455 81.7156 66.1455 78.6262C66.3005 72.7563 66.1455 66.8863 66.1455 61.0164C66.1455 58.2359 66.3005 55.4555 66.9201 52.8294C67.6946 50.2034 68.9338 47.8863 71.1025 46.1872C73.8908 44.0246 81.4812 40.4717 82.1008 40.3172C84.5793 39.6994 86.748 40.3172 87.9872 41.3985Z" fill="#E11A7D"/>
<path d="M82.0995 38.155L73.7346 33.6753C73.7346 33.6753 68.4678 28.4232 68.3129 29.968C68.158 31.3582 68.6227 41.0899 69.3972 42.1712C69.707 42.6346 71.8757 42.9436 72.8051 42.7891L73.115 44.9517C78.3817 45.1062 82.4093 42.9436 82.2544 41.3989C82.0995 39.8541 82.0995 38.155 82.0995 38.155Z" fill="#FBBD9E"/>
<path d="M73.27 21.7808C76.3681 21.7808 79.776 22.2442 81.1702 23.171C82.8741 24.4068 83.9585 27.4962 83.9585 29.6588C83.9585 32.7482 83.6487 37.0734 82.2545 39.3905C81.3251 41.3986 73.8896 42.7889 73.7347 38.3092C73.8896 36.919 73.8896 35.6832 73.4249 34.7564C73.27 34.293 72.8053 33.984 72.3406 33.984C71.8758 33.984 71.566 34.4474 71.2562 34.6019C70.1719 34.9108 70.6366 33.3661 70.4817 32.7482C70.3268 32.1304 70.017 31.5125 69.5523 30.8946C69.3974 30.5856 68.7777 30.2767 68.6228 29.9678C66.6091 26.4149 68.4679 21.7808 73.27 21.7808Z" fill="#724A2F"/>
<path d="M75.9034 61.9434C75.1288 61.9434 74.1994 61.9434 73.4249 61.9434C70.9464 61.9434 68.6228 62.0978 66.2992 61.9434C65.9894 65.3417 66.1443 72.9108 65.9894 74.1466C65.3698 77.6995 60.8775 91.1385 60.7226 92.0653C60.7226 92.0653 59.6383 93.7645 59.3285 94.3824C58.8638 95.1547 58.2441 96.236 58.2441 97.1629C58.2441 97.7808 58.3991 97.9352 58.7089 98.0897C59.0187 98.3986 59.1736 98.2442 59.6383 98.5531C59.7932 98.7076 60.4128 99.4799 60.5677 99.4799C61.4972 99.9434 61.6521 100.407 62.5815 100.561C63.356 100.716 63.9756 100.252 64.5953 99.6344C64.9051 99.3255 65.3698 98.8621 65.6796 98.5531C66.2992 97.6263 66.1443 96.3905 65.9894 95.3092C65.9894 95.1547 65.9894 94.8458 65.9894 94.5369C67.6934 91.1385 72.4954 80.0165 73.7347 74.1466C74.6641 68.4312 75.4386 64.5694 75.9034 61.9434Z" fill="#FBBD9E"/>
<path d="M76.2134 65.9594C76.6781 60.8618 76.988 57.309 76.988 55.4553C77.1429 52.6748 76.0585 49.7399 73.58 48.5041C64.7504 44.4878 65.2152 64.4147 65.2152 65.496C65.3701 68.2765 74.9742 68.8943 76.2134 65.9594Z" fill="#E11A7D"/>
</g>
<defs>
<clipPath id="clip0_1_21162">
<rect width="90" height="152" fill="white"/>
</clipPath>
</defs>
</svg>
