<svg width="88" height="147" viewBox="0 0 88 147" fill="none" xmlns="http://www.w3.org/2000/svg">
<g clip-path="url(#clip0_1_20912)">
<path d="M42.0958 122.541C41.4958 121.495 39.0959 120.599 36.696 119.703C34.2961 118.807 30.9962 117.313 30.8462 117.014C30.6962 116.716 30.8462 116.417 30.5462 116.118C30.3962 115.969 30.2462 115.969 30.0962 115.969C28.4463 115.67 26.6464 115.969 25.1464 116.566C24.3965 116.865 23.6465 118.359 23.6465 118.359C23.6465 118.956 23.6465 120.3 23.6465 121.197C23.6465 121.943 24.2465 122.242 24.9964 122.392C27.6963 123.288 34.2961 125.976 35.496 126.126C37.296 126.424 41.0458 127.022 42.0958 125.08C42.6958 124.483 42.5458 123.437 42.0958 122.541Z" fill="#F5F5F5"/>
<path d="M42.2444 124.333C40.7444 125.976 37.4446 125.677 35.6446 125.379C34.1447 125.229 23.6451 121.047 23.6451 121.047C23.6451 121.047 23.4951 122.391 23.9451 122.541C23.9451 122.541 33.5447 126.424 35.0447 126.872C37.4446 127.47 41.3444 127.47 42.2444 125.528C42.5444 124.93 42.5444 124.333 42.3944 123.735C42.5444 124.034 42.2444 124.333 42.2444 124.333Z" fill="#E58D2E"/>
<path d="M3.09449 144.349C3.84446 145.395 5.4944 145.843 6.99434 145.992C8.79427 146.141 10.4442 144.797 10.7442 143.005C11.0442 140.615 11.0442 137.179 10.8942 133.445C10.8942 133.147 10.8942 130.607 10.7442 130.458C8.79427 129.412 4.29444 127.769 3.09449 129.412C3.09449 129.412 2.7945 131.354 2.64451 132.997C2.19452 137.478 1.44455 142.109 3.09449 144.349Z" fill="#E58D2E"/>
<path d="M3.0956 142.706C3.84558 143.751 5.49551 144.199 6.99546 144.349C8.79539 144.498 10.4453 143.154 10.7453 141.361C11.0453 138.971 11.0453 135.685 11.0453 131.951C11.0453 131.652 11.0453 129.113 10.8953 128.964C8.94538 127.918 4.44555 126.275 3.2456 127.918C3.2456 127.918 2.94561 129.86 2.79562 131.503C2.19564 135.984 1.44567 140.614 3.0956 142.706Z" fill="#F5F5F5"/>
<path d="M7.59242 72.8018C4.89252 79.9714 5.79249 101.331 5.79249 101.331C3.69257 109.098 3.09259 121.346 2.64261 128.516C2.49262 131.055 10.8923 131.653 11.3423 128.665C11.4923 127.769 17.0421 104.318 17.342 103.422C18.092 101.182 18.692 98.7917 18.992 96.4018L22.5918 71.9056C17.642 68.1714 11.1923 62.3461 7.59242 72.8018Z" fill="#231B23"/>
<path d="M21.0951 95.2069C21.0951 95.2069 20.6451 99.5386 20.7951 100.883C21.395 107.754 22.295 108.65 23.495 118.807C23.795 121.197 32.7946 120.599 32.4946 117.911L32.3446 94.3107C32.3446 94.3107 33.0946 81.4651 33.0946 73.698C33.0946 71.6069 32.1946 65.4828 30.0947 65.7816C18.3952 67.7233 19.1451 77.7309 19.2951 78.7765C19.7451 82.5107 20.6451 89.0828 21.0951 95.2069Z" fill="#231B23"/>
<path d="M51.3938 61.8972C51.9938 61.7479 52.5938 61.4491 53.1938 61.1504C53.4938 61.001 53.7937 60.7023 53.9437 60.4036C54.0937 60.1048 54.0937 59.6567 53.7938 59.358C53.4938 59.2086 53.1938 59.2086 52.8938 59.358C52.4438 59.5074 47.644 61.8972 47.344 61.4491C47.194 61.1504 37.1444 48.3048 37.1444 48.3048C36.9944 43.6744 37.4444 36.9529 36.8444 34.7124C36.8444 34.7124 29.9447 49.6491 30.8446 50.6947C31.2946 54.1302 39.5443 60.2542 41.7942 62.3454C42.0942 62.6441 42.3942 62.9428 42.3942 63.3909C42.8442 65.1833 44.4941 68.32 45.8441 68.4694C46.444 68.6188 47.194 68.32 47.794 68.1707C48.544 67.8719 49.2939 67.7226 50.0439 67.4238C50.1939 67.4238 50.4939 67.2745 50.6439 67.1251C50.7939 66.9757 50.9439 66.677 50.9439 66.5276C51.2438 65.4821 51.2439 64.4365 51.0939 63.2416C50.9439 62.9428 50.9439 62.0466 51.3938 61.8972Z" fill="#FCBE9F"/>
<path d="M6.84565 43.2272C6.69565 45.0196 6.99564 46.9613 8.34559 50.6955C9.09556 52.7867 9.84553 56.3715 9.99553 58.612C10.1455 61.1512 10.1455 62.4955 9.54555 65.6323C9.39555 66.6778 8.94557 67.7234 8.49559 68.6196C6.24567 73.8475 17.0453 76.2373 22.595 75.4905C27.8448 74.7437 33.5446 73.25 33.2446 68.0221C33.2446 68.0221 31.8947 59.9563 32.6447 54.4297C33.0946 50.3968 35.1946 36.655 35.1946 36.655C35.3446 33.3689 33.6946 28.2904 30.3947 27.9917C27.8448 27.9917 14.7953 34.5639 9.54555 38.5968C8.0456 39.6423 6.99564 41.4348 6.84565 43.2272Z" fill="#E11A7D"/>
<path d="M30.6918 27.6914C24.542 27.6914 33.3917 42.4788 33.3917 42.4788C33.3917 42.4788 38.0415 41.1345 38.0415 39.1927C37.7415 33.9648 36.9916 27.6914 30.6918 27.6914Z" fill="#E11A7D"/>
<path d="M28.7409 33.5179C27.691 30.8293 26.641 31.2774 25.291 29.7837C22.8911 30.8293 19.7413 32.1736 16.8914 33.8166C12.0915 36.6546 20.1912 42.4799 26.041 39.6419C28.2909 38.5964 29.4909 35.609 28.7409 33.5179Z" fill="#FCBE9F"/>
<path d="M19.5922 26.6465L17.1923 34.1148C17.0423 34.7123 17.0423 35.3098 17.3423 35.7579C17.6423 36.206 18.0922 36.6541 18.8422 37.4009C21.5421 39.6414 23.642 39.4921 24.992 39.044C25.8919 38.7452 26.3419 37.9984 26.4919 37.1022L26.6419 36.206L19.5922 26.6465Z" fill="#F3A984"/>
<path d="M55.4425 61.7469L55.2925 61.2988L42.543 65.7799L42.693 66.228C42.693 66.3773 42.993 66.5267 43.2929 66.5267L52.5926 66.0786C53.0426 66.0786 53.6425 65.7799 53.7925 65.3317L55.2925 61.8963C55.4425 61.8963 55.4425 61.7469 55.4425 61.7469Z" fill="#D2CECA"/>
<path d="M54.5405 60.8506L45.2409 61.2987C44.7909 61.2987 44.1909 61.5974 44.0409 62.0455L42.541 65.481C42.391 65.7797 42.691 66.0784 43.1409 66.0784L52.4406 65.6303C52.8906 65.6303 53.4906 65.3316 53.6405 64.8835L55.1405 61.4481C55.4405 61.1493 55.1405 60.8506 54.5405 60.8506Z" fill="#322E2E"/>
<path d="M42.8394 65.9296C42.6895 65.9296 42.6895 65.7802 42.6895 65.7802V65.6309L44.1894 62.1954C44.3394 61.8967 44.7894 61.598 45.2394 61.598L54.539 61.0005C54.689 61.0005 54.689 61.0005 54.839 61.0005C54.989 61.0005 54.989 61.1499 54.989 61.1499V61.2992L53.489 64.7347C53.339 65.0334 52.8891 65.3321 52.4391 65.3321L43.1394 65.7802C42.9894 65.9296 42.9894 65.9296 42.8394 65.9296Z" fill="#648BE8"/>
<path d="M48.2424 64.7353C48.0924 64.7353 47.7924 64.586 47.4924 64.7353C46.4425 64.8847 45.2425 65.3328 44.3425 65.9303C44.1926 66.0796 43.8926 66.229 43.7426 66.3784C43.4426 66.8265 43.4426 67.1252 43.7426 67.4239C44.1926 68.0214 44.9425 68.6189 45.6925 68.7682C46.5925 68.9176 48.8424 68.0214 49.8923 67.7227C50.1923 67.5733 50.4923 67.4239 50.6423 66.9758C50.7923 66.5277 50.3423 66.3784 50.0423 66.229C49.5923 65.4822 48.9924 64.8847 48.2424 64.7353Z" fill="#FCBE9F"/>
<path d="M40.8935 66.8259C39.0936 66.2285 35.3438 66.2285 32.6439 68.9171C32.6439 68.9171 31.5939 68.9171 29.644 68.469C26.7941 67.7221 24.0942 66.8259 21.2443 65.9297C20.0443 65.631 18.9944 65.1829 17.7944 64.7348C17.4944 64.5854 16.4445 64.436 16.2945 63.9879C16.7445 59.2082 15.8445 50.0968 14.0446 48.9018C13.4446 48.4537 11.4947 48.7525 10.5947 49.0512L5.04492 52.0386C5.34491 52.636 6.99485 58.1626 8.79478 63.2411C10.4447 67.8715 10.8947 69.2158 11.7947 69.8133C12.0947 69.9626 12.3946 70.112 12.6946 70.2614C15.6945 71.4563 19.1444 71.6057 22.2943 71.9044C24.0942 72.0538 25.8941 72.2031 27.6941 72.5019C29.494 72.8006 32.1939 72.8006 33.0938 72.95C35.4938 73.0993 40.7436 72.0538 42.6935 70.4107C44.1934 69.3652 42.2435 67.274 40.8935 66.8259Z" fill="#FCBE9F"/>
<path d="M5.64513 54.5786C6.24511 57.4165 18.8446 54.8773 17.9447 51.5912C17.6447 50.5456 14.9448 39.1937 11.7949 37.252C11.7949 37.252 11.7949 37.252 11.6449 37.252C8.34503 38.895 5.79513 41.733 5.19515 45.3178C4.89516 47.5583 4.74517 50.2469 5.64513 54.5786Z" fill="#E11A7D"/>
<path d="M21.8437 16.0421C18.5438 17.2371 16.1439 19.6269 16.8938 25.751C17.4938 30.5307 21.5437 35.3105 24.9935 37.8497C25.8935 38.4472 28.5934 39.194 29.4934 37.1029C30.2433 35.3105 32.0433 30.3814 32.0433 25.9004C32.0433 22.3155 31.8933 19.3282 29.1934 17.0877C27.3934 15.594 25.1435 14.6978 21.8437 16.0421Z" fill="#FCBE9F"/>
<path d="M22.5949 27.5431C23.4948 23.9583 29.0446 26.4975 32.0445 23.6595C32.6445 21.7178 31.7445 18.8798 29.1946 16.7886C27.3947 15.295 24.8448 14.2494 21.3949 15.5937C18.245 16.7886 15.6951 19.3279 16.5951 25.7507C16.5951 26.1988 17.3451 29.933 18.245 29.933C18.845 29.7836 18.395 27.8418 18.545 27.2444C18.695 26.3481 19.745 25.9 20.3449 26.4975C20.9449 27.095 20.6449 28.738 21.8449 28.4393C22.5949 28.4393 22.4449 28.1406 22.5949 27.5431Z" fill="#724A2F"/>
<path d="M84.6102 1.46669L51.3479 20.601C49.4102 21.7266 47.957 24.1385 47.957 25.9072V46.0063C47.957 47.9359 49.4102 48.579 51.3479 47.4535V58.5482L56.9992 44.2376L84.6102 28.3191C86.5479 27.1936 88.0011 24.7817 88.0011 23.0129V2.91382C88.0011 1.1451 86.5479 0.50193 84.6102 1.46669Z" fill="#719DFF"/>
<path d="M57.5467 39.1261C58.2435 38.2036 58.4041 37.1529 57.9052 36.7792C57.4064 36.4055 56.4371 36.8505 55.7403 37.773C55.0434 38.6955 54.8829 39.7463 55.3817 40.1199C55.8805 40.4936 56.8498 40.0486 57.5467 39.1261Z" fill="#FFFCF3"/>
<path d="M64.7494 32.3386C63.9421 32.821 63.1348 33.9465 63.1348 34.7505C63.1348 35.5545 63.7806 35.876 64.7494 35.3937C65.5568 34.9113 66.3641 33.7857 66.3641 32.9818C66.3641 32.017 65.5568 31.8562 64.7494 32.3386Z" fill="#FFFCF3"/>
<path d="M67.0101 21.4048H66.8486L54.0926 28.8013L53.6082 27.8365C53.6082 27.6757 53.4468 27.6757 53.1238 27.8365L51.3477 28.8013C51.0247 28.9621 50.8633 29.2836 50.8633 29.6052C50.8633 29.9268 51.0247 29.9268 51.3477 29.766L52.8009 28.9621L56.1917 36.3585C56.1917 36.5193 56.3532 36.5193 56.6761 36.3585L65.3954 31.3739C65.7183 31.2132 65.8798 30.8916 65.8798 30.57C65.8798 30.2484 65.7183 30.2484 65.3954 30.4092L56.9991 35.233L56.3532 33.9466L65.3954 28.8013C65.5569 28.8013 65.5569 28.6405 65.5569 28.4797L67.0101 21.7264C67.1715 21.4048 67.1715 21.4048 67.0101 21.4048ZM58.7752 32.0171L56.1917 33.4643L55.7073 32.3387L58.9367 30.57V32.0171H58.7752ZM58.7752 29.9268L55.3844 31.8563L54.9 30.7308L58.7752 28.4797V29.9268ZM58.7752 27.9973L54.7385 30.2484L54.2541 28.9621L58.7752 26.3894V27.9973ZM62.3275 29.9268L59.2596 31.6955V30.2484L62.3275 28.4797V29.9268ZM62.3275 27.9973L59.2596 29.766V28.3189L62.3275 26.5502V27.9973ZM62.3275 26.0678L59.2596 27.8365V26.2286L62.3275 24.4599V26.0678ZM65.2339 28.3189L62.8119 29.766V28.3189L65.5569 26.711L65.2339 28.3189ZM65.7183 26.0678L62.8119 27.6757V26.2286L66.0413 24.2991L65.7183 26.0678ZM66.2027 23.8167L62.8119 25.7462V24.1383L66.5257 21.8872L66.2027 23.8167Z" fill="#FFFCF3"/>
<path d="M66.6877 19.3145C65.073 20.2793 63.7812 22.3696 63.7812 23.9775C63.7812 25.5855 65.073 26.0678 66.6877 25.2639C68.3023 24.2991 69.5941 22.2088 69.5941 20.6009C69.5941 18.9929 68.3023 18.5106 66.6877 19.3145Z" fill="#FFFCF3"/>
<path d="M65.5566 22.048V21.5656C65.5566 21.5656 65.5566 21.4048 65.7181 21.4048L66.364 20.7617C66.5254 20.6009 66.5255 20.6009 66.6869 20.6009L67.1713 20.2793C67.3328 20.2793 67.3328 20.2793 67.3328 20.2793V24.1383V24.2991C67.3328 24.2991 67.3328 24.2991 67.1713 24.4599L66.6869 24.7815C66.5255 24.7815 66.5255 24.7815 66.5255 24.7815V21.7264L65.5566 22.048C65.5566 22.2088 65.5566 22.2088 65.5566 22.048Z" fill="#719DFF"/>
<path d="M85.2553 19.9575L83.1562 21.2439V21.7262L85.2553 20.4399V19.9575Z" fill="#FFFCF3"/>
<path d="M82.1875 23.4951V23.9775L85.2554 22.3696V21.8872L82.1875 23.4951Z" fill="#FFFCF3"/>
<path d="M74.7598 21.5654L75.89 20.9222L77.6662 19.9575V19.4751L75.89 20.4399L74.7598 21.083V21.5654Z" fill="#FFFCF3"/>
<path d="M85.256 15.1338L82.834 16.4201V16.9025L85.256 15.6162V15.1338Z" fill="#FFFCF3"/>
<path d="M76.6967 25.4244L79.7646 23.6557V23.1733L76.6967 24.9421L74.5977 26.0676V26.55L76.6967 25.4244Z" fill="#FFFCF3"/>
<path d="M77.5039 21.4045V21.8869L79.7645 20.6005V20.1182L77.5039 21.4045Z" fill="#FFFCF3"/>
<path d="M85.2553 13.2041L83.1562 14.4904V14.9728L85.2553 13.6865V13.2041Z" fill="#FFFCF3"/>
<path d="M81.2188 17.8671L82.0261 17.3847V16.9023L81.2188 17.3847V17.8671Z" fill="#FFFCF3"/>
<path d="M74.7606 17.3848L71.8542 18.9927L71.0469 19.4751V19.9575L71.8542 19.4751L74.7606 17.8671V17.3848Z" fill="#FFFCF3"/>
<path d="M73.9527 21.5654L70.8848 23.3342V23.8165L73.9527 22.0478V21.5654Z" fill="#FFFCF3"/>
<path d="M85.2546 11.9179V11.4355L83.9629 12.0787V12.5611L85.2546 11.9179Z" fill="#FFFCF3"/>
<path d="M82.9942 13.0434V12.561L82.0254 13.2042V13.6866L82.9942 13.0434Z" fill="#FFFCF3"/>
<path d="M77.5039 18.1886L79.7645 16.9023V16.4199L77.5039 17.7063V18.1886Z" fill="#FFFCF3"/>
<path d="M75.2444 23.1736L76.6976 22.3696V21.8872L74.5985 23.1736L70.8848 25.1031V25.5854L75.2444 23.1736Z" fill="#FFFCF3"/>
<path d="M76.6983 18.6713V18.189L74.4377 19.4753L71.0469 21.4048V21.8872L75.4065 19.3145L76.6983 18.6713Z" fill="#FFFCF3"/>
<path d="M83.1562 18.1887V18.6711L85.2553 17.3847V16.9023L83.1562 18.1887Z" fill="#FFFCF3"/>
<path d="M73.6304 28.4795L71.0469 30.0874V30.5698L73.6304 28.9619L76.3753 27.354V26.8716L73.6304 28.4795Z" fill="#FFFCF3"/>
<path d="M73.6297 26.5503L70.8848 28.1582V28.6406L73.6297 27.0327V26.5503Z" fill="#FFFCF3"/>
<path d="M77.3438 26.3894V26.8718L78.797 26.0678V25.5854L77.3438 26.3894Z" fill="#FFFCF3"/>
<path d="M75.5684 17.3848L77.6674 16.2592L81.2197 14.1689V13.6865L77.3445 15.9376L75.5684 16.9024V17.3848Z" fill="#FFFCF3"/>
<path d="M58.1293 22.3698L59.9055 21.405V20.6011L58.1293 21.5658V22.3698ZM56.6761 23.1738V22.3698L50.8633 25.7464V26.5504L56.6761 23.1738Z" fill="#FFFCF3"/>
<path d="M79.9267 9.82778L85.0936 6.77271V5.96875L79.9267 9.02382V9.82778ZM78.6349 10.471V9.66699L76.2129 10.9533V11.7573L78.6349 10.471Z" fill="#FFFCF3"/>
</g>
<defs>
<clipPath id="clip0_1_20912">
<rect width="88" height="146" fill="white" transform="translate(0 0.984375)"/>
</clipPath>
</defs>
</svg>
