<svg width="16" height="16" viewBox="0 0 16 16" fill="none" xmlns="http://www.w3.org/2000/svg">
<g clip-path="url(#clip0_1221_14689)">
<path d="M6 0C2.691 0 0 2.691 0 6C0 10.159 5.416 15.623 5.646 15.854C5.744 15.951 5.872 16 6 16C6.128 16 6.256 15.951 6.354 15.854C6.354 15.854 6.794 15.415 7.417 14.699C7.599 14.491 7.577 14.175 7.369 13.993C7.162 13.813 6.847 13.834 6.663 14.041C6.401 14.341 6.173 14.591 6 14.776C4.806 13.5 1 9.177 1 6C1 3.243 3.243 1 6 1C8.757 1 11 3.243 11 6C11 6.143 10.992 6.295 10.967 6.447C10.921 6.719 11.104 6.977 11.377 7.023C11.649 7.066 11.907 6.885 11.953 6.613C11.988 6.405 12 6.197 12 6C12 2.691 9.309 0 6 0Z" fill="#E11A7D"/>
<path d="M6 3C4.346 3 3 4.346 3 6C3 7.654 4.346 9 6 9C7.654 9 9 7.654 9 6C9 4.346 7.654 3 6 3ZM6 8C4.897 8 4 7.103 4 6C4 4.897 4.897 4 6 4C7.103 4 8 4.897 8 6C8 7.103 7.103 8 6 8Z" fill="#E11A7D"/>
<path d="M12 8C9.794 8 8 9.794 8 12C8 14.206 9.794 16 12 16C14.206 16 16 14.206 16 12C16 9.794 14.206 8 12 8ZM12 15C10.346 15 9 13.654 9 12C9 10.346 10.346 9 12 9C13.654 9 15 10.346 15 12C15 13.654 13.654 15 12 15Z" fill="#E11A7D"/>
<path d="M13.5 11.5H12.5V10.5C12.5 10.224 12.276 10 12 10C11.724 10 11.5 10.224 11.5 10.5V11.5H10.5C10.224 11.5 10 11.724 10 12C10 12.276 10.224 12.5 10.5 12.5H11.5V13.5C11.5 13.776 11.724 14 12 14C12.276 14 12.5 13.776 12.5 13.5V12.5H13.5C13.776 12.5 14 12.276 14 12C14 11.724 13.776 11.5 13.5 11.5Z" fill="#E11A7D"/>
</g>
<defs>
<clipPath id="clip0_1221_14689">
<rect width="16" height="16" fill="white"/>
</clipPath>
</defs>
</svg>
