<svg width="11" height="8" viewBox="0 0 11 8" fill="none" xmlns="http://www.w3.org/2000/svg">
<path d="M5.92922 7.30994L10.8243 2.00758C10.9376 1.88495 11 1.72124 11 1.54668C11 1.37212 10.9376 1.20841 10.8243 1.08577L10.4639 0.695289C10.229 0.4412 9.84733 0.4412 9.61285 0.695289L5.50228 5.14781L1.38715 0.690349C1.27384 0.567712 1.1228 0.5 0.961732 0.5C0.800489 0.5 0.649442 0.567711 0.536044 0.690349L0.17573 1.08083C0.0624218 1.20356 -3.79055e-08 1.36718 -4.55358e-08 1.54174C-5.3166e-08 1.7163 0.0624217 1.88001 0.17573 2.00264L5.07525 7.30994C5.18892 7.43287 5.34068 7.50039 5.50201 7.5C5.66397 7.50039 5.81564 7.43287 5.92922 7.30994Z" fill="#535353" fill-opacity="0.5"/>
</svg>
