<svg width="25" height="25" viewBox="0 0 25 25" fill="none" xmlns="http://www.w3.org/2000/svg">
<g clip-path="url(#clip0_156_7886)">
<path d="M23.979 15.7611C23.2971 16.1718 22.4108 15.9431 22.0127 15.2537L16.1997 5.18516C17.0376 4.92121 17.9654 5.10065 18.6464 5.68082L20.3762 7.15457C20.8684 7.57386 21.2773 8.07294 21.5916 8.63821L24.4886 13.8511C24.8609 14.5211 24.6356 15.3657 23.979 15.7611Z" fill="#E11A7D"/>
<path d="M18.0975 20.6614L18.3899 21.1678C18.4593 21.2879 18.5406 21.4013 18.6318 21.5052L19.1934 22.1442C18.9469 22.6537 18.4251 23.0051 17.8212 23.0051C16.9798 23.0051 16.2977 22.323 16.2977 21.4817C16.2977 22.323 15.6157 23.0051 14.7743 23.0051C13.933 23.0051 13.2509 22.323 13.2509 21.4817V21.0321C13.5401 20.9253 13.8234 20.8016 14.099 20.6614H18.0975Z" fill="#E11A7D"/>
<path d="M22.6917 19.4946L24.0395 23.4787C24.2857 24.2067 23.3526 24.7455 22.8453 24.1682L19.7635 20.6615H20.3535C21.3076 20.6615 22.1564 20.2029 22.6917 19.4946Z" fill="#E11A7D"/>
<path d="M13.6039 14.802L13.2344 14.1749C13.1743 14.0729 13.2076 13.9837 13.2328 13.9396C13.258 13.8955 13.318 13.8215 13.4363 13.8215H14.1488L14.7148 14.802H13.6039V14.802Z" fill="#E11A7D"/>
<path d="M1.3713 9.41138H7.29911L10.6724 7.79883L13.3396 12.4185C12.7833 12.4503 12.2923 12.7528 12.0128 13.2419C11.7169 13.7595 11.721 14.3752 12.0236 14.8888L12.5971 15.8621C12.7235 16.0766 12.9539 16.2083 13.2029 16.2083H20.3535C21.1949 16.2083 21.877 16.8903 21.877 17.7317C21.877 18.573 21.1949 19.2551 20.3535 19.2551H13.7452C12.7597 19.82 11.644 20.1175 10.5055 20.1175C9.36691 20.1175 8.25128 19.8199 7.26569 19.2551H1.3713C0.982985 19.2551 0.668171 18.9403 0.668171 18.552V10.1145C0.668171 9.72614 0.982985 9.41138 1.3713 9.41138Z" fill="#E11A7D"/>
<path d="M9.64862 3.21196C9.19553 2.42718 9.4645 1.42373 10.2493 0.970729C11.034 0.517776 12.0373 0.786698 12.4903 1.57134L13.5449 3.39801L10.7033 5.03864L9.64862 3.21196Z" fill="#E11A7D"/>
<path d="M16.34 14.8019L11.4063 6.25639L14.2479 4.61572L20.1289 14.8019H16.34Z" fill="#E11A7D"/>
</g>
<defs>
<clipPath id="clip0_156_7886">
<rect width="24" height="24" fill="white" transform="matrix(-1 0 0 1 24.668 0.581055)"/>
</clipPath>
</defs>
</svg>
