<svg width="28" height="28" viewBox="0 0 28 28" fill="none" xmlns="http://www.w3.org/2000/svg">
<path d="M7.4375 11.4844C6.08048 11.4844 4.97656 12.5883 4.97656 13.9453V20.6172C4.97656 21.9742 6.08048 23.0781 7.4375 23.0781C8.79452 23.0781 9.89844 21.9742 9.89844 20.6172V13.9453C9.89844 12.5883 8.79452 11.4844 7.4375 11.4844Z" fill="#E11A7D"/>
<path d="M3.33594 13.9448C3.33594 13.7082 3.36716 13.4796 3.40583 13.2539C2.41719 13.5734 1.69531 14.4918 1.69531 15.5855V18.9761C1.69531 20.0698 2.41719 20.9881 3.40583 21.3076C3.36716 21.0819 3.33594 20.8533 3.33594 20.6167V13.9448Z" fill="#E11A7D"/>
<path d="M20.5625 11.4844C19.2055 11.4844 18.1016 12.5883 18.1016 13.9453V20.6172C18.1016 21.9742 19.2055 23.0781 20.5625 23.0781C20.8091 23.0781 21.0428 23.0307 21.2675 22.9628C20.9622 23.9751 20.0323 24.7188 18.9219 24.7188H16.3098C15.9701 23.766 15.068 23.0781 14 23.0781C12.643 23.0781 11.5391 24.182 11.5391 25.5391C11.5391 26.8961 12.643 28 14 28C15.068 28 15.9701 27.3121 16.3098 26.3594H18.9219C21.1834 26.3594 23.0234 24.5193 23.0234 22.2578V20.6172V13.9453C23.0234 12.5883 21.9195 11.4844 20.5625 11.4844Z" fill="#E11A7D"/>
<path d="M24.5938 13.2539C24.6324 13.4796 24.6636 13.7082 24.6636 13.9448V20.6167C24.6636 20.8533 24.6324 21.0819 24.5938 21.3076C25.5824 20.9881 26.3043 20.0698 26.3043 18.9761V15.5855C26.3043 14.4918 25.5824 13.5734 24.5938 13.2539Z" fill="#E11A7D"/>
<path d="M14 0C7.21481 0 1.69531 5.5195 1.69531 12.3047V12.3256C2.18405 11.9556 2.74952 11.6849 3.37351 11.5636C3.75692 6.02935 8.37014 1.64062 14 1.64062C19.6299 1.64062 24.2431 6.02935 24.6265 11.5636C25.2504 11.6848 25.8159 11.9556 26.3047 12.3256V12.3047C26.3047 5.5195 20.7852 0 14 0Z" fill="#E11A7D"/>
</svg>
