<svg width="96" height="97" viewBox="0 0 96 97" fill="none" xmlns="http://www.w3.org/2000/svg">
<g clip-path="url(#clip0_1_22211)">
<path d="M70.5911 66.9969L72.6843 65.8919L85.2812 59.0997L86.7937 58.2823C90.0252 56.5365 94.0592 57.6398 95.9533 60.7872L66.2671 81.1704C62.2656 83.152 57.7316 83.792 53.3377 82.9962L36.1776 79.8347C34.5993 79.4388 32.9286 79.6613 31.5086 80.4555L22.2157 86.3302L15.7227 65.0345L15.7777 65.017C17.7809 64.6478 19.6441 63.7354 21.1641 62.3804L24.0081 59.8505C29.6945 55.5716 37.2967 54.8291 43.7039 57.9265L44.8814 58.4956C46.7238 59.3872 48.7437 59.8505 50.7903 59.8505H62.2098C66.3796 59.8522 69.9302 62.8804 70.5911 66.9969Z" fill="#F7CAA5"/>
<path d="M86.3775 35.0795V43.3867H63.6568V33.8963C63.6593 32.0155 63.101 30.1773 62.0527 28.6165C63.4727 27.4657 65.2343 26.8182 67.0617 26.7749C68.3733 28.549 70.4307 29.6181 72.6356 29.6723C74.8413 29.7264 76.9487 28.7598 78.3462 27.0524C78.4153 26.9566 78.4937 26.8682 78.5812 26.7882C82.9618 27.0582 86.3767 30.6906 86.3775 35.0795Z" fill="#719DFF"/>
<path d="M85.2709 59.0807L85.2817 59.0999L72.6848 65.8921L70.5916 66.997C70.2824 65.0488 69.3008 63.2705 67.8184 61.9689L75.9147 57.6066L77.9754 56.495C80.5203 55.2042 83.861 56.6 85.2709 59.0807Z" fill="#EDB288"/>
<path d="M80.0512 12.9279V16.6211C80.0512 20.6984 76.7455 24.0041 72.6682 24.0041C68.5908 24.0041 65.2852 20.6984 65.2852 16.6211V12.9279C65.2852 8.85061 68.5908 5.54492 72.6682 5.54492C76.7455 5.54492 80.0512 8.85061 80.0512 12.9279Z" fill="#719DFF"/>
<path d="M75.8137 57.4191L75.9145 57.6066L67.8182 61.9689C66.2716 60.6007 64.2759 59.8465 62.2101 59.8507H59.6777L66.4108 56.19C69.4615 54.4209 73.3205 54.9251 75.8137 57.4191Z" fill="#EDB288"/>
<path d="M62.0521 28.6162C63.1004 30.177 63.6587 32.0152 63.6562 33.896V47.6037H32.3359V33.896C32.3343 28.7462 36.4399 24.5356 41.588 24.4072C43.0863 26.4338 45.437 27.6554 47.9569 27.7171C50.4768 27.7796 52.8842 26.6755 54.4808 24.7247C54.5608 24.6164 54.65 24.5147 54.7474 24.4222C57.7032 24.6039 60.4047 26.1555 62.0521 28.6162Z" fill="#E11A7D"/>
<path d="M56.4298 8.58892V12.8062C56.4298 17.4652 52.6533 21.2417 47.9952 21.2417C43.337 21.2417 39.5605 17.4652 39.5605 12.8062V8.58892C39.5605 3.9308 43.337 0.154297 47.9952 0.154297C52.6533 0.154297 56.4298 3.9308 56.4298 8.58892Z" fill="#E11A7D"/>
<path d="M33.5773 28.3623L33.9098 28.659C32.8807 30.2114 32.3332 32.033 32.3357 33.8963V43.3867H9.58008V35.0795C9.58008 30.5731 13.1733 26.8891 17.6781 26.7749C18.9905 28.549 21.0479 29.6181 23.2536 29.6723C25.4594 29.7264 27.5668 28.7598 28.9651 27.0524C29.0342 26.9566 29.1117 26.8682 29.1975 26.7882C30.7783 26.8816 32.2982 27.4282 33.5773 28.3623Z" fill="#719DFF"/>
<path d="M30.6723 12.9279V16.6211C30.6723 20.6984 27.3666 24.0041 23.2893 24.0041C19.2119 24.0041 15.9062 20.6984 15.9062 16.6211V12.9279C15.9062 8.85061 19.2119 5.54492 23.2893 5.54492C27.3666 5.54492 30.6723 8.85061 30.6723 12.9279Z" fill="#719DFF"/>
<path d="M70.6967 69.6212C70.6776 69.6212 70.6584 69.6212 70.6393 69.6195L60.9005 69.1778C58.0481 69.0495 55.1891 69.1812 52.3609 69.5728C51.9059 69.6387 51.4509 69.4562 51.1676 69.0945C50.8843 68.7329 50.8176 68.247 50.991 67.8212C51.1651 67.3963 51.5534 67.0971 52.0092 67.0371C54.9924 66.6246 58.0073 66.4855 61.0163 66.6205L69.291 66.9963C68.6443 63.5939 65.672 61.1315 62.2088 61.1299H50.7893C48.5502 61.1265 46.3403 60.6199 44.3229 59.6474L43.1455 59.0775C37.1891 56.1809 30.1127 56.8626 24.818 60.8416L22.0139 63.3364C20.319 64.8472 18.2416 65.8638 16.0092 66.2746C15.5567 66.3646 15.0909 66.2038 14.7901 65.8538C14.4892 65.5047 14.4001 65.0197 14.5559 64.5855C14.7126 64.1522 15.0901 63.8356 15.545 63.7581C17.3175 63.4314 18.9665 62.624 20.3115 61.4249L23.1564 58.8941C23.1822 58.87 23.2097 58.8483 23.2372 58.8275C29.3003 54.2427 37.4241 53.4494 44.2604 56.7734L45.4379 57.3434C47.1078 58.1483 48.936 58.5675 50.7893 58.57H62.2088C67.6044 58.57 71.9784 62.9448 71.9767 68.3404C71.9767 69.047 71.4042 69.6203 70.6967 69.6203V69.6212Z" fill="#EDB288"/>
<path d="M22.2146 86.3306L25.2103 96.1544H4.58537L0.00390625 58.5752H13.7525L15.7215 65.0349L22.2146 86.3306ZM16.5657 89.5797C16.5657 88.0614 15.3349 86.8298 13.8166 86.8298C12.2975 86.8298 11.0667 88.0614 11.0667 89.5797C11.0667 91.0988 12.2975 92.3295 13.8166 92.3295C15.3349 92.3295 16.5665 91.0988 16.5657 89.5797Z" fill="#E11A7D"/>
<path d="M16.5673 89.5795C16.5673 91.0986 15.3365 92.3293 13.8182 92.3293C12.2991 92.3293 11.0684 91.0986 11.0684 89.5795C11.0684 88.0612 12.2991 86.8296 13.8182 86.8296C15.3365 86.8296 16.5673 88.0612 16.5673 89.5795Z" fill="white"/>
</g>
<defs>
<clipPath id="clip0_1_22211">
<rect width="96" height="96" fill="white" transform="translate(0 0.154297)"/>
</clipPath>
</defs>
</svg>
