<svg width="47" height="47" viewBox="0 0 47 47" fill="none" xmlns="http://www.w3.org/2000/svg">
<g clip-path="url(#clip0_1_10370)">
<path d="M40.8691 18.3915L23.4997 29.6305L6.13012 18.3915V1.02191C6.11815 0.469599 6.55619 0.0122132 7.1085 0.00023973C7.12296 -4.76326e-05 7.13742 -4.76326e-05 7.15189 0.00023973H39.8473C40.3997 -0.0117337 40.8571 0.426303 40.8691 0.978614C40.8694 0.993078 40.8694 1.00754 40.8691 1.02201V18.3915Z" fill="#E7EAEA"/>
<path d="M6.1304 18.3912L0 14.3042L6.1304 8.17383V18.3912Z" fill="#F6B445"/>
<path d="M46.9995 14.3042L40.8691 18.3912V8.17383L46.9995 14.3042Z" fill="#F6B445"/>
<path d="M40.8695 18.2997L46.9999 14.3047V42.9133C46.998 43.997 46.5684 45.0361 45.8044 45.8048L38.826 38.8264L27.5869 27.5873L27.3008 27.1479L40.8695 18.2997Z" fill="#FED049"/>
<path d="M38.8259 38.8269L45.8043 45.8053C45.0356 46.5692 43.9965 46.9988 42.9128 47.0007H4.08685C3.00311 46.9988 1.96401 46.5692 1.19531 45.8053L8.17373 38.8269L19.4128 27.5878L19.6989 27.1484L23.4998 29.6313L27.3006 27.1484L27.5867 27.5878L38.8259 38.8269Z" fill="#F6B445"/>
<path d="M19.699 27.1479L19.4129 27.5873L8.17384 38.8263L1.19543 45.8047C0.431523 45.036 0.00191575 43.9969 0 42.9132V14.3047L19.699 27.1479Z" fill="#FED049"/>
<path d="M34.5 22C39.7467 22 44 17.7467 44 12.5C44 7.25329 39.7467 3 34.5 3C29.2533 3 25 7.25329 25 12.5C25 17.7467 29.2533 22 34.5 22Z" fill="#E11A7D"/>
<path d="M34.7386 18.3918C34.1743 18.3918 33.7168 17.9343 33.7168 17.37V10.083L32.2405 11.0679C31.771 11.3812 31.1365 11.2544 30.8233 10.7849C30.5101 10.3154 30.6368 9.68093 31.1063 9.3677L34.1715 7.32427C34.6409 7.01104 35.2754 7.13777 35.5885 7.60713C35.7006 7.77504 35.7604 7.97246 35.7604 8.17438V17.37C35.7604 17.9343 35.3029 18.3918 34.7386 18.3918Z" fill="#F1F2F2"/>
</g>
<defs>
<clipPath id="clip0_1_10370">
<rect width="47" height="47" fill="white"/>
</clipPath>
</defs>
</svg>
