<svg width="92" height="93" viewBox="0 0 92 93" fill="none" xmlns="http://www.w3.org/2000/svg">
<g clip-path="url(#clip0_1_22235)">
<path d="M83.7481 79.8324V88.0043H61.3965V78.6684C61.3996 76.8176 60.8496 75.0082 59.8184 73.4723C61.216 72.3418 62.9488 71.7051 64.7465 71.6621C66.0371 73.4074 68.0613 74.459 70.2309 74.5121C72.4012 74.5652 74.4738 73.6145 75.848 71.934C75.9176 71.841 75.9949 71.7543 76.0785 71.6746C80.3887 71.9402 83.7481 75.5137 83.7481 79.8324Z" fill="#719DFF"/>
<path d="M75.5356 18.2365C74.6153 18.0232 73.7614 17.5865 73.0496 16.9646C70.9215 15.1162 70.4207 12.0084 71.8621 9.58571C73.3028 7.16227 76.2715 6.11774 78.9122 7.10524C81.5528 8.09196 83.1082 10.8279 82.6067 13.6021C82.1043 16.3763 79.6887 18.3935 76.87 18.3927C76.4207 18.3935 75.9723 18.3412 75.5356 18.2365Z" fill="#6FE3FF"/>
<path d="M77.5281 57.7006V62.0146C77.5281 65.8373 74.4289 68.9365 70.6063 68.9365H69.9219C66.0992 68.9365 63 65.8373 63 62.0146V57.7006C63 53.8771 66.0984 50.7771 69.9219 50.7764H70.6063C74.4297 50.7771 77.5281 53.8771 77.5281 57.7006Z" fill="#719DFF"/>
<path d="M75.5363 18.2361L71.8746 32.3924H20.0746L16.4121 18.2361C17.2965 18.0307 18.1191 17.6197 18.8145 17.0361L30.8184 26.8018L43.3566 11.1924C44.966 11.9994 46.8582 12.0189 48.4848 11.2463L60.2145 26.8018L73.0402 16.976L73.0504 16.9643C73.7621 17.5861 74.616 18.0229 75.5363 18.2361Z" fill="#719DFF"/>
<path d="M20.0742 32.3926H71.8742V40.0785H20.0742V32.3926Z" fill="#E11A7D"/>
<path d="M59.8176 73.4723C60.8488 75.0082 61.3988 76.8176 61.3957 78.6684V92.1543H30.584V78.6684C30.5832 73.6035 34.6223 69.4613 39.6855 69.334C41.1605 71.3277 43.473 72.5293 45.952 72.5902C48.4309 72.6504 50.7996 71.5637 52.3699 69.6441C52.4473 69.5371 52.5355 69.4379 52.634 69.348C55.541 69.5262 58.198 71.0512 59.8176 73.4723Z" fill="#E11A7D"/>
<path d="M54.2891 53.3824V58.3121C54.2891 62.6801 50.7469 66.2207 46.3789 66.2199H45.5992C41.2313 66.2207 37.6906 62.6801 37.6914 58.3121V53.3824C37.6906 49.0145 41.2313 45.4738 45.5992 45.4746H46.3789C50.7469 45.4738 54.2891 49.0145 54.2891 53.3824Z" fill="#E11A7D"/>
<path d="M48.485 11.2462C46.1412 12.3642 43.3412 11.797 41.617 9.85636C39.892 7.91574 39.6584 5.06886 41.0444 2.87277C42.4295 0.677454 45.0998 -0.337391 47.5936 0.383704C50.0881 1.1048 51.8045 3.38761 51.8045 5.98371C51.8061 8.23136 50.5139 10.2798 48.485 11.2462Z" fill="#6FE3FF"/>
<path d="M31.8055 73.2246L32.1336 73.516C31.1195 75.0434 30.5797 76.8355 30.5836 78.6684V88.0043H8.19922V79.8324C8.2 75.3996 11.7336 71.7746 16.1648 71.6621C17.4562 73.4074 19.4797 74.459 21.65 74.5121C23.8195 74.5652 25.893 73.6145 27.2672 71.934C27.3375 71.8418 27.4141 71.7551 27.4969 71.6746C29.0523 71.7676 30.5477 72.3059 31.8055 73.2246Z" fill="#719DFF"/>
<path d="M28.9473 57.7006V62.0146C28.948 65.8373 25.8488 68.9365 22.0254 68.9365H21.3418C17.5184 68.9365 14.4191 65.8373 14.4199 62.0146V57.7006C14.4191 53.8771 17.5184 50.7771 21.3418 50.7764H22.0254C25.8488 50.7771 28.948 53.8771 28.9473 57.7006Z" fill="#719DFF"/>
<path d="M18.8148 17.0365C18.1195 17.6201 17.2968 18.031 16.4124 18.2365C15.9757 18.3412 15.5281 18.3935 15.0789 18.3928C12.2468 18.3943 9.8226 16.3607 9.3312 13.5717C8.83979 10.7818 10.4234 8.04277 13.0859 7.07636C15.7476 6.10996 18.7195 7.19589 20.132 9.65136C21.5445 12.106 20.9882 15.2209 18.8148 17.0365Z" fill="#6FE3FF"/>
</g>
<defs>
<clipPath id="clip0_1_22235">
<rect width="92" height="92" fill="white" transform="translate(0 0.154297)"/>
</clipPath>
</defs>
</svg>
