<svg width="17" height="16" viewBox="0 0 17 16" fill="none" xmlns="http://www.w3.org/2000/svg">
<path d="M13.8333 6.66699C13.6565 6.66699 13.487 6.73723 13.3619 6.86225C13.2369 6.98728 13.1667 7.15685 13.1667 7.33366V14.0003H3.83333V2.00033H7.83333C8.01014 2.00033 8.17971 1.93009 8.30474 1.80506C8.42976 1.68004 8.5 1.51047 8.5 1.33366C8.5 1.15685 8.42976 0.987279 8.30474 0.862254C8.17971 0.73723 8.01014 0.666992 7.83333 0.666992H3.16667C2.98986 0.666992 2.82029 0.73723 2.69526 0.862254C2.57024 0.987279 2.5 1.15685 2.5 1.33366V14.667C2.5 14.8438 2.57024 15.0134 2.69526 15.1384C2.82029 15.2634 2.98986 15.3337 3.16667 15.3337H13.8333C14.0101 15.3337 14.1797 15.2634 14.3047 15.1384C14.4298 15.0134 14.5 14.8438 14.5 14.667V7.33366C14.5 7.15685 14.4298 6.98728 14.3047 6.86225C14.1797 6.73723 14.0101 6.66699 13.8333 6.66699Z" fill="black"/>
<path d="M9.83366 6.00018H13.8337C13.9655 6.00016 14.0944 5.96104 14.204 5.88778C14.3136 5.81453 14.399 5.71042 14.4494 5.58862C14.4999 5.46682 14.5131 5.3328 14.4874 5.2035C14.4617 5.07419 14.3982 4.95542 14.305 4.86218L10.305 0.862183C10.2118 0.768977 10.093 0.705506 9.96368 0.679795C9.83438 0.654083 9.70036 0.667285 9.57856 0.717732C9.45676 0.768178 9.35265 0.853605 9.27939 0.963211C9.20613 1.07282 9.16702 1.20168 9.16699 1.33352V5.33352C9.16699 5.51033 9.23723 5.6799 9.36225 5.80492C9.48728 5.92995 9.65685 6.00018 9.83366 6.00018ZM10.5003 2.94285L12.2243 4.66685H10.5003V2.94285Z" fill="black"/>
</svg>
