<svg width="15" height="9" viewBox="0 0 15 9" fill="none" xmlns="http://www.w3.org/2000/svg">
<rect x="6" y="0.5" width="9" height="1.63636" rx="0.5" fill="#A9A9A9"/>
<rect x="6" y="3.77271" width="7.36364" height="1.63636" rx="0.5" fill="#A9A9A9"/>
<rect x="6" y="7.04541" width="5.72727" height="1.63636" rx="0.5" fill="#A9A9A9"/>
<path d="M2.40437 7.15803C2.40437 6.81018 2.40437 6.4913 2.40437 6.17244C2.40437 3.72294 2.40437 3.37404 2.40437 0.924547C2.40437 0.61534 2.12315 0.414839 1.8494 0.535623C1.68764 0.605678 1.60551 0.731293 1.60551 0.910053C1.60551 1.85941 1.60551 0.70817 1.60551 1.65995C1.60551 3.44997 1.60551 5.2424 1.60551 7.03242C1.60551 7.06624 1.60551 7.10247 1.60551 7.16045C1.55574 7.11697 1.52588 7.09281 1.4985 7.06382C1.22972 6.80534 0.960949 6.54445 0.689685 6.28839C0.515479 6.12412 0.2915 6.12412 0.122271 6.28356C-0.0419807 6.44058 -0.0419807 6.66765 0.129737 6.83433C0.654844 7.34646 1.18244 7.85858 1.71004 8.36829C1.88673 8.5398 2.11818 8.54463 2.28741 8.37795C2.815 7.86824 3.3426 7.3537 3.8677 6.844C3.97969 6.73529 4.02698 6.60967 3.98467 6.45749C3.94236 6.30771 3.84033 6.2135 3.68603 6.17968C3.53422 6.14586 3.40979 6.19659 3.30029 6.30047C3.03649 6.55411 2.77518 6.80776 2.51138 7.06141C2.4865 7.08556 2.45663 7.11214 2.40437 7.15803Z" fill="#A9A9A9"/>
</svg>
