<svg width="12" height="13" viewBox="0 0 12 13" fill="none" xmlns="http://www.w3.org/2000/svg">
<path fill-rule="evenodd" clip-rule="evenodd" d="M11.8944 1.90626L11.8944 1.43064C11.8944 1.31224 11.8433 1.2004 11.7502 1.11464C11.6649 1.0236 11.5544 0.973585 11.4374 0.973742L11.3889 0.973741C11.3849 0.973665 11.3809 0.973629 11.3769 0.973633L10.9385 0.973682C10.9357 0.97368 10.9328 0.973698 10.93 0.973736L1.80019 0.973639L1.79785 0.973633L1.77457 0.973638L1.2988 0.973633C1.1804 0.973686 1.06857 1.02481 0.982806 1.11785C0.891765 1.20314 0.841749 1.31365 0.841906 1.43068L0.841906 1.47928L0.841799 1.49116L0.841847 1.92958L0.841901 1.938L0.841802 11.0679L0.841797 11.0702L0.841802 11.0936L0.841797 11.5693C0.84185 11.6877 0.892972 11.7995 0.98602 11.8853C1.07131 11.9763 1.18181 12.0263 1.29885 12.0262L1.3474 12.0262L1.35932 12.0263L1.79774 12.0262L1.80624 12.0262L10.936 12.0263C10.9368 12.0263 10.9376 12.0263 10.9384 12.0263L10.9615 12.0263L11.4374 12.0263C11.5558 12.0262 11.6677 11.9751 11.7534 11.882C11.8445 11.7968 11.8945 11.6863 11.8943 11.5692L11.8943 11.5207C11.8944 11.5167 11.8944 11.5127 11.8944 11.5087L11.8944 11.0703C11.8944 11.0675 11.8944 11.0647 11.8943 11.0618L11.8944 1.93203C11.8944 1.93125 11.8944 1.93047 11.8944 1.92969L11.8944 1.90626ZM10.4208 2.44731L2.31547 2.44722L2.31538 10.5526L10.4208 10.5527L10.4208 2.44731Z" fill="#C4C4C4"/>
</svg>
