<svg width="25" height="22" viewBox="0 0 25 22" fill="none" xmlns="http://www.w3.org/2000/svg">
<path d="M12.4969 22L12.2111 21.8517C12.0931 21.7899 9.26624 20.3253 6.39594 17.7916C4.69984 16.2899 3.34546 14.7326 2.37005 13.1506C1.12749 11.136 0.5 9.08427 0.5 7.0573C0.5 5.28989 1.20826 3.50393 2.4446 2.1691C3.73686 0.772472 5.42674 0 7.2036 0C9.29109 0 11.2419 0.970225 12.5031 2.58315C13.7581 0.970225 15.7089 0 17.7964 0C19.5733 0 21.2631 0.772472 22.5554 2.1691C23.7917 3.51011 24.5 5.28989 24.5 7.0573C24.5 9.08427 23.8725 11.136 22.63 13.1444C21.6545 14.7264 20.3002 16.2899 18.6041 17.7854C15.7338 20.3191 12.9069 21.7899 12.7889 21.8455L12.4969 22ZM7.2036 1.23595C4.29601 1.23595 1.74256 3.95506 1.74256 7.0573C1.74256 11.1607 4.7247 14.6584 7.22224 16.8646C9.46505 18.8421 11.7203 20.1646 12.4969 20.5972C13.2797 20.1646 15.5536 18.8298 17.7964 16.8461C20.2877 14.6399 23.2574 11.1545 23.2574 7.0573C23.2574 3.95506 20.704 1.23595 17.7964 1.23595C15.8269 1.23595 14.0066 2.29888 13.0436 4.00449L12.5031 4.96236L11.9626 4.00449C10.9934 2.29888 9.17305 1.23595 7.2036 1.23595Z" fill="#A6A6A6"/>
</svg>
