<svg width="64" height="64" viewBox="0 0 64 64" fill="none" xmlns="http://www.w3.org/2000/svg">
<path d="M51 57.25H13C11.343 57.2481 9.75436 56.589 8.58267 55.4173C7.41097 54.2456 6.75189 52.657 6.75 51V29C6.75189 27.343 7.41097 25.7544 8.58267 24.5827C9.75436 23.411 11.343 22.7519 13 22.75H51C52.657 22.7519 54.2456 23.411 55.4173 24.5827C56.589 25.7544 57.2481 27.343 57.25 29V51C57.2481 52.657 56.589 54.2456 55.4173 55.4173C54.2456 56.589 52.657 57.2481 51 57.25Z" fill="url(#paint0_linear_1_10152)"/>
<path d="M32 43.3285C31.1209 43.3298 30.2625 43.0615 29.5406 42.5599L13.5 31.3839V10.5C13.5011 9.50578 13.8966 8.55261 14.5996 7.84959C15.3026 7.14657 16.2558 6.75112 17.25 6.75H46.75C47.7442 6.75112 48.6974 7.14657 49.4004 7.84959C50.1034 8.55261 50.4989 9.50578 50.5 10.5V31.3839L34.4595 42.5599C33.7375 43.0615 32.8791 43.3298 32 43.3285Z" fill="url(#paint1_linear_1_10152)"/>
<path d="M43.5 16.75H20.5C20.1685 16.75 19.8505 16.6183 19.6161 16.3839C19.3817 16.1495 19.25 15.8315 19.25 15.5C19.25 15.1685 19.3817 14.8505 19.6161 14.6161C19.8505 14.3817 20.1685 14.25 20.5 14.25H43.5C43.8315 14.25 44.1495 14.3817 44.3839 14.6161C44.6183 14.8505 44.75 15.1685 44.75 15.5C44.75 15.8315 44.6183 16.1495 44.3839 16.3839C44.1495 16.6183 43.8315 16.75 43.5 16.75Z" fill="url(#paint2_linear_1_10152)"/>
<path d="M38.5 25H20.5C20.1685 25 19.8505 24.8683 19.6161 24.6339C19.3817 24.3995 19.25 24.0815 19.25 23.75C19.25 23.4185 19.3817 23.1005 19.6161 22.8661C19.8505 22.6317 20.1685 22.5 20.5 22.5H38.5C38.8315 22.5 39.1495 22.6317 39.3839 22.8661C39.6183 23.1005 39.75 23.4185 39.75 23.75C39.75 24.0815 39.6183 24.3995 39.3839 24.6339C39.1495 24.8683 38.8315 25 38.5 25Z" fill="url(#paint3_linear_1_10152)"/>
<path d="M35.8587 42.3001L51.4787 30.6251C51.7427 30.4261 51.9171 30.1306 51.9637 29.8032C52.0104 29.4759 51.9254 29.1435 51.7275 28.8786C51.5296 28.6138 51.2348 28.4382 50.9077 28.3902C50.5805 28.3422 50.2477 28.4258 49.9821 28.6226L34.362 40.2976C33.6786 40.8038 32.8507 41.0771 32.0003 41.0771C31.1499 41.0771 30.322 40.8038 29.6387 40.2976L14.0186 28.6226C13.7529 28.4258 13.4201 28.3422 13.093 28.3902C12.7659 28.4382 12.4711 28.6138 12.2732 28.8786C12.0752 29.1435 11.9903 29.4759 12.0369 29.8032C12.0835 30.1306 12.2579 30.4261 12.522 30.6251L28.142 42.3001C29.2584 43.1271 30.611 43.5735 32.0003 43.5735C33.3897 43.5735 34.7423 43.1271 35.8587 42.3001Z" fill="url(#paint4_linear_1_10152)"/>
<path d="M50.7294 50.8744C50.4123 50.8747 50.1069 50.754 49.8757 50.5369L42.5423 43.6761C42.3073 43.4479 42.1713 43.1366 42.1634 42.8092C42.1556 42.4817 42.2766 42.1643 42.5004 41.9252C42.7242 41.686 43.033 41.5443 43.3602 41.5304C43.6875 41.5166 44.0071 41.6317 44.2503 41.8511L51.5837 48.7119C51.7667 48.8832 51.894 49.1057 51.949 49.3503C52.0039 49.5949 51.9841 49.8504 51.892 50.0836C51.7998 50.3168 51.6397 50.5169 51.4324 50.6579C51.2251 50.7989 50.9802 50.8744 50.7294 50.8744Z" fill="url(#paint5_linear_1_10152)"/>
<path d="M14.1237 50.5369L21.4571 43.6761C21.6903 43.4476 21.8249 43.1369 21.832 42.8105C21.8391 42.484 21.7182 42.1677 21.4952 41.9293C21.2721 41.6908 20.9646 41.5491 20.6384 41.5345C20.3122 41.5198 19.9932 41.6334 19.7497 41.8509L12.4157 48.7119C12.2924 48.8231 12.1925 48.9578 12.1218 49.1081C12.0511 49.2584 12.0111 49.4213 12.004 49.5872C11.997 49.7531 12.0231 49.9188 12.0809 50.0746C12.1386 50.2303 12.2268 50.3729 12.3403 50.4942C12.4538 50.6155 12.5903 50.7129 12.7419 50.7808C12.8934 50.8487 13.057 50.8857 13.223 50.8897C13.3891 50.8937 13.5542 50.8645 13.7089 50.8039C13.8635 50.7434 14.0045 50.6526 14.1237 50.5369Z" fill="url(#paint6_linear_1_10152)"/>
<defs>
<linearGradient id="paint0_linear_1_10152" x1="66.3025" y1="74.3025" x2="11.1564" y2="19.1564" gradientUnits="userSpaceOnUse">
<stop stop-color="#F2994A"/>
<stop offset="0.816" stop-color="#F2C04C"/>
<stop offset="1" stop-color="#F2C94C"/>
</linearGradient>
<linearGradient id="paint1_linear_1_10152" x1="53.5543" y1="41.7207" x2="11.0079" y2="-0.825629" gradientUnits="userSpaceOnUse">
<stop stop-color="#B3B3B3"/>
<stop offset="1" stop-color="white"/>
</linearGradient>
<linearGradient id="paint2_linear_1_10152" x1="32" y1="18.24" x2="32" y2="12.6" gradientUnits="userSpaceOnUse">
<stop stop-color="#B3B3B3"/>
<stop offset="1" stop-color="#666666"/>
</linearGradient>
<linearGradient id="paint3_linear_1_10152" x1="4857.25" y1="552.9" x2="4857.25" y2="446.96" gradientUnits="userSpaceOnUse">
<stop stop-color="#B3B3B3"/>
<stop offset="1" stop-color="#666666"/>
</linearGradient>
<linearGradient id="paint4_linear_1_10152" x1="32.0003" y1="47.9744" x2="32.0003" y2="22.8514" gradientUnits="userSpaceOnUse">
<stop stop-color="#CC793B"/>
<stop offset="1" stop-color="#F1A54D"/>
</linearGradient>
<linearGradient id="paint5_linear_1_10152" x1="3573.79" y1="3651.45" x2="3867.79" y2="3342.63" gradientUnits="userSpaceOnUse">
<stop stop-color="#CC793B"/>
<stop offset="1" stop-color="#F1A54D"/>
</linearGradient>
<linearGradient id="paint6_linear_1_10152" x1="1521.28" y1="3668.36" x2="1190.96" y2="3321.36" gradientUnits="userSpaceOnUse">
<stop stop-color="#CC793B"/>
<stop offset="1" stop-color="#F1A54D"/>
</linearGradient>
</defs>
</svg>
