<svg width="19" height="19" viewBox="0 0 19 19" fill="none" xmlns="http://www.w3.org/2000/svg">
<g clip-path="url(#clip0_2541_2215)">
<path d="M9.07256 13.0043C8.55791 13.0043 8.14124 13.4332 8.14124 13.9479C8.14124 14.4503 8.54564 14.8915 9.07256 14.8915C9.59948 14.8915 10.0162 14.4504 10.0162 13.9479C10.0162 13.4332 9.58728 13.0043 9.07256 13.0043Z" fill="#686777"/>
<path d="M9.23186 5.85992C7.57751 5.85992 6.81775 6.84026 6.81775 7.502C6.81775 7.97995 7.22212 8.20052 7.55301 8.20052C8.21472 8.20052 7.94514 7.25693 9.19508 7.25693C9.80782 7.25693 10.298 7.52654 10.298 8.09024C10.298 8.75202 9.61176 9.13188 9.20735 9.47501C8.85199 9.78136 8.38632 10.2838 8.38632 11.3377C8.38632 11.9749 8.55784 12.1587 9.0603 12.1587C9.66076 12.1587 9.78328 11.8892 9.78328 11.6563C9.78328 11.0191 9.79559 10.6514 10.4696 10.1245C10.8004 9.86717 11.8421 9.03387 11.8421 7.88194C11.8421 6.73001 10.8004 5.85992 9.23186 5.85992Z" fill="#686777"/>
<path d="M9.34827 0.937988C4.37422 0.937988 0.348267 4.96327 0.348267 9.93799V18.2349C0.348267 18.6232 0.663056 18.938 1.05139 18.938H9.34827C14.3223 18.938 18.3483 14.9127 18.3483 9.93799C18.3483 4.96394 14.323 0.937988 9.34827 0.937988ZM9.34827 17.5317H1.75452V9.93799C1.75452 5.74114 5.15086 2.34424 9.34827 2.34424C13.5451 2.34424 16.942 5.74058 16.942 9.93799C16.942 14.1348 13.5457 17.5317 9.34827 17.5317Z" fill="#686777"/>
</g>
<defs>
<clipPath id="clip0_2541_2215">
<rect width="18" height="18" fill="white" transform="translate(0.348267 0.937988)"/>
</clipPath>
</defs>
</svg>
