<svg width="16" height="16" viewBox="0 0 16 16" fill="none" xmlns="http://www.w3.org/2000/svg">
<g clip-path="url(#clip0_1221_13747)">
<path d="M8 0C3.5888 0 0 3.58885 0 8.00005C0 12.4112 3.5888 16 8 16C12.4112 16 16 12.4112 16 8.00005C16 3.58885 12.4112 0 8 0ZM8 14.5455C4.39079 14.5455 1.45455 11.6092 1.45455 8.00005C1.45455 4.39088 4.39079 1.45455 8 1.45455C11.6092 1.45455 14.5455 4.39088 14.5455 8.00005C14.5455 11.6092 11.6092 14.5455 8 14.5455Z" fill="#E11A7D"/>
<path d="M7.99978 3.39404C7.46518 3.39404 7.03027 3.82924 7.03027 4.36418C7.03027 4.89863 7.46518 5.33344 7.99978 5.33344C8.53437 5.33344 8.96928 4.89863 8.96928 4.36418C8.96928 3.82924 8.53437 3.39404 7.99978 3.39404Z" fill="#E11A7D"/>
<path d="M7.99973 6.78809C7.59809 6.78809 7.27246 7.11371 7.27246 7.51536V11.879C7.27246 12.2806 7.59809 12.6063 7.99973 12.6063C8.40138 12.6063 8.72701 12.2806 8.72701 11.879V7.51536C8.72701 7.11371 8.40138 6.78809 7.99973 6.78809Z" fill="#E11A7D"/>
</g>
<defs>
<clipPath id="clip0_1221_13747">
<rect width="16" height="16" fill="white"/>
</clipPath>
</defs>
</svg>
