<svg width="8" height="14" viewBox="0 0 8 14" fill="none" xmlns="http://www.w3.org/2000/svg">
<path d="M7.49712 13.033C7.50258 12.8744 7.39337 12.6721 7.24049 12.4916C6.22489 11.3104 5.21475 10.1291 4.20461 8.94786C3.69135 8.3463 3.17809 7.74474 2.65937 7.14318C2.56108 7.0338 2.56654 6.96271 2.65937 6.85333C4.16639 5.09239 5.67341 3.32599 7.18589 1.56505C7.50804 1.18771 7.57902 0.815831 7.38791 0.460362C7.09306 -0.0810439 6.37231 -0.163075 5.95188 0.312706C5.49868 0.8213 5.06186 1.3463 4.61958 1.86583C3.34735 3.35333 2.07512 4.8463 0.797431 6.3338C0.404295 6.79318 0.404295 7.20333 0.797431 7.66818C2.48464 9.63693 4.17185 11.6111 5.85905 13.5799C6.11568 13.8807 6.40507 14.0721 6.82005 13.9736C7.22411 13.8807 7.49712 13.5361 7.49712 13.033Z" fill="black"/>
</svg>
