<svg width="50" height="50" viewBox="0 0 50 50" fill="none" xmlns="http://www.w3.org/2000/svg">
<path d="M39.8438 16.4062V38.2812C39.8438 39.1101 39.5145 39.9049 38.9285 40.491C38.3424 41.077 37.5476 41.4062 36.7188 41.4062H17.9688L14.0625 47.6562L10.1562 41.4062H5.46875C4.63995 41.4062 3.84509 41.077 3.25904 40.491C2.67299 39.9049 2.34375 39.1101 2.34375 38.2812V16.4062C2.34375 15.5774 2.67299 14.7826 3.25904 14.1965C3.84509 13.6105 4.63995 13.2812 5.46875 13.2812H36.7188C37.5476 13.2812 38.3424 13.6105 38.9285 14.1965C39.5145 14.7826 39.8438 15.5774 39.8438 16.4062Z" fill="#57A4FF"/>
<path d="M12.8906 45.7812L14.0625 47.6562L17.9688 41.4062H15.625L12.8906 45.7812Z" fill="#2488FF"/>
<path d="M36.7188 13.2812H34.375C35.2038 13.2812 35.9987 13.6105 36.5847 14.1965C37.1708 14.7826 37.5 15.5774 37.5 16.4062V38.2812C37.5 39.1101 37.1708 39.9049 36.5847 40.491C35.9987 41.077 35.2038 41.4062 34.375 41.4062H36.7188C37.5476 41.4062 38.3424 41.077 38.9285 40.491C39.5145 39.9049 39.8438 39.1101 39.8438 38.2812V16.4062C39.8438 15.5774 39.5145 14.7826 38.9285 14.1965C38.3424 13.6105 37.5476 13.2812 36.7188 13.2812Z" fill="#2488FF"/>
<path d="M21.0938 28.9062C21.9567 28.9062 22.6562 28.2067 22.6562 27.3438C22.6562 26.4808 21.9567 25.7812 21.0938 25.7812C20.2308 25.7812 19.5312 26.4808 19.5312 27.3438C19.5312 28.2067 20.2308 28.9062 21.0938 28.9062Z" fill="#F1F2F2"/>
<path d="M13.2812 28.9062C14.1442 28.9062 14.8438 28.2067 14.8438 27.3438C14.8438 26.4808 14.1442 25.7812 13.2812 25.7812C12.4183 25.7812 11.7188 26.4808 11.7188 27.3438C11.7188 28.2067 12.4183 28.9062 13.2812 28.9062Z" fill="#F1F2F2"/>
<path d="M28.9062 28.9062C29.7692 28.9062 30.4688 28.2067 30.4688 27.3438C30.4688 26.4808 29.7692 25.7812 28.9062 25.7812C28.0433 25.7812 27.3438 26.4808 27.3438 27.3438C27.3438 28.2067 28.0433 28.9062 28.9062 28.9062Z" fill="#F1F2F2"/>
<path d="M46.0938 2.34375H24.2188C23.8043 2.34375 23.4069 2.50837 23.1139 2.8014C22.8209 3.09442 22.6562 3.49185 22.6562 3.90625V14.8438C22.6562 15.2582 22.8209 15.6556 23.1139 15.9486C23.4069 16.2416 23.8043 16.4062 24.2188 16.4062H46.0938C46.5082 16.4062 46.9056 16.2416 47.1986 15.9486C47.4916 15.6556 47.6562 15.2582 47.6562 14.8438V3.90625C47.6562 3.49185 47.4916 3.09442 47.1986 2.8014C46.9056 2.50837 46.5082 2.34375 46.0938 2.34375Z" fill="#ED1C24"/>
<path d="M28.9062 12.5H26.5625V5.46875C26.5625 5.26155 26.4802 5.06284 26.3337 4.91632C26.1872 4.76981 25.9885 4.6875 25.7812 4.6875C25.574 4.6875 25.3753 4.76981 25.2288 4.91632C25.0823 5.06284 25 5.26155 25 5.46875V13.2812C25 13.4885 25.0823 13.6872 25.2288 13.8337C25.3753 13.9802 25.574 14.0625 25.7812 14.0625H28.9062C29.1135 14.0625 29.3122 13.9802 29.4587 13.8337C29.6052 13.6872 29.6875 13.4885 29.6875 13.2812C29.6875 13.074 29.6052 12.8753 29.4587 12.7288C29.3122 12.5823 29.1135 12.5 28.9062 12.5Z" fill="#F1F2F2"/>
<path d="M44.5312 6.25C44.7385 6.25 44.9372 6.16769 45.0837 6.02118C45.2302 5.87466 45.3125 5.67595 45.3125 5.46875C45.3125 5.26155 45.2302 5.06284 45.0837 4.91632C44.9372 4.76981 44.7385 4.6875 44.5312 4.6875H41.4062C41.199 4.6875 41.0003 4.76981 40.8538 4.91632C40.7073 5.06284 40.625 5.26155 40.625 5.46875V13.2812C40.625 13.4885 40.7073 13.6872 40.8538 13.8337C41.0003 13.9802 41.199 14.0625 41.4062 14.0625H44.5312C44.7385 14.0625 44.9372 13.9802 45.0837 13.8337C45.2302 13.6872 45.3125 13.4885 45.3125 13.2812C45.3125 13.074 45.2302 12.8753 45.0837 12.7288C44.9372 12.5823 44.7385 12.5 44.5312 12.5H42.1875V10.1562H43.75C43.9572 10.1562 44.1559 10.0739 44.3024 9.92743C44.4489 9.78091 44.5312 9.5822 44.5312 9.375C44.5312 9.1678 44.4489 8.96909 44.3024 8.82257C44.1559 8.67606 43.9572 8.59375 43.75 8.59375H42.1875V6.25H44.5312Z" fill="#F1F2F2"/>
<path d="M31.25 4.6875C31.0428 4.6875 30.8441 4.76981 30.6976 4.91632C30.5511 5.06284 30.4688 5.26155 30.4688 5.46875V13.2812C30.4688 13.4885 30.5511 13.6872 30.6976 13.8337C30.8441 13.9802 31.0428 14.0625 31.25 14.0625C31.4572 14.0625 31.6559 13.9802 31.8024 13.8337C31.9489 13.6872 32.0312 13.4885 32.0312 13.2812V5.46875C32.0312 5.26155 31.9489 5.06284 31.8024 4.91632C31.6559 4.76981 31.4572 4.6875 31.25 4.6875Z" fill="#F1F2F2"/>
<path d="M38.5055 4.72038C38.4072 4.69093 38.3041 4.68112 38.202 4.69153C38.1 4.70193 38.0009 4.73235 37.9106 4.78102C37.8203 4.8297 37.7404 4.8957 37.6756 4.97524C37.6108 5.05478 37.5623 5.14631 37.5329 5.2446L35.9376 10.5626L34.3422 5.2446C34.3128 5.14631 34.2643 5.05479 34.1995 4.97525C34.1346 4.89571 34.0548 4.82972 33.9645 4.78104C33.8742 4.73237 33.7751 4.70195 33.6731 4.69154C33.571 4.68113 33.4679 4.69093 33.3696 4.72038C33.1711 4.77984 33.0043 4.91573 32.906 5.09814C32.8574 5.18846 32.8269 5.28748 32.8165 5.38955C32.8061 5.49162 32.8159 5.59475 32.8454 5.69303L35.1891 13.5055C35.2373 13.6666 35.3362 13.8078 35.471 13.9081C35.6058 14.0085 35.7695 14.0627 35.9376 14.0627C36.1057 14.0627 36.2693 14.0085 36.4041 13.9081C36.5389 13.8078 36.6378 13.6666 36.686 13.5055L39.0297 5.69303C39.0592 5.59475 39.069 5.49162 39.0586 5.38955C39.0482 5.28747 39.0178 5.18845 38.9691 5.09813C38.9204 5.0078 38.8544 4.92796 38.7749 4.86314C38.6953 4.79833 38.6038 4.74982 38.5055 4.72038Z" fill="#F1F2F2"/>
</svg>
