<svg width="13" height="10" viewBox="0 0 13 10" fill="none" xmlns="http://www.w3.org/2000/svg">
<path d="M0.589916 3.97212C0.584695 4.42576 0.864334 4.83402 1.2892 4.99309V3.04907C1.2892 3.02109 1.30317 2.97915 1.30317 2.95117C0.875444 3.10895 0.59096 3.51617 0.589916 3.97212Z" fill="#A6A6A6"/>
<path d="M4.40834 6.37793H2.57617L3.26148 8.86743C3.36297 9.24735 3.70739 9.5114 4.10064 9.51079C4.38044 9.51411 4.64517 9.38433 4.81393 9.16115C4.98432 8.94881 5.03687 8.66518 4.95378 8.40591L4.40834 6.37793Z" fill="#A6A6A6"/>
<path d="M1.30347 2.93683H1.31744V2.92285C1.31744 2.93683 1.31744 2.93683 1.30347 2.93683Z" fill="#A6A6A6"/>
<path d="M11.3311 2.74121H11.2192V5.25868H11.3311C12.0263 5.25868 12.5899 4.69512 12.5899 3.99996C12.5899 3.30477 12.0263 2.74121 11.3311 2.74121Z" fill="#A6A6A6"/>
<path d="M1.70874 3.04877V5.03478C1.72387 5.54908 2.14528 5.95808 2.65977 5.95786H5.20522V2.18164H2.65977C2.15628 2.18164 1.70874 2.54528 1.70874 3.04877Z" fill="#A6A6A6"/>
<path d="M5.62451 6.01395L10.7993 8.08388V0L5.62451 2.06993V6.01395Z" fill="#A6A6A6"/>
</svg>
