<svg width="64" height="64" viewBox="0 0 64 64" fill="none" xmlns="http://www.w3.org/2000/svg">
<path d="M49.9664 42.2626H16.2012C15.207 42.2615 14.2538 41.866 13.5508 41.163C12.8477 40.46 12.4523 39.5068 12.4512 38.5126V18.8437C12.4523 17.8495 12.8477 16.8964 13.5508 16.1933C14.2538 15.4903 15.207 15.0949 16.2012 15.0938H49.9664C50.9607 15.0949 51.9138 15.4903 52.6168 16.1933C53.3199 16.8964 53.7153 17.8495 53.7164 18.8437V38.5126C53.7153 39.5068 53.3199 40.46 52.6168 41.163C51.9138 41.866 50.9607 42.2615 49.9664 42.2626Z" fill="url(#paint0_linear_1_10139)"/>
<path d="M52.3415 39.7024H15.4654C14.6458 39.7014 13.8601 39.3754 13.2805 38.7958C12.701 38.2163 12.375 37.4306 12.374 36.611V18.1599C12.3749 17.3402 12.7009 16.5545 13.2805 15.9749C13.86 15.3953 14.6458 15.0693 15.4654 15.0684H52.3415C53.1611 15.0693 53.9469 15.3953 54.5264 15.9749C55.106 16.5545 55.432 17.3402 55.4329 18.1599V36.611C55.432 37.4306 55.106 38.2163 54.5264 38.7959C53.9469 39.3754 53.1611 39.7014 52.3415 39.7024Z" fill="url(#paint1_linear_1_10139)"/>
<path d="M45.6236 46.6044H11.8584C10.8642 46.6033 9.91101 46.2078 9.20799 45.5048C8.50497 44.8018 8.10952 43.8486 8.1084 42.8544V23.1855C8.10952 22.1913 8.50497 21.2382 9.20799 20.5351C9.91101 19.8321 10.8642 19.4367 11.8584 19.4355H45.6236C46.6179 19.4367 47.571 19.8321 48.274 20.5351C48.9771 21.2382 49.3725 22.1913 49.3736 23.1855V42.8544C49.3725 43.8486 48.9771 44.8018 48.274 45.5048C47.571 46.2078 46.6179 46.6033 45.6236 46.6044Z" fill="url(#paint2_linear_1_10139)"/>
<path d="M8.1084 25.834H49.3736V28.334H8.1084V25.834Z" fill="url(#paint3_linear_1_10139)"/>
<path d="M21.6929 41.3184H14.6445C14.313 41.3184 13.9951 41.1867 13.7606 40.9522C13.5262 40.7178 13.3945 40.3999 13.3945 40.0684C13.3945 39.7368 13.5262 39.4189 13.7606 39.1845C13.9951 38.9501 14.313 38.8184 14.6445 38.8184H21.6929C22.0244 38.8184 22.3424 38.9501 22.5768 39.1845C22.8112 39.4189 22.9429 39.7368 22.9429 40.0684C22.9429 40.3999 22.8112 40.7178 22.5768 40.9522C22.3424 41.1867 22.0244 41.3184 21.6929 41.3184Z" fill="url(#paint4_linear_1_10139)"/>
<path d="M14.6445 36.6576C14.313 36.6576 13.9951 36.5259 13.7606 36.2915C13.5262 36.0571 13.3945 35.7391 13.3945 35.4076C13.3945 35.0761 13.5262 34.7582 13.7606 34.5237C13.9951 34.2893 14.313 34.1576 14.6445 34.1576L27.5827 34.1562C27.9142 34.1562 28.2321 34.2879 28.4665 34.5224C28.701 34.7568 28.8327 35.0747 28.8327 35.4062C28.8327 35.7378 28.701 36.0557 28.4665 36.2901C28.2321 36.5246 27.9142 36.6562 27.5827 36.6562L14.6445 36.6576Z" fill="url(#paint5_linear_1_10139)"/>
<path d="M39.9179 42.2908C38.9307 42.2908 37.9657 41.9981 37.145 41.4497C36.3242 40.9012 35.6844 40.1217 35.3067 39.2097C34.9289 38.2977 34.8301 37.2941 35.0227 36.326C35.2153 35.3578 35.6906 34.4684 36.3887 33.7704C37.0867 33.0724 37.9761 32.5971 38.9442 32.4045C39.9124 32.2119 40.916 32.3108 41.828 32.6886C42.74 33.0663 43.5195 33.7061 44.0679 34.5269C44.6163 35.3477 44.909 36.3127 44.909 37.2998C44.9075 38.6231 44.3812 39.8917 43.4455 40.8274C42.5098 41.763 41.2411 42.2894 39.9179 42.2908ZM39.9179 34.8087C39.4252 34.8087 38.9436 34.9548 38.5339 35.2286C38.1242 35.5023 37.8049 35.8913 37.6164 36.3465C37.4278 36.8017 37.3785 37.3026 37.4746 37.7858C37.5707 38.2691 37.808 38.7129 38.1564 39.0613C38.5048 39.4097 38.9487 39.647 39.4319 39.7431C39.9151 39.8392 40.416 39.7899 40.8712 39.6013C41.3264 39.4128 41.7155 39.0935 41.9892 38.6838C42.2629 38.2742 42.409 37.7925 42.409 37.2998C42.4083 36.6394 42.1456 36.0062 41.6786 35.5392C41.2116 35.0721 40.5784 34.8095 39.9179 34.8087Z" fill="url(#paint6_linear_1_10139)"/>
<defs>
<linearGradient id="paint0_linear_1_10139" x1="53.0233" y1="48.6176" x2="7.95821" y2="3.55259" gradientUnits="userSpaceOnUse">
<stop stop-color="#2F80ED"/>
<stop offset="1" stop-color="#56CCF2"/>
</linearGradient>
<linearGradient id="paint1_linear_1_10139" x1="56.267" y1="49.749" x2="14.1369" y2="7.61874" gradientUnits="userSpaceOnUse">
<stop stop-color="#0C9258"/>
<stop offset="1" stop-color="#89D935"/>
</linearGradient>
<linearGradient id="paint2_linear_1_10139" x1="19019.9" y1="13466.9" x2="10022.3" y2="-198.99" gradientUnits="userSpaceOnUse">
<stop stop-color="#2F80ED"/>
<stop offset="1" stop-color="#56CCF2"/>
</linearGradient>
<linearGradient id="paint3_linear_1_10139" x1="15852.8" y1="952.604" x2="15802.8" y2="127.223" gradientUnits="userSpaceOnUse">
<stop stop-color="#3C95EC"/>
<stop offset="1" stop-color="white"/>
</linearGradient>
<linearGradient id="paint4_linear_1_10139" x1="2086.72" y1="1019.67" x2="1989.12" y2="646.909" gradientUnits="userSpaceOnUse">
<stop stop-color="#3C95EC"/>
<stop offset="1" stop-color="white"/>
</linearGradient>
<linearGradient id="paint5_linear_1_10139" x1="4074.35" y1="978.157" x2="3982.48" y2="411.187" gradientUnits="userSpaceOnUse">
<stop stop-color="#3C95EC"/>
<stop offset="1" stop-color="white"/>
</linearGradient>
<linearGradient id="paint6_linear_1_10139" x1="4160.14" y1="3948.4" x2="2999.76" y2="2788.01" gradientUnits="userSpaceOnUse">
<stop stop-color="#3C95EC"/>
<stop offset="1" stop-color="white"/>
</linearGradient>
</defs>
</svg>
