<svg width="24" height="24" viewBox="0 0 24 24" fill="none" xmlns="http://www.w3.org/2000/svg">
<g clip-path="url(#clip0_1530_1509)">
<path d="M22.4042 12.3109C22.3076 12.1134 22.3076 11.8868 22.4042 11.6892L23.2993 9.85808C23.7977 8.8385 23.4028 7.62328 22.4003 7.09139L20.5999 6.13608C20.4056 6.03305 20.2724 5.84968 20.2344 5.63316L19.8823 3.62557C19.6862 2.50779 18.6523 1.75667 17.5288 1.91562L15.5107 2.20109C15.2929 2.23184 15.0775 2.16181 14.9195 2.00895L13.4546 0.591834C12.6389 -0.197255 11.3611 -0.197302 10.5455 0.591834L9.08059 2.00909C8.92253 2.162 8.70714 2.23189 8.48936 2.20123L6.47126 1.91576C5.34744 1.75672 4.31386 2.50793 4.11778 3.62571L3.76566 5.63321C3.72764 5.84977 3.59447 6.0331 3.40027 6.13618L1.59981 7.09148C0.597345 7.62332 0.202473 8.83865 0.700845 9.85822L1.59592 11.6893C1.69248 11.8869 1.69248 12.1135 1.59592 12.311L0.700798 14.1421C0.202426 15.1617 0.597298 16.3769 1.59976 16.9088L3.40022 17.8641C3.59447 17.9672 3.72764 18.1505 3.76566 18.3671L4.11778 20.3747C4.29628 21.3922 5.1688 22.1058 6.17159 22.1057C6.27036 22.1057 6.37058 22.0988 6.47131 22.0846L8.48941 21.7991C8.70705 21.7682 8.92258 21.8384 9.08064 21.9912L10.5455 23.4083C10.9534 23.8029 11.4766 24.0002 12 24.0001C12.5233 24.0001 13.0469 23.8028 13.4546 23.4083L14.9195 21.9912C15.0776 21.8384 15.293 21.7685 15.5107 21.7991L17.5288 22.0846C18.6528 22.2436 19.6862 21.4924 19.8823 20.3746L20.2345 18.3671C20.2725 18.1505 20.4057 17.9672 20.5999 17.8641L22.4003 16.9088C23.4028 16.377 23.7977 15.1617 23.2993 14.1421L22.4042 12.3109ZM9.23158 5.77112C10.6309 5.77112 11.7693 6.90956 11.7693 8.30887C11.7693 9.70817 10.6309 10.8466 9.23158 10.8466C7.83227 10.8466 6.69383 9.70817 6.69383 8.30887C6.69383 6.90956 7.83227 5.77112 9.23158 5.77112ZM7.92171 17.0571C7.78657 17.1923 7.60943 17.2599 7.43234 17.2599C7.25524 17.2599 7.07806 17.1923 6.94297 17.0571C6.67269 16.7869 6.67269 16.3486 6.94297 16.0784L16.0783 6.94299C16.3486 6.67271 16.7868 6.67271 17.0571 6.94299C17.3274 7.21326 17.3274 7.6515 17.0571 7.92178L7.92171 17.0571ZM14.7684 18.2291C13.3691 18.2291 12.2307 17.0907 12.2307 15.6914C12.2307 14.2921 13.3691 13.1536 14.7684 13.1536C16.1677 13.1536 17.3062 14.2921 17.3062 15.6914C17.3062 17.0907 16.1677 18.2291 14.7684 18.2291Z" fill="white"/>
<path d="M14.7685 14.5378C14.1325 14.5378 13.615 15.0553 13.615 15.6913C13.615 16.3274 14.1324 16.8448 14.7685 16.8448C15.4046 16.8448 15.922 16.3274 15.922 15.6913C15.922 15.0553 15.4046 14.5378 14.7685 14.5378Z" fill="white"/>
<path d="M9.23163 7.15527C8.59558 7.15527 8.07812 7.67273 8.07812 8.30877C8.07812 8.94482 8.59558 9.46232 9.23163 9.46232C9.86767 9.46232 10.3852 8.94487 10.3852 8.30877C10.3851 7.67277 9.86767 7.15527 9.23163 7.15527Z" fill="white"/>
</g>
<defs>
<clipPath id="clip0_1530_1509">
<rect width="24" height="24" fill="white"/>
</clipPath>
</defs>
</svg>
