<svg width="88" height="89" viewBox="0 0 88 89" fill="none" xmlns="http://www.w3.org/2000/svg">
<g clip-path="url(#clip0_1_22248)">
<path d="M67.3267 10.4116C67.3267 12.7358 65.4428 14.6197 63.1186 14.6197H56.5977L57.6463 8.32414C58.2547 4.67218 61.4142 1.99609 65.1163 1.99609H78.4126C78.4133 4.32026 76.5287 6.2049 74.2045 6.20419H72.5856C72.5856 8.52766 70.7017 10.4116 68.3775 10.4116H67.3267Z" fill="#719DFF"/>
<path d="M66.7983 51.6498C67.8117 51.5827 68.8165 51.8717 69.6391 52.4674L69.9988 51.3043L72.1102 44.2491L72.3632 43.4025C72.9031 41.5907 74.7729 40.5243 76.6073 40.9801L73.2225 59.199C72.4869 61.3762 71.07 63.2594 69.1812 64.5681L61.7875 69.6623C61.0695 70.0927 60.5424 70.7817 60.3134 71.5872L59.0704 77.8319L58.85 78.1216L49.4141 70.8997L49.4558 70.8453C49.7568 70.1937 49.932 69.4906 49.973 68.7741L50.0868 66.8188C50.5991 63.1922 53.095 60.1565 56.554 58.9531L57.1893 58.7305C58.1843 58.3849 59.0881 57.8189 59.8322 57.0734L63.0665 53.8404V53.839L63.9873 52.9183C64.7378 52.165 65.7377 51.7141 66.7983 51.6498Z" fill="#F7CAA5"/>
<path d="M44.0128 18.8598C44.0311 18.8612 44.0488 18.8612 44.0672 18.8612C45.508 18.8944 46.7044 17.7574 46.7454 16.3166C46.7856 14.8764 45.655 13.6737 44.2149 13.6256C42.7747 13.5776 41.5663 14.7026 41.5105 16.1427C41.4554 17.5822 42.5733 18.7962 44.0128 18.8598ZM44.0128 32.3165H40.4223V32.2013C40.4223 27.5791 38.4917 25.0119 35.203 21.7648C31.546 18.1581 30.4387 12.695 32.4039 7.94913C34.3684 3.20327 39.0125 0.120862 44.1484 0.154074C49.2851 0.187287 53.8889 3.32976 55.7919 8.10035C57.6949 12.8716 56.5169 18.3199 52.8141 21.8786C49.5013 25.0571 47.6584 27.6604 47.6584 32.2515V32.3165H44.0128Z" fill="#FFD748"/>
<path d="M47.658 38.4677V41.3621H40.4219V35.5732H47.658V38.4677Z" fill="#719DFF"/>
<path d="M44.0129 18.8598C42.6377 18.799 41.57 17.638 41.623 16.2629C41.6767 14.887 42.8314 13.8129 44.2072 13.8588C45.5831 13.9048 46.6635 15.0531 46.6247 16.4296C46.5865 17.8055 45.4438 18.8923 44.0673 18.8612C44.0489 18.8612 44.0312 18.8612 44.0129 18.8598Z" fill="#DFB213"/>
<path d="M21.2928 51.6498C22.3528 51.7148 23.352 52.1657 24.1018 52.9183L25.0247 53.8404L28.2576 57.0734C29.0017 57.8182 29.9055 58.3849 30.9004 58.7305L31.5371 58.9531C34.9962 60.1565 37.4921 63.1922 38.0044 66.8188L38.1167 68.7741C38.1591 69.4906 38.3351 70.1937 38.6354 70.8453L38.6771 70.8997L29.2412 78.1216L29.0208 77.8319L27.7763 71.5872C27.5481 70.781 27.0209 70.0927 26.3016 69.6623L18.9086 64.5681C17.019 63.2594 15.6029 61.3769 14.8687 59.199L11.4824 40.9801C13.3176 40.5243 15.1867 41.5907 15.728 43.4025L15.9817 44.2491L18.0924 51.3043L18.4521 52.466C19.2754 51.8717 20.2795 51.5827 21.2928 51.6498Z" fill="#F7CAA5"/>
<path d="M20.7551 10.4116H19.7043C17.3802 10.4116 15.497 8.52766 15.4962 6.20419H13.8773C11.5531 6.2049 9.66851 4.32026 9.66992 1.99609H22.9662C26.6677 1.99609 29.8271 4.67218 30.4355 8.32414L31.4849 14.6197H24.9632C22.6391 14.6197 20.7551 12.7358 20.7551 10.4116Z" fill="#719DFF"/>
<path d="M39.1994 68.7119L39.0871 66.7566C39.0856 66.7262 39.0828 66.6965 39.0786 66.6661C38.5189 62.6333 35.7425 59.2569 31.8948 57.9284L31.256 57.7051C30.4165 57.4119 29.6533 56.9335 29.0244 56.306L24.8686 52.1502C22.9726 50.2599 19.9856 50.021 17.8134 51.5877C17.5802 51.7573 17.3604 51.9459 17.1555 52.1502C16.9463 52.36 16.8311 52.6462 16.8382 52.9423C16.8446 53.2391 16.9725 53.5196 17.1908 53.7196L20.8965 57.1045C21.9621 58.0775 22.9366 59.1467 23.8072 60.2971C24.0404 60.608 24.4227 60.7706 24.8085 60.7225C25.1943 60.6752 25.525 60.4243 25.6756 60.066C25.8268 59.7078 25.7738 59.2965 25.5385 58.987C24.5873 57.7306 23.5238 56.5639 22.36 55.5011L19.6457 53.0215C20.8937 52.4547 22.3621 52.719 23.3337 53.6857L27.4895 57.8408C28.3502 58.7001 29.3932 59.3544 30.5415 59.7551L31.1796 59.9784C34.2444 61.0363 36.4611 63.718 36.9226 66.9269L37.0321 68.8391C37.0823 69.6913 37.2915 70.5266 37.6497 71.3011C37.8116 71.6551 38.15 71.8954 38.5373 71.9307C38.9245 71.9667 39.3019 71.7922 39.5252 71.4742C39.7492 71.1555 39.7852 70.7421 39.6206 70.3902C39.3761 69.8616 39.2333 69.2928 39.1994 68.7119Z" fill="#EDB288"/>
<path d="M70.9332 52.1512C69.8273 51.0418 68.2953 50.4637 66.7322 50.5676C65.4072 50.6489 64.1586 51.2128 63.2202 52.1512L62.2994 53.072C62.2966 53.0755 62.2945 53.079 62.2909 53.0826L59.0644 56.3077C58.4347 56.9366 57.6708 57.4143 56.8306 57.7069L56.1975 57.9288C52.3484 59.2573 49.5712 62.6344 49.0116 66.6679C49.0073 66.6969 49.0045 66.7266 49.0031 66.7562L48.8886 68.7122C48.8561 69.2931 48.7141 69.8627 48.4696 70.3905C48.218 70.9347 48.4554 71.5798 48.9995 71.8314C49.5437 72.083 50.1888 71.8462 50.4404 71.3021C50.7987 70.5269 51.0071 69.691 51.0552 68.838L51.1668 66.9287C51.6283 63.7184 53.8457 61.0352 56.9119 59.9781L57.5436 59.7569C58.6934 59.3562 59.7371 58.7018 60.5985 57.8419L63.8328 54.6089C63.8357 54.6061 63.8378 54.6019 63.8413 54.599L64.7536 53.6868C65.7259 52.7201 67.1944 52.4558 68.4423 53.0225L65.7302 55.5007C64.5649 56.5628 63.5 57.7302 62.5488 58.9873C62.3135 59.2968 62.2605 59.7081 62.4118 60.0664C62.5623 60.4247 62.893 60.6755 63.2788 60.7229C63.6646 60.7709 64.0469 60.6084 64.2801 60.2975C65.1507 59.1463 66.1259 58.0772 67.1929 57.1041L70.8958 53.7193C71.1141 53.52 71.2421 53.2387 71.2484 52.9426C71.2555 52.6466 71.1403 52.3604 70.9311 52.1505L70.9332 52.1512Z" fill="#EDB288"/>
<path d="M43.3823 51.9196C42.7831 51.9196 42.2969 51.4335 42.2969 50.8342V49.0683C42.2969 48.4691 42.7831 47.9829 43.3823 47.9829C43.9822 47.9829 44.4677 48.4691 44.4677 49.0683V50.8342C44.4677 51.4335 43.9822 51.9196 43.3823 51.9196Z" fill="#6FE3FF"/>
<path d="M43.3823 61.8765C42.7831 61.8765 42.2969 61.3904 42.2969 60.7911V53.3579C42.2969 52.7579 42.7831 52.2725 43.3823 52.2725C43.9822 52.2725 44.4677 52.7579 44.4677 53.3579V60.7911C44.4677 61.3904 43.9822 61.8765 43.3823 61.8765Z" fill="#6FE3FF"/>
<path d="M49.1733 58.2587C48.5741 58.2587 48.0879 57.7726 48.0879 57.1733V56.2631C48.0879 55.6639 48.5741 55.1777 49.1733 55.1777C49.7733 55.1777 50.2587 55.6639 50.2587 56.2631V57.1733C50.2587 57.7726 49.7733 58.2587 49.1733 58.2587Z" fill="#6FE3FF"/>
<path d="M49.1733 53.5388C48.5741 53.5388 48.0879 53.0526 48.0879 52.4534V45.5791C48.0879 44.9791 48.5741 44.4937 49.1733 44.4937C49.7733 44.4937 50.2587 44.9791 50.2587 45.5791V52.4534C50.2587 53.0526 49.7733 53.5388 49.1733 53.5388Z" fill="#6FE3FF"/>
<path d="M37.4135 50.4727C36.8143 50.4727 36.3281 49.9866 36.3281 49.3873V46.312C36.3281 45.712 36.8143 45.2266 37.4135 45.2266C38.0135 45.2266 38.4989 45.712 38.4989 46.312V49.3873C38.4989 49.9866 38.0135 50.4727 37.4135 50.4727Z" fill="#6FE3FF"/>
<path d="M37.4135 58.2585C36.8143 58.2585 36.3281 57.7723 36.3281 57.1731V53.3579C36.3281 52.7579 36.8143 52.2725 37.4135 52.2725C38.0135 52.2725 38.4989 52.7579 38.4989 53.3579V57.1731C38.4989 57.7723 38.0135 58.2585 37.4135 58.2585Z" fill="#6FE3FF"/>
<path d="M42.9277 18.8071H45.0986V32.3169H42.9277V18.8071Z" fill="#DFB213"/>
<path d="M60.6477 79.4982V88.154L46.957 79.1089V69.02L49.4141 70.8997L58.8499 78.1217L60.6477 79.4982Z" fill="#E11A7D"/>
<path d="M41.134 69.02V79.1089L27.4434 88.154V79.4982L29.2411 78.1217L38.677 70.8997L41.134 69.02Z" fill="#E11A7D"/>
</g>
<defs>
<clipPath id="clip0_1_22248">
<rect width="88" height="88" fill="white" transform="translate(0 0.154297)"/>
</clipPath>
</defs>
</svg>
