<svg width="28" height="25" viewBox="0 0 28 25" fill="none" xmlns="http://www.w3.org/2000/svg">
<path fill-rule="evenodd" clip-rule="evenodd" d="M2.57992 0.133789H26.2677C27.156 0.133789 27.8828 0.860572 27.8828 1.74886V18.0288C27.8828 18.9166 27.156 19.6439 26.2677 19.6439H11.4144C11.2959 19.6439 11.1883 19.6816 11.1021 19.7408L4.2596 24.1338V20.1822C4.2596 19.8861 4.01734 19.6439 3.72124 19.6439H2.57992C1.69163 19.6439 0.964844 18.9166 0.964844 18.0288V1.74886C0.964844 0.860572 1.69163 0.133789 2.57992 0.133789ZM12.7739 10.8095C12.6712 11.2201 12.6566 11.6748 12.7299 12.1735H15.5679C15.5239 11.7335 15.5679 11.3448 15.6999 11.0075C15.8319 10.6555 16.0079 10.3255 16.2279 10.0175C16.4626 9.70947 16.7119 9.41613 16.9759 9.13747C17.2546 8.84413 17.5112 8.54346 17.7459 8.23547C17.9952 7.92746 18.2006 7.59747 18.3619 7.24547C18.5232 6.8788 18.6039 6.46813 18.6039 6.01346C18.6039 5.36813 18.4939 4.8108 18.2739 4.34146C18.0686 3.85747 17.7752 3.46147 17.3939 3.15346C17.0272 2.84546 16.5872 2.61813 16.0739 2.47146C15.5752 2.3248 15.0326 2.25146 14.4459 2.25146C13.5806 2.25146 12.7886 2.4348 12.0699 2.80147C11.3659 3.16813 10.7572 3.65213 10.2439 4.25346L12.0259 5.88146C12.3192 5.58813 12.6199 5.34613 12.9279 5.15547C13.2506 4.9648 13.6172 4.86946 14.0279 4.86946C14.4679 4.86946 14.8199 4.9868 15.0839 5.22146C15.3626 5.45613 15.5019 5.8008 15.5019 6.25547C15.5019 6.53413 15.4212 6.80546 15.2599 7.06946C15.1132 7.3188 14.9226 7.5828 14.6879 7.86147C14.4532 8.12547 14.2039 8.40413 13.9399 8.69746C13.6906 8.9908 13.4632 9.31347 13.2579 9.66547C13.0526 10.0175 12.8912 10.3988 12.7739 10.8095ZM12.7519 16.9475C13.1186 17.3288 13.5806 17.5195 14.1379 17.5195C14.6952 17.5195 15.1572 17.3288 15.5239 16.9475C15.9052 16.5515 16.0959 16.0675 16.0959 15.4955C16.0959 14.9088 15.9052 14.4248 15.5239 14.0435C15.1572 13.6475 14.6952 13.4495 14.1379 13.4495C13.5806 13.4495 13.1186 13.6475 12.7519 14.0435C12.3852 14.4248 12.2019 14.9088 12.2019 15.4955C12.2019 16.0675 12.3852 16.5515 12.7519 16.9475Z" fill="#E11A7D"/>
</svg>
