<svg width="28" height="25" viewBox="0 0 28 25" fill="none" xmlns="http://www.w3.org/2000/svg">
<path d="M26.2677 0.133789H2.57992C1.69163 0.133789 0.964844 0.860572 0.964844 1.74886V18.0288C0.964844 18.9166 1.69163 19.6439 2.57992 19.6439H3.72124C4.01734 19.6439 4.2596 19.8861 4.2596 20.1822V24.1338L11.1021 19.7408C11.1883 19.6816 11.2959 19.6439 11.4144 19.6439H26.2677C27.156 19.6439 27.8828 18.9166 27.8828 18.0288V1.74886C27.8828 0.860572 27.156 0.133789 26.2677 0.133789ZM21.4612 8.93164L17.7266 11.6423L19.1452 16.0159V16.0326L19.1608 16.0961C19.2217 16.3427 19.1264 16.5871 18.9056 16.7507C18.792 16.8299 18.6569 16.8762 18.5261 16.8762C18.4114 16.8762 18.3081 16.8455 18.2198 16.7857L18.1697 16.7518L18.1428 16.7416L14.4238 14.0423L10.7043 16.7421L10.6779 16.7524L10.6278 16.7863C10.5395 16.846 10.4367 16.8767 10.3215 16.8767C10.1896 16.8767 10.0523 16.8304 9.93605 16.7464C9.71694 16.5871 9.62218 16.3427 9.68571 16.0956L9.7024 16.0299V16.0164L11.121 11.6428L7.38584 8.93164C7.15973 8.76421 7.07252 8.48641 7.16189 8.20862C7.24318 7.96044 7.45152 7.79247 7.70455 7.77201L7.77185 7.76663L7.78315 7.76232H12.3813L13.8106 3.3747L13.8321 3.3241C13.9495 3.07915 14.1552 2.93648 14.4303 2.93325C14.6978 2.93325 14.9234 3.08076 15.0138 3.31818L15.0499 3.40862L16.4669 7.76232H21.0784L21.1436 7.77201C21.3966 7.79193 21.6044 7.96044 21.6873 8.21077C21.7756 8.48803 21.69 8.76474 21.4612 8.93164Z" fill="#E11A7D"/>
</svg>
