<svg width="92" height="92" viewBox="0 0 92 92" fill="none" xmlns="http://www.w3.org/2000/svg">
<g clip-path="url(#clip0_1_22268)">
<path d="M90.4904 31.2087C90.5109 38.5817 87.8793 45.7157 83.0771 51.3101L88.2486 63.4665L70.2201 60.3126C68.0659 61.1119 65.8305 61.6713 63.5541 61.9791C63.6551 60.9651 63.7056 59.9378 63.7056 58.897C63.7127 53.8604 62.4896 48.898 60.1422 44.4421L60.225 44.3995L61.5341 43.9048C72.7688 39.3511 76.5626 31.1519 75.3711 25.0091C74.5386 20.8901 71.6136 18.2184 67.8198 18.2184C65.7256 18.2184 63.412 19.0848 61.1719 20.711C58.8954 19.0122 56.6214 18.145 54.4877 18.145C50.6963 18.145 47.7696 20.8199 46.9735 25.0091C46.575 27.2279 46.7659 29.513 47.5274 31.6348C42.9674 29.143 37.8535 27.841 32.6575 27.8497C31.2837 27.8489 29.9115 27.9389 28.5488 28.118C30.1924 11.6518 44.4627 -0.631578 60.9904 0.192994C77.5181 1.01757 90.4943 14.6605 90.4904 31.2087Z" fill="#719DFF"/>
<path d="M75.3699 25.0091C76.5614 31.1519 72.7676 39.3511 61.5329 43.9048L60.2239 44.3995L60.141 44.4422C57.2838 39.0276 52.8966 34.5733 47.5262 31.6349C46.7648 29.5131 46.5738 27.2279 46.9723 25.0091C47.7685 20.8199 50.6951 18.145 54.4866 18.145C56.6202 18.145 58.8943 19.0122 61.1707 20.7111C63.4109 19.0848 65.7244 18.2184 67.8186 18.2184C71.6124 18.2184 74.5375 20.8902 75.3699 25.0091Z" fill="white"/>
<path d="M28.5485 28.1179C29.9112 27.9388 31.2834 27.8488 32.6571 27.8496C40.8934 27.8449 48.7927 31.114 54.6168 36.9381C60.4401 42.7614 63.7099 50.6615 63.7052 58.8969C63.7052 59.9369 63.6547 60.9643 63.5537 61.979C62.6084 71.5519 57.2751 80.1433 49.1162 85.2375C40.9573 90.3317 30.8959 91.3519 21.8809 87.9992L3.85234 91.1547L9.02308 78.9976C1.65243 70.3502 -0.401503 58.3651 3.66928 47.7569C7.74085 37.1487 17.2854 29.6148 28.5485 28.1179ZM49.1935 59.5511C49.1935 58.9908 48.9702 58.4535 48.5741 58.0582C48.178 57.662 47.6407 57.4395 47.0804 57.4403H38.9254C38.0362 57.4403 37.2905 56.7704 37.1942 55.8867C37.0483 54.5445 37.2195 53.1865 37.6929 51.9216C37.9123 51.3345 38.0796 50.7285 38.1924 50.1115C38.3037 49.4952 38.3597 48.8703 38.3597 48.243V47.4697C38.3605 45.3684 36.6577 43.6648 34.5564 43.664L34.1279 46.4573C33.6719 49.4416 32.5143 52.2743 30.7507 54.7236C29.6981 56.1739 28.0143 57.0324 26.2215 57.0324H24.2015V54.0686H16.1215V74.7437H24.2015V72.1201H26.0661C28.4096 72.1201 30.7066 72.7742 32.6982 74.0107C33.6719 74.5977 34.7552 74.9812 35.8812 75.1375C37.0238 75.2945 38.1766 75.3615 39.3294 75.3379H45.9063C47.1475 75.3379 48.1535 74.3318 48.1535 73.0906C48.1535 71.8494 47.1475 70.8434 45.9063 70.8434H46.9344C48.1812 70.8434 49.192 69.8326 49.192 68.5859C49.192 67.3391 48.1812 66.3283 46.9344 66.3283H46.8658C48.1512 66.3283 49.1935 65.2868 49.1935 64.0014C49.1935 62.716 48.1512 61.6744 46.8658 61.6744V61.6642H47.0804C48.2474 61.665 49.1935 60.7181 49.1935 59.5511Z" fill="#E11A7D"/>
<path d="M46.8655 61.6642V61.6745C48.1508 61.6745 49.1932 62.716 49.1932 64.0014C49.1932 65.2868 48.1508 66.3284 46.8655 66.3284H46.9341C48.1808 66.3284 49.1916 67.3392 49.1916 68.5859C49.1916 69.8326 48.1808 70.8434 46.9341 70.8434H45.906C47.1472 70.8434 48.1532 71.8494 48.1532 73.0906C48.1532 74.3318 47.1472 75.3379 45.906 75.3379H39.3291C38.1763 75.3616 37.0235 75.2945 35.8809 75.1375C34.7549 74.9812 33.6715 74.5978 32.6978 74.0107C30.7062 72.7742 28.4092 72.1201 26.0657 72.1201H24.2012V57.0324H26.2212C28.0139 57.0324 29.6978 56.1739 30.7504 54.7236C32.514 52.2743 33.6715 49.4416 34.1276 46.4574L34.5561 43.6641C36.6573 43.6649 38.3601 45.3684 38.3593 47.4697V48.243C38.3593 48.8703 38.3033 49.4952 38.1921 50.1115C38.0792 50.7286 37.9119 51.3346 37.6926 51.9216C37.2191 53.1865 37.0479 54.5445 37.1939 55.8867C37.2902 56.7704 38.0358 57.4403 38.9251 57.4403H47.0801C48.2463 57.4403 49.1916 58.3856 49.1916 59.5527C49.1916 60.7189 48.2463 61.6642 47.0801 61.6642H46.8655Z" fill="#F7CAA5"/>
<path d="M24.2011 72.1203V74.7439H16.1211V54.0688H24.2011V72.1203Z" fill="white"/>
</g>
<defs>
<clipPath id="clip0_1_22268">
<rect width="91" height="91" fill="white" transform="translate(0.5 0.154297)"/>
</clipPath>
</defs>
</svg>
