<svg width="96" height="96" viewBox="0 0 96 96" fill="none" xmlns="http://www.w3.org/2000/svg">
<g clip-path="url(#clip0_1_22177)">
<path d="M77.6968 21.3804C91.4918 22.5377 99.7449 37.6568 93.2394 50.1165C93.2394 50.1165 90.967 55.7278 90.7468 58.0984C89.9971 66.1392 93.3559 78.7378 93.3559 78.7378H73.5843L71.8079 71.6732C71.465 70.314 70.2398 69.3641 68.8384 69.3696C67.6603 69.376 66.2389 69.3816 65.0504 69.388H65.0465L65.0098 66.9728L65.2937 66.968L70.5046 66.9353C74.4385 66.8986 77.5979 63.6802 77.562 59.7463L77.5349 56.8261C77.6314 56.8301 77.7295 56.8301 77.8253 56.8301C79.5274 56.815 81.153 56.1218 82.343 54.9047C83.5323 53.6875 84.1887 52.0468 84.1656 50.3446L84.1552 49.5446C84.1082 46.0207 81.2208 43.1979 77.6968 43.2306V21.3804Z" fill="#719DFF"/>
<path d="M77.6956 21.3805V43.2307C74.1852 43.2626 71.356 46.1165 71.3552 49.626V49.7162L71.3656 50.5162C71.4103 53.9285 74.1246 56.7042 77.5337 56.8262L77.5608 59.7463C77.5967 63.6802 74.4373 66.8987 70.5034 66.9354L65.2925 66.9681L65.0085 66.9729L64.9678 64.2362H57.7804V57.7228H51.5214C51.212 57.7228 50.9208 57.5704 50.7445 57.3152C50.5691 57.0599 50.5292 56.7345 50.6401 56.4442L54.7135 45.7751C54.7135 45.7751 54.7239 41.7527 54.7462 41.3666C55.3692 30.0196 64.8187 21.1771 76.1825 21.3071C76.3636 21.3087 76.5478 21.3127 76.7297 21.3214C77.0543 21.3334 77.3765 21.3517 77.6956 21.3805Z" fill="#719DFF"/>
<path d="M43.3197 57.457C43.425 57.7338 43.3883 58.0449 43.22 58.2889C43.0517 58.5322 42.7749 58.6782 42.4782 58.6782H36.5056V65.3288C36.5056 66.546 36.0126 67.7113 35.1392 68.5592C34.2666 69.4071 33.087 69.8665 31.8706 69.8314C31.5523 69.821 28.2629 69.8043 25.949 69.7963C24.6114 69.7899 23.442 70.6976 23.1166 71.9954L21.4201 78.7377H2.54659C2.54659 78.7377 5.75225 66.7127 5.03758 59.0355C4.827 56.7726 2.65905 51.4166 2.65905 51.4166C-3.69565 39.2488 4.69858 24.4225 18.4162 23.9303C18.5901 23.9247 18.7655 23.9199 18.9394 23.9184C29.7856 23.7939 38.8059 32.2344 39.401 43.0654C39.4233 43.4347 39.4321 47.2721 39.4321 47.2721L43.3197 57.457Z" fill="#E11A7D"/>
<path d="M65.3011 68.1933L65.2852 65.743L70.4961 65.7103C73.7512 65.6752 76.3634 63.0127 76.3363 59.7576L76.302 55.9577L78.7523 55.9346L78.7866 59.7353C78.8241 64.3431 75.1247 68.1119 70.5168 68.1606L65.3011 68.1933Z" fill="white"/>
<path d="M76.4707 21.3213H78.921V43.2305H76.4707V21.3213Z" fill="white"/>
<path d="M28.6278 16.5557C28.1596 16.5549 27.7328 16.2885 27.527 15.8682C27.3212 15.4478 27.3731 14.9469 27.661 14.5776C32.3232 8.28991 39.4476 4.29061 47.2428 3.58391C55.0388 2.87721 62.7662 5.53171 68.4828 10.879C68.9702 11.3424 68.9933 12.1113 68.5347 12.6035C68.0752 13.0948 67.3063 13.1243 66.8102 12.6697C61.6009 7.79618 54.5578 5.37857 47.4534 6.02545C40.3481 6.67232 33.8578 10.3231 29.6144 16.0572C29.3831 16.3707 29.017 16.5557 28.6278 16.5565V16.5557Z" fill="#719DFF"/>
<path d="M40.8335 92.079C33.8622 92.0782 27.151 89.4316 22.0549 84.6746C21.5676 84.212 21.5445 83.4422 22.0039 82.9509C22.4625 82.4596 23.2322 82.4293 23.7276 82.8839C28.9377 87.7582 35.9799 90.175 43.0852 89.5281C50.1897 88.8813 56.68 85.2313 60.9233 79.4964C61.1546 79.1829 61.5208 78.9979 61.9108 78.9971C62.3782 78.9971 62.8057 79.2643 63.0107 79.6846C63.2165 80.105 63.1647 80.6051 62.8775 80.9744C57.7025 87.9584 49.5252 92.0774 40.8335 92.079Z" fill="#719DFF"/>
<path d="M77.5339 56.8265C74.1248 56.7045 71.4105 53.9288 71.3658 50.5165L71.3555 49.7165V49.6264C71.3499 46.104 74.1918 43.2398 77.7142 43.2174C81.2365 43.1943 84.1144 46.0227 84.1542 49.545L84.1646 50.345C84.1877 52.0472 83.5313 53.6879 82.342 54.9051C81.152 56.1222 79.5264 56.8154 77.8242 56.8305C77.7285 56.8305 77.6304 56.8305 77.5339 56.8265Z" fill="#6FE3FF"/>
<path d="M65.0454 69.3882L65.0518 69.8684L56.5387 69.9984C54.9507 70.0176 53.6473 68.7469 53.625 67.1581V67.1174C53.625 65.5389 54.8956 64.2547 56.4733 64.2363H64.9681L65.0087 66.973L65.0454 69.3882Z" fill="#6FE3FF"/>
<path d="M61.908 80.2249L56.2656 76.5534L65.6585 74.5649L67.6478 83.9594L61.908 80.2249Z" fill="#6FE3FF"/>
<path d="M28.6304 15.3282L34.2728 18.9997L24.8799 20.9882L22.8906 11.5938L28.6304 15.3282Z" fill="#6FE3FF"/>
</g>
<defs>
<clipPath id="clip0_1_22177">
<rect width="95" height="95" fill="white" transform="translate(0.5 0.154297)"/>
</clipPath>
</defs>
</svg>
