<svg width="20" height="20" viewBox="0 0 20 20" fill="none" xmlns="http://www.w3.org/2000/svg">
<g clip-path="url(#clip0_1_15066)">
<path d="M10 20C15.5228 20 20 15.5228 20 10C20 4.47715 15.5228 0 10 0C4.47715 0 0 4.47715 0 10C0 15.5228 4.47715 20 10 20Z" fill="#FFD93B"/>
<path d="M19.9992 10.0002C19.9992 15.5252 15.5211 20.0002 9.99921 20.0002C6.85546 20.0002 4.04922 18.5502 2.21484 16.2783C3.93047 17.6658 6.11484 18.4939 8.49296 18.4939C14.0148 18.4939 18.4929 14.0189 18.4929 8.49395C18.4929 6.11582 17.6648 3.93145 16.2773 2.21582C18.5461 4.0502 19.9992 6.85645 19.9992 10.0002Z" fill="#F4C534"/>
<path d="M13.8517 15.906C13.3542 16.206 12.0155 14.871 10.1705 14.8548C8.35234 14.8385 6.98671 16.2066 6.48921 15.906C5.89359 15.6635 6.91234 12.7572 10.1705 12.7397C13.4286 12.7572 14.4473 15.6641 13.8517 15.906Z" fill="#3E4347"/>
<path d="M15.2471 8.65334C15.2471 9.53396 14.5265 10.2546 13.6421 10.2546C12.7571 10.2546 12.0371 9.53396 12.0371 8.65334C12.0371 7.76459 12.7577 7.04834 13.6421 7.04834C14.5271 7.04834 15.2471 7.76459 15.2471 8.65334Z" fill="#3E4347"/>
<path d="M14.3776 7.74756C14.1803 7.57625 13.9319 7.53922 13.8228 7.66486C13.7137 7.79049 13.7853 8.0312 13.9826 8.20251C14.1799 8.37382 14.4283 8.41085 14.5373 8.28522C14.6464 8.15959 14.5749 7.91887 14.3776 7.74756Z" fill="#5A5F63"/>
<path d="M7.96195 8.65334C7.96195 9.53396 7.24133 10.2546 6.35695 10.2546C5.47258 10.2546 4.75195 9.53396 4.75195 8.65334C4.75195 7.76459 5.47258 7.04834 6.35695 7.04834C7.24133 7.04834 7.96195 7.76459 7.96195 8.65334Z" fill="#3E4347"/>
<path d="M7.09048 7.74805C6.89317 7.57675 6.64479 7.53972 6.53572 7.66535C6.42664 7.79098 6.49817 8.03169 6.69548 8.203C6.89278 8.37431 7.14116 8.41134 7.25023 8.28571C7.35931 8.16008 7.28779 7.91936 7.09048 7.74805Z" fill="#5A5F63"/>
</g>
<defs>
<clipPath id="clip0_1_15066">
<rect width="20" height="20" fill="white"/>
</clipPath>
</defs>
</svg>
