<svg width="26" height="37" viewBox="0 0 26 37" fill="none" xmlns="http://www.w3.org/2000/svg">
<path d="M12.6755 0.743164C5.6861 0.743164 0 6.51863 0 13.6173V23.8694C0 30.968 5.6861 36.7432 12.6755 36.7432C19.6645 36.7432 25.351 30.9856 25.351 23.9087V13.6173C25.351 6.51863 19.6645 0.743164 12.6755 0.743164ZM22.9669 23.9087C22.9669 29.6711 18.3504 34.3591 12.6755 34.3591C7.00095 34.3591 2.38416 29.6533 2.38416 23.869V13.6173C2.38416 7.83305 7.00095 3.12725 12.6755 3.12725C18.3505 3.12725 22.9669 7.83305 22.9669 13.6173V23.9087Z" fill="white"/>
<path d="M12.9223 10.7896C12.2511 10.7896 11.707 11.3336 11.707 12.0048V16.2583C11.707 16.9295 12.2511 17.4736 12.9223 17.4736C13.5936 17.4736 14.1376 16.9295 14.1376 16.2583V12.0048C14.1376 11.3336 13.5936 10.7896 12.9223 10.7896Z" fill="white"/>
</svg>
