<svg width="20" height="20" viewBox="0 0 20 20" fill="none" xmlns="http://www.w3.org/2000/svg">
<path d="M8.16242 2.65543e-05H8.26242C9.83258 -0.00392319 11.3723 0.432821 12.7066 1.26059C14.0409 2.08836 15.116 3.27393 15.8099 4.68248C16.5038 6.09102 16.7884 7.66601 16.6315 9.22832C16.4746 10.7906 15.8825 12.2776 14.9224 13.52L19.5524 18.05C19.6463 18.1419 19.7212 18.2515 19.7727 18.3723C19.8243 18.4932 19.8516 18.623 19.853 18.7544C19.8544 18.8858 19.8299 19.0162 19.7809 19.1381C19.7319 19.26 19.6593 19.3711 19.5674 19.465C19.4755 19.5589 19.366 19.6338 19.2451 19.6853C19.1243 19.7369 18.9944 19.7642 18.863 19.7656C18.7316 19.767 18.6012 19.7425 18.4793 19.6935C18.3574 19.6445 18.2463 19.5719 18.1524 19.48L13.5224 14.95C12.0579 16.1348 10.2361 16.7902 8.35242 16.81H8.25242C6.07244 16.7474 4.00204 15.8404 2.47804 14.2804C0.954046 12.7204 0.0956535 10.6294 0.0839767 8.44851C0.0723019 6.26767 0.908257 4.16758 2.41546 2.59133C3.92266 1.01509 5.98324 0.0859751 8.16242 2.65543e-05ZM8.33242 14.81C9.60051 14.7961 10.836 14.4063 11.8825 13.69C12.929 12.9737 13.7395 11.9631 14.2115 10.786C14.6834 9.60895 14.7957 8.31833 14.5339 7.07747C14.2722 5.83661 13.6483 4.70126 12.7411 3.8151C11.8339 2.92893 10.6843 2.33176 9.43763 2.09916C8.19098 1.86655 6.90335 2.00896 5.73765 2.50837C4.57196 3.00778 3.5806 3.84173 2.88901 4.90472C2.19741 5.96771 1.83667 7.21195 1.85242 8.48002C1.87351 10.1783 2.56778 11.7989 3.78275 12.9857C4.99772 14.1726 6.63406 14.8287 8.33242 14.81Z" fill="black"/>
</svg>
