<svg width="19" height="18" viewBox="0 0 19 18" fill="none" xmlns="http://www.w3.org/2000/svg">
<g clip-path="url(#clip0_2541_2210)">
<path d="M3.81701 9.53352C4.973 9.53352 5.99113 8.96337 6.61972 8.09022C7.22544 8.96152 8.23042 9.53352 9.3703 9.53352C10.5072 9.53352 11.5114 8.96448 12.1177 8.09699C12.7426 8.96594 13.761 9.53352 14.911 9.53352C17.1169 9.53352 18.7853 7.39588 18.2463 5.25621L17.1947 1.08097C17.0349 0.446615 16.4659 0.00360107 15.8112 0.00360107H2.87742C2.22273 0.00360107 1.65388 0.446615 1.4941 1.08101L0.449212 5.23137C0.151102 6.41497 0.542943 7.4464 1.23497 8.38545V16.5711C1.23497 17.357 1.86945 17.9963 2.65601 17.9963H16.0379C16.8244 17.9963 17.4592 17.3569 17.4592 16.5711V11.2625C17.4592 10.9181 17.1695 10.639 16.8248 10.639C16.4802 10.639 16.1905 10.9181 16.1905 11.2625V16.5712C16.1905 16.6694 16.1362 16.7661 16.0379 16.7661H12.1152V11.8964C12.1152 11.552 11.8353 11.2683 11.4906 11.2683H7.2036C6.85893 11.2683 6.57901 11.552 6.57901 11.8964V16.7661H2.65601C2.55771 16.7661 2.50369 16.6694 2.50369 16.5712V9.2717C2.88815 9.44279 3.35323 9.53352 3.81701 9.53352ZM12.7303 1.23387H15.8112C15.893 1.23387 15.9641 1.29762 15.9841 1.37689L17.0356 5.55624C17.3775 6.91393 16.3192 8.28437 14.9161 8.28437C13.7076 8.28437 12.7303 7.30358 12.7303 6.09541V1.23387ZM7.271 1.23387H11.5001V6.09541C11.5001 7.26913 10.5818 8.28649 9.38318 8.28649C8.16494 8.28649 7.271 7.25775 7.271 6.0755V1.23387ZM7.84769 12.537H10.8465V16.7661H7.84769V12.537ZM1.65857 5.53567L2.70415 1.37697C2.72414 1.29766 2.79561 1.23391 2.87742 1.23391H6.00228V6.07553C6.00228 7.29416 5.01764 8.28564 3.79886 8.28649C2.38086 8.2856 1.31248 6.91 1.65857 5.53567Z" fill="#686777"/>
</g>
<defs>
<clipPath id="clip0_2541_2210">
<rect width="18" height="18" fill="white" transform="translate(0.348267)"/>
</clipPath>
</defs>
</svg>
