<svg width="20" height="20" viewBox="0 0 20 20" fill="none" xmlns="http://www.w3.org/2000/svg">
<g clip-path="url(#clip0_1_15050)">
<path d="M10 20C4.47715 20 0 15.5228 0 10C0 4.47715 4.47715 0 10 0C15.5228 0 20 4.47715 20 10C20 15.5228 15.5228 20 10 20Z" fill="#FFD93B"/>
<path d="M0.000801086 10.0002C0.000801086 15.5252 4.47892 20.0002 10.0008 20.0002C13.1445 20.0002 15.9508 18.5502 17.7852 16.2783C16.0695 17.6658 13.8852 18.4939 11.507 18.4939C5.98517 18.4939 1.50705 14.0189 1.50705 8.49395C1.50705 6.11582 2.33517 3.93145 3.72267 2.21582C1.45392 4.0502 0.000801086 6.85645 0.000801086 10.0002Z" fill="#F4C534"/>
<path d="M4.82981 12.0804C3.95106 12.321 5.35918 16.9935 10.0004 17.0279C14.6417 16.9935 16.0498 12.321 15.1711 12.0804C14.4686 11.7341 12.5842 13.6529 10.0004 13.6529C7.38106 13.6523 5.53231 11.7341 4.82981 12.0804Z" fill="#3E4347"/>
<path d="M13.2281 10.0304C13.2825 10.0973 13.3738 10.1135 13.4488 10.0723C14.0113 9.77664 16.2738 8.50977 16.4906 7.33039C16.6281 6.58477 16.1363 5.86789 15.3906 5.73039C14.8531 5.63039 14.3325 5.85976 14.0281 6.28039C13.8988 5.78039 13.4906 5.38039 12.9531 5.28476C12.2075 5.14726 11.495 5.63914 11.3575 6.38476C11.1406 7.56352 12.8075 9.55102 13.2281 10.0304Z" fill="#E24B4B"/>
<path d="M12.992 9.7511C13.0877 9.86798 13.1714 9.9636 13.2295 10.0305C13.2839 10.0974 13.3752 10.1136 13.4502 10.0724C14.0127 9.77673 16.2752 8.50985 16.492 7.33047C16.617 6.65985 16.2339 6.01359 15.6127 5.79297C15.9295 6.10109 16.092 6.55985 16.0045 7.0261C15.792 8.1886 13.5964 9.43423 12.992 9.7511Z" fill="#D03F3F"/>
<g opacity="0.2">
<path opacity="0.2" d="M11.9794 6.22647C12.0888 5.94793 12.3295 5.78184 12.5172 5.8555C12.7048 5.92916 12.7683 6.21468 12.6589 6.49322C12.5496 6.77176 12.3088 6.93785 12.1212 6.86419C11.9336 6.79053 11.8701 6.50501 11.9794 6.22647Z" fill="white"/>
</g>
<path d="M7.00063 10.0304C6.94625 10.0973 6.855 10.1135 6.78 10.0723C6.2175 9.77664 3.95501 8.50977 3.73814 7.33039C3.60064 6.58477 4.09251 5.86789 4.83813 5.73039C5.37563 5.63039 5.89626 5.85976 6.20063 6.28039C6.33 5.78039 6.73813 5.38039 7.27563 5.28476C8.02125 5.14726 8.73375 5.63914 8.87125 6.38476C9.08812 7.56352 7.42188 9.55102 7.00063 10.0304Z" fill="#E24B4B"/>
<path d="M7.23828 9.7511C7.14266 9.86798 7.05891 9.9636 7.00078 10.0305C6.94641 10.0974 6.85516 10.1136 6.78016 10.0724C6.21766 9.77673 3.95516 8.50985 3.73828 7.33047C3.61328 6.65985 3.99641 6.01359 4.61766 5.79297C4.30078 6.10109 4.13828 6.55985 4.22578 7.0261C4.43828 8.1886 6.63453 9.43423 7.23828 9.7511Z" fill="#D03F3F"/>
<g opacity="0.2">
<path opacity="0.2" d="M7.71525 5.85648C7.90289 5.78283 8.14363 5.94891 8.25298 6.22745C8.36232 6.50599 8.29886 6.79151 8.11123 6.86516C7.92359 6.93882 7.68284 6.77273 7.5735 6.4942C7.46415 6.21566 7.52762 5.93014 7.71525 5.85648Z" fill="white"/>
</g>
<path d="M10.0008 17.0279C9.10453 17.021 8.33016 16.8404 7.66828 16.5535C7.81828 16.1129 8.08766 15.7285 8.44203 15.4404C8.72641 15.206 9.11703 15.1635 9.46828 15.2773C9.67078 15.341 9.89828 15.3804 10.1502 15.3804C10.3458 15.3804 10.5264 15.3554 10.6933 15.3167C11.0733 15.221 11.4708 15.3342 11.7477 15.6117C12.0095 15.8735 12.2102 16.196 12.332 16.5548C11.6702 16.841 10.8964 17.0217 10.0008 17.0279Z" fill="#E24B4B"/>
</g>
<defs>
<clipPath id="clip0_1_15050">
<rect width="20" height="20" fill="white" transform="matrix(-1 0 0 1 20 0)"/>
</clipPath>
</defs>
</svg>
