<svg width="14" height="16" viewBox="0 0 14 16" fill="none" xmlns="http://www.w3.org/2000/svg">
<path d="M1.08067 11.2753C2.08867 10.4233 2.66667 9.178 2.66667 7.85867V6C2.66667 3.654 4.40933 1.712 6.66667 1.38667V0.666667C6.66667 0.298 6.96533 0 7.33333 0C7.70133 0 8 0.298 8 0.666667V1.38667C10.258 1.712 12 3.654 12 6V7.85867C12 9.178 12.578 10.4233 13.592 11.2807C13.8513 11.5027 14 11.8253 14 12.1667C14 12.81 13.4767 13.3333 12.8333 13.3333H1.83333C1.19 13.3333 0.666667 12.81 0.666667 12.1667C0.666667 11.8253 0.815334 11.5027 1.08067 11.2753Z" fill="white"/>
<path d="M7.33332 16C6.12599 16 5.11599 15.1393 4.88399 14H9.78265C9.55065 15.1393 8.54065 16 7.33332 16Z" fill="white"/>
</svg>
