<svg width="32" height="32" viewBox="0 0 32 32" fill="none" xmlns="http://www.w3.org/2000/svg">
<circle cx="16" cy="16" r="16" fill="#E11A7D"/>
<g opacity="0.5" clip-path="url(#clip0_1_15021)">
<path d="M23.9102 25.6735H8.08202L8.03047 25.1604C8.00755 24.9123 7.99609 24.6586 7.99609 24.4161C7.99609 20.0744 11.5822 16.5391 15.999 16.5391C20.4157 16.5391 24.0018 20.0688 24.0018 24.4161C24.0018 24.6586 23.9904 24.9123 23.9675 25.1604L23.9102 25.6735Z" fill="white"/>
<path d="M15.9977 15.9811C13.1104 15.9811 10.7617 13.6693 10.7617 10.8275C10.7617 7.98564 13.1104 5.67383 15.9977 5.67383C18.8849 5.67383 21.2336 7.98564 21.2336 10.8275C21.2336 13.6693 18.8849 15.9811 15.9977 15.9811Z" fill="white"/>
</g>
<defs>
<clipPath id="clip0_1_15021">
<rect width="16.0057" height="19.9997" fill="white" transform="translate(7.99609 5.67383)"/>
</clipPath>
</defs>
</svg>
